<svg width="19" height="23" viewBox="0 0 19 23" fill="none" xmlns="http://www.w3.org/2000/svg">
<path d="M0 12.6476C0 12.2369 0 11.8261 0 11.416C0.0156146 11.3697 0.0430962 11.324 0.0449699 11.2771C0.0818203 10.4716 0.259202 9.69835 0.560875 8.94977C1.78193 5.92454 5.33393 4.47555 7.90846 5.98322C8.81473 6.51378 9.76222 6.45263 10.6978 5.99001C11.0663 5.80781 11.4473 5.63919 11.839 5.51381C12.9738 5.15002 14.0843 5.37052 15.198 5.66699C16.291 5.9579 17.0698 6.62557 17.7 7.5471C17.5327 7.69348 17.3715 7.8201 17.2266 7.96277C16.7794 8.4013 16.2391 8.78424 15.9137 9.29935C14.9475 10.8299 14.9619 13.3659 16.5839 15.049C17.0748 15.5586 17.627 15.9779 18.2784 16.2454C17.9218 17.4245 17.4159 18.5084 16.692 19.48C16.2192 20.1143 15.7195 20.7307 15.2017 21.3298C14.2505 22.4299 12.3605 22.2965 11.5348 21.7461C11.3243 21.6059 11.0832 21.4917 10.8396 21.4237C10.0683 21.2088 9.27942 21.1952 8.50431 21.3799C8.1508 21.4639 7.83164 21.68 7.48437 21.8005C7.05091 21.9512 6.60433 22.0655 6.16338 22.1952C5.95602 22.1952 5.74866 22.1952 5.54067 22.1952C4.77118 22.0321 4.18845 21.5967 3.67567 21.0198C1.92246 19.0483 0.723891 16.8099 0.245461 14.2146C0.149275 13.6945 0.0811957 13.1701 0 12.6476Z" fill="white"/>
<path d="M13.6274 0.0018636C13.7548 1.58303 13.1727 2.87824 12.0746 3.94676C11.3976 4.60579 10.5694 5.02702 9.60005 5.11782C9.08977 5.16599 9.06916 5.16476 9.09164 4.67373C9.17783 2.80227 10.1147 1.44901 11.7355 0.543538C12.4744 0.131569 13.0815 -0.0172834 13.6274 0.0018636Z" fill="white"/>
</svg>
