<svg width="17" height="17" viewBox="0 0 17 17" fill="none" xmlns="http://www.w3.org/2000/svg">
<g clip-path="url(#clip0_2007_1087)">
<path d="M9.83384 8.48475C8.99917 9.4862 8.17923 10.4689 7.35986 11.4527C5.93984 13.1576 4.53059 14.8709 3.09357 16.5615C2.80118 16.9058 2.33823 17.0078 1.88378 16.9648C1.46616 16.9251 1.21287 16.6475 1.09614 16.2685C1.03211 16.0605 0.980541 15.8386 0.979974 15.6229C0.973741 11.4119 0.974875 7.20135 0.974875 2.99085C0.974875 2.44847 0.957309 1.90553 0.981674 1.3637C0.993007 1.10327 1.05024 0.834562 1.14374 0.590131C1.3245 0.116719 1.72058 -0.0703289 2.22773 0.0262295C2.65498 0.107339 3.00177 0.282799 3.28906 0.632065C5.07117 2.79608 6.87254 4.94464 8.66825 7.09817C9.04903 7.55393 9.43322 8.00748 9.83384 8.48475Z" fill="white"/>
<path d="M13.2482 11.0861C12.5439 10.2457 11.8582 9.43023 11.1794 8.60921C11.1391 8.5601 11.1159 8.43927 11.1476 8.40064C11.8423 7.55865 12.5461 6.72328 13.2658 5.86584C14.1979 6.40823 15.1363 6.91364 16.0293 7.48637C16.6996 7.91619 16.8158 8.591 16.3789 9.11738C16.2214 9.30664 16.0304 9.48706 15.8179 9.61287C14.9748 10.1133 14.1174 10.5906 13.2482 11.0861Z" fill="white"/>
<path d="M4.75287 1.30164C7.25405 2.7147 9.75467 4.12776 12.2808 5.55517C11.5997 6.37178 10.9361 7.16687 10.2505 7.989C8.39528 5.7654 6.55311 3.55779 4.71094 1.35074C4.7251 1.33419 4.7387 1.31819 4.75287 1.30164Z" fill="white"/>
<path d="M10.2516 8.98108C10.9299 9.79493 11.5934 10.5906 12.2734 11.4061C9.75296 12.8368 7.25462 14.2554 4.75627 15.6734C4.74097 15.6569 4.72567 15.6398 4.71094 15.6232C6.54801 13.4206 8.38508 11.2179 10.2516 8.98108Z" fill="white"/>
</g>
<defs>
<clipPath id="clip0_2007_1087">
<rect width="15.6667" height="16.9722" fill="white" transform="translate(0.96875)"/>
</clipPath>
</defs>
</svg>
