<svg width="30" height="24" viewBox="0 0 30 24" fill="none" xmlns="http://www.w3.org/2000/svg">
<g clip-path="url(#clip0_2007_1053)">
<path d="M0.8125 20.7319C3.39607 22.3904 6.47604 23.3606 9.78165 23.3606C20.6462 23.3606 26.7723 14.1884 26.4112 5.96386C27.5507 5.14028 28.5435 4.11362 29.3333 2.9403C28.284 3.40286 27.1558 3.71875 25.9712 3.86542C27.1784 3.14337 28.1035 1.99261 28.5435 0.627496C27.4153 1.29313 26.163 1.78954 24.8318 2.04902C23.7487 0.898263 22.2369 0.1875 20.5446 0.1875C16.7652 0.1875 13.9898 3.70747 14.8472 7.3741C9.996 7.1259 5.6863 4.80182 2.79812 1.25929C1.26378 3.88798 2.00839 7.32897 4.60323 9.06639C3.64427 9.03255 2.74171 8.77306 1.95198 8.33307C1.88428 11.0407 3.83606 13.5792 6.64527 14.1433C5.82168 14.3689 4.91913 14.414 4.00529 14.2448C4.7499 16.5689 6.90475 18.2612 9.46575 18.3063C7.01757 20.2355 3.91504 21.093 0.8125 20.7319Z" fill="#5F5F5F"/>
</g>
<defs>
<clipPath id="clip0_2007_1053">
<rect width="28.5095" height="23.1731" fill="white" transform="translate(0.8125 0.1875)"/>
</clipPath>
</defs>
</svg>
