<svg width="31" height="21" viewBox="0 0 31 21" fill="none" xmlns="http://www.w3.org/2000/svg">
<g clip-path="url(#clip0_2007_1061)">
<path d="M29.7587 3.42179C29.4208 2.14738 28.4264 1.1433 27.1617 0.805394C24.8735 0.1875 15.6727 0.1875 15.6727 0.1875C15.6727 0.1875 6.48152 0.1875 4.18373 0.805394C2.91898 1.1433 1.92455 2.14738 1.58664 3.42179C0.96875 5.72924 0.96875 10.5469 0.96875 10.5469C0.96875 10.5469 0.96875 15.3645 1.58664 17.672C1.92455 18.9464 2.91898 19.9504 4.18373 20.2884C6.48152 20.9062 15.6727 20.9062 15.6727 20.9062C15.6727 20.9062 24.8735 20.9062 27.1617 20.2884C28.4264 19.9504 29.4208 18.9464 29.7587 17.672C30.3766 15.3645 30.3766 10.5469 30.3766 10.5469C30.3766 10.5469 30.3766 5.72924 29.7587 3.42179Z" fill="#5F5F5F"/>
<path d="M12.6719 14.9203V6.17322L20.3569 10.5467L12.6719 14.9203Z" fill="white"/>
</g>
<defs>
<clipPath id="clip0_2007_1061">
<rect width="29.4079" height="20.7188" fill="white" transform="translate(0.96875 0.1875)"/>
</clipPath>
</defs>
</svg>
