<svg width="20" height="19" viewBox="0 0 20 19" fill="none" xmlns="http://www.w3.org/2000/svg">
    <g clip-path="url(#4k7pxqtgma)" fill="#000">
        <path d="M14.692 0h-9.96A4.73 4.73 0 0 0 0 4.731v5.728a4.747 4.747 0 0 0 4.233 4.706l.05 3.337c0 .2.125.349.274.448.075.025.15.05.224.05.1 0 .224-.025.299-.1l4.806-3.71h4.806a4.73 4.73 0 0 0 4.731-4.731V4.73A4.73 4.73 0 0 0 14.692 0zm3.735 10.459a3.73 3.73 0 0 1-3.735 3.735h-4.98c-.1 0-.224.025-.3.1L5.28 17.48l-.05-2.789a.5.5 0 0 0-.498-.498 3.73 3.73 0 0 1-3.735-3.735V4.73A3.73 3.73 0 0 1 4.731.996h9.961a3.73 3.73 0 0 1 3.735 3.735v5.728z"/>
        <path d="M9.817 3.938H4.643a.506.506 0 0 0 0 1.012h5.174a.507.507 0 0 0 0-1.013zM11.838 6.87H4.643a.506.506 0 0 0 0 1.013h7.195a.507.507 0 0 0 0-1.013zM14.358 9.804H4.642a.507.507 0 0 0 0 1.013h9.716a.507.507 0 0 0 0-1.013z"/>
    </g>
    <defs>
        <clipPath id="4k7pxqtgma">
            <path fill="#fff" d="M0 0h19.423v19H0z"/>
        </clipPath>
    </defs>
</svg>
