<svg width="41px" height="41px" xmlns="http://www.w3.org/2000/svg"  viewBox="0 0 88 85" version="1.1" className="down-quote">
  <title>ico-testimonials-2</title>
  <g id="Page-1" stroke="none" strokeWidth="1" fill="none" fillRule="evenodd">
    <g id="Guest-BBC-homepage-assets" transform="translate(-1901.000000, -4672.000000)" fill="#FFCD87" fillRule="nonzero">
      <g id="Group-11" transform="translate(1901.000000, 4672.000000)">
        <path
          d="M81.1029837,2 L81.1029837,13.7142857 C77.4657503,15.7194437 74.7378662,19.3339507 72.9192495,24.5579151 C71.1006328,29.7818794 70.1913381,36.6679109 70.1913381,45.2162162 L70.1913381,48.8571429 L85,48.8571429 L85,84 L50.3944954,84 L50.3944954,57.7220077 C50.3944954,41.7862781 52.9405206,29.1750786 58.0326473,19.8880309 C63.1247741,10.6009832 70.8148093,4.63836583 81.1029837,2 Z M33.7084883,2 L33.7084883,13.7142857 C30.0712549,15.7194437 27.3433708,19.3339507 25.5247541,24.5579151 C23.7061374,29.7818794 22.7968427,36.6679109 22.7968427,45.2162162 L22.7968427,48.8571429 L37.6055046,48.8571429 L37.6055046,84 L3,84 L3,57.7220077 C3,41.7862781 5.54602518,29.1750786 10.6381519,19.8880309 C15.7302786,10.6009832 23.4203139,4.63836583 33.7084883,2 Z"
          id="“-copy"
          transform="translate(44.000000, 43.000000) scale(-1, -1) translate(-44.000000, -43.000000) "
        ></path>
      </g>
    </g>
  </g>
</svg>