<svg width="18" height="24" viewBox="0 0 18 24" fill="none" xmlns="http://www.w3.org/2000/svg">
<path d="M9.00024 7.77539C11.1474 7.77539 12.8879 6.03481 12.8879 3.8877C12.8879 1.74058 11.1474 0 9.00024 0C6.85313 0 5.11255 1.74058 5.11255 3.8877C5.11255 6.03481 6.85313 7.77539 9.00024 7.77539Z" fill="#fff"/>
<path d="M17.3585 14.0437C16.9315 13.1287 16.3119 12.0997 15.8192 11.274C15.0239 9.94123 14.1424 8.87707 12.2936 8.87707C11.67 8.87707 9.54735 8.87683 6.2669 8.87683C3.42843 8.87683 2.40245 11.8177 1.50023 13.5216C0.813793 14.8184 0.0673628 16.8113 0.00689911 17.9184C-0.116399 20.1731 1.45068 21.6489 1.69253 21.8217C2.95871 22.7256 4.42857 23.4941 6.83265 23.6945C8.62261 23.8434 10.2402 22.976 10.4052 21.9865C10.6008 20.8116 9.85489 19.9931 8.31627 20.0626C5.91052 20.1712 4.35317 19.4658 3.88321 19.2311C2.69575 18.6373 4.11535 18.6594 4.41624 18.6361C5.16267 18.5788 5.9091 18.4064 6.28208 18.0905C6.66478 17.7666 6.31836 17.8665 5.82208 16.316C5.44341 15.1335 5.98924 14.6394 6.28824 14.5417C7.02519 14.3008 7.44986 14.6259 7.88614 15.4235C8.17945 15.9596 8.56429 16.5455 8.76749 16.7777C9.06839 17.1217 9.28558 17.5082 9.90634 17.8795C10.4161 18.1847 11.0227 18.3789 11.522 18.408C12.0316 18.4382 12.0043 18.4133 12.4695 18.3317C11.9733 18.7978 10.2577 20.0007 11.4469 21.2795C12.0783 21.9588 13.4931 21.6982 14.1559 21.4405C14.8186 21.1827 15.9596 20.3962 16.937 19.1855C18.8291 16.8421 17.6848 14.7428 17.3585 14.0437ZM11.9915 17.866C10.5001 17.866 9.29056 16.6567 9.29056 15.1648C9.29056 13.6731 10.5001 12.4636 11.9915 12.4636C13.4834 12.4636 14.6927 13.6731 14.6927 15.1648C14.6925 16.6567 13.4834 17.866 11.9915 17.866Z" fill="#fff"/>
</svg>
