<svg width="25" height="32" viewBox="0 0 25 32" fill="none" xmlns="http://www.w3.org/2000/svg">
    <path fill-rule="evenodd" clip-rule="evenodd" d="M21.997 30.86c.222.196.52.328.816.328.148 0 .297 0 .445-.066.445-.197.742-.59.742-.985V1H1v29.072c0 .46.297.853.742.984.445.197.89.066 1.261-.197l9.497-8.334 9.497 8.334zm-19.56-1.11V2.437h20.125V29.75l-9.351-8.22c-.225-.2-.45-.265-.748-.265-.15 0-.524.066-.674.265l-9.351 8.22z" fill="#4B4B4B"/>
    <path d="m21.997 30.86.1-.113h-.001l-.1.112zm1.261.262-.06-.137.06.137zM24 1h.15V.85H24V1zM1 1V.85H.85V1H1zm.742 30.056.06-.137-.008-.004-.01-.003-.042.144zm1.261-.197.087.123.006-.005.006-.005-.099-.113zm9.497-8.334.099-.113-.099-.087-.099.087.099.113zM2.437 2.438v-.15h-.15v.15h.15zm0 27.312h-.15v.332l.25-.22-.1-.112zM22.563 2.437h.15v-.15h-.15v.15zm0 27.313-.099.113.25.219v-.332h-.15zm-9.351-8.22-.1.112.1-.112zm-1.422 0 .1.112.01-.01.01-.012-.12-.09zm11.024 9.508c-.254 0-.517-.114-.717-.291l-.199.225c.245.216.577.365.916.365v-.3zm.384-.053c-.115.05-.232.053-.384.053v.3c.145 0 .324.001.506-.079l-.122-.274zm.653-.848c0 .32-.246.668-.653.848l.122.274c.483-.214.831-.653.831-1.122h-.3zM23.85 1v29.137h.3V1h-.3zM1 1.15h23v-.3H1v.3zm.15 28.922V1h-.3v29.072h.3zm.634.84a.87.87 0 0 1-.634-.84h-.3c0 .527.341.978.85 1.128l.084-.288zm1.133-.175c-.347.245-.735.35-1.114.182l-.122.274c.511.226 1.013.069 1.409-.211l-.173-.245zm9.484-8.325-9.497 8.335.198.225 9.497-8.334-.198-.226zm9.695 8.335-9.497-8.335-.198.226 9.497 8.334.198-.225zM2.288 2.437V29.75h.3V2.437h-.3zm20.274-.15H2.438v.3h20.125v-.3zm.15 27.463V2.437h-.3V29.75h.3zm-9.6-8.108 9.351 8.22.198-.225-9.351-8.22-.198.225zm-.65-.227c.27 0 .457.057.65.227l.198-.224c-.257-.228-.52-.303-.847-.303v.3zm-.553.205a.533.533 0 0 1 .262-.154 1.08 1.08 0 0 1 .292-.051v-.3c-.092 0-.238.019-.382.065-.141.044-.308.123-.412.26l.24.18zm-9.372 8.243 9.351-8.22-.198-.226-9.352 8.22.199.226z" fill="#4B4B4B"/>
</svg>
