<svg width="29" height="29" viewBox="0 0 29 29" fill="none" xmlns="http://www.w3.org/2000/svg">
    <circle cx="14.5" cy="14.5" r="14.5" fill="#2CB742"/>
    <path fill-rule="evenodd" clip-rule="evenodd" d="M23 14.267c0 4.578-3.742 8.296-8.358 8.296a8.412 8.412 0 0 1-4.04-1.031L5.97 23l1.511-4.453a8.177 8.177 0 0 1-1.203-4.28c0-4.58 3.743-8.296 8.363-8.296C19.258 5.97 23 9.687 23 14.267zm-8.358-6.975c-3.875 0-7.03 3.127-7.03 6.975a6.91 6.91 0 0 0 1.337 4.091l-.875 2.584 2.7-.854a7.01 7.01 0 0 0 3.868 1.15c3.872 0 7.027-3.128 7.027-6.976 0-3.843-3.155-6.97-7.027-6.97zm3.968 8.715c.127.065.213.109.25.171.05.085.05.488-.115.967-.17.47-1.013.93-1.383.965-.064.005-.118.018-.173.031-.266.063-.561.133-2.288-.543-1.926-.752-3.194-2.615-3.457-3.001l-.044-.064c-.105-.134-.839-1.104-.839-2.103 0-.935.463-1.426.675-1.651l.042-.044a.756.756 0 0 1 .548-.257c.071 0 .141.005.21.01.064.004.126.008.186.008l.044-.003c.114-.007.262-.016.414.342l.017.04c.178.43.567 1.37.615 1.467.05.105.086.223.017.361l-.026.054c-.052.105-.09.181-.18.282a5.92 5.92 0 0 0-.105.127c-.07.084-.139.17-.202.23-.103.1-.21.21-.088.415.118.207.532.871 1.14 1.407a5.265 5.265 0 0 0 1.51.951c.056.024.102.044.135.06.203.101.32.084.447-.05.118-.133.506-.596.649-.797.136-.202.272-.169.456-.1.179.061 1.05.481 1.347.624l.06.03c.05.027.096.05.138.071z" fill="#fff"/>
</svg>
