<svg width="27" height="16" viewBox="0 0 27 16" fill="none" xmlns="http://www.w3.org/2000/svg">
<path d="M20.0233 3.30603C20.0233 1.49707 18.5574 0 16.7172 0C14.8771 0 13.4424 1.46588 13.4424 3.30603C13.4424 5.14619 14.9083 6.61207 16.7484 6.61207C18.5886 6.61207 20.0233 5.115 20.0233 3.30603Z" fill="#E45867"/>
<path d="M12.9122 5.48925C12.1013 4.99023 11.1033 4.86547 10.1988 5.17736C10.1988 5.17736 6.14423 6.51849 5.33332 6.79919C4.5224 7.07989 3.961 7.57892 3.61792 8.29626C3.30603 9.01361 3.30603 9.85571 3.64911 10.5731L4.58478 12.538H1.68421C0.748536 12.538 0 13.2865 0 14.2222C0 15.1578 0.748536 15.9064 1.68421 15.9064H7.29823C7.89082 15.9064 8.42103 15.5945 8.73292 15.0955C9.04481 14.5964 9.076 13.9727 8.82649 13.4424L7.95319 11.6335L11.7583 10.9161L12.2573 14.5964C12.3508 15.345 13.0058 15.9064 13.7543 15.9064C13.8167 15.9064 13.8791 15.9064 13.9727 15.9064C14.8148 15.7816 15.3762 15.0331 15.2826 14.2222L14.4093 7.73486C14.2534 6.83038 13.7232 5.98828 12.9122 5.48925Z" fill="#E45867"/>
<path d="M20.4288 12.2573H18.308C17.8713 12.2573 17.4971 12.6004 17.4971 13.0682V15.1891C17.4971 15.6257 17.8401 16 18.308 16H20.4288C20.8655 16 21.2398 15.6569 21.2398 15.1891V13.0682C21.2086 12.6004 20.8655 12.2573 20.4288 12.2573Z" fill="#E45867"/>
<path d="M25.2006 12.2573H23.0797C22.6431 12.2573 22.2688 12.6004 22.2688 13.0682V15.1891C22.2688 15.6257 22.6119 16 23.0797 16H25.2006C25.6372 16 26.0115 15.6569 26.0115 15.1891V13.0682C25.9803 12.6004 25.6372 12.2573 25.2006 12.2573Z" fill="#E45867"/>
<path d="M20.6783 7.4856C20.2417 7.4856 19.8674 7.82867 19.8674 8.29651V10.4174C19.8674 10.854 20.2105 11.2283 20.6783 11.2283H22.7992C23.2358 11.2283 23.6101 10.8852 23.6101 10.4174V8.29651C23.6101 7.85986 23.267 7.4856 22.7992 7.4856H20.6783Z" fill="#E45867"/>
</svg>
