<svg width="16" height="26" viewBox="0 0 16 26" fill="none" xmlns="http://www.w3.org/2000/svg">
<path d="M9.13494 4.44766C9.0391 4.9245 8.85007 5.37773 8.57867 5.78134C8.30727 6.18496 7.95884 6.53101 7.55339 6.79966C7.14794 7.0683 6.69343 7.25425 6.21594 7.34683C5.73846 7.43941 5.2474 7.4368 4.77092 7.33915H4.71738L4.20869 7.23206C2.68262 6.80369 0.647865 5.70599 0.0320835 3.88542C-0.208874 3.48383 0.969142 4.28702 1.5046 3.85865C1.60969 3.73128 1.69128 3.58623 1.74556 3.43028C1.74556 3.34996 1.74556 3.26964 1.77233 3.16255C1.81784 2.8683 1.89875 2.58064 2.01329 2.30581C2.62907 0.619105 4.3961 -0.291181 6.24344 0.0836428C6.72028 0.179474 7.17351 0.368513 7.57713 0.639914C7.98074 0.911314 8.3268 1.25974 8.59544 1.66519C8.86408 2.07064 9.05003 2.52515 9.14261 3.00263C9.23519 3.48012 9.23258 3.97118 9.13494 4.44766ZM15.2124 20.8863C15.1988 20.4716 15.145 20.0591 15.0518 19.6548C14.4628 16.442 11.7587 14.8892 10.072 14.1663L9.00107 13.7379C8.98781 13.7299 8.97644 13.7192 8.96773 13.7064C8.95903 13.6936 8.95321 13.679 8.95066 13.6638C8.94812 13.6485 8.94891 13.6329 8.95299 13.6179C8.95707 13.603 8.96434 13.5891 8.9743 13.5773C10.8484 11.2748 7.52855 9.82905 7.10018 9.56132C6.67181 9.29359 6.43085 8.86522 5.54734 8.19589C5.12122 7.85846 4.59153 7.67874 4.04805 7.6872C3.8381 7.68659 3.62968 7.72284 3.43227 7.79429C2.2007 8.24944 1.34397 9.90937 1.34397 11.248V26H11.5713C11.5713 26 6.4844 22.0376 5.7883 21.5289C5.0922 21.0202 4.71738 20.5115 4.28901 19.5209C3.86064 18.5303 2.73617 14.4608 2.28102 13.1221C2.06511 12.5315 1.97395 11.9025 2.01329 11.2748C2.14716 9.66841 3.45904 9.02586 4.55674 9.34713C5.65443 9.66841 6.05603 10.3377 6.10958 11.6496C6.13635 12.2119 6.35053 14.4608 6.59149 16.4956C6.67181 17.1381 6.75213 17.7807 6.80568 18.3161C6.82456 18.6242 6.94725 18.9167 7.15373 19.1461L9.85781 21.8234C10.313 22.3053 10.7681 22.7605 11.2768 23.2156L12.8564 24.7149C13.0438 24.8755 13.1241 24.7952 13.1777 24.6078C13.2607 24.3963 13.3995 24.2113 13.5793 24.0723C14.1683 23.6172 14.2754 23.0282 14.436 23.055C14.4821 23.0645 14.5245 23.0873 14.5578 23.1206C14.5911 23.1539 14.6139 23.1962 14.6234 23.2424V23.3495C14.6234 23.403 14.6234 23.4566 14.6234 23.5101V23.5637C14.6196 23.6179 14.6107 23.6717 14.5966 23.7243H14.6234C14.8471 23.2563 15.009 22.7614 15.1053 22.2518C15.2164 21.8057 15.2526 21.3443 15.2124 20.8863Z" fill="#fff"/>
</svg>
