<svg width="18" height="20" viewBox="0 0 18 20" fill="none" xmlns="http://www.w3.org/2000/svg">
<path d="M8.14579 0C8.38786 0 8.63378 0 8.87586 0C8.91044 0.0114674 8.94886 0.0267572 8.98344 0.0344021C10.3398 0.240815 11.2889 0.978549 11.8538 2.2132C12.1189 2.79422 12.165 3.41728 12.1343 4.04416C12.1266 4.2047 12.1727 4.24675 12.3341 4.24293C13.1909 4.23528 14.0516 4.23528 14.9085 4.2391C15.2659 4.2391 15.4887 4.43787 15.5271 4.78572C15.6194 5.61519 15.7039 6.44466 15.7923 7.27413C15.9268 8.54701 16.0612 9.81989 16.1957 11.0889C16.3302 12.3618 16.4647 13.6347 16.5992 14.9076C16.7337 16.1728 16.8566 17.4419 17.0065 18.7033C17.0526 19.097 16.9796 19.3913 16.5992 19.5672C11.2082 19.5672 5.81342 19.5672 0.422451 19.5672C0.184218 19.4372 -0.00790463 19.2728 -0.000219719 18.967C0.00362274 18.86 0.022835 18.753 0.0343624 18.6459C0.191903 17.1284 0.349444 15.6071 0.510827 14.0896C0.67221 12.5721 0.833593 11.0545 0.994977 9.53321C1.1602 7.98129 1.32159 6.43319 1.48681 4.88128C1.54061 4.39965 1.73273 4.24293 2.22841 4.24293C3.06222 4.24293 3.89219 4.2391 4.726 4.24675C4.84896 4.24675 4.89507 4.21617 4.88739 4.09003C4.87586 3.9142 4.88354 3.73454 4.88739 3.55488C4.92581 1.93416 6.0017 0.558079 7.56558 0.129964C7.7577 0.0726267 7.95367 0.042047 8.14579 0ZM8.50698 18.4089C10.8547 18.4089 13.2063 18.409 15.554 18.4128C15.727 18.4128 15.7961 18.3975 15.7692 18.1872C15.6924 17.6597 15.6539 17.1246 15.5963 16.5933C15.4618 15.3281 15.3312 14.0628 15.1967 12.7938C15.0622 11.5132 14.9239 10.2365 14.7894 8.95984C14.6703 7.82839 14.5512 6.69312 14.4359 5.56167C14.4244 5.447 14.3821 5.40113 14.2553 5.40113C13.6021 5.40878 12.9489 5.40878 12.2956 5.40113C12.1535 5.40113 12.1266 5.45465 12.1304 5.58079C12.1381 5.92481 12.1343 6.26883 12.1343 6.61285C12.1343 7.01038 11.896 7.27031 11.5464 7.27031C11.1967 7.27031 10.9623 7.00656 10.9585 6.60903C10.9546 6.25736 10.9546 5.90952 10.9585 5.55785C10.9585 5.44318 10.9277 5.40113 10.8086 5.40113C9.27163 5.40495 7.73465 5.40495 6.19766 5.40113C6.08623 5.40113 6.05549 5.43936 6.05549 5.54638C6.05933 5.90187 6.05933 6.26118 6.05549 6.61667C6.05165 7.01039 5.81342 7.27031 5.45991 7.27031C5.11793 7.26649 4.8797 7.00656 4.8797 6.62432C4.87586 6.27265 4.87202 5.92481 4.88354 5.57314C4.88739 5.43553 4.84128 5.40113 4.70679 5.40113C4.06126 5.40495 3.41188 5.40878 2.76635 5.40113C2.63186 5.40113 2.5896 5.447 2.57807 5.56932C2.53964 5.96303 2.49738 6.35292 2.45511 6.74664C2.27067 8.50497 2.08623 10.2671 1.9018 12.0254C1.68662 14.0781 1.4676 16.1269 1.25242 18.1796C1.22937 18.4089 1.22937 18.4089 1.47144 18.4089C3.82302 18.4089 6.16692 18.4089 8.50698 18.4089ZM8.50314 4.24293C9.26394 4.24293 10.0247 4.2391 10.7894 4.24675C10.92 4.24675 10.9738 4.21617 10.9623 4.07856C10.9508 3.88744 10.9623 3.69632 10.9546 3.50519C10.9124 2.25525 9.92869 1.26141 8.65299 1.17349C7.43493 1.0894 6.32062 1.96474 6.1016 3.16882C6.04781 3.45932 6.07855 3.75365 6.06318 4.04416C6.05165 4.20088 6.09392 4.25057 6.25914 4.24675C7.00458 4.23528 7.75386 4.24293 8.50314 4.24293Z" fill="white"/>
</svg>
