<svg width="11" height="7" viewBox="0 0 11 7" fill="none" xmlns="http://www.w3.org/2000/svg">
<path d="M10.8902 5.91928L10.3392 6.48618C10.2657 6.56188 10.1812 6.59961 10.0855 6.59961C9.99014 6.59961 9.90559 6.56188 9.83217 6.48618L5.50036 2.02967L1.16875 6.48606C1.09528 6.56176 1.01074 6.59949 0.915229 6.59949C0.819682 6.59949 0.735138 6.56176 0.661711 6.48606L0.110744 5.91912C0.037163 5.84357 0.000488429 5.75659 0.000488446 5.65829C0.000488463 5.56006 0.0372789 5.47308 0.110744 5.39754L5.24684 0.113189C5.32027 0.0376048 5.40485 -0.000166902 5.50036 -0.000166885C5.59587 -0.000166868 5.6803 0.0376048 5.75369 0.113189L10.8902 5.39754C10.9636 5.47312 11.0001 5.56011 11.0001 5.65829C11.0001 5.75659 10.9636 5.84358 10.8902 5.91928Z" fill="black"/>
</svg>
