<svg width="30" height="26" viewBox="0 0 30 26" fill="none" xmlns="http://www.w3.org/2000/svg">
    <path fill-rule="evenodd" clip-rule="evenodd" d="M8.817 1.695A7.273 7.273 0 0 0 3.67 3.803c-3.068 3.03-2.174 7.338.075 10.262 4.622 6.003 8.67 9.588 10.828 9.588 2.162 0 6.212-3.585 10.83-9.587 2.25-2.925 3.147-7.231.075-10.263v-.002a7.275 7.275 0 0 0-5.145-2.106 7.274 7.274 0 0 0-5.146 2.106l-.61.603-.61-.601a7.285 7.285 0 0 0-5.15-2.108m5.76 23.653c-3.559 0-8.6-5.578-12.203-10.259-3.193-4.151-3.162-9.284.075-12.483A9.002 9.002 0 0 1 8.817 0h.002a9 9 0 0 1 5.754 2.055A9.014 9.014 0 0 1 20.333 0h.001A8.998 8.998 0 0 1 26.7 2.606c3.24 3.199 3.271 8.334.075 12.483-3.6 4.68-8.638 10.259-12.197 10.259" fill="#4B4B4B"/>
</svg>
