<svg width="249" height="233" viewBox="0 0 249 233" fill="none" xmlns="http://www.w3.org/2000/svg">
    <g filter="url(#jq01wg3wra)">
        <rect x="7.5" y="7.5" width="234" height="218" rx="2.5" fill="#fff" stroke="#DBDBDB"/>
        <path d="M8 10a2 2 0 0 1 2-2h229a2 2 0 0 1 2 2v63H8V10z" fill="#FFF9FB"/>
        <circle cx="43" cy="41" r="18" fill="#FFEBEB"/>
        <path d="M53.126 36.468a3.345 3.345 0 0 0-3.343-3.343c-1.861 0-3.312 1.483-3.312 3.343a3.325 3.325 0 0 0 3.343 3.344c1.861 0 3.312-1.514 3.312-3.343zM45.934 38.675a3.235 3.235 0 0 0-2.745-.316s-4.1 1.357-4.92 1.64c-.82.284-1.388.79-1.735 1.515a2.793 2.793 0 0 0 .031 2.302l.947 1.987h-2.934c-.946 0-1.703.757-1.703 1.704 0 .946.757 1.703 1.703 1.703h5.678c.6 0 1.135-.315 1.45-.82a1.75 1.75 0 0 0 .095-1.672l-.883-1.83 3.848-.725.505 3.722a1.53 1.53 0 0 0 1.514 1.325h.22a1.543 1.543 0 0 0 1.326-1.703l-.884-6.561a3.335 3.335 0 0 0-1.514-2.271z" fill="#E25787"/>
        <path d="M32.14 98.287h1.126a3.588 3.588 0 0 1-.463 1.447c-.25.426-.604.764-1.06 1.014-.458.246-1.028.369-1.712.369-.5 0-.955-.094-1.365-.281a3.038 3.038 0 0 1-1.049-.797 3.728 3.728 0 0 1-.68-1.248 5.325 5.325 0 0 1-.234-1.629v-.85c0-.597.078-1.138.235-1.623.16-.488.388-.906.685-1.253a3.06 3.06 0 0 1 1.084-.803 3.47 3.47 0 0 1 1.424-.281c.644 0 1.19.12 1.635.363.445.242.79.578 1.037 1.008.25.425.404.92.463 1.482H32.14a3.134 3.134 0 0 0-.305-1.025 1.583 1.583 0 0 0-.633-.668c-.273-.156-.63-.235-1.072-.235-.379 0-.713.073-1.002.217a2.02 2.02 0 0 0-.72.615 2.864 2.864 0 0 0-.434.956 4.859 4.859 0 0 0-.147 1.236v.861c0 .418.043.81.129 1.178.09.367.225.69.404.967a2 2 0 0 0 .686.656c.277.156.605.234.984.234.48 0 .864-.076 1.149-.228.285-.153.5-.371.644-.656.149-.286.254-.627.317-1.026zm2.215-.387v-.134c0-.457.067-.881.2-1.272a3.02 3.02 0 0 1 .574-1.025c.25-.293.553-.52.908-.68a2.819 2.819 0 0 1 1.195-.246c.446 0 .846.082 1.202.246.359.16.664.387.914.68.254.289.447.63.58 1.025.133.39.199.815.199 1.272v.134c0 .457-.067.881-.2 1.272-.132.39-.325.732-.58 1.025a2.66 2.66 0 0 1-.907.68c-.352.16-.75.24-1.196.24-.445 0-.846-.08-1.201-.24a2.719 2.719 0 0 1-.914-.68 3.093 3.093 0 0 1-.574-1.025c-.133-.39-.2-.815-.2-1.272zm1.085-.134v.134c0 .317.037.616.11.897.075.277.186.523.335.738.152.215.342.385.568.51.227.121.49.182.791.182.297 0 .557-.061.78-.182.226-.125.413-.295.562-.51a2.36 2.36 0 0 0 .334-.738c.078-.281.117-.58.117-.897v-.134c0-.313-.039-.608-.117-.885a2.28 2.28 0 0 0-.34-.744 1.617 1.617 0 0 0-.562-.516 1.578 1.578 0 0 0-.786-.187c-.297 0-.558.062-.785.187-.222.125-.41.297-.562.516-.149.215-.26.463-.334.744a3.41 3.41 0 0 0-.111.885zm7.13-1.752V101h-1.084v-6.34h1.026l.058 1.354zm-.258 1.576-.45-.018c.003-.433.068-.834.193-1.2.125-.372.3-.694.527-.968a2.35 2.35 0 0 1 1.858-.861c.312 0 .593.043.843.129.25.082.463.215.639.398.18.184.316.422.41.715.094.29.14.643.14 1.06V101h-1.09v-4.166c0-.332-.048-.598-.146-.797a.9.9 0 0 0-.427-.44 1.535 1.535 0 0 0-.692-.14c-.27 0-.515.057-.738.17-.219.113-.408.27-.569.469-.156.199-.279.427-.369.685a2.507 2.507 0 0 0-.129.809zm9.915-2.93h.984v6.205c0 .559-.113 1.035-.34 1.43a2.215 2.215 0 0 1-.95.896c-.401.207-.866.311-1.394.311-.218 0-.476-.035-.773-.106a3.107 3.107 0 0 1-.867-.345 2.161 2.161 0 0 1-.71-.651l.57-.644c.265.32.542.543.831.668.293.125.582.187.867.187.344 0 .64-.064.89-.193s.444-.32.581-.574c.14-.25.211-.559.211-.926v-4.863l.1-1.395zM47.86 97.9v-.123c0-.484.057-.924.17-1.318.117-.398.284-.74.498-1.025a2.236 2.236 0 0 1 1.834-.891c.399 0 .746.07 1.043.21.301.138.555.339.762.604.21.262.377.579.498.95.121.37.205.79.252 1.26v.539a5.523 5.523 0 0 1-.252 1.253 2.964 2.964 0 0 1-.498.95 2.095 2.095 0 0 1-.762.603c-.3.137-.652.205-1.054.205-.38 0-.723-.08-1.032-.24a2.347 2.347 0 0 1-.785-.674 3.189 3.189 0 0 1-.504-1.02 4.637 4.637 0 0 1-.17-1.283zm1.084-.123v.123c0 .317.032.614.094.891.066.277.166.522.299.732.137.211.31.377.521.498.211.118.463.176.756.176.36 0 .657-.076.89-.228.235-.153.42-.354.557-.604.141-.25.25-.521.329-.814v-1.412a2.877 2.877 0 0 0-.2-.621 1.913 1.913 0 0 0-.34-.54 1.47 1.47 0 0 0-.51-.38 1.69 1.69 0 0 0-.714-.141 1.5 1.5 0 0 0-.768.188c-.21.12-.384.289-.521.503a2.42 2.42 0 0 0-.299.739 4.045 4.045 0 0 0-.094.89zm6.996-2.12V101h-1.084v-6.34h1.055l.03.996zm1.98-1.032-.005 1.008a1.568 1.568 0 0 0-.258-.035 2.711 2.711 0 0 0-.27-.012c-.25 0-.47.039-.661.117a1.372 1.372 0 0 0-.487.328 1.58 1.58 0 0 0-.316.504 2.425 2.425 0 0 0-.147.633l-.304.176c0-.383.037-.742.111-1.078.078-.336.197-.633.357-.891.16-.262.364-.465.61-.61a1.713 1.713 0 0 1 1.16-.193.801.801 0 0 1 .21.053zm4.507 5.291v-3.264c0-.25-.051-.466-.153-.65a.997.997 0 0 0-.445-.434c-.2-.101-.445-.152-.738-.152-.274 0-.514.047-.72.14a1.255 1.255 0 0 0-.481.37.809.809 0 0 0-.17.492h-1.084c0-.227.058-.451.175-.674.118-.222.286-.424.504-.603a2.52 2.52 0 0 1 .797-.434c.313-.11.66-.164 1.043-.164.461 0 .867.078 1.219.234.355.157.633.393.832.71.203.312.305.704.305 1.177v2.953c0 .211.017.436.053.674.038.238.095.443.17.615V101h-1.132a2.027 2.027 0 0 1-.128-.498 4.022 4.022 0 0 1-.047-.586zm.187-2.76.012.762h-1.096c-.308 0-.584.025-.826.076-.242.047-.445.12-.61.217a1.03 1.03 0 0 0-.374.37.979.979 0 0 0-.13.509c0 .2.046.38.136.545.09.164.224.295.404.392.184.094.408.141.674.141.332 0 .625-.07.879-.211.254-.14.455-.313.603-.516.153-.203.235-.4.246-.591l.463.521a1.573 1.573 0 0 1-.223.545 2.615 2.615 0 0 1-1.201 1.025 2.315 2.315 0 0 1-.925.176c-.43 0-.807-.084-1.131-.252a1.929 1.929 0 0 1-.75-.674 1.781 1.781 0 0 1-.264-.955c0-.34.066-.638.2-.896a1.73 1.73 0 0 1 .573-.65c.25-.176.551-.31.903-.399.351-.09.744-.135 1.178-.135h1.26zm5.256-2.496v.832h-3.428v-.832h3.428zm-2.267-1.54h1.084v6.31c0 .214.033.377.1.486a.478.478 0 0 0 .257.217c.105.035.219.053.34.053.09 0 .183-.008.281-.024.102-.019.178-.035.228-.047l.006.885a2.52 2.52 0 0 1-.34.076 2.532 2.532 0 0 1-.498.041c-.265 0-.51-.053-.732-.158a1.175 1.175 0 0 1-.533-.527c-.129-.25-.194-.586-.194-1.008v-6.305zm7.418 6.415V94.66h1.09V101h-1.038l-.052-1.465zm.205-1.336.45-.011c0 .421-.044.812-.134 1.171a2.52 2.52 0 0 1-.422.926 1.988 1.988 0 0 1-.767.615c-.317.145-.702.217-1.155.217-.308 0-.592-.045-.85-.135a1.682 1.682 0 0 1-.656-.416 1.887 1.887 0 0 1-.427-.732 3.534 3.534 0 0 1-.147-1.084v-4.09h1.084v4.102c0 .285.031.521.094.709.066.183.154.33.264.44.113.105.238.179.374.222.141.043.286.064.434.064.461 0 .826-.088 1.096-.263.27-.18.463-.42.58-.721.121-.305.182-.643.182-1.014zM76.94 92v9h-1.09v-9h1.09zm5.479 7.916v-3.264c0-.25-.05-.466-.152-.65a.997.997 0 0 0-.446-.434 1.614 1.614 0 0 0-.738-.152c-.273 0-.514.047-.72.14a1.255 1.255 0 0 0-.481.37.809.809 0 0 0-.17.492h-1.084c0-.227.058-.451.176-.674.117-.222.285-.424.504-.603.222-.184.488-.329.797-.434.312-.11.66-.164 1.042-.164.461 0 .868.078 1.22.234.355.157.632.393.831.71.203.312.305.704.305 1.177v2.953c0 .211.017.436.053.674.039.238.095.443.17.615V101h-1.131a2.022 2.022 0 0 1-.13-.498 4.008 4.008 0 0 1-.046-.586zm.187-2.76.012.762h-1.096c-.308 0-.584.025-.826.076-.242.047-.445.12-.61.217a1.03 1.03 0 0 0-.374.37.979.979 0 0 0-.129.509c0 .2.045.38.135.545.09.164.224.295.404.392.184.094.408.141.674.141.332 0 .625-.07.879-.211.254-.14.455-.313.603-.516.153-.203.235-.4.246-.591l.463.521a1.575 1.575 0 0 1-.222.545 2.615 2.615 0 0 1-1.201 1.025 2.315 2.315 0 0 1-.926.176c-.43 0-.807-.084-1.131-.252a1.929 1.929 0 0 1-.75-.674 1.781 1.781 0 0 1-.264-.955c0-.34.067-.638.2-.896a1.73 1.73 0 0 1 .574-.65c.25-.176.55-.31.902-.399.352-.09.744-.135 1.178-.135h1.26zm5.256-2.496v.832h-3.427v-.832h3.427zm-2.267-1.54h1.084v6.31c0 .214.033.377.1.486a.477.477 0 0 0 .257.217c.106.035.219.053.34.053.09 0 .184-.008.281-.024.102-.019.178-.035.229-.047l.006.885c-.086.027-.2.053-.34.076a2.532 2.532 0 0 1-.498.041c-.266 0-.51-.053-.733-.158a1.175 1.175 0 0 1-.533-.527c-.129-.25-.193-.586-.193-1.008v-6.305zm4.716 1.54V101h-1.09v-6.34h1.09zm-1.171-1.681c0-.176.052-.325.158-.446.11-.12.27-.181.48-.181.207 0 .365.06.475.181.113.121.17.27.17.445a.613.613 0 0 1-.17.434c-.11.117-.268.176-.475.176-.21 0-.37-.059-.48-.176a.638.638 0 0 1-.158-.434zm2.625 4.921v-.134c0-.457.066-.881.199-1.272.133-.394.324-.736.574-1.025.25-.293.553-.52.908-.68a2.819 2.819 0 0 1 1.196-.246c.445 0 .845.082 1.2.246.36.16.665.387.915.68.254.289.447.63.58 1.025.133.39.2.815.2 1.272v.134c0 .457-.067.881-.2 1.272-.133.39-.326.732-.58 1.025-.25.289-.553.516-.908.68-.352.16-.75.24-1.196.24-.445 0-.845-.08-1.2-.24a2.72 2.72 0 0 1-.915-.68 3.095 3.095 0 0 1-.574-1.025c-.133-.39-.2-.815-.2-1.272zm1.084-.134v.134c0 .317.037.616.11.897.075.277.187.523.335.738.152.215.342.385.568.51.227.121.49.182.791.182.297 0 .557-.061.78-.182.226-.125.414-.295.562-.51.148-.215.26-.46.334-.738.078-.281.117-.58.117-.897v-.134c0-.313-.039-.608-.117-.885a2.277 2.277 0 0 0-.34-.744 1.615 1.615 0 0 0-.562-.516 1.577 1.577 0 0 0-.785-.187c-.297 0-.559.062-.786.187-.222.125-.41.297-.562.516-.148.215-.26.463-.334.744a3.41 3.41 0 0 0-.111.885zm7.13-1.752V101h-1.084v-6.34h1.026l.059 1.354zm-.257 1.576-.451-.018c.003-.433.068-.834.193-1.2.125-.372.3-.694.527-.968a2.348 2.348 0 0 1 1.858-.861c.312 0 .593.043.843.129.25.082.463.215.639.398.18.184.316.422.41.715.094.29.141.643.141 1.06V101h-1.09v-4.166c0-.332-.049-.598-.147-.797a.898.898 0 0 0-.427-.44 1.537 1.537 0 0 0-.692-.14c-.269 0-.515.057-.738.17a1.76 1.76 0 0 0-.568.469c-.157.199-.28.427-.37.685a2.504 2.504 0 0 0-.128.809zm9.498 1.728c0-.156-.035-.3-.106-.433-.066-.137-.205-.26-.416-.37-.207-.113-.519-.21-.937-.292a7.422 7.422 0 0 1-.955-.264 2.881 2.881 0 0 1-.721-.37 1.546 1.546 0 0 1-.451-.509 1.416 1.416 0 0 1-.158-.686c0-.25.054-.486.164-.709.113-.222.271-.42.474-.591.207-.172.455-.307.744-.404a3.01 3.01 0 0 1 .967-.147c.508 0 .942.09 1.301.27.359.18.635.42.826.72.192.297.287.627.287.99h-1.084a.925.925 0 0 0-.158-.51 1.17 1.17 0 0 0-.451-.415 1.457 1.457 0 0 0-.721-.164c-.301 0-.545.047-.732.14a.941.941 0 0 0-.405.346.87.87 0 0 0-.064.762c.043.09.117.174.223.252.105.074.254.144.445.21.191.067.436.133.732.2.52.117.948.258 1.284.422.336.164.586.365.75.603.164.238.246.528.246.867a1.68 1.68 0 0 1-.674 1.36 2.462 2.462 0 0 1-.774.386c-.296.09-.63.135-1.002.135-.558 0-1.031-.099-1.417-.299-.387-.199-.68-.457-.879-.773-.2-.317-.299-.65-.299-1.002h1.09c.015.297.101.533.257.709.157.172.348.295.575.369.226.07.451.106.673.106.297 0 .545-.039.745-.118a1.03 1.03 0 0 0 .462-.322.744.744 0 0 0 .159-.469zm2.461 1.108a.66.66 0 0 1 .17-.463c.117-.129.285-.194.503-.194.219 0 .385.065.499.194.117.125.175.279.175.463a.645.645 0 0 1-.175.457c-.114.125-.28.187-.499.187-.218 0-.386-.062-.503-.187a.654.654 0 0 1-.17-.457zm.006-5.174c0-.184.056-.338.169-.463.118-.129.286-.193.504-.193.219 0 .385.064.498.193.118.125.176.28.176.463a.64.64 0 0 1-.176.457c-.113.125-.279.188-.498.188-.218 0-.386-.063-.504-.188a.657.657 0 0 1-.169-.457zm9.005-2.783V101h-1.113v-8.531h1.113zm2.743 0v.925h-6.592v-.925h6.592zm2.185-.469v9h-1.084v-9h1.084zm-.258 5.59-.451-.018c.004-.433.068-.834.193-1.2a2.99 2.99 0 0 1 .528-.968 2.347 2.347 0 0 1 1.857-.861c.313 0 .594.043.844.129.25.082.463.215.639.398.179.184.316.422.41.715.094.29.14.643.14 1.06V101h-1.089v-4.166c0-.332-.049-.598-.147-.797a.9.9 0 0 0-.428-.44 1.533 1.533 0 0 0-.691-.14 1.6 1.6 0 0 0-.738.17c-.219.113-.409.27-.569.469-.156.199-.279.427-.369.685a2.504 2.504 0 0 0-.129.809zm6.961-2.93V101h-1.09v-6.34h1.09zm-1.172-1.681c0-.176.053-.325.159-.446.109-.12.269-.181.48-.181.207 0 .365.06.475.181.113.121.17.27.17.445a.614.614 0 0 1-.17.434c-.11.117-.268.176-.475.176-.211 0-.371-.059-.48-.176a.636.636 0 0 1-.159-.434zm6.604 6.34c0-.157-.035-.301-.106-.434-.066-.137-.205-.26-.416-.37-.207-.113-.519-.21-.937-.292a7.422 7.422 0 0 1-.955-.264 2.898 2.898 0 0 1-.721-.37 1.546 1.546 0 0 1-.451-.509 1.416 1.416 0 0 1-.158-.686c0-.25.054-.486.164-.709.113-.222.271-.42.474-.591a2.3 2.3 0 0 1 .745-.404c.289-.098.611-.147.966-.147.508 0 .942.09 1.301.27.359.18.635.42.826.72.192.297.287.627.287.99h-1.084a.925.925 0 0 0-.158-.51 1.164 1.164 0 0 0-.451-.415 1.457 1.457 0 0 0-.721-.164c-.3 0-.545.047-.732.14a.938.938 0 0 0-.404.346.87.87 0 0 0-.065.762c.043.09.117.174.223.252.105.074.254.144.445.21.192.067.436.133.733.2.519.117.947.258 1.283.422.336.164.586.365.75.603.164.238.246.528.246.867a1.68 1.68 0 0 1-.674 1.36 2.467 2.467 0 0 1-.773.386 3.45 3.45 0 0 1-1.002.135c-.559 0-1.032-.099-1.418-.299-.387-.199-.68-.457-.879-.773a1.853 1.853 0 0 1-.299-1.002h1.09c.015.297.101.533.258.709.156.172.347.295.574.369.226.07.451.106.674.106.297 0 .545-.039.744-.118a1.04 1.04 0 0 0 .463-.322.75.75 0 0 0 .158-.469zm6.662-4.659V101h-1.09v-6.34h1.09zm-1.172-1.681c0-.176.053-.325.158-.446.11-.12.27-.181.481-.181.207 0 .365.06.474.181.114.121.17.27.17.445a.61.61 0 0 1-.17.434c-.109.117-.267.176-.474.176-.211 0-.371-.059-.481-.176a.64.64 0 0 1-.158-.434zm6.604 6.34c0-.157-.036-.301-.106-.434-.066-.137-.205-.26-.416-.37-.207-.113-.519-.21-.937-.292a7.422 7.422 0 0 1-.955-.264 2.881 2.881 0 0 1-.721-.37 1.546 1.546 0 0 1-.451-.509 1.416 1.416 0 0 1-.159-.686c0-.25.055-.486.165-.709.113-.222.271-.42.474-.591.207-.172.455-.307.744-.404a3.01 3.01 0 0 1 .967-.147c.508 0 .941.09 1.301.27.359.18.635.42.826.72.191.297.287.627.287.99h-1.084a.934.934 0 0 0-.158-.51 1.17 1.17 0 0 0-.451-.415 1.46 1.46 0 0 0-.721-.164c-.301 0-.545.047-.732.14a.941.941 0 0 0-.405.346.87.87 0 0 0-.064.762c.043.09.117.174.223.252.105.074.253.144.445.21.191.067.435.133.732.2.52.117.948.258 1.284.422.335.164.585.365.75.603.164.238.246.528.246.867a1.68 1.68 0 0 1-.674 1.36 2.462 2.462 0 0 1-.774.386 3.45 3.45 0 0 1-1.002.135c-.558 0-1.031-.099-1.418-.299-.386-.199-.679-.457-.878-.773-.2-.317-.299-.65-.299-1.002h1.09c.015.297.101.533.257.709.157.172.348.295.575.369.226.07.451.106.673.106.297 0 .545-.039.745-.118a1.03 1.03 0 0 0 .462-.322.744.744 0 0 0 .159-.469zm8.138-4.659v.832h-3.427v-.832h3.427zm-2.267-1.54h1.084v6.31c0 .214.033.377.099.486a.482.482 0 0 0 .258.217c.106.035.219.053.34.053.09 0 .184-.008.281-.024.102-.019.178-.035.229-.047l.006.885a2.55 2.55 0 0 1-.34.076 2.536 2.536 0 0 1-.498.041c-.266 0-.51-.053-.733-.158a1.18 1.18 0 0 1-.533-.527c-.129-.25-.193-.586-.193-1.008v-6.305zm4.623-1.12v9h-1.084v-9h1.084zm-.258 5.59-.451-.018c.004-.433.068-.834.193-1.2.125-.372.301-.694.527-.968a2.36 2.36 0 0 1 1.858-.861c.312 0 .594.043.844.129.25.082.463.215.638.398.18.184.317.422.41.715.094.29.141.643.141 1.06V101h-1.09v-4.166c0-.332-.049-.598-.146-.797a.9.9 0 0 0-.428-.44 1.533 1.533 0 0 0-.691-.14c-.27 0-.516.057-.739.17a1.77 1.77 0 0 0-.568.469c-.156.199-.279.427-.369.685a2.504 2.504 0 0 0-.129.809zm8.414 3.527c-.441 0-.842-.074-1.201-.222a2.736 2.736 0 0 1-.92-.639 2.846 2.846 0 0 1-.586-.973 3.56 3.56 0 0 1-.205-1.23v-.246c0-.516.076-.975.228-1.377.153-.407.36-.75.622-1.032.261-.28.558-.494.89-.638a2.557 2.557 0 0 1 1.031-.217c.453 0 .844.078 1.172.234.332.157.604.375.815.657.211.277.367.605.468.984.102.375.153.785.153 1.23v.487h-4.735v-.885h3.651v-.082a2.701 2.701 0 0 0-.176-.82 1.477 1.477 0 0 0-.469-.657c-.215-.172-.508-.257-.879-.257a1.472 1.472 0 0 0-1.213.615 2.31 2.31 0 0 0-.345.744c-.082.293-.123.63-.123 1.014v.246c0 .3.041.584.123.85.086.261.209.491.369.69.164.2.361.356.592.469.234.114.5.17.797.17.382 0 .707-.078.972-.234.266-.156.498-.365.698-.627l.656.522a3.017 3.017 0 0 1-.522.591 2.47 2.47 0 0 1-.779.457c-.305.118-.666.176-1.084.176zm7.787-5.197V101h-1.09v-6.34h1.032l.058 1.26zm-.223 1.67-.503-.018c.003-.433.06-.834.169-1.2a2.86 2.86 0 0 1 .487-.968c.215-.273.482-.484.803-.632.32-.153.691-.229 1.113-.229.297 0 .57.043.82.129.25.082.467.213.651.392.183.18.326.41.427.692.102.281.153.621.153 1.02V101H179.1v-4.172c0-.332-.057-.597-.17-.797a.975.975 0 0 0-.469-.433 1.69 1.69 0 0 0-.715-.141c-.32 0-.588.057-.803.17a1.36 1.36 0 0 0-.515.469 2.12 2.12 0 0 0-.282.685 3.88 3.88 0 0 0-.082.809zm4.108-.598-.727.223c.004-.348.061-.682.17-1.002.114-.32.276-.606.487-.856a2.29 2.29 0 0 1 .791-.591 2.466 2.466 0 0 1 1.072-.223c.34 0 .64.045.902.135.266.09.488.228.668.416.184.183.322.42.416.709.094.289.141.633.141 1.031V101h-1.09v-4.178c0-.355-.057-.63-.17-.826a.885.885 0 0 0-.469-.416 1.87 1.87 0 0 0-.715-.123c-.238 0-.449.041-.632.123a1.305 1.305 0 0 0-.463.34c-.125.14-.221.303-.287.486a1.793 1.793 0 0 0-.094.586zm5.273.908v-.134c0-.457.067-.881.2-1.272.132-.394.324-.736.574-1.025.25-.293.552-.52.908-.68a2.817 2.817 0 0 1 1.195-.246c.446 0 .846.082 1.201.246.36.16.665.387.915.68.253.289.447.63.58 1.025.132.39.199.815.199 1.272v.134c0 .457-.067.881-.199 1.272-.133.39-.327.732-.58 1.025-.25.289-.553.516-.909.68-.351.16-.75.24-1.195.24-.445 0-.846-.08-1.201-.24a2.714 2.714 0 0 1-.914-.68 3.079 3.079 0 0 1-.574-1.025c-.133-.39-.2-.815-.2-1.272zm1.084-.134v.134c0 .317.037.616.112.897.074.277.185.523.334.738.152.215.341.385.568.51.227.121.49.182.791.182.297 0 .557-.061.779-.182a1.64 1.64 0 0 0 .563-.51c.148-.215.26-.46.334-.738.078-.281.117-.58.117-.897v-.134c0-.313-.039-.608-.117-.885a2.282 2.282 0 0 0-.34-.744 1.618 1.618 0 0 0-.563-.516 1.575 1.575 0 0 0-.785-.187c-.297 0-.558.062-.785.187-.223.125-.41.297-.562.516-.149.215-.26.463-.334.744a3.376 3.376 0 0 0-.112.885zm7.131-1.752V101h-1.084v-6.34h1.026l.058 1.354zm-.258 1.576-.451-.018c.004-.433.069-.834.194-1.2.125-.372.3-.694.527-.968a2.347 2.347 0 0 1 1.857-.861c.313 0 .594.043.844.129.25.082.463.215.639.398.179.184.316.422.41.715.094.29.14.643.14 1.06V101h-1.089v-4.166c0-.332-.049-.598-.147-.797a.896.896 0 0 0-.428-.44 1.533 1.533 0 0 0-.691-.14c-.269 0-.516.057-.738.17-.219.113-.408.27-.569.469-.156.199-.279.427-.369.685a2.504 2.504 0 0 0-.129.809zm8.461-2.93v.832h-3.427v-.832h3.427zm-2.267-1.54h1.084v6.31c0 .214.033.377.099.486a.482.482 0 0 0 .258.217c.106.035.219.053.34.053.09 0 .184-.008.281-.024.102-.019.178-.035.229-.047l.006.885a2.55 2.55 0 0 1-.34.076 2.536 2.536 0 0 1-.498.041c-.266 0-.51-.053-.733-.158a1.18 1.18 0 0 1-.533-.527c-.129-.25-.193-.586-.193-1.008v-6.305zm4.623-1.12v9h-1.084v-9h1.084zm-.258 5.59-.451-.018c.004-.433.068-.834.193-1.2.125-.372.301-.694.527-.968a2.36 2.36 0 0 1 1.858-.861c.312 0 .594.043.844.129.25.082.463.215.638.398.18.184.317.422.41.715.094.29.141.643.141 1.06V101h-1.09v-4.166c0-.332-.049-.598-.146-.797a.9.9 0 0 0-.428-.44 1.533 1.533 0 0 0-.691-.14c-.27 0-.516.057-.739.17a1.77 1.77 0 0 0-.568.469c-.156.199-.279.427-.369.685a2.504 2.504 0 0 0-.129.809zm-175.53 18.285 1.63-5.215h.714l-.14 1.037L28.977 117h-.698l.153-1.125zm-1.095-5.215 1.389 5.274.1 1.066h-.733l-1.84-6.34h1.084zm4.998 5.233 1.324-5.233h1.078l-1.84 6.34h-.726l.164-1.107zm-1.4-5.233 1.593 5.127.182 1.213h-.691l-1.706-5.314-.14-1.026h.762zm6-2.66v9H35.85v-9h1.084zm-.258 5.59-.451-.018c.003-.433.068-.834.193-1.201.125-.371.3-.693.527-.967.227-.273.496-.484.809-.633a2.39 2.39 0 0 1 1.049-.228c.312 0 .594.043.844.129.25.082.462.215.638.398.18.184.317.422.41.715.094.289.14.643.14 1.061V117h-1.089v-4.166c0-.332-.049-.598-.146-.797a.9.9 0 0 0-.428-.439 1.532 1.532 0 0 0-.691-.141c-.27 0-.516.057-.739.17a1.753 1.753 0 0 0-.568.469 2.35 2.35 0 0 0-.37.685 2.51 2.51 0 0 0-.128.809zm8.414 3.527c-.442 0-.842-.074-1.201-.222a2.739 2.739 0 0 1-.92-.639 2.846 2.846 0 0 1-.586-.973 3.566 3.566 0 0 1-.205-1.23v-.246c0-.516.076-.975.228-1.377.153-.407.36-.75.621-1.032.262-.281.559-.494.891-.638a2.55 2.55 0 0 1 1.031-.217c.453 0 .844.078 1.172.234.332.157.604.375.814.657a2.8 2.8 0 0 1 .47.984c.1.375.152.785.152 1.23v.487h-4.735v-.885h3.65v-.082a2.703 2.703 0 0 0-.175-.82 1.476 1.476 0 0 0-.469-.657c-.215-.171-.508-.257-.879-.257a1.469 1.469 0 0 0-1.213.615 2.301 2.301 0 0 0-.345.744 3.775 3.775 0 0 0-.123 1.014v.246c0 .301.04.584.123.849.086.262.209.493.369.692.164.199.361.355.592.468.234.114.5.17.796.17.383 0 .707-.078.973-.234.266-.156.498-.365.697-.627l.657.522c-.137.207-.31.404-.522.591-.21.188-.47.34-.78.457-.304.118-.665.176-1.083.176zm4.816-5.103V117h-1.084v-6.34h1.026l.058 1.354zm-.258 1.576-.45-.018c.003-.433.068-.834.193-1.201.125-.371.3-.693.527-.967.227-.273.496-.484.809-.633a2.39 2.39 0 0 1 1.048-.228c.313 0 .594.043.844.129.25.082.463.215.639.398.18.184.316.422.41.715.094.289.14.643.14 1.061V117h-1.09v-4.166c0-.332-.048-.598-.146-.797a.901.901 0 0 0-.428-.439 1.532 1.532 0 0 0-.69-.141c-.27 0-.517.057-.74.17a1.753 1.753 0 0 0-.567.469 2.35 2.35 0 0 0-.37.685 2.51 2.51 0 0 0-.129.809zm10.565 2.754 1.764-5.684h1.16l-2.543 7.319a3.999 3.999 0 0 1-.235.503 2.407 2.407 0 0 1-.363.522 1.72 1.72 0 0 1-.539.398 1.615 1.615 0 0 1-.744.159c-.086 0-.195-.012-.328-.036a3.322 3.322 0 0 1-.282-.058l-.005-.879c.03.004.08.008.146.012a1.754 1.754 0 0 0 .773-.088.949.949 0 0 0 .434-.323 1.91 1.91 0 0 0 .31-.615l.452-1.23zm-1.295-5.684 1.647 4.922.28 1.143-.779.398-2.332-6.463h1.184zm4.816 3.24v-.134c0-.457.067-.881.2-1.272.132-.394.324-.736.574-1.025.25-.293.553-.52.908-.68a2.82 2.82 0 0 1 1.195-.246c.446 0 .846.082 1.201.246.36.16.665.387.915.68.254.289.447.631.58 1.025.132.391.199.815.199 1.272v.134c0 .457-.067.881-.2 1.272-.132.39-.325.732-.58 1.025a2.66 2.66 0 0 1-.908.68c-.351.16-.75.24-1.195.24-.445 0-.846-.08-1.201-.24a2.719 2.719 0 0 1-.914-.68 3.102 3.102 0 0 1-.574-1.025 3.931 3.931 0 0 1-.2-1.272zm1.084-.134v.134c0 .317.038.616.112.897.074.277.185.523.334.738.152.215.342.385.568.51.227.121.49.182.791.182.297 0 .557-.061.78-.182.226-.125.413-.295.562-.51.148-.215.26-.461.334-.738.078-.281.117-.58.117-.897v-.134c0-.313-.039-.608-.117-.885a2.282 2.282 0 0 0-.34-.744 1.615 1.615 0 0 0-.563-.516 1.578 1.578 0 0 0-.785-.187c-.297 0-.558.062-.785.187-.222.125-.41.297-.562.516-.149.215-.26.463-.334.744a3.408 3.408 0 0 0-.112.885zm9.926 1.769v-4.875h1.09V117h-1.037l-.053-1.465zm.205-1.336.451-.011c0 .421-.044.812-.134 1.171a2.515 2.515 0 0 1-.422.926 1.99 1.99 0 0 1-.768.615c-.316.145-.701.217-1.154.217-.309 0-.592-.045-.85-.135a1.683 1.683 0 0 1-.656-.416 1.885 1.885 0 0 1-.428-.732 3.531 3.531 0 0 1-.146-1.084v-4.09h1.084v4.102c0 .285.031.521.093.709.067.183.155.33.264.439.114.106.239.18.375.223.14.043.285.064.434.064.46 0 .826-.088 1.096-.263.269-.18.462-.42.58-.721.12-.305.181-.643.181-1.014zm3.621-2.543V117h-1.084v-6.34h1.055l.03.996zm1.98-1.031-.005 1.008a1.525 1.525 0 0 0-.258-.035 2.676 2.676 0 0 0-.27-.012c-.25 0-.47.039-.661.117a1.38 1.38 0 0 0-.487.328 1.588 1.588 0 0 0-.316.504 2.436 2.436 0 0 0-.147.633l-.304.176c0-.383.037-.742.11-1.078.079-.336.198-.633.358-.891.16-.262.364-.465.61-.609a1.708 1.708 0 0 1 1.16-.194.795.795 0 0 1 .21.053zM85.708 108v9h-1.09v-9h1.09zm2.918 2.66V117h-1.09v-6.34h1.09zm-1.172-1.681c0-.176.053-.325.158-.446.11-.121.27-.181.48-.181.208 0 .366.06.475.181.114.121.17.27.17.446a.613.613 0 0 1-.17.433c-.109.117-.267.176-.474.176-.211 0-.371-.059-.48-.176a.639.639 0 0 1-.159-.433zm5.566 1.681v.832h-3.427v-.832h3.427zm-2.267-1.541h1.084v6.311c0 .215.033.377.1.486a.478.478 0 0 0 .257.217c.106.035.22.053.34.053.09 0 .184-.008.281-.024.102-.019.178-.035.229-.047l.006.885c-.086.027-.2.053-.34.076a2.533 2.533 0 0 1-.498.041c-.266 0-.51-.053-.733-.158a1.176 1.176 0 0 1-.533-.527c-.129-.25-.193-.586-.193-1.008v-6.305zm6.193 1.541v.832h-3.427v-.832h3.427zm-2.267-1.541h1.084v6.311c0 .215.033.377.1.486a.478.478 0 0 0 .257.217c.106.035.219.053.34.053.09 0 .184-.008.281-.024.102-.019.178-.035.229-.047l.006.885c-.086.027-.2.053-.34.076a2.534 2.534 0 0 1-.498.041c-.266 0-.51-.053-.733-.158a1.175 1.175 0 0 1-.533-.527c-.129-.25-.193-.586-.193-1.008v-6.305zM99.394 108v9h-1.09v-9h1.09zm4.372 9.117c-.442 0-.842-.074-1.202-.222a2.732 2.732 0 0 1-.919-.639 2.835 2.835 0 0 1-.586-.973 3.56 3.56 0 0 1-.205-1.23v-.246c0-.516.076-.975.228-1.377.152-.407.359-.75.621-1.032a2.66 2.66 0 0 1 .891-.638 2.55 2.55 0 0 1 1.031-.217c.453 0 .844.078 1.172.234.332.157.603.375.814.657.211.277.368.605.469.984.102.375.152.785.152 1.23v.487h-4.734v-.885h3.65v-.082a2.696 2.696 0 0 0-.175-.82 1.478 1.478 0 0 0-.469-.657c-.215-.171-.508-.257-.879-.257a1.47 1.47 0 0 0-1.213.615 2.308 2.308 0 0 0-.346.744 3.775 3.775 0 0 0-.123 1.014v.246c0 .301.041.584.123.849.086.262.209.493.37.692.164.199.361.355.591.468.235.114.5.17.797.17.383 0 .707-.078.973-.234.265-.156.498-.365.697-.627l.656.522c-.136.207-.31.404-.521.591-.211.188-.471.34-.779.457-.305.118-.666.176-1.084.176zm10.705-1.347V108h1.09v9h-.997l-.093-1.23zm-4.266-1.87v-.123c0-.484.059-.923.176-1.318.121-.398.291-.74.51-1.025.222-.286.486-.504.791-.657a2.25 2.25 0 0 1 1.031-.234c.398 0 .746.07 1.043.211.301.137.555.338.762.603.211.262.377.579.498.95s.205.791.252 1.259v.539a5.521 5.521 0 0 1-.252 1.254 2.963 2.963 0 0 1-.498.95 2.093 2.093 0 0 1-.762.603 2.523 2.523 0 0 1-1.055.205c-.371 0-.711-.08-1.019-.24a2.396 2.396 0 0 1-.791-.674 3.28 3.28 0 0 1-.51-1.019 4.503 4.503 0 0 1-.176-1.284zm1.09-.123v.123c0 .317.031.614.094.891.066.277.168.521.304.732.137.211.311.377.522.498.211.118.463.176.756.176.359 0 .654-.076.884-.228a1.71 1.71 0 0 0 .563-.604c.141-.25.25-.521.328-.814v-1.412a3.118 3.118 0 0 0-.205-.621 1.89 1.89 0 0 0-.34-.539 1.446 1.446 0 0 0-.51-.381 1.645 1.645 0 0 0-.709-.141 1.5 1.5 0 0 0-.767.188 1.502 1.502 0 0 0-.522.503 2.334 2.334 0 0 0-.304.739 4.01 4.01 0 0 0-.094.89zm9.691 2.139v-3.264c0-.25-.05-.466-.152-.65a1 1 0 0 0-.445-.434 1.627 1.627 0 0 0-.739-.152c-.273 0-.513.047-.72.141a1.243 1.243 0 0 0-.481.369.809.809 0 0 0-.17.492h-1.084c0-.227.059-.451.176-.674.117-.223.285-.424.504-.603.223-.184.488-.329.797-.434.312-.109.66-.164 1.043-.164.461 0 .867.078 1.219.234.355.157.632.393.832.709.203.313.304.705.304 1.178v2.953c0 .211.018.436.053.674.039.238.096.443.17.615V117h-1.131a2 2 0 0 1-.129-.498 4.051 4.051 0 0 1-.047-.586zm.188-2.76.012.762h-1.096c-.309 0-.584.025-.826.076a1.88 1.88 0 0 0-.61.217 1.037 1.037 0 0 0-.375.369.981.981 0 0 0-.129.51c0 .199.045.381.135.545a.98.98 0 0 0 .404.392c.184.094.409.141.674.141.332 0 .625-.07.879-.211s.455-.312.604-.516c.152-.203.234-.4.246-.591l.463.521a1.59 1.59 0 0 1-.223.545 2.633 2.633 0 0 1-1.201 1.025 2.317 2.317 0 0 1-.926.176c-.43 0-.807-.084-1.131-.252a1.933 1.933 0 0 1-.75-.674 1.78 1.78 0 0 1-.263-.955c0-.34.066-.638.199-.896.133-.262.324-.479.574-.651a2.75 2.75 0 0 1 .902-.398c.352-.09.744-.135 1.178-.135h1.26zm3.685-1.5V117h-1.084v-6.34h1.055l.029.996zm1.981-1.031-.006 1.008a1.53 1.53 0 0 0-.258-.035 2.671 2.671 0 0 0-.269-.012c-.25 0-.471.039-.662.117a1.377 1.377 0 0 0-.487.328 1.58 1.58 0 0 0-.316.504 2.465 2.465 0 0 0-.147.633l-.304.176c0-.383.037-.742.111-1.078.078-.336.197-.633.357-.891.161-.262.364-.465.61-.609a1.707 1.707 0 0 1 1.16-.194.8.8 0 0 1 .211.053zm2.18-2.625v9h-1.09v-9h1.09zm2.918 2.66V117h-1.09v-6.34h1.09zm-1.172-1.681c0-.176.052-.325.158-.446.109-.121.269-.181.48-.181.207 0 .366.06.475.181a.63.63 0 0 1 .17.446.614.614 0 0 1-.17.433c-.109.117-.268.176-.475.176-.211 0-.371-.059-.48-.176a.636.636 0 0 1-.158-.433zm3.996 3.035V117h-1.084v-6.34h1.025l.059 1.354zm-.258 1.576-.451-.018c.004-.433.068-.834.193-1.201.125-.371.301-.693.527-.967.227-.273.497-.484.809-.633a2.39 2.39 0 0 1 1.049-.228c.312 0 .594.043.844.129.25.082.463.215.638.398.18.184.317.422.41.715.094.289.141.643.141 1.061V117h-1.09v-4.166c0-.332-.049-.598-.146-.797a.9.9 0 0 0-.428-.439 1.533 1.533 0 0 0-.691-.141c-.27 0-.516.057-.739.17a1.758 1.758 0 0 0-.568.469 2.36 2.36 0 0 0-.369.685 2.507 2.507 0 0 0-.129.809zm9.914-2.93h.984v6.205c0 .559-.113 1.035-.34 1.43a2.207 2.207 0 0 1-.949.896c-.402.207-.867.311-1.394.311-.219 0-.477-.035-.774-.106a3.103 3.103 0 0 1-.867-.345 2.169 2.169 0 0 1-.709-.651l.569-.644c.265.32.542.543.832.668.292.125.582.187.867.187.343 0 .64-.064.89-.193s.444-.32.58-.574c.141-.25.211-.559.211-.926v-4.863l.1-1.395zm-4.365 3.24v-.123c0-.484.056-.923.17-1.318.117-.398.283-.74.498-1.025.218-.286.482-.504.791-.657a2.277 2.277 0 0 1 1.043-.234c.398 0 .746.07 1.043.211.3.137.554.338.761.603.211.262.377.579.498.95.122.371.205.791.252 1.259v.539a5.521 5.521 0 0 1-.252 1.254 2.963 2.963 0 0 1-.498.95 2.098 2.098 0 0 1-.761.603 2.527 2.527 0 0 1-1.055.205c-.379 0-.723-.08-1.031-.24a2.337 2.337 0 0 1-.785-.674 3.186 3.186 0 0 1-.504-1.019 4.615 4.615 0 0 1-.17-1.284zm1.084-.123v.123c0 .317.031.614.093.891.067.277.166.521.299.732.137.211.311.377.522.498.211.118.463.176.756.176.359 0 .656-.076.89-.228.235-.153.42-.354.557-.604.141-.25.25-.521.328-.814v-1.412a2.865 2.865 0 0 0-.199-.621 1.89 1.89 0 0 0-.34-.539 1.455 1.455 0 0 0-.51-.381 1.686 1.686 0 0 0-.715-.141c-.297 0-.552.063-.767.188a1.502 1.502 0 0 0-.522.503 2.425 2.425 0 0 0-.299.739 4.07 4.07 0 0 0-.093.89zM150.02 108h1.089v7.77l-.093 1.23h-.996v-9zm5.373 5.777v.123c0 .461-.055.889-.164 1.284-.11.39-.27.73-.481 1.019a2.244 2.244 0 0 1-.773.674c-.305.16-.655.24-1.049.24-.403 0-.756-.068-1.061-.205a2.09 2.09 0 0 1-.761-.603 3.11 3.11 0 0 1-.499-.95 5.932 5.932 0 0 1-.251-1.254v-.539c.046-.468.13-.888.251-1.259a3.11 3.11 0 0 1 .499-.95 2.01 2.01 0 0 1 .761-.603 2.45 2.45 0 0 1 1.049-.211c.398 0 .752.078 1.061.234.308.153.566.371.773.657.211.285.371.627.481 1.025.109.395.164.834.164 1.318zm-1.09.123v-.123c0-.316-.03-.613-.088-.89a2.335 2.335 0 0 0-.281-.739 1.405 1.405 0 0 0-.51-.503c-.211-.125-.471-.188-.779-.188-.274 0-.512.047-.715.141-.2.093-.369.22-.51.381a1.999 1.999 0 0 0-.346.539c-.086.199-.15.406-.193.621v1.412c.062.273.164.537.305.791.144.25.335.455.574.615.242.16.541.24.896.24.293 0 .543-.058.75-.176.211-.121.381-.287.51-.498a2.33 2.33 0 0 0 .293-.732c.062-.277.094-.574.094-.891zm5.092 3.217c-.442 0-.842-.074-1.202-.222a2.746 2.746 0 0 1-.92-.639 2.849 2.849 0 0 1-.585-.973 3.56 3.56 0 0 1-.206-1.23v-.246c0-.516.077-.975.229-1.377.152-.407.359-.75.621-1.032a2.66 2.66 0 0 1 .891-.638 2.547 2.547 0 0 1 1.031-.217c.453 0 .844.078 1.172.234.332.157.603.375.814.657.211.277.367.605.469.984.102.375.152.785.152 1.23v.487h-4.734v-.885h3.65v-.082a2.696 2.696 0 0 0-.175-.82 1.478 1.478 0 0 0-.469-.657c-.215-.171-.508-.257-.879-.257a1.47 1.47 0 0 0-1.213.615 2.308 2.308 0 0 0-.346.744 3.775 3.775 0 0 0-.123 1.014v.246c0 .301.041.584.123.849.086.262.209.493.369.692.165.199.362.355.592.468.235.114.5.17.797.17.383 0 .707-.078.973-.234.265-.156.498-.365.697-.627l.656.522c-.136.207-.31.404-.521.591-.211.188-.471.34-.779.457-.305.118-.667.176-1.084.176zm7.839-6.457h.985v6.205c0 .559-.114 1.035-.34 1.43a2.218 2.218 0 0 1-.949.896c-.403.207-.868.311-1.395.311-.219 0-.476-.035-.773-.106a3.103 3.103 0 0 1-.867-.345 2.15 2.15 0 0 1-.709-.651l.568-.644c.266.32.543.543.832.668.293.125.582.187.867.187.344 0 .641-.064.891-.193s.443-.32.58-.574c.14-.25.211-.559.211-.926v-4.863l.099-1.395zm-4.365 3.24v-.123c0-.484.057-.923.17-1.318.117-.398.283-.74.498-1.025.219-.286.483-.504.791-.657a2.28 2.28 0 0 1 1.043-.234c.399 0 .746.07 1.043.211.301.137.555.338.762.603.211.262.377.579.498.95s.205.791.252 1.259v.539a5.521 5.521 0 0 1-.252 1.254 2.963 2.963 0 0 1-.498.95 2.093 2.093 0 0 1-.762.603 2.523 2.523 0 0 1-1.055.205c-.379 0-.722-.08-1.031-.24a2.347 2.347 0 0 1-.785-.674 3.186 3.186 0 0 1-.504-1.019 4.652 4.652 0 0 1-.17-1.284zm1.084-.123v.123c0 .317.031.614.094.891.066.277.166.521.299.732.136.211.31.377.521.498.211.118.463.176.756.176.359 0 .656-.076.891-.228.234-.153.42-.354.556-.604.141-.25.25-.521.328-.814v-1.412a2.865 2.865 0 0 0-.199-.621 1.89 1.89 0 0 0-.34-.539 1.442 1.442 0 0 0-.509-.381 1.692 1.692 0 0 0-.715-.141c-.297 0-.553.063-.768.188a1.491 1.491 0 0 0-.521.503 2.4 2.4 0 0 0-.299.739 4.01 4.01 0 0 0-.094.89zm7.09-3.117V117h-1.09v-6.34h1.09zm-1.172-1.681c0-.176.053-.325.158-.446.11-.121.27-.181.481-.181.207 0 .365.06.474.181.114.121.17.27.17.446a.61.61 0 0 1-.17.433c-.109.117-.267.176-.474.176-.211 0-.371-.059-.481-.176a.64.64 0 0 1-.158-.433zm3.996 3.035V117h-1.084v-6.34h1.026l.058 1.354zm-.258 1.576-.451-.018c.004-.433.069-.834.194-1.201.125-.371.3-.693.527-.967a2.353 2.353 0 0 1 1.857-.861c.313 0 .594.043.844.129.25.082.463.215.639.398.179.184.316.422.41.715.094.289.141.643.141 1.061V117h-1.09v-4.166c0-.332-.049-.598-.147-.797a.897.897 0 0 0-.428-.439 1.527 1.527 0 0 0-.691-.141c-.269 0-.516.057-.738.17a1.762 1.762 0 0 0-.569.469 2.36 2.36 0 0 0-.369.685 2.507 2.507 0 0 0-.129.809zm6.891-1.576V117h-1.084v-6.34h1.025l.059 1.354zm-.258 1.576-.451-.018c.004-.433.068-.834.193-1.201.125-.371.301-.693.528-.967a2.36 2.36 0 0 1 .808-.633 2.392 2.392 0 0 1 1.049-.228c.313 0 .594.043.844.129.25.082.463.215.639.398.179.184.316.422.41.715.093.289.14.643.14 1.061V117h-1.09v-4.166c0-.332-.048-.598-.146-.797a.9.9 0 0 0-.428-.439 1.53 1.53 0 0 0-.691-.141c-.27 0-.516.057-.738.17a1.751 1.751 0 0 0-.569.469 2.36 2.36 0 0 0-.369.685 2.507 2.507 0 0 0-.129.809zm9.498 1.728c0-.156-.035-.3-.105-.433-.067-.137-.205-.26-.416-.369-.207-.114-.52-.211-.938-.293a7.498 7.498 0 0 1-.955-.264 2.95 2.95 0 0 1-.721-.369 1.566 1.566 0 0 1-.451-.51 1.426 1.426 0 0 1-.158-.685c0-.25.055-.487.164-.709a1.9 1.9 0 0 1 .475-.592c.207-.172.455-.307.744-.405.289-.097.611-.146.967-.146.508 0 .941.09 1.3.269.36.18.635.42.827.721.191.297.287.627.287.99h-1.084a.933.933 0 0 0-.158-.509 1.165 1.165 0 0 0-.452-.416c-.195-.11-.435-.164-.72-.164-.301 0-.545.046-.733.14a.942.942 0 0 0-.404.346.871.871 0 0 0-.064.762.714.714 0 0 0 .222.252c.106.074.254.144.445.211.192.066.436.132.733.199.519.117.947.258 1.283.422.336.164.586.365.75.603.164.238.246.527.246.867a1.68 1.68 0 0 1-.674 1.36 2.446 2.446 0 0 1-.773.386 3.45 3.45 0 0 1-1.002.135c-.559 0-1.031-.099-1.418-.299-.387-.199-.68-.457-.879-.773a1.85 1.85 0 0 1-.299-1.002h1.09c.016.297.102.533.258.709.156.172.348.295.574.369.227.07.451.106.674.106.297 0 .545-.039.744-.118.203-.078.358-.185.463-.322a.744.744 0 0 0 .158-.469zm8.139-4.658v.832h-3.428v-.832h3.428zm-2.268-1.541h1.084v6.311c0 .215.034.377.1.486a.475.475 0 0 0 .258.217c.105.035.218.053.34.053.089 0 .183-.008.281-.024.101-.019.178-.035.228-.047l.006.885a2.514 2.514 0 0 1-.34.076 2.523 2.523 0 0 1-.498.041c-.265 0-.509-.053-.732-.158a1.174 1.174 0 0 1-.533-.527c-.129-.25-.194-.586-.194-1.008v-6.305zm3.135 4.781v-.134c0-.457.066-.881.199-1.272.133-.394.325-.736.575-1.025.25-.293.552-.52.908-.68a2.819 2.819 0 0 1 1.195-.246c.445 0 .846.082 1.201.246.36.16.664.387.914.68.254.289.448.631.58 1.025.133.391.2.815.2 1.272v.134c0 .457-.067.881-.2 1.272-.132.39-.326.732-.58 1.025-.25.289-.552.516-.908.68-.351.16-.75.24-1.195.24a2.89 2.89 0 0 1-1.201-.24 2.704 2.704 0 0 1-.914-.68 3.107 3.107 0 0 1-.575-1.025 3.926 3.926 0 0 1-.199-1.272zm1.084-.134v.134c0 .317.037.616.111.897.075.277.186.523.334.738.153.215.342.385.569.51.226.121.49.182.791.182.297 0 .556-.061.779-.182.227-.125.414-.295.563-.51.148-.215.259-.461.334-.738a3.34 3.34 0 0 0 .117-.897v-.134c0-.313-.039-.608-.117-.885a2.305 2.305 0 0 0-.34-.744 1.616 1.616 0 0 0-.563-.516 1.575 1.575 0 0 0-.785-.187c-.297 0-.559.062-.785.187-.223.125-.41.297-.563.516a2.384 2.384 0 0 0-.334.744 3.417 3.417 0 0 0-.111.885zM29.363 132.227c.258 0 .496-.053.715-.159.219-.105.399-.25.54-.433.14-.188.22-.401.24-.639h1.03c-.019.375-.146.725-.38 1.049a2.6 2.6 0 0 1-.908.779 2.627 2.627 0 0 1-1.237.293c-.476 0-.892-.084-1.248-.252a2.473 2.473 0 0 1-.879-.691 3.09 3.09 0 0 1-.521-1.008 4.256 4.256 0 0 1-.17-1.213v-.246c0-.426.057-.828.17-1.207.117-.383.29-.721.521-1.014.235-.293.528-.523.88-.691.355-.168.77-.252 1.247-.252.496 0 .93.102 1.301.305.371.199.662.472.873.82.215.344.332.734.352 1.172h-1.032a1.56 1.56 0 0 0-.222-.709 1.388 1.388 0 0 0-.516-.504 1.44 1.44 0 0 0-.756-.193c-.332 0-.611.066-.838.199-.222.129-.4.305-.533.527a2.463 2.463 0 0 0-.281.733 4.021 4.021 0 0 0-.082.814v.246c0 .277.027.551.082.82.055.27.146.514.275.733.133.219.31.394.534.527.226.129.507.194.843.194zm4.828-4.571V133h-1.084v-6.34h1.055l.03.996zm1.98-1.031-.005 1.008a1.525 1.525 0 0 0-.258-.035 2.676 2.676 0 0 0-.27-.012c-.25 0-.47.039-.661.117a1.378 1.378 0 0 0-.487.328 1.588 1.588 0 0 0-.316.504 2.436 2.436 0 0 0-.147.633l-.304.176c0-.383.037-.742.111-1.078.078-.336.197-.633.357-.891.16-.262.364-.465.61-.609a1.708 1.708 0 0 1 1.16-.194.795.795 0 0 1 .21.053zm4.507 5.291v-3.264c0-.25-.051-.466-.153-.65a.998.998 0 0 0-.445-.434 1.621 1.621 0 0 0-.738-.152c-.274 0-.514.047-.72.141a1.242 1.242 0 0 0-.481.369.807.807 0 0 0-.17.492h-1.084c0-.227.058-.451.175-.674.118-.223.286-.424.504-.603.223-.184.489-.329.797-.434a3.15 3.15 0 0 1 1.043-.164c.461 0 .867.078 1.219.234.355.157.633.393.832.709.203.313.305.705.305 1.178v2.953c0 .211.017.436.053.674.038.238.095.443.17.615V133h-1.132a2.027 2.027 0 0 1-.128-.498 4.022 4.022 0 0 1-.047-.586zm.187-2.76.012.762h-1.096c-.308 0-.584.025-.826.076a1.885 1.885 0 0 0-.61.217c-.163.098-.288.221-.374.369a.982.982 0 0 0-.13.51c0 .199.046.381.136.545.09.164.224.295.404.392.184.094.408.141.674.141a1.824 1.824 0 0 0 1.482-.727c.153-.203.235-.4.246-.591l.463.521a1.572 1.572 0 0 1-.223.545 2.615 2.615 0 0 1-1.201 1.025 2.315 2.315 0 0 1-.925.176c-.43 0-.807-.084-1.131-.252a1.929 1.929 0 0 1-.75-.674 1.782 1.782 0 0 1-.264-.955c0-.34.066-.638.2-.896.132-.262.323-.479.573-.651.25-.175.551-.308.903-.398.351-.09.744-.135 1.178-.135h1.26zm4.207 2.719 1.63-5.215h.714l-.14 1.037L45.616 133h-.697l.152-1.125zm-1.095-5.215 1.388 5.274.1 1.066h-.733l-1.84-6.34h1.085zm4.998 5.233 1.324-5.233h1.078l-1.84 6.34h-.727l.165-1.107zm-1.4-5.233 1.593 5.127.182 1.213h-.692l-1.705-5.314-.14-1.026h.761zm6.093-2.66v9h-1.09v-9h1.09zm3.03.469-.077 6.123h-.978l-.083-6.123h1.137zm-1.173 7.986c0-.176.053-.324.159-.445.109-.121.27-.182.48-.182.207 0 .365.061.475.182.113.121.17.269.17.445a.613.613 0 0 1-.17.434c-.11.121-.268.181-.475.181-.21 0-.371-.06-.48-.181a.639.639 0 0 1-.159-.434zm8.426.545H62.17l.012-.92h1.77c.609 0 1.116-.127 1.523-.381a2.38 2.38 0 0 0 .914-1.078c.207-.465.31-1.008.31-1.629v-.521c0-.489-.058-.922-.176-1.301a2.634 2.634 0 0 0-.515-.967 2.176 2.176 0 0 0-.832-.603 2.855 2.855 0 0 0-1.12-.205h-1.921v-.926h1.922c.558 0 1.068.093 1.529.281.46.184.857.451 1.19.803.335.347.593.769.773 1.265.18.493.27 1.047.27 1.664v.51c0 .617-.09 1.174-.27 1.67a3.404 3.404 0 0 1-1.998 2.063 4.402 4.402 0 0 1-1.6.275zm-1.178-8.531V133h-1.13v-8.531h1.13zm6.293 5.431v-.134c0-.457.067-.881.2-1.272.132-.394.324-.736.574-1.025.25-.293.553-.52.908-.68a2.82 2.82 0 0 1 1.195-.246c.446 0 .846.082 1.201.246.36.16.665.387.915.68.254.289.447.631.58 1.025.133.391.199.815.199 1.272v.134c0 .457-.066.881-.2 1.272-.132.39-.326.732-.58 1.025-.25.289-.552.516-.908.68-.351.16-.75.24-1.195.24-.445 0-.846-.08-1.201-.24a2.72 2.72 0 0 1-.914-.68 3.102 3.102 0 0 1-.574-1.025 3.931 3.931 0 0 1-.2-1.272zm1.084-.134v.134c0 .317.037.616.112.897.074.277.185.523.334.738.152.215.341.385.568.51.227.121.49.182.791.182.297 0 .557-.061.78-.182.226-.125.413-.295.562-.51.148-.215.26-.461.334-.738.078-.281.117-.58.117-.897v-.134c0-.313-.039-.608-.117-.885a2.282 2.282 0 0 0-.34-.744 1.613 1.613 0 0 0-.563-.516 1.578 1.578 0 0 0-.785-.187c-.296 0-.558.062-.785.187-.222.125-.41.297-.562.516-.149.215-.26.463-.334.744a3.408 3.408 0 0 0-.112.885zm10.63 2.109 1.628-5.215h.715l-.14 1.037L81.323 133h-.697l.152-1.125zm-1.096-5.215 1.388 5.274.1 1.066h-.733l-1.84-6.34h1.085zm4.998 5.233 1.324-5.233h1.078l-1.84 6.34h-.726l.164-1.107zm-1.4-5.233 1.593 5.127.182 1.213h-.692l-1.705-5.314-.14-1.026h.761zm7.546 6.457c-.441 0-.842-.074-1.201-.222a2.74 2.74 0 0 1-.92-.639 2.847 2.847 0 0 1-.586-.973 3.566 3.566 0 0 1-.205-1.23v-.246c0-.516.076-.975.228-1.377.153-.407.36-.75.622-1.032.261-.281.558-.494.89-.638a2.55 2.55 0 0 1 1.031-.217c.454 0 .844.078 1.172.234.332.157.604.375.815.657a2.8 2.8 0 0 1 .469.984c.101.375.152.785.152 1.23v.487H88.56v-.885h3.65v-.082a2.7 2.7 0 0 0-.176-.82 1.476 1.476 0 0 0-.469-.657c-.214-.171-.507-.257-.879-.257a1.469 1.469 0 0 0-1.212.615 2.299 2.299 0 0 0-.346.744 3.775 3.775 0 0 0-.123 1.014v.246c0 .301.04.584.123.849.086.262.209.493.369.692.164.199.361.355.592.468.234.114.5.17.797.17.382 0 .707-.078.972-.234a2.4 2.4 0 0 0 .698-.627l.656.522c-.137.207-.31.404-.522.591-.21.188-.47.34-.779.457-.305.118-.666.176-1.084.176zM98.621 124v9h-1.084v-9h1.084zm-.258 5.59-.45-.018c.003-.433.068-.834.193-1.201.125-.371.3-.693.527-.967.226-.273.496-.484.808-.633a2.389 2.389 0 0 1 1.049-.228c.313 0 .594.043.844.129.25.082.463.215.639.398.179.184.316.422.41.715.094.289.14.643.14 1.061V133h-1.089v-4.166c0-.332-.049-.598-.147-.797a.9.9 0 0 0-.428-.439 1.53 1.53 0 0 0-.691-.141c-.27 0-.516.057-.738.17a1.753 1.753 0 0 0-.569.469 2.35 2.35 0 0 0-.369.685 2.507 2.507 0 0 0-.129.809zm9.522 2.326v-3.264c0-.25-.051-.466-.153-.65a.995.995 0 0 0-.445-.434 1.62 1.62 0 0 0-.738-.152c-.274 0-.514.047-.721.141a1.239 1.239 0 0 0-.48.369.803.803 0 0 0-.17.492h-1.084c0-.227.058-.451.176-.674.117-.223.285-.424.503-.603.223-.184.489-.329.797-.434.313-.109.66-.164 1.043-.164.461 0 .867.078 1.219.234.356.157.633.393.832.709.203.313.305.705.305 1.178v2.953c0 .211.017.436.052.674.04.238.096.443.17.615V133h-1.13a2 2 0 0 1-.129-.498 3.914 3.914 0 0 1-.047-.586zm.187-2.76.012.762h-1.096c-.308 0-.584.025-.826.076a1.883 1.883 0 0 0-.609.217 1.037 1.037 0 0 0-.375.369.981.981 0 0 0-.129.51c0 .199.045.381.135.545a.968.968 0 0 0 .404.392c.183.094.408.141.674.141a1.817 1.817 0 0 0 1.482-.727c.152-.203.235-.4.246-.591l.463.521a1.55 1.55 0 0 1-.223.545 2.603 2.603 0 0 1-1.201 1.025 2.312 2.312 0 0 1-.925.176c-.43 0-.807-.084-1.131-.252a1.919 1.919 0 0 1-.75-.674 1.78 1.78 0 0 1-.264-.955c0-.34.066-.638.199-.896.133-.262.324-.479.574-.651.25-.175.551-.308.903-.398.351-.09.744-.135 1.177-.135h1.26zm4.436 2.865 1.734-5.361h1.108l-2.28 6.34h-.726l.164-.979zm-1.447-5.361 1.787 5.391.123.949h-.727l-2.297-6.34h1.114zm7.88 6.457a3.13 3.13 0 0 1-1.201-.222 2.746 2.746 0 0 1-.92-.639 2.85 2.85 0 0 1-.586-.973 3.583 3.583 0 0 1-.205-1.23v-.246c0-.516.076-.975.229-1.377.152-.407.359-.75.621-1.032a2.66 2.66 0 0 1 .891-.638 2.547 2.547 0 0 1 1.031-.217c.453 0 .844.078 1.172.234.332.157.603.375.814.657.211.277.367.605.469.984.101.375.152.785.152 1.23v.487h-4.734v-.885h3.65v-.082a2.668 2.668 0 0 0-.176-.82 1.468 1.468 0 0 0-.468-.657c-.215-.171-.508-.257-.879-.257a1.47 1.47 0 0 0-1.213.615 2.287 2.287 0 0 0-.346.744 3.775 3.775 0 0 0-.123 1.014v.246c0 .301.041.584.123.849.086.262.209.493.369.692.164.199.362.355.592.468.235.114.5.17.797.17.383 0 .707-.078.973-.234.265-.156.498-.365.697-.627l.656.522a3.02 3.02 0 0 1-.521.591c-.211.188-.471.34-.78.457-.304.118-.666.176-1.084.176zm6.422-3.217v-.134c0-.457.067-.881.199-1.272.133-.394.325-.736.575-1.025.25-.293.552-.52.908-.68a2.819 2.819 0 0 1 1.195-.246c.446 0 .846.082 1.201.246.36.16.664.387.914.68.254.289.448.631.581 1.025.132.391.199.815.199 1.272v.134c0 .457-.067.881-.199 1.272a3.05 3.05 0 0 1-.581 1.025c-.25.289-.552.516-.908.68-.351.16-.75.24-1.195.24-.445 0-.846-.08-1.201-.24a2.714 2.714 0 0 1-.914-.68 3.107 3.107 0 0 1-.575-1.025 3.953 3.953 0 0 1-.199-1.272zm1.084-.134v.134c0 .317.037.616.112.897.074.277.185.523.334.738.152.215.341.385.568.51.227.121.49.182.791.182.297 0 .557-.061.779-.182.227-.125.414-.295.563-.51.148-.215.26-.461.334-.738a3.34 3.34 0 0 0 .117-.897v-.134c0-.313-.039-.608-.117-.885a2.284 2.284 0 0 0-.34-.744 1.616 1.616 0 0 0-.563-.516 1.575 1.575 0 0 0-.785-.187c-.297 0-.558.062-.785.187-.223.125-.41.297-.562.516-.149.215-.26.463-.334.744a3.374 3.374 0 0 0-.112.885zm9.926 1.769v-4.875h1.09V133h-1.037l-.053-1.465zm.205-1.336.451-.011c0 .421-.045.812-.134 1.171a2.522 2.522 0 0 1-.422.926 1.998 1.998 0 0 1-.768.615c-.316.145-.701.217-1.154.217-.309 0-.592-.045-.85-.135a1.684 1.684 0 0 1-.656-.416 1.887 1.887 0 0 1-.428-.732 3.554 3.554 0 0 1-.146-1.084v-4.09h1.084v4.102c0 .285.031.521.093.709.067.183.155.33.264.439.113.106.238.18.375.223.141.043.285.064.434.064.461 0 .826-.088 1.095-.263a1.5 1.5 0 0 0 .58-.721c.122-.305.182-.643.182-1.014zm3.621-2.543V133h-1.084v-6.34h1.055l.029.996zm1.981-1.031-.006 1.008a1.53 1.53 0 0 0-.258-.035 2.678 2.678 0 0 0-.27-.012c-.25 0-.47.039-.662.117a1.382 1.382 0 0 0-.486.328 1.58 1.58 0 0 0-.316.504 2.424 2.424 0 0 0-.147.633l-.305.176c0-.383.038-.742.112-1.078.078-.336.197-.633.357-.891.16-.262.363-.465.61-.609a1.705 1.705 0 0 1 1.16-.194.8.8 0 0 1 .211.053zm6.515 5.602c.258 0 .496-.053.715-.159.219-.105.399-.25.539-.433.141-.188.221-.401.24-.639h1.032a1.94 1.94 0 0 1-.381 1.049 2.605 2.605 0 0 1-2.145 1.072c-.476 0-.892-.084-1.248-.252a2.483 2.483 0 0 1-.879-.691 3.094 3.094 0 0 1-.521-1.008 4.264 4.264 0 0 1-.17-1.213v-.246c0-.426.057-.828.17-1.207.117-.383.291-.721.521-1.014.235-.293.528-.523.879-.691.356-.168.772-.252 1.248-.252.496 0 .93.102 1.301.305.371.199.662.472.873.82.215.344.332.734.352 1.172h-1.032a1.553 1.553 0 0 0-.222-.709 1.387 1.387 0 0 0-.516-.504 1.441 1.441 0 0 0-.756-.193c-.332 0-.611.066-.838.199a1.48 1.48 0 0 0-.533.527 2.471 2.471 0 0 0-.281.733 4 4 0 0 0-.082.814v.246c0 .277.027.551.082.82.055.27.146.514.275.733.133.219.311.394.534.527.226.129.507.194.843.194zm7.483-.311v-3.264c0-.25-.051-.466-.153-.65a.995.995 0 0 0-.445-.434 1.62 1.62 0 0 0-.738-.152c-.274 0-.514.047-.721.141a1.239 1.239 0 0 0-.48.369.803.803 0 0 0-.17.492h-1.084c0-.227.058-.451.175-.674a1.98 1.98 0 0 1 .504-.603c.223-.184.489-.329.797-.434.313-.109.66-.164 1.043-.164.461 0 .867.078 1.219.234.355.157.633.393.832.709.203.313.305.705.305 1.178v2.953c0 .211.017.436.052.674.04.238.096.443.17.615V133h-1.13a2 2 0 0 1-.129-.498 3.914 3.914 0 0 1-.047-.586zm.187-2.76.012.762h-1.096c-.308 0-.584.025-.826.076a1.883 1.883 0 0 0-.609.217 1.037 1.037 0 0 0-.375.369.981.981 0 0 0-.129.51c0 .199.045.381.135.545a.968.968 0 0 0 .404.392c.183.094.408.141.674.141a1.817 1.817 0 0 0 1.482-.727c.152-.203.234-.4.246-.591l.463.521a1.55 1.55 0 0 1-.223.545 2.603 2.603 0 0 1-1.201 1.025 2.313 2.313 0 0 1-.926.176c-.429 0-.806-.084-1.13-.252a1.919 1.919 0 0 1-.75-.674 1.78 1.78 0 0 1-.264-.955c0-.34.066-.638.199-.896.133-.262.324-.479.574-.651.25-.175.551-.308.903-.398.351-.09.744-.135 1.177-.135h1.26zm3.68-1.236V133h-1.09v-6.34h1.031l.059 1.26zm-.223 1.67-.504-.018c.004-.433.061-.834.17-1.201.11-.371.272-.693.487-.967.214-.273.482-.484.802-.633a2.574 2.574 0 0 1 1.114-.228c.297 0 .57.043.82.129.25.082.467.213.65.392.184.18.327.411.428.692.102.281.152.621.152 1.019V133h-1.084v-4.172c0-.332-.056-.598-.169-.797a.975.975 0 0 0-.469-.433 1.69 1.69 0 0 0-.715-.141c-.32 0-.588.057-.803.17a1.339 1.339 0 0 0-.515.469 2.113 2.113 0 0 0-.282.685 3.885 3.885 0 0 0-.082.809zm4.108-.598-.727.223c.004-.348.061-.682.17-1.002.113-.32.275-.606.486-.856a2.3 2.3 0 0 1 .791-.591c.313-.149.67-.223 1.073-.223.339 0 .64.045.902.135.266.09.488.228.668.416.184.183.322.42.416.709.094.289.141.633.141 1.031V133h-1.09v-4.178c0-.355-.057-.631-.17-.826a.889.889 0 0 0-.469-.416 1.872 1.872 0 0 0-.715-.123 1.54 1.54 0 0 0-.633.123 1.304 1.304 0 0 0-.462.34 1.505 1.505 0 0 0-.288.486 1.822 1.822 0 0 0-.093.586zm8.191 4.125c-.441 0-.842-.074-1.201-.222a2.736 2.736 0 0 1-.92-.639 2.85 2.85 0 0 1-.586-.973 3.56 3.56 0 0 1-.205-1.23v-.246c0-.516.076-.975.229-1.377.152-.407.359-.75.621-1.032.261-.281.558-.494.89-.638a2.55 2.55 0 0 1 1.031-.217c.454 0 .844.078 1.172.234.332.157.604.375.815.657.211.277.367.605.469.984.101.375.152.785.152 1.23v.487h-4.734v-.885h3.65v-.082a2.698 2.698 0 0 0-.176-.82 1.478 1.478 0 0 0-.469-.657c-.214-.171-.507-.257-.879-.257a1.466 1.466 0 0 0-1.212.615 2.287 2.287 0 0 0-.346.744 3.775 3.775 0 0 0-.123 1.014v.246c0 .301.041.584.123.849.086.262.209.493.369.692.164.199.361.355.592.468.234.114.5.17.797.17.382 0 .707-.078.972-.234.266-.156.498-.365.698-.627l.656.522a3.026 3.026 0 0 1-.522.591 2.47 2.47 0 0 1-.779.457c-.305.118-.666.176-1.084.176zm4.817-5.461V133h-1.084v-6.34h1.054l.03.996zm1.98-1.031-.006 1.008a1.53 1.53 0 0 0-.258-.035 2.671 2.671 0 0 0-.269-.012c-.25 0-.471.039-.662.117a1.377 1.377 0 0 0-.487.328 1.598 1.598 0 0 0-.316.504 2.465 2.465 0 0 0-.147.633l-.304.176c0-.383.037-.742.111-1.078.078-.336.197-.633.358-.891a1.74 1.74 0 0 1 .609-.609 1.708 1.708 0 0 1 1.16-.194.79.79 0 0 1 .211.053zm4.506 5.291v-3.264c0-.25-.051-.466-.153-.65a.995.995 0 0 0-.445-.434 1.62 1.62 0 0 0-.738-.152c-.274 0-.514.047-.721.141a1.239 1.239 0 0 0-.48.369.803.803 0 0 0-.17.492h-1.084c0-.227.058-.451.176-.674.117-.223.285-.424.503-.603.223-.184.489-.329.797-.434a3.157 3.157 0 0 1 1.043-.164c.461 0 .868.078 1.219.234.356.157.633.393.832.709.203.313.305.705.305 1.178v2.953c0 .211.017.436.053.674.039.238.095.443.169.615V133h-1.13a2 2 0 0 1-.129-.498 3.914 3.914 0 0 1-.047-.586zm.187-2.76.012.762h-1.096c-.308 0-.584.025-.826.076a1.883 1.883 0 0 0-.609.217 1.037 1.037 0 0 0-.375.369.981.981 0 0 0-.129.51c0 .199.045.381.135.545a.968.968 0 0 0 .404.392c.184.094.408.141.674.141a1.817 1.817 0 0 0 1.482-.727c.153-.203.235-.4.246-.591l.463.521a1.565 1.565 0 0 1-.222.545 2.628 2.628 0 0 1-1.202 1.025 2.312 2.312 0 0 1-.925.176c-.43 0-.807-.084-1.131-.252a1.919 1.919 0 0 1-.75-.674 1.78 1.78 0 0 1-.264-.955c0-.34.066-.638.199-.896.133-.262.324-.479.574-.651.25-.175.551-.308.903-.398.351-.09.744-.135 1.178-.135h1.259zm6.293 2.162c0-.156-.035-.3-.105-.433-.067-.137-.205-.26-.416-.369-.207-.114-.52-.211-.938-.293a7.498 7.498 0 0 1-.955-.264 2.925 2.925 0 0 1-.72-.369 1.558 1.558 0 0 1-.452-.51 1.426 1.426 0 0 1-.158-.685c0-.25.055-.487.164-.709.114-.223.272-.42.475-.592.207-.172.455-.307.744-.405.289-.097.611-.146.967-.146.508 0 .941.09 1.301.269.359.18.634.42.826.721.191.297.287.627.287.99h-1.084a.933.933 0 0 0-.158-.509 1.165 1.165 0 0 0-.452-.416c-.195-.11-.435-.164-.72-.164-.301 0-.545.046-.733.14a.942.942 0 0 0-.404.346.871.871 0 0 0-.064.762.714.714 0 0 0 .222.252c.106.074.254.144.446.211.191.066.435.132.732.199.52.117.947.258 1.283.422.336.164.586.365.75.603.164.238.246.527.246.867a1.68 1.68 0 0 1-.674 1.36 2.446 2.446 0 0 1-.773.386 3.45 3.45 0 0 1-1.002.135c-.559 0-1.031-.099-1.418-.299-.387-.199-.68-.457-.879-.773a1.85 1.85 0 0 1-.299-1.002h1.09c.016.297.102.533.258.709.156.172.348.295.574.369.227.07.451.106.674.106.297 0 .545-.039.744-.118.203-.078.358-.185.463-.322a.744.744 0 0 0 .158-.469zM27.91 143.656V149h-1.084v-6.34h1.055l.03.996zm1.98-1.031-.005 1.008a1.527 1.527 0 0 0-.258-.035 2.678 2.678 0 0 0-.27-.012c-.25 0-.47.039-.662.117a1.378 1.378 0 0 0-.486.328 1.586 1.586 0 0 0-.316.504 2.432 2.432 0 0 0-.147.633l-.305.176c0-.383.038-.742.112-1.078.078-.336.197-.633.357-.891.16-.262.363-.465.61-.609a1.708 1.708 0 0 1 1.16-.194.794.794 0 0 1 .21.053zm3.516 6.492c-.441 0-.841-.074-1.2-.222a2.739 2.739 0 0 1-.92-.639 2.846 2.846 0 0 1-.587-.973 3.566 3.566 0 0 1-.205-1.23v-.246c0-.516.076-.975.229-1.377.152-.407.359-.75.62-1.032.262-.281.56-.494.891-.638a2.55 2.55 0 0 1 1.032-.217c.453 0 .843.078 1.172.234.331.157.603.375.814.657.21.277.367.605.469.984.101.375.152.785.152 1.23v.487h-4.734v-.885h3.65v-.082a2.703 2.703 0 0 0-.176-.82 1.476 1.476 0 0 0-.468-.657c-.215-.171-.508-.257-.88-.257a1.469 1.469 0 0 0-1.212.615 2.301 2.301 0 0 0-.346.744 3.775 3.775 0 0 0-.123 1.014v.246c0 .301.041.584.123.849.086.262.209.493.37.692.163.199.36.355.591.468.234.114.5.17.797.17.383 0 .707-.078.972-.234.266-.156.498-.365.698-.627l.656.522c-.137.207-.31.404-.521.591-.211.188-.471.34-.78.457-.305.118-.666.176-1.084.176zm7.471-1.201v-3.264c0-.25-.05-.466-.152-.65a.997.997 0 0 0-.446-.434 1.621 1.621 0 0 0-.738-.152c-.273 0-.514.047-.72.141a1.242 1.242 0 0 0-.481.369.808.808 0 0 0-.17.492h-1.084c0-.227.059-.451.176-.674.117-.223.285-.424.504-.603.222-.184.488-.329.797-.434.312-.109.66-.164 1.042-.164.461 0 .868.078 1.22.234.355.157.632.393.831.709.203.313.305.705.305 1.178v2.953c0 .211.017.436.053.674.039.238.095.443.17.615V149h-1.131a2.027 2.027 0 0 1-.13-.498 4.021 4.021 0 0 1-.046-.586zm.188-2.76.011.762H39.98c-.308 0-.583.025-.826.076a1.885 1.885 0 0 0-.61.217 1.037 1.037 0 0 0-.374.369.982.982 0 0 0-.129.51c0 .199.045.381.135.545.09.164.224.295.404.392.184.094.408.141.674.141a1.824 1.824 0 0 0 1.482-.727c.153-.203.235-.4.246-.591l.463.521a1.572 1.572 0 0 1-.222.545 2.615 2.615 0 0 1-1.201 1.025 2.315 2.315 0 0 1-.926.176c-.43 0-.807-.084-1.131-.252a1.929 1.929 0 0 1-.75-.674 1.783 1.783 0 0 1-.264-.955c0-.34.067-.638.2-.896.132-.262.324-.479.574-.651.25-.175.55-.308.902-.398.351-.09.744-.135 1.178-.135h1.26zm6.597 2.614V140h1.09v9h-.996l-.094-1.23zm-4.265-1.87v-.123c0-.484.058-.923.175-1.318.121-.398.291-.74.51-1.025.223-.286.486-.504.791-.657a2.253 2.253 0 0 1 1.031-.234c.399 0 .746.07 1.043.211.301.137.555.338.762.603.21.262.377.579.498.95s.205.791.252 1.259v.539a5.521 5.521 0 0 1-.252 1.254 2.967 2.967 0 0 1-.498.95 2.095 2.095 0 0 1-.762.603c-.3.137-.652.205-1.054.205-.371 0-.711-.08-1.02-.24a2.407 2.407 0 0 1-.791-.674 3.288 3.288 0 0 1-.51-1.019 4.496 4.496 0 0 1-.175-1.284zm1.09-.123v.123c0 .317.03.614.093.891.067.277.168.521.305.732.137.211.31.377.521.498.211.118.463.176.756.176.36 0 .654-.076.885-.228.234-.153.422-.354.562-.604.141-.25.25-.521.328-.814v-1.412a3.118 3.118 0 0 0-.205-.621 1.896 1.896 0 0 0-.34-.539 1.45 1.45 0 0 0-.51-.381 1.648 1.648 0 0 0-.708-.141 1.5 1.5 0 0 0-.768.188 1.5 1.5 0 0 0-.521.503 2.326 2.326 0 0 0-.305.739 4.04 4.04 0 0 0-.094.89zm7.734 2.567 1.763-5.684h1.16l-2.542 7.319a3.999 3.999 0 0 1-.235.503 2.407 2.407 0 0 1-.363.522 1.72 1.72 0 0 1-.54.398 1.615 1.615 0 0 1-.743.159c-.086 0-.196-.012-.328-.036a3.322 3.322 0 0 1-.282-.058l-.005-.879c.03.004.08.008.146.012a1.754 1.754 0 0 0 .773-.088.949.949 0 0 0 .434-.323 1.91 1.91 0 0 0 .31-.615l.452-1.23zm-1.295-5.684 1.646 4.922.281 1.143-.779.398-2.332-6.463h1.184zm7.552 3.938h-1.09a3.88 3.88 0 0 1 .1-.92 1.97 1.97 0 0 1 .322-.662c.149-.2.346-.426.592-.68.18-.184.344-.356.492-.516.153-.164.276-.34.37-.527.093-.191.14-.42.14-.686 0-.269-.049-.502-.146-.697a1.002 1.002 0 0 0-.422-.451 1.364 1.364 0 0 0-.686-.158c-.226 0-.441.041-.644.123a1.107 1.107 0 0 0-.492.381c-.125.168-.19.388-.194.662h-1.084c.008-.442.117-.821.329-1.137.214-.316.503-.559.867-.726a2.87 2.87 0 0 1 1.218-.252c.497 0 .918.089 1.266.269.352.18.62.438.803.774.183.332.275.726.275 1.183 0 .352-.072.676-.217.973-.14.293-.322.568-.545.826a9.601 9.601 0 0 1-.709.738c-.214.199-.359.424-.433.674-.074.25-.112.52-.112.809zm-1.136 1.857c0-.176.055-.324.164-.445.11-.121.267-.182.474-.182.211 0 .372.061.48.182.11.121.165.269.165.445a.626.626 0 0 1-.164.434c-.11.121-.27.181-.48.181-.208 0-.366-.06-.475-.181a.626.626 0 0 1-.164-.434z" fill="#000"/>
        <rect x="45.5" y="183.5" width="79" height="27" rx="2.5" fill="#fff" stroke="#4FCE5D"/>
        <path d="M82.336 199.14a.941.941 0 0 0-.059-.342.642.642 0 0 0-.205-.283 1.792 1.792 0 0 0-.425-.259 5.91 5.91 0 0 0-.708-.264 8.966 8.966 0 0 1-.917-.351 3.83 3.83 0 0 1-.762-.454 2.052 2.052 0 0 1-.518-.611 1.682 1.682 0 0 1-.185-.805c0-.297.065-.565.195-.806.13-.244.313-.453.547-.625.234-.176.51-.311.83-.405a3.737 3.737 0 0 1 1.06-.142c.524 0 .98.094 1.372.283.39.189.693.448.908.777.218.328.327.704.327 1.127H82.34c0-.208-.044-.39-.132-.546a.89.89 0 0 0-.39-.376c-.173-.092-.391-.137-.655-.137-.254 0-.465.039-.635.117a.843.843 0 0 0-.38.308.756.756 0 0 0-.127.429c0 .121.029.23.087.328.062.097.153.188.274.273.12.085.268.164.444.239.176.075.38.148.61.22.388.117.728.249 1.021.395.296.147.544.311.742.494.199.182.349.389.45.62.1.231.15.493.15.786 0 .309-.06.586-.18.83s-.294.451-.522.62c-.228.169-.5.298-.816.386a3.945 3.945 0 0 1-1.06.132c-.35 0-.698-.046-1.04-.137a3.143 3.143 0 0 1-.932-.425 2.145 2.145 0 0 1-.664-.723c-.166-.292-.25-.639-.25-1.04h1.47c0 .222.035.409.103.562a.935.935 0 0 0 .288.371c.127.094.277.163.45.205.175.042.367.064.576.064.254 0 .462-.036.625-.108a.768.768 0 0 0 .488-.727zm7.202-2.354v1.143h-3.71v-1.143h3.71zm-3.276-2.895V201h-1.465v-7.109h1.465zm4.321 0V201h-1.46v-7.109h1.46zm4.253 1.215L92.902 201h-1.557l2.641-7.109h.992l-.142 1.215zM96.442 201l-1.938-5.894-.156-1.215h1L98.006 201h-1.563zm-.087-2.646v1.147H92.6v-1.147h3.755zm2.31-4.463h2.65c.544 0 1.011.081 1.402.244.394.163.696.403.908.722.212.319.317.712.317 1.177 0 .381-.065.708-.195.982-.127.27-.308.496-.542.678a2.806 2.806 0 0 1-.815.43l-.464.244h-2.305l-.01-1.142h1.714c.257 0 .471-.046.64-.137a.898.898 0 0 0 .381-.381c.088-.163.132-.352.132-.566 0-.228-.043-.425-.127-.591a.863.863 0 0 0-.386-.381 1.425 1.425 0 0 0-.65-.132h-1.186V201h-1.465v-7.109zm3.974 7.109-1.621-3.169 1.547-.01 1.641 3.111V201h-1.567zm7.202-1.143V201h-3.784v-1.143h3.784zm-3.306-5.966V201h-1.465v-7.109h1.465zm2.813 2.895v1.113h-3.291v-1.113h3.291zm.488-2.895v1.147h-3.779v-1.147h3.779z" fill="#4FCE5D"/>
        <g clip-path="url(#k6rgudj6ab)">
            <g clip-path="url(#02qfed5t9c)">
                <path d="M63.5 190c-4.136 0-7.5 3.366-7.5 7.5a7.448 7.448 0 0 0 1.09 3.889l-1.074 3.218a.294.294 0 0 0 .072.306.302.302 0 0 0 .213.086.286.286 0 0 0 .096-.014l3.216-1.071a7.505 7.505 0 0 0 11.389-6.414c0-4.137-3.365-7.5-7.502-7.5zm4.8 10.536a1.005 1.005 0 0 1-.294.705l-.78.771a.989.989 0 0 1-.696.29h-.039c-4.19-.18-7.61-3.6-7.79-7.788a.983.983 0 0 1 .289-.739l.771-.78c.188-.187.442-.293.707-.294h.29a.993.993 0 0 1 .93.645l.683 1.815a1 1 0 0 1-.21 1.035l-.281.296a.395.395 0 0 0-.042.494c.349.504 1.093 1.455 2.178 2.185a.39.39 0 0 0 .486-.045l.306-.289a.994.994 0 0 1 1.032-.21l1.815.684a1.002 1.002 0 0 1 .645.93v.295z" fill="#4FCE5D"/>
            </g>
        </g>
        <rect x="137" y="183" width="90" height="28" rx="3" fill="#FC88B0"/>
        <path d="M154.635 192.891h2.651c.544 0 1.011.081 1.402.244.393.163.696.403.908.722.211.319.317.712.317 1.177 0 .381-.065.708-.195.982-.127.27-.308.496-.542.678a2.799 2.799 0 0 1-.816.43l-.464.244h-2.304l-.01-1.142h1.714c.257 0 .47-.046.64-.137a.89.89 0 0 0 .38-.381c.088-.163.132-.352.132-.566 0-.228-.042-.425-.127-.591a.855.855 0 0 0-.385-.381 1.425 1.425 0 0 0-.65-.132H156.1V200h-1.465v-7.109zm3.974 7.109-1.621-3.169 1.548-.01 1.641 3.111V200h-1.568zm7.203-1.143V200h-3.785v-1.143h3.785zm-3.306-5.966V200h-1.465v-7.109h1.465zm2.812 2.895v1.113h-3.291v-1.113h3.291zm.489-2.895v1.147h-3.78v-1.147h3.78zm3.75 1.215L167.623 200h-1.558l2.642-7.109h.991l-.141 1.215zm1.606 5.894-1.938-5.894-.157-1.215h1.001l2.657 7.109h-1.563zm-.088-2.646v1.147h-3.755v-1.147h3.755zm4.492 2.646h-1.547l.009-1.143h1.538c.384 0 .708-.086.972-.258.264-.176.462-.432.596-.767.136-.335.205-.741.205-1.216v-.346c0-.365-.039-.686-.117-.962a1.93 1.93 0 0 0-.337-.699 1.414 1.414 0 0 0-.552-.424 1.818 1.818 0 0 0-.752-.147h-1.592v-1.147h1.592c.475 0 .91.081 1.304.244.397.159.74.389 1.03.688.29.3.513.658.669 1.074.159.414.239.874.239 1.382v.337c0 .505-.08.965-.239 1.382a3.062 3.062 0 0 1-.669 1.074c-.286.296-.63.526-1.03.689a3.52 3.52 0 0 1-1.319.239zm-.717-7.109V200h-1.465v-7.109h1.465zm8.198 0h1.24l1.826 5.219 1.826-5.219h1.241L186.612 200h-.996l-2.568-7.109zm-.669 0h1.235l.225 5.088V200h-1.46v-7.109zm6.235 0h1.24V200h-1.464v-2.021l.224-5.088zm8.365 3.388v.337c0 .541-.074 1.026-.22 1.455-.147.43-.353.796-.62 1.099a2.688 2.688 0 0 1-.957.688c-.368.16-.777.24-1.226.24-.446 0-.854-.08-1.226-.24a2.76 2.76 0 0 1-.957-.688 3.208 3.208 0 0 1-.629-1.099 4.474 4.474 0 0 1-.22-1.455v-.337c0-.543.073-1.028.22-1.455.146-.429.353-.796.62-1.098a2.72 2.72 0 0 1 .957-.694 3.077 3.077 0 0 1 1.225-.239c.45 0 .858.08 1.226.239.371.16.69.391.957.694.27.302.478.669.625 1.098.15.427.225.912.225 1.455zm-1.48.337v-.346c0-.378-.034-.71-.103-.997a2.158 2.158 0 0 0-.302-.722 1.305 1.305 0 0 0-.489-.44 1.392 1.392 0 0 0-.659-.151c-.247 0-.467.05-.659.151-.189.098-.35.244-.483.44a2.22 2.22 0 0 0-.298.722 4.347 4.347 0 0 0-.103.997v.346c0 .375.035.707.103.996a2.2 2.2 0 0 0 .303.728c.133.195.296.343.488.444.192.101.412.152.659.152.247 0 .467-.051.659-.152s.353-.249.484-.444c.13-.199.229-.441.297-.728.069-.289.103-.621.103-.996zm2.534-3.725h2.652c.543 0 1.01.081 1.401.244.394.163.697.403.908.722.212.319.318.712.318 1.177 0 .381-.066.708-.196.982-.127.27-.307.496-.542.678a2.806 2.806 0 0 1-.815.43l-.464.244h-2.305l-.01-1.142h1.714c.257 0 .471-.046.64-.137a.898.898 0 0 0 .381-.381c.088-.163.132-.352.132-.566 0-.228-.043-.425-.127-.591a.858.858 0 0 0-.386-.381 1.423 1.423 0 0 0-.649-.132h-1.187V200h-1.465v-7.109zm3.975 7.109-1.621-3.169 1.548-.01 1.64 3.111V200h-1.567zm7.202-1.143V200h-3.784v-1.143h3.784zm-3.306-5.966V200h-1.465v-7.109h1.465zm2.813 2.895v1.113h-3.291v-1.113h3.291zm.488-2.895v1.147h-3.779v-1.147h3.779z" fill="#fff"/>
        <path d="M78.438 29.469V38h-1.471v-8.531h1.47zM81.466 29v.826c0 .246-.045.502-.135.768a3.277 3.277 0 0 1-.363.756 2.968 2.968 0 0 1-.54.62l-.708-.445c.16-.242.289-.498.386-.767.102-.274.153-.58.153-.92V29h1.207zm2.543 3.95V38h-1.412v-6.34h1.33l.082 1.29zm-.229 1.646-.48-.006c0-.438.055-.842.164-1.213.11-.371.27-.693.48-.967.211-.277.473-.49.786-.638a2.496 2.496 0 0 1 1.095-.229c.29 0 .553.043.791.129.242.082.451.213.627.393.18.18.317.41.41.69.098.282.147.622.147 1.02V38h-1.412v-4.102c0-.308-.047-.55-.141-.726a.78.78 0 0 0-.392-.375 1.422 1.422 0 0 0-.604-.117c-.266 0-.492.05-.68.152a1.28 1.28 0 0 0-.45.416 1.864 1.864 0 0 0-.259.61 3.19 3.19 0 0 0-.082.738zm3.932-.375-.662.146c0-.383.052-.744.158-1.084.11-.343.268-.644.475-.902.21-.262.47-.467.779-.615a2.418 2.418 0 0 1 1.06-.223c.325 0 .614.045.868.135.257.086.476.222.656.41.18.187.316.431.41.732.094.297.14.657.14 1.078V38H90.18v-4.107c0-.32-.047-.569-.14-.745a.73.73 0 0 0-.388-.363 1.557 1.557 0 0 0-.603-.105c-.219 0-.412.04-.58.123-.164.078-.303.19-.416.334-.114.14-.2.303-.258.486a2.085 2.085 0 0 0-.082.598zm13.91-4.752v.773L98.213 38h-1.488l3.404-7.406h-4.418v-1.125h5.912zm4.143 2.191v1.031h-3.575v-1.03h3.575zm-2.543-1.553h1.412v6.141c0 .195.027.346.082.451.058.102.138.17.24.205.102.035.221.053.357.053.098 0 .192-.006.282-.017.09-.012.162-.024.216-.036l.006 1.078a3.605 3.605 0 0 1-.41.094 3.011 3.011 0 0 1-.527.041c-.324 0-.611-.056-.861-.17a1.265 1.265 0 0 1-.586-.568c-.141-.262-.211-.61-.211-1.043v-6.229zM108.25 29v9h-1.406v-9h1.406zm-.246 5.596-.457-.006c.004-.438.064-.842.182-1.213.121-.371.289-.693.503-.967a2.244 2.244 0 0 1 1.799-.867c.313 0 .594.043.844.129.254.086.473.224.656.416.184.187.323.434.416.738.098.301.147.668.147 1.102V38h-1.418v-4.084c0-.305-.045-.547-.135-.726a.782.782 0 0 0-.381-.387 1.393 1.393 0 0 0-.615-.123c-.254 0-.479.05-.674.152a1.41 1.41 0 0 0-.48.416 1.909 1.909 0 0 0-.293.61 2.79 2.79 0 0 0-.094.738zm9.92-1.647V38h-1.412v-6.34h1.33l.082 1.29zm-.229 1.647-.48-.006c0-.438.055-.842.164-1.213.109-.371.269-.693.48-.967a2.11 2.11 0 0 1 .786-.638 2.492 2.492 0 0 1 1.095-.229c.289 0 .553.043.791.129.242.082.451.213.627.393.18.18.317.41.41.69.098.282.147.622.147 1.02V38h-1.412v-4.102c0-.308-.047-.55-.141-.726a.782.782 0 0 0-.392-.375 1.426 1.426 0 0 0-.604-.117c-.266 0-.492.05-.68.152-.183.102-.334.24-.451.416a1.876 1.876 0 0 0-.258.61 3.23 3.23 0 0 0-.082.738zm3.932-.375-.662.146c0-.383.053-.744.158-1.084.109-.343.268-.644.475-.902.211-.262.47-.467.779-.615a2.42 2.42 0 0 1 1.061-.223c.324 0 .613.045.867.135.257.086.476.222.656.41.18.187.316.431.41.732.094.297.141.657.141 1.078V38h-1.418v-4.107c0-.32-.047-.569-.141-.745a.73.73 0 0 0-.387-.363 1.556 1.556 0 0 0-.603-.105c-.219 0-.412.04-.58.123a1.15 1.15 0 0 0-.416.334c-.113.14-.199.303-.258.486a2.075 2.075 0 0 0-.082.598zm5.068.68v-.135c0-.457.067-.881.2-1.272.132-.394.324-.736.574-1.025.254-.293.562-.52.926-.68a3.011 3.011 0 0 1 1.242-.246c.465 0 .879.082 1.242.246.367.16.678.387.932.68.253.289.447.63.58 1.025.132.39.199.815.199 1.272v.134c0 .457-.067.881-.199 1.272-.133.39-.327.732-.58 1.025a2.693 2.693 0 0 1-.926.68c-.364.16-.776.24-1.237.24-.464 0-.88-.08-1.248-.24a2.69 2.69 0 0 1-.925-.68 3.027 3.027 0 0 1-.58-1.025c-.133-.39-.2-.815-.2-1.272zm1.412-.135v.134c0 .285.03.555.088.809.059.254.151.476.276.668.125.191.285.342.48.451.195.11.428.164.697.164.262 0 .489-.054.68-.164.195-.11.356-.26.481-.451.125-.192.216-.414.275-.668a3.4 3.4 0 0 0 .094-.809v-.134a3.3 3.3 0 0 0-.094-.797 2.053 2.053 0 0 0-.281-.674 1.34 1.34 0 0 0-1.166-.627c-.266 0-.496.057-.692.17-.191.11-.349.262-.474.457s-.217.42-.276.674c-.058.25-.088.515-.088.797zm7.067-1.752V38h-1.412v-6.34h1.33l.082 1.354zm-.252 1.582-.457-.006a4.13 4.13 0 0 1 .187-1.237 3.04 3.04 0 0 1 .516-.966c.223-.27.488-.477.797-.621a2.345 2.345 0 0 1 1.031-.223c.305 0 .58.043.826.129.25.082.463.217.639.404.18.188.316.432.41.733.094.297.141.662.141 1.095V38h-1.418v-4.102c0-.304-.045-.545-.135-.72a.754.754 0 0 0-.381-.381 1.428 1.428 0 0 0-.615-.117 1.371 1.371 0 0 0-1.137.568 2.03 2.03 0 0 0-.299.61c-.07.23-.105.476-.105.738zm8.437-2.936v1.031h-3.574v-1.03h3.574zm-2.543-1.553h1.413v6.141c0 .195.027.346.082.451.058.102.138.17.24.205.101.035.22.053.357.053.098 0 .192-.006.281-.017.09-.012.163-.024.217-.036l.006 1.078a3.605 3.605 0 0 1-.41.094 3.011 3.011 0 0 1-.527.041c-.325 0-.612-.056-.862-.17a1.27 1.27 0 0 1-.586-.568c-.14-.262-.211-.61-.211-1.043v-6.229zM145.844 29v9h-1.406v-9h1.406zm-.246 5.596-.457-.006c.004-.438.064-.842.181-1.213.121-.371.289-.693.504-.967a2.25 2.25 0 0 1 1.799-.867c.313 0 .594.043.844.129.254.086.472.224.656.416.184.187.322.434.416.738.098.301.147.668.147 1.102V38h-1.418v-4.084c0-.305-.045-.547-.135-.726a.782.782 0 0 0-.381-.387 1.393 1.393 0 0 0-.615-.123c-.254 0-.479.05-.674.152-.192.102-.352.24-.481.416a1.93 1.93 0 0 0-.293.61c-.062.23-.093.476-.093.738zm9.076 1.687a.702.702 0 0 0-.106-.38c-.07-.118-.205-.223-.404-.317-.195-.094-.484-.18-.867-.258a7.477 7.477 0 0 1-.926-.264 2.943 2.943 0 0 1-.715-.38 1.612 1.612 0 0 1-.463-.528 1.464 1.464 0 0 1-.164-.703c0-.258.057-.502.17-.732.113-.23.276-.434.487-.61.21-.175.466-.314.767-.416a3.218 3.218 0 0 1 1.02-.152c.531 0 .986.09 1.365.27.383.175.676.415.879.72.203.301.304.64.304 1.02h-1.412a.9.9 0 0 0-.129-.469.897.897 0 0 0-.375-.357 1.279 1.279 0 0 0-.632-.141c-.243 0-.444.039-.604.117a.825.825 0 0 0-.351.293.742.742 0 0 0-.053.686.673.673 0 0 0 .211.228c.097.067.23.13.398.188.172.058.387.115.645.17.484.101.9.232 1.248.392.351.156.621.36.808.61.188.246.282.558.282.937 0 .281-.061.54-.182.773a1.75 1.75 0 0 1-.516.604 2.586 2.586 0 0 1-.814.393c-.313.093-.664.14-1.055.14-.574 0-1.06-.101-1.459-.304-.398-.208-.701-.471-.908-.791a1.874 1.874 0 0 1-.305-1.008h1.366c.015.261.087.47.216.627.133.152.297.263.493.334.199.066.404.1.615.1.254 0 .467-.034.638-.1a.92.92 0 0 0 .393-.282.67.67 0 0 0 .135-.41z" fill="#FC88B0"/>
        <path d="M76.54 48.9v-.134c0-.457.066-.881.198-1.272a3.02 3.02 0 0 1 .575-1.025c.25-.293.552-.52.908-.68a2.819 2.819 0 0 1 1.195-.246c.445 0 .846.082 1.201.246.36.16.664.387.914.68.254.289.447.63.58 1.025.133.39.2.815.2 1.272v.134c0 .457-.067.881-.2 1.272-.133.39-.326.732-.58 1.025-.25.29-.553.516-.908.68-.352.16-.75.24-1.195.24-.446 0-.846-.08-1.201-.24a2.72 2.72 0 0 1-.915-.68 3.098 3.098 0 0 1-.574-1.025c-.132-.39-.199-.815-.199-1.272zm1.083-.134v.134c0 .317.037.616.111.897.075.277.186.523.334.738.153.215.342.385.569.51.226.121.49.182.79.182.298 0 .557-.061.78-.182.227-.125.414-.295.563-.51a2.36 2.36 0 0 0 .334-.738c.078-.281.117-.58.117-.897v-.134c0-.313-.04-.608-.118-.885a2.28 2.28 0 0 0-.34-.744 1.617 1.617 0 0 0-.562-.516 1.578 1.578 0 0 0-.785-.187c-.297 0-.559.062-.785.187-.223.125-.41.297-.563.516-.148.215-.26.463-.334.744a3.41 3.41 0 0 0-.111.885zM84.848 43v9h-1.09v-9h1.09zm5.736 7.77V43h1.09v9h-.996l-.094-1.23zm-4.266-1.87v-.123c0-.484.059-.924.176-1.318.121-.399.291-.74.51-1.025.223-.286.486-.504.79-.657a2.25 2.25 0 0 1 1.032-.234c.399 0 .746.07 1.043.21.3.138.555.339.762.604.21.262.377.578.498.95.121.37.205.79.252 1.26v.538a5.523 5.523 0 0 1-.252 1.254 2.958 2.958 0 0 1-.498.95 2.085 2.085 0 0 1-.762.603c-.3.137-.652.205-1.055.205a2.18 2.18 0 0 1-1.02-.24 2.407 2.407 0 0 1-.79-.674 3.285 3.285 0 0 1-.51-1.02 4.492 4.492 0 0 1-.176-1.283zm1.09-.123v.123c0 .317.031.614.094.891.066.277.168.522.305.732.136.211.31.377.521.498.211.118.463.176.756.176.36 0 .654-.076.885-.228.234-.153.422-.354.562-.604.14-.25.25-.521.328-.814v-1.412a3.132 3.132 0 0 0-.205-.621 1.913 1.913 0 0 0-.34-.54 1.47 1.47 0 0 0-.51-.38 1.65 1.65 0 0 0-.708-.141 1.5 1.5 0 0 0-.768.188c-.21.12-.385.289-.521.503a2.331 2.331 0 0 0-.305.739 4.045 4.045 0 0 0-.094.89zm9.451-5.308h1.096l2.795 6.955 2.789-6.955h1.102L101.172 52h-.856l-3.457-8.531zm-.357 0h.967l.158 5.203V52h-1.125v-8.531zm7.523 0h.967V52h-1.125v-3.328l.158-5.203zm6.668 7.066V45.66h1.09V52h-1.037l-.053-1.465zm.205-1.336.452-.011c0 .421-.045.812-.135 1.171a2.524 2.524 0 0 1-.422.926 1.99 1.99 0 0 1-.768.615c-.316.145-.701.217-1.154.217-.309 0-.592-.045-.85-.135a1.706 1.706 0 0 1-.656-.416 1.893 1.893 0 0 1-.427-.732 3.52 3.52 0 0 1-.147-1.084v-4.09h1.084v4.102c0 .285.031.521.094.709.066.183.154.33.263.44.114.105.239.179.375.222.141.043.286.064.434.064.461 0 .826-.088 1.096-.263.269-.18.463-.42.58-.721.121-.305.181-.643.181-1.014zm3.616-2.28V52h-1.09v-6.34h1.031l.059 1.26zm-.223 1.67-.504-.017c.004-.433.061-.834.17-1.2.109-.372.272-.694.486-.968.215-.273.483-.484.803-.633.32-.152.692-.228 1.113-.228.297 0 .571.043.821.129.25.082.466.213.65.393.184.18.326.41.428.69.101.282.152.622.152 1.02V52h-1.084v-4.172c0-.332-.056-.598-.17-.797a.968.968 0 0 0-.468-.433 1.696 1.696 0 0 0-.715-.141c-.321 0-.588.057-.803.17-.215.113-.387.27-.516.469-.129.199-.222.427-.281.685a3.814 3.814 0 0 0-.082.809zm4.107-.597-.726.223c.004-.348.06-.682.17-1.002.113-.32.275-.606.486-.856a2.31 2.31 0 0 1 .791-.591c.313-.149.67-.223 1.072-.223.34 0 .641.045.903.135.265.09.488.228.668.416.183.183.322.42.416.709.093.289.14.633.14 1.031V52h-1.089v-4.178c0-.355-.057-.63-.17-.826a.889.889 0 0 0-.469-.416 1.874 1.874 0 0 0-.715-.123 1.54 1.54 0 0 0-.633.123 1.314 1.314 0 0 0-.463.34c-.125.14-.22.303-.287.486a1.82 1.82 0 0 0-.094.586zm6.639-1.072V52h-1.09v-6.34h1.032l.058 1.26zm-.223 1.67-.503-.018c.003-.433.06-.834.169-1.2a2.86 2.86 0 0 1 .487-.968c.215-.273.482-.484.803-.633.32-.152.691-.228 1.113-.228.297 0 .57.043.82.129.25.082.467.213.651.393.183.18.326.41.427.69.102.282.153.622.153 1.02V52h-1.084v-4.172c0-.332-.057-.598-.17-.797a.975.975 0 0 0-.469-.433 1.69 1.69 0 0 0-.715-.141c-.32 0-.588.057-.803.17a1.36 1.36 0 0 0-.515.469 2.12 2.12 0 0 0-.282.685 3.88 3.88 0 0 0-.082.809zm4.108-.598-.727.223c.004-.348.061-.682.17-1.002.114-.32.276-.606.487-.856a2.29 2.29 0 0 1 .791-.591 2.466 2.466 0 0 1 1.072-.223c.34 0 .64.045.902.135.266.09.488.228.668.416.184.183.322.42.416.709.094.289.141.633.141 1.031V52h-1.09v-4.178c0-.355-.057-.63-.17-.826a.885.885 0 0 0-.469-.416 1.87 1.87 0 0 0-.715-.123c-.238 0-.449.041-.632.123a1.305 1.305 0 0 0-.463.34c-.125.14-.221.303-.287.486a1.793 1.793 0 0 0-.094.586zm7.342 3.352 1.763-5.684h1.161l-2.543 7.319a4.043 4.043 0 0 1-.235.503 2.436 2.436 0 0 1-.363.522 1.733 1.733 0 0 1-.539.398 1.621 1.621 0 0 1-.744.158 3.222 3.222 0 0 1-.61-.094l-.006-.878c.032.004.081.008.147.012a1.742 1.742 0 0 0 .773-.088.948.948 0 0 0 .434-.322c.121-.149.225-.354.31-.616l.452-1.23zm-1.295-5.684 1.646 4.922.281 1.143-.779.398-2.332-6.463h1.184z" fill="#000"/>
    </g>
    <defs>
        <clipPath id="k6rgudj6ab">
            <path fill="#fff" transform="translate(56 190)" d="M0 0h15v15H0z"/>
        </clipPath>
        <clipPath id="02qfed5t9c">
            <path fill="#fff" transform="translate(56 190)" d="M0 0h15v14.999H0z"/>
        </clipPath>
        <filter id="jq01wg3wra" x="0" y="0" width="249" height="233" filterUnits="userSpaceOnUse" color-interpolation-filters="sRGB">
            <feFlood flood-opacity="0" result="BackgroundImageFix"/>
            <feBlend in="SourceGraphic" in2="BackgroundImageFix" result="shape"/>
            <feGaussianBlur stdDeviation="3.5" result="effect1_foregroundBlur_4223_12243"/>
        </filter>
    </defs>
</svg>
