<svg width="19" height="18" viewBox="0 0 19 18" fill="none" xmlns="http://www.w3.org/2000/svg">
    <path fill-rule="evenodd" clip-rule="evenodd" d="M5.792 6.203a1.33 1.33 0 0 1-1.327-1.327c0-.73.596-1.327 1.327-1.327.73 0 1.327.597 1.327 1.327s-.577 1.327-1.327 1.327zm0-3.615a2.281 2.281 0 0 0-2.289 2.288 2.294 2.294 0 0 0 2.289 2.288c1.25 0 2.288-1.019 2.288-2.288 0-1.27-1.019-2.288-2.288-2.288zm11.268 7.826-3.5-3.519a.501.501 0 0 0-.673 0L7.734 12.03 4.907 9.203a.464.464 0 0 0-.673 0l-2.98 2.961V2.03c0-.596.48-1.058 1.057-1.058h13.692c.596 0 1.057.481 1.057 1.058v8.384zm0 5.308c0 .596-.48 1.057-1.057 1.057H2.311c-.596 0-1.057-.48-1.057-1.057V13.53l3.307-3.308 2.827 2.827c.192.192.5.192.673 0l5.153-5.134 3.846 3.845v3.962zM16.003.012H2.311C1.196.011.292.914.292 2.03v13.692c0 1.115.904 2.02 2.02 2.02h13.691a2.019 2.019 0 0 0 2.019-2.02V2.03A2.019 2.019 0 0 0 16.003.011z" fill="#4A4A4A"/>
</svg>
