<svg width="24" height="24" viewBox="0 0 24 24" fill="none" xmlns="http://www.w3.org/2000/svg">
    <path stroke="#fff" stroke-opacity=".01" stroke-width=".5" d="M1 .75h22.4v22.4H1z"/>
    <path d="m17.25 12.953-.42-.369.42.37zm.25-5.451-.4.39.4-.39zm-2.655-1.036.02.56-.02-.56zM13 7.11l-.33-.452.33.452zm-.108.083.347.44-.348-.44zm-.688.703.438.349.007-.009-.445-.34zM12.2 7.9l-.445.34.436.57.447-.56-.438-.35zm-.8-.79.33-.453-.33.452zm-4.5.39-.402-.39.402.39zm.25 5.452.421-.369-.421.37zm3.125 2.777.351-.436-.351.436zm.003.002-.352.436.015.012.016.011.321-.458zm.002.002.352-.436-.015-.012-.016-.01-.32.458zm1.433 1.167.357-.431-.357.43zm.491.173v.56h.004l-.004-.56zm.483-.173.357.431-.357-.431zm1.435-1.169.352.436-.352-.436zm3.818-5.684c0 .838-.322 1.635-1.11 2.536l.842.738c.916-1.046 1.388-2.095 1.388-3.274h-1.12zm-.84-2.155c.535.55.84 1.31.84 2.155h1.12c0-1.117-.405-2.164-1.158-2.937l-.803.782zm-2.12-.87c.83 0 1.577.313 2.12.87l.802-.782c-.763-.783-1.805-1.207-2.922-1.207v1.12zm-.114.003c.037-.002.076-.002.114-.002v-1.12c-.052 0-.105 0-.157.002l.043 1.12zm-1.535.536c.46-.337.973-.515 1.535-.536l-.043-1.12a3.838 3.838 0 0 0-2.153.752l.661.904zm-.092.07.092-.07-.661-.904a4.203 4.203 0 0 0-.126.096l.695.878zm-.59.604a3.41 3.41 0 0 1 .59-.604l-.695-.878c-.29.23-.552.498-.784.801l.889.681zm-.011.014.004-.005-.876-.698-.004.005.876.698zm-1.57-.688c.251.183.481.41.687.68l.89-.68a4.49 4.49 0 0 0-.914-.904l-.662.904zM9.42 7.024c.609 0 1.159.18 1.649.538l.661-.904a3.845 3.845 0 0 0-2.31-.755v1.12zm-2.12.869c.543-.557 1.291-.87 2.12-.87v-1.12c-1.117 0-2.159.425-2.922 1.208l.803.782zm-.84 2.155c0-.844.305-1.605.84-2.155l-.802-.782c-.753.773-1.158 1.82-1.158 2.937h1.12zm1.111 2.536c-.79-.9-1.111-1.698-1.111-2.536H5.34c0 1.179.472 2.228 1.388 3.274l.843-.738zm3.055 2.71c-1.28-1.033-2.332-1.884-3.055-2.71l-.843.738c.801.915 1.94 1.832 3.195 2.844l.703-.872zm.004.003-.004-.003-.703.872.003.002.704-.871zm-.029-.022-.002-.001-.642.917.002.002.642-.918zm1.469 1.194c-.512-.423-1.005-.822-1.438-1.17l-.703.87c.433.35.92.744 1.427 1.163l.714-.863zm.13.045a.204.204 0 0 1-.13-.044l-.715.862c.238.197.539.302.845.302v-1.12zm.004 0H12.2v1.12h.004v-1.12zm.126-.044a.205.205 0 0 1-.129.044l.007 1.12c.303-.002.6-.106.836-.302l-.714-.862zm1.44-1.174c-.433.35-.927.749-1.44 1.174l.714.862c.507-.42.996-.814 1.43-1.164l-.703-.872zm3.06-2.712c-.725.827-1.777 1.678-3.06 2.712l.704.872c1.256-1.013 2.396-1.93 3.198-2.846l-.843-.738z" fill="#000"/>
</svg>
