<svg width="15" height="15" viewBox="0 0 15 15" fill="none" xmlns="http://www.w3.org/2000/svg">
    <g clip-path="url(#yckez2nvea)">
        <g clip-path="url(#neefx6l00b)">
            <path d="M7.5 0C3.364 0 0 3.366 0 7.5a7.45 7.45 0 0 0 1.09 3.89L.016 14.606a.296.296 0 0 0 .285.392.272.272 0 0 0 .096-.014l3.216-1.071a7.49 7.49 0 0 0 3.89 1.085c4.136 0 7.499-3.362 7.499-7.5C15.002 3.364 11.637 0 7.5 0zm4.8 10.536a1.006 1.006 0 0 1-.294.705l-.78.771a.986.986 0 0 1-.696.29h-.039c-4.19-.18-7.61-3.6-7.79-7.788a.985.985 0 0 1 .289-.74l.771-.78c.188-.186.442-.292.707-.293h.29a.996.996 0 0 1 .93.645L6.37 5.16a1.003 1.003 0 0 1-.21 1.035l-.281.296a.394.394 0 0 0-.042.494c.349.504 1.093 1.455 2.178 2.185a.394.394 0 0 0 .486-.045l.306-.289a.997.997 0 0 1 1.032-.21l1.815.684a.999.999 0 0 1 .645.93v.295z" fill="#4FCE5D"/>
        </g>
    </g>
    <defs>
        <clipPath id="yckez2nvea">
            <path fill="#fff" d="M0 0h15v15H0z"/>
        </clipPath>
        <clipPath id="neefx6l00b">
            <path fill="#fff" d="M0 0h15v14.999H0z"/>
        </clipPath>
    </defs>
</svg>
