<svg xmlns="http://www.w3.org/2000/svg" width="78" height="76" viewBox="0 0 78 76">
    <g fill="none" fill-rule="nonzero">
        <path fill="#FFF" d="M1 2h76v73H1z"/>
        <path fill="#DEE4F5" d="M77.601 75.494h-9.635c-1.596 0-3.225-.05-4.763 0-.782 0-1.538.085-2.336.085h-2.42c-1.662-.06-3.283-.144-4.871-.135l-4.722.126-9.46.278c-1.588 0-3.168.11-4.78.085-1.613-.026-3.234-.11-4.847-.144-1.613-.033-3.2 0-4.78.05-1.58.051-3.167.144-4.763.161a730.502 730.502 0 0 1-9.627-.22l-2.394-.066H1.029a.837.837 0 0 1-.832-.843c0-3.076-.324-6.143-.141-9.218.155-1.531.219-3.07.191-4.61-.05-.766-.141-1.541-.15-2.308-.008-.767 0-1.534 0-2.3 0-6.152.175-12.303.134-18.446V33.38c0-1.533.14-3.075.207-4.617.067-1.542.158-3.067.108-4.61-.05-1.541-.2-3.066-.19-4.608 0-3.076.249-6.143.307-9.219.058-3.075 0-6.15-.067-9.226 0-.253.2-.46.45-.464 3.158-.076 6.325 0 9.484 0 3.16 0 6.318 0 9.486.093 1.58 0 3.159.042 4.738 0l4.739-.152C32.66.442 35.819.375 38.978.3c3.16-.076 6.318-.101 9.485-.152 3.168-.05 6.318.177 9.477.22 3.16.042 6.327-.135 9.486-.203C70.585.097 73.752-.114 76.91.08h.066c.506.025.91.432.94.944 0 .783-.05 1.559-.058 2.334l.05 2.325.091 4.669c0 1.558 0 3.109-.1 4.65-.1 1.543-.216 3.068-.224 4.618 0 3.101.133 6.244-.075 9.27a38.611 38.611 0 0 0 .091 4.684 45.88 45.88 0 0 1 0 4.66c-.133 3.05-.207 6.109-.216 9.21-.008 3.1.142 6.294 0 9.268-.141 2.975 0 6.185.067 9.362.05 1.6 0 3.143.05 4.71.05 1.567.025 3.177.008 4.71zm-1.413-1.432v-4.575-4.534c.05-2.991.15-5.965-.05-9.142-.083-1.576-.158-3.135-.141-4.643l.091-4.5c0-3.033-.15-6.15-.308-9.268a31.506 31.506 0 0 1 0-4.525c.18-1.496.23-3.004.15-4.508a42.702 42.702 0 0 1-.133-4.593c0-1.5.191-2.99.191-4.516v-2.292l-.133-2.3c-.1-1.534-.1-3.05-.075-4.567l.142-4.55.066-2.275V.982l.948.969c-6.326.27-12.644-.329-18.97-.152-1.58 0-3.16.16-4.74.244-.789.06-1.579.085-2.368.11-.79.025-1.58.042-2.37 0-3.167 0-6.326.042-9.485-.06-3.159-.1-6.318-.075-9.485-.277a77.344 77.344 0 0 0-9.477-.169c-6.327.27-12.645.405-18.97.32l.955-.943c-.116 3.075-.34 6.15-.208 9.269.133 3.117.482 6.142.49 9.218 0 1.542-.282 3.075-.415 4.609-.05.769-.05 1.54 0 2.309 0 .766.083 1.533.15 2.3.182 1.533.282 3.074.299 4.618.042 1.533-.042 3.067-.066 4.609l-.117 4.55v4.609l-.066 9.269v2.3c0 .767-.133 1.542-.2 2.309a37.108 37.108 0 0 0 .117 4.61c.14 3.075-.2 6.142-.233 9.217l-.699-.707c6.285.126 12.57.067 18.846.05l4.714.05c1.571 0 3.15 0 4.697-.058l4.647-.16h4.705l9.477.168 4.739.076c1.57 0 3.092-.084 4.613-.143 1.522-.06 3.101 0 4.714 0h4.705c3.018-.026 6.152-.017 9.253-.034z"/>
        <g fill="#DEE4F5" opacity=".5">
            <path d="M7.747 7.605h62.045v60.576H7.747z"/>
            <path d="M70.257 68.663H58.512c-1.262 0-2.556.084-3.893 0-1.336-.084-2.664-.076-3.96-.068l-3.859.085-7.752.186c-2.565.101-5.221 0-7.844 0-1.312-.051-2.606 0-3.901 0l-3.901.093c-5.238-.06-10.459-.245-15.655-.212a.576.576 0 0 1-.413-.167.596.596 0 0 1-.176-.415c0-2.535-.2-5.069-.092-7.603.107-1.259.151-2.522.133-3.785 0-.633-.1-1.267-.1-1.892v-1.841c0-5.069.117-10.137.092-15.147-.025-5.009.473-10.094.083-15.146l.2-7.602c.049-2.535 0-5.069-.042-7.603a.31.31 0 0 1 .298-.313c2.582-.05 5.163 0 7.753 0s5.171 0 7.752.06h3.877l3.884-.102c2.582-.084 5.171-.135 7.753-.186 2.581-.05 5.171-.059 7.752-.093 2.582-.033 5.172.093 7.761.127 2.59.034 5.171-.076 7.753-.118 2.581-.042 5.17-.16 7.752-.06h.05a.68.68 0 0 1 .64.693v3.819l.049 3.826c0 1.276 0 2.534-.066 3.81a117.572 117.572 0 0 0-.141 3.793c0 2.534.083 5.068 0 7.603-.059 1.25 0 2.534.05 3.826.05 1.293 0 2.535 0 3.827a254.665 254.665 0 0 0-.142 7.56c-.008 2.543.092 5.145 0 7.603-.091 2.458 0 5.069.042 7.67.041 2.602 0 5.212.008 7.772zm-.938-.955v-7.5c0-2.434.083-4.943 0-7.52a119.48 119.48 0 0 1 0-7.517c.075-2.45-.091-5.069-.2-7.603a34.93 34.93 0 0 1 0-3.734c.118-1.235.151-2.477.1-3.717-.207-2.534 0-4.992 0-7.492s-.273-5.069-.149-7.527l.083-3.75v-3.76l.64.65c-2.582.102-5.164 0-7.753 0-2.59 0-5.171-.1-7.753-.067-2.581.034-5.171.279-7.76.253-2.59-.025-5.172 0-7.753 0-2.582 0-5.171-.067-7.753-.194l-3.884-.143c-1.287-.043-2.582 0-3.877 0-5.17.185-10.342.27-15.505.21l.664-.675c-.083 2.534-.232 5.068-.14 7.603.09 2.534.323 5.068.323 7.602 0 1.267-.183 2.534-.266 3.785a27.414 27.414 0 0 0 .083 3.784A60.77 60.77 0 0 1 8.57 38c-.125 5.068-.058 10.095-.125 15.146v1.892c0 .625-.091 1.259-.133 1.893a35.994 35.994 0 0 0 .075 3.784c.083 2.534-.124 5.068-.15 7.603l-.464-.473c5.138.084 10.284 0 15.422 0 2.573 0 5.171.093 7.711 0s5.08-.17 7.67-.093l7.752.118 3.876.05 3.794-.084c1.253-.05 2.548 0 3.86 0h3.85c2.5-.127 5.056-.118 7.612-.127z"/>
        </g>
        <rect width="19" height="21" x="15" y="19" fill="#DEE4F5" rx="9.5"/>
        <path fill="#DEE4F5" d="M24.562 40a9.94 9.94 0 0 1-7.122-3.09 9.297 9.297 0 0 1-2.002-3.473c-.099-.326-.165-.66-.248-.985-.082-.326-.099-.66-.149-.994L15 30.448v-.952c0-.643 0-1.294.058-1.97 0-.335.107-.669.157-.994l.265-.969a9.253 9.253 0 0 1 2.01-3.407 9.426 9.426 0 0 1 3.16-2.321A10.069 10.069 0 0 1 24.47 19a9.232 9.232 0 0 1 3.813.835 9.925 9.925 0 0 1 3.21 2.246 9.546 9.546 0 0 1 2.01 3.415c.107.31.182.643.264.96.083.318.116.66.174.994l.058.994v.977c0 .643 0 1.294-.074 1.962-.042.334-.108.668-.158.994l-.231.943a9.099 9.099 0 0 1-1.944 3.457c-.218.25-.456.481-.711.693a6.842 6.842 0 0 1-.778.618 9.02 9.02 0 0 1-1.696 1.077 9.535 9.535 0 0 1-3.846.835zm0-.66a8.48 8.48 0 0 0 6.502-3.039A9.398 9.398 0 0 0 32.9 33.12c.359-1.207.507-2.467.438-3.724v-1.913c-.05-.308-.074-.617-.132-.926a6.615 6.615 0 0 0-.257-.902 8.943 8.943 0 0 0-1.902-3.19 8.675 8.675 0 0 0-2.953-2.213 9.245 9.245 0 0 0-3.615-.65h-.918a8.691 8.691 0 0 0-.918.133 9.04 9.04 0 0 0-1.737.593 8.508 8.508 0 0 0-2.961 2.179c-.778.961-1.4 2.04-1.845 3.198a8.597 8.597 0 0 0-.256.935c0 .31-.1.618-.133.927-.066.618-.099 1.26-.115 1.912a8.877 8.877 0 0 0 2.349 6.964 8.426 8.426 0 0 0 6.617 2.914v-.017z"/>
        <path fill="#FFF" d="M24 30h24v27H24z"/>
        <path fill="#DEE4F5" d="M53.115 41.157L45 57l18-.584-9.403-15.284a.274.274 0 0 0-.482.025z"/>
        <path fill="#DEE4F5" d="M52.893 41.658c-.694 1.339-1.37 2.686-2.098 4.007l-.948 2.059-1.015 2.016c-1.421 2.669-2.784 5.355-4.23 8.006l-.28-.44c1.523 0 3.055 0 4.586-.077 1.531-.076 3.054 0 4.577-.11 1.523-.11 3.055-.076 4.578-.135 1.523-.06 3.054-.195 4.577-.254l-.229.432-2.538-3.99c-.846-1.34-1.582-2.712-2.436-4.033-.415-.67-.847-1.33-1.244-2.008-.398-.678-.77-1.373-1.202-2.033l-1.252-1.991-.634-1-.297-.457.085.008zm-.592-.305a.626.626 0 0 1 .482-.347.6.6 0 0 1 .559.228c.16.23.228.348.338.534l.626 1 1.252 2c.406.677.846 1.312 1.286 1.982.44.669.846 1.347 1.219 2.016l2.42 4.05a55.38 55.38 0 0 0 1.192 2.033l1.27 1.99a.322.322 0 0 1-.102.458.279.279 0 0 1-.16.051l-2.294.11c-.761.068-1.531 0-2.293 0-1.522.076-3.045.246-4.577.263-1.531.017-3.054.11-4.577.118-1.523.009-3.054.22-4.586.144a.364.364 0 0 1-.347-.38.39.39 0 0 1 0-.17c.381-.653.762-1.305 1.092-1.983.33-.677.744-1.313 1.1-1.974.744-1.296 1.336-2.685 2.039-4.04l.99-2.026 1.074-2.007c.618-1.356 1.328-2.703 1.997-4.05z"/>
    </g>
</svg>
