<svg width="160" height="46" viewBox="0 0 160 46" fill="none" xmlns="http://www.w3.org/2000/svg">
    <rect width="160" height="46" rx="4" fill="#fff"/>
    <path d="M68.052 25.392h-2.844L64.704 27h-1.656l2.94-8.28h1.284L70.224 27h-1.668l-.504-1.608zm-.42-1.308-1.008-3.18-.996 3.18h2.004zm8.45-5.364c.84 0 1.5.232 1.98.696.487.464.731 1.1.731 1.908 0 .768-.244 1.384-.732 1.848-.48.456-1.14.684-1.98.684h-1.524V27h-1.572v-8.28h3.096zm-.073 3.756c.376 0 .672-.1.888-.3.216-.2.324-.484.324-.852 0-.4-.108-.704-.324-.912-.208-.216-.504-.324-.888-.324h-1.452v2.388h1.452zm8.88-3.756c.84 0 1.5.232 1.98.696.489.464.733 1.1.733 1.908 0 .768-.244 1.384-.732 1.848-.48.456-1.14.684-1.98.684h-1.524V27h-1.572v-8.28h3.096zm-.071 3.756c.376 0 .672-.1.888-.3.216-.2.324-.484.324-.852 0-.4-.108-.704-.324-.912-.208-.216-.504-.324-.888-.324h-1.452v2.388h1.452zm8.28 4.596c-.888 0-1.58-.22-2.076-.66-.496-.448-.772-1.092-.828-1.932h1.489c.055.456.2.78.431.972.24.184.593.276 1.056.276.888 0 1.332-.364 1.332-1.092 0-.328-.087-.576-.263-.744-.177-.176-.457-.296-.84-.36l-.78-.132c-1.496-.248-2.245-1.016-2.245-2.304 0-.768.252-1.376.757-1.824.511-.448 1.188-.672 2.028-.672.816 0 1.46.216 1.931.648.48.432.752 1.04.816 1.824h-1.512c-.023-.4-.14-.692-.348-.876-.208-.184-.512-.276-.912-.276-.407 0-.716.096-.924.288-.207.184-.311.44-.311.768 0 .288.091.516.275.684.184.168.472.288.864.36l.877.156c1.423.256 2.135 1.032 2.135 2.328 0 .832-.267 1.468-.803 1.908-.528.44-1.245.66-2.148.66zm11.251-6.984h-2.112V27h-1.584v-6.912h-2.112V18.72h5.808v1.368zm5.274 7.008c-1.976 0-2.964-1.1-2.964-3.3V21.9c0-2.2 1.004-3.3 3.012-3.3.92 0 1.648.26 2.184.78.536.512.804 1.352.804 2.52v1.896c0 1.168-.276 2.012-.828 2.532-.544.512-1.28.768-2.208.768zm.048-1.404c.48 0 .836-.152 1.068-.456.232-.312.348-.8.348-1.464v-1.788c0-.704-.116-1.212-.348-1.524-.232-.32-.588-.48-1.068-.48-.504 0-.868.156-1.092.468-.224.304-.336.816-.336 1.536v1.788c0 .68.112 1.172.336 1.476.224.296.588.444 1.092.444zm8.922-2.052h-1.176V27h-1.572v-8.28h3.144c.808 0 1.452.224 1.932.672.48.44.72 1.04.72 1.8 0 .544-.128 1.004-.384 1.38-.248.376-.608.652-1.08.828l1.8 3.6h-1.812l-1.572-3.36zm-1.176-1.308h1.488c.368 0 .652-.096.852-.288.208-.2.312-.484.312-.852 0-.336-.104-.604-.312-.804-.208-.2-.492-.3-.852-.3h-1.488v2.244zm9.078-2.244v2.052h3.144v1.368h-3.144v2.124h3.684V27h-5.256v-8.28h5.256v1.368h-3.684z" fill="#000"/>
    <g clip-path="url(#2tosjr0cua)">
        <path fill="#fff" d="M29 12h18.278v22.194H29z"/>
        <path d="M29 24.648v-1.232c.016-.046.043-.092.045-.139a7.042 7.042 0 0 1 .516-2.327c1.22-3.026 4.773-4.474 7.347-2.967.907.53 1.854.47 2.79.007a8.32 8.32 0 0 1 1.141-.476c1.135-.364 2.245-.143 3.359.153 1.093.29 1.872.959 2.502 1.88-.167.146-.329.273-.473.416-.448.438-.988.821-1.313 1.336-.967 1.53-.952 4.067.67 5.75.49.51 1.043.929 1.694 1.196-.356 1.18-.862 2.263-1.586 3.235-.473.634-.973 1.25-1.49 1.85-.951 1.1-2.841.967-3.667.416a2.48 2.48 0 0 0-.695-.322 4.626 4.626 0 0 0-2.336-.044c-.353.084-.672.3-1.02.42-.433.151-.88.266-1.32.395h-.623c-.77-.163-1.353-.598-1.865-1.175-1.754-1.972-2.952-4.21-3.43-6.805-.097-.52-.165-1.045-.246-1.567zM42.628 12.002c.128 1.581-.454 2.876-1.552 3.945-.677.659-1.506 1.08-2.475 1.17-.51.049-.53.048-.508-.443.086-1.872 1.023-3.225 2.643-4.13.74-.412 1.346-.561 1.892-.542z" fill="#000"/>
    </g>
    <defs>
        <clipPath id="2tosjr0cua">
            <path fill="#fff" transform="translate(29 12)" d="M0 0h18.278v22.194H0z"/>
        </clipPath>
    </defs>
</svg>
