<svg width="38" height="28" viewBox="0 0 38 28" fill="none" xmlns="http://www.w3.org/2000/svg">
    <path d="m27.227 7.966-.572-.191-1.213 3.633a.302.302 0 0 0 .288.399h3.632V11.2H26.15l1.078-3.234zM6.66 21.492a1.516 1.516 0 1 0-.003 3.032 1.516 1.516 0 0 0 .003-3.032zm0 2.422a.908.908 0 1 1 .001-1.816.908.908 0 0 1-.001 1.816zM29.06 21.492a1.516 1.516 0 1 0-.003 3.032 1.516 1.516 0 0 0 .003-3.032zm0 2.422a.908.908 0 1 1 .001-1.817.908.908 0 0 1-.001 1.817z" fill="#212F60"/>
    <path d="m37.368 13.654-4.72-2.361-1.782-6.83a.303.303 0 0 0-.293-.225H22.4V.303A.304.304 0 0 0 22.098 0H.303A.303.303 0 0 0 0 .303v21.795a.302.302 0 0 0 .303.302H2.47a4.238 4.238 0 1 0 8.379 0H24.87a4.239 4.239 0 1 0 8.38 0h3.983a.302.302 0 0 0 .303-.302v-8.173a.302.302 0 0 0-.167-.27v-.001zM9.081.605h4.238v6.473l-1.984-.993a.3.3 0 0 0-.27 0l-1.984.993V.605zM6.66 26.638a3.635 3.635 0 1 1-.007-7.27 3.635 3.635 0 0 1 .007 7.27zm15.135-4.843H10.719a4.235 4.235 0 0 0-8.119 0H.605V.605h7.87v6.962a.302.302 0 0 0 .439.273l2.283-1.145L13.48 7.84a.302.302 0 0 0 .438-.273V.605h7.877v21.19zm7.265 4.843a3.637 3.637 0 1 1-.009-7.273 3.637 3.637 0 0 1 .009 7.273zm7.87-4.843h-3.81a4.234 4.234 0 0 0-8.12 0h-2.6V4.843h7.94l1.755 6.736a.305.305 0 0 0 .159.194l4.676 2.338v7.684z" fill="#212F60"/>
</svg>
