<svg width="36" height="30" viewBox="0 0 36 30" fill="none" xmlns="http://www.w3.org/2000/svg">
    <path d="M3.554 23.212H15.05v.997H3.554v-.997zM16.885 23.212h3.552v.997h-3.552v-.997z" fill="#212F60"/>
    <path d="m35.445 15.389-5.07-2.555v-2.358A1.873 1.873 0 0 0 28.5 8.601h-1.796l-1.916-6.424a1.68 1.68 0 0 0-.838-1.037c-.4-.2-.798-.24-1.198-.08L1.12 8.643A1.693 1.693 0 0 0 .002 10.32v15.965a1.874 1.874 0 0 0 1.876 1.876h24.706c.758.439 1.64.758 2.594.998.08 0 .16.04.24.04a.504.504 0 0 0 .239-.04C35.924 27.722 36 22.134 36 22.094v-5.827a.957.957 0 0 0-.559-.878h.004zm-12.616.878v.518H1v-2.637h24.867l-2.518 1.28c-.319.12-.519.48-.519.839zm.28-14.21c.2-.08.32 0 .439.04a.619.619 0 0 1 .32.439l1.835 6.107H4.153l18.956-6.585zM.999 10.52v-.12c.04-.439.4-.758.879-.758H28.54a.886.886 0 0 1 .878.878v1.953a.902.902 0 0 0-.44.12l-1.117.559H1v-2.632zm.879 16.644A.887.887 0 0 1 1 26.285v-8.502h21.832v5.07c0 .08.04.119.04.199a.146.146 0 0 0 .04.12c0 .08.04.16.04.279 0 .04 0 .04.04.08.04.12.079.24.119.399.004.03.018.058.04.08.04.12.08.2.12.32 0 .039.04.079.04.159.04.08.08.2.12.28.04.039.04.119.08.159a.997.997 0 0 0 .159.28c.042.043.07.099.08.159.04.08.12.2.16.28.04.04.079.119.119.159.08.12.16.2.24.32l.12.119c.12.17.254.33.398.479.12.12.24.28.4.399H1.88l-.002.04zm33.128-5.069c0 .2-.08 4.83-5.588 6.107h-.04a7.777 7.777 0 0 1-2.435-.959c-3.073-1.836-3.153-5.028-3.153-5.148v-5.787l5.588-2.837 5.588 2.796v5.828h.04z" fill="#212F60"/>
    <path d="m28.18 22.254-1.838-1.8-.679.72 2.515 2.474 5.149-4.867-.679-.718-4.467 4.19z" fill="#212F60"/>
</svg>
