<svg width="160" height="46" viewBox="0 0 160 46" fill="none" xmlns="http://www.w3.org/2000/svg">
    <rect width="160" height="46" rx="4" fill="#fff"/>
    <g clip-path="url(#m4vforw97a)" fill="#000">
        <path d="m34.866 22.485-2.474 2.968c-1.42 1.705-2.83 3.418-4.266 5.108-.293.345-.756.447-1.21.404-.418-.04-.67-.317-.788-.697a2.258 2.258 0 0 1-.116-.645c-.006-4.211-.005-8.422-.005-12.632 0-.543-.018-1.085.007-1.627.011-.26.069-.53.162-.774.18-.473.577-.66 1.084-.564.427.081.774.257 1.061.606 1.782 2.164 3.584 4.313 5.38 6.466.38.456.764.91 1.165 1.387zM38.278 25.086c-.705-.84-1.39-1.656-2.07-2.477-.04-.049-.063-.17-.031-.208.695-.842 1.398-1.678 2.118-2.535.932.542 1.87 1.048 2.764 1.62.67.43.786 1.105.35 1.631a2.24 2.24 0 0 1-.562.496c-.843.5-1.7.978-2.57 1.473zM29.781 15.302l7.528 4.253c-.68.817-1.344 1.612-2.03 2.434l-5.54-6.638.042-.05zM35.28 22.981l2.021 2.425-7.517 4.267a2.974 2.974 0 0 1-.045-.05l5.54-6.642z"/>
    </g>
    <path d="M61.832 17.72c.84 0 1.5.232 1.98.696.488.464.732 1.1.732 1.908 0 .768-.244 1.384-.732 1.848-.48.456-1.14.684-1.98.684h-1.524V26h-1.572v-8.28h3.096zm-.072 3.756c.376 0 .672-.1.888-.3.216-.2.324-.484.324-.852 0-.4-.108-.704-.324-.912-.208-.216-.504-.324-.888-.324h-1.452v2.388h1.452zm5.784-3.756h1.572v6.912h3.624V26h-5.196v-8.28zm12.532 6.672h-2.844L76.728 26h-1.656l2.94-8.28h1.284L82.248 26H80.58l-.504-1.608zm-.42-1.308-1.008-3.18-.996 3.18h2.004zm7.716-.492V26H85.8v-3.396l-2.412-4.884h1.716l1.476 3.36 1.476-3.36h1.728l-2.412 4.872zm7.665 3.48c-.889 0-1.58-.22-2.077-.66-.495-.448-.771-1.092-.828-1.932h1.489c.056.456.2.78.431.972.24.184.592.276 1.056.276.888 0 1.332-.364 1.332-1.092 0-.328-.087-.576-.263-.744-.177-.176-.457-.296-.84-.36l-.78-.132c-1.496-.248-2.245-1.016-2.245-2.304 0-.768.252-1.376.757-1.824.511-.448 1.188-.672 2.028-.672.816 0 1.46.216 1.931.648.48.432.752 1.04.816 1.824h-1.511c-.025-.4-.14-.692-.349-.876-.207-.184-.511-.276-.911-.276-.408 0-.716.096-.924.288-.209.184-.313.44-.313.768 0 .288.093.516.276.684.184.168.473.288.865.36l.876.156c1.424.256 2.136 1.032 2.136 2.328 0 .832-.269 1.468-.805 1.908-.528.44-1.243.66-2.147.66zm11.25-6.984h-2.112V26h-1.584v-6.912h-2.112V17.72h5.808v1.368zm5.274 7.008c-1.976 0-2.964-1.1-2.964-3.3V20.9c0-2.2 1.004-3.3 3.012-3.3.92 0 1.648.26 2.184.78.536.512.804 1.352.804 2.52v1.896c0 1.168-.276 2.012-.828 2.532-.544.512-1.28.768-2.208.768zm.048-1.404c.48 0 .836-.152 1.068-.456.232-.312.348-.8.348-1.464v-1.788c0-.704-.116-1.212-.348-1.524-.232-.32-.588-.48-1.068-.48-.504 0-.868.156-1.092.468-.224.304-.336.816-.336 1.536v1.788c0 .68.112 1.172.336 1.476.224.296.588.444 1.092.444zm8.922-2.052h-1.176V26h-1.572v-8.28h3.144c.808 0 1.452.224 1.932.672.48.44.72 1.04.72 1.8 0 .544-.128 1.004-.384 1.38-.248.376-.608.652-1.08.828l1.8 3.6h-1.812l-1.572-3.36zm-1.176-1.308h1.488c.368 0 .652-.096.852-.288.208-.2.312-.484.312-.852 0-.336-.104-.604-.312-.804-.208-.2-.492-.3-.852-.3h-1.488v2.244zm9.078-2.244v2.052h3.144v1.368h-3.144v2.124h3.684V26h-5.256v-8.28h5.256v1.368h-3.684z" fill="#000"/>
    <defs>
        <clipPath id="m4vforw97a">
            <path fill="#fff" transform="translate(26 14)" d="M0 0h15.667v16.972H0z"/>
        </clipPath>
    </defs>
</svg>
