<svg width="32" height="32" viewBox="0 0 32 32" fill="none" xmlns="http://www.w3.org/2000/svg">
    <circle cx="16" cy="16" r="13.333" fill="#1DA1F2"/>
    <path fill-rule="evenodd" clip-rule="evenodd" d="M24 10.872a6.55 6.55 0 0 1-1.885.517 3.291 3.291 0 0 0 1.443-1.816 6.574 6.574 0 0 1-2.084.797 3.283 3.283 0 0 0-5.593 2.994 9.317 9.317 0 0 1-6.766-3.43 3.265 3.265 0 0 0-.445 1.65 3.28 3.28 0 0 0 1.46 2.732 3.272 3.272 0 0 1-1.487-.41v.04a3.286 3.286 0 0 0 2.633 3.22 3.296 3.296 0 0 1-1.483.056 3.287 3.287 0 0 0 3.067 2.28A6.588 6.588 0 0 1 8 20.861a9.292 9.292 0 0 0 5.032 1.475c6.037 0 9.339-5.002 9.339-9.339 0-.142-.003-.284-.01-.425a6.686 6.686 0 0 0 1.639-1.7z" fill="#fff"/>
</svg>
