<svg width="32" height="32" viewBox="0 0 32 32" fill="none" xmlns="http://www.w3.org/2000/svg">
    <circle cx="16" cy="16" r="13.333" fill="red"/>
    <path fill-rule="evenodd" clip-rule="evenodd" d="M23.534 10.919c.266.266.457.597.556.96.566 2.278.435 5.876.01 8.242a2.154 2.154 0 0 1-1.516 1.516c-1.33.363-6.681.363-6.681.363s-5.352 0-6.681-.363a2.154 2.154 0 0 1-1.517-1.516c-.57-2.268-.413-5.868-.011-8.23a2.154 2.154 0 0 1 1.517-1.517c1.33-.363 6.68-.374 6.68-.374s5.353 0 6.682.363c.363.098.694.29.96.556zM18.628 16l-4.44 2.571V13.43L18.629 16z" fill="#fff"/>
</svg>
