<svg xmlns="http://www.w3.org/2000/svg" width="10" height="10" viewBox="0 0 10 10">
    <path fill="#000" fill-rule="nonzero" d="M9.677 5.578a1.64 1.64 0 0 0 .319-.977c0-.412-.165-.77-.494-1.074a1.67 1.67 0 0 0-1.17-.456H7.185c.208-.396.313-.78.313-1.152 0-.467-.076-.84-.228-1.115a1.38 1.38 0 0 0-.663-.61A2.38 2.38 0 0 0 5.625 0a.862.862 0 0 0-.585.222 1.42 1.42 0 0 0-.403.648 7.892 7.892 0 0 0-.198.759c-.05.241-.127.412-.231.512-.213.212-.445.468-.696.768-.438.524-.735.834-.891.93H.839a.838.838 0 0 0-.589.225.712.712 0 0 0-.244.543v3.838c0 .212.082.393.244.543.163.15.36.225.589.225h1.873c.095 0 .394.08.897.24.534.172 1.003.303 1.408.393.406.09.817.135 1.233.135h.839c.611 0 1.103-.161 1.476-.483.373-.322.557-.76.553-1.317.26-.307.39-.663.39-1.067 0-.088-.006-.174-.02-.258a1.62 1.62 0 0 0 .248-.864c0-.144-.02-.282-.059-.414zm-8.13 2.754a.417.417 0 0 1-.292.114.418.418 0 0 1-.293-.114.355.355 0 0 1 0-.54.417.417 0 0 1 .293-.114c.113 0 .21.038.293.114a.355.355 0 0 1 0 .54zm7.477-3.24c-.093.185-.21.279-.348.283.065.068.12.163.162.285.044.122.065.232.065.333 0 .275-.114.513-.344.713a.78.78 0 0 1 .117.414.947.947 0 0 1-.114.44.692.692 0 0 1-.309.316c.022.12.033.231.033.335 0 .668-.417 1.002-1.25 1.002H6.25c-.568 0-1.31-.146-2.224-.438a9.653 9.653 0 0 0-.894-.273 3.164 3.164 0 0 0-.215-.039 1.419 1.419 0 0 0-.205-.018h-.208V4.607h.208c.07 0 .146-.018.23-.054a1.11 1.11 0 0 0 .261-.162 6.54 6.54 0 0 0 .25-.213c.079-.07.165-.158.26-.264a12.12 12.12 0 0 0 .43-.5 10.704 10.704 0 0 1 .65-.726c.178-.172.307-.391.387-.657.08-.266.147-.517.198-.753.052-.236.135-.406.248-.51.416 0 .693.094.832.282.139.188.208.478.208.87 0 .236-.104.556-.312.962-.208.406-.312.725-.312.957H8.33c.217 0 .41.077.579.23.169.155.254.334.254.538 0 .14-.047.302-.14.486z" opacity=".7"/>
</svg>
