<svg xmlns="http://www.w3.org/2000/svg" width="23" height="18" viewBox="0 0 23 18">
    <path fill="#000" fill-rule="nonzero" d="M22.667 14.183h-.717v-4.13c0-.484-.142-.958-.405-1.36l-1.798-2.741a2.346 2.346 0 0 0-1.957-1.07h-2.787a.6.6 0 0 0-.59.608v8.693H9.848c.434.386.732.924.818 1.531h4.812c.171-1.206 1.181-2.14 2.4-2.14 1.22 0 2.227.934 2.398 2.14h2.391a.3.3 0 0 0 .296-.303v-.924a.3.3 0 0 0-.296-.304zm-2.94-4.942h-3.679a.299.299 0 0 1-.295-.304v-2.1a.3.3 0 0 1 .295-.305h2.24c.098 0 .187.049.243.128l1.438 2.103c.136.201-.003.478-.242.478zm-1.848 4.942c-1.016 0-1.837.848-1.837 1.893 0 1.043.82 1.89 1.837 1.89 1.012 0 1.836-.847 1.836-1.89 0-1.045-.824-1.893-1.836-1.893zm0 2.838c-.508 0-.919-.425-.919-.945 0-.523.41-.945.919-.945.507 0 .918.422.918.945 0 .52-.41.945-.918.945zM2.568 14.183a.3.3 0 0 0-.296.303v.925a.3.3 0 0 0 .296.303h3.3a2.529 2.529 0 0 1 .815-1.531H2.568zm5.698 0c-1.013 0-1.837.848-1.837 1.893 0 1.043.824 1.89 1.837 1.89 1.015 0 1.836-.847 1.836-1.89 0-1.045-.82-1.893-1.836-1.893zm0 2.838c-.508 0-.918-.425-.918-.945 0-.523.41-.945.918-.945.507 0 .918.422.918.945 0 .52-.41.945-.918.945zm4.416-14.023H9.261a5.24 5.24 0 0 1 .256 1.632c0 2.869-2.267 5.203-5.054 5.203-.508 0-1-.079-1.464-.222v3.359a.3.3 0 0 0 .295.304h9.979a.3.3 0 0 0 .295-.304V3.91a.898.898 0 0 0-.886-.912zM4.464.033C1.998.033 0 2.091 0 4.63c0 2.538 1.998 4.595 4.464 4.595 2.465 0 4.464-2.057 4.464-4.595S6.929.033 4.464.033zm0 8.145c-1.904 0-3.448-1.589-3.448-3.55 0-1.96 1.544-3.549 3.448-3.549s3.448 1.59 3.448 3.55c0 1.96-1.544 3.55-3.448 3.55zm1.317-2.8a.435.435 0 0 1-.116-.015l-1.439-.4a.454.454 0 0 1-.327-.44v-2.28a.45.45 0 0 1 .443-.455.45.45 0 0 1 .443.456v1.93l1.11.308a.457.457 0 0 1 .313.56.445.445 0 0 1-.427.336z"/>
</svg>
