<svg xmlns="http://www.w3.org/2000/svg" width="20" height="20" viewBox="0 0 20 20">
    <g fill="none" fill-rule="nonzero">
        <path fill="#F75757" d="M18.548 9.721l.853-2.224a.608.608 0 0 0-.185-.69l-1.849-1.5-.374-2.353a.607.607 0 0 0-.506-.504l-2.353-.375-1.498-1.85a.608.608 0 0 0-.69-.185L9.722.894 7.496.041a.606.606 0 0 0-.689.185l-1.499 1.85-2.353.375a.609.609 0 0 0-.505.504l-.374 2.354-1.85 1.499a.608.608 0 0 0-.185.689L.894 9.72.04 11.946a.606.606 0 0 0 .185.69l1.85 1.497.374 2.354c.042.26.245.464.505.505l2.353.374 1.5 1.85c.166.206.444.28.69.184l2.223-.851 2.225.853a.61.61 0 0 0 .69-.186l1.498-1.85 2.353-.374a.609.609 0 0 0 .506-.505l.374-2.354 1.85-1.498a.606.606 0 0 0 .184-.689l-.853-2.225z"/>
        <g fill="#FAFAFA">
            <path d="M7.898 8.506a1.825 1.825 0 0 1-1.822-1.822c0-1.005.818-1.823 1.822-1.823 1.005 0 1.823.818 1.823 1.823a1.825 1.825 0 0 1-1.823 1.822zm0-2.43a.608.608 0 1 0 0 1.216.608.608 0 0 0 0-1.216zM11.544 14.582a1.825 1.825 0 0 1-1.823-1.823c0-1.005.818-1.823 1.823-1.823 1.004 0 1.822.818 1.822 1.823a1.825 1.825 0 0 1-1.822 1.823zm0-2.43a.61.61 0 0 0-.608.607.61.61 0 0 0 .608.608.61.61 0 0 0 .607-.608.61.61 0 0 0-.607-.607zM6.683 14.582a.607.607 0 0 1-.493-.961l6.075-8.506a.607.607 0 1 1 .99.706l-6.076 8.505a.61.61 0 0 1-.496.256z"/>
        </g>
    </g>
</svg>
