<svg width="16" height="13" viewBox="0 0 16 13" fill="none" xmlns="http://www.w3.org/2000/svg">
    <path fill="#FF9797" d="M0 3h16v10H0z"/>
    <path d="M15.886 2.4 13.6.114A.357.357 0 0 0 13.333 0H2.667A.358.358 0 0 0 2.4.114L.114 2.4A.358.358 0 0 0 0 2.667v9.904a.381.381 0 0 0 .381.381h15.238a.381.381 0 0 0 .381-.38V2.666a.358.358 0 0 0-.114-.267zM2.826.762h10.347l1.524 1.524H1.303L2.827.762zM15.239 12.19H.762V3.049h14.476v9.143z" fill="#FF9797"/>
    <path d="M12.571 8.381a2.286 2.286 0 0 1-2.285 2.286H5.333a.381.381 0 1 1 0-.762h4.953a1.524 1.524 0 0 0 0-3.048h-5.22l1.243.823a.389.389 0 0 1 .106.533.396.396 0 0 1-.533.107L3.596 6.796a.389.389 0 0 1 0-.64l2.286-1.524a.385.385 0 0 1 .427.64l-1.242.823h5.219a2.286 2.286 0 0 1 2.285 2.286z" fill="#fff"/>
</svg>
