<svg xmlns="http://www.w3.org/2000/svg" width="11" height="14" viewBox="0 0 11 14">
    <g fill="none" fill-rule="evenodd">
        <g fill="#000" fill-rule="nonzero">
            <g>
                <g>
                    <path d="M5.303 0C2.379 0 0 2.392 0 5.332c0 1.164.366 2.269 1.058 3.197l3.918 5.306c.01.012.025.017.036.029.196.21.478.158.618-.03 1.128-1.513 3.196-4.34 3.991-5.407v-.001l.006-.007c.64-.905.98-1.972.98-3.087C10.606 2.392 8.226 0 5.302 0zm0 8.209c-1.574 0-2.86-1.294-2.86-2.877 0-1.583 1.286-2.877 2.86-2.877 1.574 0 2.86 1.294 2.86 2.877 0 1.583-1.286 2.877-2.86 2.877z" transform="translate(-19 -169) translate(6 133) translate(13 36)"/>
                </g>
            </g>
        </g>
    </g>
</svg>
