<svg width="61" height="9" viewBox="0 0 61 9" fill="var(--color1)" xmlns="http://www.w3.org/2000/svg">
    <path d="m5.171 7.044.504 1.608h1.668L4.391.372H3.107l-2.94 8.28h1.656l.504-1.608h2.844zm-.42-1.308H2.747l.996-3.18 1.008 3.18zM8.105.372v8.28h2.868c.924 0 1.656-.252 2.208-.768.54-.516.816-1.356.816-2.532V3.66c0-1.164-.276-2.004-.804-2.52-.528-.504-1.26-.768-2.172-.768H8.105zm2.904 6.912H9.677V1.74h1.332c.48 0 .828.168 1.068.48.228.312.348.828.348 1.524V5.34c0 .672-.12 1.164-.36 1.476-.24.312-.588.468-1.056.468zM15.183.372v8.28h2.868c.924 0 1.656-.252 2.208-.768.54-.516.816-1.356.816-2.532V3.66c0-1.164-.276-2.004-.804-2.52-.528-.504-1.26-.768-2.172-.768h-2.916zm2.904 6.912h-1.332V1.74h1.332c.48 0 .828.168 1.068.48.228.312.348.828.348 1.524V5.34c0 .672-.12 1.164-.36 1.476-.24.312-.588.468-1.056.468zM29.929 1.74V.372h-5.808V1.74h2.112v6.912h1.584V1.74h2.112zm.31 3.708c0 2.208.984 3.3 2.964 3.3.924 0 1.656-.252 2.208-.768.552-.516.828-1.356.828-2.532V3.552c0-1.164-.276-2.004-.804-2.52-.54-.516-1.272-.78-2.184-.78-2.016 0-3.012 1.104-3.012 3.3v1.896zm4.08 1.44c-.24.312-.588.456-1.068.456-.504 0-.876-.144-1.092-.444-.228-.3-.336-.792-.336-1.476V3.636c0-.72.108-1.224.336-1.536.216-.312.588-.468 1.092-.468.48 0 .828.168 1.068.48.228.312.348.828.348 1.524v1.788c0 .672-.12 1.152-.348 1.464zm11.416-1.764a1.898 1.898 0 0 0-.852-.732c.324-.156.576-.384.768-.696a2 2 0 0 0 .276-1.02c0-.732-.228-1.296-.684-1.704-.456-.396-1.08-.6-1.884-.6h-3.192v8.28h3.324c.792 0 1.416-.204 1.872-.624.444-.408.672-.996.672-1.752 0-.444-.108-.828-.3-1.152zM41.74 1.74h1.5c.36 0 .624.096.816.264.192.18.288.432.288.768 0 .312-.096.564-.288.732-.192.168-.456.252-.816.252h-1.5V1.74zm2.436 5.256c-.192.192-.468.288-.84.288H41.74v-2.16h1.596c.372 0 .648.096.84.276.192.192.288.444.288.768 0 .36-.096.636-.288.828zm7.508.048.504 1.608h1.668L50.903.372H49.62l-2.94 8.28h1.656l.504-1.608h2.844zm-.42-1.308H49.26l.996-3.18 1.008 3.18zm2.94-.288c0 2.208.997 3.3 3.013 3.3 1.992 0 2.988-1.056 2.988-3.18V4.152h-3v1.296h1.464v.396c0 .504-.12.888-.336 1.128-.216.252-.564.372-1.044.372-.516 0-.9-.144-1.14-.444-.24-.3-.36-.792-.36-1.476V3.636c0-.708.108-1.224.336-1.536.228-.312.6-.468 1.104-.468.444 0 .792.132 1.032.372.24.252.372.564.372.936v.084h1.572V2.94c0-.84-.276-1.488-.804-1.968-.54-.48-1.26-.72-2.16-.72-2.028 0-3.036 1.104-3.036 3.3v1.896z" fill="var(--color1)"/>
</svg>
