<svg xmlns="http://www.w3.org/2000/svg" width="119" height="110" viewBox="0 0 119 110">
    <g fill="#FBCFCF" fill-rule="nonzero" opacity=".5">
        <path d="M123.895 66.967v50.4c0 4.636-3.64 8.4-8.106 8.4H75.263v-58.8h48.632zM8.901 33.53h25.966c-1.863-1.305-3.463-2.602-4.58-3.765-6.622-6.83-6.622-17.95 0-24.78 6.435-6.655 17.645-6.638 24.07 0 3.562 3.663 13 18.58 11.695 28.546h.59c-1.296-9.965 8.142-24.883 11.695-28.547 6.434-6.637 17.644-6.637 24.07 0 6.615 6.832 6.615 17.95.008 24.781-1.124 1.163-2.724 2.46-4.587 3.766h25.965c4.522 0 8.207 3.782 8.207 8.423v12.634c0 2.325-1.838 4.212-4.103 4.212H74.554V41.954H58.14V58.8H4.798c-2.265 0-4.103-1.887-4.103-4.212V41.954c0-4.641 3.676-8.423 8.206-8.423zm66.137-.277s.345.278 1.518.278c5.671 0 16.496-6.048 20.033-9.704 3.438-3.555 3.438-9.35 0-12.904-1.666-1.719-3.874-2.662-6.221-2.662-2.339 0-4.546.943-6.212 2.662-5.532 5.71-11.03 20.3-9.118 22.33zm-18.891.278c1.165 0 1.51-.27 1.51-.278 1.912-2.03-3.587-16.62-9.118-22.33-3.307-3.428-9.093-3.445-12.433 0-3.447 3.554-3.447 9.35 0 12.904 3.537 3.656 14.362 9.704 20.04 9.704zM57.432 66.967v58.8H16.905c-4.474 0-8.105-3.764-8.105-8.4v-50.4h48.632z"/>
    </g>
</svg>
