<svg width="20px" height="20px" viewBox="0 0 31 31" version="1.1">
        <title> Articles </title>
        <g id="Page-1" stroke="none" strokeWidth="1" fill="none" fillRule="evenodd">
          <g id="Artboard" transform="translate(-303.000000, -102.000000)" fill="#000">
            <g id="Articles" transform="translate(303.000000, 102.000000)">
              <path
                d="M13.8555556,16.3033333 C14.3166667,16.3033333 14.6888889,16.6755556 14.6888889,17.1352778 L14.6888889,26.1575 C14.6888889,26.6172222 14.3166667,26.9908333 13.8555556,26.9908333 L4.83333333,26.9908333 C4.37361111,26.9908333 4,26.6172222 4,26.1575 L4,17.1352778 C4,16.6755556 4.37361111,16.3033333 4.83333333,16.3033333 L13.8555556,16.3033333 Z M27.2875,16.3033333 C27.7472222,16.3033333 28.1208333,16.6755556 28.1208333,17.1352778 L28.1208333,26.1575 C28.1208333,26.6172222 27.7472222,26.9908333 27.2875,26.9908333 L18.2652778,26.9908333 C17.8041667,26.9908333 17.4305556,26.6172222 17.4305556,26.1575 L17.4305556,17.1352778 C17.4305556,16.6755556 17.8041667,16.3033333 18.2652778,16.3033333 L27.2875,16.3033333 Z M13.0222222,17.9686111 L5.66666667,17.9686111 L5.66666667,25.3255556 L13.0222222,25.3255556 L13.0222222,17.9686111 Z M26.4541667,17.9686111 L19.0986111,17.9686111 L19.0986111,25.3255556 L26.4541667,25.3255556 L26.4541667,17.9686111 Z M13.8555556,3.00055556 C14.3166667,3.00055556 14.6888889,3.37277778 14.6888889,3.8325 L14.6888889,12.8547222 C14.6888889,13.3144444 14.3166667,13.6880556 13.8555556,13.6880556 L4.83333333,13.6880556 C4.37361111,13.6880556 4,13.3144444 4,12.8547222 L4,3.8325 C4,3.37277778 4.37361111,3.00055556 4.83333333,3.00055556 L13.8555556,3.00055556 Z M27.2875,3.00055556 C27.7472222,3.00055556 28.1208333,3.37277778 28.1208333,3.8325 L28.1208333,12.8547222 C28.1208333,13.3144444 27.7472222,13.6880556 27.2875,13.6880556 L18.2652778,13.6880556 C17.8041667,13.6880556 17.4305556,13.3144444 17.4305556,12.8547222 L17.4305556,3.8325 C17.4305556,3.37277778 17.8041667,3.00055556 18.2652778,3.00055556 L27.2875,3.00055556 Z M13.0222222,4.66583333 L5.66666667,4.66583333 L5.66666667,12.0227778 L13.0222222,12.0227778 L13.0222222,4.66583333 Z M26.4541667,4.66583333 L19.0986111,4.66583333 L19.0986111,12.0227778 L26.4541667,12.0227778 L26.4541667,4.66583333 Z"
                id="Combined-Shape"
              />
            </g>
          </g>
        </g>
      </svg>