<svg xmlns="http://www.w3.org/2000/svg" width="71" height="67" viewBox="0 0 71 67">
    <defs>
        <linearGradient id="710hpbg9xa" x1="31.867%" x2="161.891%" y1="12.686%" y2=".079%">
            <stop offset="0%" stop-color="#A35AF5"/>
            <stop offset="100%" stop-color="#E8B4B4"/>
        </linearGradient>
        <linearGradient id="7nav8mxqob" x1="23.889%" x2="211.124%" y1="42.629%" y2="40.139%">
            <stop offset="0%" stop-color="#A35AF5"/>
            <stop offset="100%" stop-color="#E8B4B4"/>
        </linearGradient>
    </defs>
    <g fill="none" fill-rule="evenodd">
        <g>
            <g transform="translate(-274 -98) translate(274 98)">
                <rect width="70.7" height="66.5" fill="#FFF" rx="25.2"/>
                <g fill-rule="nonzero" opacity=".3">
                    <path fill="url(#710hpbg9xa)" d="M3.5 28.7v21.6c0 1.987 1.571 3.6 3.5 3.6h17.5V28.7h-21z" transform="matrix(-1 0 0 1 63.7 4.2)"/>
                    <path fill="url(#7nav8mxqob)" d="M53.156 14.37H41.944c.804-.56 1.495-1.115 1.977-1.613 2.86-2.928 2.86-7.693 0-10.62-2.778-2.853-7.619-2.845-10.394 0-1.538 1.57-5.613 7.963-5.05 12.233h-.255c.56-4.27-3.515-10.664-5.05-12.234-2.778-2.844-7.618-2.844-10.393 0-2.857 2.928-2.857 7.693-.004 10.62.486.499 1.177 1.055 1.981 1.614H3.544C1.59 14.37 0 15.991 0 17.98v5.415c0 .996.794 1.805 1.772 1.805h23.034v-7.22h7.088v7.22h23.034c.978 0 1.772-.809 1.772-1.805V17.98c0-1.989-1.588-3.61-3.544-3.61zm-28.559-.119s-.149.12-.655.12c-2.45 0-7.123-2.593-8.65-4.16-1.486-1.523-1.486-4.006 0-5.53.719-.736 1.672-1.14 2.685-1.14 1.01 0 1.964.404 2.683 1.14 2.389 2.448 4.763 8.7 3.937 9.57zm8.158.12c-.503 0-.652-.116-.652-.12-.826-.87 1.548-7.122 3.937-9.57 1.428-1.47 3.926-1.476 5.369 0 1.488 1.524 1.488 4.007 0 5.53-1.528 1.567-6.202 4.16-8.654 4.16z" transform="matrix(-1 0 0 1 63.7 4.2)"/>
                    <path fill="url(#710hpbg9xa)" d="M32.2 28.7v25.2h17.5c1.932 0 3.5-1.613 3.5-3.6V28.7h-21z" transform="matrix(-1 0 0 1 63.7 4.2)"/>
                </g>
            </g>
        </g>
    </g>
</svg>
