<svg width="16" height="16" viewBox="0 0 16 16" fill="none" xmlns="http://www.w3.org/2000/svg">
<path fill-rule="evenodd" clip-rule="evenodd" d="M4.28845 0.000377613C4.10107 0.0209157 3.96058 0.181164 3.96465 0.369558V1.43173H2.03355C0.919163 1.43173 0.000285235 2.34859 0.000285235 3.465V5.64597C-9.50782e-05 5.65548 -9.50782e-05 5.66499 0.000285235 5.67437V13.9667C0.000285235 15.0831 0.918806 16 2.03355 16H13.9668C15.0815 16 15.9945 15.0831 15.9945 13.9667V5.69709L15.9944 5.69721C15.9946 5.68961 15.9946 5.682 15.9944 5.67439C15.9951 5.66121 15.9951 5.6479 15.9944 5.63471V3.465C15.9944 2.3486 15.081 1.43173 13.9666 1.43173H11.973V0.369561H11.9732C11.9747 0.271182 11.9363 0.17635 11.8668 0.106873C11.7972 0.0372724 11.7024 -0.00114182 11.604 0.000380337C11.5075 0.00190169 11.4157 0.0415825 11.3486 0.11093C11.2815 0.180151 11.2447 0.273207 11.2462 0.369561V1.43173H4.69183V0.369561H4.69171C4.69336 0.271182 4.65494 0.17635 4.58534 0.106873C4.51574 0.0372724 4.42091 -0.00114182 4.32253 0.000380337C4.31124 -0.000126779 4.29983 -0.000126779 4.28855 0.000380337L4.28845 0.000377613ZM2.03354 2.15866H3.96464V3.22083C3.96438 3.31731 4.00267 3.40999 4.07088 3.47832C4.13896 3.54666 4.23163 3.58507 4.32811 3.58507C4.42472 3.58507 4.51727 3.54666 4.58548 3.47832C4.65368 3.40999 4.69184 3.31731 4.69159 3.22083V2.15866H11.246V3.22083H11.2461C11.2458 3.31731 11.284 3.40999 11.3522 3.47832C11.4204 3.54666 11.513 3.58507 11.6096 3.58507C11.706 3.58507 11.7987 3.54666 11.8668 3.47832C11.935 3.40999 11.9733 3.31731 11.973 3.22083V2.15866H13.9666C14.6837 2.15866 15.2673 2.74426 15.2673 3.465V5.3109H0.727232V3.465C0.727232 2.74426 1.31636 2.15866 2.03356 2.15866H2.03354ZM0.727209 6.03774H15.2672V13.9666C15.2672 14.6873 14.6832 15.2729 13.9666 15.2729H2.03341C1.31673 15.2729 0.727079 14.6873 0.727079 13.9666L0.727209 6.03774Z" fill="#ffffff"/>
</svg>
