<svg width="24" height="24" viewBox="0 0 24 24" fill="none" xmlns="http://www.w3.org/2000/svg">
<rect x="1" y="1" width="22.4" height="22.4591" rx="2" fill="white" stroke="white" stroke-opacity="0.01" stroke-width="0.5"/>
<path fill-rule="evenodd" clip-rule="evenodd" d="M17.4779 7.76917C17.9035 7.76917 18.2776 7.93801 18.5485 8.22374C18.8323 8.49648 19 8.87312 19 9.30171V15.7695C19 16.1851 18.8194 16.5748 18.5485 16.8475C18.2776 17.1332 17.9035 17.3021 17.4779 17.3021H6.95194C6.53916 17.3021 6.15218 17.1202 5.88129 16.8475C5.5975 16.5748 5.42981 16.1981 5.42981 15.7695V9.30171C5.42981 8.88611 5.6104 8.49648 5.88129 8.22374C6.15218 7.93801 6.52626 7.76917 6.95194 7.76917H9.08035V7.7432C9.08035 7.41851 9.20934 7.11979 9.42863 6.89901C9.64792 6.67822 9.94461 6.54834 10.28 6.54834H14.1498C14.4723 6.54834 14.769 6.67822 14.9883 6.89901C15.2076 7.10681 15.3366 7.41851 15.3366 7.7432V7.76917H17.4779ZM18.3163 15.7695H18.3292V9.30172C18.3292 9.06794 18.2389 8.86014 18.0842 8.70429C17.9294 8.54844 17.723 8.45753 17.4908 8.45753H15.0012C14.8077 8.45753 14.6529 8.30167 14.6529 8.10686V7.73022C14.6529 7.58736 14.6013 7.45748 14.511 7.36657C14.4207 7.27565 14.2917 7.2237 14.1498 7.2237H10.2929C10.151 7.2237 10.022 7.27565 9.93172 7.36657C9.84142 7.45748 9.78983 7.58736 9.78983 7.73022V8.10686C9.78983 8.30167 9.63503 8.45753 9.44154 8.45753H6.95195C6.71976 8.45753 6.51337 8.54844 6.35858 8.70429C6.20379 8.86014 6.11349 9.06794 6.11349 9.30172V15.7695C6.11349 16.0033 6.20379 16.2111 6.35858 16.367C6.51337 16.5228 6.71976 16.6137 6.95195 16.6137H17.4779C17.7101 16.6137 17.9165 16.5228 18.0713 16.367C18.226 16.2111 18.3163 16.0033 18.3163 15.7695Z" fill="#BFBFBF"/>
<path d="M18.5485 8.22374L18.4395 8.32705L18.4446 8.33189L18.5485 8.22374ZM18.5485 16.8475L18.4421 16.7418L18.4397 16.7443L18.5485 16.8475ZM5.88129 16.8475L5.98774 16.7418L5.98523 16.7394L5.88129 16.8475ZM5.88129 8.22374L5.98774 8.32947L5.99014 8.32694L5.88129 8.22374ZM9.08035 7.76917V7.91917H9.23035V7.76917H9.08035ZM9.42863 6.89901L9.53506 7.00471L9.42863 6.89901ZM14.9883 6.89901L14.8818 7.00476L14.8851 7.00788L14.9883 6.89901ZM15.3366 7.76917H15.1866V7.91917H15.3366V7.76917ZM18.3292 15.7695V15.9195H18.4792V15.7695H18.3292ZM18.3163 15.7695V15.6195H18.1663V15.7695H18.3163ZM18.0842 8.70429L17.9777 8.80999L17.9777 8.80999L18.0842 8.70429ZM6.35858 8.70429L6.46501 8.80999H6.46501L6.35858 8.70429ZM6.35858 16.367L6.25215 16.4727H6.25215L6.35858 16.367ZM18.0713 16.367L17.9648 16.2613H17.9648L18.0713 16.367ZM18.6574 8.12054C18.3584 7.80515 17.945 7.61917 17.4779 7.61917V7.91917C17.8621 7.91917 18.1969 8.07088 18.4397 8.32694L18.6574 8.12054ZM19.15 9.30171C19.15 8.83235 18.9657 8.41664 18.6525 8.11559L18.4446 8.33189C18.6989 8.57632 18.85 8.91389 18.85 9.30171H19.15ZM19.15 15.7695V9.30171H18.85V15.7695H19.15ZM18.6549 16.9532C18.9513 16.6548 19.15 16.2281 19.15 15.7695H18.85C18.85 16.1422 18.6875 16.4947 18.4421 16.7418L18.6549 16.9532ZM17.4779 17.4521C17.945 17.4521 18.3584 17.2661 18.6574 16.9507L18.4397 16.7443C18.1969 17.0004 17.8621 17.1521 17.4779 17.1521V17.4521ZM6.95194 17.4521H17.4779V17.1521H6.95194V17.4521ZM5.77486 16.9532C6.07122 17.2516 6.49554 17.4521 6.95194 17.4521V17.1521C6.58278 17.1521 6.23313 16.9889 5.98772 16.7418L5.77486 16.9532ZM5.27981 15.7695C5.27981 16.2389 5.4641 16.6546 5.77735 16.9557L5.98523 16.7394C5.7309 16.4949 5.57981 16.1574 5.57981 15.7695H5.27981ZM5.27981 9.30171V15.7695H5.57981V9.30171H5.27981ZM5.77486 8.11804C5.4785 8.41642 5.27981 8.84318 5.27981 9.30171H5.57981C5.57981 8.92904 5.7423 8.57654 5.98772 8.32944L5.77486 8.11804ZM6.95194 7.61917C6.4848 7.61917 6.07145 7.80515 5.77243 8.12054L5.99014 8.32694C6.23291 8.07088 6.56772 7.91917 6.95194 7.91917V7.61917ZM9.08035 7.61917H6.95194V7.91917H9.08035V7.61917ZM8.93035 7.7432V7.76917H9.23035V7.7432H8.93035ZM9.3222 6.7933C9.07571 7.04148 8.93035 7.37792 8.93035 7.7432H9.23035C9.23035 7.4591 9.34297 7.19811 9.53506 7.00471L9.3222 6.7933ZM10.28 6.39834C9.90421 6.39834 9.56934 6.54447 9.3222 6.7933L9.53506 7.00471C9.7265 6.81196 9.985 6.69834 10.28 6.69834V6.39834ZM14.1498 6.39834H10.28V6.69834H14.1498V6.39834ZM15.0947 6.7933C14.8482 6.5451 14.5136 6.39834 14.1498 6.39834V6.69834C14.431 6.69834 14.6898 6.81133 14.8819 7.00471L15.0947 6.7933ZM15.4866 7.7432C15.4866 7.38055 15.3429 7.0284 15.0915 6.79013L14.8851 7.00788C15.0722 7.18522 15.1866 7.45647 15.1866 7.7432H15.4866ZM15.4866 7.76917V7.7432H15.1866V7.76917H15.4866ZM17.4779 7.61917H15.3366V7.91917H17.4779V7.61917ZM18.3292 15.6195H18.3163V15.9195H18.3292V15.6195ZM18.1792 9.30172V15.7695H18.4792V9.30172H18.1792ZM17.9777 8.80999C18.1052 8.93831 18.1792 9.10834 18.1792 9.30172H18.4792C18.4792 9.02755 18.3727 8.78197 18.1906 8.59859L17.9777 8.80999ZM17.4908 8.60753C17.6819 8.60753 17.8503 8.6817 17.9777 8.80999L18.1906 8.59859C18.0084 8.41517 17.764 8.30753 17.4908 8.30753V8.60753ZM15.0012 8.60753H17.4908V8.30753H15.0012V8.60753ZM14.5029 8.10686C14.5029 8.38355 14.7239 8.60753 15.0012 8.60753V8.30753C14.8915 8.30753 14.8029 8.2198 14.8029 8.10686H14.5029ZM14.5029 7.73022V8.10686H14.8029V7.73022H14.5029ZM14.4046 7.47227C14.4644 7.53248 14.5029 7.62313 14.5029 7.73022H14.8029C14.8029 7.55158 14.7382 7.38248 14.6174 7.26086L14.4046 7.47227ZM14.1498 7.3737C14.2553 7.3737 14.3449 7.41214 14.4046 7.47227L14.6174 7.26086C14.4966 7.13917 14.3281 7.0737 14.1498 7.0737V7.3737ZM10.2929 7.3737H14.1498V7.0737H10.2929V7.3737ZM10.0381 7.47227C10.0979 7.41214 10.1874 7.3737 10.2929 7.3737V7.0737C10.1146 7.0737 9.94616 7.13917 9.82529 7.26086L10.0381 7.47227ZM9.93983 7.73022C9.93983 7.62313 9.97835 7.53248 10.0381 7.47227L9.82529 7.26086C9.7045 7.38248 9.63983 7.55158 9.63983 7.73022H9.93983ZM9.93983 8.10686V7.73022H9.63983V8.10686H9.93983ZM9.44154 8.60753C9.71884 8.60753 9.93983 8.38355 9.93983 8.10686H9.63983C9.63983 8.2198 9.55123 8.30753 9.44154 8.30753V8.60753ZM6.95195 8.60753H9.44154V8.30753H6.95195V8.60753ZM6.46501 8.80999C6.59243 8.6817 6.76082 8.60753 6.95195 8.60753V8.30753C6.6787 8.30753 6.43432 8.41517 6.25215 8.59859L6.46501 8.80999ZM6.26349 9.30172C6.26349 9.10834 6.33756 8.93831 6.46501 8.80999L6.25215 8.59859C6.07001 8.78197 5.96349 9.02755 5.96349 9.30172H6.26349ZM6.26349 15.7695V9.30172H5.96349V15.7695H6.26349ZM6.46501 16.2613C6.33756 16.133 6.26349 15.9629 6.26349 15.7695H5.96349C5.96349 16.0437 6.07001 16.2893 6.25215 16.4727L6.46501 16.2613ZM6.95195 16.4637C6.76082 16.4637 6.59243 16.3896 6.46501 16.2613L6.25215 16.4727C6.43432 16.6561 6.6787 16.7637 6.95195 16.7637V16.4637ZM17.4779 16.4637H6.95195V16.7637H17.4779V16.4637ZM17.9648 16.2613C17.8374 16.3896 17.669 16.4637 17.4779 16.4637V16.7637C17.7511 16.7637 17.9955 16.6561 18.1777 16.4727L17.9648 16.2613ZM18.1663 15.7695C18.1663 15.9629 18.0923 16.133 17.9648 16.2613L18.1777 16.4727C18.3598 16.2893 18.4663 16.0437 18.4663 15.7695H18.1663Z" fill="#BFBFBF"/>
<path fill-rule="evenodd" clip-rule="evenodd" d="M10.1074 10.2553C10.6516 9.71107 11.4185 9.36475 12.2596 9.36475C13.1007 9.36475 13.8675 9.71107 14.4118 10.2553C14.956 10.7995 15.3023 11.5664 15.3023 12.4075C15.3023 13.2485 14.9683 14.003 14.4118 14.5596C13.8675 15.1039 13.1007 15.4502 12.2596 15.4502C11.4185 15.4502 10.664 15.1162 10.1074 14.5596C9.56318 14.0154 9.21686 13.2485 9.21686 12.4075C9.21686 11.5664 9.55082 10.8119 10.1074 10.2553ZM12.2595 14.7946C12.9151 14.7946 13.5088 14.5225 13.9417 14.102C14.3746 13.6691 14.6467 13.0754 14.6343 12.4198C14.6343 11.7643 14.3746 11.1706 13.9417 10.7377C13.5088 10.3171 12.9151 10.045 12.2595 10.045C11.604 10.045 11.0103 10.3048 10.5774 10.7377C10.1568 11.1706 9.88473 11.7643 9.88473 12.4198C9.88473 13.0754 10.1445 13.6691 10.5774 14.102C11.0103 14.5225 11.604 14.7946 12.2595 14.7946Z" fill="#BFBFBF"/>
<path d="M10.1074 10.2553L10.0367 10.1846L10.1074 10.2553ZM14.4118 10.2553L14.4825 10.1846V10.1846L14.4118 10.2553ZM14.4118 14.5596L14.4825 14.6304L14.4118 14.5596ZM10.1074 14.5596L10.0367 14.6304L10.1074 14.5596ZM13.9417 14.102L14.0114 14.1737L14.0124 14.1727L13.9417 14.102ZM14.6343 12.4198H14.5343L14.5344 12.4217L14.6343 12.4198ZM13.9417 10.7377L14.0124 10.6669L14.0114 10.6659L13.9417 10.7377ZM10.5774 10.7377L10.5067 10.6669L10.5057 10.668L10.5774 10.7377ZM10.5774 14.102L10.5067 14.1727L10.5077 14.1737L10.5774 14.102ZM12.2596 9.26475C11.3908 9.26475 10.5988 9.62244 10.0367 10.1846L10.1781 10.326C10.7044 9.7997 11.4462 9.46475 12.2596 9.46475V9.26475ZM14.4825 10.1846C13.9203 9.62244 13.1283 9.26475 12.2596 9.26475V9.46475C13.073 9.46475 13.8147 9.7997 14.341 10.326L14.4825 10.1846ZM15.4023 12.4075C15.4023 11.5387 15.0446 10.7467 14.4825 10.1846L14.341 10.326C14.8673 10.8523 15.2023 11.5941 15.2023 12.4075H15.4023ZM14.4825 14.6304C15.0572 14.0556 15.4023 13.2759 15.4023 12.4075H15.2023C15.2023 13.2212 14.8795 13.9505 14.341 14.4889L14.4825 14.6304ZM12.2596 15.5502C13.1283 15.5502 13.9203 15.1925 14.4825 14.6304L14.341 14.4889C13.8147 15.0152 13.073 15.3502 12.2596 15.3502V15.5502ZM10.0367 14.6304C10.6114 15.2051 11.3911 15.5502 12.2596 15.5502V15.3502C11.4459 15.3502 10.7166 15.0274 10.1781 14.4889L10.0367 14.6304ZM9.11686 12.4075C9.11686 13.2762 9.47455 14.0682 10.0367 14.6304L10.1781 14.4889C9.65181 13.9626 9.31686 13.2209 9.31686 12.4075H9.11686ZM10.0367 10.1846C9.46197 10.7593 9.11686 11.539 9.11686 12.4075H9.31686C9.31686 11.5938 9.63966 10.8645 10.1781 10.326L10.0367 10.1846ZM13.872 14.0303C13.4561 14.4342 12.8869 14.6946 12.2595 14.6946V14.8946C12.9433 14.8946 13.5614 14.6108 14.0114 14.1737L13.872 14.0303ZM14.5344 12.4217C14.5462 13.0476 14.2865 13.6157 13.871 14.0313L14.0124 14.1727C14.4627 13.7224 14.7473 13.1032 14.7343 12.4179L14.5344 12.4217ZM13.871 10.8084C14.2855 11.2229 14.5343 11.7913 14.5343 12.4198H14.7343C14.7343 11.7372 14.4637 11.1182 14.0124 10.667L13.871 10.8084ZM12.2595 10.145C12.8869 10.145 13.4561 10.4054 13.872 10.8094L14.0114 10.6659C13.5614 10.2289 12.9433 9.94501 12.2595 9.94501V10.145ZM10.6481 10.8084C11.0626 10.3938 11.631 10.145 12.2595 10.145V9.94501C11.5769 9.94501 10.958 10.2157 10.5067 10.667L10.6481 10.8084ZM9.98473 12.4198C9.98473 11.7925 10.2451 11.2232 10.6491 10.8073L10.5057 10.668C10.0686 11.1179 9.78473 11.7361 9.78473 12.4198H9.98473ZM10.6481 14.0313C10.2336 13.6167 9.98473 13.0483 9.98473 12.4198H9.78473C9.78473 13.1024 10.0554 13.7214 10.5067 14.1727L10.6481 14.0313ZM12.2595 14.6946C11.6322 14.6946 11.0629 14.4342 10.6471 14.0303L10.5077 14.1737C10.9576 14.6108 11.5758 14.8946 12.2595 14.8946V14.6946Z" fill="#BFBFBF"/>
<circle cx="16.8236" cy="10.0048" r="0.56" fill="#BFBFBF" stroke="#BFBFBF" stroke-width="0.160207"/>
</svg>
