<svg xmlns="http://www.w3.org/2000/svg" width="24" height="24" viewBox="0 0 24 24">
    <g fill="none" fill-rule="evenodd">
        <path stroke="var(--color2)" stroke-opacity=".012" stroke-width=".1" d="M.05.05h23.9v23.9H.05z"/>
        <path fill="var(--color2)" fill-rule="nonzero" stroke="var(--color2)" stroke-width=".6" d="M18.22 17.154l-.745-9.658c-.046-.623-.558-1.11-1.164-1.11h-1.472v-.068c0-1.83-1.447-3.318-3.225-3.318S8.39 4.488 8.39 6.318v.068H6.918c-.607 0-1.119.487-1.165 1.108l-.745 9.662a2.853 2.853 0 0 0 .715 2.113 2.69 2.69 0 0 0 1.993.895h7.796a2.69 2.69 0 0 0 1.993-.895c.512-.57.773-1.34.715-2.115zM9.366 6.318c0-1.275 1.009-2.313 2.248-2.313 1.24 0 2.248 1.038 2.248 2.313v.068H9.366v-.068zm7.422 12.267a1.7 1.7 0 0 1-1.276.574H7.716a1.7 1.7 0 0 1-1.276-.574 1.801 1.801 0 0 1-.458-1.351l.745-9.662a.194.194 0 0 1 .19-.18H8.39v1.237c0 .278.219.503.489.503s.488-.225.488-.503V7.391h4.496V8.63c0 .278.218.503.488.503s.489-.225.489-.503V7.391h1.472c.099 0 .182.08.19.183l.745 9.659c.037.502-.125.983-.458 1.352z"/>
    </g>
</svg>
