<svg xmlns="http://www.w3.org/2000/svg" width="20" height="20" viewBox="0 0 20 20">
    <g fill="none" fill-rule="evenodd" stroke="#FFF">
        <path stroke-opacity=".012" stroke-width=".1" d="M.05.05h19.9v19.9H.05z"/>
        <path fill="#FFF" fill-rule="nonzero" stroke-width=".3" d="M15.183 14.295l-.62-8.049a.99.99 0 0 0-.97-.924h-1.227v-.057c0-1.525-1.206-2.765-2.688-2.765-1.481 0-2.687 1.24-2.687 2.765v.057H5.765a.99.99 0 0 0-.97.923l-.622 8.051c-.048.645.17 1.287.597 1.761a2.242 2.242 0 0 0 1.66.747h6.496c.629 0 1.234-.273 1.661-.747a2.378 2.378 0 0 0 .596-1.762zm-7.378-9.03c0-1.063.84-1.927 1.873-1.927s1.873.864 1.873 1.927v.057H7.805v-.057zm6.185 10.223a1.416 1.416 0 0 1-1.064.478H6.43c-.408 0-.786-.17-1.063-.478a1.501 1.501 0 0 1-.382-1.126l.621-8.052a.162.162 0 0 1 .159-.15H6.99V7.19c0 .232.182.42.407.42a.413.413 0 0 0 .407-.42V6.16h3.746v1.032c0 .232.183.42.408.42a.413.413 0 0 0 .407-.42V6.16h1.226c.083 0 .152.067.159.153l.62 8.048c.032.42-.104.82-.381 1.128z"/>
    </g>
</svg>
