<svg xmlns="http://www.w3.org/2000/svg" width="24" height="24" viewBox="0 0 24 24">
    <g fill="none" fill-rule="evenodd">
        <g fill="#000" fill-rule="nonzero">
            <g>
                <g>
                    <g>
                        <path d="M8.128 18.388c-.006-.03-.015-.06-.027-.09s-.027-.057-.045-.083c-.017-.027-.037-.052-.06-.074-.022-.022-.046-.042-.073-.06-.026-.017-.054-.032-.083-.044-.03-.012-.06-.022-.09-.028-.063-.012-.127-.012-.189 0-.03.006-.061.016-.09.028-.03.012-.058.027-.084.044-.026.018-.05.038-.073.06-.022.022-.043.047-.06.074-.018.026-.032.054-.044.083-.012.03-.022.06-.028.09-.006.031-.01.063-.01.095 0 .031.004.063.01.094.006.03.016.061.028.09.012.03.026.058.044.084.017.026.038.05.06.073.022.022.047.042.073.06.026.017.054.032.083.044.03.012.06.022.091.028.03.006.063.01.094.01.032 0 .063-.004.094-.01s.062-.016.09-.028c.03-.012.058-.027.084-.044.027-.018.051-.038.073-.06.023-.022.043-.047.06-.073.018-.026.033-.054.045-.084.012-.029.021-.06.027-.09.007-.031.01-.063.01-.094 0-.032-.003-.064-.01-.095z" transform="translate(-13 -792) translate(0 608) translate(0 151) translate(13 33)"/>
                        <path d="M21.581 18.53l-.005-.015c-.432-1.007-1.445-1.379-2.644-.971l-3.268.9c-.19-.57-.66-1.055-1.327-1.301l-.012-.005-3.593-1.215c-.3-.385-1.236-1.371-2.99-1.371-1.226 0-2.31.838-2.93 1.751H.469c-.259 0-.469.21-.469.468v5.895c0 .259.21.468.47.468h2.789c.259 0 .469-.21.469-.468v-.403h1.308c.26 0 .47-.21.47-.468v-.135c.762.067 1.013.21 1.713.613.539.31 1.353.778 2.819 1.435l.02.008c.282.11.832.284 1.51.284.472 0 1.006-.084 1.554-.332l7.225-2.578.038-.015c.69-.317 1.719-1.21 1.196-2.546zM2.79 22.198H.938v-4.96H2.79v4.96zm1.777-.872h-.84v-4.089h.84v4.09zm15.443-1.11l-7.222 2.577-.02.008-.02.008c-1.006.46-1.962.185-2.336.04-1.416-.635-2.172-1.07-2.724-1.387-.768-.441-1.138-.654-2.183-.74v-3.766c.445-.726 1.307-1.47 2.237-1.47 1.595 0 2.27 1.034 2.297 1.075.057.093.145.163.249.198l3.728 1.261c.596.223.91.732.766 1.238-.067.235-.221.429-.434.547-.212.118-.456.147-.69.082l-4.203-1.327c-.247-.078-.51.058-.589.304-.078.246.059.51.306.587l4.21 1.33.014.004c.168.048.34.071.51.071.31 0 .619-.079.898-.234.433-.24.745-.633.88-1.108l.03-.113 3.522-.973c.509-.173 1.176-.236 1.474.447.308.801-.492 1.242-.7 1.34zM16.818 6.182c-.006-.031-.015-.062-.028-.091-.012-.03-.026-.057-.044-.083-.017-.027-.038-.051-.06-.074-.022-.022-.047-.042-.073-.06-.026-.017-.054-.032-.083-.044-.03-.012-.06-.022-.09-.027-.063-.013-.127-.013-.19 0-.03.005-.06.015-.09.027-.029.012-.057.027-.083.044-.027.018-.051.038-.073.06-.023.023-.043.047-.06.074-.018.026-.033.054-.045.083-.012.03-.021.06-.027.09-.007.031-.01.063-.01.095 0 .031.003.063.01.094.006.03.015.061.027.09.012.03.027.058.045.084.017.026.037.05.06.073.022.022.046.043.073.06.026.017.054.032.083.044.03.013.06.022.09.028.032.006.063.01.095.01.031 0 .063-.004.094-.01.03-.006.061-.015.09-.028.03-.012.058-.027.084-.044.026-.017.05-.038.073-.06.022-.022.043-.047.06-.073.018-.026.032-.054.044-.084.013-.029.022-.06.028-.09.007-.031.01-.063.01-.094 0-.032-.003-.064-.01-.094z" transform="translate(-13 -792) translate(0 608) translate(0 151) translate(13 33)"/>
                        <path d="M23.531 1.584h-2.789c-.259 0-.469.21-.469.468v.404h-1.307c-.26 0-.47.21-.47.468v.135c-.762-.067-1.012-.21-1.712-.614-.539-.31-1.353-.777-2.818-1.435l-.02-.008c-.478-.187-1.728-.556-3.063.048l-1.888.674L7.405.137c-.184-.183-.48-.183-.664 0l-5.223 5.21c-.169.168-.2.46 0 .661l8.925 8.903c.143.142.477.186.663 0l4.769-4.756c.123.01.252.016.385.016 1.226 0 2.31-.838 2.93-1.752h4.341c.259 0 .469-.21.469-.468V2.052c0-.258-.21-.468-.469-.468zM7.073 1.13l1.069 1.067c-.318.196-.685.3-1.07.3-.383 0-.75-.104-1.068-.3l1.069-1.067zm-3.49 5.615l-1.07-1.066 1.07-1.067c.196.317.301.684.301 1.067 0 .382-.105.749-.302 1.066zm7.192 7.174l-1.069-1.066c.652-.401 1.485-.401 2.137 0l-1.068 1.066zm1.744-1.74c-1.036-.75-2.452-.75-3.489 0l-4.772-4.76c.366-.503.564-1.106.564-1.74 0-.635-.198-1.238-.564-1.74l1.07-1.068c.504.365 1.109.562 1.745.562.636 0 1.24-.197 1.745-.562l1.014 1.012c-.219.032-.432.104-.631.215-.337.186-.6.466-.765.805-.529.098-1.018.353-1.403.736-1.042 1.04-1.042 2.732 0 3.772.522.52 1.206.78 1.89.78.685 0 1.37-.26 1.891-.78.34-.339.577-.754.696-1.207l1.583.536c-.178.824.005 1.69.497 2.37l-1.07 1.07zm-2.851-4.6l.012.005.938.318c-.07.319-.231.612-.467.847-.677.675-1.778.675-2.454 0-.677-.675-.677-1.773 0-2.448.163-.163.356-.29.565-.377.087.72.606 1.36 1.406 1.656zm4.598 2.858c-.181-.295-.283-.63-.3-.973.225.162.5.32.828.447l-.528.526zm4.23-2.672c-.444.727-1.306 1.471-2.236 1.471-.173 0-.336-.012-.489-.034h-.002c-1.012-.147-1.557-.721-1.737-.949l-.056-.076c-.055-.097-.145-.176-.259-.214L9.988 6.699c-.595-.222-.91-.73-.765-1.238v-.002c.067-.233.221-.427.434-.545.211-.118.456-.147.689-.082l4.202 1.328c.247.078.51-.058.588-.305.079-.246-.058-.51-.305-.587L11.49 4.21l-.029-.029-1.731-1.726 1.487-.532.016-.006.005-.002.02-.008c1.004-.46 1.96-.185 2.335-.04 1.415.636 2.17 1.07 2.723 1.388.767.441 1.137.654 2.182.74v3.768zm1.777-.281h-.838V3.392h.838v4.09zm2.789 0h-1.85V2.52h1.85v4.963z" transform="translate(-13 -792) translate(0 608) translate(0 151) translate(13 33)"/>
                    </g>
                </g>
            </g>
        </g>
    </g>
</svg>
