<svg width="14" height="14" viewBox="0 0 14 14" fill="none" xmlns="http://www.w3.org/2000/svg">
<path d="M4.16383 2.61756L3.17975 1.63289C2.9746 1.42775 2.69637 1.3125 2.40625 1.3125C2.11613 1.3125 1.83789 1.42775 1.63275 1.63289C1.4276 1.83804 1.31236 2.11628 1.31236 2.40639C1.31236 2.69651 1.4276 2.97475 1.63275 3.17989L7.82717 9.37431C8.13556 9.68252 8.51587 9.90907 8.93375 10.0335L10.5 10.5001L10.0333 8.93389C9.90892 8.51601 9.68238 8.13571 9.37417 7.82731L4.16383 2.61756Z" stroke="var(--color1)" stroke-linecap="round" stroke-linejoin="round"/>
<path d="M3.5 8.16667V10.9375C3.5 11.2856 3.63828 11.6194 3.88442 11.8656C4.13056 12.1117 4.4644 12.25 4.8125 12.25H10.9375C11.2856 12.25 11.6194 12.1117 11.8656 11.8656C12.1117 11.6194 12.25 11.2856 12.25 10.9375V4.8125C12.25 4.4644 12.1117 4.13056 11.8656 3.88442C11.6194 3.63828 11.2856 3.5 10.9375 3.5H8.16667" stroke="var(--color1)" stroke-width="0.5" stroke-linecap="round" stroke-linejoin="round"/>
</svg>
