<svg xmlns="http://www.w3.org/2000/svg" width="45" height="45" viewBox="0 0 45 45">
    <g fill="none" fill-rule="nonzero">
        <path fill="#F8D16B" d="M24.961 44.913c-11.034 0-19.946-9.935-19.946-22.333C5.015 10.182 13.927.246 24.961.246s19.946 9.936 19.946 22.334-8.997 22.333-19.946 22.333"/>
        <path fill="#F2C24D" d="M5.015 22.58C5.015 11.2 12.655 1.775 22.5.416c-.849-.085-1.613-.17-2.461-.17C9.089.246.093 10.182.093 22.58s8.912 22.333 19.946 22.333c.848 0 1.612-.085 2.461-.17C12.654 43.386 5.015 33.96 5.015 22.58"/>
        <path fill="#FADD90" d="M24.961 41.771c-9.251 0-16.72-8.661-16.72-19.191S15.71 3.388 24.96 3.388c9.252 0 16.636 8.662 16.636 19.192S34.128 41.77 24.961 41.77"/>
        <path fill="#D0A33B" d="M5.015 23.344H.093c0 .594.084 1.019.084 1.613H5.1c0-.51-.085-1.019-.085-1.613M5.185 19.353H.262c-.085.594-.085 1.019-.17 1.613h4.923c.085-.51.085-1.019.17-1.613M5.44 27.335H.517c.085.595.255 1.02.424 1.614h4.923c-.17-.51-.254-1.02-.424-1.614M6.543 31.326H1.705c.255.595.425 1.02.68 1.614h4.837c-.17-.51-.424-1.02-.679-1.614M6.034 15.362H1.196c-.17.594-.34 1.019-.424 1.613h4.922c.085-.51.17-1.019.34-1.613M7.731 11.37H2.81c-.255.595-.51 1.02-.764 1.614h4.923c.17-.51.424-1.02.763-1.614M10.957 6.615H6.034c-.51.51-.934 1.019-1.273 1.613h4.923c.34-.594.848-1.104 1.273-1.613M15.965 2.624h-4.923a23.343 23.343 0 0 0-2.377 1.613h4.923a23.343 23.343 0 0 1 2.377-1.613M9.09 36.167H4.167c.424.594.848 1.104 1.188 1.613h4.923c-.425-.51-.764-1.104-1.188-1.613M7.731 40.158c.68.594 1.274 1.104 2.038 1.613h4.922c-.764-.51-1.358-1.019-2.037-1.613H7.731z"/>
        <path fill="#EABC4C" d="M24.961 42.536c-9.676 0-17.484-8.917-17.484-19.956 0-11.04 7.808-19.956 17.484-19.956 9.676 0 17.485 8.916 17.485 19.956s-7.809 19.956-17.485 19.956m0-38.299c-8.827 0-15.871 8.237-15.871 18.343 0 10.105 7.044 18.342 15.871 18.342 8.828 0 15.872-8.237 15.872-18.342 0-10.106-7.13-18.343-15.872-18.343"/>
        <g fill="#FFF">
            <path d="M26.998 19.268c1.189-2.887 2.462-5.69 4.244-8.237.594-.765 1.104-1.953 2.462-1.359 1.188.51 1.952 1.444 1.782 2.887-.255 2.548-1.273 4.926-1.782 7.473-1.104 5.01-3.056 9.85-3.056 15.116 0 1.189-.933 1.443-1.867.679-2.122-1.698-1.952-4.076-1.443-6.369.679-2.972 1.613-5.86 2.461-8.747.085-.424.34-.764.17-1.358-.679.34-.764 1.019-1.018 1.528-1.613 3.737-3.14 7.473-4.753 11.21-.34.849-.68 2.123-1.953 1.783-1.188-.34-1.867-1.359-1.867-2.633.17-3.82 1.358-7.388 2.122-11.124.085-.51.255-.934.17-1.444-.68-.085-.764.595-.934.935-1.358 2.632-2.716 5.265-4.159 7.897-.424.764-.849 1.613-1.358 2.378-.34.594-.934 1.019-1.697.764-.764-.255-1.189-.934-1.019-1.783.34-1.953.764-3.907 1.188-5.86.85-4.076 2.462-7.897 2.547-12.058 0-1.19.933-.934 1.527-.51 1.019.765 1.698 1.784 1.698 3.057v2.718c.849-1.104 1.443-1.953 2.122-2.803.679-.934 1.528-1.953 2.886-1.358 1.358.68 2.122 1.868 1.952 3.396-.17 1.104-.51 2.293-.68 3.397-.084.255-.339.68.255.425z"/>
        </g>
    </g>
</svg>
