<svg xmlns="http://www.w3.org/2000/svg" width="22" height="22" viewBox="0 0 22 22">
    <g fill="none" fill-rule="nonzero">
        <path fill="#F8D16B" d="M12.181 21.715c-5.296 0-9.574-4.767-9.574-10.715C2.607 5.052 6.885.285 12.181.285c5.297 0 9.575 4.767 9.575 10.715 0 5.948-4.319 10.715-9.575 10.715"/>
        <path fill="#F2C24D" d="M2.607 11C2.607 5.54 6.274 1.019 11 .367c-.407-.041-.774-.082-1.181-.082C4.563.285.244 5.052.244 11c0 5.948 4.278 10.715 9.575 10.715.407 0 .774-.04 1.181-.082C6.274 20.981 2.607 16.46 2.607 11"/>
        <path fill="#FADD90" d="M12.181 20.207c-4.44 0-8.025-4.155-8.025-9.207 0-5.052 3.585-9.207 8.025-9.207 4.441 0 7.986 4.155 7.986 9.207 0 5.052-3.586 9.207-7.986 9.207"/>
        <path fill="#D0A33B" d="M2.607 11.367H.244c0 .285.041.489.041.774h2.363c0-.245-.04-.49-.04-.774M2.689 9.452H.326c-.04.285-.04.489-.082.774h2.363c.041-.245.041-.489.082-.774M2.811 13.281H.448c.04.286.122.49.204.775h2.363c-.082-.245-.122-.49-.204-.775M3.34 15.196H1.02c.122.285.203.49.325.774h2.323c-.082-.244-.204-.489-.326-.774M3.096 7.537H.774c-.081.285-.163.489-.204.774h2.363c.041-.244.082-.489.163-.774M3.911 5.622H1.548c-.122.285-.244.49-.367.774h2.363c.082-.244.204-.489.367-.774M5.46 3.34H3.095a3.65 3.65 0 0 0-.61.775h2.362c.163-.285.408-.53.611-.774M7.863 1.426H5.5c-.407.244-.774.489-1.14.774h2.362c.367-.285.734-.53 1.141-.774M4.563 17.519H2.2c.204.285.407.53.57.774h2.363c-.203-.245-.366-.53-.57-.774M3.911 19.433c.326.286.611.53.978.774h2.363a9.069 9.069 0 0 1-.978-.774H3.911z"/>
        <path fill="#EABC4C" d="M12.181 20.574c-4.644 0-8.392-4.278-8.392-9.574s3.748-9.574 8.392-9.574c4.645 0 8.393 4.278 8.393 9.574s-3.748 9.574-8.393 9.574m0-18.374c-4.237 0-7.618 3.952-7.618 8.8 0 4.848 3.381 8.8 7.618 8.8 4.238 0 7.619-3.952 7.619-8.8 0-4.848-3.422-8.8-7.619-8.8"/>
        <g fill="#FFF">
            <path d="M13.16 9.411c.57-1.385 1.18-2.73 2.036-3.952.285-.366.53-.937 1.182-.652.57.245.937.693.855 1.386-.122 1.222-.61 2.363-.855 3.585-.53 2.403-1.467 4.726-1.467 7.252 0 .57-.448.692-.896.326-1.019-.815-.937-1.956-.693-3.056.326-1.426.774-2.811 1.182-4.196.04-.204.163-.367.081-.652-.326.163-.366.489-.489.733-.774 1.793-1.507 3.585-2.281 5.378-.163.407-.326 1.018-.937.856-.57-.163-.897-.652-.897-1.263.082-1.834.652-3.545 1.019-5.337.04-.245.122-.449.081-.693-.325-.04-.366.285-.448.448a169.621 169.621 0 0 1-1.996 3.789c-.204.367-.407.774-.652 1.14-.163.286-.448.49-.815.367-.366-.122-.57-.448-.489-.855.163-.937.367-1.874.57-2.811.408-1.956 1.182-3.79 1.223-5.785 0-.57.448-.449.733-.245.49.367.815.856.815 1.467v1.303c.408-.53.693-.937 1.019-1.344.326-.448.733-.937 1.385-.652.652.326 1.018.896.937 1.63-.082.53-.244 1.1-.326 1.63-.04.122-.163.325.122.203z"/>
        </g>
    </g>
</svg>
