<svg width="85" height="24" viewBox="0 0 85 24" fill="none" xmlns="http://www.w3.org/2000/svg">
<path d="M84.3625 5.03407C84.3625 4.85081 84.3625 4.66754 84.3625 4.48428C84.3422 4.08338 84.3151 3.68249 84.2339 3.28732C84.1528 2.88643 84.0107 2.51417 83.7943 2.15337C83.5778 1.79256 83.3005 1.46612 82.9623 1.1855C82.6308 0.904873 82.2453 0.664337 81.8191 0.481072C81.3862 0.297806 80.9466 0.177538 80.4731 0.108814C80.0063 0.0400893 79.5329 0.0114541 79.0661 0.00572705C78.8497 0.00572705 78.6332 0 78.4168 0C78.1665 0 77.9027 0 77.6524 0H6.72356C6.46653 0 6.20949 0 5.95245 0C5.736 0 5.51955 0.00572705 5.30309 0.00572705C4.83637 0.0114541 4.35611 0.0400893 3.88939 0.108814C3.4159 0.177538 2.97623 0.297806 2.55008 0.481072C2.13071 0.664337 1.73839 0.899146 1.40694 1.1855C1.06874 1.46612 0.791405 1.79256 0.574953 2.15337C0.3585 2.51417 0.216453 2.88643 0.135283 3.28732C0.0541132 3.68822 0.0270566 4.08338 0.0135283 4.48428C0.00676415 4.66754 0.00676415 4.85081 0 5.03407V5.68696V18.1776V18.8305C0.00676415 19.0138 0.00676415 19.1971 0.0135283 19.3803C0.0270566 19.7812 0.0541132 20.1821 0.142047 20.5773C0.223217 20.9782 0.365264 21.3504 0.581717 21.7112C0.79817 22.0663 1.0755 22.3927 1.41371 22.6734C1.74515 22.9597 2.13071 23.1945 2.55685 23.3778C2.98299 23.5611 3.42266 23.6813 3.89615 23.7558C4.36288 23.8302 4.84313 23.8531 5.30986 23.8646C5.52631 23.8703 5.74276 23.8703 5.95922 23.8703C6.21625 23.8703 6.47329 23.8703 6.73033 23.8703H77.6524C77.9027 23.8703 78.1665 23.8703 78.4168 23.8703C78.6332 23.8703 78.8497 23.8703 79.0661 23.8646C79.5396 23.8531 80.0131 23.8302 80.4731 23.7558C80.9466 23.6871 81.3862 23.5668 81.8191 23.3778C82.2385 23.1945 82.6241 22.9597 82.9623 22.6734C83.3005 22.3927 83.5778 22.0663 83.7943 21.7112C84.0107 21.3504 84.1528 20.9724 84.2339 20.5773C84.3219 20.1821 84.3489 19.7812 84.3625 19.3803C84.3625 19.1971 84.3625 19.0138 84.3625 18.8305C84.3692 18.6129 84.3692 18.401 84.3692 18.1776V5.68696C84.3625 5.46933 84.3625 5.2517 84.3625 5.03407Z" fill="black"/>
<path d="M19.9804 11.8668C19.9631 10.1601 21.3894 9.32971 21.4529 9.28962C20.6445 8.12131 19.3972 7.96095 18.9526 7.94949C17.9017 7.84068 16.8797 8.57374 16.3484 8.57374C15.7999 8.57374 14.9799 7.96095 14.0907 7.97813C12.9474 7.99531 11.8791 8.65392 11.2902 9.67333C10.0776 11.7523 10.9841 14.8048 12.1447 16.4885C12.7222 17.3132 13.4035 18.2295 14.287 18.1952C15.1531 18.1608 15.4765 17.6454 16.5274 17.6454C17.5668 17.6454 17.8671 18.1952 18.7736 18.1723C19.7033 18.1551 20.2922 17.3476 20.8524 16.5172C21.5222 15.5722 21.7936 14.6444 21.8051 14.5986C21.7878 14.5929 20.0035 13.9113 19.9804 11.8668Z" fill="white"/>
<path d="M18.2718 6.84402C18.7396 6.26559 19.0571 5.47526 18.9705 4.6792C18.2949 4.70783 17.4519 5.14309 16.9611 5.71007C16.528 6.20832 16.1469 7.02729 16.2451 7.79471C17.0073 7.85198 17.7868 7.41673 18.2718 6.84402Z" fill="white"/>
<path d="M30.398 16.1964H27.5513L26.8699 18.2008H25.6631L28.3597 10.79H29.6127L32.3093 18.2008H31.0794L30.398 16.1964ZM27.8458 15.2686H30.1035L28.9891 12.0214H28.9544L27.8458 15.2686Z" fill="white"/>
<path d="M38.1353 15.4977C38.1353 17.1758 37.2287 18.2582 35.8602 18.2582C35.0807 18.2582 34.4686 17.9146 34.1453 17.3132H34.1222V19.9877H33.002V12.7946H34.0817V13.6937H34.1048C34.4167 13.1153 35.0807 12.7373 35.8371 12.7373C37.2229 12.7373 38.1353 13.8197 38.1353 15.4977ZM36.9862 15.4977C36.9862 14.4039 36.4145 13.6823 35.5484 13.6823C34.6938 13.6823 34.1222 14.4153 34.1222 15.4977C34.1222 16.5859 34.6996 17.3132 35.5484 17.3132C36.4145 17.3132 36.9862 16.5973 36.9862 15.4977Z" fill="white"/>
<path d="M44.1343 15.4977C44.1343 17.1758 43.2277 18.2582 41.8592 18.2582C41.0797 18.2582 40.4676 17.9146 40.1443 17.3132H40.1212V19.9877H39.001V12.7946H40.0808V13.6937H40.1039C40.4157 13.1153 41.0797 12.7373 41.8361 12.7373C43.222 12.7373 44.1343 13.8197 44.1343 15.4977ZM42.9852 15.4977C42.9852 14.4039 42.4136 13.6823 41.5474 13.6823C40.6928 13.6823 40.1212 14.4153 40.1212 15.4977C40.1212 16.5859 40.6928 17.3132 41.5474 17.3132C42.4136 17.3132 42.9852 16.5973 42.9852 15.4977Z" fill="white"/>
<path d="M48.0954 16.1334C48.1762 16.8664 48.898 17.3532 49.8796 17.3532C50.8208 17.3532 51.5022 16.8722 51.5022 16.2078C51.5022 15.6351 51.0922 15.2858 50.1221 15.051L49.1521 14.8219C47.7778 14.4897 47.1426 13.8598 47.1426 12.8232C47.1426 11.546 48.2686 10.6641 49.8623 10.6641C51.4444 10.6641 52.5242 11.5403 52.5589 12.8232H51.4329C51.3636 12.0844 50.7515 11.6377 49.845 11.6377C48.9442 11.6377 48.3263 12.0901 48.3263 12.7487C48.3263 13.2756 48.719 13.5791 49.6833 13.8197L50.509 14.0201C52.045 14.3809 52.6801 14.988 52.6801 16.0761C52.6801 17.4621 51.5657 18.3326 49.793 18.3326C48.1358 18.3326 47.0156 17.485 46.9463 16.1448H48.0954V16.1334Z" fill="white"/>
<path d="M55.0997 11.5117V12.7946H56.139V13.6708H55.0997V16.6489C55.0997 17.1128 55.3076 17.3304 55.7637 17.3304C55.8792 17.3304 56.0582 17.3132 56.1333 17.3018V18.178C56.012 18.2066 55.7579 18.2295 55.5096 18.2295C54.4068 18.2295 53.9737 17.8172 53.9737 16.7691V13.6708H53.1826V12.7946H53.9737V11.5174H55.0997V11.5117Z" fill="white"/>
<path d="M56.7344 15.4975C56.7344 13.7965 57.7449 12.7256 59.3212 12.7256C60.8976 12.7256 61.9081 13.7965 61.9081 15.4975C61.9081 17.2041 60.9092 18.2636 59.3212 18.2636C57.7333 18.2636 56.7344 17.1984 56.7344 15.4975ZM60.7648 15.4975C60.7648 14.3292 60.2278 13.6419 59.3212 13.6419C58.4147 13.6419 57.8777 14.3349 57.8777 15.4975C57.8777 16.6658 58.4147 17.353 59.3212 17.353C60.2278 17.3473 60.7648 16.6658 60.7648 15.4975Z" fill="white"/>
<path d="M62.8262 12.7946H63.8944V13.7109H63.9175C64.0907 13.0981 64.5873 12.7373 65.2283 12.7373C65.3899 12.7373 65.5228 12.7602 65.6094 12.7774V13.814C65.5228 13.7796 65.3264 13.7453 65.107 13.7453C64.3852 13.7453 63.9406 14.2263 63.9406 14.988V18.1952H62.8262V12.7946Z" fill="white"/>
<path d="M70.7704 16.6085C70.6202 17.5878 69.6559 18.2636 68.426 18.2636C66.8381 18.2636 65.8564 17.2099 65.8564 15.5204C65.8564 13.8252 66.8438 12.7256 68.3798 12.7256C69.8869 12.7256 70.8339 13.7507 70.8339 15.3944V15.7724H66.9824V15.8411C66.9824 16.7632 67.5656 17.3702 68.4491 17.3702C69.0727 17.3702 69.5578 17.0781 69.7079 16.6085H70.7704ZM66.9882 14.9992H69.7137C69.6906 14.1745 69.1536 13.6247 68.374 13.6247C67.606 13.6247 67.0459 14.1803 66.9882 14.9992Z" fill="white"/>
<path d="M27.7064 5.20605C28.7689 5.20605 29.3983 5.85321 29.3983 6.97571C29.3983 8.11539 28.7805 8.76828 27.7064 8.76828H26.4072V5.20605H27.7064ZM26.9673 8.2643H27.6429C28.3936 8.2643 28.8266 7.80041 28.8266 6.98144C28.8266 6.17392 28.3878 5.71003 27.6429 5.71003H26.9673V8.2643Z" fill="white"/>
<path d="M30.0215 7.42292C30.0215 6.55814 30.5123 6.03125 31.2976 6.03125C32.0887 6.03125 32.5737 6.55814 32.5737 7.42292C32.5737 8.29343 32.0887 8.82032 31.2976 8.82032C30.5065 8.82032 30.0215 8.29343 30.0215 7.42292ZM32.0309 7.42292C32.0309 6.83876 31.7653 6.50087 31.3034 6.50087C30.8414 6.50087 30.5758 6.83876 30.5758 7.42292C30.5758 8.01281 30.8357 8.3507 31.3034 8.3507C31.7653 8.3507 32.0309 8.00708 32.0309 7.42292Z" fill="white"/>
<path d="M35.9752 8.7685H35.4209L34.8608 6.78695H34.8203L34.266 8.7685H33.7117L32.9668 6.08252H33.5096L33.9946 8.1328H34.035L34.5894 6.08252H35.1033L35.6634 8.1328H35.7038L36.1888 6.08252H36.7201L35.9752 8.7685Z" fill="white"/>
<path d="M37.3495 6.08231H37.8634V6.51183H37.9039C38.0367 6.21403 38.3023 6.03076 38.7123 6.03076C39.3186 6.03076 39.6477 6.39157 39.6477 7.02727V8.76829H39.1107V7.15899C39.1107 6.72946 38.9201 6.51183 38.5275 6.51183C38.1348 6.51183 37.8808 6.77528 37.8808 7.19335V8.76829H37.3438V6.08231H37.3495Z" fill="white"/>
<path d="M41.0399 5.02832H40.5029V8.76808H41.0399V5.02832Z" fill="white"/>
<path d="M41.7842 7.42243C41.7842 6.55765 42.275 6.03076 43.0603 6.03076C43.8514 6.03076 44.3364 6.55765 44.3364 7.42243C44.3364 8.29294 43.8514 8.81983 43.0603 8.81983C42.2692 8.81983 41.7842 8.29294 41.7842 7.42243ZM43.7879 7.42243C43.7879 6.83827 43.5222 6.50038 43.0603 6.50038C42.5984 6.50038 42.3327 6.83827 42.3327 7.42243C42.3327 8.01232 42.5926 8.35021 43.0603 8.35021C43.5222 8.35021 43.7879 8.00659 43.7879 7.42243Z" fill="white"/>
<path d="M44.9023 8.00646C44.9023 7.51966 45.2661 7.24476 45.9128 7.20467L46.6462 7.16458V6.92978C46.6462 6.64915 46.4556 6.48307 46.0918 6.48307C45.7916 6.48307 45.5837 6.59188 45.526 6.78087H45.0063C45.0583 6.31698 45.4971 6.0249 46.1149 6.0249C46.7963 6.0249 47.1774 6.35707 47.1774 6.92978V8.76816H46.6635V8.39017H46.6231C46.4614 8.65934 46.1669 8.81397 45.8089 8.81397C45.2834 8.81397 44.9023 8.49898 44.9023 8.00646ZM46.6462 7.77738V7.55402L45.9821 7.59411C45.6068 7.61702 45.4394 7.74302 45.4394 7.98355C45.4394 8.22409 45.653 8.36726 45.9417 8.36726C46.3459 8.36726 46.6462 8.10955 46.6462 7.77738Z" fill="white"/>
<path d="M47.876 7.42222C47.876 6.57462 48.3148 6.03628 49.002 6.03628C49.3715 6.03628 49.6833 6.20809 49.8335 6.5059H49.8739V5.02832H50.4109V8.76808H49.897V8.34428H49.8566C49.6949 8.63636 49.3773 8.8139 49.0077 8.8139C48.3148 8.80817 47.876 8.27555 47.876 7.42222ZM48.4303 7.42222C48.4303 7.99493 48.7017 8.33282 49.1521 8.33282C49.6025 8.33282 49.8797 7.98347 49.8797 7.42222C49.8797 6.86097 49.5967 6.51162 49.1521 6.51162C48.7075 6.51162 48.4303 6.85525 48.4303 7.42222Z" fill="white"/>
<path d="M52.623 7.42243C52.623 6.55765 53.1139 6.03076 53.9049 6.03076C54.696 6.03076 55.181 6.55765 55.181 7.42243C55.181 8.29294 54.696 8.81983 53.9049 8.81983C53.1081 8.81983 52.623 8.29294 52.623 7.42243ZM54.6267 7.42243C54.6267 6.83827 54.3611 6.50038 53.8992 6.50038C53.4314 6.50038 53.1716 6.83827 53.1716 7.42243C53.1716 8.01232 53.4314 8.35021 53.8992 8.35021C54.3669 8.35021 54.6267 8.00659 54.6267 7.42243Z" fill="white"/>
<path d="M55.8965 6.08231H56.4104V6.51183H56.4508C56.5836 6.21403 56.8492 6.03076 57.2592 6.03076C57.8655 6.03076 58.1946 6.39157 58.1946 7.02727V8.76829H57.6576V7.15899C57.6576 6.72946 57.4671 6.51183 57.0744 6.51183C56.6818 6.51183 56.4277 6.77528 56.4277 7.19335V8.76829H55.8965V6.08231Z" fill="white"/>
<path d="M61.2211 5.4126V6.09412H61.81V6.54083H61.2211V7.92104C61.2211 8.20167 61.3365 8.32766 61.6022 8.32766C61.683 8.32766 61.7292 8.32194 61.8043 8.31621V8.75719C61.7176 8.77437 61.6195 8.78583 61.5155 8.78583C60.9208 8.78583 60.684 8.57965 60.684 8.05849V6.54083H60.251V6.09412H60.684V5.4126H61.2211Z" fill="white"/>
<path d="M62.5371 5.02832H63.0683V6.51162H63.1088C63.2416 6.20809 63.5245 6.03055 63.9345 6.03055C64.5119 6.03055 64.8699 6.39136 64.8699 7.03279V8.76808H64.3329V7.16451C64.3329 6.73498 64.1308 6.51735 63.7555 6.51735C63.3166 6.51735 63.0741 6.79225 63.0741 7.19887V8.76808H62.5371V5.02832Z" fill="white"/>
<path d="M67.9877 8.04095C67.8664 8.52203 67.4334 8.81983 66.8155 8.81983C66.036 8.81983 65.5625 8.29294 65.5625 7.43389C65.5625 6.57483 66.0475 6.03076 66.8097 6.03076C67.5604 6.03076 68.0166 6.54047 68.0166 7.38807V7.57134H66.1053V7.59997C66.1226 8.06959 66.3998 8.37312 66.8271 8.37312C67.1504 8.37312 67.3698 8.25858 67.4738 8.04668H67.9877V8.04095ZM66.1053 7.17617H67.4738C67.4622 6.75237 67.2024 6.47747 66.804 6.47747C66.4113 6.47747 66.1342 6.7581 66.1053 7.17617Z" fill="white"/>
</svg>
