<svg width="85" height="25" viewBox="0 0 85 25" fill="none" xmlns="http://www.w3.org/2000/svg">
<path d="M81.7132 0C83.1781 0 84.3692 1.19116 84.3692 2.65615V21.6257C84.3692 23.0907 83.1781 24.2819 81.7132 24.2819H2.65601C1.1911 24.2819 0 23.0907 0 21.6257V2.65615C0 1.19116 1.1911 0 2.65601 0H81.7132Z" fill="black"/>
<path d="M29.4828 5.96936C29.4828 6.50333 29.3254 6.92092 29.0105 7.23582C28.6545 7.61234 28.1891 7.79718 27.614 7.79718C27.0664 7.79718 26.6009 7.60549 26.2176 7.22898C25.8342 6.85246 25.6426 6.3801 25.6426 5.81875C25.6426 5.2574 25.8342 4.78504 26.2176 4.40853C26.6009 4.03201 27.0664 3.84033 27.614 3.84033C27.8879 3.84033 28.148 3.8951 28.3944 3.99778C28.6409 4.10732 28.8394 4.24423 28.99 4.42222L28.6545 4.75766C28.4013 4.45645 28.059 4.30584 27.614 4.30584C27.217 4.30584 26.8679 4.44276 26.5804 4.72343C26.286 5.00411 26.1423 5.36693 26.1423 5.81875C26.1423 6.27057 26.286 6.6334 26.5804 6.91407C26.8747 7.19475 27.217 7.33166 27.614 7.33166C28.0385 7.33166 28.3944 7.1879 28.6751 6.90723C28.8599 6.72239 28.9626 6.4691 28.99 6.1405H27.614V5.68184H29.4555C29.476 5.78452 29.4828 5.88036 29.4828 5.96936Z" fill="white"/>
<path d="M32.3995 4.38153H30.6677V5.58638H32.2284V6.04505H30.6677V7.2499H32.3995V7.71541H30.1816V3.91602H32.3995V4.38153Z" fill="white"/>
<path d="M34.4523 7.71541H33.9663V4.38153H32.9053V3.91602H35.5134V4.38153H34.4523V7.71541Z" fill="white"/>
<path d="M37.8895 3.91602H37.4033V7.70856H37.8895V3.91602Z" fill="white"/>
<path d="M40.0519 7.71541H39.5591V4.38153H38.5049V3.91602H41.113V4.38153H40.0519V7.71541Z" fill="white"/>
<path d="M46.0495 7.22214C45.673 7.6055 45.2144 7.79719 44.6599 7.79719C44.1054 7.79719 43.64 7.6055 43.2703 7.22214C42.9007 6.83878 42.709 6.36643 42.709 5.81192C42.709 5.25741 42.8938 4.7919 43.2703 4.40854C43.64 4.02518 44.1054 3.8335 44.6599 3.8335C45.2075 3.8335 45.673 4.02518 46.0495 4.40854C46.426 4.7919 46.6108 5.26426 46.6108 5.81192C46.604 6.36643 46.4192 6.83878 46.0495 7.22214ZM43.6263 6.90724C43.9069 7.19476 44.2492 7.33168 44.6599 7.33168C45.0638 7.33168 45.4129 7.18792 45.6867 6.90724C45.9674 6.61972 46.1111 6.25689 46.1111 5.81876C46.1111 5.38064 45.9674 5.01781 45.6867 4.73029C45.4061 4.44277 45.0638 4.30585 44.6599 4.30585C44.256 4.30585 43.9069 4.44962 43.6263 4.73029C43.3456 5.01781 43.2019 5.38064 43.2019 5.81876C43.2019 6.25689 43.3456 6.61972 43.6263 6.90724Z" fill="white"/>
<path d="M47.2881 7.71541V3.91602H47.8836L49.725 6.87338H49.7456L49.725 6.14088V3.91602H50.2179V7.71541H49.7045L47.7741 4.62113H47.7604L47.7741 5.34678V7.71541H47.2881Z" fill="white"/>
<path d="M42.5851 13.2465C41.0997 13.2465 39.8881 14.376 39.8881 15.9368C39.8881 17.484 41.0997 18.6272 42.5851 18.6272C44.0706 18.6272 45.2891 17.484 45.2891 15.9368C45.2891 14.376 44.0706 13.2465 42.5851 13.2465ZM42.5851 17.5661C41.7705 17.5661 41.0655 16.8952 41.0655 15.9368C41.0655 14.9716 41.7705 14.3075 42.5851 14.3075C43.3997 14.3075 44.1048 14.9716 44.1048 15.9368C44.1048 16.8952 43.3997 17.5661 42.5851 17.5661ZM36.6981 13.2465C35.2127 13.2465 34.001 14.376 34.001 15.9368C34.001 17.484 35.2127 18.6272 36.6981 18.6272C38.1836 18.6272 39.3952 17.484 39.3952 15.9368C39.3952 14.376 38.1836 13.2465 36.6981 13.2465ZM36.6981 17.5661C35.8835 17.5661 35.1784 16.8952 35.1784 15.9368C35.1784 14.9716 35.8835 14.3075 36.6981 14.3075C37.5127 14.3075 38.2178 14.9716 38.2178 15.9368C38.2109 16.8952 37.5127 17.5661 36.6981 17.5661ZM29.6885 14.0748V15.218H32.4198C32.3376 15.8615 32.1254 16.327 31.7968 16.6556C31.3998 17.0527 30.7769 17.4908 29.6885 17.4908C28.0045 17.4908 26.6902 16.1354 26.6902 14.4513C26.6902 12.7741 28.0045 11.4118 29.6885 11.4118C30.592 11.4118 31.256 11.7678 31.7489 12.2264L32.5567 11.4186C31.8721 10.7683 30.9685 10.2686 29.6953 10.2686C27.3953 10.2686 25.458 12.1443 25.458 14.4445C25.458 16.7446 27.3953 18.6204 29.6953 18.6204C30.9412 18.6204 31.8721 18.2096 32.6114 17.4497C33.3644 16.6967 33.5972 15.6356 33.5972 14.7799C33.5972 14.5129 33.5766 14.2733 33.5356 14.0679H29.6885V14.0748ZM58.3432 14.9579C58.1173 14.3555 57.4396 13.2465 56.0431 13.2465C54.6604 13.2465 53.5035 14.3349 53.5035 15.9368C53.5035 17.4429 54.6467 18.6272 56.1732 18.6272C57.4054 18.6272 58.1173 17.8742 58.4116 17.4361L57.4944 16.8268C57.1863 17.2786 56.7688 17.573 56.1732 17.573C55.5708 17.573 55.1464 17.2991 54.8657 16.7583L58.4664 15.2728L58.3432 14.9579ZM54.6741 15.8547C54.6467 14.8141 55.4818 14.287 56.0774 14.287C56.5497 14.287 56.9467 14.5198 57.0768 14.8552L54.6741 15.8547ZM51.7511 18.4629H52.9353V10.5561H51.7511V18.4629ZM49.8139 13.8489H49.7728C49.5058 13.534 48.9993 13.2465 48.3558 13.2465C47.0141 13.2465 45.7751 14.4308 45.7751 15.9437C45.7751 17.4497 47.0072 18.6272 48.3558 18.6272C48.9993 18.6272 49.5058 18.3397 49.7728 18.0179H49.8139V18.4082C49.8139 19.435 49.2662 19.9895 48.3763 19.9895C47.6507 19.9895 47.2058 19.4692 47.0209 19.0311L45.9941 19.4624C46.2885 20.1744 47.0757 21.0506 48.3763 21.0506C49.7591 21.0506 50.9365 20.236 50.9365 18.2507V13.4108H49.8139V13.8489ZM48.4585 17.5661C47.6439 17.5661 46.9593 16.8816 46.9593 15.9437C46.9593 14.999 47.6439 14.3007 48.4585 14.3007C49.2662 14.3007 49.896 14.9921 49.896 15.9437C49.896 16.8816 49.2662 17.5661 48.4585 17.5661ZM63.8811 10.5561H61.054V18.4629H62.2314V15.4645H63.8811C65.1886 15.4645 66.4755 14.5198 66.4755 13.0069C66.4755 11.5076 65.1886 10.5561 63.8811 10.5561ZM63.9085 14.3692H62.2314V11.6582H63.9085C64.7915 11.6582 65.2912 12.3907 65.2912 13.0137C65.2912 13.6298 64.7915 14.3692 63.9085 14.3692ZM71.2057 13.2328C70.35 13.2328 69.4669 13.6093 69.0973 14.4445L70.1446 14.8826C70.3705 14.4445 70.7881 14.3007 71.2262 14.3007C71.8354 14.3007 72.4584 14.6704 72.4652 15.3207V15.4029C72.253 15.2796 71.7944 15.0948 71.233 15.0948C70.1035 15.0948 68.9535 15.7178 68.9535 16.8747C68.9535 17.9358 69.8777 18.6135 70.9181 18.6135C71.7122 18.6135 72.1503 18.2575 72.4241 17.84H72.4652V18.4492H73.6084V15.4166C73.6015 14.02 72.5542 13.2328 71.2057 13.2328ZM71.0619 17.5661C70.6786 17.5661 70.1378 17.3744 70.1378 16.8952C70.1378 16.286 70.8086 16.0532 71.3905 16.0532C71.9107 16.0532 72.1503 16.1696 72.472 16.3202C72.3694 17.0458 71.7396 17.5661 71.0619 17.5661ZM77.7498 13.4039L76.4013 16.8336H76.3602L74.9569 13.4039H73.6837L75.792 18.1959L74.5941 20.8589H75.8263L79.071 13.4039H77.7498ZM67.1258 18.4629H68.3032V10.5561H67.1258V18.4629Z" fill="white"/>
<path d="M19.9202 12.9591L16.7439 14.7938L14.0537 12.1376L16.7097 9.47461L19.9134 11.323C20.55 11.6858 20.55 12.5963 19.9202 12.9591Z" fill="#FED400"/>
<path d="M16.7442 14.787L7.21544 20.291C6.81841 20.5238 6.35293 20.4211 6.07227 20.1335L14.0608 12.1309L16.7442 14.787Z" fill="#F83345"/>
<path d="M14.0602 12.1374L6.07166 20.14C5.90737 19.9757 5.80469 19.743 5.80469 19.4828V4.80556C5.80469 4.56596 5.88683 4.36059 6.02374 4.19629L14.0602 12.1374Z" fill="#00D7FE"/>
<path d="M16.7159 9.47439L14.0599 12.1374L6.02344 4.19632C6.3041 3.86772 6.79012 3.7445 7.21453 3.99095L16.7159 9.47439Z" fill="#00EF77"/>
</svg>
