<svg width="100%" height="100%" viewBox="0 0 360 129" fill="none" xmlns="http://www.w3.org/2000/svg">
    <ellipse cx="181.009" cy="-18.5" rx="251.816" ry="147.5" fill="#C8CDDF"/>
    <ellipse cx="174.279" cy="-18.5" rx="229.382" ry="147.5" fill="#fff"/>
    <path d="M68.921 65.324c-3.094 0-5.644-.425-7.65-1.275-2.006-.816-3.485-1.955-4.437-3.417-.952-1.462-1.428-3.111-1.428-4.947 0-2.108.578-4.386 1.734-6.834 1.156-2.482 2.822-4.913 4.998-7.293l.051-.051a23.466 23.466 0 0 1-2.958-1.275 12.784 12.784 0 0 1-2.448-1.632c-.816-.68-1.428-1.428-1.836-2.244-.408-.816-.612-1.598-.612-2.346 0-1.088.408-2.006 1.224-2.754.816-.782 2.057-1.173 3.723-1.173.544 0 1.122.051 1.734.153.612.068 1.258.204 1.938.408.476.136.714.425.714.867 0 .238-.136.476-.408.714-.238.204-.544.238-.918.102-1.122-.306-2.091-.459-2.907-.459-1.02 0-1.802.204-2.346.612-.51.408-.765.918-.765 1.53 0 .918.578 1.972 1.734 3.162 1.19 1.156 3.026 2.125 5.508 2.907 2.04-2.006 4.369-3.808 6.987-5.406a37.568 37.568 0 0 1 8.568-3.876c3.06-.952 6.256-1.428 9.588-1.428 3.23 0 5.644.544 7.242 1.632 1.598 1.088 2.397 2.346 2.397 3.774 0 1.36-.714 2.737-2.142 4.131-1.394 1.36-3.485 2.397-6.273 3.111-1.768.442-3.842.816-6.222 1.122a63.312 63.312 0 0 1-7.293.408c-2.108 0-4.216-.102-6.324-.306a39.637 39.637 0 0 1-5.916-1.122c-2.074 2.21-3.723 4.505-4.947 6.885-1.19 2.346-1.785 4.539-1.785 6.579 0 2.278.884 4.182 2.652 5.712 1.768 1.53 4.658 2.295 8.67 2.295.51 0 1.054-.034 1.632-.102l1.785-.102c2.108-.238 4.369-.833 6.783-1.785 2.448-.918 4.862-2.159 7.242-3.723a39.624 39.624 0 0 0 6.63-5.508c.238-.238.476-.357.714-.357a.68.68 0 0 1 .561.255c.17.17.255.374.255.612s-.102.459-.306.663c-1.938 2.176-4.182 4.097-6.732 5.763-2.516 1.7-5.083 3.043-7.701 4.029-2.618 1.02-5.066 1.632-7.344 1.836a38.31 38.31 0 0 1-3.366.153zm-3.264-24.633c1.632.34 3.315.595 5.049.765 1.768.17 3.536.255 5.304.255 2.72 0 5.27-.153 7.65-.459 2.414-.306 4.301-.646 5.661-1.02 2.414-.612 4.182-1.394 5.304-2.346 1.156-.952 1.734-1.887 1.734-2.805 0-1.054-.663-1.955-1.989-2.703-1.326-.782-3.213-1.173-5.661-1.173-3.026 0-5.933.425-8.721 1.275a35.076 35.076 0 0 0-7.854 3.366c-2.414 1.428-4.573 3.043-6.477 4.845zm30.596 19.176c-1.156 0-1.972-.323-2.448-.969-.476-.68-.714-1.513-.714-2.499 0-.816.119-1.7.357-2.652a22.69 22.69 0 0 1 1.02-2.907c.034-1.326.391-2.635 1.071-3.927a9.607 9.607 0 0 1 2.856-3.213c1.224-.85 2.652-1.275 4.284-1.275 1.598 0 2.703.459 3.315 1.377.646.918.969 2.006.969 3.264 0 .748-.085 1.513-.255 2.295-.17.748-.391 1.462-.663 2.142-.272.68-.612 1.377-1.02 2.091-.408.68-.867 1.36-1.377 2.04 1.02-.17 1.904-.493 2.652-.969.782-.51 1.564-1.207 2.346-2.091a68.77 68.77 0 0 0 2.754-3.366c.204-.238.425-.357.663-.357.272 0 .493.085.663.255.204.17.306.391.306.663a.878.878 0 0 1-.204.561 37.813 37.813 0 0 1-3.009 3.672 11.034 11.034 0 0 1-3.366 2.55c-1.258.612-2.771.918-4.539.918-.816.714-1.7 1.292-2.652 1.734a7.062 7.062 0 0 1-3.009.663zm2.958-13.209c-.408.306-.901.918-1.479 1.836a22.759 22.759 0 0 0-1.581 3.009c.068 1.054.493 2.006 1.275 2.856.816.816 2.057 1.275 3.723 1.377a14.128 14.128 0 0 0 2.958-4.182c.748-1.632 1.122-3.094 1.122-4.386 0-.884-.204-1.598-.612-2.142-.408-.544-1.054-.816-1.938-.816-.612 0-1.207.102-1.785.306a6.325 6.325 0 0 0-1.581.816c.17.17.255.374.255.612 0 .272-.119.51-.357.714zm-4.335 9.639c0 .544.102.986.306 1.326.238.306.595.459 1.071.459.986 0 1.989-.306 3.009-.918-.986-.238-1.819-.612-2.499-1.122-.68-.544-1.207-1.156-1.581-1.836-.204.816-.306 1.513-.306 2.091zm14.555 3.876c-.238 0-.459-.085-.663-.255-.204-.17-.306-.374-.306-.612 0-.068.034-.204.102-.408a72.152 72.152 0 0 1 1.989-3.978 89.571 89.571 0 0 1 2.091-3.57c.306-.476.646-1.088 1.02-1.836.408-.782.799-1.615 1.173-2.499.374-.918.68-1.785.918-2.601.272-.816.408-1.479.408-1.989 0-.272-.017-.459-.051-.561-.034-.034-.051-.102-.051-.204 0-.272.119-.493.357-.663.272-.204.527-.306.765-.306.272 0 .527.136.765.408.238.238.357.663.357 1.275 0 .51-.119 1.19-.357 2.04-.204.816-.561 1.802-1.071 2.958l-.765 1.632c-.238.476-.476.935-.714 1.377a37.438 37.438 0 0 1 4.08-3.723c1.394-1.122 2.635-2.006 3.723-2.652 1.088-.646 1.819-.969 2.193-.969.408 0 .697.119.867.357.17.238.255.51.255.816 0 .442-.136.952-.408 1.53a11.994 11.994 0 0 1-.765 1.479c-.272.442-.459.748-.561.918-.374.578-.884 1.445-1.53 2.601a30.31 30.31 0 0 0-1.632 3.366c-.136.374-.272.765-.408 1.173a3.767 3.767 0 0 0-.153.969c0 .442.187.663.561.663.34 0 .833-.17 1.479-.51a9.692 9.692 0 0 0 2.244-1.683l1.836-1.836c.034-.034.187-.204.459-.51.306-.306.595-.612.867-.918l.459-.459a.628.628 0 0 1 .51-.255c.17 0 .323.102.459.306.17.17.255.391.255.663 0 .306-.085.561-.255.765-.51.714-1.207 1.496-2.091 2.346a35.275 35.275 0 0 1-2.346 2.091c-.714.544-1.445.986-2.193 1.326a5.4 5.4 0 0 1-2.142.459c-.612 0-1.122-.119-1.53-.357-.408-.238-.612-.867-.612-1.887 0-1.292.323-2.567.969-3.825a47.018 47.018 0 0 1 2.244-3.723c.85-1.224 1.547-2.38 2.091-3.468-.85.51-1.989 1.292-3.417 2.346a62.984 62.984 0 0 0-4.437 3.723 33.52 33.52 0 0 0-4.182 4.59c-.238.442-.493.918-.765 1.428-.272.51-.544 1.071-.816 1.683-.306.646-.731.969-1.275.969zm21.224-1.53c-.952 0-1.666-.272-2.142-.816-.442-.578-.663-1.292-.663-2.142 0-.952.272-2.057.816-3.315.578-1.292 1.326-2.618 2.244-3.978a29.904 29.904 0 0 1 3.009-3.774c1.122-1.19 2.244-2.142 3.366-2.856 1.122-.748 2.159-1.122 3.111-1.122 2.652 0 3.978 1.207 3.978 3.621 0 .442-.102.765-.306.969-.204.17-.408.255-.612.255-.272 0-.442-.136-.51-.408-.136-1.088-.476-1.802-1.02-2.142-.544-.34-1.054-.51-1.53-.51-.68 0-1.479.34-2.397 1.02-.918.68-1.853 1.547-2.805 2.601a34.146 34.146 0 0 0-2.703 3.417c-.816 1.19-1.479 2.346-1.989 3.468-.51 1.088-.765 1.989-.765 2.703 0 .34.051.646.153.918.136.272.34.408.612.408.51 0 1.173-.272 1.989-.816.816-.544 1.7-1.241 2.652-2.091a52.138 52.138 0 0 0 2.805-2.703 42.73 42.73 0 0 0 2.499-2.703c.748-.85 1.309-1.547 1.683-2.091.17-.272.391-.408.663-.408.544 0 .816.323.816.969a.839.839 0 0 1-.051.255.839.839 0 0 1-.051.255c-.34 1.292-.85 2.822-1.53 4.59a108.806 108.806 0 0 1-2.193 5.508c.306.034.629.102.969.204.442.102.663.374.663.816 0 .238-.119.476-.357.714-.204.238-.476.306-.816.204a5.352 5.352 0 0 0-.714-.153 3.206 3.206 0 0 0-.51-.051 123.705 123.705 0 0 1-3.162 6.375c-1.088 2.074-2.108 3.825-3.06 5.253a30.787 30.787 0 0 1-2.856 3.519c-1.054 1.156-2.176 2.091-3.366 2.805s-2.397 1.071-3.621 1.071c-1.36 0-2.414-.34-3.162-1.02-.748-.68-1.122-1.581-1.122-2.703 0-1.02.272-2.159.816-3.417.51-1.258 1.224-2.516 2.142-3.774 1.122-1.53 2.516-3.026 4.182-4.488a25.748 25.748 0 0 1 5.61-3.672 18.275 18.275 0 0 1 6.375-1.683 562.704 562.704 0 0 0 1.53-3.57 71.86 71.86 0 0 0 1.224-3.162c-2.108 2.414-4.046 4.301-5.814 5.661-1.734 1.326-3.094 1.989-4.08 1.989zm-10.098 15.912c0 .612.187 1.122.561 1.53.374.408 1.037.612 1.989.612 1.156 0 2.346-.51 3.57-1.53 1.224-.986 2.431-2.312 3.621-3.978a52.95 52.95 0 0 0 3.519-5.508 86.188 86.188 0 0 0 3.111-6.12c-1.87.272-3.672.85-5.406 1.734a25.908 25.908 0 0 0-4.794 3.264c-1.428 1.292-2.635 2.635-3.621 4.029-.272.374-.612.901-1.02 1.581a18.65 18.65 0 0 0-1.071 2.193c-.306.782-.459 1.513-.459 2.193zm34.76-15.861c-.612 0-1.122-.17-1.53-.51-.374-.34-.561-.816-.561-1.428 0-1.292.323-2.584.969-3.876a36.468 36.468 0 0 1 2.193-3.876c.85-1.292 1.547-2.482 2.091-3.57a5.612 5.612 0 0 1-1.836.816c-.68.17-1.343.255-1.989.255-.918 0-1.632-.119-2.142-.357a36.687 36.687 0 0 1-2.244 3.417 50.62 50.62 0 0 1-2.499 3.06c-.782.918-1.445 1.615-1.989 2.091-.238.204-.476.306-.714.306a.835.835 0 0 1-.612-.255c-.17-.17-.255-.357-.255-.561 0-.17.068-.323.204-.459a40.448 40.448 0 0 0 2.142-2.499 51.369 51.369 0 0 0 2.499-3.264c.85-1.156 1.547-2.227 2.091-3.213-.034-.68.051-1.445.255-2.295.238-.85.544-1.666.918-2.448.408-.782.85-1.428 1.326-1.938.476-.544.969-.816 1.479-.816.544 0 .816.323.816.969 0 .544-.17 1.241-.51 2.091-.306.85-.68 1.683-1.122 2.499a38.289 38.289 0 0 1-1.071 1.938c.442.136.901.204 1.377.204.816 0 1.53-.153 2.142-.459.612-.34 1.156-.663 1.632-.969.476-.34.884-.51 1.224-.51.442 0 .731.119.867.357.17.204.255.476.255.816 0 .646-.17 1.36-.51 2.142-.34.748-.595 1.224-.765 1.428l-1.071 1.683a45.179 45.179 0 0 0-1.428 2.295 18.846 18.846 0 0 0-1.173 2.346c-.136.374-.272.765-.408 1.173a3.767 3.767 0 0 0-.153.969c0 .442.187.663.561.663.34 0 .833-.17 1.479-.51a9.692 9.692 0 0 0 2.244-1.683l1.836-1.836c.034-.034.187-.204.459-.51.306-.306.595-.612.867-.918l.459-.459a.628.628 0 0 1 .51-.255c.17 0 .323.102.459.306.17.17.255.391.255.663 0 .306-.085.561-.255.765-.51.714-1.207 1.496-2.091 2.346a35.275 35.275 0 0 1-2.346 2.091c-.714.544-1.445.986-2.193 1.326a5.4 5.4 0 0 1-2.142.459zm8.739.561c-.952 0-1.666-.272-2.142-.816-.442-.578-.663-1.292-.663-2.142 0-.952.272-2.057.816-3.315.578-1.292 1.326-2.618 2.244-3.978a29.904 29.904 0 0 1 3.009-3.774c1.122-1.19 2.244-2.142 3.366-2.856 1.122-.748 2.159-1.122 3.111-1.122.646 0 1.275.102 1.887.306.612.17 1.105.527 1.479 1.071.408.544.612 1.343.612 2.397 0 .374-.102.646-.306.816-.204.17-.391.255-.561.255-.374 0-.561-.136-.561-.408-.17-1.088-.527-1.802-1.071-2.142-.51-.34-1.003-.51-1.479-.51-.68 0-1.479.34-2.397 1.02-.918.68-1.853 1.547-2.805 2.601a34.146 34.146 0 0 0-2.703 3.417c-.816 1.19-1.479 2.346-1.989 3.468-.51 1.088-.765 1.989-.765 2.703 0 .34.051.646.153.918.136.272.34.408.612.408.51 0 1.173-.272 1.989-.816.816-.544 1.683-1.241 2.601-2.091a71.213 71.213 0 0 0 2.805-2.754 81.155 81.155 0 0 0 2.499-2.703 60.39 60.39 0 0 0 1.734-2.04c.204-.306.459-.459.765-.459.238 0 .459.085.663.255.204.17.306.391.306.663 0 .136-.051.289-.153.459-.238.374-.527.901-.867 1.581-.306.68-.629 1.411-.969 2.193a64.72 64.72 0 0 0-.816 2.193c-.204.646-.306 1.139-.306 1.479 0 .34.119.51.357.51.17 0 .374-.085.612-.255.272-.17.51-.323.714-.459a35.035 35.035 0 0 0 2.346-2.142 99.16 99.16 0 0 0 2.04-2.193.628.628 0 0 1 .51-.255c.17 0 .323.102.459.306.17.17.255.391.255.663 0 .306-.085.561-.255.765-.544.714-1.258 1.513-2.142 2.397-.884.85-1.666 1.53-2.346 2.04a13.02 13.02 0 0 1-1.581.918c-.578.272-1.139.408-1.683.408-.408 0-.748-.119-1.02-.357-.272-.272-.408-.731-.408-1.377 0-.51.085-1.088.255-1.734.17-.646.374-1.309.612-1.989a51.346 51.346 0 0 1-3.06 3.009c-1.088.986-2.142 1.819-3.162 2.499-.986.646-1.853.969-2.601.969zm19.787.255c-1.87 0-2.805-.935-2.805-2.805 0-.782.17-1.666.51-2.652.51-1.496 1.275-3.111 2.295-4.845 1.054-1.734 2.125-3.4 3.213-4.998h-1.836a.897.897 0 0 1-.663-.255 1.172 1.172 0 0 1-.204-.663c0-.204.068-.391.204-.561a.822.822 0 0 1 .663-.306h3.111c.374-.476.714-.935 1.02-1.377.306-.476.612-.935.918-1.377a22.536 22.536 0 0 1 1.734-3.519c.714-1.122 1.581-2.023 2.601-2.703.17-.102.323-.153.459-.153.272 0 .51.136.714.408.204.238.306.51.306.816 0 .238-.085.493-.255.765-.102.136-.425.561-.969 1.275a99.374 99.374 0 0 0-1.938 2.652c-.748 1.02-1.53 2.091-2.346 3.213h4.896c.306 0 .527.102.663.306.136.17.204.357.204.561 0 .238-.068.459-.204.663-.136.17-.357.255-.663.255h-6.12l-.459.714a56.808 56.808 0 0 0-1.377 2.142c-.578.986-1.207 2.074-1.887 3.264a40.182 40.182 0 0 0-1.683 3.468c-.442 1.088-.663 1.989-.663 2.703 0 .85.357 1.275 1.071 1.275.578 0 1.445-.272 2.601-.816 1.19-.578 2.363-1.36 3.519-2.346.68-.578 1.309-1.19 1.887-1.836a104.46 104.46 0 0 1 1.632-1.785.628.628 0 0 1 .51-.255c.17 0 .323.102.459.306.17.17.255.391.255.663 0 .306-.085.561-.255.765-.51.714-1.224 1.513-2.142 2.397-.884.85-1.666 1.53-2.346 2.04a14.34 14.34 0 0 1-4.182 2.142c-.918.306-1.734.459-2.448.459zm9.003-.408c-.544 0-.952-.187-1.224-.561-.272-.374-.408-.833-.408-1.377 0-.884.238-1.802.714-2.754a22.289 22.289 0 0 1 1.734-2.958 69.066 69.066 0 0 1 2.244-3.06c.17-.204.408-.561.714-1.071.34-.51.646-1.037.918-1.581s.391-.969.357-1.275c-.034-.578.085-1.003.357-1.275.272-.306.578-.459.918-.459.34 0 .595.136.765.408.204.306.306.68.306 1.122 0 .476-.17 1.071-.51 1.785-.306.68-.85 1.547-1.632 2.601-.612.816-1.292 1.7-2.04 2.652a23.785 23.785 0 0 0-1.836 2.703c-.51.884-.765 1.632-.765 2.244 0 .442.187.663.561.663.238 0 .578-.102 1.02-.306.544-.272 1.292-.799 2.244-1.581a49.819 49.819 0 0 0 3.06-2.652 60.603 60.603 0 0 0 2.958-2.958c.918-.952 1.581-1.7 1.989-2.244.204-.306.459-.459.765-.459.238 0 .459.085.663.255.204.17.306.391.306.663 0 .136-.051.289-.153.459a53.06 53.06 0 0 0-.816 1.581 45.3 45.3 0 0 0-1.02 2.193 64.72 64.72 0 0 0-.816 2.193c-.204.646-.306 1.139-.306 1.479 0 .374.119.561.357.561.17 0 .374-.085.612-.255.272-.204.51-.374.714-.51.85-.68 1.632-1.394 2.346-2.142a99.16 99.16 0 0 0 2.04-2.193.628.628 0 0 1 .51-.255c.17 0 .323.102.459.306.17.17.255.391.255.663 0 .306-.085.561-.255.765-.544.714-1.258 1.513-2.142 2.397-.884.85-1.666 1.53-2.346 2.04a13.02 13.02 0 0 1-1.581.918c-.578.272-1.122.408-1.632.408-.442 0-.799-.119-1.071-.357-.238-.272-.357-.731-.357-1.377 0-.544.085-1.173.255-1.887.204-.714.442-1.445.714-2.193a45.16 45.16 0 0 1-3.927 3.468c-1.428 1.156-2.737 2.023-3.927 2.601-.85.408-1.547.612-2.091.612zm19.352.867c-1.224 0-2.057-.34-2.499-1.02-.442-.714-.663-1.547-.663-2.499 0-.884.102-1.768.306-2.652.238-.918.459-1.683.663-2.295.034-.136.085-.272.153-.408a.725.725 0 0 1-.102-.408c0-.578.204-.935.612-1.071a52.53 52.53 0 0 1 2.142-4.743 61.88 61.88 0 0 1 2.499-4.539 87.8 87.8 0 0 1 2.244-3.519 493.72 493.72 0 0 1 1.836-2.55 33.46 33.46 0 0 1 2.499-3.009 14.666 14.666 0 0 1 3.06-2.448c1.088-.68 2.21-1.02 3.366-1.02.952 0 1.615.204 1.989.612.408.408.612.952.612 1.632 0 .646-.153 1.394-.459 2.244-.306.85-.714 1.734-1.224 2.652-.714 1.292-1.7 2.703-2.958 4.233a56.94 56.94 0 0 1-4.182 4.539 44.787 44.787 0 0 1-4.794 4.08c-1.666 1.224-3.298 2.21-4.896 2.958-.204.646-.476 1.496-.816 2.55-.34 1.02-.51 1.955-.51 2.805 0 .578.119 1.071.357 1.479.238.374.68.561 1.326.561.476 0 1.071-.136 1.785-.408.748-.306 1.598-.765 2.55-1.377a19.657 19.657 0 0 0 3.111-2.55 40.373 40.373 0 0 0 2.652-2.907c.17-.204.323-.306.459-.306.17 0 .323.119.459.357.17.204.255.442.255.714 0 .34-.085.612-.255.816-.51.714-1.207 1.496-2.091 2.346-.85.85-1.615 1.53-2.295 2.04-.34.238-.748.51-1.224.816-.476.306-1.258.748-2.346 1.326a9.236 9.236 0 0 1-1.785.663 5.776 5.776 0 0 1-1.836.306zm6.12-20.604a48.955 48.955 0 0 0-2.754 4.539 72.359 72.359 0 0 0-2.142 4.335c1.836-1.088 3.672-2.448 5.508-4.08a52.347 52.347 0 0 0 5.049-5.253c1.53-1.836 2.754-3.57 3.672-5.202.816-1.428 1.224-2.516 1.224-3.264 0-.578-.272-.867-.816-.867-.816 0-1.7.374-2.652 1.122-.952.748-1.887 1.683-2.805 2.805a41.742 41.742 0 0 0-2.499 3.264c-.748 1.088-1.343 1.955-1.785 2.601zm5.454 19.89c-.952 0-1.666-.272-2.142-.816-.442-.578-.663-1.292-.663-2.142 0-.952.272-2.057.816-3.315.578-1.292 1.326-2.618 2.244-3.978a29.904 29.904 0 0 1 3.009-3.774c1.122-1.19 2.244-2.142 3.366-2.856 1.122-.748 2.159-1.122 3.111-1.122.646 0 1.275.102 1.887.306.612.17 1.105.527 1.479 1.071.408.544.612 1.343.612 2.397 0 .374-.102.646-.306.816-.204.17-.391.255-.561.255-.374 0-.561-.136-.561-.408-.17-1.088-.527-1.802-1.071-2.142-.51-.34-1.003-.51-1.479-.51-.68 0-1.479.34-2.397 1.02-.918.68-1.853 1.547-2.805 2.601a34.146 34.146 0 0 0-2.703 3.417c-.816 1.19-1.479 2.346-1.989 3.468-.51 1.088-.765 1.989-.765 2.703 0 .34.051.646.153.918.136.272.34.408.612.408.51 0 1.173-.272 1.989-.816.816-.544 1.683-1.241 2.601-2.091a71.213 71.213 0 0 0 2.805-2.754 81.155 81.155 0 0 0 2.499-2.703 60.39 60.39 0 0 0 1.734-2.04c.204-.306.459-.459.765-.459.238 0 .459.085.663.255.204.17.306.391.306.663 0 .136-.051.289-.153.459-.238.374-.527.901-.867 1.581-.306.68-.629 1.411-.969 2.193a64.72 64.72 0 0 0-.816 2.193c-.204.646-.306 1.139-.306 1.479 0 .34.119.51.357.51.17 0 .374-.085.612-.255.272-.17.51-.323.714-.459a35.035 35.035 0 0 0 2.346-2.142 99.16 99.16 0 0 0 2.04-2.193.628.628 0 0 1 .51-.255c.17 0 .323.102.459.306.17.17.255.391.255.663 0 .306-.085.561-.255.765-.544.714-1.258 1.513-2.142 2.397-.884.85-1.666 1.53-2.346 2.04a13.02 13.02 0 0 1-1.581.918c-.578.272-1.139.408-1.683.408-.408 0-.748-.119-1.02-.357-.272-.272-.408-.731-.408-1.377 0-.51.085-1.088.255-1.734.17-.646.374-1.309.612-1.989a51.346 51.346 0 0 1-3.06 3.009c-1.088.986-2.142 1.819-3.162 2.499-.986.646-1.853.969-2.601.969zm19.787.255c-1.87 0-2.805-.935-2.805-2.805 0-.782.17-1.666.51-2.652.51-1.496 1.275-3.111 2.295-4.845 1.054-1.734 2.125-3.4 3.213-4.998h-1.836a.897.897 0 0 1-.663-.255 1.172 1.172 0 0 1-.204-.663c0-.204.068-.391.204-.561a.822.822 0 0 1 .663-.306h3.111c.374-.476.714-.935 1.02-1.377.306-.476.612-.935.918-1.377a22.536 22.536 0 0 1 1.734-3.519c.714-1.122 1.581-2.023 2.601-2.703.17-.102.323-.153.459-.153.272 0 .51.136.714.408.204.238.306.51.306.816 0 .238-.085.493-.255.765-.102.136-.425.561-.969 1.275a99.374 99.374 0 0 0-1.938 2.652c-.748 1.02-1.53 2.091-2.346 3.213h4.896c.306 0 .527.102.663.306.136.17.204.357.204.561 0 .238-.068.459-.204.663-.136.17-.357.255-.663.255h-6.12l-.459.714a56.808 56.808 0 0 0-1.377 2.142c-.578.986-1.207 2.074-1.887 3.264a40.182 40.182 0 0 0-1.683 3.468c-.442 1.088-.663 1.989-.663 2.703 0 .85.357 1.275 1.071 1.275.578 0 1.445-.272 2.601-.816 1.19-.578 2.363-1.36 3.519-2.346.68-.578 1.309-1.19 1.887-1.836a104.46 104.46 0 0 1 1.632-1.785.628.628 0 0 1 .51-.255c.17 0 .323.102.459.306.17.17.255.391.255.663 0 .306-.085.561-.255.765-.51.714-1.224 1.513-2.142 2.397-.884.85-1.666 1.53-2.346 2.04a14.34 14.34 0 0 1-4.182 2.142c-.918.306-1.734.459-2.448.459zm19.815-16.371c-.408 0-.782-.136-1.122-.408a1.526 1.526 0 0 1-.459-1.122c0-.476.153-.867.459-1.173.306-.306.68-.459 1.122-.459.476 0 .867.153 1.173.459.306.306.459.697.459 1.173 0 .442-.17.816-.51 1.122-.306.272-.68.408-1.122.408zm-7.548 15.3c-.442 0-.799-.119-1.071-.357-.272-.272-.408-.697-.408-1.275 0-.714.17-1.581.51-2.601.34-1.054.782-2.125 1.326-3.213a25.82 25.82 0 0 1 1.734-3.06c.646-.952 1.258-1.7 1.836-2.244a1.18 1.18 0 0 1 .867-.357c.272 0 .51.068.714.204.204.136.306.306.306.51 0 .17-.085.34-.255.51-.238.238-.544.629-.918 1.173-.34.51-.68 1.054-1.02 1.632-.34.544-.595 1.003-.765 1.377-.306.646-.646 1.377-1.02 2.193-.374.816-.646 1.479-.816 1.989-.102.34-.153.595-.153.765 0 .374.136.561.408.561.238 0 .51-.102.816-.306.306-.238.578-.442.816-.612.85-.68 1.632-1.394 2.346-2.142a99.16 99.16 0 0 0 2.04-2.193.628.628 0 0 1 .51-.255c.17 0 .323.102.459.306.17.17.255.391.255.663 0 .306-.085.561-.255.765-.51.714-1.224 1.513-2.142 2.397-.884.85-1.666 1.53-2.346 2.04-.442.34-1.037.68-1.785 1.02-.714.34-1.377.51-1.989.51zm9.464 1.428c-1.156 0-1.972-.323-2.448-.969-.476-.68-.714-1.513-.714-2.499 0-.816.119-1.7.357-2.652a22.69 22.69 0 0 1 1.02-2.907c.034-1.326.391-2.635 1.071-3.927a9.607 9.607 0 0 1 2.856-3.213c1.224-.85 2.652-1.275 4.284-1.275 1.598 0 2.703.459 3.315 1.377.646.918.969 2.006.969 3.264 0 .748-.085 1.513-.255 2.295-.17.748-.391 1.462-.663 2.142-.272.68-.612 1.377-1.02 2.091-.408.68-.867 1.36-1.377 2.04 1.02-.17 1.904-.493 2.652-.969.782-.51 1.564-1.207 2.346-2.091a68.77 68.77 0 0 0 2.754-3.366c.204-.238.425-.357.663-.357.272 0 .493.085.663.255.204.17.306.391.306.663a.878.878 0 0 1-.204.561 37.813 37.813 0 0 1-3.009 3.672 11.034 11.034 0 0 1-3.366 2.55c-1.258.612-2.771.918-4.539.918-.816.714-1.7 1.292-2.652 1.734a7.062 7.062 0 0 1-3.009.663zm2.958-13.209c-.408.306-.901.918-1.479 1.836a22.759 22.759 0 0 0-1.581 3.009c.068 1.054.493 2.006 1.275 2.856.816.816 2.057 1.275 3.723 1.377a14.128 14.128 0 0 0 2.958-4.182c.748-1.632 1.122-3.094 1.122-4.386 0-.884-.204-1.598-.612-2.142-.408-.544-1.054-.816-1.938-.816-.612 0-1.207.102-1.785.306a6.325 6.325 0 0 0-1.581.816c.17.17.255.374.255.612 0 .272-.119.51-.357.714zm-4.335 9.639c0 .544.102.986.306 1.326.238.306.595.459 1.071.459.986 0 1.989-.306 3.009-.918-.986-.238-1.819-.612-2.499-1.122-.68-.544-1.207-1.156-1.581-1.836-.204.816-.306 1.513-.306 2.091zm14.555 3.876c-.238 0-.459-.085-.663-.255-.204-.17-.306-.374-.306-.612 0-.068.034-.204.102-.408a72.152 72.152 0 0 1 1.989-3.978 89.571 89.571 0 0 1 2.091-3.57c.306-.476.646-1.088 1.02-1.836.408-.782.799-1.615 1.173-2.499.374-.918.68-1.785.918-2.601.272-.816.408-1.479.408-1.989 0-.272-.017-.459-.051-.561-.034-.034-.051-.102-.051-.204 0-.272.119-.493.357-.663.272-.204.527-.306.765-.306.272 0 .527.136.765.408.238.238.357.663.357 1.275 0 .51-.119 1.19-.357 2.04-.204.816-.561 1.802-1.071 2.958l-.765 1.632c-.238.476-.476.935-.714 1.377a37.438 37.438 0 0 1 4.08-3.723c1.394-1.122 2.635-2.006 3.723-2.652 1.088-.646 1.819-.969 2.193-.969.408 0 .697.119.867.357.17.238.255.51.255.816 0 .442-.136.952-.408 1.53a11.994 11.994 0 0 1-.765 1.479c-.272.442-.459.748-.561.918-.374.578-.884 1.445-1.53 2.601a30.31 30.31 0 0 0-1.632 3.366c-.136.374-.272.765-.408 1.173a3.767 3.767 0 0 0-.153.969c0 .442.187.663.561.663.34 0 .833-.17 1.479-.51a9.692 9.692 0 0 0 2.244-1.683l1.836-1.836c.034-.034.187-.204.459-.51.306-.306.595-.612.867-.918l.459-.459a.628.628 0 0 1 .51-.255c.17 0 .323.102.459.306.17.17.255.391.255.663 0 .306-.085.561-.255.765-.51.714-1.207 1.496-2.091 2.346a35.275 35.275 0 0 1-2.346 2.091c-.714.544-1.445.986-2.193 1.326a5.4 5.4 0 0 1-2.142.459c-.612 0-1.122-.119-1.53-.357-.408-.238-.612-.867-.612-1.887 0-1.292.323-2.567.969-3.825a47.018 47.018 0 0 1 2.244-3.723c.85-1.224 1.547-2.38 2.091-3.468-.85.51-1.989 1.292-3.417 2.346a62.984 62.984 0 0 0-4.437 3.723 33.52 33.52 0 0 0-4.182 4.59c-.238.442-.493.918-.765 1.428-.272.51-.544 1.071-.816 1.683-.306.646-.731.969-1.275.969zm22.295.51c-1.258 0-2.21-.34-2.856-1.02-.646-.646-.969-1.258-.969-1.836 0-.748.374-1.122 1.122-1.122.17 0 .34.017.51.051.17.034.357.102.561.204.714.34 1.479.595 2.295.765.85.136 1.666.221 2.448.255.306-.068.595-.51.867-1.326.272-.816.476-1.598.612-2.346a15.49 15.49 0 0 0 .153-2.193c0-1.088-.085-2.193-.255-3.315-.17-1.122-.323-2.244-.459-3.366a125.042 125.042 0 0 1-2.907 3.723 229.282 229.282 0 0 1-2.856 3.366c-.884 1.02-1.632 1.802-2.244 2.346a.692.692 0 0 1-.51.204.835.835 0 0 1-.612-.255 1.015 1.015 0 0 1-.255-.663c0-.306.119-.561.357-.765.306-.306.799-.833 1.479-1.581a82.555 82.555 0 0 0 2.295-2.652 137.486 137.486 0 0 0 2.652-3.264c.884-1.156 1.7-2.244 2.448-3.264.034-.34.068-.663.102-.969.034-.34.085-.663.153-.969.238-1.054.68-1.853 1.326-2.397.68-.578 1.275-.867 1.785-.867.612 0 .918.323.918.969 0 .476-.255 1.173-.765 2.091a96.2 96.2 0 0 0-.765 1.224c-.272.408-.578.85-.918 1.326 0 1.292.119 2.635.357 4.029.238 1.36.374 2.38.408 3.06.034.34.051.68.051 1.02.034.34.051.697.051 1.071 0 .952-.085 1.904-.255 2.856a7.345 7.345 0 0 1-.867 2.601c.918-.34 1.87-.782 2.856-1.326.986-.578 1.836-1.19 2.55-1.836.68-.578 1.309-1.19 1.887-1.836a104.46 104.46 0 0 1 1.632-1.785.628.628 0 0 1 .51-.255c.17 0 .323.102.459.306.17.17.255.391.255.663 0 .306-.085.561-.255.765-.51.714-1.224 1.513-2.142 2.397-.884.85-1.666 1.53-2.346 2.04-.884.646-1.972 1.224-3.264 1.734-1.292.51-2.618.884-3.978 1.122-.68.408-1.479.714-2.397.918a4.708 4.708 0 0 1-.663.051 3.434 3.434 0 0 1-.561.051z" fill="#58C080"/>
    <path d="M81.445 100.077c-.535 0-1.02-.092-1.452-.275a2.38 2.38 0 0 1-1.012-.792 2.085 2.085 0 0 1-.385-1.221h1.65c.022.315.132.565.33.748.206.183.484.275.836.275.36 0 .642-.084.847-.253a.857.857 0 0 0 .308-.682.782.782 0 0 0-.209-.561 1.4 1.4 0 0 0-.528-.341 7.244 7.244 0 0 0-.858-.286c-.498-.147-.905-.29-1.22-.429a2.263 2.263 0 0 1-.804-.649c-.22-.293-.33-.682-.33-1.166 0-.455.114-.85.341-1.188.227-.337.546-.594.957-.77.41-.183.88-.275 1.408-.275.792 0 1.434.194 1.925.583.499.381.774.917.825 1.606H82.38a.857.857 0 0 0-.34-.649c-.206-.176-.481-.264-.826-.264-.3 0-.543.077-.726.231-.176.154-.264.378-.264.671 0 .205.066.378.198.517.14.132.308.242.506.33.206.08.492.176.858.286.499.147.906.293 1.221.44.316.147.587.367.814.66.228.293.341.678.341 1.155 0 .41-.106.792-.319 1.144a2.29 2.29 0 0 1-.935.847c-.41.205-.898.308-1.463.308zm9.717-3.256c0 .22-.014.418-.044.594h-4.455c.037.44.19.785.462 1.034.272.25.605.374 1.001.374.572 0 .98-.246 1.221-.737h1.661a2.804 2.804 0 0 1-1.012 1.452c-.498.374-1.11.561-1.837.561a3.246 3.246 0 0 1-1.584-.385 2.833 2.833 0 0 1-1.089-1.111c-.256-.477-.385-1.027-.385-1.65 0-.63.129-1.184.385-1.661a2.686 2.686 0 0 1 1.078-1.1c.462-.257.994-.385 1.595-.385.58 0 1.097.125 1.551.374.462.25.818.605 1.067 1.067.257.455.385.979.385 1.573zm-1.595-.44c-.007-.396-.15-.711-.429-.946-.278-.242-.62-.363-1.023-.363-.381 0-.704.117-.968.352-.256.227-.414.546-.473.957h2.893zm4.26-4.521V100h-1.54v-8.14h1.54zm7.186 4.961c0 .22-.015.418-.044.594h-4.455c.037.44.19.785.462 1.034.271.25.605.374 1 .374.573 0 .98-.246 1.222-.737h1.661a2.801 2.801 0 0 1-1.012 1.452c-.499.374-1.111.561-1.837.561a3.246 3.246 0 0 1-1.584-.385 2.833 2.833 0 0 1-1.09-1.111c-.256-.477-.384-1.027-.384-1.65 0-.63.128-1.184.385-1.661a2.686 2.686 0 0 1 1.078-1.1c.462-.257.993-.385 1.595-.385.58 0 1.096.125 1.55.374.463.25.819.605 1.068 1.067.257.455.385.979.385 1.573zm-1.595-.44c-.008-.396-.15-.711-.43-.946-.278-.242-.619-.363-1.022-.363-.381 0-.704.117-.968.352-.257.227-.415.546-.473.957h2.893zm2.323.572c0-.63.128-1.18.385-1.65a2.706 2.706 0 0 1 1.067-1.1c.455-.264.975-.396 1.562-.396.755 0 1.379.19 1.87.572.499.374.832.902 1.001 1.584h-1.661a1.173 1.173 0 0 0-.451-.616c-.205-.154-.462-.231-.77-.231-.44 0-.788.161-1.045.484-.257.315-.385.766-.385 1.353 0 .58.128 1.03.385 1.353.257.315.605.473 1.045.473.623 0 1.03-.279 1.221-.836h1.661c-.169.66-.502 1.184-1.001 1.573-.499.389-1.122.583-1.87.583-.587 0-1.107-.128-1.562-.385a2.8 2.8 0 0 1-1.067-1.1c-.257-.477-.385-1.03-.385-1.661zm8.806-1.782v2.948c0 .205.048.356.143.451.103.088.271.132.506.132h.715V100h-.968c-1.298 0-1.947-.63-1.947-1.892v-2.937h-.726v-1.265h.726v-1.507h1.551v1.507h1.364v1.265h-1.364zm7.799 4.928a3.244 3.244 0 0 1-1.584-.385 2.888 2.888 0 0 1-1.111-1.111c-.264-.477-.396-1.027-.396-1.65s.136-1.173.407-1.65a2.866 2.866 0 0 1 1.133-1.1 3.236 3.236 0 0 1 1.595-.396c.587 0 1.118.132 1.595.396.477.257.851.623 1.122 1.1.279.477.418 1.027.418 1.65s-.143 1.173-.429 1.65c-.279.477-.66.847-1.144 1.111a3.333 3.333 0 0 1-1.606.385zm0-1.342a1.51 1.51 0 0 0 1.375-.814c.147-.271.22-.601.22-.99 0-.58-.154-1.023-.462-1.331a1.475 1.475 0 0 0-1.111-.473c-.44 0-.81.158-1.111.473-.293.308-.44.752-.44 1.331 0 .58.143 1.027.429 1.342.293.308.66.462 1.1.462zm7.686-4.939c.726 0 1.312.231 1.76.693.447.455.671 1.093.671 1.914V100h-1.54v-3.366c0-.484-.121-.854-.363-1.111-.242-.264-.572-.396-.99-.396-.426 0-.763.132-1.012.396-.242.257-.363.627-.363 1.111V100h-1.54v-6.094h1.54v.759a2.08 2.08 0 0 1 .781-.616 2.416 2.416 0 0 1 1.056-.231zm9.56 3.003c0 .22-.015.418-.044.594h-4.455c.037.44.191.785.462 1.034.271.25.605.374 1.001.374.572 0 .979-.246 1.221-.737h1.661a2.802 2.802 0 0 1-1.012 1.452c-.499.374-1.111.561-1.837.561a3.244 3.244 0 0 1-1.584-.385 2.833 2.833 0 0 1-1.089-1.111c-.257-.477-.385-1.027-.385-1.65 0-.63.128-1.184.385-1.661a2.688 2.688 0 0 1 1.078-1.1c.462-.257.994-.385 1.595-.385.579 0 1.096.125 1.551.374.462.25.818.605 1.067 1.067.257.455.385.979.385 1.573zm-1.595-.44c-.007-.396-.15-.711-.429-.946a1.507 1.507 0 0 0-1.023-.363c-.381 0-.704.117-.968.352-.257.227-.414.546-.473.957h2.893zm8.046 3.718a3.244 3.244 0 0 1-1.584-.385 2.888 2.888 0 0 1-1.111-1.111c-.264-.477-.396-1.027-.396-1.65s.136-1.173.407-1.65a2.866 2.866 0 0 1 1.133-1.1 3.236 3.236 0 0 1 1.595-.396c.587 0 1.118.132 1.595.396.477.257.851.623 1.122 1.1.279.477.418 1.027.418 1.65s-.143 1.173-.429 1.65c-.279.477-.66.847-1.144 1.111a3.333 3.333 0 0 1-1.606.385zm0-1.342a1.51 1.51 0 0 0 1.375-.814c.147-.271.22-.601.22-.99 0-.58-.154-1.023-.462-1.331a1.475 1.475 0 0 0-1.111-.473c-.44 0-.81.158-1.111.473-.293.308-.44.752-.44 1.331 0 .58.143 1.027.429 1.342.293.308.66.462 1.1.462zm7.103-3.586h-1.067V100h-1.562v-4.829h-.693v-1.265h.693v-.308c0-.748.212-1.298.638-1.65.425-.352 1.067-.517 1.925-.495v1.298c-.374-.007-.635.055-.781.187-.147.132-.22.37-.22.715v.253h1.067v1.265zm5.412 0v2.948c0 .205.048.356.143.451.103.088.271.132.506.132h.715V100h-.968c-1.298 0-1.947-.63-1.947-1.892v-2.937h-.726v-1.265h.726v-1.507h1.551v1.507h1.364v1.265h-1.364zm5.904-1.353c.462 0 .872.103 1.232.308.359.198.638.495.836.891.205.389.308.858.308 1.408V100h-1.54v-3.366c0-.484-.121-.854-.363-1.111-.242-.264-.572-.396-.99-.396-.426 0-.763.132-1.012.396-.242.257-.363.627-.363 1.111V100h-1.54v-8.14h1.54v2.805c.198-.264.462-.47.792-.616.33-.154.696-.231 1.1-.231zm9.505 3.003c0 .22-.015.418-.044.594h-4.455c.037.44.191.785.462 1.034.271.25.605.374 1.001.374.572 0 .979-.246 1.221-.737h1.661a2.802 2.802 0 0 1-1.012 1.452c-.499.374-1.111.561-1.837.561a3.244 3.244 0 0 1-1.584-.385 2.833 2.833 0 0 1-1.089-1.111c-.257-.477-.385-1.027-.385-1.65 0-.63.128-1.184.385-1.661a2.688 2.688 0 0 1 1.078-1.1c.462-.257.994-.385 1.595-.385.579 0 1.096.125 1.551.374.462.25.818.605 1.067 1.067.257.455.385.979.385 1.573zm-1.595-.44c-.007-.396-.15-.711-.429-.946a1.507 1.507 0 0 0-1.023-.363c-.381 0-.704.117-.968.352-.257.227-.414.546-.473.957h2.893zm4.944.55c0-.616.121-1.162.363-1.639a2.75 2.75 0 0 1 1.001-1.1 2.691 2.691 0 0 1 1.419-.385c.455 0 .851.092 1.188.275a2.4 2.4 0 0 1 .825.693v-.869h1.551V100h-1.551v-.891a2.327 2.327 0 0 1-.825.715 2.52 2.52 0 0 1-1.199.275c-.513 0-.983-.132-1.408-.396a2.831 2.831 0 0 1-1.001-1.111c-.242-.484-.363-1.038-.363-1.661zm4.796.022c0-.374-.073-.693-.22-.957a1.51 1.51 0 0 0-.594-.616 1.556 1.556 0 0 0-.803-.22c-.286 0-.55.07-.792.209-.242.14-.44.345-.594.616-.147.264-.22.58-.22.946 0 .367.073.69.22.968.154.271.352.48.594.627.249.147.513.22.792.22.286 0 .554-.07.803-.209.249-.147.447-.352.594-.616.147-.271.22-.594.22-.968zm5.596 1.628 1.54-4.675h1.639L184.632 100h-1.87l-2.244-6.094h1.65l1.54 4.675zm3.648-1.65c0-.616.121-1.162.363-1.639a2.75 2.75 0 0 1 1.001-1.1 2.691 2.691 0 0 1 1.419-.385c.455 0 .851.092 1.188.275a2.4 2.4 0 0 1 .825.693v-.869h1.551V100h-1.551v-.891a2.327 2.327 0 0 1-.825.715 2.52 2.52 0 0 1-1.199.275c-.513 0-.983-.132-1.408-.396a2.831 2.831 0 0 1-1.001-1.111c-.242-.484-.363-1.038-.363-1.661zm4.796.022c0-.374-.073-.693-.22-.957a1.51 1.51 0 0 0-.594-.616 1.556 1.556 0 0 0-.803-.22c-.286 0-.55.07-.792.209-.242.14-.44.345-.594.616-.147.264-.22.58-.22.946 0 .367.073.69.22.968.154.271.352.48.594.627.249.147.513.22.792.22.286 0 .554-.07.803-.209.249-.147.447-.352.594-.616.147-.271.22-.594.22-.968zm3.836-3.773a.97.97 0 0 1-.682-.253.882.882 0 0 1-.264-.649c0-.257.088-.47.264-.638a.948.948 0 0 1 .682-.264c.272 0 .495.088.671.264a.828.828 0 0 1 .275.638.862.862 0 0 1-.275.649.93.93 0 0 1-.671.253zm.759.726V100h-1.54v-6.094h1.54zm3.062-2.046V100h-1.54v-8.14h1.54zm1.125 5.071c0-.616.121-1.162.363-1.639.25-.477.583-.843 1.001-1.1a2.696 2.696 0 0 1 1.419-.385c.455 0 .851.092 1.188.275a2.4 2.4 0 0 1 .825.693v-.869h1.551V100h-1.551v-.891a2.327 2.327 0 0 1-.825.715c-.344.183-.744.275-1.199.275a2.62 2.62 0 0 1-1.408-.396 2.839 2.839 0 0 1-1.001-1.111c-.242-.484-.363-1.038-.363-1.661zm4.796.022c0-.374-.073-.693-.22-.957a1.497 1.497 0 0 0-.594-.616 1.556 1.556 0 0 0-.803-.22c-.286 0-.55.07-.792.209-.242.14-.44.345-.594.616-.146.264-.22.58-.22.946 0 .367.074.69.22.968.154.271.352.48.594.627.25.147.514.22.792.22.286 0 .554-.07.803-.209.25-.147.448-.352.594-.616.147-.271.22-.594.22-.968zm4.595-2.156c.198-.293.47-.532.814-.715a2.558 2.558 0 0 1 1.199-.275 2.636 2.636 0 0 1 2.409 1.485c.25.47.374 1.016.374 1.639s-.124 1.177-.374 1.661a2.723 2.723 0 0 1-1.001 1.111 2.58 2.58 0 0 1-1.408.396c-.454 0-.854-.088-1.199-.264a2.393 2.393 0 0 1-.814-.704V100h-1.54v-8.14h1.54v2.937zm3.223 2.134c0-.367-.077-.682-.231-.946a1.56 1.56 0 0 0-1.386-.825 1.603 1.603 0 0 0-1.386.836 1.99 1.99 0 0 0-.22.957c0 .367.074.686.22.957.154.271.352.48.594.627.25.14.514.209.792.209a1.5 1.5 0 0 0 .792-.22c.25-.147.448-.356.594-.627.154-.271.231-.594.231-.968zm4.232-5.071V100h-1.54v-8.14h1.54zm7.187 4.961c0 .22-.015.418-.044.594h-4.455c.037.44.191.785.462 1.034.271.25.605.374 1.001.374.572 0 .979-.246 1.221-.737h1.661a2.802 2.802 0 0 1-1.012 1.452c-.499.374-1.111.561-1.837.561a3.244 3.244 0 0 1-1.584-.385 2.833 2.833 0 0 1-1.089-1.111c-.257-.477-.385-1.027-.385-1.65 0-.63.128-1.184.385-1.661a2.688 2.688 0 0 1 1.078-1.1c.462-.257.994-.385 1.595-.385.579 0 1.096.125 1.551.374.462.25.818.605 1.067 1.067.257.455.385.979.385 1.573zm-1.595-.44c-.007-.396-.15-.711-.429-.946a1.507 1.507 0 0 0-1.023-.363c-.381 0-.704.117-.968.352-.257.227-.414.546-.473.957h2.893zm8.134-1.21h-1.067V100h-1.562v-4.829h-.693v-1.265h.693v-.308c0-.748.213-1.298.638-1.65.425-.352 1.067-.517 1.925-.495v1.298c-.374-.007-.634.055-.781.187-.147.132-.22.37-.22.715v.253h1.067v1.265zm2.538-.319c.198-.323.455-.576.77-.759a2.187 2.187 0 0 1 1.1-.275v1.617h-.407c-.484 0-.851.114-1.1.341-.242.227-.363.623-.363 1.188V100h-1.54v-6.094h1.54v.946zm8.572 1.969c0 .22-.014.418-.044.594h-4.455c.037.44.191.785.462 1.034.272.25.605.374 1.001.374.572 0 .979-.246 1.221-.737h1.661a2.802 2.802 0 0 1-1.012 1.452c-.498.374-1.111.561-1.837.561a3.25 3.25 0 0 1-1.584-.385 2.833 2.833 0 0 1-1.089-1.111c-.256-.477-.385-1.027-.385-1.65 0-.63.129-1.184.385-1.661a2.688 2.688 0 0 1 1.078-1.1c.462-.257.994-.385 1.595-.385.58 0 1.097.125 1.551.374.462.25.818.605 1.067 1.067.257.455.385.979.385 1.573zm-1.595-.44c-.007-.396-.15-.711-.429-.946-.278-.242-.619-.363-1.023-.363-.381 0-.704.117-.968.352-.256.227-.414.546-.473.957h2.893zm8.384.44c0 .22-.014.418-.044.594h-4.455c.037.44.191.785.462 1.034.272.25.605.374 1.001.374.572 0 .979-.246 1.221-.737h1.661a2.802 2.802 0 0 1-1.012 1.452c-.498.374-1.111.561-1.837.561a3.25 3.25 0 0 1-1.584-.385 2.833 2.833 0 0 1-1.089-1.111c-.256-.477-.385-1.027-.385-1.65 0-.63.129-1.184.385-1.661a2.688 2.688 0 0 1 1.078-1.1c.462-.257.994-.385 1.595-.385.58 0 1.097.125 1.551.374.462.25.818.605 1.067 1.067.257.455.385.979.385 1.573zm-1.595-.44c-.007-.396-.15-.711-.429-.946-.278-.242-.619-.363-1.023-.363-.381 0-.704.117-.968.352-.256.227-.414.546-.473.957h2.893zm7.728-2.574c.454 0 .854.092 1.199.275.344.176.616.407.814.693v-.869h1.551v6.138c0 .565-.114 1.067-.341 1.507a2.501 2.501 0 0 1-1.023 1.056c-.455.264-1.005.396-1.65.396-.866 0-1.577-.202-2.134-.605-.55-.403-.862-.953-.935-1.65h1.529c.08.279.253.499.517.66.271.169.597.253.979.253.447 0 .81-.136 1.089-.407.278-.264.418-.667.418-1.21v-.946a2.327 2.327 0 0 1-.825.715 2.412 2.412 0 0 1-1.188.286c-.514 0-.983-.132-1.408-.396a2.797 2.797 0 0 1-1.012-1.111c-.242-.484-.363-1.038-.363-1.661 0-.616.121-1.162.363-1.639a2.75 2.75 0 0 1 1.001-1.1 2.691 2.691 0 0 1 1.419-.385zm2.013 3.146c0-.374-.074-.693-.22-.957a1.51 1.51 0 0 0-.594-.616 1.559 1.559 0 0 0-.803-.22c-.286 0-.55.07-.792.209-.242.14-.44.345-.594.616-.147.264-.22.58-.22.946 0 .367.073.69.22.968.154.271.352.48.594.627.249.147.513.22.792.22.286 0 .553-.07.803-.209.249-.147.447-.352.594-.616.146-.271.22-.594.22-.968zm3.836-3.773a.968.968 0 0 1-.682-.253.882.882 0 0 1-.264-.649c0-.257.088-.47.264-.638a.945.945 0 0 1 .682-.264.91.91 0 0 1 .671.264.831.831 0 0 1 .275.638.866.866 0 0 1-.275.649.93.93 0 0 1-.671.253zm.759.726V100h-1.54v-6.094h1.54zm4.315 1.265h-1.067V100h-1.562v-4.829h-.693v-1.265h.693v-.308c0-.748.213-1.298.638-1.65.426-.352 1.067-.517 1.925-.495v1.298c-.374-.007-.634.055-.781.187-.146.132-.22.37-.22.715v.253h1.067v1.265zm2.791 0v2.948c0 .205.048.356.143.451.103.088.272.132.506.132h.715V100h-.968c-1.298 0-1.947-.63-1.947-1.892v-2.937h-.726v-1.265h.726v-1.507h1.551v1.507h1.364v1.265h-1.364z" fill="#253060"/>
</svg>