<svg xmlns="http://www.w3.org/2000/svg" width="15" height="15" viewBox="0 0 15 15">
    <g fill="none" fill-rule="evenodd">
        <g fill="#FFF" fill-rule="nonzero">
            <g>
                <g>
                    <g>
                        <path d="M10.207 2.762H1.531C.685 2.762 0 3.447 0 4.293v8.676c0 .846.685 1.531 1.531 1.531h8.676c.846 0 1.531-.685 1.531-1.531V4.293c0-.846-.685-1.531-1.531-1.531zm.51 10.207c0 .282-.228.51-.51.51H1.531c-.282 0-.51-.228-.51-.51V4.293c0-.282.228-.51.51-.51h8.676c.282 0 .51.228.51.51v8.676z" transform="translate(-164 -457) translate(16 190) translate(8 261) translate(140.25 6.444)"/>
                        <path d="M12.946 0H3.625c-.858 0-1.554.696-1.554 1.554 0 .286.232.517.518.517.286 0 .518-.231.518-.517 0-.286.232-.518.518-.518h9.321c.286 0 .518.232.518.518v9.321c0 .286-.232.518-.518.518-.286 0-.517.232-.517.518 0 .286.231.518.517.518.858 0 1.554-.696 1.554-1.554V1.554C14.5.696 13.804 0 12.946 0z" transform="translate(-164 -457) translate(16 190) translate(8 261) translate(140.25 6.444)"/>
                    </g>
                </g>
            </g>
        </g>
    </g>
</svg>
