<svg xmlns="http://www.w3.org/2000/svg" width="15" height="15" viewBox="0 0 15 15">
    <g fill="#00000">
        <path d="M9.799 2.651h-8.33C.66 2.651 0 3.31 0 4.121v8.33c0 .81.658 1.469 1.47 1.469h8.329c.812 0 1.47-.658 1.47-1.47V4.121c0-.812-.658-1.47-1.47-1.47zm.49 9.8c0 .27-.22.49-.49.49h-8.33c-.27 0-.49-.22-.49-.49V4.12c0-.27.22-.49.49-.49H9.8c.27 0 .49.22.49.49v8.33z" transform="translate(.48 .187)"/>
        <path d="M12.429 0H3.48c-.824 0-1.491.668-1.491 1.491 0 .275.222.498.497.498.274 0 .497-.223.497-.498 0-.274.222-.497.497-.497h8.949c.274 0 .497.223.497.497v8.949c0 .275-.223.497-.497.497-.275 0-.498.223-.498.497 0 .275.223.497.498.497.823 0 1.491-.667 1.491-1.491V1.491C13.92.668 13.252 0 12.429 0z" transform="translate(.48 .187)"/>
    </g>
</svg>
