<svg width="22" height="17" viewBox="0 0 22 17" fill="none" xmlns="http://www.w3.org/2000/svg">
<path fill-rule="evenodd" clip-rule="evenodd" d="M16.7869 10.7199C17.4187 10.3212 18.2406 10.3212 18.8673 10.7199C19.7149 11.2578 19.9409 12.3384 19.3656 13.1308C18.7903 13.9232 17.6344 14.1346 16.7869 13.5967C16.4786 13.7936 16.1191 13.8944 15.7492 13.8944C14.7218 13.8944 13.8948 13.1116 13.8948 12.1559C13.8948 11.2001 14.7218 10.4221 15.7492 10.4221C16.1191 10.4221 16.4786 10.523 16.7869 10.7199ZM17.2903 12.7563C17.6396 13.03 18.1584 12.9868 18.4512 12.6602C18.744 12.3336 18.6978 11.8486 18.3485 11.5748C17.9992 11.3011 17.4803 11.3443 17.1875 11.6709C17.1619 11.6997 17.1362 11.7237 17.1105 11.7429C16.8896 11.911 16.566 11.8774 16.3862 11.6709C16.2321 11.4932 15.9958 11.3875 15.7492 11.3875C15.2869 11.3875 14.917 11.7333 14.9222 12.1656C14.9222 12.593 15.2972 12.9388 15.7543 12.9388C16.0009 12.9436 16.2372 12.8379 16.3913 12.6602C16.4889 12.5498 16.6328 12.4873 16.7869 12.4873C16.9358 12.4825 17.0848 12.545 17.1824 12.6554C17.1839 12.657 17.1854 12.6586 17.1869 12.6602C17.221 12.6967 17.2509 12.7287 17.2903 12.7563Z" fill="#DABD63"/>
<path fill-rule="evenodd" clip-rule="evenodd" d="M21.9892 6.31114L21.9893 6.31113L21.9893 6.3111C21.9945 6.28548 22 6.25916 22 6.23284C22 6.20653 21.9945 6.18156 21.9893 6.15725L21.9893 6.15723L21.9892 6.15721C21.9842 6.13415 21.9793 6.11168 21.9793 6.08921V4.99141C21.9793 3.78588 20.9836 2.82145 19.7711 2.82145H19.1416V2.20073C19.1416 0.995203 18.1768 0 16.9643 0H2.18763C0.975159 0 2.03801e-05 0.995203 2.03801e-05 2.20073V11.2191C-0.00513909 12.4144 0.97 13.3839 2.17216 13.3891H2.18763H2.78613V14.0098C2.79129 15.2205 3.77159 16.2054 4.98922 16.2105H19.7711C20.9887 16.2003 21.9742 15.2205 21.9793 14.0098V8.78754C21.9793 8.76446 21.9845 8.74009 21.9897 8.71572C21.9948 8.69136 22 8.66699 22 8.6439C22 8.62082 21.9948 8.59645 21.9897 8.57208C21.9845 8.54772 21.9793 8.52335 21.9793 8.50027V6.38161C21.9793 6.35914 21.9842 6.33545 21.9892 6.31114ZM2.78599 4.99157V12.3633H2.18749C1.55804 12.3684 1.03693 11.8657 1.03177 11.2398V11.2244V2.2009C1.03177 1.56479 1.54256 1.02615 2.18749 1.02615H16.9694C17.6143 1.02615 18.1148 1.56479 18.1148 2.2009V2.82162H4.98908C3.77661 2.82162 2.78599 3.78604 2.78599 4.99157ZM19.771 15.1844C20.421 15.1793 20.9422 14.656 20.9473 14.0097V9.13113H3.81789V14.0097C3.81789 14.656 4.339 15.1793 4.98909 15.1844H19.771ZM20.9473 8.10538H3.81789V6.77161H20.9473V8.10538ZM20.9473 5.74569H20.9525V4.99159C20.9525 4.35035 20.421 3.84762 19.7761 3.84762H4.99425H4.98909C4.34416 3.84249 3.82305 4.35548 3.81789 4.99159V5.74569H20.9473Z" fill="#DABD63"/>
</svg>
