<svg width="12" height="12" viewBox="0 0 12 12" fill="none" xmlns="http://www.w3.org/2000/svg">
<path fill-rule="evenodd" clip-rule="evenodd" d="M5.9999 11.6004C7.48511 11.6004 8.9095 11.0104 9.9597 9.96019C11.0099 8.90999 11.5999 7.4856 11.5999 6.00039C11.5999 4.51518 11.0099 3.0908 9.9597 2.04059C8.9095 0.990389 7.48511 0.400391 5.9999 0.400391C4.51469 0.400391 3.09031 0.990389 2.0401 2.04059C0.989901 3.0908 0.399902 4.51518 0.399902 6.00039C0.399902 7.4856 0.989901 8.90999 2.0401 9.96019C3.09031 11.0104 4.51469 11.6004 5.9999 11.6004V11.6004ZM4.7959 4.05439C4.69638 3.96165 4.56475 3.91117 4.42874 3.91357C4.29273 3.91597 4.16296 3.97107 4.06677 4.06726C3.97058 4.16344 3.91548 4.29321 3.91308 4.42922C3.91068 4.56524 3.96117 4.69687 4.0539 4.79639L5.2579 6.00039L4.0539 7.20439C4.00232 7.25245 3.96095 7.31041 3.93226 7.37481C3.90356 7.43921 3.88813 7.50873 3.88689 7.57923C3.88564 7.64972 3.89861 7.71974 3.92502 7.78511C3.95142 7.85048 3.99072 7.90986 4.04058 7.95972C4.09043 8.00957 4.14981 8.04887 4.21518 8.07528C4.28056 8.10168 4.35058 8.11465 4.42107 8.1134C4.49156 8.11216 4.56108 8.09673 4.62548 8.06804C4.68988 8.03934 4.74784 7.99797 4.7959 7.94639L5.9999 6.74239L7.2039 7.94639C7.25197 7.99797 7.30993 8.03934 7.37433 8.06804C7.43873 8.09673 7.50824 8.11216 7.57874 8.1134C7.64923 8.11465 7.71925 8.10168 7.78462 8.07528C7.84999 8.04887 7.90938 8.00957 7.95923 7.95972C8.00908 7.90986 8.04838 7.85048 8.07479 7.78511C8.10119 7.71974 8.11416 7.64972 8.11292 7.57923C8.11167 7.50873 8.09624 7.43921 8.06755 7.37481C8.03885 7.31041 7.99748 7.25245 7.9459 7.20439L6.7419 6.00039L7.9459 4.79639C8.03864 4.69687 8.08912 4.56524 8.08673 4.42922C8.08433 4.29321 8.02923 4.16344 7.93304 4.06726C7.83685 3.97107 7.70708 3.91597 7.57107 3.91357C7.43506 3.91117 7.30342 3.96165 7.2039 4.05439L5.9999 5.25839L4.7959 4.05439Z" fill="#000"/>
</svg>
