<svg width="20" height="20" viewBox="0 0 20 20" fill="none" xmlns="http://www.w3.org/2000/svg">
    <path clip-rule="evenodd" d="M1 1h18v18H1V1z" stroke="#fff" stroke-opacity=".02" stroke-width=".5"/>
    <path d="M8.717 8.147c.137 0 .248.133.248.296v5.585c0 .163-.11.296-.248.296-.136 0-.247-.133-.247-.296V8.443c0-.163.11-.296.247-.296zM12.183 8.147c.136 0 .247.133.247.296v5.585c0 .163-.11.296-.247.296s-.248-.133-.248-.296V8.443c0-.163.111-.296.248-.296z" fill="#949494"/>
    <path fill-rule="evenodd" clip-rule="evenodd" d="M14.59 14.722v-7.27c.529-.146.872-.675.8-1.236a1.104 1.104 0 0 0-1.08-.981h-1.462v-.37a1.18 1.18 0 0 0-.33-.826 1.103 1.103 0 0 0-.8-.339H9.182c-.3-.002-.59.12-.801.339a1.18 1.18 0 0 0-.33.827v.369H6.591c-.548 0-1.01.42-1.082.981-.07.561.272 1.09.802 1.235v7.27c0 .43.152.834.419 1.123.264.29.633.455 1.02.456h5.4c.387 0 .755-.165 1.02-.456.267-.29.42-.693.42-1.122zm-1.44.988h-5.4c-.488 0-.868-.433-.868-.989V7.478h7.137v7.245c0 .555-.38.988-.868.988zm-.873-10.844a.578.578 0 0 0-.162-.41.54.54 0 0 0-.398-.166H9.183a.54.54 0 0 0-.398.166.578.578 0 0 0-.162.41v.369h3.654v-.37zm-5.686.959h7.718c.284 0 .514.238.514.531 0 .293-.23.531-.514.531H6.591a.523.523 0 0 1-.514-.531c0-.293.23-.531.514-.531z" fill="#949494"/>
    <path d="M10.45 8.147c.136 0 .247.133.247.296v5.585c0 .163-.11.296-.247.296s-.248-.133-.248-.296V8.443c0-.163.111-.296.248-.296z" fill="#949494"/>
</svg>
