<svg xmlns="http://www.w3.org/2000/svg" width="22" height="22" viewBox="0 0 20 20">
    <g fill="none" fill-rule="evenodd">
        <path stroke="#FFF" stroke-opacity=".02" stroke-width=".5" d="M1 1h18v18H1z"/>
        <g fill="#949494" fill-rule="nonzero">
            <path d="M8.717 8.147c.137 0 .248.132.248.296v5.585c0 .163-.11.296-.247.296s-.248-.133-.248-.296V8.443c0-.164.11-.296.248-.296zM12.183 8.147c.136 0 .247.132.247.296v5.585c0 .163-.11.296-.247.296s-.248-.133-.248-.296V8.443c0-.164.11-.296.248-.296z"/>
            <path d="M14.59 7.451v7.27c0 .43-.153.834-.42 1.123-.265.29-.633.455-1.02.456h-5.4c-.387 0-.756-.166-1.02-.456a1.659 1.659 0 0 1-.42-1.123v-7.27c-.529-.145-.872-.674-.8-1.235.07-.562.533-.981 1.08-.982h1.462v-.368a1.18 1.18 0 0 1 .33-.828c.212-.219.5-.34.8-.338h2.535c.3-.002.59.12.802.338.212.22.33.517.329.828v.368h1.461c.548 0 1.01.42 1.082.982.07.561-.272 1.09-.802 1.235zM7.75 15.71h5.4c.489 0 .868-.434.868-.989V7.477H6.882v7.244c0 .555.38.989.867.989zm4.527-10.844a.578.578 0 0 0-.162-.41.54.54 0 0 0-.398-.166H9.183a.54.54 0 0 0-.398.166.578.578 0 0 0-.162.41v.368h3.654v-.368zm2.032.959H6.591a.523.523 0 0 0-.514.53c0 .294.23.532.514.532h7.718a.523.523 0 0 0 .514-.531.523.523 0 0 0-.514-.531z"/>
            <path d="M10.45 8.147c.137 0 .248.132.248.296v5.585c0 .163-.111.296-.248.296s-.247-.133-.247-.296V8.443c0-.164.11-.296.247-.296z"/>
        </g>
    </g>
</svg>
