<svg width="18" height="14" viewBox="0 0 18 14" fill="none" xmlns="http://www.w3.org/2000/svg">
    <path fill-rule="evenodd" clip-rule="evenodd" d="M0 3.574C0 1.6 1.564 0 3.493 0c1.93 0 3.494 1.6 3.494 3.574 0 1.974-1.564 3.574-3.494 3.574C1.564 7.148 0 5.548 0 3.574zm9.925-1.268H7.248c.131.4.2.827.2 1.27 0 2.23-1.774 4.046-3.955 4.046-.397 0-.783-.061-1.146-.172v2.612c0 .13.104.236.231.236h7.81a.234.234 0 0 0 .23-.236V3.015a.7.7 0 0 0-.693-.71zm7.815 8.7h-.562V7.792c0-.376-.11-.745-.316-1.057l-1.407-2.132a1.839 1.839 0 0 0-1.532-.833h-2.181a.467.467 0 0 0-.463.473v6.761H7.707c.34.3.573.719.64 1.192h3.767c.133-.939.924-1.665 1.878-1.665.954 0 1.742.726 1.876 1.665h1.872a.234.234 0 0 0 .23-.237v-.718a.234.234 0 0 0-.23-.237zM15.438 7.16H12.56a.233.233 0 0 1-.23-.236V5.29c0-.13.103-.236.23-.236h1.754c.076 0 .146.038.19.099l1.125 1.636c.106.156-.003.371-.19.371zm-2.883 5.317c0-.814.642-1.473 1.437-1.473.792 0 1.437.66 1.437 1.473 0 .81-.645 1.47-1.437 1.47-.795 0-1.437-.66-1.437-1.47zm1.437.735a.728.728 0 0 1-.719-.736c0-.406.321-.735.719-.735.397 0 .718.329.718.735a.728.728 0 0 1-.718.736zM1.778 11.24c0-.13.104-.236.231-.236H5.23c-.337.3-.57.718-.637 1.191H2.009a.234.234 0 0 1-.23-.236v-.719zm4.69-.236c-.792 0-1.436.66-1.436 1.473 0 .81.644 1.47 1.437 1.47.795 0 1.437-.66 1.437-1.47 0-.813-.642-1.473-1.437-1.473zm-.718 1.472c0 .405.321.736.719.736.397 0 .718-.331.718-.736a.726.726 0 0 0-.718-.735.726.726 0 0 0-.719.735zM3.493 6.335C2.003 6.335.795 5.1.795 3.575.795 2.05 2.003.812 3.493.812S6.192 2.05 6.192 3.574c0 1.525-1.208 2.761-2.699 2.761zm.94-2.19a.343.343 0 0 0 .425-.25.356.356 0 0 0-.244-.435l-.87-.24V1.72a.35.35 0 0 0-.346-.355.35.35 0 0 0-.347.355v1.773c0 .16.105.3.257.342l1.125.31z" fill="#FF9797"/>
</svg>
