<svg xmlns="http://www.w3.org/2000/svg" width="24" height="20" viewBox="0 0 24 20">
    <g fill="#BABBBE" fill-rule="nonzero">
        <path d="M4.37 1.176h14.91c.028 0 .055 0 .078.002l2.684 4.95a.573.573 0 0 0 .786.23.594.594 0 0 0 .227-.798L20.395.656C20.325.128 19.902 0 19.28 0H4.371c-.61 0-1.028.123-1.112.626L.097 5.456a.595.595 0 0 0 .16.815c.266.18.625.107.802-.163l3.228-4.93.084-.002z"/>
        <path d="M11.289 18.492c.122.15.492.189.547.12l9.887-11.987H1.407l9.882 11.867zM.246 7.05c-.35-.427-.332-.97.088-1.304.26-.208.636-.298 1.072-.298H21.72c.436 0 .812.09 1.072.298.42.334.437.877.087 1.306L12.724 19.367c-.556.68-1.77.552-2.319-.116L.245 7.05z"/>
        <path d="M12.84 19.016l4.352-17.541a.59.59 0 0 0-.419-.714.577.577 0 0 0-.702.426l-4.353 17.541a.59.59 0 0 0 .42.714c.309.08.623-.11.701-.426z"/>
        <path d="M6.467 1.467l4.143 17.765a.578.578 0 0 0 .696.436.589.589 0 0 0 .43-.708L7.591 1.195A.578.578 0 0 0 6.896.76a.589.589 0 0 0-.429.708z"/>
    </g>
</svg>
