<svg xmlns="http://www.w3.org/2000/svg" width="24" height="24" viewBox="0 0 24 24">
    <g fill="none" fill-rule="evenodd">
        <path fill="var(--color1)" d="M11.875.375a.976.976 0 0 0-.353.066c-.227.087-.422.253-.589.428-.196.205-.37.437-.544.662-.336.43-.729.923-1.27 1.084-.543.16-1.138-.04-1.65-.219-.268-.093-.538-.194-.813-.26-.234-.055-.487-.089-.725-.038a.981.981 0 0 0-.593.385c-.145.198-.22.443-.267.682-.055.28-.077.57-.103.853-.052.546-.118 1.175-.488 1.606-.37.43-.978.587-1.505.716-.275.067-.556.13-.823.225-.227.08-.457.19-.63.363a.993.993 0 0 0-.293.648c-.016.245.053.493.14.719.104.265.241.52.37.774.25.487.53 1.053.45 1.617-.08.565-.508 1.028-.882 1.424-.195.207-.398.413-.572.638-.147.192-.282.41-.336.65a1.003 1.003 0 0 0 .1.705c.119.215.31.385.504.528.23.166.482.307.727.45.47.273 1.009.596 1.244 1.114.234.52.123 1.142.02 1.68-.054.28-.113.564-.139.848-.021.242-.018.5.065.73a.996.996 0 0 0 .463.538c.214.117.465.156.706.17.282.014.57-.005.852-.019.542-.026 1.168-.049 1.643.26.476.308.715.892.917 1.401.105.265.207.537.338.79.111.215.252.43.445.578a.982.982 0 0 0 .678.2c.242-.018.475-.122.684-.242.246-.142.477-.315.707-.48.442-.318.957-.68 1.522-.68.565 0 1.08.362 1.522.68.23.165.461.338.707.48.209.12.442.224.684.243a.976.976 0 0 0 .678-.2c.194-.15.334-.364.445-.58.131-.252.233-.524.338-.789.202-.509.441-1.093.917-1.401.475-.309 1.101-.286 1.643-.26.283.014.57.033.852.018.24-.013.492-.052.706-.169a.986.986 0 0 0 .463-.538c.083-.23.086-.488.065-.73-.026-.284-.085-.568-.14-.848-.102-.538-.213-1.16.021-1.68.235-.518.774-.84 1.244-1.115.245-.142.497-.283.727-.45.195-.142.385-.312.503-.527a1.001 1.001 0 0 0 .1-.705c-.053-.24-.188-.458-.335-.65-.174-.225-.377-.431-.572-.638-.374-.396-.802-.859-.882-1.424-.08-.564.2-1.13.45-1.617.129-.253.266-.509.37-.774.088-.226.156-.474.14-.72a1 1 0 0 0-.293-.647c-.173-.173-.403-.282-.63-.363-.267-.095-.548-.158-.823-.225-.527-.129-1.134-.285-1.505-.716-.37-.431-.436-1.06-.488-1.606-.027-.284-.048-.573-.103-.853-.047-.239-.122-.484-.267-.682a.989.989 0 0 0-.593-.385c-.239-.05-.49-.017-.725.039-.275.065-.545.166-.812.26-.513.178-1.108.378-1.65.218-.542-.161-.935-.654-1.27-1.084-.175-.225-.349-.457-.545-.662-.167-.175-.362-.34-.59-.428a.976.976 0 0 0-.352-.066"/>
        <path fill="#FFF" d="M9.335 11.875c1.195 0 1.984-1.03 1.984-2.25V9.6c0-1.207-.777-2.225-1.96-2.225-1.183 0-1.984 1.018-1.984 2.25v.025c0 1.207.789 2.225 1.96 2.225zm-.693 3.972c0 .277.203.49.466.49a.483.483 0 0 0 .418-.226l5.486-7.881a.587.587 0 0 0 .108-.327.481.481 0 0 0-.478-.49.45.45 0 0 0-.406.226L8.749 15.52a.588.588 0 0 0-.107.327zm5.749.528c1.183 0 1.984-1.03 1.984-2.25V14.1c0-1.207-.789-2.225-1.96-2.225-1.183 0-1.984 1.018-1.984 2.25v.025c0 1.207.789 2.225 1.96 2.225zm-5.032-5.468c-.538 0-.92-.565-.92-1.282V9.6c0-.679.334-1.257.896-1.257.538 0 .92.578.92 1.282v.025c0 .679-.334 1.257-.896 1.257zm5.056 4.5c-.538 0-.92-.565-.92-1.282V14.1c0-.679.334-1.257.896-1.257.538 0 .92.578.92 1.282v.025c0 .679-.334 1.257-.896 1.257z"/>
    </g>
</svg>
