<svg xmlns="http://www.w3.org/2000/svg" xmlns:xlink="http://www.w3.org/1999/xlink" width="72" height="89" viewBox="0 0 72 89">
    <defs>
        <rect id="a" width="58.454" height="58.454" rx="1"/>
    </defs>
    <g fill="none" fill-rule="evenodd">
        <path fill="#FFF" fill-rule="nonzero" stroke="#FF9797" stroke-width="2" d="M30.267 3.508c1.518 1.643 5.266 7.782 5.623 12.647h.221c.36-4.865 4.108-11.004 5.622-12.647 3.076-3.34 8.436-3.34 11.509 0 3.163 3.438 3.163 9.032.004 12.47l-.168.176H60c6.075 0 11 4.926 11 11v49.444c0 6.075-4.925 11-11 11H12c-6.075 0-11-4.925-11-11V27.155c0-6.075 4.925-11 11-11l6.924-.001a8.206 8.206 0 0 1-.166-.176c-3.167-3.438-3.167-9.032 0-12.47 3.076-3.348 8.437-3.34 11.51 0zm-8.49 2.43c-1.724 1.833-1.724 4.822 0 6.655.991 1.055 3.123 2.497 5.306 3.562h5.636c-.294-2.55-2.503-7.855-4.721-10.217-1.655-1.769-4.55-1.777-6.22 0zm25.335-1.33c-1.17 0-2.275.485-3.108 1.368-2.218 2.353-4.426 7.637-4.723 10.18h5.647c2.18-1.062 4.308-2.496 5.297-3.546 1.72-1.827 1.72-4.806 0-6.634-.834-.883-1.938-1.368-3.113-1.368z"/>
        <use fill="#FFF" transform="translate(6.773 22.65)" xlink:href="#a"/>
    </g>
</svg>
