<svg version="1.0" xmlns="http://www.w3.org/2000/svg" width="20px" height="20px" viewBox="0 0 15.000000 16.000000" preserveAspectRatio="xMidYMid meet"><g transform="translate(0.000000,16.000000) scale(0.100000,-0.100000)" fill="#000000" stroke="none"><path d="M17 143 c-14 -14 -6 -64 13 -80 11 -10 20 -23 20 -30 0 -20 37 -35 59 -24 20 11 36 55 26 72 -11 17 -25 -2 -19 -25 3 -14 -1 -27 -11 -36 -13 -11 -19 -11 -32 3 -16 15 -15 18 5 40 12 13 22 35 22 50 0 26 -16 45 -28 32 -3 -3 0 -10 7 -14 17 -11 7 -59 -14 -68 -9 -3 -22 0 -30 7 -17 14 -21 60 -5 60 6 0 10 5 10 10 0 11 -13 13 -23 3z"></path></g></svg>