<svg xmlns="http://www.w3.org/2000/svg" width="9" height="8" viewBox="0 0 9 8">
    <g fill="none" fill-rule="evenodd">
        <g fill="#9675DC" fill-rule="nonzero">
            <g>
                <g>
                    <path d="M4.167 0C1.865 0 0 1.79 0 4s1.865 4 4.167 4c2.301 0 4.166-1.79 4.166-4S6.468 0 4.167 0zM6.16 4.321L3.675 5.963c-.07.045-.15.068-.23.068-.065 0-.13-.015-.19-.044-.133-.068-.216-.2-.216-.346V2.36c0-.145.083-.278.217-.346.133-.067.295-.058.419.024L6.16 3.68c.11.073.176.193.176.321s-.066.248-.176.321z" transform="translate(-196 -362) translate(155 362) translate(41.667)"/>
                </g>
            </g>
        </g>
    </g>
</svg>
