<svg width="13" height="13" viewBox="0 0 13 13" fill="none" xmlns="http://www.w3.org/2000/svg">
<path d="M6.07305 9.01591L6.07309 9.01595C6.12799 9.07403 6.19418 9.12029 6.26758 9.15191C6.34099 9.18353 6.42007 9.19984 6.5 9.19984C6.57993 9.19984 6.65901 9.18353 6.73242 9.15191C6.80583 9.12029 6.87201 9.07403 6.92692 9.01595L6.92695 9.01591L9.68945 6.09091L9.68947 6.09093L9.69087 6.08938C9.79403 5.97549 9.84847 5.82571 9.8425 5.67216C9.83653 5.5186 9.77064 5.3735 9.65895 5.26796C9.54726 5.16241 9.39866 5.10483 9.24501 5.10756C9.09137 5.11029 8.94491 5.17311 8.83703 5.28255L8.83702 5.28253L8.83555 5.28409L7.0875 7.13507V1.7875C7.0875 1.63169 7.0256 1.48225 6.91543 1.37207C6.80525 1.2619 6.65582 1.2 6.5 1.2C6.34419 1.2 6.19475 1.2619 6.08458 1.37207C5.9744 1.48225 5.9125 1.63169 5.9125 1.7875V7.13507L4.16514 5.28481C4.11278 5.22723 4.04951 5.18062 3.97898 5.14769C3.90813 5.11461 3.83139 5.09601 3.75325 5.09297C3.67512 5.08994 3.59716 5.10253 3.52396 5.13001C3.45075 5.15749 3.38377 5.19931 3.32694 5.25302C3.2701 5.30672 3.22456 5.37123 3.19298 5.44277C3.1614 5.5143 3.14442 5.59142 3.14304 5.6696C3.14165 5.74778 3.15588 5.82545 3.1849 5.89806C3.21378 5.97033 3.25673 6.03613 3.31126 6.09166L6.07305 9.01591Z" fill="white" stroke="white" stroke-width="0.2"/>
<path d="M2.375 8.2875C2.375 8.13168 2.3131 7.98225 2.20292 7.87207C2.09275 7.7619 1.94331 7.7 1.7875 7.7C1.63168 7.7 1.48225 7.7619 1.37207 7.87207C1.2619 7.98225 1.2 8.13168 1.2 8.2875V9.9125C1.2 10.4131 1.39886 10.8932 1.75284 11.2472C2.10681 11.6011 2.5869 11.8 3.0875 11.8H9.9125C10.4131 11.8 10.8932 11.6011 11.2472 11.2472C11.6011 10.8932 11.8 10.4131 11.8 9.9125V8.2875C11.8 8.13168 11.7381 7.98225 11.6279 7.87207C11.5177 7.7619 11.3683 7.7 11.2125 7.7C11.0567 7.7 10.9072 7.7619 10.7971 7.87207C10.6869 7.98225 10.625 8.13168 10.625 8.2875V9.9125C10.625 10.3058 10.3058 10.625 9.9125 10.625H3.0875C2.69423 10.625 2.375 10.3058 2.375 9.9125V8.2875Z" fill="white" stroke="white" stroke-width="0.2"/>
</svg>
