<svg xmlns="http://www.w3.org/2000/svg" width="20" height="20" viewBox="0 0 20 20">
    <g fill="none" fill-rule="evenodd">
        <g>
            <g>
                <g>
                    <g stroke="#FFF" stroke-opacity=".02" stroke-width=".5">
                        <path d="M0 0L18 0 18 18 0 18z" transform="translate(-325.000000, -670.000000) translate(6.000000, 661.000000) translate(320.000000, 10.000000)"/>
                    </g>
                    <g fill="#949494" fill-rule="nonzero">
                        <path d="M3.217 4.447c-.136 0-.247.132-.247.296v5.585c0 .163.11.296.247.296s.248-.133.248-.296V4.743c0-.164-.11-.296-.248-.296z" transform="translate(-325.000000, -670.000000) translate(6.000000, 661.000000) translate(320.000000, 10.000000) translate(4.500000, 2.700000) translate(3.217500, 7.535294) scale(-1, 1) translate(-3.217500, -7.535294)"/>
                        <path d="M6.683 4.447c-.137 0-.248.132-.248.296v5.585c0 .163.11.296.248.296.136 0 .247-.133.247-.296V4.743c0-.164-.11-.296-.247-.296z" transform="translate(-325.000000, -670.000000) translate(6.000000, 661.000000) translate(320.000000, 10.000000) translate(4.500000, 2.700000) translate(6.682500, 7.535294) scale(-1, 1) translate(-6.682500, -7.535294)"/>
                        <path d="M.81 3.751v7.27c0 .43.153.834.42 1.123.265.29.633.455 1.02.456h5.4c.387 0 .756-.166 1.02-.456.267-.29.42-.693.42-1.123v-7.27c.529-.145.872-.674.8-1.235-.07-.562-.533-.981-1.08-.982H7.347v-.368c.002-.31-.117-.608-.33-.828-.212-.219-.5-.34-.8-.338H3.682c-.3-.002-.59.12-.802.338-.212.22-.33.517-.329.828v.368H1.091c-.548 0-1.01.42-1.082.982-.07.561.272 1.09.802 1.235zm6.84 8.259h-5.4c-.489 0-.868-.434-.868-.989V3.777h7.136v7.244c0 .555-.38.989-.867.989zM3.124 1.166c-.002-.154.057-.302.162-.41.105-.109.249-.168.398-.166h2.534c.15-.002.293.057.398.166.105.108.164.256.162.41v.368H3.123v-.368zm-2.032.959h7.718c.284 0 .514.237.514.53 0 .294-.23.532-.514.532H1.091c-.284 0-.514-.238-.514-.531 0-.294.23-.531.514-.531z" transform="translate(-325.000000, -670.000000) translate(6.000000, 661.000000) translate(320.000000, 10.000000) translate(4.500000, 2.700000) translate(4.950000, 6.300000) scale(-1, 1) translate(-4.950000, -6.300000)"/>
                        <path d="M4.95 4.447c-.137 0-.248.132-.248.296v5.585c0 .163.111.296.248.296s.247-.133.247-.296V4.743c0-.164-.11-.296-.247-.296z" transform="translate(-325.000000, -670.000000) translate(6.000000, 661.000000) translate(320.000000, 10.000000) translate(4.500000, 2.700000) translate(4.950000, 7.535294) scale(-1, 1) translate(-4.950000, -7.535294)"/>
                    </g>
                </g>
            </g>
        </g>
    </g>
</svg>
