<svg xmlns="http://www.w3.org/2000/svg" width="20" height="20" viewBox="0 0 20 20">
    <g fill="none" fill-rule="evenodd">
        <g fill-rule="nonzero">
            <g>
                <g>
                    <g>
                        <path fill="#FF9797" d="M5.196 4.804L14.804 4.804 14.804 15.196 5.196 15.196z" transform="translate(-21 -976) translate(0 786) translate(21 190)"/>
                        <path fill="#FF9797" d="M5.196 4.804L14.804 4.804 14.804 9.314 5.196 9.314z" transform="translate(-21 -976) translate(0 786) translate(21 190)"/>
                        <path fill="#FFF" d="M8.627 4.804L11.373 4.804 11.373 9.314 8.627 9.314z" transform="translate(-21 -976) translate(0 786) translate(21 190)"/>
                        <g fill="#FFF">
                            <path d="M2.771 0L0 0 0 2.745.693 2.402 1.386 2.745 2.078 2.402 2.771 2.745zM4.503 4.118L5.196 4.118 5.196 4.804 4.503 4.804zM3.118 4.118L3.81 4.118 3.81 4.804 3.118 4.804zM1.732 4.118L2.425 4.118 2.425 4.804 1.732 4.804z" transform="translate(-21 -976) translate(0 786) translate(21 190) translate(8.627 9.314)"/>
                        </g>
                        <path fill="#F75757" d="M10.001 0C6.446-.001 3.157 1.885 1.365 4.954l-.777-.393.498 2.733 2.42-1.257-.908-.459c1.555-2.605 4.368-4.2 7.403-4.2 4.76 0 8.62 3.857 8.62 8.615 0 .398-.028.795-.082 1.19l1.366.19c.063-.457.095-.918.095-1.38C20 4.474 15.523 0 10.001 0zM18.799 12.518l-2.26 1.512.888.331c-1.546 2.64-4.376 4.262-7.434 4.26-4.758 0-8.615-3.856-8.615-8.614 0-.398.028-.795.082-1.19l-1.365-.19C.032 9.084 0 9.545 0 10.007 0 15.526 4.474 20 9.993 20c3.634.001 6.981-1.971 8.742-5.15l.873.326-.81-2.658z" transform="translate(-21 -976) translate(0 786) translate(21 190)"/>
                    </g>
                </g>
            </g>
        </g>
    </g>
</svg>
