<svg width="20" height="20" viewBox="0 0 20 20" fill="none" xmlns="http://www.w3.org/2000/svg">
    <path clip-rule="evenodd" d="M1 1h18v18H1V1z" stroke="#fff" stroke-opacity=".02" stroke-width=".5"/>
    <path d="m15.772 6.085-1.864-1.864a.8.8 0 0 0-1.104 0l-7.688 7.687a.26.26 0 0 0-.066.113l-1.04 3.64a.261.261 0 0 0 .323.322l3.64-1.04a.253.253 0 0 0 .112-.066l7.687-7.688a.782.782 0 0 0 0-1.104zm-.369.736-7.639 7.638-3.123.893.893-3.123 7.639-7.639a.265.265 0 0 1 .366 0l1.864 1.864c.101.101.101.266 0 .367z" fill="#949494"/>
    <path d="m15.136 7.455-2.598-2.598a.261.261 0 0 0-.369.368l2.598 2.599a.262.262 0 0 0 .37 0 .261.261 0 0 0 0-.369zM8.092 14.499 5.494 11.9a.261.261 0 0 0-.369.37l2.599 2.598a.262.262 0 0 0 .368 0 .261.261 0 0 0 0-.369z" fill="#949494"/>
</svg>
