<svg xmlns="http://www.w3.org/2000/svg" xmlns:xlink="http://www.w3.org/1999/xlink" width="30" height="30" viewBox="0 0 30 30">
    <defs>
        <path id="a" d="M.002.001H30v29.993H.002z"/>
    </defs>
    <g fill="none" fill-rule="evenodd">
        <g>
            <mask id="b" fill="#fff">
                <use xlink:href="#a"/>
            </mask>
            <path fill="#1877F2" d="M30 15.088C30 6.755 23.284 0 15 0 6.716 0 0 6.755 0 15.088c0 7.531 5.485 13.774 12.656 14.906V19.45H8.848v-4.362h3.808v-3.324c0-3.781 2.24-5.87 5.666-5.87 1.641 0 3.358.295 3.358.295v3.713h-1.892c-1.863 0-2.444 1.163-2.444 2.356v2.83h4.16l-.665 4.362h-3.495v10.544C24.514 28.862 30 22.619 30 15.088" mask="url(#b)"/>
        </g>
        <path fill="#FFF" d="M20.97 19.458l.67-4.286h-4.2v-2.781c0-1.173.587-2.316 2.469-2.316h1.91V6.426s-1.734-.29-3.39-.29c-3.46 0-5.72 2.053-5.72 5.77v3.266H8.864v4.286h3.845V29.82a15.574 15.574 0 0 0 4.732 0V19.458h3.528"/>
    </g>
</svg>
