<svg xmlns="http://www.w3.org/2000/svg" xmlns:xlink="http://www.w3.org/1999/xlink" width="56" height="56" viewBox="0 0 56 56">
    <defs>
        <filter id="prefix__a" width="143.2%" height="143.2%" x="-21.6%" y="-19.3%" filterUnits="objectBoundingBox">
            <feOffset dy="1" in="SourceAlpha" result="shadowOffsetOuter1"/>
            <feGaussianBlur in="shadowOffsetOuter1" result="shadowBlurOuter1" stdDeviation="3"/>
            <feColorMatrix in="shadowBlurOuter1" values="0 0 0 0 0 0 0 0 0 0 0 0 0 0 0 0 0 0 0.0873579545 0"/>
        </filter>
        <path id="prefix__b" d="M8.534 1.664C12.918.554 17.394 0 21.962 0c4.556 0 9.112.552 13.668 1.655 3.529.855 6.252 3.662 6.999 7.215C43.543 13.217 44 17.618 44 22.07c0 4.403-.447 8.805-1.34 13.208-.753 3.708-3.65 6.605-7.358 7.357-4.489.91-8.911 1.364-13.27 1.364-4.386 0-8.773-.461-13.16-1.383-3.552-.746-6.36-3.467-7.215-6.994C.552 31.072 0 26.565 0 22.103c0-4.536.57-9.071 1.712-13.607.845-3.358 3.465-5.982 6.822-6.832z"/>
    </defs>
    <g fill="none" fill-rule="evenodd" transform="translate(6 5)">
        <use fill="#000" filter="url(#prefix__a)" xlink:href="#prefix__b"/>
        <use fill="#FFF" xlink:href="#prefix__b"/>
        <g fill="var(--color1)" fill-rule="nonzero">
            <path d="M9.72 16.372c-.276 0-.543-.095-.751-.268-.785-.65-1.543-1.261-2.21-1.8l-.004-.002c-1.958-1.58-3.65-2.945-4.827-4.289C.613 8.511 0 7.086 0 5.53c0-1.512.548-2.907 1.542-3.928C2.55.569 3.93 0 5.431 0c1.122 0 2.15.336 3.055.998.456.334.87.743 1.235 1.22l.006-.008c.363-.474.775-.88 1.229-1.212C11.86.336 12.888 0 14.01 0c1.502 0 2.883.569 3.889 1.602.994 1.021 1.542 2.416 1.542 3.928 0 1.556-.612 2.981-1.928 4.483-1.177 1.344-2.868 2.709-4.826 4.288-.67.54-1.428 1.152-2.215 1.803-.172.143-.384.232-.608.26l-.137.008h-.006z" transform="translate(12 14)"/>
        </g>
    </g>
</svg>
