<svg xmlns="http://www.w3.org/2000/svg" width="24" height="24" viewBox="0 0 24 24">
    <g fill="none" fill-rule="evenodd">
        <g>
            <g>
                <g>
                    <g>
                        <path stroke="#FFF" stroke-opacity=".008" stroke-width=".5" d="M0 0H22.4V22.4H0z" transform="translate(-151 -15) translate(8 9) translate(144 7)"/>
                        <g fill="var(--color1)" fill-rule="nonzero" stroke="var(--color1)" stroke-width="1.12">
                            <path d="M6.3 10.724c-.18 0-.352-.062-.487-.174-.51-.421-1-.817-1.433-1.166l-.002-.002c-1.27-1.024-2.366-1.908-3.128-2.78C.397 5.63 0 4.707 0 3.698c0-.98.355-1.884 1-2.546C1.652.481 2.547.113 3.52.113c.727 0 1.393.217 1.98.647.296.216.564.481.8.79l.004-.005c.236-.307.502-.57.796-.785C7.687.33 8.353.113 9.08.113c.973 0 1.868.369 2.52 1.038.645.662 1 1.566 1 2.546 0 1.009-.397 1.932-1.25 2.906-.762.87-1.858 1.755-3.128 2.779-.433.35-.925.746-1.435 1.168-.107.089-.238.146-.377.166l-.106.008h0H6.3z" transform="translate(-151 -15) translate(8 9) translate(144 7) translate(4.9 5.6)"/>
                        </g>
                    </g>
                </g>
            </g>
        </g>
    </g>
</svg>
