<svg xmlns="http://www.w3.org/2000/svg" xmlns:xlink="http://www.w3.org/1999/xlink" width="13" height="10" viewBox="0 0 13 10">
    <defs>
        <path id="a" d="M.006.092h8.8v8.119h-8.8z"/>
        <path id="c" d="M.006.052h12.162v5.42H.006z"/>
    </defs>
    <g fill="none" fill-rule="evenodd">
        <path fill="#FFFFFE" d="M8.02 2.212a.83.83 0 0 0 0-1.659.83.83 0 0 0 0 1.66M4.148 4.425a.83.83 0 0 0 0 1.659.83.83 0 0 0 0-1.66"/>
        <g transform="translate(0 1.106)">
            <mask id="b" fill="#fff">
                <use xlink:href="#a"/>
            </mask>
            <path fill="#FFFFFE" d="M7.97 6.61c-.46 0-.835.359-.835.8 0 .441.375.8.835.8.46 0 .836-.359.836-.8 0-.441-.375-.8-.836-.8" mask="url(#b)"/>
            <path fill="#1A1919" d="M.392.915h4.747a.402.402 0 0 0 .392-.411.402.402 0 0 0-.392-.412H.392A.402.402 0 0 0 0 .504C0 .73.175.915.392.915" mask="url(#b)"/>
            <path fill="#1A1919" d="M11.899.915a.402.402 0 0 0 .392-.411.402.402 0 0 0-.392-.412h-1.674a.402.402 0 0 0-.392.412c0 .227.175.411.392.411h1.674z"/>
        </g>
        <path fill="#1A1919" d="M7.743.841a.819.819 0 0 1 0 1.636.819.819 0 0 1 0-1.636zm0 2.478c.915 0 1.66-.745 1.66-1.66C9.403.744 8.658 0 7.743 0c-.915 0-1.659.744-1.659 1.66 0 .914.744 1.659 1.66 1.659z"/>
        <g transform="translate(0 3.319)">
            <mask id="d" fill="#fff">
                <use xlink:href="#c"/>
            </mask>
            <path fill="#1A1919" d="M11.75 1.218H6.688a.415.415 0 0 0-.418.411c0 .228.187.412.418.412h5.062c.23 0 .418-.184.418-.412a.415.415 0 0 0-.418-.411M.418 2.041h1.718c.231 0 .418-.184.418-.412a.415.415 0 0 0-.418-.411H.418A.415.415 0 0 0 0 1.629c0 .228.187.412.418.412M4.412 2.476a.808.808 0 0 1-.813-.8c0-.442.365-.801.813-.801.448 0 .813.359.813.8 0 .441-.365.8-.813.8zm0-2.424c-.91 0-1.649.728-1.649 1.623S3.503 3.3 4.413 3.3c.908 0 1.648-.729 1.648-1.624C6.06.78 5.32.052 4.412.052zM5.48 4.648H.418A.415.415 0 0 0 0 5.06c0 .227.187.412.418.412H5.48c.231 0 .418-.185.418-.412a.415.415 0 0 0-.418-.412M15.313 4.648H10.25a.415.415 0 0 0-.418.412c0 .227.187.412.418.412h1.375c.23 0 .418-.185.418-.412a.415.415 0 0 0-.418-.412" mask="url(#d)"/>
        </g>
        <path fill="#1A1919" d="M7.743 9.114a.819.819 0 0 1 0-1.636.819.819 0 0 1 0 1.636zm0-2.477c-.915 0-1.659.744-1.659 1.66 0 .914.744 1.659 1.66 1.659.914 0 1.659-.745 1.659-1.66 0-.915-.745-1.659-1.66-1.659z"/>
    </g>
</svg>
