<svg width="18" height="18" viewBox="0 0 18 18" fill="var(--color1)" xmlns="http://www.w3.org/2000/svg">
    <mask id="njnv0rx5za" fill="var(--color1)">
        <path fill-rule="evenodd" clip-rule="evenodd" d="M17.193 10.094a.349.349 0 0 0-.144-.472 5.483 5.483 0 0 0-6.04.603l-.565-.564.921-.92a.349.349 0 1 0-.494-.494l-.921.92L7.7 6.922a4.87 4.87 0 0 0 .397-5.204.35.35 0 0 0-.617.327 4.151 4.151 0 0 1-.28 4.378L5.72 4.942a.854.854 0 0 0-.79-.23.853.853 0 0 0-.62.54L.053 16.849a.847.847 0 0 0 .198.9.85.85 0 0 0 .901.198l11.608-4.25a.853.853 0 0 0 .542-.62.852.852 0 0 0-.231-.79l-1.567-1.565a4.782 4.782 0 0 1 5.216-.482.35.35 0 0 0 .472-.145zM5.563 15.59l-3.149-3.146.873-2.377 4.656 4.651-2.38.872zm-3.775-1.44 2.068 2.065.984-.36-2.691-2.689-.36.983zM.913 17.29a.152.152 0 0 1-.167-.037.152.152 0 0 1-.037-.166l.814-2.218 1.61 1.608-2.22.813zm11.607-4.25a.154.154 0 0 0 .1-.115.154.154 0 0 0-.042-.146L5.225 5.435a.152.152 0 0 0-.146-.042.154.154 0 0 0-.115.1l-.787 2.145 1.987 1.984a.349.349 0 1 1-.494.494L3.912 8.36l-.36.983 5.114 5.109.984-.36-1.757-1.756a.349.349 0 1 1 .494-.493l1.986 1.984 2.147-.786z"/>
    </mask>
    <path fill-rule="evenodd" clip-rule="evenodd" d="M17.193 10.094a.349.349 0 0 0-.144-.472 5.483 5.483 0 0 0-6.04.603l-.565-.564.921-.92a.349.349 0 1 0-.494-.494l-.921.92L7.7 6.922a4.87 4.87 0 0 0 .397-5.204.35.35 0 0 0-.617.327 4.151 4.151 0 0 1-.28 4.378L5.72 4.942a.854.854 0 0 0-.79-.23.853.853 0 0 0-.62.54L.053 16.849a.847.847 0 0 0 .198.9.85.85 0 0 0 .901.198l11.608-4.25a.853.853 0 0 0 .542-.62.852.852 0 0 0-.231-.79l-1.567-1.565a4.782 4.782 0 0 1 5.216-.482.35.35 0 0 0 .472-.145zM5.563 15.59l-3.149-3.146.873-2.377 4.656 4.651-2.38.872zm-3.775-1.44 2.068 2.065.984-.36-2.691-2.689-.36.983zM.913 17.29a.152.152 0 0 1-.167-.037.152.152 0 0 1-.037-.166l.814-2.218 1.61 1.608-2.22.813zm11.607-4.25a.154.154 0 0 0 .1-.115.154.154 0 0 0-.042-.146L5.225 5.435a.152.152 0 0 0-.146-.042.154.154 0 0 0-.115.1l-.787 2.145 1.987 1.984a.349.349 0 1 1-.494.494L3.912 8.36l-.36.983 5.114 5.109.984-.36-1.757-1.756a.349.349 0 1 1 .494-.493l1.986 1.984 2.147-.786z" fill="var(--color1)"/>
    <path d="m17.049 9.622.916-1.726-.916 1.726zm.144.472 1.726.919v-.001l-1.726-.918zm-6.185.13-1.381 1.384 1.253 1.251 1.368-1.123-1.24-1.511zm-.564-.563L9.062 8.278 7.678 9.661l1.384 1.383 1.382-1.383zm.921-.92 1.382 1.382-1.382-1.382zm0-.494 1.382-1.383-1.382 1.383zm-.494 0-1.38-1.383 1.38 1.383zm-.921.92L8.568 10.55l1.382 1.38 1.381-1.38L9.95 9.168zM7.7 6.922 6.135 5.752 5.123 7.108 6.32 8.304 7.7 6.921zm.935-2.347 1.94.23-1.94-.23zm-.538-2.857-1.726.918 1.726-.918zm-.473-.145L6.71-.154l.916 1.726zm-.144.472-1.726.918 1.726-.918zM7.2 6.422 5.82 7.805l1.634 1.633 1.34-1.883L7.2 6.422zM5.72 4.942 4.338 6.325l1.381-1.383zm-.79-.23-.42-1.91.42 1.91zm-.62.54L2.473 4.58l1.834.674zM.053 16.849l-1.835-.674 1.835.674zm.198.9 1.382-1.383-1.382 1.383zm.901.198.672 1.836-.672-1.836zm11.608-4.25-.672-1.836.672 1.836zm.542-.62 1.908.422-1.908-.422zm-.231-.79L11.69 13.67l1.38-1.383zm-1.567-1.565-1.218-1.528-1.712 1.364 1.549 1.547 1.381-1.383zm5.216-.482.916-1.727-.916 1.727zM2.414 12.443.579 11.77l-.43 1.173.884.883 1.381-1.383zm3.15 3.146-1.382 1.383.882.881 1.171-.429-.672-1.835zm-2.277-5.524 1.38-1.382-2.162-2.161-1.053 2.87 1.835.674zm4.656 4.652.673 1.836 2.876-1.054-2.167-2.165-1.382 1.383zm-4.087 1.497-1.381 1.383.882.881 1.171-.429-.672-1.835zm-2.068-2.066-1.835-.673-.43 1.173.884.883 1.381-1.383zm3.052 1.706.672 1.835 2.877-1.053-2.167-2.165-1.382 1.383zM2.15 13.165l1.381-1.382-2.163-2.161-1.053 2.87 1.835.673zm-1.403 4.09-1.381 1.382.002.002 1.38-1.385zm.167.036L.24 15.456l.672 1.835zm-.204-.203 1.835.673-1.835-.673zm.814-2.218 1.382-1.383-2.163-2.16-1.054 2.87 1.835.673zm1.61 1.608.672 1.835 2.877-1.053-2.167-2.165-1.382 1.383zm9.387-3.437.672 1.835-.672-1.835zm.058-.26 1.382-1.383-1.382 1.382zM5.225 5.434 3.843 6.818h.001l1.381-1.383zm-.146-.042-.421-1.909.421 1.909zm-.115.1L3.13 4.819l1.835.674zm-.787 2.145-1.835-.673-.43 1.173.884.883 1.381-1.383zm1.987 1.984-1.382 1.383 1.382-1.383zm0 .494L4.783 8.733l1.38 1.383zm-.494 0 1.382-1.383-1.382 1.383zM3.912 8.36l1.382-1.383-2.163-2.16-1.054 2.87 1.835.673zm-.36.983-1.835-.674-.43 1.174.883.883 1.382-1.383zm5.114 5.109-1.381 1.383.882.881 1.171-.429-.672-1.835zm.984-.36.672 1.835 2.877-1.053-2.167-2.165-1.382 1.383zm-1.757-1.756 1.38-1.383-1.38 1.383zm0-.493L6.51 10.46l1.382 1.383zm.494 0-1.382 1.382 1.382-1.382zm1.986 1.984L8.992 15.21l.882.881 1.171-.429-.672-1.835zm5.759-2.478a1.606 1.606 0 0 1-.665-2.173l3.452 1.836a2.303 2.303 0 0 0-.954-3.116l-1.833 3.453zm-3.884.387a3.528 3.528 0 0 1 3.884-.387l1.833-3.453a7.437 7.437 0 0 0-8.197.818l2.48 3.022zm-3.186-.692.565.564 2.762-2.766-.564-.564-2.763 2.766zm.922-3.686-.922.92 2.763 2.766.922-.92-2.763-2.766zm0 2.272a1.606 1.606 0 0 1 0-2.272l2.763 2.765c.9-.9.9-2.359 0-3.259L9.984 9.63zm2.268 0a1.605 1.605 0 0 1-2.268 0l2.763-2.766a2.304 2.304 0 0 0-3.257 0l2.762 2.766zm-.92.92.92-.92L9.49 6.864l-.922.92 2.763 2.766zM6.32 8.304l2.248 2.246 2.763-2.765-2.249-2.246L6.32 8.304zm.375-3.96a2.915 2.915 0 0 1-.56 1.408l3.132 2.339a6.824 6.824 0 0 0 1.31-3.287l-3.882-.46zm-.323-1.71a2.89 2.89 0 0 1 .323 1.71l3.882.46A6.8 6.8 0 0 0 9.823.8l-3.45 1.836zm2.17.665a1.605 1.605 0 0 1-2.17-.664L9.823.799A2.304 2.304 0 0 0 6.71-.154l1.833 3.453zm.664-2.173A1.606 1.606 0 0 1 8.542 3.3L6.709-.154a2.303 2.303 0 0 0-.954 3.116l3.451-1.836zm-.412 6.43a6.106 6.106 0 0 0 .412-6.43l-3.45 1.836c.403.758.339 1.644-.147 2.327l3.185 2.266zM4.338 6.324l1.482 1.48 2.762-2.766-1.481-1.48-2.763 2.766zm1.01.295a1.1 1.1 0 0 1-1.01-.295l2.763-2.766a2.809 2.809 0 0 0-2.592-.757l.84 3.818zm.795-.694c-.129.351-.43.614-.794.694l-.84-3.818A2.808 2.808 0 0 0 2.473 4.58l3.67 1.347zM1.888 17.521 6.143 5.926l-3.67-1.347-4.254 11.595 3.67 1.347zm-.255-1.156c.3.3.402.757.255 1.156l-3.67-1.347a2.802 2.802 0 0 0 .653 2.957l2.762-2.766zm-.778-.32c.297 0 .578.12.779.32L-1.13 19.13c.53.53 1.242.824 1.984.824v-3.909zm-.373.066c.115-.043.242-.066.373-.066v3.91c.33 0 .658-.06.97-.173L.482 16.11zm11.607-4.25L.48 16.11l1.344 3.67 11.608-4.25-1.344-3.67zm-.695.794c.081-.365.345-.666.695-.795l1.344 3.671a2.807 2.807 0 0 0 1.778-2.033l-3.817-.843zm.297 1.014a1.103 1.103 0 0 1-.297-1.014l3.817.842a2.806 2.806 0 0 0-.758-2.593l-2.762 2.765zm-1.567-1.565 1.567 1.565 2.762-2.765-1.567-1.566-2.762 2.766zm7.513-3.592a6.737 6.737 0 0 0-7.35.68l2.436 3.058a2.828 2.828 0 0 1 3.081-.285l1.833-3.453zm-2.17.664a1.605 1.605 0 0 1 2.17-.664l-1.833 3.453a2.304 2.304 0 0 0 3.115-.952l-3.451-1.837zm-14.434 4.65 3.149 3.146 2.762-2.766-3.149-3.146-2.762 2.766zm.419-4.434L.579 11.77l3.67 1.347.872-2.378-3.67-1.347zm7.873 3.943L4.668 8.683l-2.763 2.765L6.562 16.1l2.763-2.766zm-3.09 4.09 2.38-.872-1.344-3.671-2.38.872 1.344 3.67zm-.997-2.594L3.17 12.765.407 15.531l2.068 2.066 2.763-2.766zm-1.07-.813-.984.36 1.344 3.671.984-.36-1.344-3.67zm-3.4.53 2.69 2.688 2.764-2.765-2.692-2.688-2.762 2.765zm2.855.274.36-.983-3.669-1.347-.36.983 3.67 1.347zm-4.256 3.817c.29.29 1.119.89 2.218.487l-1.344-3.67a1.803 1.803 0 0 1 1.885.414l-2.76 2.769zm-.492-2.225c-.405 1.1.197 1.93.49 2.223l2.762-2.766a1.803 1.803 0 0 1 .417 1.89l-3.67-1.347zm.813-2.218-.814 2.218 3.67 1.347.814-2.218-3.67-1.347zm4.827.899-1.61-1.608-2.763 2.765 1.61 1.609 2.763-2.766zm-2.93 4.031 2.22-.813-1.344-3.67-2.22.813 1.344 3.67zm9.127-6.621a1.801 1.801 0 0 1 1.136-1.3l1.345 3.671c.946-.346 1.254-1.155 1.336-1.528l-3.817-.843zm.484 1.657a1.802 1.802 0 0 1-.484-1.657l3.817.843c.083-.374.144-1.237-.57-1.95l-2.763 2.764zM3.844 6.818l7.353 7.345 2.762-2.766-7.352-7.344-2.763 2.765zm1.271.525c-.377 0-.872-.126-1.272-.525l2.764-2.765a2.106 2.106 0 0 0-1.492-.619v3.91zm.385-.042a1.786 1.786 0 0 1-.385.042V3.434c-.18 0-.335.023-.457.05L5.5 7.301zm1.3-1.135A1.801 1.801 0 0 1 5.5 7.301l-.844-3.817c-.37.082-1.18.388-1.528 1.335L6.8 6.166zm-.788 2.145L6.8 6.166 3.13 4.82l-.787 2.145 3.67 1.346zm1.533-.072L5.56 6.255 2.796 9.021l1.986 1.984L7.545 8.24zm0 3.26c.9-.9.9-2.36 0-3.26l-2.762 2.766a1.606 1.606 0 0 1 0-2.272l2.762 2.765zm-1.628.673c.586 0 1.179-.224 1.628-.674L4.782 8.733c.314-.313.728-.47 1.135-.47v3.91zm-1.629-.674c.45.45 1.043.674 1.629.674V8.263c.407 0 .82.157 1.135.47l-2.764 2.765zM2.531 9.743l1.758 1.755L7.05 8.733 5.294 6.977 2.53 9.743zm2.855.273.361-.983-3.67-1.346-.36.982 3.67 1.347zm4.662 3.053L4.933 7.96 2.17 10.726l5.115 5.109 2.763-2.766zm-1.07-.813-.984.36 1.344 3.671.984-.36-1.344-3.67zM6.511 13.72l1.758 1.756 2.763-2.766-1.758-1.756L6.51 13.72zm0-3.26c-.9.9-.9 2.36 0 3.26l2.763-2.766a1.606 1.606 0 0 1 0 2.272L6.51 10.46zm3.257.001a2.304 2.304 0 0 0-3.257 0l2.763 2.766a1.605 1.605 0 0 1-2.269 0l2.763-2.766zm1.986 1.984L9.768 10.46l-2.763 2.765 1.987 1.985 2.762-2.766zm.094-1.239-2.147.787 1.344 3.67 2.147-.786-1.344-3.67z" fill="var(--color1)" mask="url(#njnv0rx5za)"/>
    <mask id="7a3e97gd2b" fill="var(--color1)">
        <path d="M10.667 2.68c.18 0 .326-.146.326-.326 0-.273.223-.496.496-.496A1.15 1.15 0 0 0 12.64.71a.327.327 0 0 0-.654 0 .496.496 0 0 1-.496.496 1.15 1.15 0 0 0-1.149 1.15c0 .18.147.326.327.326z"/>
    </mask>
    <path d="M10.667 2.68c.18 0 .326-.146.326-.326 0-.273.223-.496.496-.496A1.15 1.15 0 0 0 12.64.71a.327.327 0 0 0-.654 0 .496.496 0 0 1-.496.496 1.15 1.15 0 0 0-1.149 1.15c0 .18.147.326.327.326z" fill="var(--color1)"/>
    <path d="M10.667 4.635a2.281 2.281 0 0 0 2.281-2.28h-3.91c0-.9.73-1.629 1.629-1.629v3.91zm2.281-2.28c0 .805-.653 1.458-1.459 1.458v-3.91a2.451 2.451 0 0 0-2.45 2.451h3.909zm-1.459 1.458A3.105 3.105 0 0 0 14.593.709h-3.91c0-.446.36-.805.806-.805v3.909zM14.593.709a2.281 2.281 0 0 0-2.281-2.28v3.908c-.9 0-1.628-.728-1.628-1.628h3.909zm-2.281-2.28A2.281 2.281 0 0 0 10.03.708h3.909c0 .9-.73 1.628-1.628 1.628v-3.909zM10.03.708c0-.806.652-1.458 1.458-1.458V3.16A2.451 2.451 0 0 0 13.94.71h-3.908zm1.458-1.458a3.105 3.105 0 0 0-3.103 3.103h3.909c0 .446-.36.806-.806.806V-.75zM8.386 2.354a2.281 2.281 0 0 0 2.281 2.281V.726c.899 0 1.628.729 1.628 1.628h-3.91z" fill="var(--color1)" mask="url(#7a3e97gd2b)"/>
    <mask id="vsnm2h50ec" fill="var(--color1)">
        <path d="M13.773 6.128c.74 0 1.34-.601 1.34-1.34 0-.333.27-.603.603-.603a.369.369 0 0 0 0-.738c-.739 0-1.34.601-1.34 1.34 0 .333-.27.603-.603.603a.369.369 0 0 0 0 .738z"/>
    </mask>
    <path d="M13.773 6.128c.74 0 1.34-.601 1.34-1.34 0-.333.27-.603.603-.603a.369.369 0 0 0 0-.738c-.739 0-1.34.601-1.34 1.34 0 .333-.27.603-.603.603a.369.369 0 0 0 0 .738z" fill="var(--color1)"/>
    <path d="M13.773 8.082a3.297 3.297 0 0 0 3.295-3.295h-3.91c0-.34.275-.614.615-.614v3.91zm3.295-3.295c0 .747-.605 1.352-1.352 1.352V2.23a2.558 2.558 0 0 0-2.557 2.557h3.909zM15.716 6.14a2.323 2.323 0 0 0 2.324-2.323h-3.91c0-.876.71-1.586 1.586-1.586v3.91zm2.324-2.323a2.323 2.323 0 0 0-2.324-2.324v3.91c-.875 0-1.585-.71-1.585-1.586h3.909zm-2.324-2.324a3.297 3.297 0 0 0-3.295 3.295h3.91c0 .34-.274.615-.615.615v-3.91zm-3.295 3.295c0-.747.605-1.351 1.352-1.351v3.909a2.558 2.558 0 0 0 2.557-2.558h-3.909zm1.352-1.351a2.323 2.323 0 0 0-2.323 2.323h3.909c0 .876-.71 1.586-1.586 1.586v-3.91zM11.45 5.759a2.323 2.323 0 0 0 2.323 2.323V4.173c.876 0 1.586.71 1.586 1.586h-3.91z" fill="var(--color1)" mask="url(#vsnm2h50ec)"/>
    <mask id="xx6huycted" fill="var(--color1)">
        <path fill-rule="evenodd" clip-rule="evenodd" d="M16.851 8.043a1.15 1.15 0 0 1-1.149-1.15 1.15 1.15 0 0 1 1.149-1.148A1.15 1.15 0 0 1 18 6.894a1.15 1.15 0 0 1-1.149 1.149zm.43-1.15a.431.431 0 1 0-.862.001.431.431 0 0 0 .863 0z"/>
    </mask>
    <path fill-rule="evenodd" clip-rule="evenodd" d="M16.851 8.043a1.15 1.15 0 0 1-1.149-1.15 1.15 1.15 0 0 1 1.149-1.148A1.15 1.15 0 0 1 18 6.894a1.15 1.15 0 0 1-1.149 1.149zm.43-1.15a.431.431 0 1 0-.862.001.431.431 0 0 0 .863 0z" fill="var(--color1)"/>
    <path d="M13.748 6.894a3.105 3.105 0 0 0 3.103 3.103V6.088c.446 0 .806.36.806.806h-3.91zM16.85 3.79a3.105 3.105 0 0 0-3.103 3.104h3.909c0 .446-.36.805-.806.805V3.79zm3.104 3.104A3.105 3.105 0 0 0 16.85 3.79V7.7a.804.804 0 0 1-.806-.806h3.91zM16.85 9.997a3.105 3.105 0 0 0 3.104-3.103h-3.91c0-.446.36-.806.806-.806v3.909zm0-1.58a1.523 1.523 0 0 1-1.524-1.524h3.91a2.386 2.386 0 0 0-2.386-2.385v3.91zm1.524-1.524c0 .842-.682 1.524-1.524 1.524V4.508a2.386 2.386 0 0 0-2.385 2.385h3.909zM16.85 5.37c.842 0 1.524.682 1.524 1.523h-3.91a2.386 2.386 0 0 0 2.386 2.386v-3.91zm-1.524 1.523c0-.841.682-1.523 1.524-1.523v3.909a2.386 2.386 0 0 0 2.385-2.386h-3.909z" fill="var(--color1)" mask="url(#xx6huycted)"/>
    <mask id="m8rglvwame" fill="var(--color1)">
        <path fill-rule="evenodd" clip-rule="evenodd" d="M12.255 4.979a1.15 1.15 0 0 1-1.149 1.148A1.15 1.15 0 0 1 9.957 4.98a1.15 1.15 0 0 1 1.15-1.15 1.15 1.15 0 0 1 1.148 1.15zm-.718 0a.431.431 0 1 0-.863 0 .431.431 0 0 0 .863 0z"/>
    </mask>
    <path fill-rule="evenodd" clip-rule="evenodd" d="M12.255 4.979a1.15 1.15 0 0 1-1.149 1.148A1.15 1.15 0 0 1 9.957 4.98a1.15 1.15 0 0 1 1.15-1.15 1.15 1.15 0 0 1 1.148 1.15zm-.718 0a.431.431 0 1 0-.863 0 .431.431 0 0 0 .863 0z" fill="var(--color1)"/>
    <path d="M11.106 8.082a3.105 3.105 0 0 0 3.104-3.103H10.3c0-.446.36-.806.806-.806v3.909zM8.003 4.979a3.105 3.105 0 0 0 3.103 3.103v-3.91c.446 0 .806.36.806.807h-3.91zm3.103-3.104a3.105 3.105 0 0 0-3.103 3.104h3.909c0 .445-.36.805-.806.805V1.875zm3.104 3.104a3.105 3.105 0 0 0-3.104-3.104v3.91a.804.804 0 0 1-.805-.806h3.909zm-3.104 1.523A1.523 1.523 0 0 1 9.583 4.98h3.909a2.386 2.386 0 0 0-2.386-2.386v3.91zM12.63 4.98c0 .841-.682 1.523-1.524 1.523V2.593A2.386 2.386 0 0 0 8.721 4.98h3.909zm-1.524-1.524c.842 0 1.524.682 1.524 1.524H8.72a2.386 2.386 0 0 0 2.386 2.385v-3.91zM9.583 4.979c0-.842.681-1.524 1.523-1.524v3.909a2.386 2.386 0 0 0 2.386-2.385h-3.91z" fill="var(--color1)" mask="url(#m8rglvwame)"/>
    <mask id="0d4b9h17tf" fill="var(--color1)">
        <path fill-rule="evenodd" clip-rule="evenodd" d="M5.745 1.149a1.15 1.15 0 0 1-1.15 1.149 1.15 1.15 0 0 1-1.148-1.15A1.15 1.15 0 0 1 4.596 0a1.15 1.15 0 0 1 1.149 1.149zm-.718 0a.431.431 0 1 0-.863 0 .431.431 0 0 0 .863 0z"/>
    </mask>
    <path fill-rule="evenodd" clip-rule="evenodd" d="M5.745 1.149a1.15 1.15 0 0 1-1.15 1.149 1.15 1.15 0 0 1-1.148-1.15A1.15 1.15 0 0 1 4.596 0a1.15 1.15 0 0 1 1.149 1.149zm-.718 0a.431.431 0 1 0-.863 0 .431.431 0 0 0 .863 0z" fill="var(--color1)"/>
    <path d="M4.596 4.252A3.105 3.105 0 0 0 7.699 1.15H3.79c0-.446.36-.806.806-.806v3.91zM1.492 1.15a3.105 3.105 0 0 0 3.104 3.103V.343c.446 0 .805.36.805.806H1.492zm3.104-3.104A3.105 3.105 0 0 0 1.492 1.15h3.91c0 .446-.36.806-.806.806v-3.91zM7.699 1.15a3.105 3.105 0 0 0-3.103-3.104v3.91a.804.804 0 0 1-.806-.806H7.7zM4.596 2.673a1.523 1.523 0 0 1-1.524-1.524h3.91a2.386 2.386 0 0 0-2.386-2.385v3.909zm1.523-1.524c0 .842-.681 1.524-1.523 1.524v-3.91A2.386 2.386 0 0 0 2.21 1.15h3.91zM4.596-.375c.842 0 1.523.682 1.523 1.524H2.21a2.386 2.386 0 0 0 2.386 2.385V-.375zM3.072 1.15c0-.842.682-1.524 1.524-1.524v3.91A2.386 2.386 0 0 0 6.98 1.148H3.072z" fill="var(--color1)" mask="url(#0d4b9h17tf)"/>
    <path d="m15.743 13.231-.251-.251a.588.588 0 0 1 .026-.143m.225.394-.225-.394m.225.394a.584.584 0 0 0 .143-.026m-.143.026.334-.217m-.56-.177a.584.584 0 0 1 .146-.238m-.145.238.144-.238m.633.08a.59.59 0 0 1-.026.143l.026-.143zm0 0-.217-.218-.034-.033a.586.586 0 0 0-.381.17l.047.047m.585.034-.585-.034m0 0 .368.369m-.368-.369.062-.062.306.43m0 0 .047.047a.585.585 0 0 0 .144-.238l-.191.192zm0 0 .191-.191-.191.192zm-.415-.414.046.047m-.046-.047.046.047m0 0 .368.368m-.368-.368.369.368m0 0-.192.191m.191-.191-.191.191m0 0a.583.583 0 0 0 .238-.144l-.046-.047M17.61 14.545l.191-.191a.59.59 0 0 0 .026-.143l-.217-.218-.034-.034a.59.59 0 0 0-.143.027l-.1.1-.091.091.368.368zm0 0-.369-.368.369.368zm0 0-.192.192.191-.191zm0 0zm0 0 .191-.191m-.191.191.191-.191m-.191.191zm.191-.191.006-.006.006-.006-.012.012m0 0-.144.238a.584.584 0 0 0 .144-.238m-.606-.224a.586.586 0 0 1 .238-.144l-.192.191-.046-.047zm0 0 .046.047-.046-.047zm0 0 .046.047-.166.167-.025.025a.584.584 0 0 1 .145-.239zm-.145.24.191-.193.368.369-.191.191a.588.588 0 0 1-.143.026l-.251-.251a.592.592 0 0 1 .026-.143zm.806-.07.03-.03-.033.032.003-.003zM17.801 12.837a.586.586 0 0 0-.383-.383l.192.191-.192-.19a.592.592 0 0 0-.143-.027l-.034.033-.217.218a.584.584 0 0 0 .17.381.597.597 0 0 0 .24.145.585.585 0 0 0 .142.026l.251-.251a.59.59 0 0 0-.026-.143zm0 0-.191-.191.191.191zM15.71 14.546l.26-.261.108-.108.191.192a.59.59 0 0 1 .026.143l-.394.225a.583.583 0 0 1-.238-.145l.046-.046m.369-.369.191.192m-.191-.192.047-.046c.069.069.117.15.144.238m-.191-.192.191.192m-.191-.192.191.192m-.283.452zm-.1-.835c.087.027.17.076.239.144l-.239-.144zm-.143-.027a.588.588 0 0 1 .143.027l-.177.56-.046.046a.59.59 0 0 1-.17-.381l.216-.218.034-.034z" fill="var(--color1)" stroke="#FE75A1" stroke-width="1.955"/>
    <mask id="sz3cdshpjg" fill="var(--color1)">
        <path d="M17.241 1.149c.1 0 .2-.038.277-.114l.368-.369a.39.39 0 0 0-.552-.552l-.369.368a.39.39 0 0 0 .276.667z"/>
    </mask>
    <path d="M17.241 1.149c.1 0 .2-.038.277-.114l.368-.369a.39.39 0 0 0-.552-.552l-.369.368a.39.39 0 0 0 .276.667z" fill="var(--color1)"/>
    <path d="M17.518 1.035 16.135-.347l1.383 1.382zm.368-.369 1.382 1.383L17.886.666zm0-.552 1.382-1.382L17.886.114zm-.552 0 1.382 1.382L17.333.114zm-.369.368L15.583-.9 16.965.482zm0 .553-1.382 1.382 1.382-1.382zm.276 2.068c.597 0 1.201-.229 1.659-.687L16.135-.347c.306-.306.71-.459 1.106-.459v3.91zm1.659-.686.368-.368-2.764-2.765-.369.369L18.9 2.417zm.368-.368c.915-.916.915-2.401 0-3.317l-2.764 2.764a1.564 1.564 0 0 1 0-2.212l2.764 2.765zm0-3.317a2.345 2.345 0 0 0-3.317 0l2.765 2.764a1.564 1.564 0 0 1-2.212 0l2.764-2.764zm-3.317 0-.368.368 2.764 2.764.369-.368-2.765-2.764zm-.368.368a2.345 2.345 0 0 0 0 3.317l2.764-2.764c.611.61.611 1.6 0 2.211L15.584-.9zm0 3.317c.458.457 1.061.686 1.658.686V-.806c.398 0 .801.154 1.106.458l-2.763 2.765z" fill="var(--color1)" mask="url(#sz3cdshpjg)"/>
    <path d="M15.901 2.482a.583.583 0 0 1-.238-.145l.046-.046m.192.191-.191-.191m.191.191-.191-.191m0 0 .214-.215.154-.153.192.192a.587.587 0 0 1 .025.142m-.586.033-.191-.191.468.468a.39.39 0 0 1-.553 0 .39.39 0 0 1 0-.553l.085.085.191.191zM17.61 2.29 17.8 2.1a.59.59 0 0 0 .026-.143l-.217-.218-.034-.033a.589.589 0 0 0-.143.026l-.1.1-.091.091.368.368zm0 0-.369-.368.369.368zm0 0-.192.192.191-.191zm0 0zm0 0L17.8 2.1m-.191.191L17.8 2.1m-.191.191zM17.8 2.1l.006-.006.006-.006-.012.012m0 0-.144.238A.584.584 0 0 0 17.8 2.1m-.606-.223a.586.586 0 0 1 .238-.145l-.192.191-.046-.046zm0 0 .046.046-.046-.046zm0 0 .046.046-.166.167-.025.025a.584.584 0 0 1 .145-.238zm-.145.238.191-.191.368.368-.191.191a.588.588 0 0 1-.143.026l-.251-.251a.593.593 0 0 1 .026-.143zm.806-.07.03-.03-.033.033.003-.003z" fill="var(--color1)" stroke="#FE75A1" stroke-width="1.955"/>
    <mask id="fu0xyxmirh" fill="var(--color1)">
        <path d="M15.802 1.035a.389.389 0 0 0 .552 0 .39.39 0 0 0 0-.553l-.368-.368a.39.39 0 0 0-.553.552l.369.369z"/>
    </mask>
    <path d="M15.802 1.035a.389.389 0 0 0 .552 0 .39.39 0 0 0 0-.553l-.368-.368a.39.39 0 0 0-.553.552l.369.369z" fill="var(--color1)"/>
    <path d="m15.802 1.035 1.382-1.382-1.382 1.382zm.552 0 1.382 1.382-1.382-1.382zm0-.553L17.736-.9 16.354.482zm-.368-.368-1.383 1.382L15.986.114zm-.553 0-1.38-1.382h-.002L15.433.114zm0 .552L14.051 2.05 15.433.666zm-1.014 1.75a2.343 2.343 0 0 0 1.659.687V-.806c.397 0 .8.153 1.106.459l-2.765 2.764zm1.659.687c.597 0 1.2-.229 1.658-.686L14.972-.347a1.565 1.565 0 0 1 1.106-.459v3.91zm1.658-.686c.915-.916.915-2.4 0-3.317l-2.764 2.764a1.564 1.564 0 0 1 0-2.211l2.764 2.764zm0-3.317-.368-.368-2.764 2.764.368.368L17.736-.9zm-.368-.368a2.345 2.345 0 0 0-3.316 0l2.763 2.765c-.61.61-1.6.61-2.212 0l2.765-2.765zm-3.317 0a2.345 2.345 0 0 0 0 3.317l2.764-2.765c.611.611.611 1.602 0 2.212l-2.764-2.764zm0 3.317.368.368 2.765-2.765-.369-.368-2.764 2.765z" fill="var(--color1)" mask="url(#fu0xyxmirh)"/>
    <path d="M6.894 10.724a.386.386 0 0 0-.383.383.386.386 0 0 0 .383.383.386.386 0 0 0 .383-.383.386.386 0 0 0-.383-.383zM12.556 7.374l.25.25m-.25-.25.046.453m-.046-.453.25.25m-.25-.25v-.398l.09-.09c.199.2.252.49.16.737m0 0a.684.684 0 0 1-.07.136m.07-.136.043.044-.044-.044m-.068.136a.692.692 0 0 1-.135.068m.135-.068a.697.697 0 0 0 .112-.092l-.203.204m.09-.112a.698.698 0 0 1-.09.112m-.044-.044.044.044m-.044-.044.044.044M11.955 7.18a.281.281 0 0 0 0 .397l.198-.198.204-.204-.199-.199m-.203.204.402-.005m-.402.005.198-.199.005-.005m-.203.204.402-.005m-.199-.199.2.199m-.2-.199c.11-.11.288-.11.398 0l-.107.107-.092.092m-.204.204.2.198-.2-.198zm.204-.204zm-.049.049.05-.05-.05.05z" fill="var(--color1)" stroke="#FE75A1" stroke-width="1.955"/>
</svg>
