<svg xmlns="http://www.w3.org/2000/svg" width="22" height="22" viewBox="0 0 22 22">
    <g fill="none" fill-rule="evenodd">
        <g fill="#000" fill-rule="nonzero" stroke="#000">
            <g>
                <g>
                    <path d="M9.897 14.828l2.684 2.483-.146.053-2.538-2.536zm10.706-2.625c-1.104-.586-2.33-.81-3.519-.691-1.29.129-2.54.66-3.543 1.57l-.103-.102.107-.096c1.021-.887 2.276-1.403 3.57-1.523 1.203-.111 2.44.12 3.488.842zm-15.86-2.73l2.54 2.537-2.589-2.392.049-.145zM21.285 15.733c-.065.05-.14.102-.228.157l.228-.157zM19.413 17.606l.316-.216c-.087.035-.182.116-.316.216zM21.285.755c-.065.048-.14.102-.228.156l.228-.156zM19.413 2.627l.316-.216c-.087.035-.182.116-.316.216z" transform="translate(-8 -907) translate(0 896) translate(8 11)"/>
                </g>
            </g>
        </g>
    </g>
</svg>
