<svg width="30" height="19" viewBox="0 0 30 19" fill="none" xmlns="http://www.w3.org/2000/svg">
    <path d="M25.843 10.475c.296-.008 2.606-.101 3.4-.101-.038-.884-.102-1.708-.105-2.53-.014-2.33-.037-7.37-.06-7.602l-2.322.717c.098.43.261 1.93.276 2.322.011.335-.091.448-.427.383-.645-.124-1.261.014-1.862.301-1.598.765-2.353 2.884-1.953 4.54.052.212.118.402.197.576a.855.855 0 0 1 .573.267c.174.18.254.41.245.69.028.018.056.037.085.052l.017.001.387.028h.038c.132.006.441.018.662.28l.03.038c.255.034.53.045.82.038zm-.717-1.094c-.227-.319-.313-3.037-.167-4.016.116-.777.689-1.196 1.306-1.17.492.02.746.287.759.842.014.646.004 1.292.004 1.938.001.595-.004 1.19.002 1.785.005.463-.112.846-.568 1.001-.53.18-1.098.044-1.336-.38zM7.827 6.035l-2.308.935c.018.114.039.21.048.308.055.616.163 1.235.145 1.848-.014.474-.319.8-.796.878-.786.13-1.396-.174-1.887-.823-1.113-1.473-.965-4.352-.336-5.5C3.3 2.574 4.346 1.986 5.45 2.15c.546.081.84.527.71 1.094-.037.163-.116.315-.168.475-.191.583.152 1.3.706 1.475.525.167 1.055-.21 1.197-.855.215-.978-.251-2.003-1.2-2.546-1.317-.754-2.665-.587-3.977-.006C.407 2.81-.601 5.437.365 7.811c.808 1.987 2.818 3.066 5.043 2.69.745-.126 1.485-.47 2.275.035l.144-.082V6.035z" fill="#fff"/>
    <path d="M20.313 10.2a3.57 3.57 0 0 0 .497-.288c1.663-1.168 2.063-3.262.93-4.86-1.06-1.493-3.192-1.818-4.75-.725-1.577 1.106-1.974 3.22-.894 4.75a3.39 3.39 0 0 0 3.386 1.393.654.654 0 0 1 .2-.116c.214-.075.425-.117.631-.154zm-.973-1.687c-.214.406-.543.76-.82 1.136-.379.2-.698.211-1.041.05-.346-.164-.459-.447-.412-.796.04-.29.096-.596.232-.856.507-.98 1.044-1.946 1.581-2.911.08-.143.218-.258.34-.376.328-.32.692-.497 1.13-.286.413.2.62.588.4 1.112-.418.994-.905 1.966-1.41 2.927z" fill="#fff"/>
    <path d="M10.095 9.503c-.173-.178-.214-.417-.164-.687.054-.289.123-.592.264-.85.523-.952 1.075-1.89 1.627-2.827.083-.14.223-.254.347-.37.335-.312.703-.482 1.137-.262.41.208.608.602.378 1.12-.44.985-.95 1.946-1.476 2.895a4.228 4.228 0 0 1-.43.61 7.426 7.426 0 0 1 1.127-.059c.538.016 1.03.1 1.467.248 1.063-1.18 1.226-2.841.32-4.19-1.033-1.538-3.179-1.91-4.768-.83-1.591 1.084-2.016 3.177-.958 4.736.167.246.361.464.576.651.083-.03.164-.06.25-.088.103-.035.203-.066.303-.097zM15.405 10.762a1.8 1.8 0 0 0-.884-.813c-.454-.204-.995-.316-1.608-.334-.891-.026-1.844.137-2.913.498-.888.3-1.62.639-2.24 1.037-.562.363-1.308.932-1.276 1.693.017.404.232.732.44 1.047.09.135.18.275.253.417.164.321.265.662.291.99l-.589.067a2.054 2.054 0 0 0-.124.02l-.109.02-.048.008c-.151.006-.248.145-.252.272-.003.12.075.209.184.216.037.01.074.012.11.015l.044.004.052.003c.025.002.05.003.086.003h.046a8.863 8.863 0 0 0 .477-.02c-.093.205-.184.41-.273.617l-.023.055c-.188.434-.382.883-.498 1.354-.015.057.01.11.06.13.015.007.03.01.044.01a.127.127 0 0 0 .11-.062c.228-.374.426-.77.622-1.161l.497-.998.255-.032a20.433 20.433 0 0 0 2.29-.437c.914-.227 1.696-.492 2.389-.81.935-.428 1.589-.875 2.059-1.402.538-.605.958-1.554.528-2.407zm-.628 1.746c-.445.693-1.223 1.131-1.77 1.4-.639.315-1.367.58-2.228.81-.742.197-1.539.348-2.572.485.471-.941.981-1.946 1.53-2.945.14-.253.265-.477.386-.683l.081-.132c.104-.163.211-.332.23-.524a.184.184 0 0 0-.085-.183.218.218 0 0 0-.114-.031.246.246 0 0 0-.132.039c-.17.11-.27.285-.366.454l-.04.07c-.106.184-.219.383-.34.607a77.774 77.774 0 0 0-1.635 3.215 3.033 3.033 0 0 0-.467-1.3l-.053-.082c-.252-.392-.512-.797-.333-1.239.092-.228.27-.445.56-.683.636-.522 1.43-.858 2.05-1.094.865-.329 1.661-.528 2.434-.61a5.234 5.234 0 0 1 1.579.05c.347.07.846.198 1.188.519.24.225.382.528.399.85.023.409-.152.773-.302 1.007zM17.654 12.256c.01.041.03.068.051.094a.15.15 0 0 0 .122.052.229.229 0 0 0 .194-.111.568.568 0 0 0 .043-.094l.005-.012-.057-.032.064.019a.751.751 0 0 1 .06-.092c.035-.044.069-.087.099-.134l.022-.032c.032-.05.07-.104.086-.168a.273.273 0 0 0 0-.165.211.211 0 0 0-.115-.13c-.102-.042-.217-.015-.316.075a.61.61 0 0 0-.113.162l-.02.033c-.032.058-.062.12-.087.188a.876.876 0 0 0-.048.184.455.455 0 0 0 .01.163z" fill="#fff"/>
    <path d="M25.062 12.792c-.026-.052-.084-.07-.14-.046-.44.194-.893.462-1.35.795a1.57 1.57 0 0 0-.114-.12c-.035-.034-.072-.068-.109-.101a1.68 1.68 0 0 1-.253-.264c-.06-.083-.047-.156.045-.277a.93.93 0 0 1 .285-.248c.001.12.072.211.186.237.113.026.26-.02.326-.156.062-.128.134-.323.042-.515-.083-.174-.273-.252-.486-.201-.299.072-.598.289-.823.593a.946.946 0 0 0-.204.5.397.397 0 0 0 0 .055c-.321.494-.664.94-1.023 1.324-.09.096-.198.207-.32.3-.1.078-.213.165-.33.165a.076.076 0 0 1-.036-.007l-.015-.002s-.007-.005-.012-.033a.392.392 0 0 1 .004-.164c.015-.118.05-.26.085-.388l.113-.354a16.15 16.15 0 0 1 .37-1.042 7.388 7.388 0 0 0 1.222-1.267c.151-.197.282-.39.388-.577l.075.003a29.64 29.64 0 0 1 1.073.07c.022 0 .043.003.065.006.12.013.243.026.362-.048a.19.19 0 0 0 .091-.135.17.17 0 0 0-.038-.138c-.077-.092-.199-.097-.297-.101-.02-.001-.038-.001-.056-.003-.127-.009-.252-.019-.38-.027a32.257 32.257 0 0 0-.618-.036l-.078-.004c.033-.08.06-.16.082-.237.053-.184.105-.448-.053-.612a.34.34 0 0 0-.264-.115c-.225.005-.444.22-.61.406a3.916 3.916 0 0 0-.396.543 9.72 9.72 0 0 0-1.32.121l-.031.005a4.205 4.205 0 0 0-.703.16.13.13 0 0 0-.085.143c.009.055.054.09.112.09.152 0 .303-.016.45-.033l.183-.02a13.515 13.515 0 0 1 1.163-.057c-.18.337-.352.682-.513 1.023-.186.398-.36.796-.51 1.178l-.017.03a7.865 7.865 0 0 1-.219.314l-.016.024c-.132.182-.267.371-.426.533-.09.092-.171.155-.26.206-.027.015-.056.026-.083.037l-.014.006c0-.007 0-.015.002-.024.026-.231.33-.83.368-.903l.013-.033c.014-.035.028-.068.04-.103.058-.16.11-.386.024-.553a.298.298 0 0 0-.177-.151.439.439 0 0 0-.331.039c-.15.079-.281.191-.39.29a3.24 3.24 0 0 0-.237.245l.022-.038.053-.09c.09-.147.201-.331.135-.512-.036-.102-.157-.126-.256-.096-.18.054-.285.259-.37.422a5.215 5.215 0 0 0-.252.51c-.226.24-.463.475-.705.696-.045.042-.09.082-.136.122l-.02.017c-.029.026-.042.037-.08.064l-.033.021.009-.035.028-.092c.055-.163.105-.296.157-.422l.027-.063.08-.19.09-.198c.02-.044.045-.088.071-.132.05-.09.102-.181.13-.281.033-.12 0-.227-.086-.285a.272.272 0 0 0-.305.012c-.15.106-.224.264-.3.422a5.3 5.3 0 0 0-.104.231 1.54 1.54 0 0 1-.137.087c-.182.101-.41.175-.532.096a.71.71 0 0 0 .019-.152c.176-.06.294-.235.304-.45.01-.214-.096-.396-.27-.466-.376-.15-.746.188-.888.34-.251.268-.422.535-.523.812-.09.246-.179.602-.09.896.042.143.152.303.334.32.129.011.274-.043.434-.164.26-.194.412-.466.514-.68.024-.051.048-.103.07-.155.23.073.5-.046.631-.117-.053.163-.089.312-.11.453a1.22 1.22 0 0 0-.014.405.328.328 0 0 0 .144.22c.076.048.17.06.264.036.151-.04.263-.151.362-.25l.02-.02c.142-.14.274-.285.411-.44l-.011.049c-.043.168-.091.357-.052.533a.139.139 0 0 0 .119.113c.072.01.15-.029.184-.092.037-.069.064-.142.082-.195l.083-.145c.075-.121.15-.227.224-.322.17-.212.346-.405.524-.576.103-.097.19-.17.279-.23.036-.025.083-.056.137-.086l-.001.003a2.2 2.2 0 0 1-.074.17c-.066.137-.13.273-.192.409l-.006.013c-.152.344-.359.946-.046 1.118l.015.008.03.011a.37.37 0 0 0 .18.017c.142-.02.257-.118.342-.189.091-.075.173-.157.262-.25.085-.088.164-.18.238-.278-.107.412-.13.72-.065.919a.433.433 0 0 0 .23.242c.03.01.054.02.084.031.25.062.537-.079.872-.431.213-.225.399-.481.577-.73l.141-.195c.141-.193.286-.391.42-.595a.598.598 0 0 0 .125.131c.05.04.101.08.152.118.079.06.156.122.234.185l.04.033.07.056a8.856 8.856 0 0 0-.676.605c-.28.277-.454.512-.57.764-.036.079-.133.29.028.42a.275.275 0 0 0 .176.057c.088 0 .17-.03.213-.044.316-.112.596-.326.85-.54.198-.165.47-.428.552-.787a.856.856 0 0 0-.027-.525c.361-.267.771-.532 1.284-.83.057-.036.069-.114.043-.165zm-2.538-2.482.03-.044c.07-.098.165-.234.26-.266.012-.004.038-.012.049-.003.03.029.028.16-.005.289a2.76 2.76 0 0 1-.094.289c-.142-.004-.278-.008-.41-.008.06-.099.115-.181.17-.257zm-.4.67c.149 0 .297.005.446.009-.066.117-.14.233-.218.34-.23.316-.507.634-.825.949.193-.458.38-.884.597-1.298zm-6.027 1.946c-.004.04-.009.083-.005.126a.283.283 0 0 0-.093.123.392.392 0 0 0 .016.303l-.015.03a4.73 4.73 0 0 1-.187.346c-.1.162-.218.337-.372.38-.02-.042-.023-.142.04-.375l.007-.022a1.77 1.77 0 0 1 .259-.552c.098-.141.214-.297.346-.364l.006-.002c-.002.002-.002.005-.002.007zm6.978 1.833c-.259.24-.519.425-.774.545l-.02.01-.068.034a.693.693 0 0 1 .053-.107l.01-.017c.066-.126.152-.249.26-.374a6.82 6.82 0 0 1 .675-.652c.05-.042.1-.086.153-.128.08.205-.017.437-.289.689z" fill="#fff"/>
</svg>
