<svg xmlns="http://www.w3.org/2000/svg" width="16" height="13" viewBox="0 0 16 13">
    <path fill="#000" fill-rule="evenodd" d="M8.473 7.877c.807 0 1.353.06 1.432.068.438.05.77.434.77.891v1.08L13.92 6.5l-3.247-3.416v1.08c0 .495-.387.896-.865.896-2.654 0-4.707.736-6.101 2.186a6.823 6.823 0 0 0-1.36 2.095C4.365 8.1 6.909 7.877 8.474 7.877M.647 12.97A.891.891 0 0 1 0 12.107c0-.145.016-3.56 2.483-6.127C4.05 4.35 6.22 3.446 8.944 3.291V.897c0-.364.213-.692.537-.83a.842.842 0 0 1 .944.2l5.326 5.604a.92.92 0 0 1 0 1.258l-5.326 5.603a.842.842 0 0 1-.944.2.897.897 0 0 1-.537-.829V9.681c-1.72-.05-5.84.127-7.326 2.862A.86.86 0 0 1 .865 13a.83.83 0 0 1-.218-.03z"/>
</svg>
