<svg width="18" height="17" viewBox="0 0 18 17" fill="none" xmlns="http://www.w3.org/2000/svg">
<path d="M8.12646 1.49426L8.71804 3.11331L8.81145 3.11333L9.46529 1.58767C8.91731 0.964959 8.34441 1.26594 8.12646 1.49426Z" fill="var(--color2)"/>
<path d="M1.71228 5.76379V6.72533H16.813V4.76379H2.71228C2.16 4.76379 1.71228 5.21151 1.71228 5.76379Z" fill="var(--color2)"/>
<path d="M3.58069 8.7804V16.4709H15.6301V8.7804H3.58069Z" fill="var(--color2)"/>
<path d="M16.5276 3.11697H11.7714C11.9904 3.01285 12.195 2.88055 12.38 2.72354C12.7829 2.32041 12.9403 1.73298 12.7928 1.18254C12.6453 0.631907 12.2153 0.202047 11.6649 0.0543878C11.1142 -0.0931026 10.5268 0.0642694 10.1239 0.467402C10.0225 0.583056 9.93464 0.709868 9.86144 0.845099C9.56243 0.498147 9.12708 0.298686 8.66925 0.298686C8.21122 0.298686 7.7759 0.498147 7.47688 0.845099C7.40386 0.709868 7.31584 0.583051 7.21446 0.467402C6.81151 0.0642675 6.22409 -0.093112 5.67346 0.0543878C5.12302 0.202061 4.69297 0.631907 4.5455 1.18254C4.39801 1.73298 4.55538 2.32038 4.95833 2.72354C5.14187 2.88403 5.34572 3.0198 5.56443 3.12759H0.787057C0.578264 3.12759 0.378067 3.21048 0.230572 3.35798C0.0828992 3.50565 0 3.70585 0 3.91446V7.01525C0 7.08498 0.0276315 7.15159 0.0768555 7.20081C0.126081 7.25003 0.192875 7.27766 0.262409 7.27766H1.24088V16.7378C1.24088 16.8073 1.26852 16.8741 1.31774 16.9231C1.36697 16.9724 1.43376 17 1.50329 17H15.811C15.8806 17 15.9474 16.9724 15.9966 16.9231C16.0458 16.8741 16.0734 16.8073 16.0734 16.7378V7.27766H17.0519C17.1215 7.27766 17.1883 7.25003 17.2375 7.20081C17.2867 7.15158 17.3143 7.08497 17.3143 7.01525V3.90402C17.3143 3.69522 17.2314 3.49503 17.0838 3.34753C16.9363 3.19986 16.7361 3.11696 16.5273 3.11696L16.5276 3.11697ZM12.0076 0.826806C12.2076 1.02792 12.3199 1.30005 12.3199 1.58365C12.3199 1.86726 12.2076 2.13939 12.0076 2.3405C11.9157 2.43236 11.6088 2.65269 10.5647 3.12756H9.36057V3.10139L9.52581 2.70796L9.55472 2.6397L9.70679 2.3116L9.73295 2.25121L9.88502 1.91798L9.90863 1.87077L10.0213 1.63727L10.0711 1.53497L10.0715 1.53516C10.182 1.28226 10.3238 1.04421 10.4938 0.826797C10.6946 0.626052 10.9669 0.513331 11.2507 0.513331C11.5345 0.513331 11.8068 0.626052 12.0075 0.826797L12.0076 0.826806ZM9.05096 6.75284H8.11713V3.64142H9.05096V6.75284ZM8.65753 0.816031C9.03468 0.816946 9.38345 1.01622 9.5758 1.34066C9.35713 1.77618 9.10186 2.35497 8.80978 3.07725L8.79404 3.11403H8.53163L8.51589 3.07725C8.22383 2.35661 7.96854 1.77783 7.74986 1.34066C7.94017 1.01932 8.28419 0.820575 8.6575 0.816031H8.65753ZM5.30747 2.34017C5.10672 2.13942 4.994 1.86712 4.994 1.58332C4.994 1.29953 5.10672 1.02721 5.30747 0.826478C5.50821 0.625733 5.78052 0.513011 6.06431 0.513011C6.34813 0.513011 6.62042 0.625733 6.82116 0.826478C6.99281 1.04278 7.13646 1.27993 7.24881 1.53207L7.29859 1.63437L7.41131 1.86787L7.43491 1.91508L7.58698 2.24831L7.61315 2.3087L7.74948 2.62619L7.77839 2.69444L7.94363 3.08788V3.11404H6.75032C5.70617 2.65235 5.39928 2.43201 5.30741 2.34015L5.30747 2.34017ZM0.524944 3.90366C0.524944 3.75873 0.642424 3.64125 0.787357 3.64125H7.5927V6.75267H0.525019L0.524944 3.90366ZM1.7658 7.27733H6.93387V16.4751H1.7658V7.27733ZM7.45855 16.4751V7.27733H9.85374V16.4751H7.45855ZM15.5465 16.4751H10.3813V7.27733H15.5493L15.5465 16.4751ZM16.7902 6.75265H9.57585V3.64123H16.5278C16.5974 3.64123 16.6641 3.66886 16.7134 3.71808C16.7626 3.76731 16.7902 3.8341 16.7902 3.90364L16.7902 6.75265Z" fill="var(--color1)"/>
<path d="M5.76005 1.93017C5.85968 2.32871 6.81866 2.885 7.28569 3.11332H7.93955C7.4912 1.9177 7.06775 1.16215 6.91208 0.933836C6.41391 0.634935 5.93649 1.01686 5.76005 1.24519C5.63551 1.51918 5.70816 1.81601 5.76005 1.93017Z" fill="var(--color2)"/>
<path d="M10.7727 1.46329L9.8075 3.11347H10.617C11.8873 2.54057 12.2464 2.12751 12.2672 1.9926C12.4416 1.29516 12.153 0.913226 11.987 0.809439C11.4141 0.63508 10.9388 1.17269 10.7727 1.46329Z" fill="var(--color2)"/>
</svg>
