<svg width="16" height="10" viewBox="0 0 16 10" fill="none" xmlns="http://www.w3.org/2000/svg">
<path d="M15.6642 6.15076L13.9107 4.0711C13.8599 4.00962 13.785 3.97755 13.7075 3.97755H11.3124V3.10345C11.3124 2.95643 11.1922 2.83614 11.0451 2.83614H10.2245C10.0882 1.24833 8.7543 0 7.13442 0C5.51453 0 4.17799 1.24833 4.04166 2.83614H2.88956C2.74254 2.83614 2.62225 2.95643 2.62225 3.10345V3.96953C2.62225 4.11655 2.74254 4.23684 2.88956 4.23684C3.03658 4.23684 3.15687 4.11655 3.15687 3.96953V3.37076H4.04166C4.17799 4.95857 5.51186 6.2069 7.13174 6.2069C8.75163 6.2069 10.0855 4.95589 10.2218 3.37076H10.7752V7.48997H7.59419C7.44717 7.48997 7.32688 7.61026 7.32688 7.75728C7.32688 7.9043 7.44717 8.02459 7.59419 8.02459H10.7778V8.47367H7.0168C7.00076 8.39882 6.9767 8.32665 6.9473 8.25715C6.94463 8.2518 6.94195 8.24913 6.94195 8.24646C6.91255 8.17963 6.8778 8.11815 6.84038 8.05667C6.82968 8.04063 6.81899 8.02726 6.8083 8.01123C6.77355 7.96311 6.7388 7.92034 6.6987 7.87757C6.68266 7.86153 6.66663 7.84817 6.65059 7.83213C6.61049 7.79471 6.56772 7.75996 6.52228 7.72788C6.50357 7.71451 6.48486 7.70115 6.46615 7.69046C6.41803 7.66105 6.36991 7.63432 6.31645 7.61026C6.29774 7.60224 6.27903 7.59155 6.26032 7.58353C6.20151 7.55947 6.14003 7.54076 6.07588 7.52473C6.06251 7.52205 6.05182 7.51671 6.03845 7.51403C5.95826 7.49799 5.87807 7.4873 5.7952 7.4873C5.71234 7.4873 5.62947 7.49799 5.55195 7.51403C5.53859 7.51671 5.52789 7.52205 5.51453 7.52473C5.45037 7.54076 5.38889 7.55947 5.33009 7.58353C5.31137 7.59155 5.29266 7.59957 5.27395 7.61026C5.22316 7.63432 5.17237 7.66105 5.12426 7.69046C5.10555 7.70115 5.08683 7.71451 5.0708 7.72788C5.02535 7.75996 4.98258 7.79471 4.94249 7.8348C4.92645 7.84817 4.91041 7.86421 4.89705 7.88025C4.85695 7.92302 4.81953 7.96846 4.78478 8.01657C4.77408 8.02994 4.76339 8.0433 4.7527 8.05934C4.7126 8.12082 4.67785 8.18498 4.64845 8.2518C4.64845 8.25448 4.64578 8.25715 4.64578 8.25982C4.61637 8.32932 4.59232 8.4015 4.57628 8.47902H3.16222V7.98182C3.16222 7.8348 3.04193 7.71451 2.89491 7.71451C2.74789 7.71451 2.6276 7.8348 2.6276 7.98182V8.74632C2.6276 8.89334 2.74789 9.01363 2.89491 9.01363H4.57895C4.70191 9.57765 5.20178 10 5.80055 10C6.39932 10 6.89918 9.57765 7.02215 9.01363H12.0342C12.1571 9.57765 12.657 10 13.2558 10C13.8545 10 14.3544 9.57765 14.4774 9.01363H15.4637C15.6108 9.01363 15.731 8.89334 15.731 8.74632V6.32986C15.7284 6.26036 15.7043 6.19888 15.6642 6.15076ZM7.13174 5.67228C5.71501 5.67228 4.56291 4.52018 4.56291 3.10345C4.56291 1.68671 5.71501 0.534616 7.13174 0.534616C8.54848 0.534616 9.70057 1.68671 9.70057 3.10345C9.70057 4.52018 8.54848 5.67228 7.13174 5.67228ZM5.7952 9.46004C5.39959 9.46004 5.07882 9.13659 5.07882 8.74098C5.07882 8.34536 5.39959 8.02459 5.7952 8.02459C6.19082 8.02459 6.51159 8.34536 6.51159 8.74098C6.51159 9.13659 6.18814 9.46004 5.7952 9.46004ZM13.2504 9.46004C12.8548 9.46004 12.534 9.13659 12.534 8.74098C12.534 8.34536 12.8548 8.02459 13.2504 8.02459C13.646 8.02459 13.9668 8.34536 13.9668 8.74098C13.9668 9.13659 13.646 9.46004 13.2504 9.46004ZM15.1938 8.47367H14.4747C14.4587 8.40149 14.4346 8.32932 14.4079 8.2625C14.3999 8.24378 14.3892 8.22775 14.3811 8.21171C14.3571 8.16092 14.3304 8.11013 14.3009 8.06202C14.2849 8.03796 14.2689 8.01657 14.2528 7.99519C14.2234 7.95777 14.194 7.92034 14.1619 7.88559C14.1406 7.86421 14.1192 7.84282 14.0978 7.82411C14.063 7.79203 14.0283 7.76263 13.9909 7.7359C13.9668 7.71719 13.9428 7.70115 13.916 7.68511C13.8759 7.66105 13.8358 7.63967 13.7931 7.61828C13.7663 7.60492 13.7396 7.59155 13.7129 7.58086C13.6648 7.56215 13.614 7.54878 13.5632 7.53542C13.5391 7.53007 13.5151 7.51938 13.4883 7.51671C13.4108 7.50067 13.3333 7.49265 13.2504 7.49265C13.1702 7.49265 13.09 7.50067 13.0125 7.51671C12.9885 7.52205 12.9644 7.53007 12.9403 7.53542C12.8896 7.54878 12.8388 7.56215 12.7907 7.58086C12.7639 7.59155 12.7372 7.60492 12.7105 7.61828C12.6677 7.63967 12.6276 7.66105 12.5875 7.68511C12.5608 7.70115 12.5367 7.71719 12.5127 7.7359C12.4752 7.76263 12.4405 7.79203 12.4057 7.82411C12.3843 7.8455 12.363 7.86421 12.3416 7.88559C12.3095 7.92034 12.2801 7.95777 12.2507 7.99519C12.2347 8.01657 12.2159 8.03796 12.2026 8.06202C12.1705 8.11013 12.1464 8.16092 12.1224 8.21171C12.1144 8.23042 12.1037 8.24646 12.0957 8.2625C12.0663 8.32932 12.0449 8.40149 12.0288 8.47367H11.3098V4.51216H13.5792L15.1911 6.42074V8.47367H15.1938Z" fill="var(--color1)"/>
<path d="M13.2077 4.84362H12.1251C11.9781 4.84362 11.8578 4.9639 11.8578 5.11092V6.17214C11.8578 6.31916 11.9781 6.43945 12.1251 6.43945H14.1032C14.2074 6.43945 14.301 6.37796 14.3464 6.28441C14.3892 6.19085 14.3759 6.07858 14.309 5.99839L13.4135 4.93717C13.3628 4.87837 13.2879 4.84362 13.2077 4.84362ZM12.3951 5.90483V5.37823H13.0848L13.5285 5.90483H12.3951Z" fill="var(--color1)"/>
<path d="M0.94899 5.00385H3.39219C3.53921 5.00385 3.65949 4.88356 3.65949 4.73654C3.65949 4.58952 3.53921 4.46923 3.39219 4.46923H0.94899C0.801971 4.46923 0.681682 4.58952 0.681682 4.73654C0.681682 4.88356 0.799297 5.00385 0.94899 5.00385Z" fill="var(--color1)"/>
<path d="M0.948944 5.77392H0.267308C0.120289 5.77392 0 5.89421 0 6.04122C0 6.18824 0.120289 6.30853 0.267308 6.30853H0.946271C1.09329 6.30853 1.21358 6.18824 1.21358 6.04122C1.21358 5.89421 1.09596 5.77392 0.948944 5.77392Z" fill="var(--color1)"/>
<path d="M1.58508 6.04122C1.58508 6.18824 1.70537 6.30853 1.85239 6.30853H4.57626C4.72328 6.30853 4.84357 6.18824 4.84357 6.04122C4.84357 5.89421 4.72328 5.77392 4.57626 5.77392H1.85239C1.70537 5.77392 1.58508 5.89153 1.58508 6.04122Z" fill="var(--color1)"/>
<path d="M4.5629 7.2145C4.5629 7.06748 4.44261 6.94719 4.29559 6.94719H1.85239C1.70537 6.94719 1.58508 7.06748 1.58508 7.2145C1.58508 7.36152 1.70537 7.48181 1.85239 7.48181H4.29559C4.44261 7.48181 4.5629 7.36152 4.5629 7.2145Z" fill="var(--color1)"/>
<path d="M8.08605 2.83613H7.39906V1.48623C7.39906 1.33921 7.27877 1.21892 7.13176 1.21892C6.98474 1.21892 6.86445 1.33921 6.86445 1.48623V3.10344C6.86445 3.25046 6.98474 3.37075 7.13176 3.37075H8.08605C8.23306 3.37075 8.35335 3.25046 8.35335 3.10344C8.35335 2.95642 8.23574 2.83613 8.08605 2.83613Z" fill="var(--color1)"/>
</svg>
