<svg xmlns="http://www.w3.org/2000/svg" width="12" height="11" viewBox="0 0 12 11">
    <g fill="#FF9797" fill-rule="nonzero">
        <path d="M1.09 6.05v4.243c0 .39.327.707.728.707h3.637V6.05H1.09zM11.25 2.823H8.877c.17-.11.316-.22.418-.317a1.425 1.425 0 0 0 0-2.086c-.588-.56-1.612-.56-2.2 0-.325.308-1.187 1.564-1.068 2.403h-.054C6.092 1.983 5.229.728 4.904.42c-.588-.56-1.612-.56-2.2 0a1.427 1.427 0 0 0 0 2.086c.103.098.249.207.419.317H.75c-.413 0-.75.318-.75.709v1.063c0 .196.168.355.375.355H5.25V3.532h1.5V4.95h4.875A.365.365 0 0 0 12 4.595V3.532c0-.39-.336-.71-.75-.71zm-6.044-.024s-.032.024-.139.024c-.518 0-1.508-.51-1.83-.817a.744.744 0 0 1 0-1.086.82.82 0 0 1 .568-.225.82.82 0 0 1 .567.225c.506.48 1.008 1.708.834 1.88zm1.726.024c-.106 0-.138-.023-.138-.024-.174-.17.328-1.399.834-1.88a.852.852 0 0 1 1.136 0c.315.3.315.788 0 1.087-.323.308-1.313.817-1.832.817zM7.09 6.05V11h3.637a.718.718 0 0 0 .728-.707V6.05H7.09z"/>
    </g>
</svg>
