<svg xmlns="http://www.w3.org/2000/svg" xmlns:xlink="http://www.w3.org/1999/xlink" width="56" height="56" viewBox="0 0 56 56">
    <defs>
        <filter id="prefix__a" width="143.2%" height="143.2%" x="-21.6%" y="-19.3%" filterUnits="objectBoundingBox">
            <feOffset dy="1" in="SourceAlpha" result="shadowOffsetOuter1"/>
            <feGaussianBlur in="shadowOffsetOuter1" result="shadowBlurOuter1" stdDeviation="3"/>
            <feColorMatrix in="shadowBlurOuter1" values="0 0 0 0 0 0 0 0 0 0 0 0 0 0 0 0 0 0 0.0873579545 0"/>
        </filter>
        <path id="prefix__b" d="M8.534 1.664C12.918.554 17.394 0 21.962 0c4.556 0 9.112.552 13.668 1.655 3.529.855 6.252 3.662 6.999 7.215C43.543 13.217 44 17.618 44 22.07c0 4.403-.447 8.805-1.34 13.208-.753 3.708-3.65 6.605-7.358 7.357-4.489.91-8.911 1.364-13.27 1.364-4.386 0-8.773-.461-13.16-1.383-3.552-.746-6.36-3.467-7.215-6.994C.552 31.072 0 26.565 0 22.103c0-4.536.57-9.071 1.712-13.607.845-3.358 3.465-5.982 6.822-6.832z"/>
    </defs>
    <g fill="none" fill-rule="evenodd" transform="translate(6 5)">
        <use fill="#000" filter="url(#prefix__a)" xlink:href="#prefix__b"/>
        <use fill="#FFF" xlink:href="#prefix__b"/>
        <g fill="#E66060" fill-rule="nonzero">
            <path d="M.95 10v7.714c0 .71.569 1.286 1.267 1.286H8.55v-9H.95zM17.813 5.132h-3.758c.27-.2.501-.398.663-.576.958-1.046.958-2.747 0-3.793-.931-1.019-2.553-1.016-3.483 0-.515.56-1.881 2.844-1.692 4.37h-.086c.188-1.526-1.178-3.81-1.692-4.37-.93-1.016-2.553-1.016-3.483 0-.957 1.046-.957 2.747-.001 3.793.163.178.394.376.664.576H1.187C.533 5.132 0 5.712 0 6.422v1.933C0 8.711.266 9 .594 9h7.718V6.421h2.376V9h7.718c.328 0 .594-.289.594-.645V6.421c0-.71-.532-1.289-1.188-1.289zm-9.57-.042s-.05.042-.22.042c-.82 0-2.387-.925-2.899-1.485-.497-.544-.497-1.431 0-1.975.241-.263.56-.408.9-.408.339 0 .658.145.9.408.8.874 1.595 3.107 1.318 3.418zm2.733.042c-.169 0-.218-.041-.218-.042-.277-.311.519-2.544 1.319-3.418.478-.525 1.316-.527 1.799 0 .499.544.499 1.43 0 1.975-.512.56-2.078 1.485-2.9 1.485zM10.45 10v9h6.333c.7 0 1.267-.576 1.267-1.286V10h-7.6z" transform="translate(13 13)"/>
        </g>
    </g>
</svg>
