<svg xmlns="http://www.w3.org/2000/svg" viewBox="0 0 23 20.35"><defs><style>.cls-1{isolation:isolate;}.cls-2{fill:#2a3747;}.cls-3{fill:#fa4141;}.cls-4,.cls-8{fill:#71e2c1;}.cls-10,.cls-5{fill:#fb0;}.cls-11,.cls-5,.cls-8{mix-blend-mode:multiply;}.cls-6{fill:#00ad98;}.cls-7{fill:#fff;}.cls-8{opacity:0.59;}.cls-11,.cls-9{fill:#f24863;}.cls-11{opacity:0.5;}</style></defs><title>Gift Card</title><g class="cls-1"><g id="Object"><circle class="cls-2" cx="11.51" cy="12.29" r="7.99"/><path class="cls-3" d="M133.1,50a.66.66,0,0,1-.64-.64.6.6,0,0,1-.62.62.66.66,0,0,1,.64.64A.6.6,0,0,1,133.1,50Z" transform="translate(-115.19 -30.22)"/><path class="cls-4" d="M138.19,39.48a1.37,1.37,0,0,1-1.31-1.31,1.2,1.2,0,0,1-1.24,1.24,1.37,1.37,0,0,1,1.31,1.31A1.2,1.2,0,0,1,138.19,39.48Z" transform="translate(-115.19 -30.22)"/><path class="cls-3" d="M118.87,44.68a.82.82,0,0,1-.79-.79.72.72,0,0,1-.75.75.82.82,0,0,1,.79.79A.72.72,0,0,1,118.87,44.68Z" transform="translate(-115.19 -30.22)"/><path class="cls-5" d="M117.38,36.14A1.15,1.15,0,0,1,116.26,35a1,1,0,0,1-1.07,1.07,1.15,1.15,0,0,1,1.12,1.12A1,1,0,0,1,117.38,36.14Z" transform="translate(-115.19 -30.22)"/><path class="cls-2" d="M132.5,30.84a.63.63,0,0,1-.61-.61.58.58,0,0,1-.59.59.63.63,0,0,1,.61.61A.58.58,0,0,1,132.5,30.84Z" transform="translate(-115.19 -30.22)"/><polygon class="cls-4" points="19.09 5.09 13.97 14.24 11.3 12.74 9.25 11.6 9.17 11.55 9.21 11.48 12.86 4.96 14.29 2.4 19.09 5.09"/><path class="cls-6" d="M124.82,41h0a.94.94,0,0,1,.36,1.28l-.83-.46Z" transform="translate(-115.19 -30.22)"/><path class="cls-6" d="M129.48,32.63l.83.46a.94.94,0,0,1-1.28.36h0Z" transform="translate(-115.19 -30.22)"/><path class="cls-6" d="M129.62,43.64l-.46.82-.8-.45A.94.94,0,0,1,129.62,43.64Z" transform="translate(-115.19 -30.22)"/><path class="cls-6" d="M133.48,34.86l.8.45-.46.82A.94.94,0,0,1,133.48,34.86Z" transform="translate(-115.19 -30.22)"/><circle class="cls-7" cx="129.32" cy="38.54" r="1.47" transform="translate(-82.66 102.34) rotate(-60.76)"/><circle class="cls-6" cx="130.94" cy="35.64" r="0.81" transform="translate(-79.3 102.27) rotate(-60.76)"/><circle class="cls-6" cx="127.69" cy="41.45" r="0.81" transform="translate(-86.02 102.41) rotate(-60.77)"/><polygon class="cls-8" points="15.02 11.52 11.3 12.74 9.79 13.24 9.25 11.6 9.21 11.48 12.86 4.96 15.02 11.52"/><rect class="cls-4" x="122.91" y="32.84" width="5.5" height="10.48" transform="translate(-119.59 25.87) rotate(-24.75)"/><path class="cls-6" d="M125,43.14h0a.94.94,0,0,1,1.25.46l-.86.4Z" transform="translate(-115.19 -30.22)"/><path class="cls-6" d="M121,34.47l.86-.4a.94.94,0,0,1-.46,1.25h0Z" transform="translate(-115.19 -30.22)"/><path class="cls-6" d="M130,40.84l.39.85-.83.38A.94.94,0,0,1,130,40.84Z" transform="translate(-115.19 -30.22)"/><path class="cls-6" d="M125.12,32.55l.83-.38.39.85A.94.94,0,0,1,125.12,32.55Z" transform="translate(-115.19 -30.22)"/><circle class="cls-7" cx="125.66" cy="38.08" r="1.47" transform="translate(-119.59 25.87) rotate(-24.75)"/><circle class="cls-6" cx="124.26" cy="35.06" r="0.81" transform="translate(-118.45 25.01) rotate(-24.75)"/><circle class="cls-6" cx="127.05" cy="41.1" r="0.81" transform="translate(-120.73 26.74) rotate(-24.75)"/><rect class="cls-9" x="5.93" y="8.93" width="12.03" height="9.88" rx="1.63" ry="1.63"/><path class="cls-7" d="M131.53,48.43h-.44a.07.07,0,1,1,0-.15h.44a.07.07,0,1,1,0,.15Zm-.89,0h-.44a.07.07,0,1,1,0-.15h.44a.07.07,0,0,1,0,.15Zm-.89,0h-.44a.07.07,0,1,1,0-.15h.44a.07.07,0,1,1,0,.15Zm-.89,0h-.44a.07.07,0,1,1,0-.15h.44a.07.07,0,0,1,0,.15Zm-.89,0h-.44a.07.07,0,1,1,0-.15H128a.07.07,0,1,1,0,.15Zm-.89,0h-.44a.07.07,0,1,1,0-.15h.44a.07.07,0,0,1,0,.15Zm-.89,0h-.44a.07.07,0,1,1,0-.15h.44a.07.07,0,1,1,0,.15Zm-.89,0h-.44a.07.07,0,1,1,0-.15h.44a.07.07,0,1,1,0,.15Zm-.89,0H124a.07.07,0,1,1,0-.15h.44a.07.07,0,1,1,0,.15Zm-.89,0h-.44a.07.07,0,1,1,0-.15h.44a.07.07,0,1,1,0,.15Zm-.89,0h0a1,1,0,0,1-.46-.13.07.07,0,1,1,.08-.13.81.81,0,0,0,.39.11.07.07,0,0,1,0,.15Zm9.32-.08a.07.07,0,0,1,0-.14.82.82,0,0,0,.31-.26.07.07,0,0,1,.12.09,1,1,0,0,1-.37.3ZM121.91,48a.07.07,0,0,1-.06,0,1,1,0,0,1-.13-.46V47a.07.07,0,1,1,.15,0v.44h0a.81.81,0,0,0,.11.39.07.07,0,0,1,0,.1Zm10.55-.34h0a.07.07,0,0,1-.06-.08.82.82,0,0,0,0-.11v-.33a.07.07,0,1,1,.15,0v.33a1,1,0,0,1,0,.12A.07.07,0,0,1,132.46,47.66Zm0-.89a.07.07,0,0,1-.07-.07v-.44a.07.07,0,1,1,.15,0v.44A.07.07,0,0,1,132.47,46.77Zm-10.69-.12a.07.07,0,0,1-.07-.07v-.44a.07.07,0,0,1,.15,0v.44A.07.07,0,0,1,121.79,46.66Zm10.69-.77a.07.07,0,0,1-.07-.07v-.44a.07.07,0,1,1,.15,0v.44A.07.07,0,0,1,132.47,45.88Zm-10.69-.11a.07.07,0,0,1-.07-.07v-.44a.07.07,0,1,1,.15,0v.44A.07.07,0,0,1,121.79,45.77ZM132.47,45a.07.07,0,0,1-.07-.07v-.44a.07.07,0,1,1,.15,0v.44A.07.07,0,0,1,132.47,45Zm-10.69-.11a.07.07,0,0,1-.07-.07v-.44a.07.07,0,0,1,.15,0v.44A.07.07,0,0,1,121.79,44.88Zm10.69-.77a.07.07,0,0,1-.07-.07v-.44a.07.07,0,1,1,.15,0V44A.07.07,0,0,1,132.47,44.11ZM121.79,44a.07.07,0,0,1-.07-.07v-.44a.07.07,0,1,1,.15,0v.44A.07.07,0,0,1,121.79,44Zm10.69-.77a.07.07,0,0,1-.07-.07V42.7a.07.07,0,1,1,.15,0v.44A.07.07,0,0,1,132.47,43.22Zm-10.69-.12a.07.07,0,0,1-.07-.07v-.44a.07.07,0,0,1,.15,0V43A.07.07,0,0,1,121.79,43.1Zm10.69-.77a.07.07,0,0,1-.07-.07v-.44a.07.07,0,1,1,.15,0v.44A.07.07,0,0,1,132.47,42.33Zm-10.69-.11a.07.07,0,0,1-.07-.07v-.44a.07.07,0,1,1,.15,0v.44A.07.07,0,0,1,121.79,42.21Zm10.69-.77a.07.07,0,0,1-.07-.07v-.44a.07.07,0,1,1,.15,0v.44A.07.07,0,0,1,132.47,41.44Zm-10.69-.12a.07.07,0,0,1-.07-.07v-.44a.07.07,0,0,1,.15,0v.44A.07.07,0,0,1,121.79,41.32Zm10.65-.77a.07.07,0,0,1-.07-.05.81.81,0,0,0-.2-.35.07.07,0,0,1,.11-.1,1,1,0,0,1,.24.41.07.07,0,0,1-.05.09Zm-10.59-.11h0a.07.07,0,0,1,0-.1,1,1,0,0,1,.29-.38.07.07,0,1,1,.09.12.82.82,0,0,0-.24.32A.07.07,0,0,1,121.85,40.44Zm10-.5h0a.82.82,0,0,0-.24,0h-.18a.07.07,0,1,1,0-.15h.18a1,1,0,0,1,.29,0,.07.07,0,0,1,0,.14Zm-9.33,0a.07.07,0,0,1,0-.15H123a.07.07,0,1,1,0,.15h-.44Zm8.44,0h-.44a.07.07,0,1,1,0-.15H131a.07.07,0,0,1,0,.15Zm-.89,0h-.44a.07.07,0,1,1,0-.15h.44a.07.07,0,1,1,0,.15Zm-.89,0h-.44a.07.07,0,1,1,0-.15h.44a.07.07,0,0,1,0,.15Zm-.89,0h-.44a.07.07,0,1,1,0-.15h.44a.07.07,0,1,1,0,.15Zm-.89,0H127a.07.07,0,1,1,0-.15h.44a.07.07,0,0,1,0,.15Zm-.89,0h-.44a.07.07,0,1,1,0-.15h.44a.07.07,0,1,1,0,.15Zm-.89,0h-.44a.07.07,0,1,1,0-.15h.44a.07.07,0,0,1,0,.15Zm-.89,0h-.44a.07.07,0,1,1,0-.15h.44a.07.07,0,1,1,0,.15Zm-.89,0h-.44a.07.07,0,1,1,0-.15h.44a.07.07,0,0,1,0,.15Z" transform="translate(-115.19 -30.22)"/><path class="cls-10" d="M133.06,45.6h-3.74a1.22,1.22,0,0,1-1.22-1.22V43.8a1.22,1.22,0,0,1,1.22-1.22h3.74a.41.41,0,0,1,.41.41v2.19A.41.41,0,0,1,133.06,45.6Z" transform="translate(-115.19 -30.22)"/><circle class="cls-2" cx="14.39" cy="13.87" r="0.81"/><circle class="cls-11" cx="7.28" cy="16.62" r="2.21"/></g></g></svg>