<svg width="22" height="22" viewBox="0 0 22 22" fill="none" xmlns="http://www.w3.org/2000/svg">
<path d="M20.3038 17.1712L20.3037 17.1713L11.4754 21.4824L11.4753 21.4825C11.1599 21.6366 10.8326 21.639 10.5178 21.4905L10.5175 21.4904L1.71252 17.3448C1.36113 17.1793 1.03204 16.8294 0.787779 16.3228C0.545254 15.8198 0.4 15.1882 0.4 14.5081V7.60195C0.4 6.92579 0.543504 6.29731 0.783657 5.7955C1.02549 5.29019 1.3519 4.93903 1.7016 4.77022L10.5179 0.514913L10.518 0.514879C10.8351 0.361707 11.1649 0.361707 11.482 0.514879L11.4821 0.514913L20.2984 4.77022C20.6482 4.93906 20.9746 5.29005 21.2164 5.79518C21.4565 6.29682 21.6 6.92529 21.6 7.60195V14.3425C21.6 15.0169 21.4572 15.6439 21.2182 16.1451C20.9774 16.6497 20.6524 17.0012 20.3038 17.1712Z" fill="black" stroke="url(#paint0_linear_991_45238)" stroke-width="0.8"/>
<path d="M10.5122 3.69609H9.40137L10.2999 4.34883L9.95721 5.40591L10.8557 4.75228L11.7542 5.40591L11.4107 4.34883L12.3092 3.69609H11.1984L10.8557 2.63989L10.5122 3.69609Z" fill="url(#paint1_linear_991_45238)"/>
<path d="M6.96655 5.38133L7.56116 4.94969L8.15488 5.38133L7.92761 4.68278L8.52133 4.25202H7.78755L7.56116 3.55347L7.33389 4.25202H6.6001L7.19382 4.68278L6.96655 5.38133Z" fill="url(#paint2_linear_991_45238)"/>
<path d="M13.9228 4.25202H13.189L13.7827 4.68278L13.5563 5.38133L14.15 4.94969L14.7437 5.38133L14.5165 4.68278L15.1102 4.25202H14.3764L14.15 3.55347L13.9228 4.25202Z" fill="url(#paint3_linear_991_45238)"/>
<path d="M10.5122 17.6485H9.40137L10.2999 18.3012L9.95721 19.3583L10.8557 18.7047L11.7542 19.3583L11.4107 18.3012L12.3092 17.6485H11.1984L10.8557 16.5923L10.5122 17.6485Z" fill="url(#paint4_linear_991_45238)"/>
<path d="M6.96655 18.4201L7.56116 17.9885L8.15488 18.4201L7.92761 17.7216L8.52133 17.2908H7.78755L7.56116 16.5923L7.33389 17.2908H6.6001L7.19382 17.7216L6.96655 18.4201Z" fill="url(#paint5_linear_991_45238)"/>
<path d="M13.9228 17.2908H13.189L13.7827 17.7216L13.5563 18.4201L14.15 17.9885L14.7437 18.4201L14.5165 17.7216L15.1102 17.2908H14.3764L14.15 16.5923L13.9228 17.2908Z" fill="url(#paint6_linear_991_45238)"/>
<path d="M7.04004 11.0124C7.04004 8.5611 9.00104 6.6001 11.44 6.6001C12.4696 6.6001 13.5971 7.02907 14.4306 7.75219C14.5409 7.83798 14.5531 7.98506 14.4551 8.08311L13.4868 9.11263C13.3888 9.19843 13.254 9.19843 13.1559 9.12489C12.6902 8.69592 12.1509 8.53659 11.5503 8.53659C10.2144 8.53659 9.13586 9.66417 9.13586 11.0124C9.13586 12.3483 10.2267 13.4514 11.5626 13.4514C11.918 13.4514 12.2857 13.4023 12.6534 13.2553V12.5444H11.8813C11.7464 12.5444 11.6484 12.4463 11.6484 12.3238V11.1104C11.6484 10.9756 11.7464 10.8775 11.8813 10.8775H14.3448C14.4673 10.8775 14.5654 10.9878 14.5654 11.1104L14.5776 14.4073C14.5776 14.4686 14.5286 14.5667 14.4796 14.6034C14.4796 14.6034 13.2172 15.4001 11.44 15.4001C9.00104 15.4001 7.04004 13.4636 7.04004 11.0124Z" fill="white"/>
<path d="M7.04004 11.0124C7.04004 8.5611 9.00104 6.6001 11.44 6.6001C12.4696 6.6001 13.5971 7.02907 14.4306 7.75219C14.5409 7.83798 14.5531 7.98506 14.4551 8.08311L13.4868 9.11263C13.3888 9.19843 13.254 9.19843 13.1559 9.12489C12.6902 8.69592 12.1509 8.53659 11.5503 8.53659C10.2144 8.53659 9.13586 9.66417 9.13586 11.0124C9.13586 12.3483 10.2267 13.4514 11.5626 13.4514C11.918 13.4514 12.2857 13.4023 12.6534 13.2553V12.5444H11.8813C11.7464 12.5444 11.6484 12.4463 11.6484 12.3238V11.1104C11.6484 10.9756 11.7464 10.8775 11.8813 10.8775H14.3448C14.4673 10.8775 14.5654 10.9878 14.5654 11.1104L14.5776 14.4073C14.5776 14.4686 14.5286 14.5667 14.4796 14.6034C14.4796 14.6034 13.2172 15.4001 11.44 15.4001C9.00104 15.4001 7.04004 13.4636 7.04004 11.0124Z" fill="url(#paint7_linear_991_45238)"/>
<defs>
<linearGradient id="paint0_linear_991_45238" x1="11" y1="0" x2="11" y2="22" gradientUnits="userSpaceOnUse">
<stop stop-color="#FFE6A0"/>
<stop offset="0.494792" stop-color="#937038"/>
<stop offset="1" stop-color="#FFE895"/>
</linearGradient>
<linearGradient id="paint1_linear_991_45238" x1="10.8553" y1="3.84584" x2="10.8553" y2="5.60249" gradientUnits="userSpaceOnUse">
<stop stop-color="#EEE4C0"/>
<stop offset="0.14" stop-color="#EDE2BD"/>
<stop offset="0.23" stop-color="#EADCB4"/>
<stop offset="0.31" stop-color="#E4D2A6"/>
<stop offset="0.37" stop-color="#DDC591"/>
<stop offset="0.44" stop-color="#D4B376"/>
<stop offset="0.47" stop-color="#CEA865"/>
<stop offset="0.66" stop-color="#AC8240"/>
<stop offset="0.77" stop-color="#9E7231"/>
<stop offset="0.88" stop-color="#A3793E"/>
<stop offset="1" stop-color="#A77F47"/>
</linearGradient>
<linearGradient id="paint2_linear_991_45238" x1="7.56072" y1="4.35039" x2="7.56072" y2="5.51123" gradientUnits="userSpaceOnUse">
<stop stop-color="#EEE4C0"/>
<stop offset="0.14" stop-color="#EDE2BD"/>
<stop offset="0.23" stop-color="#EADCB4"/>
<stop offset="0.31" stop-color="#E4D2A6"/>
<stop offset="0.37" stop-color="#DDC591"/>
<stop offset="0.44" stop-color="#D4B376"/>
<stop offset="0.47" stop-color="#CEA865"/>
<stop offset="0.66" stop-color="#AC8240"/>
<stop offset="0.77" stop-color="#9E7231"/>
<stop offset="0.88" stop-color="#A3793E"/>
<stop offset="1" stop-color="#A77F47"/>
</linearGradient>
<linearGradient id="paint3_linear_991_45238" x1="14.1496" y1="4.35039" x2="14.1496" y2="5.51123" gradientUnits="userSpaceOnUse">
<stop stop-color="#EEE4C0"/>
<stop offset="0.14" stop-color="#EDE2BD"/>
<stop offset="0.23" stop-color="#EADCB4"/>
<stop offset="0.31" stop-color="#E4D2A6"/>
<stop offset="0.37" stop-color="#DDC591"/>
<stop offset="0.44" stop-color="#D4B376"/>
<stop offset="0.47" stop-color="#CEA865"/>
<stop offset="0.66" stop-color="#AC8240"/>
<stop offset="0.77" stop-color="#9E7231"/>
<stop offset="0.88" stop-color="#A3793E"/>
<stop offset="1" stop-color="#A77F47"/>
</linearGradient>
<linearGradient id="paint4_linear_991_45238" x1="10.8553" y1="17.7982" x2="10.8553" y2="19.5549" gradientUnits="userSpaceOnUse">
<stop stop-color="#EEE4C0"/>
<stop offset="0.14" stop-color="#EDE2BD"/>
<stop offset="0.23" stop-color="#EADCB4"/>
<stop offset="0.31" stop-color="#E4D2A6"/>
<stop offset="0.37" stop-color="#DDC591"/>
<stop offset="0.44" stop-color="#D4B376"/>
<stop offset="0.47" stop-color="#CEA865"/>
<stop offset="0.66" stop-color="#AC8240"/>
<stop offset="0.77" stop-color="#9E7231"/>
<stop offset="0.88" stop-color="#A3793E"/>
<stop offset="1" stop-color="#A77F47"/>
</linearGradient>
<linearGradient id="paint5_linear_991_45238" x1="7.56072" y1="17.3892" x2="7.56072" y2="18.5501" gradientUnits="userSpaceOnUse">
<stop stop-color="#EEE4C0"/>
<stop offset="0.14" stop-color="#EDE2BD"/>
<stop offset="0.23" stop-color="#EADCB4"/>
<stop offset="0.31" stop-color="#E4D2A6"/>
<stop offset="0.37" stop-color="#DDC591"/>
<stop offset="0.44" stop-color="#D4B376"/>
<stop offset="0.47" stop-color="#CEA865"/>
<stop offset="0.66" stop-color="#AC8240"/>
<stop offset="0.77" stop-color="#9E7231"/>
<stop offset="0.88" stop-color="#A3793E"/>
<stop offset="1" stop-color="#A77F47"/>
</linearGradient>
<linearGradient id="paint6_linear_991_45238" x1="14.1496" y1="17.3892" x2="14.1496" y2="18.5501" gradientUnits="userSpaceOnUse">
<stop stop-color="#EEE4C0"/>
<stop offset="0.14" stop-color="#EDE2BD"/>
<stop offset="0.23" stop-color="#EADCB4"/>
<stop offset="0.31" stop-color="#E4D2A6"/>
<stop offset="0.37" stop-color="#DDC591"/>
<stop offset="0.44" stop-color="#D4B376"/>
<stop offset="0.47" stop-color="#CEA865"/>
<stop offset="0.66" stop-color="#AC8240"/>
<stop offset="0.77" stop-color="#9E7231"/>
<stop offset="0.88" stop-color="#A3793E"/>
<stop offset="1" stop-color="#A77F47"/>
</linearGradient>
<linearGradient id="paint7_linear_991_45238" x1="10.8088" y1="10.4368" x2="10.8088" y2="16.0255" gradientUnits="userSpaceOnUse">
<stop stop-color="#EEE4C0"/>
<stop offset="0.14" stop-color="#EDE2BD"/>
<stop offset="0.23" stop-color="#EADCB4"/>
<stop offset="0.31" stop-color="#E4D2A6"/>
<stop offset="0.37" stop-color="#DDC591"/>
<stop offset="0.44" stop-color="#D4B376"/>
<stop offset="0.47" stop-color="#CEA865"/>
<stop offset="0.66" stop-color="#AC8240"/>
<stop offset="0.77" stop-color="#9E7231"/>
<stop offset="0.88" stop-color="#A3793E"/>
<stop offset="1" stop-color="#A77F47"/>
</linearGradient>
</defs>
</svg>
