<svg width="24" height="24" viewBox="0 0 24 24" fill="none" xmlns="http://www.w3.org/2000/svg">
    <path d="M24 12c0 6.627-5.373 12-12 12S0 18.627 0 12 5.373 0 12 0s12 5.373 12 12z" fill="#E3CF99"/>
    <path fill-rule="evenodd" clip-rule="evenodd" d="M12 22.667c5.891 0 10.667-4.776 10.667-10.667S17.89 1.333 12 1.333 1.333 6.11 1.333 12 6.11 22.667 12 22.667zM12 24c6.627 0 12-5.373 12-12S18.627 0 12 0 0 5.373 0 12s5.373 12 12 12z" fill="#E8C888"/>
    <path d="m12.023 6 1.422 3.71 4.602.666-3.056 2.705.755 4.376-3.723-2.705-3.722 2.705.755-4.376L6 10.376l4.601-.666L12.023 6z" fill="#fff"/>
</svg>
