<svg width="125" height="73" viewBox="0 0 125 73" fill="none" xmlns="http://www.w3.org/2000/svg">
    <path d="M88.596 39.556c-.083-.049-.166-.102-.249-.151 0 .045 0 .09-.003.136.082.004.169.008.252.016zM94.28 40.674c.86-.023 7.583-.296 9.896-.296-.113-2.587-.297-4.995-.309-7.4-.037-6.818-.105-21.57-.173-22.248-2.411.75-4.615 1.432-6.758 2.098.286 1.261.76 5.651.802 6.795.034.98-.263 1.31-1.243 1.121-1.876-.363-3.669.042-5.417.883-4.652 2.238-6.848 8.438-5.684 13.282.15.621.343 1.178.572 1.686a2.483 2.483 0 0 1 1.67.784c.504.522.738 1.2.711 2.018.083.053.162.107.249.152.015 0 .03.004.049.004l1.126.08c.034.003.072.003.11.003.384.015 1.284.05 1.928.814.03.038.06.076.087.114.742.098 1.54.133 2.384.11zm-2.087-3.2c-.663-.932-.911-8.886-.486-11.753.336-2.273 2.005-3.5 3.801-3.424 1.432.06 2.17.84 2.208 2.466.041 1.89.011 3.78.011 5.67.004 1.742-.011 3.48.008 5.222.015 1.356-.328 2.477-1.654 2.932-1.54.526-3.195.129-3.888-1.114zM41.844 27.683l-6.717 2.734c.053.334.113.618.14.902.162 1.803.474 3.613.422 5.408-.042 1.387-.927 2.34-2.317 2.568-2.287.379-4.061-.507-5.492-2.409-3.24-4.31-2.807-12.733-.976-16.093 1.767-3.238 4.81-4.961 8.02-4.48 1.59.238 2.445 1.541 2.068 3.2-.11.477-.34.924-.49 1.39-.557 1.708.441 3.803 2.053 4.318 1.53.488 3.07-.617 3.485-2.504.625-2.86-.731-5.859-3.492-7.45-3.835-2.204-7.757-1.715-11.576-.015-6.724 2.992-9.655 10.677-6.845 17.627 2.35 5.814 8.2 8.973 14.676 7.87 2.17-.367 4.325-1.374 6.623.103.135-.08.278-.16.418-.239v-12.93z" fill="#000"/>
    <path d="M78.184 39.87c.497-.238.98-.518 1.447-.844 4.84-3.416 6.004-9.544 2.704-14.222-3.081-4.367-9.29-5.317-13.82-2.12-4.593 3.238-5.75 9.422-2.604 13.9 2.313 3.29 6.193 4.753 9.855 4.075.17-.144.365-.258.583-.337.622-.22 1.236-.345 1.835-.451zm-2.833-4.938c-.621 1.19-1.578 2.223-2.384 3.325-1.104.587-2.034.618-3.033.144-1.005-.477-1.333-1.306-1.198-2.325.117-.849.28-1.746.675-2.508 1.476-2.867 3.04-5.692 4.603-8.518.23-.416.633-.753.987-1.098.957-.936 2.015-1.454 3.288-.837 1.206.587 1.805 1.72 1.164 3.254-1.213 2.908-2.633 5.753-4.102 8.563z" fill="#000"/>
    <path d="M48.444 37.83c-.501-.523-.622-1.22-.475-2.012.154-.844.358-1.73.768-2.484 1.522-2.788 3.127-5.534 4.736-8.276.24-.409.648-.742 1.01-1.08.975-.916 2.045-1.412 3.307-.768 1.194.61 1.77 1.76 1.1 3.276-1.281 2.882-2.762 5.696-4.295 8.473-.346.628-.79 1.211-1.254 1.783a21.49 21.49 0 0 1 3.28-.17c1.568.045 3 .292 4.273.723 3.092-3.45 3.567-8.313.93-12.26-3.006-4.5-9.252-5.59-13.878-2.427-4.63 3.17-5.865 9.294-2.787 13.858a9.922 9.922 0 0 0 1.676 1.905c.241-.087.479-.174.727-.258.302-.102.592-.193.882-.284zM63.9 41.515c-.509-1.015-1.42-1.86-2.573-2.379-1.322-.598-2.897-.924-4.679-.977-2.595-.076-5.368.401-8.48 1.458-2.584.875-4.712 1.867-6.516 3.034-1.639 1.06-3.809 2.727-3.715 4.954.05 1.182.675 2.14 1.281 3.064.26.394.524.803.735 1.22.478.939.772 1.935.847 2.897-.572.068-1.141.133-1.714.197-.12.015-.24.034-.361.057l-.317.057-.14.026c-.44.015-.722.424-.734.795-.007.353.219.61.535.633.11.026.215.034.32.042l.128.011c.05.004.102.011.151.011.076.004.147.008.253.008h.132a25.681 25.681 0 0 0 1.39-.057c-.272.598-.535 1.2-.795 1.803l-.068.163c-.546 1.269-1.111 2.583-1.45 3.962-.042.166.03.322.177.382a.311.311 0 0 0 .128.027.37.37 0 0 0 .316-.182c.667-1.095 1.243-2.254 1.812-3.398l1.447-2.92c.248-.03.497-.064.742-.094a59.138 59.138 0 0 0 6.667-1.277c2.66-.666 4.935-1.44 6.95-2.37 2.724-1.255 4.626-2.561 5.994-4.103 1.567-1.772 2.787-4.548 1.537-7.044zm-1.828 5.109c-1.295 2.026-3.56 3.31-5.153 4.098-1.857.92-3.978 1.697-6.483 2.367-2.158.58-4.479 1.019-7.485 1.42 1.371-2.753 2.856-5.692 4.453-8.616.407-.742.772-1.398 1.122-2 .076-.129.155-.254.238-.386.301-.477.614-.97.67-1.534a.541.541 0 0 0-.248-.534.633.633 0 0 0-.332-.091.71.71 0 0 0-.384.114c-.497.322-.787.833-1.066 1.329l-.117.205a77.721 77.721 0 0 0-.99 1.776c-.682 1.254-1.39 2.61-2.23 4.268a228.488 228.488 0 0 0-2.528 5.14c-.132-1.28-.603-2.61-1.36-3.803l-.155-.242c-.73-1.148-1.488-2.333-.968-3.625.268-.666.788-1.303 1.631-2 1.85-1.526 4.16-2.51 5.964-3.2 2.52-.962 4.836-1.545 7.085-1.784 1.684-.178 3.19-.132 4.596.148 1.01.2 2.463.576 3.458 1.515a3.668 3.668 0 0 1 1.16 2.488c.068 1.197-.44 2.261-.878 2.947zM70.443 45.885c.03.122.09.201.15.277.091.114.227.151.355.151a.666.666 0 0 0 .565-.326c.049-.079.083-.166.124-.272l.015-.038-.166-.09.185.052c.053-.098.12-.193.177-.269.102-.128.2-.253.286-.39l.064-.094c.095-.144.204-.303.253-.493a.802.802 0 0 0-.004-.48.617.617 0 0 0-.332-.38c-.297-.125-.632-.045-.919.216-.147.137-.245.315-.331.474l-.057.098c-.094.17-.18.352-.252.55-.064.17-.113.352-.14.537a1.318 1.318 0 0 0 .027.477z" fill="#000"/>
    <path d="M92.005 47.453c-.075-.151-.245-.204-.407-.132-1.28.568-2.6 1.352-3.929 2.325a4.596 4.596 0 0 0-.331-.352c-.102-.098-.211-.197-.317-.295-.267-.243-.542-.493-.738-.773-.173-.242-.136-.454.132-.81.218-.292.512-.546.828-.724.004.352.212.617.543.693a.847.847 0 0 0 .95-.458c.18-.375.387-.943.12-1.508-.241-.507-.795-.734-1.413-.586-.87.212-1.74.844-2.396 1.734-.369.504-.569.996-.595 1.462-.004.057-.004.11 0 .163-.934 1.447-1.932 2.75-2.976 3.875-.26.28-.576.606-.93.878-.29.227-.622.481-.965.481a.222.222 0 0 1-.101-.019l-.046-.007s-.018-.015-.033-.095c-.042-.133-.015-.337.01-.48.046-.346.144-.762.25-1.137l.327-1.034a47.658 47.658 0 0 1 1.077-3.049c1.232-.989 2.427-2.235 3.557-3.708.44-.576.82-1.144 1.13-1.69l.218.008c.66.03 1.315.072 1.974.118.384.026.765.056 1.15.087.063.004.123.011.187.019.35.038.709.075 1.055-.14a.556.556 0 0 0 .264-.394.502.502 0 0 0-.11-.406c-.225-.268-.58-.284-.866-.295-.056-.004-.109-.004-.162-.008-.369-.026-.734-.056-1.103-.08a94.272 94.272 0 0 0-1.801-.105l-.226-.012c.094-.234.173-.47.237-.693.155-.537.305-1.31-.154-1.791-.223-.231-.479-.349-.769-.337-.655.015-1.292.644-1.774 1.19-.4.454-.776.972-1.153 1.586-1.408.042-2.667.16-3.842.356l-.09.015c-.678.114-1.38.231-2.046.466a.383.383 0 0 0-.248.42c.026.16.158.266.327.266.441 0 .882-.05 1.307-.099.177-.019.355-.041.535-.057a38.91 38.91 0 0 1 1.967-.132c.43-.02.889-.03 1.416-.038a67.145 67.145 0 0 0-1.492 2.996 59.559 59.559 0 0 0-1.484 3.446l-.049.088c-.196.303-.403.594-.636.92l-.05.068c-.384.534-.775 1.087-1.239 1.56a3.376 3.376 0 0 1-.757.603c-.079.045-.162.075-.241.11l-.041.015c0-.02.003-.042.007-.068.075-.678.96-2.432 1.07-2.644l.038-.095c.041-.102.082-.2.116-.303.17-.466.32-1.129.072-1.617a.867.867 0 0 0-.516-.443c-.29-.095-.652-.053-.965.113-.436.232-.817.561-1.133.853-.241.223-.471.465-.69.715l.064-.113c.046-.083.098-.17.155-.261.26-.432.584-.97.391-1.5-.105-.3-.455-.368-.745-.28-.524.158-.83.757-1.078 1.234a6.17 6.17 0 0 1-.12.231c-.204.367-.403.78-.614 1.261a37.215 37.215 0 0 1-2.05 2.038c-.131.121-.263.239-.395.356l-.056.05c-.087.075-.125.11-.238.189-.03.022-.064.041-.094.06l.026-.102a5.67 5.67 0 0 1 .083-.269c.158-.477.305-.867.456-1.235l.08-.185c.075-.186.154-.371.233-.557l.26-.58c.06-.128.131-.257.207-.386.147-.261.297-.53.38-.822.094-.352 0-.663-.252-.833a.788.788 0 0 0-.89.034c-.432.31-.65.773-.873 1.235-.106.223-.207.45-.301.678-.14.098-.272.182-.4.254-.527.295-1.19.51-1.548.28.03-.136.056-.292.056-.443.513-.178.856-.69.886-1.318.03-.625-.279-1.16-.784-1.364-1.096-.44-2.173.55-2.588.992-.73.788-1.228 1.569-1.521 2.38-.26.719-.52 1.76-.264 2.62.124.42.444.886.975.935.373.035.795-.124 1.262-.477.758-.568 1.198-1.363 1.496-1.992.071-.148.14-.3.203-.45.67.212 1.458-.137 1.839-.345-.155.477-.26.913-.32 1.325-.06.39-.114.8-.042 1.186a.96.96 0 0 0 .418.644c.222.14.493.178.769.106.44-.118.764-.443 1.054-.731l.06-.06c.411-.41.795-.834 1.195-1.285l-.034.14c-.124.493-.264 1.046-.15 1.56.037.183.169.304.346.33.21.03.437-.083.535-.269.109-.2.188-.413.24-.568a9.671 9.671 0 0 1 .893-1.367 17.083 17.083 0 0 1 1.526-1.686c.298-.283.554-.496.81-.674.105-.072.241-.162.4-.25 0 .004-.004.008-.004.008a6.42 6.42 0 0 1-.215.5 56.47 56.47 0 0 0-.558 1.193l-.019.038c-.44 1.007-1.043 2.768-.131 3.272l.041.023a1.07 1.07 0 0 0 .61.083c.415-.06.75-.344.999-.553.263-.22.5-.458.76-.73a8.86 8.86 0 0 0 .694-.815c-.313 1.204-.377 2.106-.189 2.69.11.268.268.473.479.609.056.038.113.064.188.098.087.03.158.057.245.091.73.182 1.563-.23 2.539-1.26.621-.66 1.16-1.41 1.68-2.137l.41-.572c.411-.564.833-1.144 1.221-1.738.098.14.219.268.365.382.147.117.294.231.441.345.23.178.456.356.682.541l.117.095c.067.057.135.11.203.167a25.725 25.725 0 0 0-1.966 1.768c-.814.811-1.322 1.5-1.658 2.235-.105.231-.388.848.08 1.231a.799.799 0 0 0 .512.167c.256 0 .497-.087.621-.13.92-.329 1.733-.954 2.471-1.578.577-.485 1.368-1.254 1.609-2.303.124-.53.113-.989-.026-1.406a1.374 1.374 0 0 0-.053-.132c1.05-.78 2.245-1.557 3.737-2.428.165-.106.2-.333.124-.485zm-7.387-7.26.09-.129c.204-.288.479-.685.758-.78.033-.012.109-.034.139-.008.087.084.083.47-.015.845a8.077 8.077 0 0 1-.271.844c-.415-.01-.81-.022-1.195-.022.178-.288.336-.53.494-.75zm-1.164 1.958c.433.004.866.015 1.3.026a9.698 9.698 0 0 1-.637.997 22.552 22.552 0 0 1-2.4 2.776c.562-1.341 1.104-2.587 1.737-3.8zm-17.54 5.696c-.01.118-.026.243-.014.368a.83.83 0 0 0-.272.36c-.105.284-.086.602.046.886l-.042.087c-.173.348-.346.685-.546 1.015-.29.473-.633.985-1.081 1.11-.06-.122-.068-.413.117-1.095l.019-.064a5.185 5.185 0 0 1 .753-1.618c.286-.412.625-.867 1.01-1.064.003-.004.01-.004.015-.007-.004.007-.004.015-.004.022zm20.309 5.363c-.754.705-1.51 1.243-2.253 1.595l-.056.03c-.087.046-.155.076-.2.099.022-.065.068-.163.154-.315l.027-.049c.196-.367.444-.727.76-1.095.626-.72 1.345-1.367 1.963-1.905.147-.125.294-.253.445-.375.233.599-.05 1.277-.84 2.015z" fill="#000"/>
</svg>
