<svg width="30" height="17" viewBox="0 0 30 17" fill="none" xmlns="http://www.w3.org/2000/svg">
    <path d="m21.263 9.212-.06-.035v.031l.06.004zM22.627 9.472c.206-.005 1.82-.069 2.375-.069-.027-.602-.071-1.163-.074-1.723-.009-1.588-.025-5.023-.041-5.181l-1.622.488c.068.294.182 1.316.192 1.583.008.228-.063.305-.298.26-.45-.084-.88.01-1.3.206-1.117.522-1.644 1.965-1.365 3.094.037.144.083.274.138.392a.604.604 0 0 1 .571.653l.06.035h.012l.27.02h.026c.092.004.309.012.463.19a.6.6 0 0 1 .021.026c.178.023.37.031.572.026zm-.5-.745c-.16-.217-.22-2.07-.117-2.737.08-.53.48-.815.912-.798.343.015.52.196.53.575.01.44.002.88.002 1.32.001.406-.002.81.002 1.216.004.316-.078.577-.397.683-.37.123-.766.03-.933-.26zM10.043 6.447c-.568.224-1.084.427-1.612.637.012.077.027.143.033.21.039.42.114.84.101 1.259-.01.323-.222.545-.556.598-.549.088-.974-.118-1.318-.561-.777-1.004-.673-2.965-.234-3.748C6.88 4.088 7.61 3.687 8.382 3.8c.381.055.586.359.496.745-.026.111-.081.215-.117.324-.134.398.105.885.492 1.005.367.114.737-.143.836-.583.15-.666-.175-1.364-.838-1.735-.92-.513-1.861-.4-2.778-.003-1.614.697-2.317 2.486-1.643 4.105C5.395 9.01 6.8 9.747 8.353 9.49c.52-.086 1.038-.32 1.59.023l.1-.055V6.447z" fill="#fff"/>
    <path d="M18.764 9.285c.12-.056.235-.12.347-.197 1.162-.795 1.441-2.222.65-3.312-.74-1.017-2.23-1.238-3.318-.494-1.102.755-1.38 2.195-.624 3.237a2.396 2.396 0 0 0 2.365.95.46.46 0 0 1 .14-.079c.149-.051.296-.08.44-.105zm-.68-1.15c-.149.277-.378.518-.572.774-.265.137-.488.144-.728.034-.241-.111-.32-.305-.287-.542.028-.197.067-.406.162-.584.354-.667.73-1.325 1.104-1.983.055-.097.152-.176.237-.256.23-.218.484-.339.79-.195.289.137.433.4.279.758-.291.677-.632 1.34-.985 1.994z" fill="#fff"/>
    <path d="M11.626 8.81c-.12-.122-.149-.285-.114-.469.038-.197.086-.403.185-.578.365-.65.75-1.29 1.136-1.928.058-.095.156-.173.243-.251.234-.213.49-.329.793-.18.287.143.425.411.264.764a25.401 25.401 0 0 1-1.03 1.973c-.083.146-.19.282-.301.415.221-.027.438-.041.65-.041a3.604 3.604 0 0 1 1.162.17c.743-.803.856-1.936.224-2.855-.722-1.048-2.22-1.302-3.33-.565-1.112.738-1.409 2.164-.67 3.227.117.168.252.316.402.444l.175-.06c.072-.024.142-.045.211-.066zM15.336 9.668a1.247 1.247 0 0 0-.618-.554 3.008 3.008 0 0 0-1.123-.228c-.622-.017-1.288.094-2.035.34-.62.204-1.13.435-1.564.706-.393.247-.914.636-.891 1.154.012.275.162.498.307.714.063.091.126.187.177.284.114.218.185.45.203.674l-.411.046a1.53 1.53 0 0 0-.087.014l-.076.013-.033.006c-.106.003-.174.099-.177.185-.002.082.053.142.129.147.026.007.051.008.076.01l.031.003.036.002.06.002h.033a6.424 6.424 0 0 0 .333-.013c-.065.14-.128.28-.19.42l-.017.038c-.131.295-.267.601-.348.922-.01.04.007.075.043.09a.09.09 0 0 0 .107-.036c.16-.256.298-.526.434-.792l.347-.68.178-.022a14.58 14.58 0 0 0 1.6-.297 9.595 9.595 0 0 0 1.669-.552c.653-.292 1.11-.597 1.438-.956.376-.412.669-1.059.369-1.64zm-.439 1.19c-.31.471-.854.77-1.236.954a8.497 8.497 0 0 1-1.556.551c-.518.135-1.075.238-1.797.331.33-.641.686-1.326 1.069-2.007.098-.172.185-.325.27-.465.017-.03.036-.06.056-.09.073-.111.148-.226.161-.357a.125.125 0 0 0-.06-.125.155.155 0 0 0-.079-.021.174.174 0 0 0-.092.026c-.12.075-.19.194-.256.31l-.028.048c-.074.125-.153.26-.238.413a52.103 52.103 0 0 0-1.142 2.191 2.035 2.035 0 0 0-.326-.885l-.037-.057c-.176-.267-.357-.543-.233-.844.065-.155.19-.303.392-.465.444-.356.998-.585 1.431-.746a6.906 6.906 0 0 1 1.7-.415c.405-.042.766-.031 1.104.034.242.047.59.134.83.353.168.153.266.36.278.58.016.278-.106.526-.21.686zM16.906 10.686a.158.158 0 0 0 .037.064.106.106 0 0 0 .084.035.16.16 0 0 0 .136-.076.39.39 0 0 0 .03-.063l.003-.009-.04-.02.045.011a.524.524 0 0 1 .043-.062c.024-.03.047-.06.068-.091l.016-.022c.022-.034.048-.07.06-.115a.182.182 0 0 0 0-.112.145.145 0 0 0-.08-.088c-.072-.03-.152-.01-.22.05a.419.419 0 0 0-.08.11l-.014.024a.887.887 0 0 0-.06.127.583.583 0 0 0-.034.126.295.295 0 0 0 .006.11z" fill="#fff"/>
    <path d="M22.081 11.05c-.018-.034-.059-.047-.097-.03a5.196 5.196 0 0 0-.943.542 1.086 1.086 0 0 0-.08-.082l-.076-.07a1.152 1.152 0 0 1-.177-.18c-.042-.056-.033-.105.032-.188a.647.647 0 0 1 .198-.168.16.16 0 0 0 .13.161.205.205 0 0 0 .229-.107c.043-.087.093-.22.028-.35-.058-.119-.19-.172-.339-.137-.209.049-.417.196-.575.403a.637.637 0 0 0-.143.34v.039c-.224.337-.463.64-.714.902a1.851 1.851 0 0 1-.223.205c-.07.053-.15.112-.231.112-.01 0-.018-.001-.025-.005l-.01-.001s-.005-.004-.009-.022a.26.26 0 0 1 .003-.112c.01-.08.034-.178.06-.265l.078-.24c.023-.07.045-.14.07-.208.052-.153.115-.318.189-.503.295-.23.582-.52.853-.863.106-.134.197-.267.271-.394l.053.002c.158.007.315.017.474.027l.275.02.046.005c.084.009.17.018.253-.033a.13.13 0 0 0 .063-.091.114.114 0 0 0-.026-.095c-.055-.062-.14-.066-.208-.068l-.04-.002-.264-.019c-.144-.01-.287-.017-.432-.024l-.054-.003c.022-.055.041-.11.057-.162.037-.125.073-.305-.038-.417a.24.24 0 0 0-.184-.078c-.157.003-.31.15-.426.277a2.687 2.687 0 0 0-.276.37c-.338.009-.64.036-.923.082l-.021.004c-.163.026-.331.054-.491.108a.089.089 0 0 0-.06.098c.006.037.038.062.079.062.106 0 .211-.012.314-.023.042-.004.085-.01.128-.013a9.598 9.598 0 0 1 .812-.04 15.51 15.51 0 0 0-.714 1.5l-.012.02c-.047.071-.097.14-.153.215l-.012.016c-.092.124-.186.253-.297.363a.806.806 0 0 1-.182.14c-.019.011-.039.018-.058.026l-.01.004.002-.016c.018-.158.23-.567.257-.616l.009-.022c.01-.024.02-.047.028-.07.04-.109.077-.263.017-.377a.207.207 0 0 0-.124-.103.314.314 0 0 0-.231.026c-.105.054-.196.13-.272.198a2.263 2.263 0 0 0-.166.167l.016-.026c.01-.02.023-.04.037-.061.062-.1.14-.226.094-.35-.026-.069-.11-.085-.18-.065-.125.037-.198.177-.258.288l-.029.054a3.51 3.51 0 0 0-.147.293 8.768 8.768 0 0 1-.492.475l-.095.083-.013.011c-.021.018-.03.026-.057.044l-.023.014.006-.023.02-.063c.038-.111.073-.202.11-.287l.019-.044.056-.13.062-.134c.014-.03.032-.06.05-.09.035-.061.071-.124.091-.192.023-.082 0-.154-.06-.194a.194.194 0 0 0-.214.008c-.104.073-.156.18-.21.288-.025.052-.05.105-.072.158a1.12 1.12 0 0 1-.096.059c-.126.069-.286.119-.371.065a.478.478 0 0 0 .013-.103c.123-.042.205-.16.213-.307.007-.146-.067-.27-.188-.318-.264-.102-.522.128-.621.232a1.632 1.632 0 0 0-.366.553c-.062.168-.124.41-.063.61.03.099.107.207.234.219.09.008.19-.03.303-.111.182-.133.287-.318.359-.465l.049-.104c.16.049.35-.032.44-.08a1.851 1.851 0 0 0-.076.308.81.81 0 0 0-.01.276.223.223 0 0 0 .1.15.237.237 0 0 0 .185.025c.106-.028.184-.104.253-.17l.015-.015a6.6 6.6 0 0 0 .286-.299l-.008.033c-.03.115-.063.243-.036.363.009.043.04.071.083.077a.13.13 0 0 0 .128-.063.838.838 0 0 0 .058-.132l.058-.099c.053-.082.104-.155.157-.22.118-.144.24-.275.366-.392a1.604 1.604 0 0 1 .29-.215l-.001.002c-.015.04-.033.077-.052.116-.046.093-.09.185-.133.278l-.005.009c-.106.235-.25.645-.031.762l.01.005a.264.264 0 0 0 .146.02c.1-.014.18-.08.24-.13a2.16 2.16 0 0 0 .182-.17c.06-.06.115-.123.166-.189-.075.28-.09.49-.045.626a.297.297 0 0 0 .16.165l.059.021c.175.043.375-.053.61-.293.148-.154.278-.328.403-.498l.098-.133c.099-.131.2-.266.293-.405a.415.415 0 0 0 .088.09l.105.08c.056.041.11.082.164.126l.028.022.049.039c-.17.133-.327.271-.472.411-.195.19-.317.35-.398.52-.025.055-.093.198.02.287.036.03.08.04.122.04.062 0 .12-.021.15-.03.22-.077.415-.223.593-.369.138-.112.328-.291.386-.536a.57.57 0 0 0-.02-.358c.253-.182.54-.362.897-.565.04-.025.048-.078.03-.113zm-1.773-1.69.022-.03c.049-.067.115-.16.182-.182.008-.002.026-.008.033-.001.021.019.02.109-.003.196a1.849 1.849 0 0 1-.066.197c-.099-.003-.194-.005-.286-.005.042-.067.08-.124.118-.175zm-.28.456c.105 0 .209.004.313.006-.046.08-.098.159-.153.232-.16.215-.353.432-.576.647.135-.313.265-.603.417-.885zm-4.208 1.327c-.003.027-.007.056-.004.085a.194.194 0 0 0-.065.084.26.26 0 0 0 .01.206l-.01.02c-.04.082-.082.16-.13.237-.07.11-.152.23-.26.258-.014-.028-.016-.096.028-.255l.005-.014c.037-.134.097-.26.18-.377.07-.096.15-.202.243-.248 0 0 .003 0 .003-.002v.006zm4.873 1.248c-.18.165-.362.29-.54.372l-.014.007-.048.023a.477.477 0 0 1 .037-.073l.007-.012c.047-.085.106-.17.182-.255.15-.167.323-.318.471-.443.036-.03.07-.06.107-.088.056.14-.012.297-.202.47z" fill="#fff"/>
</svg>
