<svg width="14" height="14" viewBox="0 0 14 14" fill="none" xmlns="http://www.w3.org/2000/svg">
    <circle cx="7" cy="7" r="7" fill="#231F20"/>
    <path fill-rule="evenodd" clip-rule="evenodd" d="M3.743 1.015a6.818 6.818 0 0 0-.807.518c.042.138.064.285.064.437 0 .845-.7 1.53-1.562 1.53-.093 0-.183-.007-.27-.022a6.792 6.792 0 0 0-.417.806c.307.28.499.68.499 1.122 0 .674-.444 1.246-1.061 1.451a6.94 6.94 0 0 0 .052.998 1.539 1.539 0 0 1 1.197 1.489c0 .38-.142.729-.377.997.154.272.325.533.513.78.136-.037.278-.058.426-.058.863 0 1.563.686 1.563 1.532 0 .093-.01.185-.025.274.266.157.544.297.832.418a1.573 1.573 0 0 1 1.13-.474c.672 0 1.245.416 1.466 1H7c.3 0 .596-.02.885-.057a1.56 1.56 0 0 1 1.49-1.068c.338 0 .65.105.906.284a6.81 6.81 0 0 0 .887-.582 1.507 1.507 0 0 1-.043-.358c0-.846.7-1.531 1.563-1.531.051 0 .103.002.153.007.177-.293.332-.601.464-.921a1.51 1.51 0 0 1-.43-1.055c0-.627.385-1.167.936-1.403a6.837 6.837 0 0 0-.047-.947 1.532 1.532 0 0 1-.757-2.398 6.818 6.818 0 0 0-.522-.825 1.563 1.563 0 0 1-1.905-1.756 6.792 6.792 0 0 0-.826-.436A1.563 1.563 0 0 1 7.23.191a6.937 6.937 0 0 0-.968.036A1.558 1.558 0 0 1 4.75 1.375c-.383 0-.735-.135-1.007-.36z" fill="#fff"/>
    <path d="M9.496 10.268s-.265.217-.466.362a4.287 4.287 0 0 1-3.151.655A4.31 4.31 0 0 1 3.155 9.56a4.368 4.368 0 0 1 .817-5.957 4.29 4.29 0 0 1 5.944.576 4.364 4.364 0 0 1-.325 6.005l-.095.084z" fill="#FF9797"/>
    <path d="M10.225 10.155s-.265.22-.465.365a4.263 4.263 0 0 1-3.152.66 4.306 4.306 0 0 1-2.724-1.737 4.423 4.423 0 0 1-.78-3.167A4.39 4.39 0 0 1 4.7 3.442a4.27 4.27 0 0 1 5.944.58 4.415 4.415 0 0 1 1.036 3.091 4.402 4.402 0 0 1-1.361 2.958l-.095.085z" fill="#FF9797"/>
    <path d="M10.026 10.171s-.278.229-.49.38a4.506 4.506 0 0 1-3.31.689 4.527 4.527 0 0 1-2.863-1.812 4.586 4.586 0 0 1 .859-6.258 4.51 4.51 0 0 1 6.245.605 4.582 4.582 0 0 1-.342 6.308l-.1.088z" fill="#FF9797"/>
    <path d="M9.912 10.03s-.264.22-.465.365a4.262 4.262 0 0 1-3.151.66A4.305 4.305 0 0 1 3.57 9.318a4.423 4.423 0 0 1-.78-3.167 4.39 4.39 0 0 1 1.598-2.834 4.27 4.27 0 0 1 5.943.58 4.415 4.415 0 0 1 1.037 3.09 4.402 4.402 0 0 1-1.362 2.959l-.095.084z" fill="#fff"/>
    <path d="M9.53 9.609s-.232.19-.408.318a3.756 3.756 0 0 1-2.763.575A3.778 3.778 0 0 1 3.97 8.988a3.836 3.836 0 0 1 .717-5.23 3.76 3.76 0 0 1 5.211.506 3.832 3.832 0 0 1-.285 5.271l-.083.074z" fill="#FF9797"/>
    <path d="M9.935 9.813a.58.58 0 0 1-.354-.13 1.08 1.08 0 0 1-.274-.323 4.445 4.445 0 0 1-.12-.226l-.007-.015a4.291 4.291 0 0 0-.043-.085v-.012l-.014-.028V8.99a.02.02 0 0 1-.004-.006l-.034-.074-.209-.466a1.125 1.125 0 0 0-.199-.3.39.39 0 0 0-.184-.115l.006-.124a.457.457 0 0 0 .413-.162.64.64 0 0 0 .127-.441l-.004-.05-.36.124h-.011l-.048.011h-.022a.154.154 0 0 1-.132-.072.37.37 0 0 1-.04-.087V7.22l.005-.003.02-.006.053-.018.47-.163-.028-.04a.295.295 0 0 0-.204-.13H8.71a71.88 71.88 0 0 1-.58.185l-.041.013.043 2.095a1.391 1.391 0 0 1-.354-.101.376.376 0 0 0-.142-.024c-.129 0-.284.044-.45.09-.175.05-.358.1-.517.1h-.232c-.764 0-1.375-.25-1.766-.727a3.116 3.116 0 0 1-.648-1.561c-.076-.612.036-1.192.314-1.633.334-.53.789-1.1 1.97-1.11.056 0 1.266.009 1.669.726.275.493.16.906.157.91v.011a.489.489 0 0 1-.976.004c.012-.056.125-.606.138-.752a.478.478 0 0 0-.124-.351c-.11-.119-.274-.178-.49-.178a1.546 1.546 0 0 0-1.014.386c-.418.406-.62 1.014-.612 1.856.012 1.148.302 1.847.862 2.077.163.07.338.108.516.111.203 0 .353-.06.413-.12.22-.22.19-.732.154-1.02a15.767 15.767 0 0 0-.084-.511v-.01l-.012-.014a.382.382 0 0 1-.04-.087v-.007l.006-.003.02-.006.052-.018.22-.076c.206-.07.541-.17.864-.276l.053-.016.023-.008.023-.006c.286-.09.582-.183.78-.25l.158-.055c.139-.048.283-.097.425-.148a.209.209 0 0 1 .07-.012.2.2 0 0 1 .184.145.049.049 0 0 1 .004.02.096.096 0 0 1-.019.008l-.594.204-.128.044.117.033.073.022c.052.018.102.04.15.067l.014.009.272-.105.164-.056c.138-.047.281-.096.422-.147a.209.209 0 0 1 .07-.013.2.2 0 0 1 .19.165l-.01.006c-.376.12.004 0-.01.003l-.594.204-.314.116.023.04.003.005a.613.613 0 0 1-.079.694.851.851 0 0 1-.346.24l-.038.015-.008.01-.022.028.023.026c.168.174.32.362.454.562.072.1.146.204.224.304l.138.164c.072.083.155.155.247.216.09.061.194.096.302.1.008 0 .012 0 .023.026.01.026.007.032.004.035a.918.918 0 0 1-.442.262.568.568 0 0 1-.12.016z" fill="#fff"/>
    <path d="M10.509 9.502a.772.772 0 0 1-.644-.453l.26-.33c.052.124.231.4.531.5l-.027.06-.12.223zM9.51 9.625l-.26.102c.031.143.169.435.469.46l.25-.187.259-.273c-.333.041-.63-.017-.718-.102z" fill="#FF9797"/>
</svg>
