<svg width="21" height="21" viewBox="0 0 21 21" fill="none" xmlns="http://www.w3.org/2000/svg">
<path fill-rule="evenodd" clip-rule="evenodd" d="M10.1582 0C10.0508 0 9.94694 0.0196508 9.84654 0.0583184C9.64553 0.135738 9.47379 0.28259 9.32618 0.437557C9.15277 0.619654 8.99956 0.824951 8.84531 1.0237C8.54904 1.40535 8.20192 1.84172 7.72297 1.98405C7.24402 2.12642 6.71898 1.94935 6.26587 1.79042C6.02992 1.70763 5.79143 1.6188 5.5483 1.56048C5.34132 1.51091 5.1184 1.48137 4.90796 1.52625C4.80288 1.54873 4.70503 1.58896 4.61465 1.64775C4.52423 1.70657 4.44746 1.77994 4.38363 1.86741C4.25585 2.04254 4.18976 2.26009 4.14839 2.47122C4.09976 2.71933 4.08051 2.97588 4.05688 3.2275C4.01151 3.71074 3.95248 4.26781 3.62561 4.64966C3.29869 5.03156 2.76247 5.16997 2.29642 5.28424C2.05371 5.34369 1.80561 5.39952 1.56996 5.48353C1.36937 5.55504 1.16606 5.65223 1.01302 5.80517C0.936544 5.88158 0.875762 5.96897 0.831136 6.06794C0.786468 6.16687 0.761045 6.27062 0.754073 6.37914C0.740088 6.5964 0.800745 6.81556 0.878685 7.01587C0.970275 7.25117 1.09109 7.47751 1.2056 7.70212C1.42547 8.13351 1.67336 8.63441 1.60231 9.1346C1.5313 9.63474 1.15404 10.0447 0.822996 10.3959C0.650627 10.5787 0.471704 10.7615 0.318329 10.9611C0.187748 11.1311 0.0686469 11.3241 0.0215993 11.5365C-0.00190367 11.6426 -0.00637048 11.7494 0.00890852 11.8571C0.0241875 11.9648 0.0581687 12.0659 0.110309 12.1611C0.214549 12.3515 0.382576 12.5027 0.555154 12.6285C0.757914 12.7764 0.980419 12.9007 1.1967 13.0269C1.61208 13.2695 2.08811 13.5552 2.29546 14.0149C2.50285 14.4745 2.40441 15.0258 2.31345 15.5025C2.26615 15.7506 2.21322 16.0023 2.1908 16.2542C2.17172 16.4686 2.1746 16.6962 2.24845 16.9006C2.28535 17.0027 2.33862 17.0951 2.40901 17.1773C2.47939 17.2595 2.562 17.326 2.65664 17.3775C2.84604 17.4806 3.06817 17.5158 3.28049 17.5273C3.53001 17.5406 3.78362 17.5234 4.03301 17.5113C4.512 17.488 5.06505 17.4679 5.48497 17.7411C5.90489 18.0142 6.11654 18.5319 6.29459 18.9826C6.38731 19.2173 6.47715 19.458 6.59286 19.6822C6.69134 19.873 6.81529 20.0629 6.98661 20.1945C7.07223 20.2602 7.16629 20.3087 7.2694 20.3393C7.37251 20.37 7.47759 20.3807 7.58466 20.3722C7.79911 20.3553 8.00475 20.2634 8.18952 20.1568C8.4066 20.0315 8.61069 19.8782 8.81404 19.7315C9.20453 19.4498 9.65902 19.1301 10.1582 19.1301C10.6574 19.1301 11.1119 19.4498 11.5024 19.7315C11.7057 19.8782 11.9098 20.0315 12.127 20.1568C12.3116 20.2634 12.5174 20.3553 12.7318 20.3722C12.8388 20.3807 12.9439 20.37 13.047 20.3393C13.1501 20.3087 13.2442 20.2602 13.3298 20.1945C13.5012 20.0629 13.6251 19.873 13.7236 19.6822C13.8392 19.458 13.9291 19.2173 14.0218 18.9826C14.1999 18.5319 14.4115 18.0142 14.8315 17.7411C15.2513 17.4679 15.8044 17.488 16.2834 17.5113C16.5329 17.5234 16.7864 17.5406 17.0359 17.5273C17.2483 17.5158 17.4704 17.4806 17.6598 17.3775C17.7544 17.326 17.8371 17.2595 17.9074 17.1773C17.9778 17.0951 18.0311 17.0027 18.068 16.9006C18.1419 16.6962 18.1447 16.4686 18.1256 16.2542C18.1033 16.0023 18.0503 15.7506 18.0029 15.5025C17.9121 15.0258 17.8136 14.4745 18.021 14.0149C18.2283 13.5552 18.7044 13.2695 19.1197 13.0269C19.336 12.9007 19.5586 12.7764 19.7613 12.6285C19.9338 12.5027 20.1019 12.3515 20.2062 12.1611C20.2582 12.0659 20.2922 11.9648 20.3075 11.8571C20.3228 11.7494 20.3183 11.6426 20.2949 11.5365C20.2478 11.3241 20.1286 11.1311 19.9981 10.9611C19.8447 10.7615 19.6658 10.5787 19.4934 10.3959C19.1624 10.0447 18.7852 9.63474 18.7141 9.1346C18.6431 8.63441 18.891 8.13351 19.1108 7.70212C19.2253 7.47751 19.3462 7.25117 19.4377 7.01583C19.5157 6.81556 19.5763 6.59636 19.5624 6.3791C19.5554 6.27062 19.53 6.16687 19.4853 6.06794C19.4407 5.96897 19.3798 5.88153 19.3034 5.80517C19.1504 5.65223 18.9471 5.55504 18.7465 5.48353C18.5108 5.39952 18.2627 5.34369 18.0201 5.28424C17.554 5.16997 17.0177 5.03156 16.6908 4.64966C16.364 4.26781 16.305 3.71078 16.2595 3.2275C16.2359 2.97588 16.2166 2.71933 16.168 2.47122C16.1266 2.26009 16.0605 2.04254 15.9328 1.86741C15.869 1.77994 15.7922 1.70657 15.7018 1.64775C15.6114 1.58896 15.5135 1.54869 15.4084 1.52625C15.198 1.48133 14.9751 1.51091 14.7681 1.56048C14.525 1.6188 14.2865 1.70763 14.0506 1.79042C13.5975 1.94935 13.0724 2.12642 12.5935 1.98405C12.1146 1.84172 11.7674 1.40535 11.4711 1.0237C11.3168 0.824951 11.1636 0.619654 10.9903 0.437557C10.8426 0.28259 10.6709 0.135738 10.4699 0.0583184C10.3695 0.0196508 10.2657 0 10.1582 0Z" fill="#16A34A"/>
<path d="M14.4736 6.48545C14.183 6.21729 13.7301 6.23531 13.4618 6.52571L8.76113 11.6125C8.7348 11.641 8.69066 11.6436 8.6612 11.6183L6.45676 9.72978C6.15994 9.47549 5.71313 9.51018 5.45911 9.80723C5.20546 10.1038 5.24003 10.5499 5.53635 10.8039L8.32095 13.1907C8.60952 13.4422 9.04665 13.4197 9.3068 13.1389L14.5141 7.49764C14.7825 7.20695 14.7643 6.75376 14.4736 6.48545Z" fill="white"/>
</svg>
