<svg xmlns="http://www.w3.org/2000/svg" width="16" height="16" viewBox="0 0 16 16">
   <path d="M5.525 0H1.85C.83 0 0 .83 0 1.85v3.675c0 1.02.83 1.85 1.85 1.85h3.675c1.02 0 1.85-.83 1.85-1.85V1.85C7.375.83 6.545 0 5.525 0zm.6 5.525c0 .33-.27.6-.6.6H1.85c-.33 0-.6-.27-.6-.6V1.85c0-.33.27-.6.6-.6h3.675c.33 0 .6.27.6.6v3.675zM14.125 0H10.5C9.466 0 8.625.841 8.625 1.875V5.5c0 1.034.841 1.875 1.875 1.875h3.625C15.159 7.375 16 6.534 16 5.5V1.875C16 .841 15.159 0 14.125 0zm.625 5.5c0 .345-.28.625-.625.625H10.5c-.345 0-.625-.28-.625-.625V1.875c0-.345.28-.625.625-.625h3.625c.345 0 .625.28.625.625V5.5zM5.525 8.625H1.85c-1.02 0-1.85.83-1.85 1.85v3.675C0 15.17.83 16 1.85 16h3.675c1.02 0 1.85-.83 1.85-1.85v-3.675c0-1.02-.83-1.85-1.85-1.85zm.6 5.525c0 .33-.27.6-.6.6H1.85c-.33 0-.6-.27-.6-.6v-3.675c0-.33.27-.6.6-.6h3.675c.33 0 .6.27.6.6v3.675zM14.125 8.625H10.5c-1.034 0-1.875.841-1.875 1.875v3.625c0 1.034.841 1.875 1.875 1.875h3.625C15.159 16 16 15.159 16 14.125V10.5c0-1.034-.841-1.875-1.875-1.875zm.625 5.5c0 .345-.28.625-.625.625H10.5c-.345 0-.625-.28-.625-.625V10.5c0-.345.28-.625.625-.625h3.625c.345 0 .625.28.625.625v3.625z" transform="translate(-312.000000, -313.000000) translate(256.000000, 306.000000) translate(56.000000, 7.000000)"/>
</svg>
