<svg xmlns="http://www.w3.org/2000/svg" width="94" height="72" viewBox="0 0 94 72">
    <g fill="none" fill-rule="evenodd" opacity=".361">
        <g>
            <g>
                <g>
                    <path fill="#FFF" d="M66.37 6.657c-.187-1.206-1.174-2.166-2.426-2.288-.227-1.944-1.883-3.453-3.893-3.453-1.572 0-2.928.924-3.553 2.257-.213-.044-.434-.068-.66-.068-1.786 0-3.234 1.444-3.234 3.225 0 .115.007.229.019.341-.821.15-1.45.87-1.45 1.73 0 .968.795 1.76 1.764 1.76h13.209c.97 0 1.764-.792 1.764-1.76 0-.892-.675-1.634-1.54-1.744M103.28 21.828c-.185-1.197-1.164-2.149-2.407-2.27-.225-1.929-1.868-3.426-3.862-3.426-1.56 0-2.906.916-3.526 2.239-.211-.044-.43-.067-.655-.067-1.772 0-3.209 1.432-3.209 3.2 0 .114.007.227.019.338-.815.148-1.438.863-1.438 1.717 0 .96.787 1.745 1.75 1.745h13.106c.962 0 1.75-.785 1.75-1.745 0-.885-.67-1.621-1.529-1.73M17.902 36.612c-.215-1.4-1.36-2.513-2.814-2.655-.263-2.256-2.185-4.007-4.517-4.007-1.825 0-3.398 1.072-4.123 2.618-.248-.05-.504-.078-.767-.078-2.072 0-3.752 1.676-3.752 3.742 0 .134.007.266.021.396-.953.174-1.681 1.01-1.681 2.008 0 1.123.92 2.041 2.047 2.041h15.327c1.126 0 2.047-.918 2.047-2.04 0-1.036-.783-1.897-1.788-2.025" transform="translate(0 -539) translate(-11 539)"/>
                    <path fill="#FF9797" d="M40.06 61.776c0 .46-.105.925-.329 1.36l-3.538 6.878c-.716 1.393-2.395 1.99-3.821 1.402-.076-.03-.151-.065-.225-.103-1.471-.753-2.057-2.569-1.302-4.035l3.538-6.879c.743-1.444 2.52-2.033 3.978-1.332.023.01.046.022.068.034 1.035.53 1.632 1.585 1.632 2.675M58.52 71.313c-.067.034-.135.065-.203.094-1.43.603-3.123.007-3.843-1.393l-3.538-6.878c-.224-.435-.33-.9-.33-1.36 0-1.09.597-2.146 1.632-2.675l.09-.044c1.454-.685 3.217-.095 3.956 1.343l3.538 6.878c.755 1.466.169 3.282-1.302 4.035" transform="translate(0 -539) translate(-11 539)"/>
                    <path fill="#F06F6F" d="M40.06 61.776c0 .46-.105.925-.329 1.36l-3.538 6.878c-.716 1.393-2.395 1.99-3.821 1.402l5.989-12.349c.023.01.046.022.068.034 1.035.53 1.632 1.585 1.632 2.675M58.317 71.407c-1.431.603-3.123.007-3.843-1.393l-3.538-6.878c-.224-.435-.33-.9-.33-1.36 0-1.09.597-2.146 1.632-2.675.03-.016.06-.03.09-.044l5.99 12.35z" transform="translate(0 -539) translate(-11 539)"/>
                    <path fill="#FFF" d="M27.101 19.18c0 .958-.779 1.735-1.74 1.735s-1.74-.777-1.74-1.735c0-.958.779-1.735 1.74-1.735s1.74.777 1.74 1.735M67.086 19.535c0 .958-.78 1.735-1.74 1.735-.962 0-1.74-.777-1.74-1.735 0-.958.778-1.735 1.74-1.735.96 0 1.74.777 1.74 1.735" transform="translate(0 -539) translate(-11 539)"/>
                    <path fill="#FF9797" d="M26.072 27.186c-.138 0-.278-.038-.403-.117-.35-.222-.453-.686-.23-1.035l7.813-12.23c.074-.116.18-.21.305-.27.128-.063 3.204-1.541 7.686-2.293 2.637-.442 5.213-.538 7.66-.284 3.07.318 5.941 1.19 8.53 2.592.113.06.209.15.277.258l7.521 11.875c.222.35.117.813-.234 1.034-.351.22-.815.116-1.037-.234l-7.415-11.708c-2.37-1.254-4.992-2.036-7.798-2.327-2.311-.239-4.752-.147-7.255.272-3.664.615-6.376 1.755-7.09 2.076L26.706 26.84c-.143.224-.387.346-.635.346" transform="translate(0 -539) translate(-11 539)"/>
                    <path fill="#FBC03F" d="M45.254 29.474c-.87 0-1.582-.71-1.582-1.578v-7.888c0-.867.712-1.577 1.582-1.577.87 0 1.582.71 1.582 1.577v7.888c0 .868-.711 1.578-1.582 1.578M34.762 28.665L32.782 30.365 25.154 21.532 27.134 19.832z" transform="translate(0 -539) translate(-11 539)"/>
                    <path fill="#FFCDCD" d="M35.196 21.161l-6.877 5.865-2.936 2.503c-.537.458-1.346.395-1.805-.14l-.727-.848c-1.867-2.178-1.609-5.484.576-7.347l1.959-1.67 1.857-1.584c2.184-1.863 5.5-1.605 7.367.573l.726.847c.46.537.397 1.343-.14 1.801" transform="translate(0 -539) translate(-11 539)"/>
                    <path fill="#FBC03F" d="M55.285 28.665L57.265 30.365 64.893 21.532 62.913 19.832z" transform="translate(0 -539) translate(-11 539)"/>
                    <path fill="#FFCDCD" d="M67.195 28.54l-.726.848c-.46.536-1.268.599-1.806.14l-6.398-5.456-3.413-2.91c-.538-.459-.601-1.265-.142-1.802l.727-.847c1.868-2.178 5.183-2.436 7.367-.573l1.7 1.45 2.116 1.804c2.184 1.863 2.443 5.169.575 7.347" transform="translate(0 -539) translate(-11 539)"/>
                    <path fill="#FF9898" d="M49.921 18.318v1.014c0 .805-.66 1.465-1.469 1.465h-6.395c-.808 0-1.47-.66-1.47-1.465v-1.014c0-.806.662-1.465 1.47-1.465h6.395c.808 0 1.47.66 1.47 1.465M67.64 44.934c0 7.69-3.873 14.479-9.778 18.532-1.644 1.128-3.444 2.044-5.363 2.709l-.1.034c-1.008.345-2.048.62-3.115.82-1.357.253-2.757.386-4.188.386-2.443 0-4.795-.387-6.998-1.104-1.933-.629-3.75-1.511-5.414-2.608-6.104-4.022-10.131-10.926-10.131-18.769 0-6.882 3.101-13.042 7.987-17.166.666-.562 1.364-1.086 2.093-1.569 3.2-2.12 6.974-3.448 11.04-3.7.47-.03.945-.045 1.423-.045.586 0 1.166.022 1.74.066 3.907.297 7.535 1.588 10.63 3.618.732.48 1.434 1 2.102 1.56.987.823 1.9 1.73 2.732 2.709.616.724 1.186 1.487 1.706 2.285 2.299 3.523 3.633 7.727 3.633 12.242" transform="translate(0 -539) translate(-11 539)"/>
                    <path fill="#FFF" d="M63.13 44.934c0 9.933-8.074 17.985-18.034 17.985-9.96 0-18.034-8.052-18.034-17.985 0-9.932 8.074-17.984 18.034-17.984 9.96 0 18.035 8.052 18.035 17.984" transform="translate(0 -539) translate(-11 539)"/>
                    <path fill="#F1F1F1" d="M63.13 44.934c0 9.933-8.074 17.985-18.034 17.985-9.96 0-18.034-8.052-18.034-17.985 0-9.932 8.074-17.984 18.034-17.984 9.96 0 18.035 8.052 18.035 17.984" transform="translate(0 -539) translate(-11 539)"/>
                    <path fill="#FFCDCD" d="M61.628 44.934c0 5.444-2.646 10.27-6.724 13.273-2.744 2.02-6.136 3.213-9.808 3.213-9.13 0-16.532-7.38-16.532-16.486 0-6.988 4.36-12.96 10.515-15.359 1.865-.727 3.894-1.126 6.017-1.126 9.13 0 16.532 7.38 16.532 16.485" transform="translate(0 -539) translate(-11 539)"/>
                    <path fill="#FFBABA" d="M28.319 27.026l-2.936 2.503c-.537.458-1.346.395-1.805-.141l-.727-.848c-1.867-2.177-1.609-5.483.576-7.346l1.959-1.67c-.136 1.118-.055 2.264.254 3.35.458 1.606 1.41 3.064 2.679 4.152M64.504 19.39c-1.154.199-2.27.628-3.25 1.271-1.28.84-2.317 2.038-2.99 3.411l-3.412-2.91c-.538-.459-.601-1.265-.142-1.802l.727-.847c1.868-2.178 5.183-2.436 7.367-.573l1.7 1.45zM54.904 58.207c-2.744 2.02-6.136 3.213-9.808 3.213-9.13 0-16.532-7.38-16.532-16.486 0-6.988 4.36-12.96 10.515-15.359-.118 2.702-.44 5.468-.143 8.046.522 4.515 1.91 9.025 4.675 12.636 2.856 3.73 6.883 6.182 11.293 7.95" transform="translate(0 -539) translate(-11 539)"/>
                    <path fill="#FFF" d="M45.414 39.822c-.12.037-.246.056-.377.056-.132 0-.258-.02-.378-.056-.527-.162-.912-.653-.912-1.23 0-.579.385-1.07.912-1.231.12-.037.246-.056.378-.056.131 0 .258.02.377.056.528.162.913.652.913 1.23s-.385 1.07-.913 1.231m0-2.85v-1.425h-.755v1.425c-.738.17-1.29.832-1.29 1.62 0 .787.552 1.448 1.29 1.62v3.934h.755V40.21c.739-.17 1.29-.832 1.29-1.62 0-.787-.551-1.449-1.29-1.62M38.989 55.285L46.535 44.253 45.87 43.801 38.324 54.833z" transform="translate(0 -539) translate(-11 539)"/>
                    <path fill="#FFF" d="M47.153 44.934c0 1.133-.921 2.051-2.057 2.051s-2.056-.918-2.056-2.05c0-1.133.92-2.051 2.056-2.051 1.136 0 2.057.918 2.057 2.05M32.045 44.856c0 .522-.425.946-.95.946-.523 0-.949-.424-.949-.946 0-.523.426-.947.95-.947s.949.424.949.947M60.125 44.856c0 .522-.425.946-.95.946-.523 0-.948-.424-.948-.946 0-.523.425-.947.949-.947s.949.424.949.947M45.136 57.91c.524 0 .949.424.949.947 0 .523-.425.946-.95.946-.523 0-.949-.423-.949-.946 0-.523.425-.947.95-.947M45.136 29.908c.524 0 .949.423.949.946 0 .523-.425.947-.95.947-.523 0-.949-.424-.949-.947 0-.523.425-.946.95-.946M56.56 51.23c.256-.456.834-.62 1.292-.364.457.255.62.832.365 1.288-.256.456-.835.62-1.292.364-.458-.255-.621-.832-.365-1.288M32.055 37.557c.256-.456.834-.62 1.291-.364.458.255.621.832.365 1.288-.255.456-.834.62-1.291.364-.458-.255-.621-.832-.365-1.288M56.84 39.01c-.234-.468-.044-1.037.424-1.27.47-.235 1.04-.045 1.274.422.235.467.045 1.036-.424 1.27-.468.234-1.039.045-1.273-.422M31.733 51.55c-.234-.468-.045-1.037.424-1.271.469-.234 1.039-.045 1.274.422.235.468.045 1.037-.424 1.27-.469.235-1.039.046-1.274-.422M52.214 33.874c-.44-.283-.568-.868-.285-1.308.283-.44.87-.567 1.312-.285.44.283.568.869.285 1.308-.284.44-.87.568-1.312.285M37.03 57.43c-.44-.283-.568-.869-.285-1.308.284-.44.871-.567 1.312-.285.441.283.569.868.285 1.308-.283.44-.87.567-1.311.285M38.233 33.763c-.445.276-1.03.139-1.306-.305-.277-.444-.14-1.028.306-1.304.445-.275 1.03-.139 1.307.306.276.444.139 1.027-.307 1.303M53.039 57.557c-.446.276-1.03.139-1.307-.306-.277-.444-.14-1.027.306-1.303.445-.275 1.03-.139 1.307.306.276.444.14 1.027-.306 1.303" transform="translate(0 -539) translate(-11 539)"/>
                    <path fill="#FF9898" d="M45.112 16.853v3.944h-3.055c-.808 0-1.47-.66-1.47-1.465v-1.014c0-.806.662-1.465 1.47-1.465h3.055z" transform="translate(0 -539) translate(-11 539)"/>
                    <path fill="#F1F1F1" d="M79.645 54.906c3.045-2.641 5.14-7.995 5.178-14.187H65.856c.039 6.192 2.133 11.546 5.178 14.187-3.045 2.64-5.14 7.995-5.178 14.187h18.967c-.039-6.192-2.133-11.547-5.178-14.187" transform="translate(0 -539) translate(-11 539)"/>
                    <path fill="#FFF" d="M78.415 54.97c2.552-2.486 5.35-7.208 5.383-13.037H66.97c.033 5.83 2.522 10.533 5.073 13.02-2.551 2.485-5.012 7.863-5.044 13.692h16.8c-.032-5.83-2.83-11.19-5.383-13.675" transform="translate(0 -539) translate(-11 539)"/>
                    <path fill="#FF9898" d="M85.016 42.253H65.79c-.951 0-1.73-.777-1.73-1.726s.779-1.726 1.73-1.726h19.225c.951 0 1.73.777 1.73 1.726s-.779 1.726-1.73 1.726" transform="translate(0 -539) translate(-11 539)"/>
                    <path fill="#FBC03F" d="M81.748 68.134H68.93c.007-1.658 5.46-3.252 5.81-4.75h.812c.044.196.183.394.39.593 1.38 1.324 5.799 2.716 5.805 4.157" transform="translate(0 -539) translate(-11 539)"/>
                    <path fill="#FF9797" d="M82.226 45c-.655 3.099-2.456 5.902-4.164 8.077-.9 1.146-1.775 2.117-2.443 2.865l-.023.026c-.015.017-.273.016-.51.012-.202-.003-.387-.01-.387-.01-1.928-2.15-5.291-6.187-6.291-10.97h13.818z" transform="translate(0 -539) translate(-11 539)"/>
                    <path fill="#F3A41C" d="M74.699 64.619L75.596 64.619 75.596 53.628 74.699 53.628z" transform="translate(0 -539) translate(-11 539)"/>
                    <path fill="#F06F6F" d="M78.062 53.077c-.9 1.146-1.775 2.117-2.443 2.865-.177.016-.355.028-.532.038-.203-.003-.388-.01-.388-.01-1.928-2.15-5.291-6.187-6.291-10.97H73.5c.169.707.217 1.577.361 2.078.324 1.116.75 2.208 1.36 3.202.698 1.136 1.686 2.143 2.84 2.797" transform="translate(0 -539) translate(-11 539)"/>
                    <path fill="#FF9797" d="M79.295 68.134H68.931c.007-1.658 5.46-3.252 5.81-4.75h.797c.074.223.159.444.265.661.653 1.338 1.615 2.514 2.739 3.486.243.21.494.411.753.603" transform="translate(0 -539) translate(-11 539)"/>
                    <path fill="#FF9898" d="M85.016 71.521H65.79c-.951 0-1.73-.777-1.73-1.725 0-.95.779-1.726 1.73-1.726h19.225c.951 0 1.73.777 1.73 1.726 0 .948-.779 1.725-1.73 1.725" transform="translate(0 -539) translate(-11 539)"/>
                </g>
            </g>
        </g>
    </g>
</svg>
