<svg xmlns="http://www.w3.org/2000/svg" width="32" height="32" viewBox="0 0 32 32">
    <g fill="none" fill-rule="evenodd" transform="translate(1 1)">
        <circle cx="15" cy="15" r="15" stroke="#F5F5F6" stroke-width=".5"/>
        <path d="M3 3h24v24H3z"/>
        <path fill="#000" fill-rule="nonzero" d="M6.9 15c0-1.71 1.39-3.1 3.1-3.1h4V10h-4c-2.76 0-5 2.24-5 5s2.24 5 5 5h4v-1.9h-4c-1.71 0-3.1-1.39-3.1-3.1zm4.1 1h8v-2h-8v2zm9-6h-4v1.9h4c1.71 0 3.1 1.39 3.1 3.1 0 1.71-1.39 3.1-3.1 3.1h-4V20h4c2.76 0 5-2.24 5-5s-2.24-5-5-5z"/>
    </g>
</svg>
