<svg xmlns="http://www.w3.org/2000/svg" xmlns:xlink="http://www.w3.org/1999/xlink" width="13" height="14" viewBox="0 0 13 14">
    <defs>
        <path id="a" d="M0 .057h12.049V5.25H0z"/>
        <path id="c" d="M.452.498h8.841v7.716H.452z"/>
    </defs>
    <g fill="none" fill-rule="evenodd" opacity=".472">
        <g transform="translate(0 8)">
            <mask id="b" fill="#fff">
                <use xlink:href="#a"/>
            </mask>
            <path fill="#231F20" d="M.726 3.28c.235 0 .449.007.662 0 1.162-.042 2.236.225 3.198.895.13.091.267.18.412.242.142.062.298.125.448.126 1.05.011 2.1 0 3.149.01.27.002.447-.116.599-.323.654-.892 1.315-1.778 1.97-2.668.097-.13.284-.282.069-.422-.082-.053-.304.017-.401.102-.415.357-.811.736-1.202 1.118a.443.443 0 0 0-.111.29c-.002.691-.311 1.034-.997 1.078-.353.022-.707.043-1.06.05-1.948.035-1.492.39-3.232-.836-.14-.098-.324-.155-.424-.28-.087-.112-.157-.333-.103-.432.058-.105.272-.168.418-.167.12 0 .243.113.356.189.322.216.624.467.965.647.24.126.53.222.796.219.763-.009 1.526-.069 2.288-.125.1-.008.193-.114.29-.174-.094-.078-.18-.21-.283-.225-.325-.052-.658-.059-.987-.087-.853-.076-1.66-.271-2.339-.842a5.617 5.617 0 0 0-.7-.49C3.83.762 3.096.69 2.334.865c-.53.121-1.054.267-1.608.41V3.28zM0 1.007C.225.613.568.48 1.014.45c.378-.026.75-.172 1.122-.27.963-.252 1.872-.115 2.729.38.196.114.396.234.563.386.708.644 1.576.822 2.488.883.09.007.188-.008.272.018.65.209 1.13-.047 1.541-.533.132-.156.293-.287.438-.432.75-.748 1.27-.715 1.882.124v.547c-.099.137-.195.275-.296.41-.6.802-1.22 1.59-1.795 2.41-.254.363-.522.681-.922.877H4.997c-.134-.081-.276-.153-.404-.244-1.065-.755-2.234-1.135-3.549-1.001C.58 4.052.232 3.875 0 3.47V1.006z" mask="url(#b)"/>
        </g>
        <g transform="translate(3)">
            <mask id="d" fill="#fff">
                <use xlink:href="#c"/>
            </mask>
            <path fill="#231F20" d="M4.919 7.474c.759-.684 1.534-1.314 2.227-2.03.478-.493.888-1.076 1.247-1.67.422-.702.206-1.649-.407-2.16-.662-.55-1.405-.533-2.075.07-.233.21-.431.457-.645.689-.307.332-.484.328-.796-.01-.236-.255-.465-.52-.722-.753-.297-.27-.649-.433-1.062-.383-1.28.154-1.938 1.503-1.29 2.651.846 1.498 2.146 2.523 3.523 3.596M4.896 1.73c.168-.177.333-.375.52-.548.92-.85 2.069-.897 2.985-.133.915.763 1.155 2.05.587 3.113-.454.85-1.06 1.576-1.763 2.208C6.558 6.97 5.85 7.52 5.16 8.088c-.16.133-.329.18-.514.044-1.344-.978-2.617-2.035-3.572-3.438-.38-.558-.671-1.151-.615-1.869.073-.943.511-1.64 1.326-2.06.79-.407 1.566-.357 2.278.2.289.226.544.498.833.766" mask="url(#d)"/>
        </g>
    </g>
</svg>
