<svg xmlns="http://www.w3.org/2000/svg" xmlns:xlink="http://www.w3.org/1999/xlink" width="24" height="24" viewBox="0 0 24 24">
    <defs>
        <path id="a" d="M1 8h14.714a1 1 0 1 0 0-2H1a1 1 0 1 0 0 2zm0 6h9.571a1 1 0 0 0 0-2H1a1 1 0 0 0 0 2zM0 1a1 1 0 0 0 1 1h16a1 1 0 0 0 0-2H1a1 1 0 0 0-1 1z"/>
    </defs>
    <g fill="none" fill-rule="evenodd">
        <path stroke="#FFF" stroke-opacity=".012" stroke-width=".1" d="M.05.05h23.9v23.9H.05z"/>
        <use fill="#000" fill-rule="nonzero" transform="translate(3 5)" xlink:href="#a"/>
    </g>
</svg>
