<svg width="113" height="124" xmlns="http://www.w3.org/2000/svg">
    <g fill="none" fill-rule="evenodd">
        <circle fill="#FFF" cx="56.5" cy="56.5" r="56.5"/>
        <path d="M56.59 4C27.547 4 4 27.543 4 56.59c0 15.025 6.332 28.538 16.431 38.114L18.671 124l24.98-16.483c4.146 1.045 8.467 1.668 12.94 1.668 29.046 0 52.59-23.552 52.59-52.59C109.184 27.542 85.636 4 56.59 4zm17.712 25.76h6.123l-4.312 17.907h-4.39l2.579-17.908zm-1.107 19.884c1.934 0 3.284 1.385 3.284 3.323 0 2.256-1.66 3.876-3.88 3.876-1.938 0-3.197-1.38-3.197-3.24-.008-2.1 1.581-3.959 3.793-3.959zm-6.576-20.99c1.66 0 2.849 1.105 2.849 2.808 0 2.016-1.542 3.201-3.358 3.201-1.58 0-2.77-1.067-2.77-2.77.04-1.938 1.538-3.24 3.28-3.24zm1.62 8.417-3.675 19.332h-5.692l3.676-19.332h5.692zM37.813 29.76h5.696l-1.977 10.4h9.69l1.977-10.4h5.696l-5.06 26.648h-5.697l2.095-11.188h-9.646l-2.134 11.188h-5.696l5.056-26.648zM56.59 92.096c-14.524 0-26.3-11.523-26.3-18.16 0-6.641 11.772.27 26.3.27 14.524 0 26.295-6.916 26.295-.27 0 6.632-11.771 18.16-26.295 18.16z" fill="#FF9797" fill-rule="nonzero"/>
        <path fill="#FF9797" d="M21 26h71v44H21z"/>
        <text font-family="D-DIN-Bold, D-DIN" font-size="24" font-weight="bold" fill="#FFF">
                        <tspan x="25.82" y="47">Hello.. </tspan>
                    </text>
    </g>
</svg>
