<svg width="11" height="13" viewBox="0 0 11 13" fill="var(--color1)" xmlns="http://www.w3.org/2000/svg">
<path d="M10.6364 5.31818C10.6364 9.45455 5.31818 13 5.31818 13C5.31818 13 0 9.45455 0 5.31818C2.10176e-08 3.90771 0.560307 2.55501 1.55766 1.55766C2.55501 0.560307 3.90771 0 5.31818 0C6.72865 0 8.08135 0.560307 9.0787 1.55766C10.0761 2.55501 10.6364 3.90771 10.6364 5.31818Z" fill="#FF9797"/>
<path d="M5.31863 7.09135C6.29768 7.09135 7.09135 6.29768 7.09135 5.31863C7.09135 4.33958 6.29768 3.5459 5.31863 3.5459C4.33958 3.5459 3.5459 4.33958 3.5459 5.31863C3.5459 6.29768 4.33958 7.09135 5.31863 7.09135Z" fill="white"/>
</svg>
