<svg width="18" height="31" viewBox="0 0 18 31" fill="none" xmlns="http://www.w3.org/2000/svg">
    <g clip-path="url(#qnky8gb1za)">
        <path d="M15.457 16.944v-.509h.112a.393.393 0 0 0 .37-.39v-3.69a.886.886 0 0 0-.254-.614.864.864 0 0 0-.608-.255h-3.132a4.305 4.305 0 0 0 1.265-3.073 4.337 4.337 0 0 0-2.138-3.748 4.233 4.233 0 0 0-4.277 0 4.338 4.338 0 0 0-2.138 3.748 4.3 4.3 0 0 0 1.266 3.074H2.795a.862.862 0 0 0-.607.255.88.88 0 0 0-.255.614v3.69c.002.208.164.38.37.39h.113v.51C.966 17.65 0 19.207 0 20.895v7.035c0 1.297 1.034 2.373 2.316 2.373h13.24c1.282 0 2.316-1.075 2.316-2.374v-7.033c0-1.698-.966-3.255-2.415-3.953zM7.08 11.481a3.6 3.6 0 0 1-1.655-2.5 3.624 3.624 0 0 1 .805-2.898A3.534 3.534 0 0 1 8.928 4.82a3.535 3.535 0 0 1 2.703 1.256c.676.798.972 1.856.812 2.895a3.597 3.597 0 0 1-1.648 2.504c-.006.005-.013.012-.02.012H9.068a.355.355 0 0 0 .17-.305v-.25c.444-.102.81-.42.976-.849a1.406 1.406 0 0 0-.143-1.293 1.372 1.372 0 0 0-1.138-.608c-.263 0-.5-.161-.601-.407a.665.665 0 0 1 .141-.719.645.645 0 0 1 .71-.143.659.659 0 0 1 .402.61c0 .201.163.366.362.366.2 0 .363-.165.363-.367 0-.305-.1-.6-.283-.843a1.376 1.376 0 0 0-.728-.5v-.313a.365.365 0 0 0-.362-.366c-.2 0-.362.164-.362.366v.312a1.383 1.383 0 0 0-.935.87c-.153.427-.09.902.167 1.274.258.371.678.592 1.127.592.346 0 .632.273.65.623a.657.657 0 0 1-.579.692.35.35 0 0 0-.216-.013.659.659 0 0 1-.506-.643.365.365 0 0 0-.363-.366c-.2 0-.362.164-.362.366 0 .295.094.582.265.821.172.239.414.415.691.505v.283a.354.354 0 0 0 .17.306h-1.59c-.005 0-.009-.004-.013-.006l-.001-.002zm-4.423.875a.143.143 0 0 1 .138-.136h12.282c.074.001.135.06.139.136v3.346H2.656v-3.346zm14.49 15.574c0 .895-.708 1.642-1.59 1.642H2.316c-.884 0-1.592-.747-1.592-1.641v-7.034c0-1.478.876-2.832 2.203-3.371a.352.352 0 0 0 .212-.34v-.75h11.592v.75a.354.354 0 0 0 .215.34c1.326.53 2.201 1.886 2.201 3.372v7.032zM8.453.366v1.528c0 .202.162.366.362.366.2 0 .362-.164.362-.366V.366A.365.365 0 0 0 8.815 0c-.2 0-.362.164-.362.366zM5.138.991c-.182.083-.265.3-.182.485l.63 1.423a.36.36 0 0 0 .67-.02.371.371 0 0 0-.009-.28l-.63-1.424a.364.364 0 0 0-.48-.185v.001zM11.726.995l-.549 1.458a.37.37 0 0 0 .21.473.361.361 0 0 0 .467-.212l.548-1.458a.368.368 0 0 0-.21-.473.361.361 0 0 0-.467.212z" fill="#FE75A1"/>
        <path d="M8.97 11.506c1.129 0 2.044-1.356 2.044-3.028S10.1 5.45 8.97 5.45 6.926 6.806 6.926 8.478s.915 3.028 2.044 3.028z" fill="#F4F4F4"/>
        <path d="M10.744 24.117c.271-.268.426-.64.426-1.037a1.495 1.495 0 0 0-1.496-1.485c-.257 0-.515.068-.738.193a1.5 1.5 0 0 0-.74-.193c-.398 0-.774.155-1.056.434a1.479 1.479 0 0 0 0 2.1l1.646 1.866a.198.198 0 0 0 .298 0l1.659-1.877zm-.115-1.037a.934.934 0 0 1-.28.67l-1.413 1.6-1.4-1.587-.01-.01a.947.947 0 0 1-.003-1.344.98.98 0 0 1 1.25-.086l.046.033c.07.051.166.051.236 0l.043-.032a.955.955 0 0 1 .576-.191c.255 0 .494.098.674.277.181.18.281.418.281.67zM8.198 6.917h1.758v.004a2.95 2.95 0 0 1-.177.294h-.468a.75.75 0 0 1 .131.317h.5c.006.001.01.004.01.009-.113.192-.17.288-.173.29h-.323a.95.95 0 0 1-.123.358c-.103.141-.199.233-.29.275-.169.093-.331.14-.487.14v.004c0 .013.038.07.115.173l.866 1.202v.057c0 .005-.002.009-.008.009h-.382c-.687-.918-1.03-1.38-1.03-1.384v-.28l.004-.01c.06.01.131.015.213.015.384 0 .624-.143.719-.43a.395.395 0 0 0 .021-.129H8.03c-.005 0-.009-.003-.009-.011.115-.192.174-.288.177-.288h.83v-.005a.516.516 0 0 0-.276-.257.767.767 0 0 0-.263-.055h-.464v-.011a6 6 0 0 1 .173-.288z" fill="#EB0045"/>
    </g>
    <defs>
        <clipPath id="qnky8gb1za">
            <path fill="#fff" d="M0 0h17.872v30.304H0z"/>
        </clipPath>
    </defs>
</svg>
