<svg xmlns="http://www.w3.org/2000/svg" width="22" height="14" viewBox="0 0 18 14">
    <g fill="#000" fill-rule="nonzero">
        <path d="M17.74 10.782h-.562v-3.14c0-.368-.11-.728-.316-1.033l-1.408-2.084a1.85 1.85 0 0 0-1.531-.814H11.74a.462.462 0 0 0-.462.462v6.609H7.707c.34.293.573.702.64 1.164h3.766a1.903 1.903 0 0 1 1.879-1.627c.954 0 1.742.71 1.876 1.627h1.872a.232.232 0 0 0 .23-.231v-.702a.232.232 0 0 0-.23-.231zm-2.302-3.757H12.56a.23.23 0 0 1-.23-.231V5.197c0-.127.103-.231.23-.231h1.754c.076 0 .146.037.19.097l1.125 1.599a.23.23 0 0 1-.19.363zm-1.446 3.757a1.438 1.438 0 1 0 .001 2.875 1.438 1.438 0 0 0-.001-2.875zm0 2.158a.72.72 0 1 1 .001-1.44.72.72 0 0 1-.001 1.44zM2.009 10.782a.232.232 0 0 0-.23.23v.703c0 .127.103.231.23.231h2.584c.067-.462.3-.871.637-1.164H2.01zm4.46 0a1.44 1.44 0 0 0 0 2.876 1.437 1.437 0 0 0 0-2.876zm0 2.158a.72.72 0 1 1 .001-1.44.72.72 0 0 1-.001 1.44zM9.925 2.279H7.247c.132.39.201.808.201 1.24a3.96 3.96 0 0 1-5.101 3.788V9.86c0 .127.104.23.23.23h7.81a.232.232 0 0 0 .232-.23V2.972a.692.692 0 0 0-.694-.693zM3.493.025a3.493 3.493 0 1 0 0 6.987 3.493 3.493 0 0 0 0-6.987zm0 6.192a2.698 2.698 0 1 1 0-5.397 2.698 2.698 0 0 1 0 5.397z" opacity=".9"/>
        <path d="M4.86 5l-.868-1.143a1.584 1.584 0 0 0-.18-.218c.212-.05.38-.143.51-.278a.744.744 0 0 0 .172-.37h.418L5 2.715h-.498a.88.88 0 0 0-.153-.437h.559L4.996 2H3.088L3 2.277h.43c.197 0 .345.042.45.135.08.071.128.172.148.302h-.932l-.088.278H4.02a.425.425 0 0 1-.165.252c-.124.092-.313.138-.566.138H3.04v.328c.089 0 .177.03.257.088.072.05.14.118.205.21L4.221 5h.638z"/>
    </g>
</svg>
