<svg width="91" height="75" viewBox="0 0 91 75" fill="none" xmlns="http://www.w3.org/2000/svg">
<path d="M1.32422 12.2754V21.9888H63.1371V12.2754H1.32422Z" fill="#FFD6D6" stroke="black"/>
<circle cx="52.0998" cy="36.1176" r="19.4269" fill="white"/>
<path d="M89.4918 64.3339L76.5865 51.4285C75.3949 50.2369 73.5002 50.0506 72.0502 50.8112L69.1362 47.8973C74.6342 39.858 73.8451 28.7754 66.71 21.6406C66.1503 21.0809 65.5614 20.564 64.944 20.0756V5.43273C64.944 2.87762 62.8621 0.795898 60.3072 0.795898H4.63683C2.08172 0.795898 0 2.87779 0 5.43273V41.5802C0 44.1353 2.08189 46.2171 4.63683 46.2171H34.0218C34.9404 47.8825 36.0891 49.4615 37.4961 50.8684C41.5157 54.8881 46.8127 56.8979 52.0954 56.8979C56.1725 56.8979 60.2495 55.6779 63.7523 53.2801L66.6662 56.194C65.8626 57.644 66.0635 59.5105 67.2835 60.7304L80.1888 73.6357C80.9066 74.3534 81.8682 74.7553 82.8879 74.7553C83.907 74.7553 84.8693 74.3534 85.587 73.6357L89.4916 69.7311C90.97 68.2382 90.97 65.8265 89.4916 64.3336L89.4918 64.3339ZM38.0698 21.1243H2.07969V13.3291H62.8748V18.6691C55.1378 13.9179 44.9593 14.7361 38.0698 21.1243V21.1243ZM4.63615 2.87887H60.3217C61.7288 2.87887 62.8769 4.02752 62.8769 5.43398V11.2333H2.08003V5.43398C2.08003 4.02693 3.22867 2.87887 4.63564 2.87887H4.63615ZM4.63615 44.1359C3.2291 44.1359 2.08104 42.9873 2.08104 41.5808V23.205H36.09C35.0279 24.5117 34.1661 25.918 33.4775 27.3825H7.23441C6.66009 27.3825 6.20076 27.8418 6.20076 28.4162C6.20076 28.9905 6.66007 29.4498 7.23441 29.4498H32.6146C32.2412 30.5264 31.9544 31.632 31.7674 32.7517H7.23478C6.66046 32.7517 6.20113 33.2111 6.20113 33.7854C6.20113 34.3597 6.66045 34.819 7.23478 34.819L31.5254 34.8184C31.31 37.9623 31.7984 41.1491 33.0184 44.1205L4.63673 44.1211L4.63615 44.1359ZM38.975 49.3901C31.7255 42.1407 31.711 30.3545 38.9466 23.1199C42.5783 19.5028 47.344 17.6795 52.1104 17.6795C56.8762 17.6795 61.6281 19.4883 65.2604 23.1199C72.4953 30.3549 72.4815 42.142 65.232 49.3901C57.9964 56.6403 46.2099 56.6257 38.9754 49.3901H38.975ZM66.6952 50.8692C67.1115 50.4529 67.4849 50.0219 67.8577 49.5772L70.4563 52.1758L68.0155 54.6165L65.4169 52.0179C65.8624 51.6445 66.2926 51.2711 66.6951 50.8692L66.6952 50.8692ZM88.0267 68.2535L84.1221 72.1581C83.4619 72.8183 82.3278 72.8183 81.6675 72.1581L68.7621 59.2528C68.0874 58.578 68.0874 57.4729 68.7621 56.7982L72.6667 52.8936C72.9972 52.5631 73.4274 52.3913 73.8867 52.3913C74.3461 52.3913 74.777 52.5777 75.1067 52.8936L88.0121 65.7989C88.7014 66.4876 88.7014 67.5788 88.0266 68.2535H88.0267Z" fill="black"/>
<path d="M63.0062 25.3589C60.0923 22.4449 56.2161 20.8369 52.0962 20.8369C47.9761 20.8369 44.0999 22.4449 41.1861 25.3589C38.2721 28.2728 36.6787 32.1344 36.6787 36.2544C36.6787 40.3745 38.2867 44.2361 41.2007 47.1644C44.1146 50.0784 47.9762 51.6864 52.0962 51.6864C56.2163 51.6864 60.0779 50.0784 62.9917 47.1644C65.9057 44.2505 67.5136 40.3743 67.5136 36.2544C67.5143 32.1349 65.9209 28.2588 63.0062 25.3589V25.3589ZM61.5278 45.6854C59.0157 48.1975 55.6564 49.59 52.1107 49.59C48.5504 49.59 45.2057 48.1974 42.6935 45.6854C40.1669 43.1587 38.7744 39.814 38.7744 36.2537C38.7744 32.6934 40.1524 29.3487 42.679 26.822C45.2057 24.2953 48.5504 22.9174 52.1252 22.9174C55.7 22.9174 59.0448 24.31 61.5715 26.822C64.0836 29.3342 65.476 32.6934 65.476 36.2537C65.447 39.814 64.0544 43.1587 61.5278 45.6854Z" fill="black"/>
<path d="M47.3734 32.9098C46.9716 32.5079 46.3114 32.5079 45.9089 32.9098L44.7173 34.1014L43.5257 32.9098C43.1239 32.5079 42.4636 32.5079 42.0611 32.9098C41.6593 33.3116 41.6593 33.9718 42.0611 34.3743L43.2527 35.5659L42.0611 36.743C41.6593 37.1448 41.6593 37.805 42.0611 38.2075C42.262 38.4084 42.535 38.5089 42.7934 38.5089C43.0664 38.5089 43.3248 38.4084 43.5257 38.2075L44.7173 37.0305L45.9089 38.2075C46.1098 38.4084 46.3828 38.5089 46.6412 38.5089C46.9141 38.5089 47.1725 38.4084 47.3734 38.2075C47.7753 37.8057 47.7753 37.1455 47.3734 36.743L46.1818 35.5514L47.3734 34.3598C47.7753 33.9864 47.7753 33.3255 47.3734 32.9098V32.9098Z" fill="black"/>
<path d="M54.7514 32.9098C54.3495 32.5079 53.6893 32.5079 53.2868 32.9098L52.0952 34.1014L50.9036 32.9098C50.5018 32.5079 49.8416 32.5079 49.4391 32.9098C49.0372 33.3116 49.0372 33.9718 49.4391 34.3743L50.6307 35.5659L49.4391 36.7575C49.0372 37.1594 49.0372 37.8196 49.4391 38.2221C49.64 38.423 49.9129 38.5234 50.1713 38.5234C50.4443 38.5234 50.7027 38.423 50.9036 38.2221L52.0952 37.0305L53.2868 38.2221C53.4877 38.423 53.7607 38.5234 54.0191 38.5234C54.292 38.5234 54.5505 38.423 54.7514 38.2221C55.1532 37.8202 55.1532 37.16 54.7514 36.7575L53.5598 35.5659L54.7514 34.3743C55.1671 33.9864 55.1671 33.3255 54.7514 32.9098Z" fill="black"/>
<path d="M60.968 35.5645L62.1596 34.3728C62.5614 33.971 62.5614 33.3108 62.1596 32.9083C61.7577 32.5065 61.0975 32.5065 60.695 32.9083L59.5034 34.0999L58.3118 32.9083C57.91 32.5065 57.2498 32.5065 56.8473 32.9083C56.4454 33.3101 56.4454 33.9704 56.8473 34.3728L58.0389 35.5645L56.8473 36.7561C56.4454 37.1579 56.4454 37.8181 56.8473 38.2206C57.0482 38.4215 57.3211 38.522 57.5795 38.522C57.8525 38.522 58.1109 38.4215 58.3118 38.2206L59.5034 37.0436L60.695 38.2206C60.8959 38.4215 61.1689 38.522 61.4273 38.522C61.7003 38.522 61.9587 38.4215 62.1596 38.2206C62.5614 37.8188 62.5614 37.1585 62.1596 36.7561L60.968 35.5645Z" fill="black"/>
<path d="M20.4003 38.1343H7.2358C6.66148 38.1343 6.20215 38.5936 6.20215 39.1679C6.20215 39.7423 6.66147 40.2016 7.2358 40.2016H20.3997C20.974 40.2016 21.4333 39.7423 21.4333 39.1679C21.4478 38.6081 20.9746 38.1343 20.4003 38.1343H20.4003Z" fill="black"/>
</svg>
