<svg width="10" height="11" viewBox="0 0 10 11" fill="none" xmlns="http://www.w3.org/2000/svg">
<path d="M5.25554 0.00749054C3.76773 -0.0720506 2.38209 0.484506 1.37127 1.55211C0.417261 2.5516 -0.0711526 3.86905 0.00839059 5.25466C0.133327 7.77603 2.21175 9.85446 4.74448 9.99075C4.83535 9.99075 4.91481 10.0021 5.00568 10.0021C6.3913 10.0021 7.6747 9.44554 8.62873 8.44612C9.58274 7.44664 10.0712 6.12919 9.99161 4.74357C9.85534 2.21084 7.77689 0.132415 5.25552 0.00748226L5.25554 0.00749054ZM8.36751 8.19626C7.42483 9.19566 6.13007 9.71815 4.75581 9.63861C2.40481 9.525 0.462671 7.58289 0.349096 5.23189C0.281042 3.94855 0.735312 2.72188 1.6212 1.79056C2.50709 0.847947 3.71098 0.336798 4.99438 0.336798C5.07392 0.336798 5.15338 0.336798 5.23293 0.348127C7.58394 0.461734 9.52607 2.40384 9.63965 4.75484C9.7077 6.03826 9.25343 7.26486 8.36755 8.19617L8.36751 8.19626Z" fill="black"/>
<path d="M5.56195 7.37988H5.1644V4.14299C5.1644 4.05212 5.08486 3.97266 4.99407 3.97266H4.42619C4.33532 3.97266 4.25586 4.0522 4.25586 4.14299C4.25586 4.23386 4.33532 4.31332 4.42619 4.31332H4.82374V7.37985L4.42619 7.37993C4.33532 7.37993 4.25586 7.45947 4.25586 7.55026C4.25586 7.64113 4.33532 7.72059 4.42619 7.72059H5.56194C5.65281 7.72059 5.73227 7.64105 5.73227 7.55026C5.73227 7.45939 5.65281 7.37993 5.56194 7.37993L5.56195 7.37988Z" fill="black"/>
<path d="M4.99528 3.4593C5.24514 3.4593 5.44954 3.25491 5.44954 3.00504C5.44954 2.75518 5.24514 2.55078 4.99528 2.55078C4.74541 2.55078 4.54102 2.75518 4.54102 3.00504C4.54102 3.25491 4.74541 3.4593 4.99528 3.4593Z" fill="black"/>
</svg>
