<svg width="14" height="14" viewBox="0 0 14 14" fill="none" xmlns="http://www.w3.org/2000/svg">
<path d="M7 1C3.69162 1 1 3.69162 1 7C1 10.3084 3.69162 13 7 13C10.3084 13 13 10.3084 13 7C13 3.69162 10.3084 1 7 1ZM7 12.3289C4.06168 12.3289 1.67113 9.93832 1.67113 7C1.67113 4.06168 4.06168 1.67113 7 1.67113C9.93832 1.67113 12.3289 4.06168 12.3289 7C12.3289 9.93832 9.93832 12.3289 7 12.3289Z" fill="#384152" stroke="#384152" stroke-width="0.2"/>
<path d="M6.99982 5.81249C6.81446 5.81249 6.66426 5.96269 6.66426 6.14805V9.69401C6.66426 9.87938 6.81446 10.0296 6.99982 10.0296C7.18519 10.0296 7.33539 9.87938 7.33539 9.69401V6.14805C7.33539 5.96269 7.18519 5.81249 6.99982 5.81249Z" fill="#384152" stroke="#384152" stroke-width="0.2"/>
<path d="M6.99982 3.97041C6.81446 3.97041 6.66426 4.12061 6.66426 4.30597V4.67442C6.66426 4.85979 6.81446 5.00998 6.99982 5.00998C7.18519 5.00998 7.33539 4.85979 7.33539 4.67442V4.30597C7.33539 4.12061 7.18519 3.97041 6.99982 3.97041Z" fill="#384152" stroke="#384152" stroke-width="0.2"/>
</svg>
