<svg xmlns="http://www.w3.org/2000/svg" width="23" height="23" viewBox="0 0 23 23">
    <g fill="none" fill-rule="evenodd">
        <g fill="#E66060" fill-rule="nonzero">
            <g>
                <g>
                    <path d="M11.32 0C5.069 0 0 5.069 0 11.32s5.069 11.32 11.32 11.32 11.32-5.069 11.32-11.32S17.572 0 11.32 0zm2.356 17.544c-.582.23-1.046.405-1.394.525-.347.121-.75.181-1.21.181-.705 0-1.254-.172-1.645-.516-.39-.344-.585-.78-.585-1.31 0-.206.014-.417.043-.632.03-.214.076-.456.14-.727l.73-2.576c.064-.247.12-.482.164-.7.044-.221.065-.423.065-.607 0-.328-.068-.558-.203-.687-.137-.13-.395-.193-.78-.193-.187 0-.38.028-.58.086-.196.06-.366.115-.506.169l.192-.793c.478-.195.935-.362 1.37-.5.437-.14.849-.209 1.237-.209.7 0 1.241.17 1.622.508.378.338.569.778.569 1.319 0 .112-.013.31-.04.591-.025.283-.074.54-.145.777l-.726 2.569c-.059.206-.112.441-.16.705-.046.264-.07.465-.07.6 0 .341.076.574.23.698.151.123.416.186.792.186.177 0 .376-.032.6-.093.222-.062.383-.116.485-.163l-.195.792zM13.548 7.12c-.338.315-.746.472-1.222.472-.475 0-.885-.157-1.227-.472-.339-.314-.51-.696-.51-1.143 0-.445.172-.829.51-1.146.342-.318.752-.476 1.227-.476.476 0 .885.158 1.222.476.338.317.508.7.508 1.146 0 .448-.17.83-.508 1.143z" transform="translate(-25 -669) translate(6 650) translate(19 19)"/>
                </g>
            </g>
        </g>
    </g>
</svg>
