<svg width="18" height="18" viewBox="0 0 18 18" fill="none" xmlns="http://www.w3.org/2000/svg">
<circle cx="9" cy="9" r="8.5" fill="#FFFCFC" stroke="var(--color1)"/>
<g clip-path="url(#clip0_5324_6498)">
<path d="M5.94013 11.3805C5.24374 10.0809 5.04835 8.53751 5.18262 7.05664C5.86097 6.99832 6.52831 7.23888 7.15155 7.52319C7.91809 7.87205 8.66157 8.29799 9.28182 8.88325C9.90206 9.46748 10.394 10.2225 10.5764 11.0712C10.7858 12.0449 10.5794 13.0614 10.3169 14.0205C9.73873 11.995 8.41107 10.0527 6.64855 8.99989C7.23272 9.34876 8.85296 11.645 9.36699 12.9301C9.51027 13.2873 10.0423 14.3693 9.30486 14.1017C8.7247 13.8913 8.06939 13.5664 7.55937 13.2144C6.88803 12.7521 6.33091 12.1116 5.94013 11.3816V11.3805Z" fill="var(--color1)"/>
<path d="M11.7558 7.59043C12.4592 7.18116 13.2878 7.03848 14.0914 7.09784C14.1936 7.63 14.1345 8.18923 13.9662 8.70264C13.7979 9.21709 13.5243 9.68885 13.2007 10.1158C13.0955 10.2543 12.9852 10.3887 12.852 10.498C12.7247 10.6022 12.5804 10.6803 12.4331 10.749C11.9652 10.9687 11.4542 11.1062 10.9411 11.0906C10.9572 10.9281 10.9592 10.7636 10.9462 10.6011C10.9381 10.4991 10.9251 10.3949 10.9482 10.296C10.9682 10.2095 11.0153 10.1335 11.0624 10.0596C11.6646 9.12128 12.5113 8.35377 13.4882 7.86223C12.9201 7.93617 12.384 8.19131 11.9101 8.52664C11.4371 8.86302 11.0213 9.27749 10.6185 9.70134C10.3961 9.52326 10.2718 9.48057 10.382 9.18585C10.4662 8.96091 10.5794 8.74742 10.7147 8.55164C10.9862 8.15591 11.347 7.82786 11.7538 7.59043H11.7558Z" fill="var(--color1)"/>
<path d="M11.0153 6.4944C10.5353 5.48841 9.6155 4.72194 8.56641 4.45117C7.96721 5.26867 7.71871 6.35381 7.90007 7.36397C7.90609 7.39937 7.9141 7.43582 7.93715 7.4629C7.95819 7.48789 7.98925 7.50039 8.01831 7.51185C8.62653 7.7597 9.18665 8.1346 9.65558 8.6074C9.65057 7.61182 9.40709 6.49752 9.04837 5.57484C9.58244 6.41942 9.93314 7.48373 10.1766 8.46264C10.1556 8.37829 10.4702 8.04921 10.5263 7.98256C10.6636 7.81802 10.8119 7.66389 10.9702 7.52122C11.2798 7.24212 11.1846 6.8516 11.0153 6.49544V6.4944Z" fill="var(--color1)"/>
<g style="mix-blend-mode:soft-light">
<path d="M8.40809 12.6161C8.54837 12.6983 8.68164 12.7931 8.83094 12.8545C8.92012 12.891 9.0123 12.9191 9.09547 12.9681C9.25979 13.0649 9.37202 13.2378 9.43715 13.4231C9.50228 13.6075 9.52332 13.8053 9.54537 14.0001C9.08545 13.9313 8.6646 13.6991 8.2608 13.4606C7.82392 13.2034 7.39006 12.9295 7.03234 12.5629C6.67863 12.2005 6.00028 11.4893 5.63655 10.427C5.47623 9.95945 5.37903 9.47312 5.32593 8.97949C5.44817 9.42313 5.62052 9.81157 5.85799 10.2031C5.97823 10.402 6.1125 10.5926 6.25779 10.7738C6.33294 10.8686 6.4101 10.9613 6.49226 11.0498C7.22372 11.8371 7.89607 12.3161 8.40809 12.6161Z" fill="var(--color1)"/>
</g>
<g style="mix-blend-mode:soft-light">
<path d="M9.96117 12.5107C9.95115 12.5305 9.94113 12.5503 9.93913 12.5711C9.93713 12.594 9.94414 12.6169 9.95115 12.6388C10.0644 12.9762 10.2327 13.2938 10.3089 13.6427C10.4151 13.2522 10.4992 12.8564 10.5614 12.4555C10.5754 12.3628 10.5894 12.2691 10.5954 12.1743C10.6065 12.015 10.5974 11.8557 10.5874 11.6963C10.5564 11.2121 10.5023 10.707 10.2477 10.2998C10.395 10.8632 10.3319 11.5089 10.1506 12.0556C10.0984 12.2118 10.0353 12.3639 9.96117 12.5097V12.5107Z" fill="var(--color1)"/>
</g>
<g style="mix-blend-mode:soft-light">
<path d="M11.4211 10.3121C11.4241 10.3351 11.4291 10.3611 11.4462 10.3767C11.4612 10.3903 11.4833 10.3934 11.5033 10.3944C11.9612 10.4277 12.4201 10.2684 12.7979 9.99764C13.1746 9.72688 13.4742 9.34989 13.7047 8.9375C13.6045 9.30303 13.3821 9.61753 13.1526 9.91433C13.0424 10.057 12.9281 10.1997 12.7879 10.3111C12.7267 10.3601 12.6616 10.4027 12.5965 10.4454C12.2859 10.6444 11.9562 10.8287 11.5965 10.8953C11.4291 10.9266 11.2578 10.9318 11.0875 10.937C11.0604 10.8276 11.0414 10.7162 11.0304 10.6037C11.0243 10.5413 11.0203 10.4777 11.0253 10.4152C11.0384 10.2528 11.1135 10.0966 11.2287 9.98619C11.2909 9.92683 11.346 9.8935 11.376 9.99452C11.4051 10.0924 11.4061 10.2122 11.4211 10.3142V10.3121Z" fill="var(--color1)"/>
</g>
<g style="mix-blend-mode:soft-light">
<path d="M10.875 9.21775C10.8059 9.33855 10.7217 9.45102 10.6245 9.54995C10.5664 9.49892 10.5073 9.4479 10.4491 9.39687C10.4371 9.38645 10.4251 9.375 10.4191 9.36042C10.4111 9.34063 10.4171 9.31772 10.4231 9.29689C10.4461 9.21983 10.5063 8.96677 10.6115 8.98864C10.7317 9.01363 10.7267 9.21983 10.875 9.21775Z" fill="var(--color1)"/>
</g>
<g style="mix-blend-mode:soft-light">
<path d="M9.25579 7.52553C9.3119 7.55886 9.36902 7.59635 9.4091 7.64946C9.45018 7.7057 9.46922 7.77547 9.48425 7.8442C9.52032 8.00978 9.53936 8.17953 9.54036 8.34928C9.4602 8.21806 9.34497 8.11392 9.22473 8.0202C8.87002 7.7411 8.46521 7.53178 8.03735 7.40681C8.02032 7.40161 8.00228 7.3964 7.99226 7.38182C7.98224 7.36828 7.98124 7.34954 7.98024 7.33287C7.97823 7.28914 7.95419 7.17458 7.98024 7.13605C8.0103 7.09127 8.07843 7.1173 8.12453 7.12355C8.25779 7.14334 8.38906 7.17146 8.51932 7.20791C8.77182 7.27976 9.03234 7.38078 9.25579 7.52553Z" fill="var(--color1)"/>
</g>
<g style="mix-blend-mode:soft-light">
<path d="M10.1386 7.64097C10.1255 7.65451 10.1115 7.66804 10.1035 7.68471C10.0835 7.72428 10.0925 7.77323 10.1035 7.81592C10.1376 7.9586 10.1706 8.10127 10.2047 8.24498C10.35 7.93464 10.5654 7.66075 10.8289 7.45039C10.8851 7.40561 10.9462 7.36083 10.9792 7.29626C10.9993 7.25773 11.0083 7.21504 11.0143 7.17234C11.0223 7.1109 11.0494 6.86825 10.9772 6.84117C10.9051 6.81514 10.7578 7.01717 10.7137 7.06299C10.5223 7.25565 10.331 7.44831 10.1396 7.63993L10.1386 7.64097Z" fill="var(--color1)"/>
</g>
</g>
<defs>
<clipPath id="clip0_5324_6498">
<rect width="9" height="9.69231" fill="white" transform="translate(5.14258 4.45117)"/>
</clipPath>
</defs>
</svg>