<svg width="25" height="24" viewBox="0 0 25 24" fill="none" xmlns="http://www.w3.org/2000/svg">
<path d="M0 0H25V25H0V0Z" fill="var(--color1)"/>
<path d="M13.0042 3.00002C12.7591 3.00284 12.5629 3.20384 12.5657 3.44896V4.78253C12.5709 5.02394 12.768 5.21676 13.0094 5.21676C13.2507 5.21676 13.4478 5.02394 13.453 4.78253V3.44896C13.4545 3.32938 13.4076 3.21439 13.3232 3.13002C13.2387 3.04549 13.1237 2.99868 13.0042 3.00002ZM18.3387 5.21068C18.3367 5.21098 18.3347 5.21127 18.3326 5.21157C18.2177 5.21514 18.1086 5.26342 18.0286 5.34586L17.0883 6.28517H17.0882C17.002 6.36762 16.9525 6.48112 16.9511 6.60041C16.9496 6.71955 16.9961 6.83438 17.0802 6.91892C17.1642 7.00359 17.2788 7.05068 17.3979 7.04979C17.5172 7.0489 17.631 7.00017 17.7139 6.91431L18.6568 5.97409C18.7885 5.84737 18.8291 5.65246 18.7588 5.48369C18.6884 5.31478 18.5216 5.20633 18.3387 5.21064L18.3387 5.21068ZM7.672 5.21157C7.49076 5.21053 7.32705 5.31987 7.25857 5.48759C7.19023 5.65546 7.23064 5.84813 7.36093 5.97411L8.30381 6.91433C8.38656 7.0002 8.5005 7.04893 8.61964 7.04982C8.73893 7.05071 8.85347 7.00362 8.93755 6.91894C9.02163 6.83441 9.06813 6.71958 9.06665 6.60043C9.06516 6.48114 9.01569 6.36765 8.92938 6.2852L7.98916 5.34589C7.90582 5.26017 7.79158 5.21172 7.672 5.21157ZM13.0111 5.75841C10.0759 5.75841 7.68493 8.14823 7.68493 11.0834C7.68671 12.9674 8.74206 14.6443 10.3479 15.5976V16.3177C10.349 16.5613 10.5462 16.7586 10.7899 16.7596H15.2276C15.4713 16.7586 15.6686 16.5613 15.6696 16.3177V15.6002C17.2785 14.6461 18.3325 12.9703 18.3326 11.0837C18.3326 8.1485 15.9462 5.75868 13.011 5.75868L13.0111 5.75841ZM13.0111 6.64573C15.4667 6.64573 17.4454 8.62776 17.4454 11.0835C17.4453 12.7516 16.511 14.2751 15.025 15.0333L15.0251 15.0335C14.8758 15.1094 14.7819 15.2628 14.7825 15.4304V15.8724H11.2356V15.4234C11.2344 15.2575 11.1408 15.1061 10.9928 15.0308C9.50849 14.2733 8.57405 12.7499 8.57241 11.0836C8.57241 8.62802 10.5553 6.64588 13.0109 6.64588L13.0111 6.64573ZM5.42175 10.5495C5.17648 10.5623 4.98797 10.7713 5.0006 11.0166C5.01337 11.2619 5.22239 11.4505 5.46765 11.4377H6.79783C7.0431 11.4377 7.24203 11.239 7.24203 10.9937C7.24203 10.7484 7.04311 10.5495 6.79783 10.5495H5.46765C5.45235 10.5488 5.43705 10.5488 5.42175 10.5495ZM19.1777 10.5495C18.9339 10.5634 18.7467 10.7712 18.7586 11.0151C18.7705 11.2592 18.977 11.4479 19.221 11.4377H20.5539C20.672 11.4383 20.7855 11.3917 20.8691 11.3083C20.9529 11.225 21 11.1118 21 10.9937C21 10.8755 20.9529 10.7623 20.8691 10.6789C20.7855 10.5956 20.672 10.5491 20.5539 10.5495H19.221C19.2066 10.5488 19.1921 10.5488 19.1777 10.5495ZM10.7475 17.2048H10.7477C10.5024 17.2166 10.313 17.425 10.3247 17.6703C10.3365 17.9155 10.5447 18.1048 10.79 18.093H15.2277C15.473 18.093 15.6719 17.8943 15.6719 17.649C15.6719 17.4037 15.473 17.2048 15.2277 17.2048H10.79C10.7759 17.2042 10.7618 17.2042 10.7476 17.2048L10.7475 17.2048ZM11.6714 18.5291C11.6498 18.5296 11.6284 18.5319 11.6072 18.5357H11.2355C11.1161 18.5331 11.0008 18.5787 10.9154 18.6622C10.8301 18.7456 10.782 18.86 10.782 18.9793C10.782 19.0988 10.8301 19.2132 10.9154 19.2966C11.0008 19.3801 11.1161 19.4257 11.2355 19.4231H11.2988C11.4983 20.1845 12.1879 20.7541 13.0094 20.7541C13.8309 20.7541 14.5205 20.1845 14.72 19.4231H14.7824C14.9017 19.4257 15.0171 19.3801 15.1024 19.2966C15.1878 19.2132 15.2358 19.0988 15.2358 18.9793C15.2358 18.86 15.1878 18.7456 15.1024 18.6622C15.0171 18.5787 14.9017 18.5331 14.7824 18.5357H14.4088C14.3629 18.5285 14.3161 18.5285 14.2702 18.5357H11.7467C11.7219 18.5313 11.6966 18.5291 11.6714 18.5291ZM12.2405 19.4223H13.7778C13.6267 19.6887 13.3446 19.8661 13.0091 19.8661C12.6737 19.8661 12.3916 19.6887 12.2405 19.4223Z" fill="#FFFFFF"/>
</svg>
