<svg xmlns="http://www.w3.org/2000/svg" width="16" height="16" viewBox="0 0 16 16">
    <defs>
        <linearGradient id="4ldz68t85a" x1="8.392%" x2="91.608%" y1="91.608%" y2="8.391%">
            <stop offset="0%" stop-color="#FFD600"/>
            <stop offset="50%" stop-color="#FF0100"/>
            <stop offset="100%" stop-color="#D800B9"/>
        </linearGradient>
        <linearGradient id="gefwfx9fib" x1="14.645%" x2="85.355%" y1="85.355%" y2="14.645%">
            <stop offset="0%" stop-color="#FF6400"/>
            <stop offset="50%" stop-color="#FF0100"/>
            <stop offset="100%" stop-color="#FD0056"/>
        </linearGradient>
        <linearGradient id="oem9hvf4wc" x1="14.647%" x2="85.355%" y1="85.354%" y2="14.647%">
            <stop offset="0%" stop-color="#F30072"/>
            <stop offset="100%" stop-color="#E50097"/>
        </linearGradient>
    </defs>
    <g fill="none" fill-rule="evenodd">
        <g fill-rule="nonzero">
            <g>
                <path fill="url(#4ldz68t85a)" d="M15.952 4.702c-.039-.852-.174-1.433-.372-1.942-.2-.534-.516-1.018-.923-1.417-.4-.407-.883-.722-1.417-.923-.509-.198-1.09-.333-1.942-.372C10.445.01 10.173 0 8 0S5.555.01 4.702.048C3.85.087 3.269.222 2.76.42c-.534.2-1.018.516-1.417.923-.407.4-.722.883-.923 1.417-.198.509-.333 1.09-.372 1.942C.01 5.555 0 5.827 0 8s.01 2.445.048 3.298c.04.852.174 1.433.372 1.942.201.534.516 1.018.923 1.417.4.407.883.722 1.417.923.509.198 1.09.333 1.942.372C5.555 15.99 5.828 16 8 16c2.173 0 2.445-.01 3.298-.048.852-.039 1.433-.174 1.942-.372 1.075-.416 1.924-1.265 2.34-2.34.198-.509.333-1.09.372-1.942C15.99 10.445 16 10.173 16 8s-.01-2.445-.048-3.298zm-1.44 6.53c-.036.78-.166 1.204-.276 1.486-.269.698-.82 1.25-1.518 1.519-.282.11-.705.24-1.485.275-.844.039-1.097.047-3.233.047s-2.39-.008-3.233-.047c-.78-.035-1.203-.166-1.485-.275-.348-.129-.662-.333-.92-.599-.266-.258-.47-.572-.599-.92-.11-.282-.24-.705-.275-1.485-.038-.844-.047-1.097-.047-3.233s.009-2.389.047-3.233c.036-.78.166-1.203.275-1.485.129-.348.333-.662.599-.92.258-.266.572-.47.92-.598.282-.11.705-.24 1.485-.276.844-.038 1.097-.047 3.233-.047s2.389.009 3.233.047c.78.036 1.203.166 1.485.276.348.128.662.332.92.598.266.258.47.572.598.92.11.282.24.705.276 1.485.038.844.046 1.097.046 3.233s-.008 2.39-.046 3.233z" transform="translate(-16 -784) translate(16 784)"/>
                <path fill="url(#gefwfx9fib)" d="M8 3.945C5.76 3.945 3.945 5.761 3.945 8c0 2.24 1.816 4.055 4.055 4.055 2.24 0 4.055-1.816 4.055-4.055 0-2.24-1.816-4.055-4.055-4.055zm0 6.687c-1.454 0-2.632-1.178-2.632-2.632 0-1.454 1.178-2.632 2.632-2.632 1.454 0 2.632 1.178 2.632 2.632 0 1.454-1.178 2.632-2.632 2.632z" transform="translate(-16 -784) translate(16 784)"/>
                <path fill="url(#oem9hvf4wc)" d="M13.37 3.617c0 .544-.442.986-.986.986-.545 0-.987-.442-.987-.986 0-.545.442-.987.987-.987.544 0 .986.442.986.987z" transform="translate(-16 -784) translate(16 784)"/>
            </g>
        </g>
    </g>
</svg>
