<svg width="115" height="30" viewBox="0 0 115 30" fill="none" xmlns="http://www.w3.org/2000/svg">
<path d="M0 0H104L115 14.5L104 30H0V0Z" fill="#FF8484"/>
<path fill-rule="evenodd" clip-rule="evenodd" d="M4 5H22.75V16.905L13.375 25L4 16.905V5Z" fill="white"/>
<path d="M17.75 11.81H14.5387L17.5162 7.5H13.765L10.25 13.965H13.0162L10.25 20L17.75 11.81Z" fill="black"/>
<path d="M29.704 4.48H30.288V10H29.704V4.48ZM35.6562 4.48V10H35.0722L32.2162 5.552V10H31.6322V4.48H32.2162L35.0722 8.912V4.48H35.6562ZM38.4089 10.048C37.8542 10.048 37.4195 9.912 37.1049 9.64C36.7902 9.368 36.6089 8.968 36.5609 8.44H37.1369C37.2115 9.17067 37.6489 9.536 38.4489 9.536C38.8649 9.536 39.1795 9.448 39.3929 9.272C39.6115 9.096 39.7209 8.84 39.7209 8.504C39.7209 8.2 39.6355 7.97067 39.4649 7.816C39.2942 7.66133 39.0355 7.55467 38.6889 7.496L38.0649 7.392C37.6169 7.31733 37.2729 7.16533 37.0329 6.936C36.7929 6.70133 36.6729 6.37333 36.6729 5.952C36.6729 5.46667 36.8355 5.088 37.1609 4.816C37.4862 4.544 37.9155 4.408 38.4489 4.408C38.9395 4.408 39.3395 4.536 39.6489 4.792C39.9635 5.04267 40.1502 5.42667 40.2089 5.944H39.6329C39.5689 5.256 39.1715 4.912 38.4409 4.912C38.0622 4.912 37.7662 5.00267 37.5529 5.184C37.3449 5.36 37.2409 5.60267 37.2409 5.912C37.2409 6.184 37.3209 6.39733 37.4809 6.552C37.6462 6.70133 37.8942 6.80533 38.2249 6.864L38.8649 6.976C39.3289 7.056 39.6835 7.216 39.9289 7.456C40.1742 7.696 40.2969 8.03467 40.2969 8.472C40.2969 8.97333 40.1289 9.36267 39.7929 9.64C39.4569 9.912 38.9955 10.048 38.4089 10.048ZM44.4561 5.008H42.8801V10H42.3041V5.008H40.7281V4.48H44.4561V5.008ZM47.3863 8.672H45.0423L44.5783 10H43.9623L45.9703 4.48H46.4583L48.4663 10H47.8503L47.3863 8.672ZM47.2183 8.176L46.2103 5.296L45.2103 8.176H47.2183ZM53.1874 4.48V10H52.6034L49.7474 5.552V10H49.1634V4.48H49.7474L52.6034 8.912V4.48H53.1874ZM57.6201 5.008H56.0441V10H55.4681V5.008H53.8921V4.48H57.6201V5.008ZM60.0619 4.48H61.9499C62.5365 4.48 63.0005 4.65067 63.3419 4.992C63.6885 5.328 63.8619 5.86133 63.8619 6.592V7.888C63.8619 8.61867 63.6885 9.15467 63.3419 9.496C63.0005 9.832 62.5365 10 61.9499 10H60.0619V4.48ZM61.9579 9.472C62.8325 9.472 63.2699 8.95467 63.2699 7.92V6.616C63.2699 6.056 63.1552 5.648 62.9259 5.392C62.7019 5.136 62.3792 5.008 61.9579 5.008H60.6539V9.472H61.9579ZM65.0946 4.48H65.6786V10H65.0946V4.48ZM68.4948 10.048C67.9401 10.048 67.5055 9.912 67.1908 9.64C66.8761 9.368 66.6948 8.968 66.6468 8.44H67.2228C67.2975 9.17067 67.7348 9.536 68.5348 9.536C68.9508 9.536 69.2655 9.448 69.4788 9.272C69.6975 9.096 69.8068 8.84 69.8068 8.504C69.8068 8.2 69.7215 7.97067 69.5508 7.816C69.3801 7.66133 69.1215 7.55467 68.7748 7.496L68.1508 7.392C67.7028 7.31733 67.3588 7.16533 67.1188 6.936C66.8788 6.70133 66.7588 6.37333 66.7588 5.952C66.7588 5.46667 66.9215 5.088 67.2468 4.816C67.5721 4.544 68.0015 4.408 68.5348 4.408C69.0255 4.408 69.4255 4.536 69.7348 4.792C70.0495 5.04267 70.2361 5.42667 70.2948 5.944H69.7188C69.6548 5.256 69.2575 4.912 68.5268 4.912C68.1481 4.912 67.8521 5.00267 67.6388 5.184C67.4308 5.36 67.3268 5.60267 67.3268 5.912C67.3268 6.184 67.4068 6.39733 67.5668 6.552C67.7321 6.70133 67.9801 6.80533 68.3108 6.864L68.9508 6.976C69.4148 7.056 69.7695 7.216 70.0148 7.456C70.2601 7.696 70.3828 8.03467 70.3828 8.472C70.3828 8.97333 70.2148 9.36267 69.8788 9.64C69.5428 9.912 69.0815 10.048 68.4948 10.048ZM73.222 10.064C72.63 10.064 72.158 9.896 71.806 9.56C71.454 9.21867 71.278 8.68267 71.278 7.952V6.52C71.278 5.78933 71.454 5.256 71.806 4.92C72.158 4.57867 72.63 4.408 73.222 4.408C73.5953 4.408 73.9233 4.47733 74.206 4.616C74.494 4.75467 74.7153 4.952 74.87 5.208C75.0247 5.464 75.102 5.76 75.102 6.096V6.12H74.518V6.096C74.518 5.73867 74.4007 5.456 74.166 5.248C73.9367 5.04 73.622 4.936 73.222 4.936C72.7793 4.936 72.4407 5.06133 72.206 5.312C71.9767 5.56267 71.862 5.97333 71.862 6.544V7.984C71.862 9.01333 72.318 9.528 73.23 9.528C73.63 9.528 73.9447 9.42667 74.174 9.224C74.4033 9.016 74.518 8.73333 74.518 8.376V8.344H75.086V8.376C75.086 8.89333 74.918 9.304 74.582 9.608C74.246 9.912 73.7927 10.064 73.222 10.064ZM78.0728 10.064C77.4861 10.064 77.0195 9.896 76.6728 9.56C76.3315 9.21867 76.1608 8.68267 76.1608 7.952V6.52C76.1608 5.78933 76.3341 5.256 76.6808 4.92C77.0275 4.57867 77.4941 4.408 78.0808 4.408C78.6621 4.408 79.1235 4.57867 79.4648 4.92C79.8115 5.256 79.9848 5.78933 79.9848 6.52V7.952C79.9848 8.68267 79.8115 9.21867 79.4648 9.56C79.1181 9.896 78.6541 10.064 78.0728 10.064ZM78.0808 9.528C78.9608 9.528 79.4008 9.01333 79.4008 7.984V6.544C79.4008 5.472 78.9608 4.936 78.0808 4.936C77.6381 4.936 77.3048 5.064 77.0808 5.32C76.8568 5.57067 76.7448 5.97867 76.7448 6.544V7.984C76.7448 8.52267 76.8568 8.91467 77.0808 9.16C77.3101 9.40533 77.6435 9.528 78.0808 9.528ZM83.0596 10.048C82.697 10.048 82.3716 9.97067 82.0836 9.816C81.7956 9.66133 81.569 9.44267 81.4036 9.16C81.2383 8.87733 81.1556 8.55733 81.1556 8.2V4.48H81.7476V8.152C81.7476 8.57333 81.865 8.90933 82.0996 9.16C82.3396 9.40533 82.6596 9.528 83.0596 9.528C83.4543 9.528 83.7716 9.40533 84.0116 9.16C84.2516 8.90933 84.3716 8.57333 84.3716 8.152V4.48H84.9556V8.2C84.9556 8.56267 84.873 8.88533 84.7076 9.168C84.5476 9.44533 84.3236 9.66133 84.0356 9.816C83.7476 9.97067 83.4223 10.048 83.0596 10.048ZM90.2578 4.48V10H89.6738L86.8178 5.552V10H86.2338V4.48H86.8178L89.6738 8.912V4.48H90.2578ZM94.6904 5.008H93.1144V10H92.5384V5.008H90.9624V4.48H94.6904V5.008Z" fill="white"/>
<path d="M31.128 18.37V26H32.962V16.34H31.128L29.504 17.558V19.546L31.128 18.37ZM35.2672 25.328C35.7432 25.888 36.4712 26.154 37.4512 26.154C38.4312 26.154 39.1452 25.874 39.6212 25.314C40.0972 24.754 40.3352 23.928 40.3352 22.822V19.406C40.3352 18.342 40.0972 17.544 39.6212 16.998C39.1452 16.466 38.4312 16.186 37.4512 16.186C36.4992 16.186 35.7852 16.466 35.2952 17.012C34.8052 17.558 34.5672 18.356 34.5672 19.406V22.822C34.5672 23.942 34.7912 24.768 35.2672 25.328ZM38.2772 24.138C38.1372 24.418 37.8572 24.558 37.4512 24.558C37.0452 24.558 36.7652 24.418 36.6252 24.138C36.4852 23.858 36.4152 23.368 36.4152 22.682V19.686C36.4152 18.986 36.4852 18.51 36.6252 18.23C36.7652 17.95 37.0312 17.81 37.4512 17.81C37.8572 17.81 38.1372 17.95 38.2772 18.23C38.4172 18.51 38.4872 18.986 38.4872 19.686V22.682C38.4872 23.368 38.4172 23.858 38.2772 24.138ZM42.4313 25.328C42.9073 25.888 43.6353 26.154 44.6153 26.154C45.5953 26.154 46.3093 25.874 46.7853 25.314C47.2613 24.754 47.4993 23.928 47.4993 22.822V19.406C47.4993 18.342 47.2613 17.544 46.7853 16.998C46.3093 16.466 45.5953 16.186 44.6153 16.186C43.6633 16.186 42.9493 16.466 42.4593 17.012C41.9693 17.558 41.7313 18.356 41.7313 19.406V22.822C41.7313 23.942 41.9552 24.768 42.4313 25.328ZM45.4413 24.138C45.3013 24.418 45.0213 24.558 44.6153 24.558C44.2093 24.558 43.9293 24.418 43.7893 24.138C43.6493 23.858 43.5793 23.368 43.5793 22.682V19.686C43.5793 18.986 43.6493 18.51 43.7893 18.23C43.9293 17.95 44.1953 17.81 44.6153 17.81C45.0213 17.81 45.3013 17.95 45.4413 18.23C45.5813 18.51 45.6513 18.986 45.6513 19.686V22.682C45.6513 23.368 45.5813 23.858 45.4413 24.138ZM52.4025 21.786C52.7105 22.136 53.1865 22.304 53.8445 22.304C54.4885 22.304 54.9505 22.136 55.2585 21.786C55.5665 21.436 55.7205 20.918 55.7205 20.218V18.23C55.7205 17.572 55.5665 17.082 55.2585 16.746C54.9505 16.424 54.4885 16.256 53.8445 16.256C53.2285 16.256 52.7525 16.424 52.4305 16.76C52.1085 17.096 51.9545 17.586 51.9545 18.23V20.218C51.9545 20.918 52.0945 21.436 52.4025 21.786ZM59.7245 16.27L54.3345 26H55.7065L61.1105 16.27H59.7245ZM54.2085 20.876C54.1525 21.002 54.0405 21.058 53.8445 21.058C53.6485 21.058 53.5225 21.002 53.4665 20.862C53.4105 20.736 53.3965 20.498 53.3965 20.148V18.412C53.3965 18.062 53.4245 17.824 53.4805 17.684C53.5365 17.558 53.6485 17.488 53.8445 17.488C54.0265 17.488 54.1385 17.558 54.1945 17.684C54.2505 17.824 54.2785 18.062 54.2785 18.412V20.148C54.2785 20.512 54.2505 20.764 54.2085 20.876ZM60.1585 25.566C60.4665 25.916 60.9425 26.084 61.6005 26.084C62.2445 26.084 62.7065 25.916 63.0145 25.566C63.3225 25.216 63.4765 24.698 63.4765 23.998V22.01C63.4765 21.352 63.3225 20.862 63.0145 20.526C62.7065 20.204 62.2445 20.036 61.6005 20.036C60.9845 20.036 60.5085 20.204 60.1865 20.54C59.8645 20.876 59.7105 21.366 59.7105 22.024V24.012C59.7105 24.698 59.8505 25.216 60.1585 25.566ZM61.9645 24.67C61.9085 24.782 61.7965 24.852 61.6005 24.852C61.4045 24.852 61.2785 24.782 61.2225 24.656C61.1665 24.516 61.1525 24.278 61.1525 23.942V22.206C61.1525 21.842 61.1805 21.604 61.2365 21.478C61.2925 21.338 61.4045 21.282 61.6005 21.282C61.7825 21.282 61.8945 21.338 61.9505 21.478C62.0065 21.604 62.0345 21.842 62.0345 22.206V23.942C62.0345 24.306 62.0065 24.544 61.9645 24.67ZM67.9539 22.262C67.9539 24.838 69.1019 26.112 71.4119 26.112C72.4899 26.112 73.3439 25.818 73.9879 25.216C74.6319 24.614 74.9539 23.634 74.9539 22.262V20.05C74.9539 18.692 74.6319 17.712 74.0159 17.11C73.3859 16.508 72.5319 16.2 71.4539 16.2C69.1159 16.2 67.9399 17.488 67.9399 20.05L67.9539 22.262ZM72.6999 23.942C72.4339 24.306 72.0139 24.474 71.4539 24.474C70.8659 24.474 70.4459 24.306 70.1799 23.956C69.9279 23.606 69.7879 23.032 69.7879 22.234V20.148C69.7879 19.308 69.9279 18.72 70.1799 18.356C70.4459 17.992 70.8659 17.81 71.4539 17.81C72.0139 17.81 72.4339 18.006 72.6999 18.37C72.9799 18.734 73.1059 19.336 73.1059 20.148V22.234C73.1059 23.018 72.9799 23.578 72.6999 23.942ZM78.1717 17.936H82.4697V16.34H76.3377V26H78.1717V22.01H81.8537V20.414H78.1717V17.936ZM85.4178 17.936H89.7158V16.34H83.5838V26H85.4178V22.01H89.0998V20.414H85.4178V17.936Z" fill="white"/>
</svg>
