<svg width="18" height="14" viewBox="0 0 18 14" fill="none" xmlns="http://www.w3.org/2000/svg">
<path d="M13.681 0.478819C12.8468 0.957158 12.2819 1.69941 12.0692 2.4829C11.9002 3.10203 11.952 3.74413 12.266 4.29964L9.3771 5.95203C7.33709 4.92938 2.76341 2.6337 2.04237 2.22193C1.10984 1.68822 -4.94525e-07 2.64313 -4.94525e-07 2.64313L7.58274 6.97881L-1.15539e-07 11.3133C-1.15539e-07 11.3133 1.10984 12.2676 2.04178 11.7345C2.76341 11.3222 7.3365 9.02589 9.37651 8.00441L12.2654 9.65622C11.9514 10.2117 11.8996 10.855 12.0686 11.473C12.2813 12.2576 12.8462 12.9993 13.6804 13.4776C15.1808 14.3365 16.9805 14.0084 17.7021 12.7477C18.0231 12.1887 18.0744 11.5413 17.9053 10.9175C17.6915 10.1346 17.1266 9.39113 16.2942 8.91338C15.9266 8.70425 15.5419 8.56582 15.1596 8.49512L15.1602 8.49512C15.1572 8.49454 15.1543 8.49454 15.1513 8.49159C15.1195 8.48747 15.0877 8.48158 15.053 8.47863C12.6736 8.124 11.4583 7.45362 10.8681 6.9794C11.4583 6.50401 12.673 5.83304 15.053 5.479C15.0877 5.47546 15.1195 5.46957 15.1513 5.46663C15.1543 5.46427 15.1572 5.46427 15.1602 5.46309L15.1596 5.46309C15.5413 5.39181 15.9266 5.25396 16.2942 5.04543C17.1266 4.56709 17.6915 3.82366 17.9053 3.04017C18.0744 2.41633 18.0231 1.76892 17.7021 1.2087C16.9805 -0.0525378 15.1814 -0.379482 13.681 0.478819ZM15.592 10.1399C16.065 10.4108 16.4214 10.8403 16.5434 11.2874C16.5976 11.4865 16.6305 11.7787 16.4768 12.0467C16.1498 12.6181 15.189 12.7118 14.382 12.2506C13.9037 11.9749 13.5555 11.5572 13.4312 11.1018C13.3776 10.9045 13.3452 10.6123 13.4978 10.3431C13.8259 9.77109 14.7843 9.67801 15.592 10.1399ZM16.4768 1.9103C16.6311 2.17834 16.5975 2.46935 16.5434 2.66846C16.4214 3.11617 16.065 3.54502 15.592 3.81659C14.7843 4.27785 13.8259 4.18477 13.4978 3.61277C13.3446 3.34355 13.3776 3.05136 13.4312 2.85343C13.5555 2.39924 13.9037 1.9804 14.382 1.70648C15.189 1.24522 16.1498 1.3383 16.4768 1.9103Z" fill="black"/>
</svg>
