<svg width="25" height="22" viewBox="0 0 25 22" fill="none" xmlns="http://www.w3.org/2000/svg">
    <path fill-rule="evenodd" clip-rule="evenodd" d="M7.957 2.338c-1.535 0-2.977.59-4.062 1.663-2.42 2.391-1.715 5.79.06 8.097 3.646 4.736 6.84 7.565 8.543 7.565 1.706 0 4.901-2.829 8.545-7.565 1.776-2.307 2.483-5.705.06-8.097V4a5.74 5.74 0 0 0-4.06-1.662A5.74 5.74 0 0 0 12.983 4l-.482.475-.48-.474a5.748 5.748 0 0 0-4.064-1.663M12.502 21c-2.809 0-6.787-4.401-9.63-8.094C.355 9.63.379 5.58 2.933 3.056A7.102 7.102 0 0 1 7.957 1h.001a7.1 7.1 0 0 1 4.54 1.621A7.113 7.113 0 0 1 17.044 1h.001a7.1 7.1 0 0 1 5.022 2.056c2.556 2.524 2.581 6.576.06 9.85C19.284 16.599 15.308 21 12.5 21" fill="#000"/>
    <path d="m3.895 4.001.106.107L3.895 4zm.06 8.097-.12.092.12-.092zm17.088 0-.119-.091.12.091zm.06-8.097h-.15v.063l.044.044.106-.107zm0-.001h.15v-.063l-.045-.044-.105.107zm-8.12 0 .105.106L12.983 4zm-.482.475-.105.107.105.104.106-.104-.106-.107zm-.48-.474-.106.107.106-.107zm-9.148 8.905-.119.091.119-.091zm.06-9.85-.106-.107.105.107zm9.566-.435-.096.116.095.079.096-.079-.095-.116zM17.044 1V.85 1zm5.022 2.056-.105.107.105-.107zm.06 9.85-.12-.092.12.092zM7.955 2.188A5.889 5.889 0 0 0 3.79 3.894l.21.214a5.589 5.589 0 0 1 3.957-1.62v-.3zM3.79 3.894c-2.498 2.468-1.751 5.959.046 8.296l.238-.183C2.322 9.729 1.657 6.422 4 4.107l-.211-.213zm.046 8.296c1.826 2.372 3.543 4.271 5.02 5.579.738.654 1.42 1.162 2.027 1.508.606.345 1.152.536 1.615.536v-.3c-.388 0-.88-.163-1.466-.497-.584-.332-1.248-.826-1.977-1.472-1.458-1.29-3.162-3.174-4.982-5.537l-.237.183zm8.662 7.623c.465 0 1.011-.191 1.617-.536.608-.346 1.29-.854 2.028-1.508 1.477-1.308 3.194-3.207 5.02-5.58l-.239-.182c-1.818 2.364-3.521 4.247-4.98 5.537-.729.646-1.393 1.14-1.978 1.472-.586.334-1.08.497-1.468.497v.3zm8.664-7.623c1.799-2.337 2.547-5.827.046-8.296l-.21.214c2.345 2.315 1.68 5.621-.074 7.899l.238.183zM21.252 4V4h-.3V4h.3zm-.044-.108a5.89 5.89 0 0 0-4.165-1.705v.3c1.494 0 2.9.575 3.954 1.618l.211-.213zm-4.165-1.705a5.89 5.89 0 0 0-4.166 1.705l.211.213a5.59 5.59 0 0 1 3.955-1.618v-.3zm-4.166 1.705-.481.476.21.213.482-.476-.21-.213zm-.27.475-.48-.474-.212.214.48.474.212-.214zm-.48-.474a5.898 5.898 0 0 0-4.17-1.706v.3c1.494 0 2.9.575 3.958 1.62l.211-.214zM12.5 20.85c-.664 0-1.413-.261-2.214-.725-.8-.463-1.64-1.121-2.485-1.898-1.692-1.553-3.391-3.57-4.81-5.413l-.238.183c1.423 1.85 3.135 3.88 4.845 5.451.855.785 1.713 1.459 2.538 1.936.823.477 1.625.766 2.364.766v-.3zm-9.51-8.036C.51 9.585.55 5.622 3.039 3.163l-.211-.214C.207 5.538.199 9.675 2.754 12.997l.238-.183zm.047-9.651A6.952 6.952 0 0 1 7.957 1.15v-.3c-1.937 0-3.76.745-5.13 2.1l.21.213zM7.957 1.15h.001v-.3h-.001v.3zm.001 0a6.95 6.95 0 0 1 4.445 1.587l.19-.232A7.25 7.25 0 0 0 7.959.85v.3zm4.636 1.587a6.963 6.963 0 0 1 4.449-1.587v-.3a7.263 7.263 0 0 0-4.64 1.655l.19.232zm4.449-1.587h.001v-.3h-.001v.3zm0 0a6.95 6.95 0 0 1 4.918 2.013l.21-.214A7.25 7.25 0 0 0 17.045.85v.3zm4.918 2.013c2.49 2.46 2.531 6.424.046 9.651l.237.183c2.558-3.32 2.549-7.46-.073-10.048l-.21.214zm.046 9.651c-1.419 1.844-3.117 3.86-4.807 5.413-.846.777-1.686 1.435-2.485 1.898-.8.464-1.549.725-2.213.725v.3c.739 0 1.54-.289 2.364-.766.824-.477 1.682-1.15 2.537-1.936 1.709-1.57 3.419-3.602 4.841-5.45l-.237-.184z" fill="#fff"/>
</svg>
