<svg xmlns="http://www.w3.org/2000/svg" width="16" height="16" viewBox="0 0 16 16">
  <path d="M2.667 0H.889C.398 0 0 .398 0 .889v1.778c0 .49.398.889.889.889h1.778c.49 0 .889-.398.889-.89V.89c0-.491-.398-.889-.89-.889zM2.667 6.222H.889c-.491 0-.889.398-.889.89v1.777c0 .49.398.889.889.889h1.778c.49 0 .889-.398.889-.89V7.112c0-.49-.398-.889-.89-.889zM2.667 12.444H.889c-.491 0-.889.398-.889.89v1.777c0 .491.398.889.889.889h1.778c.49 0 .889-.398.889-.889v-1.778c0-.49-.398-.889-.89-.889zM5.333.889H16V2.667H5.333zM5.333 7.111H16V8.889H5.333zM5.333 13.333H16V15.111H5.333z" transform="translate(-269.000000, -313.000000) translate(256.000000, 306.000000) translate(13.000000, 7.000000)"/>
</svg>
