<svg width="24" height="24" viewBox="0 0 24 24" fill="none" xmlns="http://www.w3.org/2000/svg">
<circle cx="12" cy="12" r="12" fill="#FFEBEB"/>
<path d="M16.5638 11.0092C16.5638 14.4803 12.101 17.4555 12.101 17.4555C12.101 17.4555 7.63818 14.4803 7.63818 11.0092C7.63818 9.82559 8.10837 8.69045 8.94531 7.85351C9.78225 7.01657 10.9174 6.54639 12.101 6.54639C13.2846 6.54639 14.4197 7.01657 15.2567 7.85351C16.0936 8.69045 16.5638 9.82559 16.5638 11.0092Z" fill="#FF9797"/>
<path d="M12.1023 12.4967C12.9239 12.4967 13.59 11.8307 13.59 11.0091C13.59 10.1875 12.9239 9.52148 12.1023 9.52148C11.2808 9.52148 10.6147 10.1875 10.6147 11.0091C10.6147 11.8307 11.2808 12.4967 12.1023 12.4967Z" fill="white"/>
</svg>
