<svg width="196" height="8" viewBox="0 0 196 8" fill="none" xmlns="http://www.w3.org/2000/svg">
                      <path
                        d="M24.7778 3.46387C24.5017 3.46387 24.2778 3.68772 24.2778 3.96387C24.2778 4.24001 24.5017 4.46387 24.7778 4.46387V3.46387ZM195.131 4.31742C195.327 4.12216 195.327 3.80558 195.131 3.61031L191.949 0.428333C191.754 0.233071 191.438 0.233071 191.242 0.428333C191.047 0.623595 191.047 0.940178 191.242 1.13544L194.071 3.96387L191.242 6.79229C191.047 6.98756 191.047 7.30414 191.242 7.4994C191.438 7.69466 191.754 7.69466 191.949 7.4994L195.131 4.31742ZM24.7778 4.46387H194.778V3.46387H24.7778V4.46387Z"
                        fill="#D8B261"
                      />
                      <path
                        d="M0.777832 3.46387C0.50169 3.46387 0.277832 3.68772 0.277832 3.96387C0.277832 4.24001 0.50169 4.46387 0.777832 4.46387V3.46387ZM0.777832 4.46387H79.6184V3.46387H0.777832V4.46387Z"
                        fill="#D8B261"
                      />
                    </svg>