<svg xmlns="http://www.w3.org/2000/svg" width="20" height="20" viewBox="0 0 20 20">
    <g fill="none" fill-rule="evenodd">
        <path d="M-5-5h30v30H-5z"/>
        <path fill="#DFBD51" fill-rule="nonzero" d="M19.447 8.701l-2.995-2.994V1.755a.585.585 0 0 0-.584-.585h-2.34a.585.585 0 0 0-.584.585v.443L11.26.514A1.753 1.753 0 0 0 8.781.512L.514 8.702a1.754 1.754 0 1 0 1.825 2.895v7.78c0 .322.262.584.585.584h14.113a.585.585 0 0 0 .585-.585v-7.78a1.753 1.753 0 0 0 2.34-1.654c-.001-.469-.183-.91-.515-1.24zM14.113 2.34h1.17v2.197l-1.17-1.17V2.34zM11.774 18.79H8.265v-4.756h3.509v4.756zm4.678 0h-3.508v-5.34a.585.585 0 0 0-.585-.585H7.68a.585.585 0 0 0-.585.584v5.341H3.509v-8.117l6.509-6.44 6.434 6.434v8.123zm2.168-8.436a.584.584 0 0 1-.827 0l-7.36-7.36a.585.585 0 0 0-.825-.002l-7.44 7.362a.585.585 0 0 1-.829-.825l8.267-8.189a.584.584 0 0 1 .827 0l8.187 8.187a.585.585 0 0 1 0 .827z"/>
        <path fill="#DFBD51" fill-rule="nonzero" d="M10.02 7.018c-1.29 0-2.34 1.05-2.34 2.339 0 1.29 1.05 2.34 2.34 2.34 1.29 0 2.339-1.05 2.339-2.34 0-1.29-1.05-2.34-2.34-2.34zm0 3.508a1.17 1.17 0 0 1-1.17-1.17 1.17 1.17 0 0 1 2.34 0 1.17 1.17 0 0 1-1.17 1.17z"/>
    </g>
</svg>
