<svg width="21" height="24" viewBox="0 0 21 24" fill="none" xmlns="http://www.w3.org/2000/svg">
    <path d="M8.308 10.244a2 2 0 0 1-1.145-.36L3.826 7.551a.785.785 0 0 1-.336-.644V2a2 2 0 0 1 2-2h9.091a2 2 0 0 1 2 2v4.908a.786.786 0 0 1-.335.644l-3.338 2.332a2 2 0 0 1-1.146.36H8.308z" fill="#FF9797"/>
    <path d="m6.125 9.158 1.553 1.085h.018V0H6.125v9.158zM12.393 10.244l1.57-1.097V0h-1.57v10.244zM9.406 10.244h1.571V0h-1.57v10.244z" fill="#FFE6E6"/>
    <path d="M10.036 23.375C0 23.375.004 13.625.012 13.458c.264-5.308 4.65-9.53 10.024-9.53 5.373 0 9.76 4.222 10.024 9.53.008.168.013 9.917-10.024 9.917z" fill="#E0E2E4"/>
    <path d="M10.037 22.989c-5.374 0-9.76-4.223-10.024-9.531-.009.168-.013.336-.013.506C0 19.507 4.494 24 10.037 24c5.542 0 10.036-4.493 10.036-10.036 0-.17-.004-.338-.013-.506-.263 5.308-4.65 9.53-10.023 9.53z" fill="#C0C6CB"/>
    <path d="M10.036 21.215c-7.89 0-7.901-7.76-7.89-7.927a7.907 7.907 0 0 1 15.78 0c.011.168 0 7.927-7.89 7.927z" fill="#AAB5BA"/>
    <path d="M10.037 20.859a7.907 7.907 0 0 1-7.89-7.401 7.907 7.907 0 1 0 15.78 0 7.907 7.907 0 0 1-7.89 7.4z" fill="#A3ADB5"/>
    <path d="M7.933 16.038v1.248h4.8v-1.38h-2.82l2.064-2.676c.24-.312.432-.624.564-.936.12-.3.192-.636.192-.996v-.204c0-.408-.108-.78-.3-1.116-.192-.336-.48-.6-.84-.804-.36-.192-.78-.3-1.26-.3-.504 0-.936.096-1.296.288a2.02 2.02 0 0 0-.852.792 2.28 2.28 0 0 0-.288 1.152v.288h1.524v-.192c0-.312.072-.552.228-.732.144-.168.36-.264.624-.264s.468.084.624.252c.156.168.24.396.24.684v.168c0 .372-.156.756-.456 1.164l-2.748 3.564z" fill="#fff"/>
</svg>
