<svg width="21" height="24" viewBox="0 0 21 24" fill="none" xmlns="http://www.w3.org/2000/svg">
    <path d="M8.31 10.244a2 2 0 0 1-1.145-.36L3.828 7.551a.785.785 0 0 1-.336-.644V2a2 2 0 0 1 2-2h9.091a2 2 0 0 1 2 2v4.908a.786.786 0 0 1-.335.644L12.91 9.884a2 2 0 0 1-1.146.36H8.31z" fill="#FF9797"/>
    <path d="m6.127 9.158 1.553 1.085h.018V0H6.127v9.158zM12.395 10.244l1.57-1.097V0h-1.57v10.244zM9.408 10.244h1.571V0H9.41v10.244z" fill="#FFE6E6"/>
    <path d="M10.036 23.375C0 23.375.004 13.625.012 13.458c.264-5.308 4.65-9.53 10.024-9.53 5.373 0 9.76 4.222 10.024 9.53.008.168.013 9.917-10.024 9.917z" fill="#FBB69E"/>
    <path d="M10.037 22.989c-5.374 0-9.76-4.223-10.024-9.531-.009.168-.013.336-.013.506C0 19.507 4.494 24 10.037 24c5.542 0 10.036-4.493 10.036-10.036 0-.17-.004-.338-.013-.506-.263 5.308-4.65 9.53-10.023 9.53z" fill="#E99C7D"/>
    <path d="M10.036 21.215c-7.89 0-7.901-7.76-7.89-7.927a7.907 7.907 0 0 1 15.78 0c.011.168 0 7.927-7.89 7.927z" fill="#E08067"/>
    <path d="M10.037 20.859a7.907 7.907 0 0 1-7.89-7.401 7.907 7.907 0 1 0 15.78 0 7.907 7.907 0 0 1-7.89 7.4z" fill="#D57659"/>
    <path d="M8.533 17.866c.432.372 1.032.552 1.812.552.468 0 .888-.096 1.272-.288.372-.192.66-.48.864-.84.216-.36.312-.78.312-1.272v-.228c0-.456-.084-.852-.276-1.188a1.738 1.738 0 0 0-.828-.72c.312-.168.552-.384.72-.672.168-.288.252-.612.252-.972v-.18c0-.66-.204-1.188-.624-1.584-.408-.396-.984-.6-1.716-.6-.744 0-1.32.204-1.74.588-.42.384-.636.924-.636 1.62v.204h1.44v-.204c0-.264.084-.48.228-.636.156-.156.372-.24.648-.24s.492.096.648.264c.156.168.228.408.228.708v.18c0 .312-.084.564-.252.732-.168.18-.396.264-.708.264H9.77v1.332h.42c.36 0 .624.096.804.288.192.192.276.468.276.828v.216c0 .336-.084.588-.252.78-.168.192-.408.288-.708.288-.312 0-.54-.072-.708-.216-.168-.144-.252-.372-.252-.66v-.18H7.885v.252c0 .684.216 1.212.648 1.584z" fill="#fff"/>
</svg>
