<svg xmlns="http://www.w3.org/2000/svg" width="25" height="25" viewBox="0 0 25 25">
    <g fill="none" fill-rule="evenodd">
        <path d="M-3-3h30v30H-3z"/>
        <path stroke="#DFBD51" stroke-width=".01" d="M.005.005h24.349v24.344H.005z"/>
        <g fill="#DFBD51">
            <path d="M12.101 10.765L8.73 6.836h1.513a.343.343 0 0 0 .343-.345V2.024h3.022v4.467c0 .19.16.345.35.345h1.517l-3.373 3.93zm4.426-4.413a.338.338 0 0 0-.309-.206h-1.921V1.687a.342.342 0 0 0-.34-.345h-3.715a.35.35 0 0 0-.338.345v4.459h-1.93a.35.35 0 0 0-.309.206.358.358 0 0 0 .055.36l4.118 4.812a.35.35 0 0 0 .263.115.35.35 0 0 0 .262-.115l4.116-4.812a.3.3 0 0 0 .048-.36z"/>
            <path d="M14.679 16.037L12.672 13.4l7.507-2.13 1.958 2.2-7.458 2.567zm5.27 3.602l-7.508 2.827v-8.245l1.84 2.435c.074.079.168.13.28.13.04 0 .07 0 .102-.014l5.286-1.822v4.689zm-8.197 2.827l-7.49-2.827v-4.69l5.267 1.823c.04.014.081.014.113.014a.373.373 0 0 0 .277-.13l1.833-2.435v8.245zm-9.696-8.995l1.976-2.2 7.489 2.13-2 2.636-7.465-2.566zm20.937-.07l-2.45-2.75c-.01-.008-.017-.008-.017-.008a.28.28 0 0 0-.125-.084c-.011-.008-.011-.008-.026-.015l-4.679-1.333-.503.574 3.832 1.095-6.924 1.969-6.927-1.969 3.824-1.095-.49-.574-4.69 1.333c0 .007-.008.007-.017.015a.244.244 0 0 0-.128.084c-.007 0-.014 0-.014.008l-2.46 2.75a.335.335 0 0 0-.07.308c.03.115.1.206.222.237l2.221.766v5.164c0 .139.087.275.222.322l8.187 3.094c.032.007.07.016.12.016.04 0 .078-.009.118-.016l8.19-3.094a.345.345 0 0 0 .222-.322v-5.148-.016l2.219-.766a.302.302 0 0 0 .214-.237c.042-.107 0-.23-.07-.309z"/>
        </g>
    </g>
</svg>
