<svg xmlns="http://www.w3.org/2000/svg" viewBox="0 0 171 171"><defs><style>.cls-1{fill:#f79797;stroke:#fff;stroke-width:5px;}.cls-1,.cls-2{stroke-miterlimit:10;}.cls-2{stroke:#000;}</style></defs><title>Asset 4</title><g id="Layer_2"><g id="Layer_1-2"><circle class="cls-1" cx="85.5" cy="85.5" r="83"/><path d="M98.69,87.09H91.94V66L85.19,80.24H80.66L73.81,65.87V87.09H67.06V51.55h6.75l9.12,19.63,9-19.63h6.75Z"/><path d="M115.94,89.41a8.36,8.36,0,0,1-3,4.28A8.84,8.84,0,0,1,107.86,95h-2.22V89.31h2a3.92,3.92,0,0,0,2.29-.54,3.85,3.85,0,0,0,1.21-2l.1-.36-9.07-26.07h6.75l5.25,16.84,5.36-16.84h6.54Z"/><path class="cls-2" d="M34.83,105a.47.47,0,0,0-.29.18.31.31,0,0,0,0,.32,2.68,2.68,0,0,0,.22.52q.14.27.36.59t.36.5l.43.52a3.81,3.81,0,0,1,.32.41,36.09,36.09,0,0,0,3.53,3.82,6.79,6.79,0,0,1,.54.5l.65.63.74.67.83.72q.34.29.85.65t.88.59a8.37,8.37,0,0,0,.88.47,4.18,4.18,0,0,0,1.73.43,1.91,1.91,0,0,0,.79-.13.42.42,0,0,1,.5.11.58.58,0,0,1,.13.5.5.5,0,0,1-.34.4,2.41,2.41,0,0,1-.94.18,5.17,5.17,0,0,1-1-.09,4.88,4.88,0,0,1-1-.32c-.36-.16-.68-.31-1-.47a10,10,0,0,1-1-.63l-.94-.68q-.38-.29-.9-.76l-.79-.7q-.27-.23-.7-.67a3,3,0,0,0-.36-.32,37.7,37.7,0,0,1-4.18-4.57,18.49,18.49,0,0,1-1.44-2.05s-.06-.07-.18-.07a.38.38,0,0,0-.22,0q-2.38,5.44-3.53,8.57a26.8,26.8,0,0,0-1,3q0,.14-.11.5a2.28,2.28,0,0,1-.14.5.53.53,0,0,0,0,.4,1.14,1.14,0,0,0-.25-.07.52.52,0,0,1,.5.61q0,.5-.5.43a.81.81,0,0,1-.7-.65,3.33,3.33,0,0,1,0-1.53q.2-1,.5-2t.79-2.25q.49-1.21.86-2.09t.77-1.71a6.85,6.85,0,0,0,.4-.9q.22-.47,1.21-2.7l2.66-6q1.67-3.76,2.75-6.14l2.7-6.12a1.24,1.24,0,0,1,.07-.18q.14-.36.59-.22t.38.5a.6.6,0,0,1,0,.18q-5.47,12.28-6.73,15.08a.31.31,0,0,0,0,.32.34.34,0,0,0,.29.14q11.66-.86,18-6.34a13.37,13.37,0,0,0,1.87-2,15,15,0,0,0,1.55-2.48,7.69,7.69,0,0,0,.81-2.74,6.53,6.53,0,0,0-.34-2.74Q55,82.93,45.92,82.43a37.52,37.52,0,0,0-12.13,1.26q-5.72,1.58-8.35,3.71a.5.5,0,0,1,.05.47.49.49,0,0,1-.34.32,11.56,11.56,0,0,0-1.19.65.44.44,0,0,1-.67-.11.53.53,0,0,1,0-.72,11.16,11.16,0,0,1,3.47-2.77,31.92,31.92,0,0,1,5-2,36.88,36.88,0,0,1,11.66-1.91,26.63,26.63,0,0,1,2.92.09q1.48.13,3.24.43a14.64,14.64,0,0,1,3.24.94,15.15,15.15,0,0,1,2.74,1.51,5.93,5.93,0,0,1,1.94,2.27,6.34,6.34,0,0,1,.61,3.11,11.22,11.22,0,0,1-.94,4.19,12.11,12.11,0,0,1-2.25,3.44,17.28,17.28,0,0,1-3.29,2.7,25.26,25.26,0,0,1-3.94,2.07,34.17,34.17,0,0,1-4.34,1.46q-2.3.61-4.39,1T34.83,105Z"/><path class="cls-2" d="M67.45,103.78a.51.51,0,0,1,.54-.11.54.54,0,0,1,.36.36.53.53,0,0,1-.14.5q-7.56,6.55-12.64,5.4a3.48,3.48,0,0,1-2.43-1.67,3.7,3.7,0,0,1-.31-2.81,6.11,6.11,0,0,1,1.58-2.75,7.16,7.16,0,0,1,2.2-1.57A3.37,3.37,0,0,1,59,100.9,1.54,1.54,0,0,1,60.1,102a2.28,2.28,0,0,1,0,1.55,3.18,3.18,0,0,1-2.41,2,4.6,4.6,0,0,1-3.42-.07c-.17-.07-.3,0-.4.32a3.64,3.64,0,0,0-.07.72,2.22,2.22,0,0,0,.7,1.84,3,3,0,0,0,1.85.72,9.57,9.57,0,0,0,2.2-.11,8.82,8.82,0,0,0,1.94-.54A25.9,25.9,0,0,0,67.45,103.78ZM54.7,104a.53.53,0,0,0-.05.31.21.21,0,0,0,.16.2,4.32,4.32,0,0,0,1.82.13,3.7,3.7,0,0,0,1.78-.72,1.59,1.59,0,0,0,.76-1.35q-.11-1.4-2.05-.47A5.89,5.89,0,0,0,54.7,104Z"/><path class="cls-2" d="M86.92,99.6a.49.49,0,0,1,.68.14.46.46,0,0,1,0,.68l-3.28,3.29q-2.7,2.72-4.21,4.09-1.3,1.19-1.55,1.39l-.81.59a3.74,3.74,0,0,1-1,.54,2.37,2.37,0,0,1-.9.11,1.74,1.74,0,0,1-1.15-.54,2.12,2.12,0,0,1-.52-1.22,7.86,7.86,0,0,1,0-1.6,11,11,0,0,1,.32-1.82c.07-.34,0-.49-.11-.47a1.58,1.58,0,0,0-.5.4q-.47.51-1.22,1.26A6.2,6.2,0,0,1,72,107l-.7.68q-.22.22-.68.61a6.66,6.66,0,0,1-.79.59q-.32.2-.76.41a3.15,3.15,0,0,1-.83.29q-2,.32-1.91-1.8a14.62,14.62,0,0,1,2.12-5.8,1.91,1.91,0,0,0,.22-.32.51.51,0,0,1,.61-.23c.29.06.41.22.36.49a5.23,5.23,0,0,1-.47,1.51.49.49,0,0,1-.47.29,12.84,12.84,0,0,0-1.15,3c0,.22-.09.41-.13.59a3.46,3.46,0,0,0-.05.67.68.68,0,0,0,.2.56.59.59,0,0,0,.59,0,7.19,7.19,0,0,0,1.73-1.08q.76-.65,1.64-1.49t1.35-1.37l1.57-1.73,1.35-1.49a.45.45,0,0,1,.67-.05.51.51,0,0,1,.2.63.28.28,0,0,0,0,.11,11.26,11.26,0,0,0-1.4,5.58q0,1.4.67,1.57t1.64-.7a41.8,41.8,0,0,0,4.9-4.36.46.46,0,0,1,0-.36,6.57,6.57,0,0,1,1.71-2.2A22.58,22.58,0,0,1,86.92,99.6Z"/><path class="cls-2" d="M103.27,103.52a.44.44,0,0,1,.5-.11.54.54,0,0,1,.36.36.53.53,0,0,1-.14.5,24.44,24.44,0,0,1-5.22,4.14,8.19,8.19,0,0,1-4,1.33,2.77,2.77,0,0,1-2.5-1.35,3.82,3.82,0,0,1-.49-3c0-.1,0-.16,0-.2s-.08,0-.13.05l-.25.36a13.51,13.51,0,0,1-4.1,3.74,1.78,1.78,0,0,1-1.82.07,1.42,1.42,0,0,1-.59-1.66,6.05,6.05,0,0,1,1-2.27A10.06,10.06,0,0,1,88,103.33,7.84,7.84,0,0,1,90.49,102a2.94,2.94,0,0,1,2.45.23c.07,0,.14,0,.22-.11a10.44,10.44,0,0,1,1.08-1.4.54.54,0,0,1,.54-.13.5.5,0,0,1,.36.36.55.55,0,0,1-.14.52,9.55,9.55,0,0,0-1.82,2.75,4.18,4.18,0,0,0-.45,2.93q.76,2.52,3.64,1.33A21.52,21.52,0,0,0,103.27,103.52Zm-11.52-.22a.32.32,0,0,0,0-.32.26.26,0,0,0-.25-.14,5.17,5.17,0,0,0-3.29,1.67A7.55,7.55,0,0,0,86,107.45a1.52,1.52,0,0,0-.16.85q0,.56.56.34a6.25,6.25,0,0,0,2-1.51A31.14,31.14,0,0,0,91.75,103.31Z"/><path class="cls-2" d="M117.6,104a.42.42,0,0,1,.5-.14.54.54,0,0,1,.36.36.57.57,0,0,1-.11.5,35,35,0,0,1-4.46,3.83,9.09,9.09,0,0,1-4.39,1.75,3.34,3.34,0,0,1-2-.29,2.16,2.16,0,0,1-1.06-1.24,5.49,5.49,0,0,1-.27-1.75,8,8,0,0,1,.25-1.94.44.44,0,0,0-.07-.41.46.46,0,0,0-.4-.2,1.32,1.32,0,0,1-.32,0,19.21,19.21,0,0,1-3.85-.4.47.47,0,0,1-.36-.22.64.64,0,0,1-.07-.43.48.48,0,0,1,.61-.4,19.39,19.39,0,0,0,3.67.36,14,14,0,0,0,3-.29.46.46,0,0,1,.61.4.47.47,0,0,1-.05.41.49.49,0,0,1-.34.23l-.76.14a.46.46,0,0,0-.4.32,11.28,11.28,0,0,0-.4,1.4,6.23,6.23,0,0,0-.13,1.44,1.82,1.82,0,0,0,.47,1.24,2,2,0,0,0,1.35.56,6.69,6.69,0,0,0,3.46-1.19A27.08,27.08,0,0,0,117.6,104Z"/><path class="cls-2" d="M134.8,103.67a.47.47,0,0,1,.52-.11.5.5,0,0,1,.36.36.57.57,0,0,1-.16.5l-1.62,1.42q-.51.45-1.67,1.31a14.45,14.45,0,0,1-2,1.28,14,14,0,0,1-1.94.77,6.31,6.31,0,0,1-2.16.32,2.72,2.72,0,0,1-2.38-1.46,4.49,4.49,0,0,1-.54-3q.07-.32.14-.68c0-.07,0-.12,0-.14a.07.07,0,0,0-.11,0,16.88,16.88,0,0,1-5.15,5,1.9,1.9,0,0,1-1.94.07,1.53,1.53,0,0,1-.61-1.8,6.22,6.22,0,0,1,1.08-2.36,11.3,11.3,0,0,1,2.14-2.34,9.16,9.16,0,0,1,2.65-1.55,3.38,3.38,0,0,1,2.63,0s.07,0,.14,0a.3.3,0,0,0,.14-.13,60.35,60.35,0,0,1,2.52-5.72q.83-1.73,1.87-3.71a.55.55,0,0,1-.49-.16.43.43,0,0,1-.09-.49,6.78,6.78,0,0,1,.83-1.51,21.66,21.66,0,0,1,1.48-1.8l1.15-1.3a.42.42,0,0,1,.67-.05.51.51,0,0,1,.16.7,94,94,0,0,0-7.2,14.8,1.12,1.12,0,0,0-.07.22c-.17.43-.29.79-.38,1.06s-.2.68-.34,1.22a5.47,5.47,0,0,0-.22,1.37,6.71,6.71,0,0,0,.11,1.17,1.6,1.6,0,0,0,.52,1,2.14,2.14,0,0,0,1.1.47,4.78,4.78,0,0,0,2.2-.16,9,9,0,0,0,2.41-1.19q1.26-.85,2-1.44l1.91-1.6A4.09,4.09,0,0,1,134.8,103.67Zm-11.74-1a.3.3,0,0,0,.05-.31.28.28,0,0,0-.31-.2,5.41,5.41,0,0,0-3.62,1.76,8.4,8.4,0,0,0-2.5,3.28,1.6,1.6,0,0,0-.16,1q.05.61.67.4a8.25,8.25,0,0,0,2.2-1.66A36,36,0,0,0,123.07,102.62Z"/><path class="cls-2" d="M148.63,103.67a.42.42,0,0,1,.45.11.53.53,0,0,1,.13.45.45.45,0,0,1-.32.38,57.76,57.76,0,0,0-8,3.2c-.24.12-.3.29-.18.5a2.56,2.56,0,0,1,.18,1.44,8,8,0,0,1-3.11,4.66,13.16,13.16,0,0,1-5.31,2.83,3,3,0,0,1-1.46-.07,1.15,1.15,0,0,1-.85-.94q-.32-1.48,2.74-4.25a30,30,0,0,1,5.47-3.89.26.26,0,0,0,.11-.23.25.25,0,0,0-.14-.23l-.54-.22-.61-.29a7.28,7.28,0,0,1-.74-.38l-.58-.36a2.28,2.28,0,0,1-.59-.5,2.67,2.67,0,0,1-.36-.59,2,2,0,0,1,.09-1.67,2.93,2.93,0,0,1,1.24-1.26,5.09,5.09,0,0,1,1.76-.58,2.06,2.06,0,0,1,1.62.41.46.46,0,1,1-.47.79,1.84,1.84,0,0,0-1.85-.16,1.94,1.94,0,0,0-1.3,1.24,1.69,1.69,0,0,0,.67,1.69,7.33,7.33,0,0,0,1.37.74l1.15.52.18.11a.71.71,0,0,0,.72,0A58.3,58.3,0,0,1,148.63,103.67ZM140,109a1.26,1.26,0,0,0-.11-.32.33.33,0,0,0-.5-.11,29.87,29.87,0,0,0-5.8,4.07Q131,115,131.1,115.91q0,.29.43.36a1.88,1.88,0,0,0,.77,0A5.31,5.31,0,0,0,133,116a13.13,13.13,0,0,0,5.4-3.82Q140.2,110.18,140,109Z"/></g></g></svg>