<svg xmlns="http://www.w3.org/2000/svg" xmlns:xlink="http://www.w3.org/1999/xlink" width="56" height="56" viewBox="0 0 56 56">
    <defs>
        <filter id="prefix__a" width="143.2%" height="143.2%" x="-21.6%" y="-19.3%" filterUnits="objectBoundingBox">
            <feOffset dy="1" in="SourceAlpha" result="shadowOffsetOuter1"/>
            <feGaussianBlur in="shadowOffsetOuter1" result="shadowBlurOuter1" stdDeviation="3"/>
            <feColorMatrix in="shadowBlurOuter1" values="0 0 0 0 0 0 0 0 0 0 0 0 0 0 0 0 0 0 0.0873579545 0"/>
        </filter>
        <path id="prefix__b" d="M8.534 1.664C12.918.554 17.394 0 21.962 0c4.556 0 9.112.552 13.668 1.655 3.529.855 6.252 3.662 6.999 7.215C43.543 13.217 44 17.618 44 22.07c0 4.403-.447 8.805-1.34 13.208-.753 3.708-3.65 6.605-7.358 7.357-4.489.91-8.911 1.364-13.27 1.364-4.386 0-8.773-.461-13.16-1.383-3.552-.746-6.36-3.467-7.215-6.994C.552 31.072 0 26.565 0 22.103c0-4.536.57-9.071 1.712-13.607.845-3.358 3.465-5.982 6.822-6.832z"/>
    </defs>
    <g fill="none" fill-rule="evenodd" transform="translate(6 5)">
        <use fill="#000" filter="url(#prefix__a)" xlink:href="#prefix__b"/>
        <use fill="#FFF" xlink:href="#prefix__b"/>
        <g fill-rule="nonzero">
            <path fill="#F8D16B" d="M11.628 20.728c-5.056 0-9.14-4.55-9.14-10.228S6.573.272 11.629.272c5.055 0 9.139 4.55 9.139 10.228s-4.123 10.228-9.14 10.228" transform="translate(12 12)"/>
            <path fill="#F2C24D" d="M2.489 10.5c0-5.211 3.5-9.528 8.011-10.15-.389-.039-.739-.078-1.128-.078C4.356.272.233 4.822.233 10.5s4.084 10.228 9.14 10.228c.388 0 .738-.04 1.127-.078-4.511-.622-8.011-4.939-8.011-10.15" transform="translate(12 12)"/>
            <path fill="#FADD90" d="M11.628 19.289c-4.24 0-7.661-3.967-7.661-8.789 0-4.822 3.422-8.789 7.66-8.789 4.24 0 7.623 3.967 7.623 8.789 0 4.822-3.422 8.789-7.622 8.789" transform="translate(12 12)"/>
            <path fill="#D0A33B" d="M2.489 10.85H.233c0 .272.04.467.04.739h2.255c0-.233-.04-.467-.04-.739M2.567 9.022H.31c-.039.272-.039.467-.078.74H2.49c.039-.234.039-.468.078-.74M2.683 12.678H.428c.039.272.116.466.194.739h2.256c-.078-.234-.117-.467-.195-.74M3.189 14.506H.972c.117.272.195.466.311.738H3.5c-.078-.233-.194-.466-.311-.738M2.956 7.194H.739c-.078.273-.156.467-.195.74H2.8c.039-.234.078-.467.156-.74M3.733 5.367H1.478c-.117.272-.234.466-.35.739h2.255c.078-.234.195-.467.35-.74M5.211 3.189H2.956c-.234.233-.428.467-.584.739h2.256c.155-.272.389-.506.583-.74M7.506 1.361H5.25c-.389.233-.739.467-1.089.739h2.256c.35-.272.7-.506 1.089-.739M4.356 16.722H2.1c.194.272.389.506.544.74H4.9c-.194-.234-.35-.506-.544-.74M3.733 18.55c.311.272.584.506.934.739h2.255c-.35-.233-.622-.467-.933-.739H3.733z" transform="translate(12 12)"/>
            <path fill="#EABC4C" d="M11.628 19.639c-4.434 0-8.011-4.083-8.011-9.139 0-5.056 3.577-9.139 8.01-9.139 4.434 0 8.012 4.083 8.012 9.139 0 5.056-3.578 9.139-8.011 9.139m0-17.539c-4.045 0-7.272 3.772-7.272 8.4s3.227 8.4 7.272 8.4c4.044 0 7.272-3.772 7.272-8.4s-3.267-8.4-7.272-8.4" transform="translate(12 12)"/>
            <path fill="#FFF" d="M12.704 8.167V5.833l3.63 4.084L12.703 14v-2.392c-2.593 0-4.408.934-5.704 2.975.519-2.916 2.074-5.833 5.704-6.416z" transform="translate(12 12)"/>
        </g>
    </g>
</svg>
