<svg width="70" height="20" viewBox="0 0 92 20" fill="none" xmlns="http://www.w3.org/2000/svg">
<path fill-rule="evenodd" clip-rule="evenodd" d="M-1.74846e-07 18C-7.8281e-08 19.1046 0.895431 20 2 20L81.9224 20C82.4817 20 83.0155 19.7658 83.3942 19.3541L90.7542 11.3541C91.4584 10.5887 91.4584 9.4113 90.7542 8.64588L83.3942 0.645886C83.0155 0.234241 82.4817 6.09869e-08 81.9224 1.09887e-07L2 7.09692e-06C0.89543 7.19349e-06 -1.67017e-06 0.895438 -1.57361e-06 2.00001L-1.74846e-07 18Z" fill="#FF6767"/>
<path d="M23.6986 6.41V14H22.8956L18.9686 7.884V14H18.1656V6.41H18.9686L22.8956 12.504V6.41H23.6986ZM25.9766 11.36V11.69C25.9766 12.3207 26.1049 12.7643 26.3616 13.021C26.6183 13.2703 26.9739 13.395 27.4286 13.395C27.8246 13.395 28.1326 13.2997 28.3526 13.109C28.5799 12.9183 28.6936 12.6543 28.6936 12.317V12.284H29.4196V12.339C29.4196 12.8597 29.2363 13.2777 28.8696 13.593C28.5103 13.9083 28.0116 14.066 27.3736 14.066C26.7209 14.066 26.2003 13.8717 25.8116 13.483C25.4229 13.0943 25.2286 12.4893 25.2286 11.668V10.7C25.2286 9.90067 25.4229 9.31033 25.8116 8.929C26.2003 8.54033 26.7136 8.346 27.3516 8.346C27.9896 8.346 28.4993 8.54033 28.8806 8.929C29.2693 9.31033 29.4636 9.90067 29.4636 10.7V11.36H25.9766ZM27.3516 9.028C26.9336 9.028 26.5999 9.15267 26.3506 9.402C26.1013 9.644 25.9766 10.0693 25.9766 10.678V10.799H28.7156V10.601C28.7156 10.0217 28.5946 9.61467 28.3526 9.38C28.1106 9.14533 27.7769 9.028 27.3516 9.028ZM30.2658 8.423H31.0798L32.3338 12.889L33.7198 8.423H34.3468L35.7328 12.889L36.9978 8.423H37.8118L36.1178 14H35.4358L34.0278 9.501L32.6308 14H31.9598L30.2658 8.423ZM41.2291 6.41H42.0321V13.274H45.8161V14H41.2291V6.41ZM48.6175 8.346C49.2702 8.346 49.7688 8.50367 50.1135 8.819C50.4655 9.13433 50.6415 9.59633 50.6415 10.205V14H49.9045V13.406C49.7358 13.6333 49.5268 13.802 49.2775 13.912C49.0282 14.0147 48.7238 14.066 48.3645 14.066C47.7778 14.066 47.3232 13.9267 47.0005 13.648C46.6778 13.3693 46.5165 12.9623 46.5165 12.427C46.5165 11.9283 46.6778 11.5397 47.0005 11.261C47.3305 10.975 47.7925 10.832 48.3865 10.832H49.8935V10.194C49.8935 9.79067 49.7835 9.48633 49.5635 9.281C49.3435 9.07567 49.0318 8.973 48.6285 8.973C48.2472 8.973 47.9465 9.061 47.7265 9.237C47.5138 9.40567 47.4075 9.64033 47.4075 9.941V9.974H46.6815V9.919C46.6815 9.44233 46.8538 9.061 47.1985 8.775C47.5432 8.489 48.0162 8.346 48.6175 8.346ZM48.4855 13.461C48.9768 13.461 49.3325 13.351 49.5525 13.131C49.7798 12.9037 49.8935 12.5627 49.8935 12.108V11.382H48.4965C47.6752 11.382 47.2645 11.7267 47.2645 12.416C47.2645 13.1127 47.6715 13.461 48.4855 13.461ZM54.3273 14.066C53.6526 14.066 53.143 13.8863 52.7983 13.527C52.461 13.1603 52.2923 12.636 52.2923 11.954V8.423H53.0403V11.855C53.0403 12.3683 53.1393 12.7533 53.3373 13.01C53.5353 13.2667 53.869 13.395 54.3383 13.395C54.8076 13.395 55.1413 13.2703 55.3393 13.021C55.5373 12.7717 55.6363 12.383 55.6363 11.855V8.423H56.3843V11.954C56.3843 12.636 56.212 13.1603 55.8673 13.527C55.53 13.8863 55.0166 14.066 54.3273 14.066ZM58.0394 8.423H58.7764V9.105C58.9377 8.85567 59.1467 8.66867 59.4034 8.544C59.6674 8.41933 59.9607 8.357 60.2834 8.357C60.8774 8.357 61.332 8.533 61.6474 8.885C61.97 9.22967 62.1314 9.71367 62.1314 10.337V14H61.3834V10.447C61.3834 9.985 61.2697 9.633 61.0424 9.391C60.815 9.149 60.4997 9.028 60.0964 9.028C59.7004 9.028 59.3814 9.15267 59.1394 9.402C58.9047 9.644 58.7874 9.99233 58.7874 10.447V14H58.0394V8.423ZM65.7884 14.066C65.1211 14.066 64.5894 13.8863 64.1934 13.527C63.8048 13.1603 63.6104 12.5773 63.6104 11.778V10.634C63.6104 9.842 63.8048 9.26267 64.1934 8.896C64.5894 8.52933 65.1174 8.346 65.7774 8.346C66.4154 8.346 66.9178 8.51467 67.2844 8.852C67.6584 9.18933 67.8454 9.64033 67.8454 10.205V10.26H67.1194V10.205C67.1194 9.831 67.0021 9.54133 66.7674 9.336C66.5328 9.13067 66.2138 9.028 65.8104 9.028C65.3558 9.028 65.0001 9.15267 64.7434 9.402C64.4868 9.644 64.3584 10.0693 64.3584 10.678V11.734C64.3584 12.35 64.4831 12.7827 64.7324 13.032C64.9891 13.274 65.3448 13.395 65.7994 13.395C66.2101 13.395 66.5328 13.2923 66.7674 13.087C67.0021 12.8817 67.1194 12.592 67.1194 12.218V12.163H67.8454V12.207C67.8454 12.7717 67.6584 13.2227 67.2844 13.56C66.9104 13.8973 66.4118 14.066 65.7884 14.066ZM69.3187 6.41H70.0667V9.105C70.404 8.60633 70.9027 8.357 71.5627 8.357C72.142 8.357 72.593 8.52933 72.9157 8.874C73.2457 9.21867 73.4107 9.70633 73.4107 10.337V14H72.6627V10.447C72.6627 9.985 72.549 9.633 72.3217 9.391C72.0943 9.149 71.779 9.028 71.3757 9.028C70.9797 9.028 70.6607 9.15267 70.4187 9.402C70.184 9.644 70.0667 9.99233 70.0667 10.447V14H69.3187V6.41Z" fill="white"/>
<circle r="2.35714" transform="matrix(-1 0 0 1 81.3572 10.3571)" fill="white"/>
<path d="M12.5365 6C12.4521 6 12.3693 6.05337 12.2906 6.15846C12.282 6.1698 11.4086 7.30164 9.22598 7.97458C9.06632 8.0238 8.87825 8.08692 8.66581 8.11282C8.54832 8.12715 8.52058 8.1025 8.51125 8.08551C8.44587 7.96672 8.31977 7.88594 8.17485 7.88594H6.01911C5.80721 7.88594 5.63482 8.05833 5.63482 8.27023V8.41321C5.63482 8.49968 5.57387 8.50347 5.55261 8.50513C5.52158 8.50754 5.50406 8.50885 5.50206 8.509C5.22522 8.52916 5 8.77139 5 9.04895V10.4898C5 10.7674 5.22522 11.0096 5.50209 11.0297C5.50452 11.0299 5.52968 11.0317 5.57395 11.0352C5.59137 11.0366 5.63485 11.052 5.63485 11.1289V11.2685C5.63485 11.4804 5.80724 11.6528 6.01914 11.6528C6.01914 11.6528 6.14431 11.6528 6.18605 11.6528C6.2597 11.6528 6.27407 11.7274 6.27407 11.7274L6.87057 14.4447C6.92913 14.7116 7.18909 14.9207 7.46237 14.9207H8.15084C8.29057 14.9207 8.41708 14.8631 8.49785 14.7627C8.57866 14.6622 8.60781 14.5263 8.57786 14.3898L7.99508 11.7349C7.99508 11.7349 7.97299 11.6528 8.05625 11.6528C8.0859 11.6528 8.17487 11.6528 8.17487 11.6528C8.31898 11.6528 8.43381 11.5663 8.51018 11.4552C8.54302 11.4074 8.61099 11.4146 8.64788 11.422C8.86457 11.466 9.06174 11.5134 9.22593 11.5642C11.4086 12.2385 12.2819 13.3691 12.2903 13.3803C12.3692 13.4854 12.452 13.5388 12.5364 13.5388C12.5364 13.5388 12.5364 13.5388 12.5364 13.5388C12.6129 13.5388 12.6779 13.4956 12.7148 13.4203C12.7391 13.3706 12.7515 13.3054 12.7515 13.2266V6.3122C12.7515 6.01506 12.5724 6 12.5365 6Z" fill="white"/>
<path d="M14.3887 7.83931C14.3084 7.72282 14.1488 7.69351 14.0324 7.7738C13.9159 7.85412 13.8866 8.01365 13.9668 8.13014C14.3075 8.62418 14.4875 9.22006 14.4875 9.85339C14.4875 10.4844 14.2992 11.1013 13.9573 11.5907C13.8763 11.7066 13.9046 11.8664 14.0206 11.9474C14.0653 11.9786 14.1165 11.9936 14.1671 11.9936C14.248 11.9936 14.3276 11.9555 14.3774 11.8842C14.7846 11.3013 14.9999 10.599 14.9999 9.85342C14.9999 9.11574 14.7886 8.41928 14.3887 7.83931Z" fill="white"/>
<path d="M13.547 8.56345C13.4666 8.44693 13.3071 8.41762 13.1906 8.49794C13.0741 8.57825 13.0448 8.73779 13.1251 8.85428C13.3229 9.14119 13.4274 9.48779 13.4274 9.85661C13.4274 10.2241 13.3181 10.583 13.1196 10.8671C13.0385 10.9831 13.0668 11.1428 13.1829 11.2238C13.2275 11.2551 13.2787 11.27 13.3294 11.27C13.4102 11.27 13.4898 11.2319 13.5396 11.1606C13.8014 10.7859 13.9398 10.3349 13.9398 9.85663C13.9398 9.38342 13.804 8.93626 13.547 8.56345Z" fill="white"/>
</svg>
