<svg width="120" height="120" viewBox="0 0 120 120" fill="none" xmlns="http://www.w3.org/2000/svg">
    <g opacity=".6">
        <mask id="s72dvto4la" fill="#fff">
            <path d="M118.781 47.903a59.898 59.898 0 0 0-3.497-11.262 60.033 60.033 0 0 0-5.531-10.191 60.445 60.445 0 0 0-7.326-8.881 60.415 60.415 0 0 0-8.88-7.327A59.79 59.79 0 0 0 83.355 4.71 59.568 59.568 0 0 0 72.09 1.213a60.877 60.877 0 0 0-24.182 0A59.55 59.55 0 0 0 36.645 4.71a59.932 59.932 0 0 0-10.191 5.532 60.403 60.403 0 0 0-8.88 7.326A60.095 60.095 0 0 0 4.715 36.64a59.93 59.93 0 0 0-3.497 11.263A60.49 60.49 0 0 0 0 59.997c0 4.072.41 8.138 1.219 12.092a59.877 59.877 0 0 0 3.497 11.263 60.197 60.197 0 0 0 5.53 10.193 60.57 60.57 0 0 0 7.327 8.879 60.24 60.24 0 0 0 19.072 12.86 59.712 59.712 0 0 0 11.264 3.495 60.505 60.505 0 0 0 23.995.04 59.868 59.868 0 0 0 11.112-3.394 2.35 2.35 0 0 0 1.265-3.064 2.342 2.342 0 0 0-3.065-1.265c-6.727 2.796-13.864 4.214-21.216 4.216-14.77-.002-28.662-5.756-39.112-16.203a56.018 56.018 0 0 1-5.79-6.799 8.17 8.17 0 0 0 2.48.384h5.43c.62 0 1.217-.25 1.657-.69l67.658-67.645a2.344 2.344 0 0 0-.167-3.467A50.71 50.71 0 0 0 60 9.37c-14.976 0-28.994 6.522-38.645 17.93h-3.777c-.865 0-1.7.136-2.483.386a56.068 56.068 0 0 1 5.792-6.803C31.338 10.436 45.227 4.682 60 4.682s28.662 5.754 39.112 16.2a56.063 56.063 0 0 1 5.793 6.803 8.17 8.17 0 0 0-2.483-.384l-5.361.002c-.66 0-1.304.216-1.772.684L27.677 95.636a2.343 2.343 0 0 0 .168 3.467c9.026 7.43 20.445 11.522 32.155 11.522 14.976 0 28.994-6.522 38.645-17.93h3.777c.869 0 1.707-.137 2.494-.39a56.243 56.243 0 0 1-6.837 7.812 2.328 2.328 0 0 0-.73 1.639 2.328 2.328 0 0 0 .643 1.673 2.324 2.324 0 0 0 1.701.731c.603 0 1.177-.229 1.613-.644a60.063 60.063 0 0 0 13.664-19.435 59.969 59.969 0 0 0 3.729-11.595 60.548 60.548 0 0 0 .082-24.583zM60 14.058c9.76 0 19.296 3.131 27.13 8.865L82.752 27.3H27.73C36.292 18.83 47.797 14.057 60 14.057zm18.065 17.93L48.65 61.404h-5.29a2.344 2.344 0 0 0 0 4.687h.602L22.047 88.007h-4.469a3.52 3.52 0 0 1-3.515-3.516V35.504a3.52 3.52 0 0 1 3.515-3.516h60.487zM9.375 82.35C6.304 75.4 4.689 67.822 4.687 59.997c.002-7.826 1.617-15.403 4.688-22.353V82.35zM60 105.937a46.03 46.03 0 0 1-27.13-8.865l4.377-4.378H92.27c-8.562 8.471-20.067 13.243-32.27 13.243zm42.422-17.93H41.935l22.112-22.113c.288.126.606.197.94.197h11.719a2.344 2.344 0 0 0 0-4.687h-8.17l29.415-29.416h4.471a3.52 3.52 0 0 1 3.516 3.516v48.987a3.52 3.52 0 0 1-3.516 3.516zm8.203-5.631V37.642c3.072 6.95 4.687 14.529 4.687 22.355 0 7.86-1.616 15.436-4.687 22.379z"/>
        </mask>
        <path d="M118.781 47.903a59.898 59.898 0 0 0-3.497-11.262 60.033 60.033 0 0 0-5.531-10.191 60.445 60.445 0 0 0-7.326-8.881 60.415 60.415 0 0 0-8.88-7.327A59.79 59.79 0 0 0 83.355 4.71 59.568 59.568 0 0 0 72.09 1.213a60.877 60.877 0 0 0-24.182 0A59.55 59.55 0 0 0 36.645 4.71a59.932 59.932 0 0 0-10.191 5.532 60.403 60.403 0 0 0-8.88 7.326A60.095 60.095 0 0 0 4.715 36.64a59.93 59.93 0 0 0-3.497 11.263A60.49 60.49 0 0 0 0 59.997c0 4.072.41 8.138 1.219 12.092a59.877 59.877 0 0 0 3.497 11.263 60.197 60.197 0 0 0 5.53 10.193 60.57 60.57 0 0 0 7.327 8.879 60.24 60.24 0 0 0 19.072 12.86 59.712 59.712 0 0 0 11.264 3.495 60.505 60.505 0 0 0 23.995.04 59.868 59.868 0 0 0 11.112-3.394 2.35 2.35 0 0 0 1.265-3.064 2.342 2.342 0 0 0-3.065-1.265c-6.727 2.796-13.864 4.214-21.216 4.216-14.77-.002-28.662-5.756-39.112-16.203a56.018 56.018 0 0 1-5.79-6.799 8.17 8.17 0 0 0 2.48.384h5.43c.62 0 1.217-.25 1.657-.69l67.658-67.645a2.344 2.344 0 0 0-.167-3.467A50.71 50.71 0 0 0 60 9.37c-14.976 0-28.994 6.522-38.645 17.93h-3.777c-.865 0-1.7.136-2.483.386a56.068 56.068 0 0 1 5.792-6.803C31.338 10.436 45.227 4.682 60 4.682s28.662 5.754 39.112 16.2a56.063 56.063 0 0 1 5.793 6.803 8.17 8.17 0 0 0-2.483-.384l-5.361.002c-.66 0-1.304.216-1.772.684L27.677 95.636a2.343 2.343 0 0 0 .168 3.467c9.026 7.43 20.445 11.522 32.155 11.522 14.976 0 28.994-6.522 38.645-17.93h3.777c.869 0 1.707-.137 2.494-.39a56.243 56.243 0 0 1-6.837 7.812 2.328 2.328 0 0 0-.73 1.639 2.328 2.328 0 0 0 .643 1.673 2.324 2.324 0 0 0 1.701.731c.603 0 1.177-.229 1.613-.644a60.063 60.063 0 0 0 13.664-19.435 59.969 59.969 0 0 0 3.729-11.595 60.548 60.548 0 0 0 .082-24.583zM60 14.058c9.76 0 19.296 3.131 27.13 8.865L82.752 27.3H27.73C36.292 18.83 47.797 14.057 60 14.057zm18.065 17.93L48.65 61.404h-5.29a2.344 2.344 0 0 0 0 4.687h.602L22.047 88.007h-4.469a3.52 3.52 0 0 1-3.515-3.516V35.504a3.52 3.52 0 0 1 3.515-3.516h60.487zM9.375 82.35C6.304 75.4 4.689 67.822 4.687 59.997c.002-7.826 1.617-15.403 4.688-22.353V82.35zM60 105.937a46.03 46.03 0 0 1-27.13-8.865l4.377-4.378H92.27c-8.562 8.471-20.067 13.243-32.27 13.243zm42.422-17.93H41.935l22.112-22.113c.288.126.606.197.94.197h11.719a2.344 2.344 0 0 0 0-4.687h-8.17l29.415-29.416h4.471a3.52 3.52 0 0 1 3.516 3.516v48.987a3.52 3.52 0 0 1-3.516 3.516zm8.203-5.631V37.642c3.072 6.95 4.687 14.529 4.687 22.355 0 7.86-1.616 15.436-4.687 22.379z" fill="#000" stroke="#fff" stroke-width="2" mask="url(#s72dvto4la)"/>
        <path d="M93.274 108.345a1.844 1.844 0 1 1-3.689 0 1.844 1.844 0 0 1 3.689 0zM23.438 47.547h-.5v5.688h10.375v-5.688h-9.876zm11.718 9.375H21.094a1.844 1.844 0 0 1-1.844-1.843v-9.375c0-1.019.826-1.844 1.844-1.844h14.062c1.019 0 1.844.825 1.844 1.844v9.375a1.844 1.844 0 0 1-1.844 1.843zM100.75 75.47a1.844 1.844 0 1 1-3.688 0 1.844 1.844 0 0 1 3.688 0zM90.203 75.47a1.844 1.844 0 1 1-3.687 0 1.844 1.844 0 0 1 3.687 0zM79.656 75.47a1.844 1.844 0 1 1-3.687 0 1.844 1.844 0 0 1 3.687 0zM87.253 61.907h11.653a1.844 1.844 0 0 1 0 3.688H87.253a1.844 1.844 0 0 1 0-3.688zM32.813 65.595h-11.72a1.844 1.844 0 0 1 0-3.688h11.72a1.844 1.844 0 0 1 0 3.688z" fill="#000" stroke="#fff"/>
    </g>
</svg>
