<svg xmlns="http://www.w3.org/2000/svg" width="177" height="160" viewBox="0 0 177 160">
    <defs>
        <linearGradient id="4w35smei3a" x1="49.995%" x2="49.995%" y1="99.994%" y2="0%">
            <stop offset="0%" stop-color="gray" stop-opacity=".25"/>
            <stop offset="54%" stop-color="gray" stop-opacity=".12"/>
            <stop offset="100%" stop-color="gray" stop-opacity=".1"/>
        </linearGradient>
    </defs>
    <g fill="none" fill-rule="evenodd">
        <g fill-rule="nonzero">
            <g transform="translate(-84 -207) translate(84 207)">
                <path fill="#FF9797" d="M62.128 5.693C67.72.703 76.498-.32 84.488.077c25.096 1.252 47.748 13.396 67.344 27.134 7.095 4.972 14.078 10.332 18.682 17.182 9.38 13.942 6.593 33.255-6.44 44.74-4.435 3.908-9.81 6.91-15.33 9.56-9.813 4.72-20.401 8.51-31.54 9.595-7.94.768-15.98.144-23.877-.929-22.06-3.005-43.71-9.637-61.863-20.983C23.504 81.4 16 75.213 12.72 67.166 9.44 59.12 11.54 48.91 19.667 44.137c3.362-1.97 7.382-2.861 11.316-3.698 5.793-1.23 11.678-2.443 16.904-4.943 5.4-2.583 11.793-7.579 10.72-13.297-1.14-6.128-2.063-11.517 3.521-16.506z" opacity=".1"/>
                <ellipse cx="71.973" cy="156.254" fill="#FF9797" opacity=".1" rx="22.742" ry="3.746"/>
                <ellipse cx="116.923" cy="126.823" fill="#FF9797" opacity=".1" rx="22.742" ry="3.746"/>
                <path fill="#B77B7F" d="M118.261 76.637L118.238 77.382 116.849 123.077 114.515 123.077 115.66 77.382 115.682 76.522z"/>
                <path fill="#DDA2A6" d="M130.569 115.05L128.929 115.046 104.576 114.996 103.278 114.994 103.969 112.91 130.395 112.91z"/>
                <path fill="#000" d="M118.261 76.13L118.242 77.057 116.12 77.057 116.139 75.987z" opacity=".1"/>
                <path fill="#B77B7F" d="M115.05 74.916H118.79599999999999V76.521H115.05z"/>
                <path fill="#000" d="M104.883 112.91L104.654 115.05 103.278 115.048 104.011 112.91z" opacity=".1"/>
                <path fill="#DDA2A6" d="M108.629 75.452L108.561 76.109 103.102 128.963 100.602 128.847 106.354 76.109 106.418 75.509z"/>
                <path fill="#000" d="M130.569 115.05L128.683 115.046 128.428 112.91 130.369 112.91z" opacity=".1"/>
                <path fill="#DDA2A6" d="M133.244 128.847L130.742 128.963 125.285 76.109 125.217 75.452 127.426 75.509 127.49 76.109z"/>
                <path fill="#FFF" d="M89.365 23.01H143.947V74.916H89.365z"/>
                <path fill="#DDA2A6" d="M117.725 5.405v12.789h-2.139V5.404c-.016-.395.184-.768.521-.97.338-.204.759-.204 1.097 0 .337.202.537.575.52.97z"/>
                <path fill="#000" d="M115.585 17.124H117.725V18.194H115.585z" opacity=".1"/>
                <path fill="#DDA2A6" d="M118.26 17.656v4.284h-3.745v-4.284c0-.141.053-.277.15-.377.096-.1.226-.156.362-.155h2.725c.282.002.509.24.509.532z"/>
                <circle cx="116.923" cy="20.067" r="1" fill="#000" opacity=".1"/>
                <circle cx="116.923" cy="20.067" r="1" fill="#B77B7F"/>
                <path fill="#000" d="M114.515 21.405H118.261V22.405H114.515zM113.445 22.475H120.40199999999999V23.545H113.445z" opacity=".1"/>
                <path fill="#DDA2A6" d="M113.445 21.94H120.40199999999999V23.01H113.445z"/>
                <path fill="#000" d="M102.926 73.846h29.064c.693 0 1.254.59 1.254 1.318v.288h-31.572v-.288c0-.728.562-1.318 1.254-1.318z" opacity=".1"/>
                <path fill="#000" d="M106.549 74.963L108.629 74.916 108.565 75.452 106.488 75.452zM115.05 74.916H118.79599999999999V75.916H115.05zM127.893 75.452L125.817 75.452 125.753 74.916 127.833 74.963z" opacity=".1"/>
                <path fill="#DDA2A6" d="M102.926 74.381h29.064c.693 0 1.254.59 1.254 1.318v.288h-31.572v-.288c0-.35.132-.685.368-.932.235-.247.554-.386.886-.386z"/>
                <path fill="url(#4w35smei3a)" d="M96.071 49.48c-.432-.23-5.142-3.814-5.142-3.814l-7.6-4.857s-.04-.115-.113-.313c2.086-2.385 1.63-5.846-.491-8.28-2.571-2.95-14.188-9.304-17.688-3.87-.49.768-.507 1.64-.634 2.483-.3 1.971-1.263 3.88-2.775 5.488-1.166 1.242-2.695 2.385-3.365 3.79 0-.017-.014-.035-.02-.054-.161.301-.279.624-.348.96-.333 1.713.81 3.356 1.417 5.023.204.565.352 1.148.442 1.742l.042-.355c.148.846.198 1.706.15 2.564-4.218.865-4.22 8.136-4.22 8.136s-.52 2.89-.432 3.931c.087 1.042.085 3.295.085 3.838 0 .543-.52 3.93-.57 4.337v.017c-.077.445-.867 2.59 1.043 3.07.133.034.274.063.42.09.083 1.737.231 5.373.1 6.183 0 0 .695 4.885 1.272 6.126.365.728.792 1.423 1.276 2.076-.042.298-.142.584-.294.843-.295.428-.142.779.35.93l-.056.503c-.212 1.884-.528 5.63.01 7.528.736 2.602.78 3.469.78 3.469s0 .779.305 1.213c.305.433.866 4.467.866 5.117 0 .65 1.474 6.503 1.04 7.89-.434 1.388-.086 3.339-.086 3.339s-.26 3.425-.57 4.162c-.311.737-.435 12.616.041 15.694.476 3.078.78 5.636.78 5.636s-.302 2.818-.043 3.208c.259.39.737 2.732.39 2.86-.346.13-.52 1.085-.52 1.085.184.28.382.552.593.812-.134-.047-.264-.103-.39-.167.137.191.342.464.595.767l-.238 3.118c-.02.251.14.481.381.547 1.55.424 3.205-.045 4.308-1.22 2.167-2.21 2.904-1.908 3.295-3.25.042-.145.078-.287.108-.421.28-1.197-.986-2.088-1.994-1.577.14-.948.248-2.025.143-2.633-.217-1.257-.173-4.551-.173-4.551l-.303-15.783s.562-3.122 1.213-4.334c.652-1.213.572-5.463.572-5.463l.737-13.961.693-6.806s.693-2.341 1.56.26c0 0-.477 5.245-.26 6.503.218 1.26.52 7.37.303 8.714-.217 1.343-1.17 8.715-.571 10.578.598 1.863 1.264 4.122 1.131 4.86-.133.74-.571 16.735-.571 16.735s1.171 3.07.305 4.075c-.867 1.006-.044 4.99-.044 4.99s.104.074.283.178l-.024.331-.273 3.587c-.02.251.14.481.381.549 1.55.424 3.205-.045 4.308-1.22 2.167-2.213 2.904-1.908 3.295-3.253.042-.144.078-.284.11-.42.305-1.307-1.238-2.255-2.27-1.401l-.051.044c-.054.046-.11.089-.17.128-.027.02-.056.04-.086.056.218-.99.534-2.686.381-3.48-.217-1.171.216-4.725.216-4.725s1.256-4.25 1.3-5.948l.347-13.526s-.042-5.507.131-6.85c.174-1.343 1.56-12.964 2.946-16.433 1.065-2.655 1.541-9.433 1.26-12.87-.016-.168-.031-.331-.05-.483 1.7-1.264 1.87-3.367 1.87-3.367s-1.562-3.005-3.064-4.277c-1.503-1.273-1.827-3.46-1.773-4.39.025-.568-.16-1.124-.52-1.56 0 0-.693-2.255-1.156-2.485-.038-.02-.072-.046-.101-.077-.314-.34-.073-1.31-.073-1.31v-.032c.056-.224.381-1.678.284-2.05-.116-.404.057-2.313.057-2.313s1.1-3.295.926-5.896c-.173-2.602 2.255-2.37 2.255-2.37l7.497-.079h.854c.3-.257.575-.544.82-.856 1.429-.17 4.318-.713 4.641-2.302.44-2.109-1.352-4.248-1.786-4.48zM61.335 73.535l.051-1.322c.177.153.295.251.295.251.096.346.1.71.014 1.06-.095.33-.334.6-.65.732-.036.016-.071.035-.105.056l-.072-.747.467-.03zM88.53 50.317c-.318-.144-1.389-.115-1.94-.115-.55 0-1.443-.463-1.443-.463-.19-.374-1.243-.596-2.18-.723-.712-1.77-1.714-3.494-1.85-5.338 0-.067 0-.134-.009-.202l.109.192s4.365 2.806 4.856 3.646c.38.64 2.215 2.072 3.064 2.713-.117.154-.28.265-.466.315-.049.005-.098-.003-.141-.025z"/>
                <path fill="#67647E" d="M81.304 153.07c-.033.129-.067.263-.11.399-.381 1.285-1.113.987-3.246 3.085-1.083 1.116-2.721 1.563-4.253 1.16-.242-.062-.403-.282-.382-.521l.27-3.403.127-1.637s3.407.918 5.141-.248c.059-.038.115-.08.168-.123.014-.011.027-.024.039-.037.458-.365 1.108-.409 1.616-.11.508.3.76.877.63 1.436zM71.136 152c-.032.129-.067.263-.109.399-.381 1.284-1.113.987-3.246 3.085-1.084 1.116-2.721 1.562-4.253 1.16-.242-.062-.404-.282-.382-.522l.269-3.402.128-1.637s3.407.917 5.141-.248c.058-.038.114-.08.168-.123.014-.012.026-.024.038-.037.46-.365 1.109-.409 1.617-.11.507.3.76.877.63 1.435z"/>
                <path fill="#000" d="M67.291 152.045l.134 1.916c-1.897 2.034-4.155-.994-4.816-1.988 1.739.962 4.682.072 4.682.072zM78.934 153.128l.26-.17c-1.814 2.715-4.508 1.463-5.348.976l.13-1.703s3.46.954 5.221-.258c-.137.665-.263 1.155-.263 1.155z" opacity=".1"/>
                <path fill="#444053" d="M84.287 101.576c-1.384 3.44-2.766 14.965-2.94 16.308-.173 1.343-.129 6.795-.129 6.795l-.346 13.41c-.045 1.678-1.298 5.893-1.298 5.893s-.431 3.527-.215 4.687c.215 1.161-.561 4.221-.561 4.221l.258-.172c-2.16 3.261-5.574.817-5.574.817s-.82-3.956.045-4.946c.865-.99-.303-4.043-.303-4.043s.432-15.87.56-16.601c.13-.731-.518-2.968-1.123-4.818-.605-1.85.347-9.161.563-10.494.216-1.334-.087-7.398-.303-8.646-.216-1.247.259-6.452.259-6.452-.864-2.58-1.556-.257-1.556-.257l-.692 6.752-.734 13.85s.087 4.22-.56 5.42c-.648 1.199-1.211 4.3-1.211 4.3l.302 15.657s-.042 3.262.174 4.514c.216 1.253-.476 4.475-.476 4.475-2.419 5.673-6.304-.478-6.304-.478s.173-.946.518-1.075c.345-.128-.13-2.452-.385-2.84-.257-.387.042-3.182.042-3.182s-.303-2.536-.771-5.59c-.468-3.055-.345-14.84-.042-15.57.302-.731.56-4.129.56-4.129s-.345-1.936.087-3.313c.432-1.378-1.037-7.182-1.037-7.828 0-.647-.56-4.645-.863-5.075-.303-.43-.303-1.205-.303-1.205s-.042-.86-.77-3.44c-.536-1.884-.22-5.598-.01-7.469.075-.692.14-1.134.14-1.134s24.78-4 25.769-3.096c.23.213.385.944.476 1.986.295 3.407-.191 10.141-1.247 12.768z"/>
                <path fill="#000" d="M74.916 120.61c.109 0 2.678.642 3.618.08.941-.562-3.618-.08-3.618-.08zM75.452 122.007s3.558.85 3.74.407c.18-.441-3.74-.407-3.74-.407zM63.679 121.472s1.964.065 3.033.437-3.033-.437-3.033-.437z" opacity=".1"/>
                <path fill="#EFB7B9" d="M56.722 73.369s.31 6.023.142 7.09c0 0 .674 4.871 1.238 6.11.563 1.237 1.775 2.796 1.775 2.796l1.661-11.958-.395-4.096-4.42.058z"/>
                <ellipse cx="74.381" cy="39.866" fill="#EFB7B9" rx="6.421" ry="6.689"/>
                <path fill="#EFB7B9" d="M70.646 42.503s-2.046 4.028-4.092 5.912C64.51 50.3 78.83 52.441 79.17 52.441c.34 0-2.557-8.566-2.045-9.6.511-1.033-6.478-.338-6.478-.338z"/>
                <path fill="#000" d="M85.619 88.843c-.324.252-.68.455-1.06.604-2.628 1.05-5.488 2.507-7.432 1.926-1.943-.582-6.06 0-6.06 0s-8.293-.7-9.947-.293c-.754.185-1.34.177-1.722.045.075-.704.14-1.153.14-1.153s24.623-4.067 25.604-3.148c.234.217.383.96.477 2.019z" opacity=".1"/>
                <path fill="#A36468" d="M87.224 85.057s-.227 2.863-2.848 3.893c-2.622 1.03-5.467 2.46-7.402 1.89-1.936-.57-6.036 0-6.036 0s-8.26-.688-9.908-.287c-1.648.4-2.507-.113-1.994-.858.512-.745.457-3.206.457-4.236 0-1.03-.572-5.208-.06-5.953.513-.745.969-3.606 1.994-4.065.312-.132.547-.4.64-.726.085-.345.08-.705-.013-1.048 0 0-.174-.143-.412-.356-.604-.542-1.625-1.547-1.297-1.876.455-.46 0-3.436 0-3.436s-1.083-2.288-.683-3.146c.4-.858-3.475-5.38-3.475-5.38s0-7.782 4.67-8.127c0 0 3.304.115 3.702-1.373.398-1.488 3.018-2.348 3.018-2.348l5.98 1.318s5.295 1.149 6.265.457c.97-.69 1.715.916 1.715.916s3.302.172 3.643.86c.34.687-1.08 7.381-1.08 7.381s-2.394-.228-2.222 2.348c.171 2.575-.922 5.838-.922 5.838s-.172 1.888-.057 2.289c.106.37-.225 1.81-.279 2.031v.029s-.238.957.07 1.298c.03.031.063.057.1.077.457.228 1.143 2.46 1.143 2.46.356.434.538.985.513 1.546-.056.917.285 3.09 1.766 4.35 1.48 1.26 3.012 4.234 3.012 4.234z"/>
                <path fill="#A36468" d="M62.074 71.425v.24l-.106 2.633s-3.598.28-5.556-.188c-1.959-.469-1.135-2.559-1.057-2.992v-.016c.057-.396.587-3.684.587-4.219 0-.534 0-2.728-.088-3.74s.43-3.832.43-3.832l.38-.448 4.12 1.518 1.29 11.044z"/>
                <path fill="#000" d="M62.074 71.707l-.106 2.592s-3.598.276-5.556-.185c-1.959-.46-1.135-2.518-1.057-2.943l6.719.536z" opacity=".1"/>
                <path fill="#000" d="M61.968 74.381c.086-.353.081-.723-.013-1.074 0 0-.176-.147-.417-.365 3.05-.434 15.127-2.122 19.193-2.307v.03s-.24.982.072 1.331l-18.835 2.385zM81.246 77.057s.751 3.958-2.049 5.351c-.002.007 1.588-1.956 2.05-5.351zM63.144 82.264s6.608-.754 7.902-.168c1.293.585-7.902.168-7.902.168zM78.537 56.187s-.774 4.267-.195 5.247c.58.98.195-5.247.195-5.247zM59.429 52.977s.856 1.664.337 3.39c-.52 1.725-.337-3.39-.337-3.39zM57.258 66.355s1.456.733.971 1.88c-.485 1.148-.971-1.88-.971-1.88zM57.258 63.144s.94.572 1.061 1.416c.121.845-1.061-1.416-1.061-1.416zM73.846 97.777s7.136.698 8.562-.92c0 .009-6.436 1.228-8.562.92zM61.538 96.856s7.596 2.084 9.097.436c0 0-6.527.571-9.097-.436zM74.381 100.18s3.137 0 4.59.241c1.454.24-4.59-.24-4.59-.24zM62.074 101.672s1.581 1.272 3.369 1.043c1.787-.229-3.37-1.043-3.37-1.043z" opacity=".1"/>
                <path fill="#E3787D" d="M65.474 29.4c-.491.754-.508 1.627-.637 2.464-.299 1.956-1.268 3.85-2.785 5.447-1.392 1.462-3.301 2.788-3.662 4.575-.342 1.697.817 3.33 1.425 4.99 1.602 4.355-.635 8.922-1.288 13.417-.18 1.242.037 2.829 1.585 3.242.484.13 1.037.113 1.472.32.583.276.762.85.868 1.367.39 1.846.525 3.737.4 5.619-.07 1.056-.147 2.27.863 2.996.458.332 1.076.5 1.672.66 1.59.424 3.647.768 4.72-.228.45-.417.619-1.004 1.18-1.334.841-.493 2.033-.16 3.092-.108 2.173.108 4.17-1.151 5.026-2.67.857-1.517.777-3.262.466-4.899-.31-1.637-.866-3.263-.905-4.925-.013-.575.039-1.16.373-1.671.647-.989 2.152-1.438 3.181-2.215 1.929-1.459 1.923-3.848 1.222-5.848-.701-2-1.96-3.917-2.115-5.984-.07-.5.03-1.008.285-1.445.276-.42.758-.735 1.166-1.083 2.814-2.349 2.482-6.206.155-8.847-2.575-2.927-14.243-9.231-17.759-3.84z"/>
                <g fill="#000" opacity=".1">
                    <path d="M1.985 12.661c.217-1.74.177-3.466-.441-5.16C1.24 6.67.799 5.844.477 5.01c-.16.301-.277.624-.346.958-.339 1.692.81 3.322 1.413 4.978.203.556.35 1.13.44 1.714zM4.554 31.412c.123-1.878-.01-3.764-.394-5.607-.108-.515-.285-1.086-.863-1.362-.43-.206-.98-.191-1.459-.32-.596-.142-1.094-.55-1.347-1.106-.089.436-.166.871-.23 1.308-.178 1.239.037 2.822 1.571 3.234.48.128 1.028.111 1.46.318.577.276.754.848.862 1.363.176.855.3 1.72.37 2.59.013-.143.02-.28.03-.418zM20.962 30.732c-.85 1.52-2.83 2.77-4.984 2.664-1.049-.054-2.23-.383-3.062.107-.556.327-.726.915-1.172 1.33-1.063.987-3.101.652-4.678.228-.59-.16-1.2-.327-1.657-.658-.435-.318-.728-.792-.818-1.322.011.588 0 1.178-.037 1.766-.069 1.053-.146 2.265.855 2.991.456.33 1.066.498 1.657.657 1.577.423 3.615.766 4.678-.228.446-.416.616-1.002 1.172-1.34.832-.493 2.013-.16 3.062-.108 2.154.108 4.133-1.149 4.984-2.663.816-1.463.78-3.118.495-4.697-.108.444-.274.872-.495 1.273zM24.608 2.733c-.412.344-.89.66-1.155 1.08-.252.436-.352.943-.283 1.441.056.627.189 1.244.396 1.839.32-.34.672-.65 1.05-.927 1.886-1.584 2.344-3.857 1.732-5.978-.323.996-.927 1.88-1.74 2.545zM24.048 17.05c-1.019.776-2.512 1.226-3.151 2.212-.333.51-.385 1.097-.372 1.666.024.67.106 1.336.246 1.991.037-.077.079-.152.126-.224.639-.986 2.132-1.434 3.15-2.21 1.746-1.329 1.893-3.431 1.377-5.306-.262.746-.741 1.397-1.376 1.871z" transform="translate(58.328 36.388)"/>
                </g>
                <path fill="#EFB7B9" d="M92.557 57.258s4.881-.255 5.304-2.328c.423-2.073-1.321-4.18-1.748-4.402-.426-.222-5.028-3.749-5.028-3.749l-7.418-4.768s-3.554-10.26-4.34-6.333c-.788 3.927 2.285 9.143 2.285 9.143s4.258 2.755 4.737 3.577c.48.823 3.415 2.981 3.415 2.981l2.793 5.879z"/>
                <path fill="#A36468" d="M95.114 54.05c-1.207 3.013-2.772 4.2-2.772 4.2h-.87l-7.647.078-.882-2.366 1.239-5.126.765.031s.916.463 1.474.463c.558 0 1.653-.029 1.972.114.045.022.095.03.144.022.29-.03.592-.456.592-.456s7.194.03 5.985 3.04z"/>
                <path fill="#000" d="M95.12 54.296c-1.153 2.892-2.647 4.032-2.647 4.032h-.83c.433-1.146 1.346-3.496 1.695-4.04.34-.512-2.719-1.79-4.509-2.48.277-.028.566-.437.566-.437s6.88.036 5.725 2.925z" opacity=".1"/>
                <circle cx="34.515" cy="23.813" r="6.154" fill="#FF9797" opacity=".1"/>
                <circle cx="21.94" cy="9.097" r="3.746" fill="#FF9797" opacity=".1"/>
                <circle cx="2.408" cy="17.926" r="2.408" fill="#FF9797" opacity=".1"/>
            </g>
        </g>
    </g>
</svg>
