<svg xmlns="http://www.w3.org/2000/svg" width="134" height="105" viewBox="0 0 134 105">
    <defs>
        <linearGradient id="prefix__a" x1=".042%" x2="100%" y1="50.012%" y2="50.012%">
            <stop offset="0%" stop-color="gray" stop-opacity=".25"/>
            <stop offset="54%" stop-color="gray" stop-opacity=".12"/>
            <stop offset="100%" stop-color="gray" stop-opacity=".1"/>
        </linearGradient>
    </defs>
    <g fill="none">
        <ellipse cx="47.07" cy="98.523" fill="#FF9797" opacity=".1" rx="23.341" ry="4.434"/>
        <path fill="#FF9797" d="M77.875 14.806c-8.578-.297-16.748-3.075-24.55-6.114-7.8-3.038-15.528-6.403-23.9-8.013C24.038-.356 17.88-.504 13.541 2.39c-4.177 2.79-5.526 7.595-6.25 12.057-.547 3.357-.868 6.892.627 10.035 1.04 2.182 2.882 4.017 4.157 6.107 4.436 7.273 1.3 16.242-3.506 23.343-2.253 3.331-4.87 6.513-6.611 10.055C.219 67.528-.586 71.601.937 75.224c1.508 3.588 5.104 6.279 9 8.173 7.911 3.847 17.23 4.948 26.324 5.573 20.124 1.38 40.354.782 60.53.183 7.468-.22 14.967-.445 22.313-1.603 4.08-.643 8.29-1.664 11.252-4.128 3.76-3.128 4.691-8.423 2.171-12.344-4.225-6.579-15.905-8.212-18.862-15.271-1.625-3.886.044-8.214 2.407-11.817 5.069-7.732 13.563-14.514 14.01-23.35.308-6.069-3.776-12.147-10.09-15.02-6.618-3.01-15.797-2.63-20.677 2.352-5.03 5.125-13.865 7.099-21.44 6.834z" opacity=".1"/>
        <path fill="url(#prefix__a)" d="M71.058 48.08l-4.06-2.745 2.048-3.057-10.722-.857-3.853 2.987-4.823-2.711-4.023.485-.048-1.063c-.05-1.109-.16-2.214-.332-3.31.017-.332.029-.713.027-1.128 0-1.748-.236-4.065-1.272-5.609l.239-2.15-1.936-2.293c.311-.621.666-1.219 1.06-1.79.067-.095.133-.188.205-.278 2.512-.182 4.493-2.253 4.493-4.785 0-.117 0-.234-.013-.35 0-.046-.01-.094-.015-.14l.741.398c.047.067.1.133.158.212l.012.014.074.092.024.028c.026.032.054.062.082.094l.019.021c.07.079.144.159.224.237.01.008.018.016.026.025l.1.093.027.026c.085.075.175.148.265.217l.03.022.114.078.037.024c.043.027.088.055.132.08l.016.01c.052.027.105.054.158.079l.026.01c.045.02.09.039.133.056l.041.015c.046.016.091.03.14.044l.028.008c.059.014.117.026.177.036h.006c.056.009.113.015.17.017h.038c.051.003.102.003.153 0h.033c.063-.004.127-.011.19-.023.296-.039.58-.141.834-.3.065-.043.122-.097.17-.158.265-.348-.026-.73-.026-.73-.104-.247-.774-.421-.774-.421s-2.121-.888-2.121-1.595-.53-4.376-6.003-5.214c0 0-3.56-.2-4.56 1.71l-.022.224c-.294.184-.538.555-.828.664-.126.027-.247.072-.36.133v-.025c-.033.03-.06.065-.08.105-.063.124-.1.26-.11.399-.03.17-.089.332-.174.482-.024.043-.05.083-.08.122l-.022.036c.154.012.308-.013.45-.073-.022.182-.066.36-.132.532.172.005.332-.09.408-.245v-.01l.017-.024c.034-.062.061-.126.083-.193l-.015.016c.027-.087.05-.174.08-.26.013-.047.035-.092.065-.132.071-.073.173-.107.274-.092l-.054 1.152h.023c-.031.084-.07.165-.116.242-.188.306-.53.515-.656.85-.055.161-.075.332-.061.502 0 .1.012.2.02.3v-.008c.018.266.023.519-.12.733-.098.146-.255.256-.31.422-.015.047-.022.095-.02.144.011.146.041.29.09.427v-.008c.034.1.041.208.023.313-.06.266-.382.488-.366.742 0 .033.004.067.015.098.062.124.169.22.3.266.204.117.438.169.673.149.087-.016.172-.045.251-.086-.092.214-.188.425-.285.626-.014.032-.03.063-.046.095 0 0-.819-.549-1.284.57-.136.233-.233.486-.288.75-.023.106-.056.209-.098.308-.206.351-.516.63-.885.798-.95.436-4.782 5.23-4.85 6.471-.033.485-.115.965-.244 1.433-.302 1.103-.38 2.255-.228 3.388.047.366.126.728.235 1.08.407 1.24.678 3.555.678 3.555l.44 4.016c-.016.555.008 1.11.072 1.66-.45.515-2.253 2.659-1.564 3.242.53.46 1.458.384 1.979.29-.439 1.088-1.13 2.981-1.22 4.28-.133 1.924.226 4.472.794 5.45.569.978 2.464 3.488 2.464 3.488s-.089 3.442.589 4.693c.677 1.25.95 3.845.95 3.845s.632 2.19.316 2.996c-.317.805.587 1.475-.362 2.01-.95.536-2.163 12.609-2.163 12.609s-.49 7.912 0 8.315c.026.019.054.035.083.049v2.658s-.34.558 1.04.671c.946.076 3.624.248 5.213.347l1.232.077s2.916.582 4.204 0c1.288-.582 3.572-.569 3.233-2.106-.045-.21-.106-.415-.18-.616-.373-.954-1.005-1.063-2.17-1.329-.068-.014-.133-.028-.192-.038-1.228-.214-1.63.359-2.319-.387-.597-.645-2.5-1.366-3.149-1.595.016-.048.036-.094.052-.144-.184-.03-.354-.114-.492-.24l1.756.111 1.046.066s2.479.495 3.579 0c1.1-.496 3.035-.483 2.746-1.79-.038-.177-.089-.352-.152-.523-.317-.81-.855-.9-1.845-1.124-.057-.012-.11-.024-.163-.034-1.044-.182-1.386.305-1.97-.328-.501-.54-2.082-1.144-2.65-1.35 0-.295-.398-.715-.649-1.137-.294-.492.25-2.213.25-2.213l.31-7.141c.117-.053.242-.089.37-.106 0 0 1.403-1.343 1.086-2.773-.065-.432-.098-.87-.1-1.306.46-.43 1.095-1.064 1.276-1.454.294-.637 0-3.722 0-3.722V59.083l2.346.238 2.128.22.648.066 2.129.215 4.892.496 4.408-.837 1.908-.362 3.922-.744v-9.623l4.06-.673zM38.77 16.192l-.273-.03c.09.004.185.022.273.03z"/>
        <path fill="#EFB7B9" d="M61.543 54.328c-1.325 1.901-6.09.894-6.09.894l-3.693-3.465-.497-.47.834-1.775s.265.073.72.204c2.387.695 9.845 3.013 8.726 4.612z"/>
        <path fill="#000" d="M52.814 49.716c-.163.568-.61 1.42-1.054 2.041l-.497-.47.834-1.775s.268.073.717.204z" opacity=".1"/>
        <path fill="#DCE6F2" d="M40.15 29.691s-3.404 1.514-3.237 5.231c.12 2.395.38 4.781.78 7.146 0 0-.697 5.594 2.2 7.036 2.898 1.442 5.58 2.628 5.58 2.628s4.532.489 5.096.69c.563.203 2.323-2.886 1.998-3.367-.324-.481-4.485-1.49-5.015-2.293-.53-.803-1.756-1.298-1.756-1.298s-1.266-.769-1.352-1.462c-.086-.694.248-1.211.333-1.516.085-.304.3-3.243.3-3.243s1.428-10.46-4.927-9.552z"/>
        <path fill="#000" d="M42.396 41.915s-4.67.784-4.217 2.423c0 0 1.695-1.77 4.217-2.423zM42.432 42.578s-2.567 2.101-2.065 2.21c.502.107 2.065-2.21 2.065-2.21zM43.666 43.31s-.688 1.413-.265 1.318c.423-.096.265-1.317.265-1.317z" opacity=".1"/>
        <path fill="#000" d="M52.986 49.866l-.283-.081c.08-.266.103-.482.037-.581-.325-.481-4.483-1.489-5.012-2.293-.528-.804-1.756-1.298-1.756-1.298s-1.266-.769-1.352-1.462c-.086-.694.248-1.211.333-1.516.085-.304.3-3.244.3-3.244s1.424-10.459-4.931-9.551c0 0-3.404 1.515-3.238 5.233.12 2.395.38 4.78.78 7.145 0 0-.695 5.594 2.202 7.036 2.897 1.442 5.579 2.628 5.579 2.628s4.531.488 5.096.691c.213.077.6-.32.977-.866l.215.2 3.692 3.464s4.765 1.009 6.09-.893c1.12-1.6-6.336-3.919-8.729-4.612z" opacity=".1"/>
        <path fill="#965D7B" d="M38.19 15.738c-.13.025-.253.074-.366.142-.133.11-.133.3-.166.464-.04.23-.13.447-.265.635.15.012.302-.014.441-.073-.023.182-.067.36-.132.532.168.004.324-.09.397-.243.07-.15.126-.306.166-.467.012-.048.034-.093.064-.133.121-.145.348-.08.536-.06.32.026.628-.122.806-.389.2-.304.212-1.083-.265-1.166-.498-.082-.808.607-1.215.758z"/>
        <g fill="#000" opacity=".1">
            <path d="M.433.227C.445.162.453.094.468.03.342.14.335.327.302.493.286.59.26.683.224.773.328.608.399.422.434.228zM.476 1.325c.066-.17.11-.35.132-.532C.476.85.332.874.188.867c-.042.093-.093.182-.152.265.15.012.301-.013.44-.071-.022.182-.067.36-.133.531.169.004.324-.09.398-.243.033-.06.06-.124.08-.19-.08.11-.21.173-.345.166zM1.64.421C1.45.403 1.223.338 1.1.482c-.029.04-.05.086-.063.133-.012.035-.023.07-.032.107.126-.1.33-.047.501-.03.319.027.627-.122.806-.388.04-.064.07-.135.089-.208-.185.228-.47.35-.762.325z" transform="translate(37.377 15.816)"/>
        </g>
        <path fill="#DCE6F2" d="M42.18 26.715L44.201 29.153 43.938 31.613 41.495 27.778z"/>
        <path fill="#000" d="M44.2 29.153L43.952 31.467 43.936 31.613 41.732 28.152 41.495 27.778 41.564 27.671 42.179 26.715 42.315 26.88z" opacity=".1"/>
        <path fill="#EFB7B9" d="M45.25 23.415c-.684.197-1.338.872-1.906 1.692-.384.566-.728 1.158-1.029 1.773-.187.375-.35.735-.487 1.049l-.096.223c-.23.546-.359.912-.359.912s-5.235-3.948-4.407-4.214c.278-.089.644-.687 1.006-1.44l.045-.096c.23-.484.455-1.023.655-1.531.41-1.044.713-1.95.713-1.95s7.952 2.984 5.865 3.582z"/>
        <path fill="#444053" d="M48.382 19.611s1.209 2.193 2.832 1.894c1.624-.299.956-1.178.956-1.178l-3.788-.716z"/>
        <path fill="#A36468" d="M46.04 95.523c-1.071.49-3.493 0-3.493 0l-1.02-.063c-1.326-.085-3.544-.229-4.33-.293-1.144-.094-.863-.565-.863-.565V91.76l5.556-1.411s2.196.753 2.798 1.411c.571.628.905.145 1.924.326.05.01.104.02.16.033.967.222 1.492.31 1.802 1.114.062.169.112.342.15.518.286 1.295-1.615 1.286-2.684 1.773z"/>
        <path fill="#000" d="M48.574 93.232c-.2.125-.408.232-.626.322-.729.333-1.422.74-2.159 1.055-.737.315-1.53.54-2.328.48-.418-.03-.845-.133-1.244-.013-.246.095-.479.224-.69.384-1.326-.085-3.544-.229-4.33-.293-1.144-.094-.863-.565-.863-.565v-.332c.04 0 .087-.012.14-.016.275-.004.548.037.809.121.575.157 1.148.311 1.723.465.095-.362.335-.668.663-.848.328-.175.696-.26 1.068-.246.892.012 1.736.436 2.627.479.249.023.5-.02.727-.122.122-.062.23-.15.349-.218.19-.093.393-.161.6-.204.585-.146 1.158-.331 1.717-.555.159-.063.344-.176.323-.346-.028-.226-.381-.252-.474-.46-.033-.076-.03-.163.01-.235.05.01.104.02.16.033.963.222 1.488.31 1.798 1.114z" opacity=".1"/>
        <path fill="#A36468" d="M44.908 101.744c-1.26.576-4.109 0-4.109 0l-1.2-.07c-1.553-.1-4.17-.267-5.093-.345-1.348-.112-1.017-.665-1.017-.665v-3.35l6.539-1.662s2.584.887 3.292 1.662c.672.737 1.06.17 2.265.383.06.01.122.023.187.038 1.139.266 1.756.366 2.12 1.312.075.199.133.402.177.61.329 1.523-1.902 1.511-3.161 2.087z"/>
        <path fill="#000" d="M47.89 99.047c-.234.147-.48.273-.736.379-.857.392-1.674.87-2.54 1.241-.867.37-1.802.634-2.741.565-.49-.036-.993-.16-1.458-.016-.292.114-.566.268-.815.457-1.554-.1-4.17-.266-5.094-.344-1.348-.112-1.017-.665-1.017-.665v-.39c.055-.01.11-.016.166-.019.323-.006.645.042.952.142l2.026.548c.114-.427.399-.788.786-.998.387-.207.82-.307 1.258-.29 1.05.015 2.043.513 3.091.564.292.026.586-.023.854-.143.144-.073.265-.178.41-.256.225-.11.462-.19.707-.24.683-.172 1.355-.39 2.01-.653.186-.075.405-.208.38-.407-.034-.266-.45-.298-.56-.542-.037-.09-.032-.191.014-.277.06.01.121.024.186.039 1.139.255 1.757.359 2.121 1.305z" opacity=".1"/>
        <path fill="#444053" d="M42.058 78.751l-.354 8.351s-.53 1.705-.242 2.193c.287.488.773.974.596 1.263-.176.288-2.297 3.406-2.982 2.21-.685-1.196-1.361-6.38-1.361-6.38l.632-6.402 3.711-1.235zM43.593 57.945l.984 1.319V70.73s.287 3.057 0 3.689c-.288.631-1.746 1.894-1.746 1.894L41.605 70l.265-6.678 1.723-5.377z"/>
        <path fill="#000" d="M42.058 78.751l-.354 8.351s-.53 1.705-.242 2.193c.287.488.773.974.596 1.263-.176.288-2.297 3.406-2.982 2.21-.685-1.196-1.361-6.38-1.361-6.38l.632-6.402 3.711-1.235zM43.593 57.945l.984 1.319V70.73s.287 3.057 0 3.689c-.288.631-1.746 1.894-1.746 1.894L41.605 70l.265-6.678 1.723-5.377z" opacity=".1"/>
        <path fill="#444053" d="M44.577 53.054v6.203l-1.105 4.829s-.353 11.652-.045 13.07c.31 1.416-1.06 2.746-1.06 2.746s-.795.09-.795.709c0 .62-1.326 2.392-1.326 2.392l.044 3.456s.575 6.469-.309 7.709c-.884 1.24.31 1.418.31 1.418-1.105 3.632-6.407 2.791-6.885 2.392-.479-.398 0-8.24 0-8.24s1.185-11.962 2.113-12.494c.927-.532.045-1.196.354-1.994.308-.797-.31-2.967-.31-2.967s-.264-2.571-.927-3.811c-.663-1.24-.575-4.652-.575-4.652s-1.856-2.481-2.407-3.456c-.552-.974-.907-3.5-.774-5.405.09-1.288.764-3.163 1.193-4.243.205-.517.353-.852.353-.852l.126.034 7.24 1.9 4.785 1.256z"/>
        <path fill="#000" d="M45.25 23.415c-.684.197-1.338.872-1.906 1.692h-.149c-1.696.001-3.263-.908-4.108-2.383-.174-.3-.313-.62-.417-.95.41-1.044.714-1.95.714-1.95s7.953 2.993 5.866 3.591z" opacity=".1"/>
        <path fill="#EFB7B9" d="M47.934 20.092c.003 1.993-1.234 3.776-3.099 4.466-1.865.69-3.96.14-5.248-1.379-1.288-1.518-1.495-3.68-.518-5.415.144-.258.312-.5.501-.726.313-.373.68-.697 1.09-.96 1.407-.896 3.181-.986 4.67-.234 1.49.751 2.476 2.232 2.597 3.9.003.117.007.233.007.348z"/>
        <path fill="#000" d="M43.952 31.467l-.016.146-2.204-3.456c-.23.547-.359.912-.359.912s-5.235-3.953-4.407-4.219c.278-.089.644-.687 1.006-1.44l.045-.096c.384 1.148 2.618 3.444 3.547 4.363.107.107.196.195.265.258l.142.133.074.075c.338.35 1.764 1.891 1.907 3.324z" opacity=".1"/>
        <path fill="#DCE6F2" d="M45.6 43.192l-.241 7.785-.043 1.386s-2.857-.266-5.524-.558c-2.147-.235-4.171-.49-4.483-.638-.397-.188-1.25-.332-1.922-.424-.52-.07-.927-.108-.927-.108s-.153.045-.387.088c-.512.093-1.41.169-1.934-.287-.67-.584 1.09-2.704 1.528-3.213l.097-.11-.166-1.535-.43-3.98s-.266-2.293-.663-3.523c-.107-.35-.183-.707-.23-1.07-.147-1.123-.072-2.264.223-3.357.126-.465.206-.94.238-1.421.067-1.23 3.811-5.981 4.739-6.413.417-.195.753-.531.949-.949.065-.131.113-.27.144-.413.398-1.728 1.404-1.042 1.404-1.042.243 1.351 3.997 4.93 3.997 4.93l.075.074c.372.383 2.032 2.18 1.914 3.713-.024.571.061 1.141.25 1.68.764 2.412 1.203 4.915 1.306 7.443l.086 1.942z"/>
        <path fill="#000" d="M40.28 33.948s-.928 2.26-1.624 2.625c-.696.366 1.955.771 1.624-2.625zM40.975 38.168s-2.12.266-2.12.665c0 .398 2.12-.665 2.12-.665zM43.195 40.76s-3.081 6.579-3.943 6.778c-.861.2 3.943-6.778 3.943-6.778zM41.911 28.673l-2.549 1.111-3.076-4.66c.065-.131.113-.27.145-.413.397-1.728 1.403-1.042 1.403-1.042.243 1.352 3.998 4.93 3.998 4.93l.08.074z" opacity=".1"/>
        <path fill="#DCE6F2" d="M42.044 28.407l-2.55 1.111-3.075-4.66c.064-.131.113-.27.144-.413.398-1.728 1.404-1.042 1.404-1.042.242 1.352 3.997 4.93 3.997 4.93l.08.074z"/>
        <path fill="#000" d="M45.316 52.363s-2.857-.266-5.524-.558l4.785 1.256v1.462c-.21.19-.391.288-.51.238-.55-.233-5.05-.964-5.05-.964s-2.614-1.329-5.435-2.924c-.068-.038-.135-.08-.199-.125-.329-.224-.612-.508-.835-.838-.52-.757-.775-1.728-.885-2.681-.062-.546-.085-1.096-.069-1.646.014-.623.07-1.244.17-1.86-.273-2.382-.406-4.778-.398-7.176.033-3.722 3.512-5.051 3.512-5.051 6.396-.565 4.413 9.802 4.413 9.802s-.37 2.924-.47 3.223c-.101.3-.463.798-.414 1.496.049.697 1.27 1.532 1.27 1.532s1.194.56 1.685 1.392c.358.612 2.683 1.443 3.997 2.036l-.043 1.386zM47.458 17.142c.002.219-.043.435-.133.635-.067.163-.146.32-.235.473-.14.28-.338.527-.581.723-.306.22-.693.28-1.06.37-.367.089-.75.23-.959.545-.113.201-.189.422-.224.65-.035.23-.126.446-.265.63-.148.186-.404.248-.62.15-.11-.075-.195-.184-.24-.31-.151-.342-.19-.72-.25-1.089-.061-.368-.148-.747-.373-1.043-.225-.296-.624-.492-.978-.376-.24.092-.43.279-.53.516-.098.235-.165.481-.2.733-.165.902-.359 1.799-.582 2.69-.007.037-.022.071-.044.101-.035.036-.083.056-.132.056-.297.04-.582-.169-.882-.146-.03.002-.061.007-.091.015-.992-1.73-.801-3.896.478-5.423l.024-.007c.2-.07.38-.185.53-.335.192-.192.369-.397.53-.615l.106-.133c.305-.368.652-.699 1.034-.985.105-.086.224-.15.353-.191.11-.022.223-.025.334-.01.458.054.919.072 1.38.051.32-.05.644-.083.968-.098.84.024 1.555.618 2.085 1.269.285.334.54.718.557 1.154z" opacity=".1"/>
        <path fill="#965D7B" d="M38.45 17.89c-.184.303-.516.509-.641.841-.183.483.126 1.083-.158 1.514-.094.145-.249.253-.302.419-.09.28.156.58.093.868-.064.288-.443.531-.342.813.06.123.164.218.291.266.201.115.432.167.663.147.362-.06.631-.416.998-.442.298-.021.583.186.88.147.05-.001.097-.022.133-.057.022-.03.037-.064.044-.1.222-.891.417-1.788.583-2.69.034-.253.1-.5.199-.735.1-.236.29-.422.53-.515.354-.115.751.08.978.376.227.296.313.675.374 1.043.06.368.099.747.249 1.089.045.126.13.235.241.31.199.116.467.025.619-.148.14-.185.23-.402.265-.631.035-.229.11-.45.224-.65.21-.314.593-.456.958-.545.366-.09.752-.152 1.06-.371.243-.196.441-.442.581-.722.196-.343.38-.715.363-1.11-.017-.43-.271-.814-.543-1.15-.53-.65-1.247-1.245-2.086-1.267-.325.013-.648.046-.97.098-.46.02-.921.003-1.379-.053-.111-.013-.224-.01-.334.012-.129.04-.248.104-.351.191-.383.286-.73.616-1.035.984-.197.261-.41.51-.64.744-.149.15-.33.265-.53.336-.132.038-.264.011-.39.052-.391.124-.443.635-.625.936z"/>
        <path fill="#000" d="M51.214 21.504c-1.06.195-1.939-.665-2.425-1.292-.15-.19-.286-.391-.407-.6l3.64.688.147.027s.669.879-.955 1.177z" opacity=".1"/>
        <g fill="#000" opacity=".1">
            <path d="M.463 4.405c.014-.174-.012-.349-.077-.51 0 .013-.012.026-.016.04-.057.177.02.362.069.547.01-.025.018-.05.024-.077zM.778 2.229c-.014.184-.01.368.01.552.014-.184.01-.369-.01-.552zM9.983.986c-.14.28-.337.527-.58.723-.307.22-.692.28-1.06.37-.37.089-.75.231-.96.545-.112.201-.188.422-.223.65-.035.23-.126.447-.265.632-.153.173-.42.266-.62.15-.11-.076-.195-.185-.24-.312-.15-.341-.19-.719-.25-1.088-.06-.37-.148-.747-.373-1.044-.226-.296-.625-.492-.978-.376-.24.093-.43.279-.53.516-.099.235-.166.481-.2.733-.165.903-.36 1.8-.583 2.69-.006.037-.02.072-.043.102-.036.035-.083.055-.133.057-.297.038-.582-.17-.88-.148-.367.027-.636.383-.998.441-.23.021-.462-.03-.663-.147C.312 5.44.23 5.38.162 5.307c-.063.09-.081.205-.05.31.059.124.164.22.292.266.2.116.432.168.663.147.362-.058.63-.414.998-.441.298-.021.583.186.88.147.05-.001.097-.022.133-.057.022-.03.037-.064.043-.1.223-.887.417-1.783.584-2.69.033-.253.1-.5.198-.735.1-.236.291-.422.53-.515.354-.116.752.08.979.376.226.296.312.675.373 1.043.061.368.1.747.25 1.089.045.127.13.235.24.31.2.116.467.025.62-.148.14-.185.23-.402.265-.631.035-.23.11-.45.224-.652.21-.313.592-.454.958-.545.366-.09.752-.15 1.06-.369.244-.196.442-.443.581-.723.196-.342.38-.714.363-1.109-.002-.05-.008-.1-.016-.151-.064.304-.181.594-.347.857z" transform="translate(36.98 16.747)"/>
        </g>
        <path fill="#000" d="M47.33 17.773c.34.606.542 1.28.59 1.974-1.18-.665-2.291-1.395-2.852-1.648-.977-.443-4.63-.377-6.003-.335.144-.258.312-.5.501-.726.314-.374.683-.697 1.094-.96 1.1-.7 2.439-.915 3.702-.595 1.263.32 2.339 1.147 2.975 2.287l-.006.003zM51.546 20.94c-.638.197-1.678-.183-2.757-.728-.15-.19-.286-.391-.407-.6l3.64.688c.24.164.302.4-.476.64z" opacity=".1"/>
        <path fill="#444053" d="M43.478 13.165s-3.48-.2-4.458 1.694l-.157 1.68-.265-.03-.053 1.142s5.317-.233 6.527.315c1.21.547 4.97 3.306 6.478 2.841 1.507-.465-.133-.897-.133-.897s-2.074-.881-2.074-1.572c0-.691-.515-4.342-5.865-5.173z"/>
        <path fill="#000" d="M36.767 75.394s2.22 2.16 3.181 1.994c0 0-2.717-.233-3.18-1.994zM36.303 76.395s.2 1.11.73 1.002c.53-.109-.73-1.002-.73-1.002zM39.782 94.965s-3.151 2.459-2.62 2.526c.532.066 2.62-2.526 2.62-2.526z" opacity=".1"/>
        <path fill="#FF9797" d="M43.999 46.164L54.204 44.499 54.204 54.188 44.508 53.679z"/>
        <path fill="#000" d="M43.999 46.164L54.204 44.499 54.204 54.188 44.508 53.679z" opacity=".05"/>
        <path fill="#FF9797" d="M54.204 44.499L66.443 45.417 65.766 53.849 54.204 54.188z"/>
        <path fill="#000" d="M54.204 44.499L66.443 45.417 65.766 53.849 54.204 54.188z" opacity=".1"/>
        <path fill="#FF9797" d="M57.967 41.541L54.204 44.499 66.443 45.417 68.443 42.391zM40.303 42.934L49.491 41.813 54.204 44.499 43.999 46.164zM56.442 47.015L56.442 60.262 51.661 59.77 49.581 59.558 48.948 59.491 46.87 59.277 43.999 58.982 43.999 46.164 54.203 46.861zM66.443 45.417L66.443 58.336 62.612 59.074 60.748 59.433 56.442 60.262 56.442 47.015z"/>
        <path fill="#000" d="M66.443 45.417L66.443 58.336 62.612 59.074 60.748 59.433 56.442 60.262 56.442 47.015z" opacity=".05"/>
        <path fill="#FF9797" d="M40.303 48.953L43.999 46.164 56.442 47.015 54.61 50.109z"/>
        <path fill="#FFF" d="M40.303 48.953L43.999 46.164 56.442 47.015 54.61 50.109z" opacity=".1"/>
        <path fill="#FF9797" d="M66.443 45.417L56.442 47.015 59.697 49.939 70.41 48.137z"/>
        <path fill="#FFF" d="M66.443 45.417L56.442 47.015 59.697 49.939 70.41 48.137zM62.612 59.074L60.748 59.433 60.748 56.672 62.494 56.231zM51.661 57.944L51.661 59.77 49.581 59.558 49.581 57.944zM48.948 58.52L48.948 59.491 46.87 59.277 46.87 58.52z" opacity=".1"/>
        <path fill="#000" d="M55.19 56.975c-1.424 1.828-6.13.565-6.13.565l-3.496-3.658-.475-.495.928-1.728s.265.087.708.242c2.343.821 9.665 3.536 8.466 5.074z" opacity=".1"/>
        <path fill="#EFB7B9" d="M55.058 56.71c-1.425 1.827-6.13.564-6.13.564l-3.497-3.658-.474-.495.928-1.728s.265.088.707.242c2.344.821 9.665 3.537 8.466 5.074z"/>
        <path fill="#000" d="M46.587 51.635c-.193.558-.685 1.385-1.16 1.981l-.475-.495.927-1.728s.267.088.708.242z" opacity=".1"/>
        <path fill="#DCE6F2" d="M35.011 30.964s-3.48 1.33-3.512 5.051c-.008 2.398.124 4.795.397 7.177 0 0-.994 5.55 1.823 7.144 2.816 1.595 5.434 2.924 5.434 2.924s4.5.731 5.052.964c.553.232 2.474-2.758 2.175-3.256-.298-.499-4.395-1.728-4.881-2.559-.487-.83-1.685-1.39-1.685-1.39s-1.222-.836-1.27-1.534c-.05-.698.31-1.196.413-1.495.102-.3.472-3.223.472-3.223s1.977-10.374-4.418-9.803z"/>
        <path fill="#000" d="M36.601 43.285s-4.705.532-4.34 2.193c0 0 1.788-1.676 4.34-2.193zM36.601 43.95s-2.67 1.96-2.18 2.093c.49.133 2.18-2.093 2.18-2.093zM37.794 44.747s-.762 1.375-.331 1.303c.43-.072.331-1.303.331-1.303z" opacity=".1"/>
        <path fill="#FF9797" d="M86.785 14.938s-5.037-.304-4.449 3.239c0 0-.118.626.448.91 0 0 .01-.265.517-.174.181.03.365.04.548.027.248-.017.483-.114.67-.278 0 0 1.417-.586 1.969-2.91 0 0 .408-.507.397-.637l-.85.365s.29.616.06 1.127c0 0-.026-1.104-.19-1.079-.034 0-.442.214-.442.214s.5 1.071.122 1.851c0 0 .143-1.32-.278-1.774l-.6.351s.585 1.107.189 2.01c0 0 .102-1.385-.314-1.925l-.544.424s.55 1.093.215 1.842c0 0-.044-1.613-.333-1.736 0 0-.474.42-.546.593 0 0 .375.798.142 1.211 0 0-.143-1.075-.265-1.08 0 0-.473.712-.522 1.196.023-.451.163-.889.407-1.268-.273.051-.525.182-.724.376 0 0 .073-.504.84-.548 0 0 .398-.54.496-.574 0 0-.763-.064-1.226.142 0 0 .407-.474 1.367-.266l.53-.438s-1.005-.133-1.432.014c0 0 .49-.42 1.576-.114l.583-.35s-.856-.186-1.366-.118c0 0 .538-.29 1.537.024l.418-.187s-.628-.124-.811-.144c-.183-.02-.194-.07-.194-.07.398-.067.806-.02 1.178.133 0 0 .895-.323.877-.38z"/>
        <path fill="#FF9797" d="M102.088 32.66s-5.037-.304-4.448 3.24c0 0-.118.625.448.91 0 0 .009-.266.518-.174.18.03.364.04.547.026.245-.018.478-.115.663-.276 0 0 1.418-.588 1.97-2.91 0 0 .407-.507.39-.638l-.85.365s.29.615.062 1.127c0 0-.028-1.105-.19-1.08-.034 0-.444.214-.444.214s.501 1.073.124 1.852c0 0 .143-1.321-.28-1.774l-.592.346s.584 1.108.188 2.011c0 0 .102-1.386-.314-1.926l-.542.426s.548 1.091.214 1.84c0 0-.043-1.613-.332-1.735 0 0-.475.42-.548.593 0 0 .377.797.143 1.21 0 0-.143-1.075-.265-1.08 0 0-.473.712-.522 1.196.024-.451.164-.888.408-1.268-.273.052-.525.183-.725.376 0 0 .075-.504.842-.547 0 0 .391-.541.496-.575 0 0-.764-.063-1.226.143 0 0 .407-.475 1.365-.26l.53-.438s-1.006-.133-1.431.014c0 0 .49-.42 1.575-.114l.584-.35s-.858-.184-1.368-.118c0 0 .54-.29 1.539.024l.417-.187s-.628-.124-.812-.144c-.185-.02-.194-.07-.194-.07.398-.067.806-.02 1.18.133 0 0 .896-.326.88-.382zM71.49 29.514s1.16-4.93-2.424-4.947c0 0-.595-.223-.97.287 0 0 .256.055.082.541-.06.172-.1.35-.119.532-.026.247.03.496.158.708 0 0 .335 1.502 2.518 2.443 0 0 .43.49.56.495l-.213-.903s-.654.182-1.118-.133c0 0 1.09.161 1.092 0 0-.033-.133-.473-.133-.473s-1.138.311-1.84-.195c0 0 1.273.367 1.791.028l-.238-.654s-1.193.39-2.01-.157c0 0 1.346.338 1.947.019l-.324-.61s-1.167.357-1.847-.101c0 0 1.59.23 1.763-.032 0 0-.331-.541-.489-.642 0 0-.843.236-1.214-.065 0 0 1.08.04 1.105-.074 0 0-.619-.588-1.09-.721.44.1.845.314 1.178.62-.005-.28-.09-.55-.247-.781 0 0 .483.16.398.93 0 0 .464.479.478.588 0 0 .193-.743.07-1.236 0 0 .397.483.022 1.394l.34.605s.307-.97.228-1.417c0 0 .33.555-.156 1.576l.245.637s.328-.816.349-1.33c0 0 .195.583-.286 1.517l.114.444s.228-.6.278-.777c.05-.178.102-.18.102-.18-.002.405-.116.8-.33 1.143 0 0 .174.928.23.921zM60.46 31.194s-4.045-3.034-5.49.253c0 0-.442.458-.125 1.007 0 0 .15-.214.53.141.134.125.283.234.442.324.217.121.467.168.712.133 0 0 1.506.291 3.24-1.345 0 0 .618-.199.677-.316l-.913-.16s-.096.673-.566.975c0 0 .581-.939.43-1.006-.03-.015-.486-.067-.486-.067s-.17 1.172-.912 1.615c0 0 .844-1.025.74-1.636l-.694-.037s-.118 1.248-.945 1.785c0 0 .845-1.102.796-1.783l-.687.056s-.14 1.214-.83 1.655c0 0 .847-1.372.674-1.632 0 0-.627.089-.782.192 0 0-.12.87-.545 1.09 0 0 .47-.977.375-1.044 0 0-.786.333-1.095.713.267-.364.625-.651 1.037-.834-.257-.107-.539-.137-.811-.085 0 0 .336-.38 1.002.006 0 0 .623-.235.729-.206 0 0-.603-.474-1.103-.557 0 0 .602-.172 1.284.532l.688-.07s-.765-.665-1.203-.777c0 0 .64-.08 1.378.773l.679.03s-.614-.627-1.077-.853c0 0 .609.053 1.271.868l.452.073s-.457-.45-.6-.566c-.143-.117-.123-.166-.123-.166.368.163.685.426.913.76 0 0 .921.214.938.16zM73.928 3.002s-4.045-3.035-5.491.253c0 0-.442.459-.125 1.007 0 0 .151-.214.53.141.135.125.284.233.444.323.217.121.467.168.712.133 0 0 1.506.291 3.24-1.346 0 0 .618-.198.675-.316L73 3.038s-.094.674-.566.976c0 0 .583-.938.432-1.006-.03-.015-.486-.067-.486-.067s-.175 1.175-.917 1.615c0 0 .843-1.025.74-1.636l-.694-.037s-.12 1.248-.945 1.784c0 0 .844-1.102.795-1.783l-.685.056s-.14 1.215-.831 1.656c0 0 .848-1.372.675-1.632 0 0-.627.089-.782.193 0 0-.12.869-.545 1.09 0 0 .47-.977.375-1.046 0 0-.786.334-1.095.715.267-.365.624-.653 1.037-.835-.257-.108-.54-.137-.813-.085 0 0 .338-.38 1.004.006 0 0 .622-.236.729-.206 0 0-.604-.474-1.103-.558 0 0 .6-.171 1.283.532l.688-.07s-.764-.665-1.204-.778c0 0 .64-.08 1.38.773l.679.03s-.614-.628-1.078-.852c0 0 .61.053 1.272.868l.451.073s-.459-.444-.602-.558c-.143-.115-.123-.165-.123-.165.369.163.685.426.913.76 0 0 .921.202.944.151zM89.385 6.848s-1.617-4.8-4.667-2.914c0 0-.623.133-.672.76 0 0 .245-.091.354.414.04.18.101.354.182.52.11.222.288.404.509.516 0 0 1.076 1.097 3.43.734 0 0 .621.189.735.124l-.662-.653s-.459.501-1.018.481c0 0 1.011-.44.928-.583-.018-.028-.364-.33-.364-.33s-.803.868-1.664.811c0 0 1.273-.364 1.533-.93l-.548-.424s-.804.96-1.788.93c0 0 1.325-.427 1.66-1.017l-.596-.344s-.795.921-1.62.892c0 0 1.474-.647 1.478-.961 0 0-.566-.283-.753-.286 0 0-.591.647-1.06.589 0 0 .938-.538.898-.649 0 0-.835-.171-1.305-.033.426-.149.882-.183 1.325-.1-.15-.234-.367-.418-.621-.531 0 0 .493-.121.823.575 0 0 .647.161.716.245 0 0-.228-.733-.593-1.086 0 0 .593.2.754 1.172l.607.332s-.25-.984-.552-1.329c0 0 .573.298.698 1.421l.544.41s-.152-.866-.406-1.315c0 0 .472.39.557 1.44l.33.316s-.122-.63-.173-.808c-.05-.178-.009-.19-.009-.19.21.344.322.741.322 1.145 0 0 .642.69.688.656zM78.832 7.084s-5.023-.56-4.608 3.013c0 0-.15.62.397.93 0 0 .023-.265.53-.146.18.04.363.057.546.055.248-.005.488-.09.683-.243 0 0 1.446-.515 2.12-2.807 0 0 .433-.485.423-.617l-.868.322s.265.628 0 1.128c0 0 .028-1.105-.132-1.087-.033 0-.452.191-.452.191s.445 1.097.029 1.86c0 0 .21-1.312-.19-1.785l-.616.319s.53 1.136.086 2.019c0 0 .173-1.38-.216-1.94l-.563.4s.493 1.117.12 1.85c0 0 .039-1.614-.243-1.751 0 0-.496.398-.577.563 0 0 .335.811.082 1.216 0 0-.089-1.08-.205-1.09 0 0-.51.686-.583 1.172.046-.45.208-.88.472-1.247-.276.038-.533.156-.743.339 0 0 .098-.499.867-.504 0 0 .418-.52.53-.548 0 0-.76-.102-1.232.08 0 0 .43-.454 1.377-.19l.558-.41s-1.009-.205-1.436-.072c0 0 .512-.4 1.58-.034l.6-.32s-.846-.229-1.36-.187c0 0 .553-.266 1.536.102l.426-.166s-.621-.156-.804-.185c-.183-.03-.19-.08-.19-.08.401-.046.807.02 1.172.192 0 0 .893-.286.884-.342zM122.783 46.183s-5.02-.561-4.606 3.009c0 0-.15.62.398.93 0 0 .022-.266.53-.147.18.04.362.058.546.054.248-.004.488-.09.683-.243 0 0 1.446-.514 2.114-2.806 0 0 .432-.486.422-.617l-.868.32s.265.63 0 1.13c0 0 .028-1.105-.132-1.087-.033 0-.452.19-.452.19s.445 1.097.029 1.861c0 0 .21-1.312-.19-1.786l-.616.32s.53 1.137.088 2.02c0 0 .17-1.38-.218-1.941l-.563.398s.493 1.118.12 1.85c0 0 .039-1.614-.243-1.75 0 0-.495.399-.577.564 0 0 .337.81.082 1.216 0 0-.089-1.08-.205-1.092 0 0-.51.688-.583 1.173.046-.45.208-.88.471-1.247-.275.037-.533.155-.742.339 0 0 .098-.5.867-.505 0 0 .419-.52.53-.546 0 0-.76-.104-1.232.078 0 0 .43-.453 1.378-.189l.557-.41s-.997-.19-1.43-.059c0 0 .511-.399 1.58-.034l.6-.32s-.847-.228-1.36-.187c0 0 .553-.266 1.535.103l.427-.168s-.622-.155-.805-.183c-.183-.028-.19-.08-.19-.08.401-.047.807.019 1.172.19 0 0 .896-.291.883-.348zM130.458 50.885s-5.02-.56-4.605 3.01c0 0-.149.619.397.93 0 0 .023-.266.53-.147.18.04.362.057.545.054.247-.005.485-.09.68-.242 0 0 1.445-.515 2.113-2.807 0 0 .433-.486.423-.617l-.869.32s.266.63 0 1.13c0 0 .028-1.105-.132-1.087-.033 0-.452.19-.452.19s.445 1.096.03 1.86c0 0 .209-1.311-.19-1.784l-.617.319s.53 1.136.088 2.018c0 0 .17-1.38-.218-1.939l-.563.399s.493 1.118.122 1.85c0 0 .037-1.615-.245-1.75 0 0-.495.398-.577.563 0 0 .337.811.082 1.216 0 0-.088-1.08-.205-1.09 0 0-.509.686-.582 1.171.046-.45.208-.879.47-1.246-.274.038-.532.156-.742.339 0 0 .1-.5.869-.504 0 0 .417-.52.53-.548 0 0-.76-.102-1.233.08 0 0 .43-.454 1.379-.19l.556-.41s-.996-.19-1.43-.06c0 0 .512-.398 1.58-.032l.6-.32s-.847-.23-1.36-.188c0 0 .553-.266 1.535.102l.427-.166s-.621-.155-.803-.185c-.182-.029-.19-.08-.19-.08.4-.045.805.02 1.17.192 0 0 .9-.294.887-.35zM113.418 11.276s-4.046-3.034-5.492.253c0 0-.441.458-.124 1.007 0 0 .15-.214.53.141.134.125.283.234.443.324.216.121.466.168.711.133 0 0 1.506.291 3.241-1.345 0 0 .618-.2.676-.316l-.91-.165s-.096.674-.567.976c0 0 .582-.939.431-1.006-.03-.015-.485-.067-.485-.067s-.17 1.172-.913 1.615c0 0 .844-1.025.74-1.636l-.694-.037s-.118 1.248-.945 1.785c0 0 .846-1.102.796-1.783l-.687.056s-.133 1.214-.83 1.655c0 0 .848-1.372.674-1.632 0 0-.627.089-.782.192 0 0-.12.87-.544 1.09 0 0 .47-.977.374-1.044 0 0-.786.333-1.095.713.267-.364.625-.651 1.037-.834-.257-.107-.539-.137-.812-.085 0 0 .338-.38 1.004.006 0 0 .621-.235.727-.206 0 0-.603-.474-1.102-.557 0 0 .601-.172 1.284.532l.688-.07s-.764-.665-1.204-.777c0 0 .64-.08 1.379.773l.68.03s-.615-.627-1.078-.853c0 0 .61.053 1.271.868l.452.073s-.457-.45-.6-.566c-.143-.117-.122-.156-.122-.156.368.164.684.427.912.76 0 0 .918.208.936.153zM116.543 33.183s-1.394-4.869-4.53-3.121c0 0-.629.097-.707.727 0 0 .25-.078.335.43.032.183.086.362.16.532.098.23.268.42.485.542 0 0 1.026 1.144 3.393.888 0 0 .612.216.729.157l-.627-.683s-.481.481-1.038.436c0 0 1.028-.399.949-.541-.016-.03-.347-.347-.347-.347s-.84.832-1.7.735c0 0 1.29-.306 1.574-.856l-.53-.45s-.846.923-1.828.852c0 0 1.336-.369 1.704-.941l-.58-.371s-.842.884-1.658.817c0 0 1.501-.58 1.52-.893 0 0-.554-.308-.74-.319 0 0-.62.62-1.09.54 0 0 .962-.496.927-.608 0 0-.827-.208-1.303-.093.431-.128.888-.141 1.326-.038-.14-.24-.348-.435-.597-.559 0 0 .499-.1.796.612 0 0 .637.188.704.276 0 0-.195-.743-.544-1.11 0 0 .583.225.701 1.203l.591.36s-.206-.996-.493-1.347c0 0 .56.323.635 1.45l.53.434s-.112-.871-.346-1.329c0 0 .455.412.492 1.462l.316.333s-.093-.636-.133-.816c-.04-.181 0-.206 0-.206.196.353.29.754.272 1.158 0 0 .604.716.652.684zM85.472 44.153s-2.707-4.277-5.222-1.717c0 0-.575.266-.474.897 0 0 .218-.146.444.32.08.164.181.318.3.459.157.192.374.326.616.383 0 0 1.305.808 3.505-.107 0 0 .648.035.744-.054l-.795-.479s-.328.599-.875.712c0 0 .877-.665.76-.787-.023-.024-.431-.234-.431-.234s-.574 1.034-1.425 1.184c0 0 1.152-.658 1.27-1.267l-.634-.28s-.553 1.123-1.515 1.329c0 0 1.18-.73 1.372-1.384l-.663-.191s-.56 1.086-1.361 1.252c0 0 1.278-.98 1.207-1.287 0 0-.617-.14-.795-.097 0 0-.42.77-.895.826 0 0 .785-.747.72-.845 0 0-.852.033-1.276.279.378-.246.814-.388 1.264-.412-.201-.192-.454-.32-.727-.369 0 0 .449-.235.927.363 0 0 .663 0 .755.067 0 0-.398-.665-.834-.913 0 0 .623.053 1.01.958l.67.178s-.48-.897-.852-1.154c0 0 .627.152 1.015 1.214l.626.266s-.352-.804-.706-1.18c0 0 .551.265.881 1.263l.398.23s-.265-.583-.36-.744c-.094-.16-.057-.198-.057-.198.287.284.49.643.585 1.035 0 0 .793.53.828.484z" opacity=".1"/>
        <path fill="#FF9797" d="M103.269 22.3s-2.575-4.358-5.17-1.878c0 0-.583.252-.5.882 0 0 .221-.14.433.331.076.168.172.326.285.47.152.197.365.337.604.4 0 0 1.28.848 3.507 0 0 0 .647.054.745-.032l-.778-.503s-.344.586-.896.683c0 0 .898-.642.785-.762-.024-.026-.424-.249-.424-.249s-.606 1.017-1.458 1.14c0 0 1.172-.622 1.308-1.225l-.625-.295s-.588 1.107-1.557 1.284c0 0 1.203-.693 1.415-1.34l-.655-.213s-.594 1.064-1.4 1.21c0 0 1.307-.941 1.246-1.248 0 0-.612-.16-.795-.122 0 0-.444.756-.92.797 0 0 .807-.72.746-.821 0 0-.853.006-1.284.239.386-.234.826-.362 1.276-.372-.196-.198-.445-.334-.717-.391 0 0 .458-.222.928.39 0 0 .663.023.752.091 0 0-.375-.664-.805-.938 0 0 .62.071.98.989l.662.199s-.45-.912-.815-1.18c0 0 .623.171.978 1.244l.617.288s-.328-.815-.663-1.196c0 0 .542.283.843 1.29l.388.242s-.249-.591-.336-.755c-.088-.163-.05-.199-.05-.199.277.293.468.657.552 1.053 0 0 .76.54.798.497zM86.975 31.464s.133-5.064-3.375-4.35c0 0-.629-.097-.894.48 0 0 .265 0 .191.511-.024.183-.027.368-.008.55.024.249.129.483.298.665 0 0 .633 1.401 2.967 1.877 0 0 .518.392.648.37l-.398-.84s-.603.312-1.121.1c0 0 1.1-.065 1.07-.227 0-.033-.229-.437-.229-.437s-1.052.538-1.84.185c0 0 1.325.1 1.758-.338l-.37-.589s-1.084.622-1.998.255c0 0 1.385.056 1.91-.378l-.442-.532s-1.07.587-1.827.276c0 0 1.606-.097 1.723-.39 0 0-.435-.461-.61-.532 0 0-.777.399-1.2.183 0 0 1.06-.178 1.066-.296 0 0-.725-.45-1.214-.484.451.008.892.135 1.279.367-.06-.272-.199-.52-.398-.714 0 0 .505.058.574.824 0 0 .553.375.589.479 0 0 .038-.767-.183-1.224 0 0 .488.392.305 1.36l.454.523s.104-1.013-.062-1.434c0 0 .435.477.167 1.575l.367.573s.157-.865.073-1.374c0 0 .308.531.027 1.543l.201.412s.102-.634.115-.819c.014-.185.064-.197.064-.197.08.397.048.808-.091 1.187 0 0 .356.877.414.86z"/>
        <ellipse cx="92.775" cy="95.204" fill="#FF9797" opacity=".1" rx="3.569" ry="1"/>
        <ellipse cx="79.764" cy="104.386" fill="#FF9797" opacity=".1" rx="3.569" ry="1"/>
        <ellipse cx="12.478" cy="99.682" fill="#FF9797" opacity=".1" rx="3.569" ry="1"/>
        <ellipse cx="106.837" cy="103.781" fill="#FF9797" opacity=".1" rx="3.569" ry="1"/>
        <ellipse cx="110.553" cy="96.108" fill="#FF9797" rx="5.33" ry="1"/>
        <path fill="#FF9797" d="M112.763 94.629c.243-.198.42-.466.507-.768.067-.306-.063-.672-.353-.783-.327-.125-.675.1-.94.33-.265.228-.566.49-.912.442.361-.329.524-.824.43-1.304-.016-.098-.057-.19-.12-.266-.182-.194-.509-.11-.726.043-.69.486-.882 1.425-.886 2.27-.069-.304-.01-.622-.012-.93 0-.309-.087-.665-.35-.827-.163-.09-.346-.136-.531-.133-.31-.01-.656.02-.867.247-.265.282-.195.757.033 1.064.228.307.577.505.898.72.256.154.476.363.641.613.019.034.035.07.047.109h1.943c.435-.22.838-.498 1.198-.827z"/>
        <path fill="#A8A8A8" d="M10.081 96.871s2.035-.062 2.651-.5c.616-.44 3.132-.962 3.284-.259.153.703 3.06 3.494.761 3.513-2.298.019-5.34-.359-5.952-.734-.613-.374-.744-2.02-.744-2.02z"/>
        <path fill="#000" d="M16.816 99.38c-2.299.02-5.34-.358-5.953-.733-.466-.285-.652-1.307-.714-1.779h-.068s.133 1.647.741 2.02c.608.374 3.654.753 5.953.734.662 0 .892-.241.88-.592-.093.214-.346.347-.84.35z" opacity=".2"/>
    </g>
</svg>
