<svg xmlns="http://www.w3.org/2000/svg" width="264" height="240" viewBox="0 0 264 240">
    <defs>
        <linearGradient id="prefix__a" x1="49.995%" x2="49.995%" y1="99.994%" y2="0%">
            <stop offset="0%" stop-color="gray" stop-opacity=".25"/>
            <stop offset="54%" stop-color="gray" stop-opacity=".12"/>
            <stop offset="100%" stop-color="gray" stop-opacity=".1"/>
        </linearGradient>
    </defs>
    <g fill="none">
        <path fill="var(--color1)" d="M92.668 8.539c8.41-7.484 21.61-9.019 33.627-8.423 37.741 1.877 71.809 20.092 101.278 40.699 10.67 7.458 21.173 15.498 28.097 25.77 14.107 20.913 9.915 49.882-9.685 67.11-6.671 5.86-14.755 10.362-23.056 14.337-14.757 7.081-30.681 12.766-47.432 14.393-11.942 1.15-24.034.215-35.91-1.394-33.175-4.507-65.734-14.455-93.035-31.473-11.971-7.464-23.254-16.744-28.189-28.813-4.934-12.07-1.776-27.383 10.448-34.542 5.056-2.956 11.102-4.292 17.018-5.547 8.712-1.845 17.562-3.664 25.422-7.415 8.122-3.874 17.735-11.367 16.122-19.945-1.716-9.19-3.103-17.273 5.295-24.757z" opacity=".1"/>
        <ellipse cx="107.433" cy="234.128" fill="var(--color1)" opacity=".1" rx="34.1" ry="5.872"/>
        <ellipse cx="174.167" cy="190.092" fill="var(--color1)" opacity=".1" rx="34.1" ry="5.872"/>
        <path fill="#B77B7F" d="M176.733 114.668L176.702 115.784 174.799 184.22 171.6 184.22 173.168 115.784 173.199 114.495z"/>
        <path fill="#DDA2A6" d="M195.8 172.477L193.378 172.472 157.385 172.402 155.467 172.4 156.489 169.541 195.544 169.541z"/>
        <path fill="#000" d="M176.733 113.958L176.708 115.229 173.8 115.229 173.825 113.761z" opacity=".1"/>
        <path fill="#B77B7F" d="M172.333 112.294H178.2V115.22999999999999H172.333z"/>
        <path fill="#000" d="M157.667 169.541L157.249 172.477 154.733 172.474 156.073 169.541z" opacity=".1"/>
        <path fill="#DDA2A6" d="M162.067 113.028L161.967 114.019 153.988 193.761 150.333 193.586 158.742 114.019 158.835 113.114z"/>
        <path fill="#000" d="M195.8 172.477L193.216 172.472 192.867 169.541 195.527 169.541z" opacity=".1"/>
        <path fill="#DDA2A6" d="M199.467 193.586L195.809 193.761 187.833 114.019 187.733 113.028 190.962 113.114 191.056 114.019z"/>
        <path fill="#FFF" d="M133.467 34.495H214.86700000000002V112.293H133.467z"/>
        <path fill="#DDA2A6" d="M175.999 8.265v18.891h-2.931V8.266c-.023-.585.251-1.136.714-1.436.463-.3 1.04-.3 1.503 0 .462.3.737.85.714 1.435z"/>
        <path fill="#000" d="M173.067 25.688H176V27.156H173.067z" opacity=".1"/>
        <path fill="#DDA2A6" d="M177.467 26.499v6.529H171.6v-6.53c0-.214.083-.421.234-.573.15-.153.355-.238.568-.237h4.268c.441.003.797.365.797.81z"/>
        <ellipse cx="175.267" cy="30.092" fill="#000" opacity=".1" rx="1.467" ry="1.468"/>
        <ellipse cx="175.267" cy="29.358" fill="#B77B7F" rx="1.467" ry="1.468"/>
        <path fill="#000" d="M171.6 32.294H177.46699999999998V33.294H171.6z" opacity=".1"/>
        <path fill="#000" d="M170.133 33.028H180.4V34.495999999999995H170.133z" opacity=".1"/>
        <path fill="#DDA2A6" d="M170.133 33.028H180.4V34.495999999999995H170.133z"/>
        <path fill="#000" d="M153.664 110.092h43.205c1.03 0 1.864 1.078 1.864 2.41v.526H151.8v-.527c0-1.33.835-2.41 1.864-2.41zM159.216 113.156L162.067 113.028 161.979 114.495 159.133 114.495zM172.333 113.028H178.2V114.028H172.333zM191.4 114.495L188.555 114.495 188.467 113.028 191.317 113.156z" opacity=".1"/>
        <path fill="#DDA2A6" d="M153.664 110.826h43.205c1.03 0 1.864 1.078 1.864 2.41v.525H151.8v-.526c0-.639.196-1.252.546-1.704.35-.451.824-.705 1.318-.705z"/>
        <path fill="url(#prefix__a)" d="M144.606 74.518c-.65-.346-7.742-5.721-7.742-5.721l-11.445-7.284s-.06-.173-.169-.47c3.14-3.576 2.455-8.768-.74-12.417-3.871-4.426-21.363-13.955-26.634-5.805-.737 1.151-.763 2.458-.955 3.724-.45 2.956-1.901 5.82-4.178 8.23-1.755 1.863-4.058 3.578-5.067 5.684 0-.025-.02-.051-.029-.08-.244.451-.42.936-.525 1.439-.501 2.57 1.22 5.033 2.134 7.534.307.847.53 1.722.665 2.613.023-.178.043-.354.063-.532.223 1.268.3 2.558.227 3.844-6.352 1.298-6.355 12.202-6.355 12.202s-.783 4.334-.65 5.897c.131 1.563.128 4.941.128 5.756 0 .814-.783 5.894-.86 6.504v.026c-.115.667-1.305 3.885 1.571 4.604.201.052.413.095.634.135.123 2.605.347 8.058.15 9.273 0 0 1.046 7.327 1.915 9.189.55 1.091 1.192 2.133 1.921 3.113-.063.447-.213.876-.442 1.264-.444.642-.215 1.168.528 1.396l-.086.754c-.318 2.826-.794 8.443.014 11.29 1.11 3.902 1.176 5.202 1.176 5.202s0 1.169.459 1.82c.459.65 1.305 6.699 1.305 7.674 0 .976 2.22 9.753 1.565 11.834-.653 2.08-.129 5.008-.129 5.008s-.392 5.136-.86 6.242c-.467 1.105-.654 18.921.063 23.537.717 4.616 1.176 8.453 1.176 8.453s-.456 4.227-.066 4.811c.39.584 1.11 4.098.588 4.291-.522.193-.783 1.626-.783 1.626.276.421.574.827.892 1.217-.201-.07-.398-.154-.588-.25.206.288.516.696.898 1.151l-.359 4.677c-.031.376.21.721.574.82 2.333.636 4.825-.067 6.486-1.83 3.263-3.316 4.373-2.861 4.961-4.876.063-.215.118-.428.164-.63.421-1.796-1.486-3.13-3.003-2.365.21-1.422.373-3.036.215-3.949-.327-1.885-.26-6.826-.26-6.826l-.457-23.67s.846-4.682 1.827-6.501c.98-1.819.86-8.193.86-8.193l1.11-20.94 1.044-10.207s1.044-3.511 2.348.391c0 0-.717 7.865-.39 9.753.327 1.888.783 11.054.456 13.068-.327 2.015-1.76 13.072-.86 15.866.9 2.794 1.904 6.182 1.703 7.29-.2 1.107-.86 25.097-.86 25.097s1.764 4.605.459 6.113-.066 7.482-.066 7.482.158.112.427.268l-.037.497-.41 5.38c-.03.376.21.721.573.822 2.334.637 4.827-.066 6.487-1.83 3.263-3.318 4.373-2.86 4.96-4.878.064-.216.118-.426.167-.63.46-1.96-1.864-3.382-3.418-2.101l-.077.066c-.082.07-.167.134-.256.193-.04.03-.084.058-.129.083.327-1.485.803-4.029.574-5.22-.327-1.755.324-7.085.324-7.085s1.893-6.375 1.959-8.922l.521-20.285s-.063-8.26.198-10.274c.261-2.015 2.349-19.443 4.436-24.646 1.603-3.983 2.32-14.147 1.896-19.302-.023-.253-.046-.497-.075-.725 2.561-1.896 2.816-5.05 2.816-5.05s-2.351-4.507-4.614-6.415c-2.262-1.908-2.75-5.189-2.67-6.585.04-.85-.24-1.684-.782-2.34 0 0-1.044-3.38-1.74-3.726-.058-.03-.11-.068-.153-.115-.473-.51-.109-1.966-.109-1.966v-.046c.083-.336.574-2.518.427-3.076-.174-.605.087-3.468.087-3.468s1.654-4.941 1.393-8.844c-.26-3.902 3.395-3.554 3.395-3.554l11.29-.118h1.285c.453-.386.867-.816 1.236-1.283 2.15-.256 6.5-1.07 6.988-3.454.663-3.162-2.036-6.371-2.69-6.72zm-52.305 36.076l.078-1.983c.266.23.444.377.444.377.144.52.151 1.067.02 1.589-.142.497-.502.902-.978 1.1-.054.023-.107.051-.157.083l-.11-1.12.703-.046zm40.95-34.822c-.48-.215-2.09-.172-2.92-.172-.828 0-2.173-.694-2.173-.694-.287-.561-1.873-.895-3.284-1.085-1.072-2.653-2.58-5.24-2.784-8.006 0-.1 0-.201-.014-.302l.163.288s6.573 4.207 7.312 5.468c.574.96 3.335 3.108 4.614 4.069-.176.23-.423.396-.702.472-.073.008-.147-.005-.212-.038z"/>
        <path fill="#67647E" d="M122.417 229.948c-.048.191-.098.39-.16.592-.558 1.91-1.627 1.467-4.745 4.584-1.584 1.658-3.978 2.322-6.218 1.724-.354-.092-.59-.418-.558-.775l.394-5.056.187-2.432s4.98 1.363 7.515-.368c.085-.057.167-.118.246-.183.02-.017.038-.035.056-.054.67-.543 1.62-.608 2.362-.163.742.445 1.112 1.302.92 2.131zM106.283 228.48c-.047.191-.097.39-.159.592-.558 1.91-1.627 1.467-4.746 4.584-1.583 1.659-3.978 2.322-6.217 1.724-.354-.092-.59-.418-.558-.775l.393-5.055.187-2.433s4.98 1.364 7.516-.368c.085-.057.167-.118.245-.183.02-.017.039-.035.056-.054.671-.543 1.62-.608 2.363-.163.742.445 1.112 1.302.92 2.132z"/>
        <path fill="#000" d="M100.997 228.355l.203 2.628c-2.888 2.79-6.326-1.363-7.333-2.726 2.648 1.32 7.13.098 7.13.098zM118.402 229.841l.392-.233c-2.734 3.723-6.795 2.006-8.06 1.338l.195-2.336s5.216 1.31 7.871-.353c-.208.911-.398 1.584-.398 1.584z" opacity=".1"/>
        <path fill="#444053" d="M126.362 152.256c-2.048 5.164-4.093 22.464-4.35 24.48-.257 2.017-.191 10.202-.191 10.202l-.514 20.129c-.065 2.52-1.92 8.847-1.92 8.847s-.638 5.294-.319 7.036c.32 1.743-.83 6.337-.83 6.337l.382-.26c-3.198 4.897-8.25 1.227-8.25 1.227s-1.215-5.938.066-7.425c1.281-1.486-.448-6.068-.448-6.068s.64-23.824.83-24.921c.192-1.098-.767-4.456-1.663-7.232-.895-2.777.514-13.753.833-15.754.32-2.002-.128-11.106-.447-12.978-.32-1.872.382-9.686.382-9.686-1.278-3.874-2.302-.386-2.302-.386l-1.024 10.135-1.087 20.792s.128 6.336-.83 8.136c-.959 1.8-1.792 6.454-1.792 6.454l.448 23.505s-.062 4.896.257 6.777c.32 1.88-.705 6.716-.705 6.716-3.58 8.516-9.33-.717-9.33-.717s.257-1.42.767-1.613c.51-.193-.191-3.68-.57-4.263-.38-.581.062-4.778.062-4.778s-.447-3.807-1.14-8.392c-.694-4.585-.511-22.275-.063-23.372.447-1.098.83-6.198.83-6.198s-.51-2.906.128-4.974c.639-2.068-1.535-10.78-1.535-11.75 0-.971-.83-6.974-1.278-7.619-.447-.645-.447-1.808-.447-1.808s-.063-1.29-1.141-5.164c-.793-2.829-.326-8.405-.015-11.213.112-1.04.209-1.702.209-1.702s36.675-6.005 38.138-4.648c.342.32.57 1.417.704 2.98.437 5.116-.282 15.225-1.845 19.168z"/>
        <path fill="#000" d="M112.2 181.57c.17 0 4.193.88 5.666.11 1.474-.77-5.666-.11-5.666-.11zM112.933 183.487s5.573 1.164 5.857.558c.285-.605-5.857-.558-5.857-.558zM95.333 182.018s2.692.18 4.157 1.2c1.465 1.02-4.157-1.2-4.157-1.2z" opacity=".1"/>
        <path fill="#EFB7B9" d="M85.067 110.179s.47 9.087.215 10.696c0 0 1.027 7.35 1.885 9.218.858 1.868 2.702 4.219 2.702 4.219l2.531-18.04-.603-6.18-6.73.087z"/>
        <ellipse cx="111.1" cy="59.083" fill="#EFB7B9" rx="9.9" ry="9.908"/>
        <path fill="#EFB7B9" d="M106.35 63.466s-3.154 6.107-6.308 8.963c-3.154 2.856 18.924 6.103 19.448 6.103.525 0-3.942-12.986-3.154-14.553.789-1.567-9.986-.513-9.986-.513z"/>
        <path fill="#000" d="M127.6 133.19c-.488.384-1.027.695-1.6.922-3.97 1.6-8.29 3.82-11.224 2.934-2.936-.886-9.153 0-9.153 0S93.1 135.979 90.6 136.6c-1.138.282-2.022.27-2.6.068.113-1.073.21-1.756.21-1.756s37.189-6.198 38.67-4.798c.353.33.578 1.463.72 3.077z" opacity=".1"/>
        <path fill="#A36468" d="M131.267 126.969s-.343 4.266-4.308 5.8c-3.964 1.536-8.266 3.667-11.193 2.817-2.927-.85-9.127 0-9.127 0s-12.49-1.024-14.982-.428c-2.492.596-3.791-.168-3.016-1.278.775-1.11.691-4.777.691-6.312 0-1.535-.864-7.76-.09-8.87.776-1.11 1.464-5.373 3.014-6.058.472-.197.828-.595.968-1.082.129-.513.122-1.05-.02-1.56 0 0-.262-.214-.622-.531-.913-.808-2.458-2.306-1.962-2.796.689-.685 0-5.12 0-5.12s-1.637-3.409-1.032-4.687c.606-1.278-5.255-8.018-5.255-8.018s0-11.596 7.062-12.11c0 0 4.996.172 5.598-2.045.602-2.217 4.564-3.498 4.564-3.498l9.043 1.963s8.007 1.712 9.474.682c1.466-1.03 2.593 1.364 2.593 1.364s4.993.256 5.508 1.28c.516 1.025-1.633 11-1.633 11s-3.619-.34-3.36 3.498c.26 3.838-1.394 8.7-1.394 8.7s-.26 2.813-.087 3.41c.162.55-.34 2.696-.42 3.027v.043s-.36 1.427.106 1.934c.044.046.094.085.15.115.692.34 1.729 3.666 1.729 3.666.538.646.814 1.466.775 2.303-.084 1.366.432 4.605 2.67 6.482 2.24 1.878 4.556 6.309 4.556 6.309z"/>
        <path fill="#A36468" d="M92.4 107.086v.361l-.145 3.987s-4.93.424-7.614-.285-1.555-3.873-1.448-4.527v-.026c.078-.598.804-5.575.804-6.384 0-.809 0-4.129-.12-5.66-.121-1.533.59-5.8.59-5.8l.52-.679 5.646 2.298 1.767 16.715z"/>
        <path fill="#000" d="M92.4 108.015l-.145 4.148s-4.93.441-7.614-.297c-2.684-.737-1.555-4.029-1.448-4.71l9.207.86z" opacity=".1"/>
        <path fill="#000" d="M92.304 111.56c.128-.485.12-.992-.02-1.473 0 0-.26-.202-.617-.501 4.527-.595 22.456-2.91 28.494-3.164v.04s-.358 1.347.106 1.826l-27.963 3.272zM121.608 114.495s1.03 6.516-2.808 8.808c-.003.012 2.175-3.22 2.808-8.808zM94.6 123.642s10.264-2.068 12.273-.462c2.009 1.606-12.273.462-12.273.462zM118.456 84.404s-2.12 6.437-.532 7.915c1.588 1.479.532-7.915.532-7.915zM88.776 79.266s1.173 2.283.462 4.65c-.712 2.367-.462-4.65-.462-4.65zM85.8 99.817s1.995 1.006 1.331 2.58c-.664 1.573-1.331-2.58-1.331-2.58zM85.8 94.679s1.933 1.047 2.182 2.59c.25 1.544-2.182-2.59-2.182-2.59zM110.733 145.85s11.001.957 13.2-1.263c0 .013-9.922 1.685-13.2 1.263zM92.4 146.055s11.634 2.858 13.933.598c0 0-9.997.783-13.933-.598zM111.467 149.88s4.776 0 6.99.33c2.213.33-6.99-.33-6.99-.33zM93.867 151.927s2.167 3.487 4.617 2.86c2.45-.627-4.617-2.86-4.617-2.86z" opacity=".1"/>
        <path fill="#E3787D" d="M98.577 44.253c-.727 1.127-.753 2.433-.942 3.684-.443 2.923-1.877 5.755-4.122 8.142-2.061 2.186-4.887 4.168-5.422 6.84-.505 2.535 1.21 4.977 2.11 7.458 2.372 6.51-.94 13.338-1.905 20.057-.268 1.856.054 4.229 2.345 4.846.716.195 1.535.169 2.179.479.862.413 1.127 1.27 1.285 2.042.576 2.76.776 5.587.592 8.4-.104 1.578-.219 3.395 1.276 4.479.678.496 1.593.749 2.475.987 2.354.634 5.398 1.147 6.985-.342.667-.622.917-1.5 1.747-1.993 1.245-.738 3.01-.239 4.576-.161 3.217.16 6.172-1.721 7.44-3.99 1.267-2.27 1.15-4.878.69-7.325-.46-2.447-1.283-4.877-1.34-7.362-.02-.86.057-1.735.552-2.499.957-1.477 3.185-2.148 4.708-3.31 2.854-2.18 2.846-5.753 1.808-8.742-1.038-2.99-2.9-5.855-3.13-8.945-.103-.747.046-1.507.422-2.16.408-.629 1.121-1.1 1.725-1.619 4.165-3.511 3.673-9.278.23-13.225-3.812-4.375-21.081-13.8-26.284-5.741z"/>
        <g fill="#000" opacity=".1">
            <path d="M2.937 19.03c.322-2.616.262-5.209-.652-7.756-.45-1.25-1.103-2.49-1.578-3.742-.238.453-.41.938-.513 1.44-.502 2.544 1.2 4.993 2.09 7.483.301.835.52 1.698.653 2.576zM6.74 47.214c.182-2.823-.014-5.657-.583-8.427-.16-.774-.422-1.632-1.277-2.047-.638-.31-1.45-.287-2.16-.48-.883-.214-1.618-.828-1.994-1.664-.13.656-.245 1.31-.339 1.966-.264 1.862.055 4.242 2.325 4.861.71.193 1.521.167 2.16.478.854.415 1.116 1.275 1.276 2.05.261 1.284.444 2.583.547 3.89.02-.212.031-.42.046-.627zM31.025 46.192c-1.26 2.286-4.188 4.165-7.376 4.004-1.553-.08-3.302-.576-4.533.161-.823.492-1.074 1.376-1.735 2-1.572 1.483-4.59.98-6.923.343-.874-.242-1.777-.492-2.453-.99-.643-.478-1.077-1.19-1.21-1.986.017.884 0 1.77-.054 2.654-.103 1.583-.217 3.405 1.264 4.496.676.495 1.579.748 2.453.987 2.334.636 5.35 1.151 6.923-.343.661-.624.912-1.505 1.735-2.014 1.231-.74 2.98-.24 4.533-.162 3.188.162 6.117-1.727 7.376-4.003 1.208-2.2 1.154-4.686.732-7.06-.159.667-.405 1.311-.732 1.913zM36.42 4.107c-.61.518-1.316.993-1.709 1.624-.373.655-.52 1.417-.419 2.167.083.942.28 1.87.587 2.763.475-.511.995-.978 1.553-1.393 2.792-2.38 3.47-5.797 2.564-8.986-.478 1.498-1.372 2.826-2.575 3.825zM35.592 25.628c-1.508 1.165-3.718 1.842-4.664 3.324-.493.766-.57 1.65-.55 2.504.035 1.007.157 2.008.365 2.993.054-.116.115-.229.185-.336.946-1.483 3.156-2.156 4.664-3.322 2.584-1.997 2.8-5.158 2.037-7.975-.388 1.12-1.097 2.1-2.037 2.812z" transform="translate(87.267 54.312)"/>
        </g>
        <path fill="#EFB7B9" d="M138.468 85.872s7.453-.383 8.099-3.497c.645-3.113-2.018-6.278-2.67-6.612-.65-.334-7.677-5.631-7.677-5.631l-11.327-7.164s-5.428-15.412-6.63-9.513c-1.201 5.9 3.49 13.734 3.49 13.734s6.503 4.138 7.235 5.374c.732 1.236 5.214 4.478 5.214 4.478l4.266 8.83z"/>
        <path fill="#A36468" d="M142.804 81.787c-1.726 4.427-3.963 6.173-3.963 6.173h-1.244l-10.936.113-1.261-3.476 1.771-7.533 1.095.046s1.309.68 2.107.68c.798 0 2.364-.043 2.82.168.065.032.136.043.207.031.414-.042.846-.669.846-.669s10.287.043 8.558 4.467z"/>
        <path fill="#000" d="M142.806 80.96c-1.712 4.575-3.93 6.38-3.93 6.38h-1.233c.643-1.813 2-5.533 2.517-6.392.506-.813-4.036-2.834-6.693-3.926.41-.044.839-.692.839-.692s10.215.056 8.5 4.63z" opacity=".1"/>
        <ellipse cx="51.7" cy="36.33" fill="var(--color1)" opacity=".1" rx="9.167" ry="9.174"/>
        <ellipse cx="32.633" cy="14.312" fill="var(--color1)" opacity=".1" rx="5.5" ry="5.505"/>
        <ellipse cx="3.667" cy="26.422" fill="var(--color1)" opacity=".1" rx="3.667" ry="3.67"/>
    </g>
</svg>
