<svg xmlns="http://www.w3.org/2000/svg" width="18" height="19" viewBox="0 0 18 19">
    <g fill="none" fill-rule="evenodd">
        <path d="M-5-6h30v30H-5z"/>
        <path fill="#DFBD51" fill-rule="nonzero" d="M17.293 13.593c-1.618-1.406-3.116-3.39-3.116-8.344 0-2.87-2.322-5.203-5.177-5.203-2.855 0-5.177 2.334-5.177 5.203 0 4.958-1.497 6.94-3.116 8.346A2.065 2.065 0 0 0 0 15.147a.59.59 0 0 0 .589.592h5.589A2.892 2.892 0 0 0 9 18.046c1.388 0 2.55-.991 2.822-2.307h5.59a.59.59 0 0 0 .588-.592c0-.598-.258-1.165-.707-1.554zM9 17.54c-.733 0-1.36-.75-1.6-1.8h3.2c-.24 1.05-.867 1.8-1.6 1.8zm-7.59-2.983a.87.87 0 0 1 .068-.067C3.948 12.347 5 9.583 5 5.249c0-2.217 1.795-4.02 4-4.02s4 1.803 4 4.02c0 4.33 1.053 7.094 3.523 9.24.024.021.047.043.068.067H1.41z"/>
    </g>
</svg>
