<svg width="11" height="11" viewBox="0 0 11 11" xmlns="http://www.w3.org/2000/svg">
    <path d="M.268 5.845 5.46.66c.184-.184.43-.34.74-.469C6.51.064 6.795 0 7.05 0h3.02c.252 0 .47.092.654.276A.893.893 0 0 1 11 .929v3.02c0 .257-.064.54-.192.85-.129.31-.285.555-.469.734L5.148 10.73a.89.89 0 0 1-.654.269.93.93 0 0 1-.66-.269L.269 7.16A.89.89 0 0 1 0 6.506a.93.93 0 0 1 .268-.661zm7.896-3.01c.205.205.452.308.74.308.29 0 .537-.103.741-.307a1.01 1.01 0 0 0 .307-.74c0-.29-.102-.537-.307-.741a1.01 1.01 0 0 0-.74-.307c-.29 0-.536.102-.741.307a1.01 1.01 0 0 0-.307.74c0 .29.102.536.307.74z" fill="#00977B" fill-rule="nonzero"/>
</svg>
