<svg width="14" height="14" viewBox="0 0 14 14" xmlns="http://www.w3.org/2000/svg">
    <g fill="none" fill-rule="evenodd">
        <path d="M6.927.219a.57.57 0 0 0-.206.038.981.981 0 0 0-.343.25c-.115.12-.216.255-.318.386-.196.251-.425.538-.741.632-.316.094-.663-.023-.962-.127-.156-.055-.314-.113-.474-.152a.972.972 0 0 0-.423-.022.572.572 0 0 0-.346.224.995.995 0 0 0-.156.398c-.032.163-.045.332-.06.498-.03.318-.07.685-.285.936-.216.252-.57.343-.878.418-.16.04-.324.076-.48.132a.978.978 0 0 0-.367.211.58.58 0 0 0-.171.378c-.01.143.03.288.082.42.06.155.14.304.216.451.145.285.309.614.262.944-.047.33-.296.6-.515.83-.114.12-.232.241-.333.373a.992.992 0 0 0-.196.378.585.585 0 0 0 .059.412c.068.125.18.225.293.307.134.098.281.18.424.263.274.16.589.348.726.65.137.303.072.666.012.98-.032.163-.067.329-.081.495a.998.998 0 0 0 .038.426.581.581 0 0 0 .27.314.973.973 0 0 0 .411.098c.165.009.332-.002.497-.01.316-.016.682-.029.959.151.277.18.417.52.535.818.06.154.12.313.197.46.065.126.146.25.26.338a.573.573 0 0 0 .395.117.974.974 0 0 0 .399-.142c.143-.083.278-.184.412-.28.258-.186.558-.396.888-.396.33 0 .63.21.888.396.134.096.269.197.412.28.122.07.258.13.4.142a.57.57 0 0 0 .395-.117.988.988 0 0 0 .26-.338c.076-.147.135-.306.197-.46.117-.297.257-.638.534-.818.277-.18.643-.167.96-.151.164.008.331.019.496.01a.974.974 0 0 0 .412-.098.575.575 0 0 0 .27-.314.998.998 0 0 0 .038-.426c-.015-.166-.05-.332-.081-.495-.06-.314-.125-.677.012-.98.136-.302.45-.49.725-.65.143-.083.29-.165.424-.263a.986.986 0 0 0 .294-.307.584.584 0 0 0 .058-.412.993.993 0 0 0-.196-.378c-.101-.132-.22-.252-.333-.373-.219-.23-.468-.5-.515-.83-.047-.33.117-.66.262-.944.076-.147.156-.296.216-.451a.997.997 0 0 0 .082-.42.583.583 0 0 0-.17-.378.978.978 0 0 0-.368-.211c-.156-.056-.32-.092-.48-.132-.308-.075-.662-.166-.878-.418-.216-.251-.255-.618-.285-.936-.015-.166-.028-.335-.06-.498a.996.996 0 0 0-.155-.398.577.577 0 0 0-.347-.224.972.972 0 0 0-.423.022c-.16.039-.318.097-.473.152-.3.104-.646.221-.963.127-.316-.094-.545-.38-.74-.632C7.691.762 7.59.627 7.476.507a.981.981 0 0 0-.344-.25.57.57 0 0 0-.206-.038" fill="#000"/>
        <path d="M5.446 6.927c.697 0 1.157-.601 1.157-1.312V5.6c0-.704-.453-1.298-1.144-1.298-.69 0-1.157.594-1.157 1.313v.014c0 .704.46 1.298 1.144 1.298zM5.04 9.244c0 .161.119.286.272.286a.282.282 0 0 0 .244-.132l3.2-4.597a.343.343 0 0 0 .063-.191.28.28 0 0 0-.279-.286.263.263 0 0 0-.237.132l-3.2 4.597a.343.343 0 0 0-.063.191zm3.354.308c.69 0 1.157-.601 1.157-1.312v-.015c0-.704-.46-1.298-1.143-1.298-.69 0-1.158.594-1.158 1.313v.014c0 .704.46 1.298 1.144 1.298zm-2.936-3.19c-.313 0-.536-.33-.536-.747V5.6c0-.396.195-.733.523-.733.313 0 .536.337.536.748v.014c0 .396-.195.734-.523.734zm2.95 2.626c-.314 0-.537-.33-.537-.748v-.015c0-.396.195-.733.523-.733.313 0 .537.337.537.748v.014c0 .396-.196.734-.523.734z" fill="#FFF"/>
    </g>
</svg>
