<svg width="41" height="36" viewBox="0 0 41 36" fill="none" xmlns="http://www.w3.org/2000/svg">
    <g clip-path="url(#ih1zj5lo9a)">
        <g clip-path="url(#8ix9ndpiob)">
            <path d="m35.886 24.798-2.242 1.287a.822.822 0 0 0-.407.7v2.555a1.86 1.86 0 0 1-1.854 1.853h-2.56c-.286 0-.56.16-.7.401l-1.287 2.243a1.863 1.863 0 0 1-1.127.866c-.16.05-.318.07-.478.07-.318 0-.643-.083-.923-.248l-2.235-1.287a.83.83 0 0 0-.81 0l-2.234 1.287a1.859 1.859 0 0 1-2.535-.675l-1.287-2.237a.807.807 0 0 0-.7-.4H11.96a1.86 1.86 0 0 1-1.854-1.854v-2.561c0-.287-.159-.56-.4-.7L7.462 24.81a1.878 1.878 0 0 1-.681-2.548l1.286-2.236a.831.831 0 0 0 0-.81l-1.286-2.222a1.847 1.847 0 0 1-.185-1.408c.128-.478.433-.879.866-1.127L9.7 13.173a.808.808 0 0 0 .401-.7V9.911a1.86 1.86 0 0 1 1.853-1.854h2.56c.287 0 .56-.16.7-.401L16.5 5.415c.249-.434.65-.74 1.128-.867.477-.127.98-.063 1.407.185L21.27 6.02c.249.14.56.14.81 0l2.234-1.287a1.86 1.86 0 0 1 2.535.682l1.287 2.235c.14.249.413.402.7.402h2.56a1.86 1.86 0 0 1 1.853 1.853v2.561c0 .287.16.56.401.7l2.242 1.287a1.863 1.863 0 0 1 .688 2.535l-1.286 2.23a.815.815 0 0 0 .006.809l1.286 2.236c.249.426.312.93.179 1.407a1.878 1.878 0 0 1-.88 1.128z" fill="var(--color2)"/>
        </g>
        <path d="M25.026 35.198c-.36 0-.729-.094-1.046-.281l-2.53-1.456a.94.94 0 0 0-.915 0l-2.53 1.456a2.104 2.104 0 0 1-2.869-.764l-1.457-2.53a.914.914 0 0 0-.793-.455h-2.883a2.104 2.104 0 0 1-2.098-2.097v-2.898a.93.93 0 0 0-.454-.793l-2.537-1.456a2.125 2.125 0 0 1-.772-2.884l1.456-2.53a.94.94 0 0 0 0-.915l-1.456-2.516a2.09 2.09 0 0 1-.209-1.593c.144-.54.49-.995.98-1.276l2.53-1.456a.914.914 0 0 0 .455-.793V7.063c0-1.153.944-2.098 2.098-2.098h2.897c.325 0 .628-.18.793-.454l1.457-2.537c.28-.49.735-.836 1.276-.98a2.086 2.086 0 0 1 1.593.209l2.53 1.456a.94.94 0 0 0 .915 0l2.53-1.456a2.106 2.106 0 0 1 2.87.77l1.456 2.531a.914.914 0 0 0 .793.454h2.897c1.154 0 2.098.945 2.098 2.098v2.898c0 .324.18.634.454.793l2.538 1.456a2.108 2.108 0 0 1 .778 2.869l-1.456 2.523a.922.922 0 0 0 .007.915l1.456 2.53c.282.483.354 1.053.202 1.594-.151.54-.49.994-.98 1.275l-2.538 1.457a.93.93 0 0 0-.46.793v2.89a2.104 2.104 0 0 1-2.099 2.098h-2.898a.93.93 0 0 0-.792.454l-1.456 2.537a2.109 2.109 0 0 1-1.276.98c-.188.058-.368.08-.555.08zm-4.023-3.042c.36 0 .728.094 1.045.281l2.53 1.456a.915.915 0 0 0 1.255-.331l1.456-2.538a2.093 2.093 0 0 1 1.816-1.052h2.891c.505 0 .916-.411.916-.916v-2.905a2.11 2.11 0 0 1 1.052-1.816l2.538-1.456a.915.915 0 0 0 .332-1.254l-1.457-2.53a2.137 2.137 0 0 1-.014-2.091l.007-.008 1.456-2.53a.91.91 0 0 0-.339-1.247l-2.537-1.456a2.093 2.093 0 0 1-1.053-1.816V7.056a.917.917 0 0 0-.915-.916h-2.89a2.11 2.11 0 0 1-1.817-1.045l-1.456-2.53a.915.915 0 0 0-1.254-.332L22.033 3.69a2.133 2.133 0 0 1-2.098 0l-2.53-1.456a.915.915 0 0 0-1.254.332l-1.456 2.537a2.093 2.093 0 0 1-1.817 1.053H9.981a.917.917 0 0 0-.915.915v2.898a2.11 2.11 0 0 1-1.045 1.817L5.49 13.24a.915.915 0 0 0-.332 1.254l1.456 2.53a2.133 2.133 0 0 1 0 2.098l-1.456 2.53a.915.915 0 0 0 .331 1.255l2.53 1.441a2.092 2.092 0 0 1 1.053 1.817v2.898c0 .504.41.915.915.915h2.898c.75 0 1.442.404 1.817 1.045l1.456 2.53a.91.91 0 0 0 1.247.332l2.53-1.456c.34-.18.7-.274 1.067-.274z" fill="var(--color1)"/>
        <path d="m26.46 11.749.836.836L15.54 24.349l-.836-.836L26.46 11.75zM16.541 16.528a2.936 2.936 0 0 1-2.934-2.934 2.936 2.936 0 0 1 2.934-2.934 2.936 2.936 0 0 1 2.934 2.934 2.932 2.932 0 0 1-2.934 2.934zm0-4.685c-.966 0-1.752.785-1.752 1.751 0 .966.786 1.752 1.752 1.752s1.752-.786 1.752-1.752-.786-1.751-1.752-1.751zM25.465 25.445a2.936 2.936 0 0 1-2.934-2.934 2.941 2.941 0 0 1 2.934-2.934 2.941 2.941 0 0 1 2.934 2.934 2.941 2.941 0 0 1-2.934 2.934zm0-4.693c-.966 0-1.752.786-1.752 1.752s.786 1.752 1.752 1.752 1.752-.786 1.752-1.752-.786-1.752-1.752-1.752z" fill="var(--color1)"/>
    </g>
    <path stroke="var(--color2)" stroke-width=".5" stroke-linecap="round" d="M38.587 2.137v3.361M36.933 3.844h3.361M1.904 16.617v3.361M.25 18.323h3.361"/>
    <defs>
        <clipPath id="ih1zj5lo9a">
            <path fill="#fff" transform="translate(3.861 .922)" d="M0 0h34.284v34.277H0z"/>
        </clipPath>
        <clipPath id="8ix9ndpiob">
            <path fill="#fff" transform="translate(6.534 4.485)" d="M0 0h30.288v30.288H0z"/>
        </clipPath>
    </defs>
</svg>
