<svg xmlns="http://www.w3.org/2000/svg" width="16" height="24" viewBox="0 0 16 24">
    <g fill="none" fill-rule="evenodd">
        <g fill="#000" fill-rule="nonzero">
            <g>
                <g>
                    <g>
                        <path d="M12.197 7.73h-8.55c-.914 0-1.657.743-1.657 1.656v4.427c0 .913.743 1.656 1.657 1.656h8.55c.913 0 1.656-.743 1.656-1.656V9.386c0-.913-.743-1.656-1.656-1.656zm.719 6.083c0 .396-.323.719-.719.719h-8.55c-.397 0-.72-.322-.72-.719V9.386c0-.396.323-.719.72-.719h8.55c.396 0 .719.323.719.72v4.426z" transform="translate(-17 -701) translate(0 608) translate(0 59) translate(17 34)"/>
                        <path d="M8.427 10.116l-.005-.013c-.082-.2-.275-.329-.49-.329H7.93c-.216 0-.408.13-.49.33l-.004.01-1.02 2.675c-.091.242.03.513.272.605.055.021.111.031.167.031.189 0 .367-.115.438-.302l.139-.364h.99l.136.363c.092.242.362.364.604.273.243-.092.365-.362.273-.604l-1.009-2.675zM7.79 11.82l.14-.367.139.367h-.28zM11.695 9.857c-.217-.14-.508-.08-.649.137l-.467.718-.474-.725c-.141-.217-.432-.278-.648-.136-.217.141-.278.432-.137.648l.79 1.21-.003 1.246c0 .259.209.47.468.47h.001c.258 0 .468-.21.469-.468l.003-1.247.784-1.204c.141-.217.08-.508-.137-.649zM5.16 9.774h-.767l-.011.001c-.104.005-.198.044-.274.105v.001l-.007.006c-.001 0-.002 0-.003.002l-.003.003-.022.02-.013.014-.002.002-.005.005-.003.004-.004.004c0 .002-.002.003-.004.005l-.002.003-.005.006-.002.002-.005.008c-.052.07-.084.153-.09.244v.003l-.001.009v2.735c0 .259.209.469.468.469s.469-.21.469-.469v-.712l.286-.001c.69 0 1.25-.554 1.25-1.234 0-.68-.56-1.235-1.25-1.235zm0 1.532h-.284v-.297l-.001-.297h.285c.17 0 .312.136.312.297 0 .16-.143.297-.312.297z" transform="translate(-17 -701) translate(0 608) translate(0 59) translate(17 34)"/>
                        <path d="M13.562 0H2.282C1.034 0 .019 1.012.019 2.255V21.74C.019 22.987 1.032 24 2.278 24h11.288c1.246 0 2.26-1.013 2.26-2.259V2.255C15.825 1.012 14.81 0 13.561 0zM.956 2.255c0-.727.595-1.317 1.326-1.317h11.28c.731 0 1.326.59 1.326 1.317V19.32H.956V2.255zM14.888 21.74c0 .729-.593 1.322-1.322 1.322H2.278c-.73 0-1.322-.593-1.322-1.322v-1.483h13.932v1.483z" transform="translate(-17 -701) translate(0 608) translate(0 59) translate(17 34)"/>
                        <path d="M7.61 22.129h.624c.26 0 .47-.21.47-.469s-.21-.469-.47-.469H7.61c-.259 0-.468.21-.468.47 0 .258.21.468.468.468zM5.696 2.792h4.452c.259 0 .469-.21.469-.47 0-.258-.21-.468-.469-.468H5.696c-.26 0-.469.21-.469.469s.21.469.469.469z" transform="translate(-17 -701) translate(0 608) translate(0 59) translate(17 34)"/>
                    </g>
                </g>
            </g>
        </g>
    </g>
</svg>
