<svg width="33" height="33" viewBox="0 0 33 33" xmlns="http://www.w3.org/2000/svg">
    <g fill="none" fill-rule="evenodd">
        <path stroke-opacity=".01" stroke="#FFF" stroke-width=".25" d="M.125.125h32.75v32.75H.125z"/>
        <path d="M23.095 20.252c-.051-.01-.102-.026-.153-.026-.452.004-.436.029-.436-.41v-5.388c0-.32.002-.322.383-.322.34-.001.68 0 1.02 0 .404 0 .404 0 .479.339.065.016.09-.035.128-.061.753-.55 1.708-.511 2.379.108.127.117.175.031.244-.028.299-.255.635-.445 1.072-.457.898-.024 1.492.357 1.789 1.144v4.559c-.184.366-.503.54-.97.513-.147-.009-.295-.001-.443-.001-.432 0-.432 0-.433-.364 0-1.3.001-2.6-.001-3.9 0-.295-.117-.421-.39-.44-.345-.024-.5.077-.556.376-.017.088-.014.18-.014.27l-.001 3.088c0 .664-.17.85-.906 1h-.942c-.006-.105-.016-.21-.016-.315v-3.743c0-.128-.007-.254-.04-.38-.039-.153-.114-.269-.311-.29-.21-.021-.398-.001-.523.176-.092.13-.092.271-.092.414l-.001 3.157c-.002.668-.195.861-.956.965-.017.002-.033.01-.049.016h-.261z" fill="#0C087F"/>
        <path d="M5.688 16.471v.541c0 .342.001.342.406.335.06 0 .123 0 .182-.009.194-.032.317-.129.319-.306.004-.375.006-.751-.002-1.127-.004-.18-.108-.297-.335-.306-.113-.005-.225-.018-.338-.025-.165-.011-.238.052-.234.198.007.233.002.466.002.7zM4 15.015c.278-.68.659-.914 1.497-.917h1.096c1.039.002 1.607.396 1.684 1.277.067.762.083 1.532-.021 2.294-.096.702-.662 1.127-1.48 1.15-.244.006-.488.002-.732.002-.366.001-.368.001-.366.328 0 .173-.002.345-.04.516-.066.296-.35.534-.7.55-.311.013-.625-.005-.938-.009v-5.19z" fill="#2CADEA"/>
        <path d="M20.583 20.252c-.107-.045-.222-.027-.334-.036-.742-.056-1.036-.329-1.038-.975-.003-1.023 0-2.046 0-3.069 0-.583 0-.59-.677-.596-.208-.002-.276-.064-.27-.238.01-.33.008-.662 0-.993-.005-.166.053-.245.263-.25.56-.012 1.03-.199 1.395-.572.186-.188.365-.384.654-.47.383-.115.494-.053.495.285 0 .195.005.39 0 .586-.004.125.055.179.2.176.184-.005.367.004.55-.002.165-.004.24.054.238.199-.004.36-.003.722 0 1.083 0 .132-.068.195-.222.189-.044-.002-.087 0-.131 0-.672.01-.6-.087-.601.513-.003 1.272 0 2.543-.002 3.815 0 .12.015.241-.049.355h-.47z" fill="#0C087F"/>
        <path d="M11.216 18.102v-.27c0-.391-.014-.402-.475-.374-.276.017-.39.114-.396.356-.005.21-.012.422.006.632.02.246.21.322.637.313.292-.005.218-.18.227-.318.007-.113.001-.226.001-.339m1.74-1.074c0 .655.008 1.309-.002 1.963-.005.334-.065.662-.36.915-.204.176-.46.288-.742.301-.634.03-1.275.058-1.905-.007-.776-.078-1.195-.48-1.283-1.244-.064-.566-.08-1.143.024-1.71.125-.691.717-1.13 1.53-1.158.234-.008.47-.007.705-.003.209.004.314-.093.32-.257.005-.17-.11-.26-.314-.257-.218.002-.435.001-.653 0-.63-.005-.979-.266-.991-.802-.019-.823-.098-.654.711-.667.618-.01 1.237-.002 1.856.003.692.006 1.101.36 1.106.961.005.654 0 1.308 0 1.962h-.001M17.724 16.686c0 .7.004 1.399-.002 2.098-.007.907-.617 1.432-1.661 1.435-.567.002-1.134-.005-1.7.004-.215.004-.298-.059-.285-.247.014-.217.002-.435.054-.651.078-.326.338-.522.732-.531.27-.007.54.004.81-.008.17-.008.335-.046.35-.238.011-.157-.049-.267-.252-.278-.252-.013-.504-.03-.757-.033-.88-.013-1.54-.59-1.566-1.344a52.457 52.457 0 0 1-.028-2.414c.004-.364.02-.375.448-.376.305 0 .61.013.915-.004.252-.014.346.073.346.28 0 .549.007 1.098.012 1.647.001.12-.001.24.007.36.021.285.147.392.447.39.304-.003.43-.106.435-.397.01-.654.004-1.309.007-1.963 0-.288.021-.304.358-.305.349-.002.698.006 1.046-.003.215-.005.29.068.287.253-.008.775-.003 1.55-.003 2.325" fill="#2CADEA"/>
    </g>
</svg>
