<svg xmlns="http://www.w3.org/2000/svg" width="20" height="16" viewBox="0 0 20 16">
    <path fill="#FF9797" d="M19.71 12.322h-.623V8.733c0-.42-.123-.832-.352-1.18L17.172 5.17c-.383-.58-1.02-.93-1.702-.93h-2.424c-.285 0-.513.238-.513.529v7.552h-3.97c.378.335.637.803.712 1.33h4.184c.15-1.048 1.027-1.858 2.088-1.858 1.06 0 1.935.81 2.084 1.859h2.08c.14 0 .256-.12.256-.264v-.803c0-.145-.115-.264-.256-.264zm-2.556-4.294h-3.2c-.14 0-.256-.116-.256-.264V5.94c0-.145.116-.264.257-.264h1.948c.085 0 .162.043.21.111l1.251 1.828c.118.174-.002.414-.21.414zm-1.607 4.294c-.884 0-1.597.736-1.597 1.645 0 .906.713 1.642 1.597 1.642.88 0 1.596-.736 1.596-1.642 0-.909-.716-1.645-1.596-1.645zm0 2.466c-.442 0-.799-.37-.799-.821 0-.454.357-.821.799-.821.441 0 .798.367.798.82 0 .452-.357.822-.798.822zM2.233 12.322c-.141 0-.257.119-.257.264v.803c0 .145.116.264.257.264h2.87c.074-.528.334-.996.709-1.331h-3.58zm4.955 0c-.881 0-1.597.736-1.597 1.645 0 .906.716 1.642 1.597 1.642.883 0 1.596-.736 1.596-1.642 0-.909-.713-1.645-1.596-1.645zm0 2.466c-.442 0-.799-.37-.799-.821 0-.454.357-.821.799-.821.441 0 .798.367.798.82 0 .452-.357.822-.798.822zm3.84-12.184H8.053c.146.447.223.925.223 1.418 0 2.493-1.972 4.521-4.395 4.521-.442 0-.87-.069-1.273-.193v2.918c0 .145.115.264.256.264h8.678c.14 0 .256-.119.256-.264V3.397c0-.439-.344-.793-.77-.793zM3.882.03C1.738.03 0 1.816 0 4.021s1.738 3.993 3.882 3.993c2.143 0 3.881-1.788 3.881-3.993S6.025.03 3.882.03zm0 7.076c-1.656 0-2.999-1.38-2.999-3.084C.883 2.318 2.226.938 3.882.938c1.655 0 2.998 1.38 2.998 3.083 0 1.704-1.343 3.084-2.998 3.084zm1.145-2.432c-.033 0-.067-.005-.1-.014l-1.252-.347c-.168-.046-.285-.203-.285-.382V1.95c0-.22.173-.397.385-.397.213 0 .385.178.385.396v1.677l.967.268c.205.057.327.275.271.486-.046.176-.202.293-.371.293z"/>
</svg>
