<svg xmlns="http://www.w3.org/2000/svg" width="18" height="15" viewBox="0 0 18 15">
    <path fill="var(--color1)" stroke="" stroke-width="1.5" d="M9 13.943c-.228 0-.447-.077-.619-.215-.646-.524-1.27-1.015-1.819-1.45l-.003-.001c-1.611-1.272-3.004-2.37-3.972-3.452C1.504 7.616 1 6.47 1 5.217 1 4 1.45 2.877 2.27 2.056c.828-.832 1.964-1.29 3.2-1.29.923 0 1.769.27 2.514.803.376.27.716.598 1.016.983l.006-.007c.298-.381.637-.708 1.01-.976.745-.533 1.59-.803 2.514-.803 1.236 0 2.373.458 3.2 1.29C16.55 2.877 17 4 17 5.217c0 1.252-.504 2.4-1.587 3.608-.968 1.082-2.36 2.18-3.972 3.451-.55.435-1.175.927-1.822 1.452-.136.11-.303.18-.48.205l-.133.01h0H9z"/>
</svg>
