<svg xmlns="http://www.w3.org/2000/svg" width="34" height="34" viewBox="0 0 34 34">
    <g fill="none" fill-rule="evenodd">
        <path stroke="#FFF" stroke-opacity=".008" stroke-width=".1" d="M0 0H32V32H0z" transform="translate(1 1)"/>
        <path fill-rule="nonzero" stroke="var(--color1)" stroke-width="1.4" d="M16 23.32c-.256 0-.503-.089-.696-.248-.727-.602-1.428-1.168-2.047-1.667l-.003-.002c-1.813-1.463-3.38-2.726-4.469-3.97C7.567 16.041 7 14.722 7 13.281c0-1.4.507-2.692 1.428-3.637.932-.957 2.21-1.484 3.6-1.484 1.04 0 1.99.311 2.829.924.423.31.806.688 1.143 1.13l.006-.007c.336-.44.717-.815 1.138-1.123.837-.613 1.789-.924 2.828-.924 1.39 0 2.668.527 3.6 1.484.92.945 1.428 2.236 1.428 3.637 0 1.44-.567 2.76-1.785 4.15-1.09 1.245-2.655 2.508-4.469 3.97-.62.5-1.322 1.067-2.05 1.67-.16.132-.356.215-.564.24l-.126.007h0H16z" transform="translate(1 1)"/>
    </g>
</svg>
