<svg xmlns="http://www.w3.org/2000/svg" version="1.1" preserveAspectRatio="xMinYMin" width="100%" class="logo" id="popxo-logo" height="100%" viewBox="0 0 396.56 402.16"><path xmlns="http://www.w3.org/2000/svg" fill="#e62163" d="M315.83 172.84c5.3-3.49 10.15-7.57 15.2-11.38 1.69-1.27 3.33-2.6 5-3.89.8-.61 1.5-1.67 2.72-.56.35.32.71-.18 1.05-.39a60.38 60.38 0 0 1 30.2-9.51c6.43-.3 11.41 2.65 15.44 7.4 4.5 5.29 6.11 11.74 7.17 18.39a87.37 87.37 0 0 1 .86 15.08c-.06 4.43 1.2 8.75 1.77 13.13.29 2.23.81 4.43 0 6.65a.93.93 0 0 0 .18 1.12c1.55 1.34 1.16 3 .9 4.7-1.54 9.89-3.12 19.77-6.62 29.2a21.47 21.47 0 0 1-4.33 7.58 8.26 8.26 0 0 1-3.08 1.88c1.68 1.38 1.14 2.63.22 4.11-4.37 7.11-9.19 13.84-15.39 19.51a10.67 10.67 0 0 0-1.58 2.11c-3 4.64-6.11 9.2-10.23 13a16.23 16.23 0 0 1-6.73 4.11c-.95.26-1.11.67-.48 1.38s.72 1.37-.21 2.12c-9.63 7.82-19.13 15.8-29.31 22.89a29.67 29.67 0 0 1-6 3.51 1.87 1.87 0 0 0-1.14 1.26 6.08 6.08 0 0 1-1.25 1.83c-1.54 1.63-2 1.67-2.72-.37-.78-2.31-2.28-1.39-3.58-1.11-1.05.22-.5 1.07-.26 1.63 1.39 3.22 1.41 3.22-1.29 5.38-3 2.39-5.95 4.77-8.94 7.15a4.92 4.92 0 0 1-2.1 1.21c-1 .21-1.68.19-2.13-1.07-.75-2.12-1.86-2.28-3.41-.7-3.86 4-7.75 7.87-11.53 11.9a5.6 5.6 0 0 1-5.55 1.54 2.12 2.12 0 0 0-2.54.83 10.42 10.42 0 0 1-3.83 2.65c-6.49 3.36-13.17 6.52-20.21 8.17-8.27 1.94-16.76 3.95-25.43 1.74-6.8-1.73-11.65-5.43-13.19-12.63a2.85 2.85 0 0 1-.11-1.59c1-2.08.25-4-.44-5.89-.6-1.66-1-3.41-1.78-5-3.79-7.94-4.68-16.56-6.12-25.07-2.09-12.39 1.58-23.41 7.6-33.93a98.74 98.74 0 0 1 12.82-17.67c7.87-8.62 14.8-18 22.34-26.87 7-8.26 13.93-16.61 22-23.91 2-1.83 4.06-3.65 6.72-4.54a1.89 1.89 0 0 0 .67-.45q6.43-6.47 12.82-12.92a2.67 2.67 0 0 1 3.25-.7c1.22.54 2 .08 2.74-1.17 2.13-3.53 5.36-6 8.66-8.39.73 1.18.5 2.33.76 3.37.14.59.33 1.06 1.07.51 2.07-1.55 4.29-2.92 5.89-5 .32-.42 1.09-1 .27-1.52-1.69-1-.51-1.29.34-1.8a93.63 93.63 0 0 0 12.85-9.01zM277.53 246c1.53-1.68 2.93-3.26 4.37-4.79.81-.86 2.11-1.27 2.9-.69s.14 1.75-.42 2.55-.95 1.33-1.47 2c-4 4.85-8.43 9.27-12.84 13.73-1 1-2.33 2-2.59 3.36-.6 3.14-3.07 4.61-5.13 6.48a35.69 35.69 0 0 0-5.88 6.23c-2.38 3.56-5 6.07-9.65 4.33a.68.68 0 0 0-1 .5c-.11.74.49.65.95.71a7.16 7.16 0 0 1 2.94.76c1.82 1.1 1.84 2.87.08 4a9.45 9.45 0 0 0-1.76 1.39 34.11 34.11 0 0 0-5.29 7.72c-.34.63-.51 1.41-1.41 1.63-1.64.41-1.59 1.33-.78 2.57.5.76 1.28 1.58.68 2.59-1.06 1.81-5.6 3.21-7.62 2.42.16 2.65 1.2 3.45 3.84 2.84 7-1.65 13.34-5 19.54-8.6 17.59-10.08 33.82-22.15 50.25-34 20.77-14.95 39.4-32.08 54.83-52.56a174.55 174.55 0 0 0 12.22-18.35c.68-1.18.85-2.16-.19-3.28a8.93 8.93 0 0 1-2-3.53c-.26-.89 1-2.52 1.73-2.11 2.67 1.57 1.19-.57 1.27-1.32.12-1.32-.63-1.67-1.78-1.9-2.07-.41-4.11-1-6.12-1.57a2.56 2.56 0 0 0-2.3.32c-22.28 14.05-43.72 29.21-63.15 47.08-4.22 3.88-8.33 7.87-12.23 12.06-1 1.11-1.58 1-2.09-.33-.37-1-.74-1.94-1.18-3.07-2.8 2.61-5.39 5.12-8.1 7.5-1.05.91-1.49 1.82-.62 3.33zm-8.08 4.79c0 1 .16 1.37.69 1.45 1.47.22 4.95-3.15 4.8-4.6-.08-.83-.52-1.21-1.17-.71a18.23 18.23 0 0 1-4.09 2.94c-.34.13-.28.58-.23.92zm32.39-27.64c0-1.12-.5-1.64-1.51-1.29-.8.27-2.28-.39-2.19 1.33 0 .73 0 1.76 1.15 1.35.89-.33 2.51.46 2.55-1.39zm-9.39 114c-.11-.59.21-1.36-.68-1.29-1.3.11-2.41.62-2.63 2.06-.19 1.24 1 1.15 1.64 1.28 1.86.29 1-1.56 1.67-2.1zm-32.95-72.36c-.58.54-2-.27-2.17.92-.1 1 .87 1.65 1.93 1.61.54 0 1.59.29 1.42-.81-.1-.61.32-1.78-1.18-1.72z"></path><path xmlns="http://www.w3.org/2000/svg" fill="#434343" d="M158.33 200.05c-6.58-9.2-9.39-19.68-10.24-30.78-.29-3.8-.32-7.63-.32-11.44v-100c0-9.33 1.09-18.5 4.5-27.25 5.9-15.15 16.86-24.59 32.6-28.44a71.71 71.71 0 0 1 35.79.24c18.06 4.77 29 16.72 33.71 34.55a72.56 72.56 0 0 1 2.41 18.59q.06 54.19 0 108.38a68 68 0 0 1-4.66 25.36C245.48 205.79 233 215 215.77 218a71.91 71.91 0 0 1-36.31-2.44c.64-4.09 1.86-8.08 2.33-12.21.2-1.72.42-3.36-.77-4.86a3 3 0 0 1-.12-3.47c1.15-1.91.72-3.83.26-5.74a4.65 4.65 0 0 0-6.44-3 27.87 27.87 0 0 0-4.77 3.14c-4.17 3.25-7.75 7.09-11.62 10.63zm62.53-90.27V55.62a53.36 53.36 0 0 0-.44-6.92c-1.19-9-6-14.28-14.36-15.68a24.48 24.48 0 0 0-6.73-.11c-7.12.77-12 4.46-14.15 11.4a36.47 36.47 0 0 0-1.51 11.08v108.52a40.83 40.83 0 0 0 .79 8.33c1.45 7 5.06 12.11 12.44 13.77a24.63 24.63 0 0 0 7.31.52c8.71-.65 14-5.32 15.82-13.86a42 42 0 0 0 .84-8.73q-.03-27.08-.01-54.16zM27.73 198.15V4.76c0-1.59.38-2 2-2 17 .06 34.08 0 51.12.06a67.53 67.53 0 0 1 23.25 3.59c15 5.5 23.67 16.55 27.59 31.72a78.79 78.79 0 0 1 2.39 19.21c.07 11.31.11 22.63 0 33.94a71.73 71.73 0 0 1-4.18 24.44c-6.09 16.33-18.22 25.23-35 28.36-9.46 1.75-19 1.1-28.55 1.22-2.67 0-2.67 0-2.67 2.72v67.68c-4.1-2-8.21-3.93-12.3-5.94Q39.52 204 27.73 198.15zM63.64 73.94v36.8c0 .85-.42 1.94 1.25 1.91 6.06-.09 12.14.14 18.19-.14 7.92-.36 12.56-4.51 14.22-12.23a35.69 35.69 0 0 0 .84-7.5V57.41a61.77 61.77 0 0 0-.38-6.93c-1.14-10-6.49-15-16.6-15.11-5.17-.08-10.36 0-15.53-.06-1.61 0-2.05.41-2 2 .04 12.23.01 24.43.01 36.63z"></path><path xmlns="http://www.w3.org/2000/svg" fill="#e62163" d="M27.73 198.15q11.79 5.85 23.59 11.61c4.09 2 8.2 4 12.3 5.94C71.73 220 80 224 88.4 227.63a323.05 323.05 0 0 1 29.95 14.85c1 .56 1.64.79 2.56-.3 12.05-14.42 24.37-28.6 37.42-42.13 3.87-3.54 7.45-7.38 11.62-10.59a27.87 27.87 0 0 1 4.77-3.14 4.65 4.65 0 0 1 6.44 3c.46 1.91.89 3.83-.26 5.74a3 3 0 0 0 .12 3.47c1.19 1.5 1 3.14.77 4.86-.47 4.13-1.69 8.12-2.33 12.21-1 3.59-2.32 7.06-2.42 10.88a7.59 7.59 0 0 1-4.32 6.57c-5.17 2.61-8.51 7.08-12.33 11.09-5 5.27-10 10.57-15.12 15.91 4.93 3.79 9.89 7.49 14.73 11.34 7 5.57 13.83 11.31 19.62 18.16a44 44 0 0 1 5.24 8.47c2.45 4.74 2 10 3.21 14.86a2.05 2.05 0 0 1-.14 1.19 22.64 22.64 0 0 0-1.55 8c0 7.88-4 14.72-5.54 22.21-.35 1.77-2 2.95-3.48 3.82s-5.31-1.83-4.93-3.86c.78-4.17-.92-7.15-3.93-9.62-1.19-1-.41-2-.39-3 0-1.34-.21-2.17-1.62-1-.94.76-1.24.19-1.64-.54-1.23-2.27-2.63-4.48-2-7.27.13-.55.24-1.27-.79-1.25s-.85.56-.88 1.23c-.1 1.84-.57 2.1-2.24 1.13-3.33-1.94-6-4.7-8.69-7.4a6.69 6.69 0 0 0-3.22-2c-1-.24-2.38-.53-2.26-2.16a.38.38 0 0 0-.27-.44c-5.87-2.48-10.07-7.15-14.7-11.25a5.12 5.12 0 0 0-2.39-1.35 6.56 6.56 0 0 1-4.87-3.89 8.35 8.35 0 0 0 2.74-2 .71.71 0 0 0 .2-.9c-.2-.4-.55-.28-.87-.2-1.63.39-2.72 1.16-2.14 3.08a3.36 3.36 0 0 1-4.18-2.08c-.21-.65-.07-1.05.66-1.18a6 6 0 0 0 1.16-.36c.59-.22 1.24-.56 1.24-1.22 0-.82-.86-.35-1.3-.56-.73-.36-1.49-.64-2.25-1-.59.38-.39 1-.41 1.47 0 1.36-.12 2.55-2 2-.83-.25-1.17.58-1.62 1a108.53 108.53 0 0 1-9.44 8.75 13.86 13.86 0 0 1-3.61 2.28c-.43.17-.9.28-1 .87-.23 1.17-.51 2.18-1.2.15-.21-.63-.78-.48-1.21-.32a3.15 3.15 0 0 0-1.87 2.28c-.22.86.6.48 1 .5.73.05.59.62.71 1 .21.78-.33 1.09-.87 1.41a35.13 35.13 0 0 0-6.47 4.64c-9.13 8.74-18.88 16.8-27.87 25.69-5.48 5.41-10.17 11.58-16.1 16.55a3.38 3.38 0 0 1-2.09 1.14c-.49 0-1 .11-1.09-.56-.25-2.12-1.82-1-2.43-.69-1.19.53-.08 1.34.26 1.9.67 1.11.56 1.62-.7 2.31-3.51 1.92-6.06 5-8.81 7.85-2.49 2.55-4.56 5.44-7.69 7.47s-4.61 5.32-6.32 8.42c-2.76 5-5.43 10.07-8.15 15.1-1.28 2.36-3.89 2.44-5.48.27C-.5 395.47-.64 389.9 1 384.05c2.48-8.88 7.29-16.52 12.6-23.89 4.95-6.87 10.61-13.15 16.19-19.49 9.28-10.54 18.76-20.88 28.72-30.78.89-.88 1.4-2 2.9-1.24.38.18.73-.2.94-.6 2.9-5.67 7.47-10 11.63-14.69q4.68-5.26 9.69-10.25c1.61-1.61 2.64-3.63 4.2-5.24.56-.58.26-.9-.2-1.29-1.19-1-2.37-2.06-3.51-3.13-.46-.43-1.22-.71-1.07-1.71.84 0 1.84.79 2.55-.26.3-.13.61-.25.91-.39.48-.22 1-.38.76-1.14-.16-.51-.38-.76-1-.73-.86 0-1 .52-.88 1.2a4.3 4.3 0 0 1 0 .8 17.77 17.77 0 0 1-8.13-1.67c-16.56-7.8-33.86-14.18-49-24.82-2.28-1.61-4.51-3.28-6.79-4.88a2.7 2.7 0 0 1-1.21-2c-1.23-8.59-1.86-17.18-.23-25.78A24.28 24.28 0 0 1 25.58 200a6.6 6.6 0 0 1 2.15-1.85zm122 112.78c0-.3-.09-.3-.3-.18l.27.21c.23.7.44 1.42.71 2.11.49 1.24 1.4.22 2.1.33.55.08.88-.24.82-.87s-.58-1-1.25-1.08-1.58-.35-2.37-.52zm4.9 3.13c-.29.15-1.07.08-.68.62 1.39 1.91 2.68 4 4.8 5.17.74.42 1.42-.15 1.72-1 .2-.53.17-1-.52-1-2.07-.15-3.24-1.51-4.23-3.12-.27-.37-.49-.83-1.11-.67zm-19.59-12c.36.48-.81 1.76.76 1.82.91 0 3.09-3 3-3.89-.06-.48-.44-.44-.72-.57-2.15-.94-2.94-.29-3.08 2.63z"></path><path xmlns="http://www.w3.org/2000/svg" fill="#434343" d="M315.83 172.84a93.63 93.63 0 0 1-12.83 9c-.85.51-2 .78-.34 1.8.82.5 0 1.1-.27 1.52-1.6 2.08-3.82 3.45-5.89 5-.74.55-.93.08-1.07-.51-.26-1 0-2.19-.76-3.37-3.3 2.41-6.53 4.86-8.66 8.39-.76 1.25-1.52 1.71-2.74 1.17a2.67 2.67 0 0 0-3.25.7c0-.74-.09-1.49-.09-2.24V5.17c0-2.16.63-2.54 2.62-2.53 16.7.09 33.4 0 50.1.06 8.49 0 16.86 1 24.84 4.11C372 12.55 380.28 23.63 384 38.47a74.28 74.28 0 0 1 2.27 17.79c.09 13.49.5 27-.27 40.47a60.4 60.4 0 0 1-6.25 24.35c-6.88 13.43-18.35 20.35-32.81 23-9.39 1.73-18.88 1.09-28.34 1.21-2.81 0-2.81 0-2.81 2.8q.03 12.37.04 24.75zm0-99.1v37c0 .87-.4 1.94 1.25 1.91 6.13-.09 12.28.15 18.39-.15 7.69-.38 12-4.24 13.95-11.75a39.77 39.77 0 0 0 1-9.72V56.89a45 45 0 0 0-.81-8.74c-1.52-7.69-5.69-11.67-13.47-12.53-6.1-.67-12.25-.09-18.38-.31-1.63-.06-2 .44-2 2 .09 12.17.06 24.3.06 36.43z"></path><path xmlns="http://www.w3.org/2000/svg" fill="#fcebf1" d="M122.48 295.43c-.58-1.92.51-2.69 2.14-3.08.32-.08.67-.2.87.2a.71.71 0 0 1-.2.9 8.35 8.35 0 0 1-2.74 2z"></path><path xmlns="http://www.w3.org/2000/svg" fill="#fefdfd" d="M277.53 246c-.87-1.51-.43-2.42.65-3.37 2.71-2.38 5.3-4.89 8.1-7.5.44 1.13.81 2.1 1.18 3.07.51 1.35 1.05 1.44 2.09.33 3.9-4.19 8-8.18 12.23-12.06 19.43-17.87 40.87-33 63.15-47.08a2.56 2.56 0 0 1 2.3-.32c2 .61 4 1.16 6.12 1.57 1.15.23 1.9.58 1.78 1.9-.08.75 1.4 2.89-1.27 1.32-.7-.41-2 1.22-1.73 2.11a8.93 8.93 0 0 0 2 3.53c1 1.12.87 2.1.19 3.28a174.55 174.55 0 0 1-12.22 18.35c-15.43 20.48-34.06 37.61-54.83 52.56-16.43 11.81-32.66 23.88-50.25 34-6.2 3.56-12.5 7-19.54 8.6-2.64.61-3.68-.19-3.84-2.84 2 .79 6.56-.61 7.62-2.42.6-1-.18-1.83-.68-2.59-.81-1.24-.86-2.16.78-2.57.9-.22 1.07-1 1.41-1.63a34.11 34.11 0 0 1 5.29-7.72 9.45 9.45 0 0 1 1.76-1.39c1.76-1.09 1.74-2.86-.08-4a7.16 7.16 0 0 0-2.94-.76c-.46-.06-1.06 0-.95-.71a.68.68 0 0 1 1-.5c4.66 1.74 7.27-.77 9.65-4.33a35.69 35.69 0 0 1 5.88-6.23c2.06-1.87 4.53-3.34 5.13-6.48.26-1.35 1.58-2.34 2.59-3.36 4.41-4.46 8.85-8.88 12.84-13.73.52-.63 1-1.29 1.47-2s1.24-2 .42-2.55-2.09-.17-2.9.69c-1.47 1.57-2.87 3.15-4.4 4.83z"></path><path xmlns="http://www.w3.org/2000/svg" fill="#fdf4f7" d="M269.45 250.79c-.05-.34-.11-.79.23-.92a18.23 18.23 0 0 0 4.09-2.94c.65-.5 1.09-.12 1.17.71.15 1.45-3.33 4.82-4.8 4.6-.53-.08-.71-.46-.69-1.45z"></path><path xmlns="http://www.w3.org/2000/svg" fill="#fceff3" d="M301.84 223.15c0 1.83-1.66 1.06-2.55 1.39-1.14.41-1.12-.62-1.15-1.35-.09-1.72 1.39-1.06 2.19-1.33 1.01-.35 1.54.14 1.51 1.29z"></path><path xmlns="http://www.w3.org/2000/svg" fill="#fdf4f7" d="M292.45 337.1c-.67.54.19 2.39-1.67 2-.68-.13-1.83 0-1.64-1.28.22-1.44 1.33-1.95 2.63-2.06.89-.02.57.75.68 1.34z"></path><path xmlns="http://www.w3.org/2000/svg" fill="#fdf1f5" d="M259.5 264.79c1.5-.06 1.08 1.11 1.18 1.72.17 1.1-.88.8-1.42.81-1.06 0-2-.65-1.93-1.61.13-1.19 1.59-.38 2.17-.92z"></path><path xmlns="http://www.w3.org/2000/svg" fill="#fdfdfd" d="M220.86 109.78v54.16a42 42 0 0 1-.84 8.73c-1.79 8.54-7.11 13.21-15.82 13.86a24.63 24.63 0 0 1-7.31-.52c-7.38-1.66-11-6.76-12.44-13.77a40.83 40.83 0 0 1-.79-8.33V55.39a36.47 36.47 0 0 1 1.51-11.08c2.2-6.94 7-10.63 14.15-11.4a24.48 24.48 0 0 1 6.73.11c8.39 1.4 13.17 6.66 14.36 15.68a53.36 53.36 0 0 1 .44 6.92q-.01 27.09.01 54.16z"></path><path xmlns="http://www.w3.org/2000/svg" fill="#fefefe" d="M63.64 73.94v-36.6c0-1.62.43-2.06 2-2 5.17.1 10.36 0 15.53.06 10.11.14 15.46 5.08 16.6 15.11a61.77 61.77 0 0 1 .38 6.93v35.37a35.69 35.69 0 0 1-.84 7.5c-1.67 7.69-6.31 11.84-14.22 12.2-6 .28-12.13 0-18.19.14-1.67 0-1.25-1.06-1.25-1.91q-.01-18.4-.01-36.8z"></path><path xmlns="http://www.w3.org/2000/svg" fill="#fceff3" d="M154.61 314.06c.62-.16.84.3 1.09.7 1 1.61 2.16 3 4.23 3.12.69.06.72.49.52 1-.3.8-1 1.37-1.72 1-2.12-1.2-3.41-3.26-4.8-5.17-.39-.57.39-.5.68-.65z"></path><path xmlns="http://www.w3.org/2000/svg" fill="#fceff4" d="M135 302.05c.12-2.92.91-3.57 3-2.64.28.13.66.09.72.57.11.88-2.07 3.92-3 3.89-1.51-.06-.34-1.34-.72-1.82z"></path><path xmlns="http://www.w3.org/2000/svg" fill="#fbe3eb" d="M149.71 310.93c.79.17 1.56.38 2.35.52s1.17.3 1.25 1.08-.27 1-.82.87c-.7-.11-1.61.91-2.1-.33-.27-.69-.48-1.41-.71-2.11z"></path><path xmlns="http://www.w3.org/2000/svg" fill="#fefefe" d="M85.4 271.22a4.3 4.3 0 0 0 0-.8c-.07-.68 0-1.16.88-1.2.59 0 .81.22 1 .73.25.76-.28.92-.76 1.14-.3.14-.61.26-.91.39-.06-.09-.13-.18-.21-.26z"></path><path xmlns="http://www.w3.org/2000/svg" fill="#fbe3eb" d="M149.68 311l-.27-.21c.21-.12.34-.12.3.18z"></path><path xmlns="http://www.w3.org/2000/svg" fill="#fdfdfd" d="M315.82 73.74V37.35c0-1.6.39-2.1 2-2 6.13.22 12.28-.36 18.38.31 7.78.86 11.95 4.84 13.47 12.53a45 45 0 0 1 .81 8.74v34.14a39.77 39.77 0 0 1-1 9.72c-1.91 7.51-6.26 11.37-13.95 11.75-6.11.3-12.26.06-18.39.15-1.65 0-1.25-1-1.25-1.91q-.09-18.55-.07-37.04z"></path></svg>