<svg
  width="14"
  height="14"
  xmlns="http://www.w3.org/2000/svg"
  className="mx-auto opacity-70 absolute"
 
>
  <path
    d="M11.952 2.048a7.011 7.011 0 0 0-9.904 0 7.013 7.013 0 0 0 0 9.905A6.983 6.983 0 0 0 7 14a6.982 6.982 0 0 0 4.952-2.047 7.012 7.012 0 0 0 0-9.905zM9.888 9.064a.583.583 0 1 1-.825.825L7 7.825 4.938 9.888a.584.584 0 0 1-.826-.825L6.175 7 4.112 4.937a.583.583 0 1 1 .825-.825L7 6.175l2.063-2.063a.583.583 0 1 1 .825.825L7.825 7l2.063 2.064z"
    fill=""
    fillRule="nonzero"
  />
</svg>