<?xml version="1.0" encoding="UTF-8"?>
<svg width="14px" height="10px" viewBox="0 0 14 10" version="1.1" xmlns="http://www.w3.org/2000/svg" xmlns:xlink="http://www.w3.org/1999/xlink">
    <!-- Generator: Sketch 53.2 (72643) - https://sketchapp.com -->
    <title>return (2)</title>
    <desc>Created with Sketch.</desc>
    <g id="Easy-Return" stroke="none" stroke-width="1" fill="none" fill-rule="evenodd">
        <g id="My-Orders-Easy-Return-2-Choose-the-product" transform="translate(-316.000000, -829.000000)" fill="#FFFFFF" fill-rule="nonzero">
            <g id="Group-10" transform="translate(0.000000, 369.000000)">
                <g id="return-(2)" transform="translate(322.986486, 465.000000) scale(-1, 1) translate(-322.986486, -465.000000) translate(315.986486, 460.000000)">
                    <path d="M10.3225676,2.76256757 L2.07621622,2.76256757 L3.76337838,1.07540541 C4.00087838,0.837905405 4.00087838,0.452905405 3.76337838,0.215405405 C3.52581081,-0.0221621622 3.14087838,-0.0220945946 2.90331081,0.215405405 L0.178108108,2.94074324 C-0.0593918919,3.17824324 -0.0593918919,3.56324324 0.178108108,3.80074324 L2.90331081,6.52594595 C3.02209459,6.64472973 3.1777027,6.70405405 3.33331081,6.70405405 C3.48891892,6.70405405 3.64452703,6.64466216 3.76331081,6.52594595 C4.00081081,6.28844595 4.00081081,5.90344595 3.76331081,5.66594595 L2.07614865,3.97878378 L10.3225,3.97878378 C11.6389189,3.97878378 12.7099324,5.0497973 12.7099324,6.36621622 C12.7099324,7.68263514 11.6389189,8.75364865 10.3225,8.75364865 L5.30614865,8.75364865 C4.97027027,8.75364865 4.69804054,9.02587838 4.69804054,9.36175676 C4.69804054,9.69763514 4.97027027,9.96986486 5.30614865,9.96986486 L10.3225,9.96986486 C12.309527,9.96986486 13.9261486,8.35324324 13.9261486,6.36621622 C13.9261486,4.37918919 12.3095946,2.76256757 10.3225676,2.76256757 Z" id="Path"></path>
                </g>
            </g>
        </g>
    </g>
</svg>