 <svg
    className="mb-0.5"
    width="17"
    height="11"
    viewBox="0 0 17 11"
    fill="none"
    xmlns="http://www.w3.org/2000/svg"
  >
  <path
    fillRule="evenodd"
    clipRule="evenodd"
    d="M0 5.31259C0 5.11134 0.0799456 4.91834 0.222249 4.77603C0.364552 4.63373 0.557557 4.55379 0.758804 4.55379H13.5503L10.292 1.297C10.1495 1.15451 10.0695 0.961265 10.0695 0.759763C10.0695 0.558262 10.1495 0.365013 10.292 0.22253C10.4345 0.0800464 10.6277 0 10.8292 0C11.0307 0 11.224 0.0800464 11.3665 0.22253L15.9193 4.77536C15.99 4.84584 16.046 4.92958 16.0843 5.02177C16.1225 5.11395 16.1422 5.21278 16.1422 5.31259C16.1422 5.4124 16.1225 5.51123 16.0843 5.60341C16.046 5.6956 15.99 5.77934 15.9193 5.84982L11.3665 10.4027C11.224 10.5451 11.0307 10.6252 10.8292 10.6252C10.6277 10.6252 10.4345 10.5451 10.292 10.4027C10.1495 10.2602 10.0695 10.0669 10.0695 9.86542C10.0695 9.66392 10.1495 9.47067 10.292 9.32818L13.5503 6.07139H0.758804C0.557557 6.07139 0.364552 5.99145 0.222249 5.84915C0.0799456 5.70684 0 5.51384 0 5.31259Z"
    fill="black"
  />
</svg>