<svg xmlns="http://www.w3.org/2000/svg" width="262" height="43" viewBox="0 0 262 43">
    <g fill="none" fill-rule="evenodd">
        <g>
            <g>
                <path fill="#0C0030" d="M21.5 0h219C252.374 0 262 9.626 262 21.5S252.374 43 240.5 43h-219C9.626 43 0 33.374 0 21.5S9.626 0 21.5 0z" transform="translate(-49 -628) translate(49 628)"/>
                <text fill="#FFF" font-family="D-DIN-Bold, D-DIN" font-size="14" font-weight="bold" transform="translate(-49 -628) translate(49 628)">
                    <tspan x="50.203" y="27">Review submitted successfully!</tspan>
                </text>
                <g fill="#5DE485" fill-rule="nonzero">
                    <path d="M10 0C4.486 0 0 4.486 0 10s4.486 10 10 10 10-4.486 10-10S15.514 0 10 0zm5.711 7.134l-7.205 7.205c-.163.163-.376.244-.59.244-.213 0-.426-.081-.589-.244l-3.872-3.872c-.162-.163-.162-.426 0-.59l.59-.588c.162-.163.426-.163.589 0l3.283 3.283 6.616-6.617c.163-.162.426-.162.59 0l.588.59c.163.162.163.426 0 .589z" transform="translate(-49 -628) translate(49 628) translate(20 12)"/>
                </g>
            </g>
        </g>
    </g>
</svg>
