<svg width="16" height="16" viewBox="0 0 16 16" fill="none" xmlns="http://www.w3.org/2000/svg">
    <path fill-rule="evenodd" clip-rule="evenodd" d="M4.708 1.289c-.003-.004-.003-.003 0 0zm5.933 6.66L4.28 1.685l-.062-.068-.019-.025a.897.897 0 0 1-.089-.143c-.01-.02-.056-.11-.082-.222A.997.997 0 0 1 4.99 0h.1l.058.01.023.003a.941.941 0 0 1 .213.064c.083.034.15.077.165.087l.003.002.025.015.024.018c.053.04.093.08.103.09l.002.002 7.004 7.005c.003.003.028.027.053.056.02.024.045.056.07.097l.019.029.003.006.011.017.003.006.012.017.045.09.014.042.014.038a.999.999 0 0 1-.21.976l-.034.035-7.004 7.004a.884.884 0 0 1-.037.035l-.006.005-.026.025-.044.033a1.002 1.002 0 0 1-1.339-.143l-.009-.01a1.016 1.016 0 0 1-.24-.593l-.001-.01a.98.98 0 0 1 .199-.648.945.945 0 0 1 .041-.052l.021-.024.014-.015 6.362-6.364zm2.294-.305z" fill="var(--color1)"/>
</svg>
