<svg width="18" height="14" viewBox="0 0 18 14" fill="none" xmlns="http://www.w3.org/2000/svg">
<path d="M4.31902 0.478819C5.15317 0.957158 5.71811 1.69941 5.93077 2.4829C6.09984 3.10203 6.048 3.74413 5.73401 4.29964L8.6229 5.95203C10.6629 4.92938 15.2366 2.6337 15.9576 2.22193C16.8902 1.68822 18 2.64313 18 2.64313L10.4173 6.97881L18 11.3133C18 11.3133 16.8902 12.2676 15.9582 11.7345C15.2366 11.3222 10.6635 9.02589 8.62349 8.00441L5.7346 9.65622C6.04859 10.2117 6.10043 10.855 5.93136 11.473C5.7187 12.2576 5.15376 12.9993 4.31961 13.4776C2.81921 14.3365 1.01954 14.0084 0.29791 12.7477C-0.0231426 12.1887 -0.074395 11.5413 0.0946744 10.9175C0.308513 10.1346 0.873449 9.39113 1.70583 8.91338C2.07342 8.70425 2.4581 8.56582 2.84041 8.49512L2.83982 8.49512C2.84277 8.49454 2.84571 8.49454 2.84866 8.49159C2.88047 8.48747 2.91228 8.48158 2.94704 8.47863C5.32636 8.124 6.54165 7.45362 7.13192 6.9794C6.54165 6.50401 5.32695 5.83304 2.94704 5.479C2.91228 5.47546 2.88047 5.46957 2.84866 5.46663C2.84571 5.46427 2.84277 5.46427 2.83982 5.46309L2.84041 5.46309C2.45868 5.39181 2.07342 5.25396 1.70583 5.04543C0.873449 4.56709 0.308513 3.82366 0.0946747 3.04017C-0.0743946 2.41633 -0.0231422 1.76892 0.29791 1.2087C1.01954 -0.0525378 2.81862 -0.379482 4.31902 0.478819ZM2.40802 10.1399C1.93499 10.4108 1.57859 10.8403 1.45665 11.2874C1.40245 11.4865 1.36946 11.7787 1.52321 12.0467C1.85016 12.6181 2.81096 12.7118 3.61801 12.2506C4.09635 11.9749 4.4445 11.5572 4.5688 11.1018C4.6224 10.9045 4.6548 10.6123 4.50223 10.3431C4.17411 9.77109 3.21566 9.67801 2.40802 10.1399ZM1.52321 1.9103C1.36887 2.17834 1.40245 2.46935 1.45665 2.66846C1.57859 3.11617 1.93499 3.54502 2.40802 3.81659C3.21566 4.27785 4.17411 4.18477 4.50223 3.61277C4.65539 3.34355 4.6224 3.05136 4.5688 2.85343C4.4445 2.39924 4.09635 1.9804 3.61801 1.70648C2.81096 1.24522 1.85016 1.3383 1.52321 1.9103Z" fill="black"/>
</svg>
