<svg width="22" height="22" viewBox="0 0 22 22" fill="none" xmlns="http://www.w3.org/2000/svg">
<path fill-rule="evenodd" clip-rule="evenodd" d="M21 1H1V21H21V1Z" stroke="white" stroke-opacity="0.0195586" stroke-width="0.1"/>
<path d="M5.33333 10.8333C5.33333 10.4306 5.65979 10.1042 6.0625 10.1042H14.2073L10.649 6.54584C10.3633 6.26021 10.3642 5.79686 10.6508 5.51225C10.936 5.22905 11.3965 5.22986 11.6807 5.51407L16.2929 10.1262C16.6834 10.5168 16.6834 11.1499 16.2929 11.5404L11.681 16.1524C11.3969 16.4364 10.9364 16.4364 10.6524 16.1524C10.3685 15.8685 10.3683 15.4084 10.6519 15.1242L14.2073 11.5625H6.0625C5.65979 11.5625 5.33333 11.236 5.33333 10.8333Z" fill="var(--color1)"/>
</svg>
