<svg width="5" height="8" viewBox="0 0 5 8" fill="none" xmlns="http://www.w3.org/2000/svg">
<path id="Vector" d="M0.1175 0.116835C0.183775 0.050703 0.271152 0.00991882 0.364407 0.00158728C0.457662 -0.00674426 0.550884 0.0179051 0.627833 0.0712407L0.683826 0.116835L4.28336 3.71637C4.34949 3.78264 4.39027 3.87002 4.3986 3.96327C4.40694 4.05653 4.38229 4.14975 4.32895 4.2267L4.28336 4.28269L0.683826 7.88223C0.613284 7.95308 0.51876 7.99495 0.418882 7.99957C0.319003 8.00419 0.221016 7.97124 0.14423 7.9072C0.0674438 7.84316 0.017429 7.75269 0.00404191 7.6536C-0.00934519 7.55452 0.0148667 7.45401 0.0719057 7.37189L0.1175 7.3159L3.43467 3.99953L0.1175 0.683161C0.0802538 0.646009 0.0507032 0.601875 0.0305407 0.553285C0.0103782 0.504695 0 0.452605 0 0.399998C0 0.347391 0.0103782 0.295301 0.0305407 0.246711C0.0507032 0.198121 0.0802538 0.153986 0.1175 0.116835Z" fill="var(--color1)"/>
</svg>
