<svg xmlns="http://www.w3.org/2000/svg" width="20" height="20" viewBox="0 0 20 20">
    <g fill="none" fill-rule="nonzero">
        <path fill="#FF9797" d="M18.548 9.721l.853-2.224a.608.608 0 0 0-.185-.69l-1.849-1.5-.374-2.353a.607.607 0 0 0-.506-.504l-2.353-.375-1.498-1.85a.608.608 0 0 0-.69-.185L9.722.894 7.496.041a.606.606 0 0 0-.689.185l-1.499 1.85-2.353.375a.609.609 0 0 0-.505.504l-.374 2.354-1.85 1.499a.608.608 0 0 0-.185.689L.894 9.72.04 11.946a.606.606 0 0 0 .185.69l1.85 1.497.374 2.354c.042.26.245.464.505.505l2.353.374 1.5 1.85c.166.206.444.28.69.184l2.223-.851 2.225.853a.61.61 0 0 0 .69-.186l1.498-1.85 2.353-.374a.609.609 0 0 0 .506-.505l.374-2.354 1.85-1.498a.606.606 0 0 0 .184-.689l-.853-2.225z"/>
        <path fill="#FFF" d="M6.439 7.188h3.403c-.074-.422-.25-.75-.543-.982-.381-.3-.924-.436-1.643-.436H6.087l.323-.9h6.967l-.323.9h-2.039c.308.382.499.86.558 1.418h1.818l-.322.9h-1.526a2.31 2.31 0 0 1-.63 1.201c-.47.436-1.086.737-1.863.9.117.082.337.328.66.71l3.168 3.71h-2.332l-2.626-3.22a2.848 2.848 0 0 0-.748-.681 1.714 1.714 0 0 0-.938-.287V9.357h.909c.924 0 1.613-.15 2.068-.45a1.38 1.38 0 0 0 .601-.818H6.116l.323-.9z"/>
    </g>
</svg>
