<svg width="16" height="13" viewBox="0 0 16 13" fill="none" xmlns="http://www.w3.org/2000/svg">
    <path d="M12.16.426c-.74.425-1.243 1.085-1.432 1.781-.15.55-.104 1.122.175 1.615l-2.568 1.47c-1.813-.91-5.879-2.95-6.52-3.317C.987 1.501 0 2.35 0 2.35l6.74 3.854L0 10.057s.987.848 1.815.374c.641-.366 4.706-2.408 6.52-3.316l2.568 1.469c-.28.494-.326 1.065-.175 1.615.189.697.69 1.356 1.432 1.781 1.334.764 2.934.472 3.575-.648.286-.497.331-1.073.18-1.627-.19-.696-.691-1.357-1.431-1.782a3.23 3.23 0 0 0-1.009-.371c-.002 0-.005 0-.007-.003-.028-.004-.057-.01-.088-.012-2.115-.315-3.195-.911-3.72-1.333.525-.422 1.605-1.019 3.72-1.333.031-.003.06-.009.088-.011.002-.002.005-.002.008-.003a3.26 3.26 0 0 0 1.008-.372c.74-.425 1.242-1.086 1.432-1.782.15-.555.105-1.13-.18-1.628-.642-1.121-2.241-1.412-3.575-.649zm1.7 8.588c.42.24.737.622.845 1.02.048.177.078.436-.059.675-.29.508-1.145.59-1.862.18-.425-.244-.735-.615-.845-1.02-.048-.176-.077-.435.059-.675.292-.508 1.144-.59 1.862-.18zm.786-7.316c.137.239.107.497.06.674-.11.398-.426.78-.846 1.021-.718.41-1.57.327-1.862-.181-.136-.24-.107-.5-.06-.675.111-.404.42-.776.846-1.02.717-.41 1.571-.327 1.862.181z" fill="var(--color1)"/>
</svg>
