<svg width="16" height="13" viewBox="0 0 16 13" fill="none" xmlns="http://www.w3.org/2000/svg">
<path d="M12.1609 0.426049C11.4194 0.85124 10.9172 1.51102 10.7282 2.20745C10.5779 2.75779 10.624 3.32855 10.9031 3.82234L8.3352 5.29113C6.52186 4.3821 2.45636 2.3415 1.81544 1.97548C0.986525 1.50107 -4.39578e-07 2.34988 -4.39578e-07 2.34988L6.74021 6.20382L-1.02701e-07 10.0567C-1.02701e-07 10.0567 0.986526 10.905 1.81491 10.4311C2.45637 10.0646 6.52133 8.02345 8.33468 7.11547L10.9026 8.58374C10.6235 9.07752 10.5774 9.64933 10.7277 10.1986C10.9167 10.8961 11.4189 11.5554 12.1603 11.9805C13.494 12.744 15.0937 12.4523 15.7352 11.3318C16.0206 10.8348 16.0661 10.2594 15.9158 9.70484C15.7258 9.00893 15.2236 8.3481 14.4837 7.92343C14.157 7.73755 13.815 7.61449 13.4752 7.55166L13.4757 7.55166C13.4731 7.55113 13.4705 7.55113 13.4679 7.54851C13.4396 7.54485 13.4113 7.53961 13.3804 7.53699C11.2655 7.22177 10.1852 6.62587 9.66052 6.20435C10.1852 5.78177 11.2649 5.18536 13.3804 4.87065C13.4113 4.86751 13.4396 4.86227 13.4679 4.85966C13.4705 4.85756 13.4731 4.85756 13.4757 4.85651L13.4752 4.85651C13.8145 4.79315 14.157 4.67062 14.4837 4.48526C15.2236 4.06007 15.7258 3.39924 15.9158 2.70281C16.0661 2.14828 16.0206 1.57281 15.7352 1.07483C15.0937 -0.0462683 13.4946 -0.336885 12.1609 0.426049ZM13.8595 9.01364C14.28 9.25451 14.5968 9.63624 14.7052 10.0337C14.7534 10.2107 14.7827 10.4704 14.646 10.7086C14.3554 11.2166 13.5014 11.2998 12.784 10.8898C12.3588 10.6448 12.0493 10.2735 11.9388 9.86873C11.8912 9.69332 11.8624 9.43359 11.998 9.19429C12.2897 8.68585 13.1416 8.60311 13.8595 9.01364ZM14.646 1.69848C14.7832 1.93673 14.7534 2.19541 14.7052 2.3724C14.5968 2.77036 14.28 3.15156 13.8595 3.39296C13.1416 3.80296 12.2897 3.72023 11.998 3.21178C11.8619 2.97248 11.8912 2.71276 11.9388 2.53682C12.0493 2.13309 12.3588 1.76079 12.784 1.5173C13.5014 1.1073 14.3554 1.19003 14.646 1.69848Z" fill="white"/>
</svg>
