<svg width="20" height="20" viewBox="0 0 20 20" fill="none" xmlns="http://www.w3.org/2000/svg">
<path d="M18.3333 0H1.66667C1.22464 0 0.800716 0.175595 0.488155 0.488155C0.175595 0.800716 0 1.22464 0 1.66667V18.3333C0 18.7754 0.175595 19.1993 0.488155 19.5118C0.800716 19.8244 1.22464 20 1.66667 20H18.3333C18.7754 20 19.1993 19.8244 19.5118 19.5118C19.8244 19.1993 20 18.7754 20 18.3333V1.66667C20 1.22464 19.8244 0.800716 19.5118 0.488155C19.1993 0.175595 18.7754 0 18.3333 0ZM15.1562 8.10417L9.05208 13.9375C8.89427 14.0859 8.68541 14.168 8.46875 14.1667C8.25528 14.1675 8.04985 14.0853 7.89583 13.9375L4.84375 11.0208C4.7591 10.947 4.69025 10.8568 4.64135 10.7556C4.59245 10.6545 4.56451 10.5445 4.5592 10.4323C4.55389 10.3201 4.57132 10.2079 4.61045 10.1026C4.64959 9.99731 4.70961 9.901 4.78691 9.81948C4.86421 9.73797 4.9572 9.67292 5.06028 9.62825C5.16337 9.58359 5.27442 9.56023 5.38676 9.55958C5.4991 9.55892 5.61041 9.58099 5.71401 9.62446C5.8176 9.66792 5.91134 9.73188 5.98958 9.8125L8.46875 12.1771L14.0104 6.89583C14.1724 6.75447 14.3829 6.68121 14.5976 6.69137C14.8124 6.70153 15.015 6.79433 15.163 6.95036C15.3109 7.10639 15.3928 7.31358 15.3916 7.52861C15.3903 7.74364 15.306 7.94986 15.1562 8.10417Z" fill="var(--color1)"/>
</svg>
