<svg xmlns="http://www.w3.org/2000/svg" width="19" height="19" viewBox="0 0 18 14">
    <g fill="none" fill-rule="evenodd">
        <g fill="#E66060" fill-rule="nonzero">
            <g>
                <g>
                    <path d="M17.74 11.03h-.562V7.819c0-.376-.11-.744-.316-1.056l-1.408-2.133c-.344-.52-.917-.832-1.531-.832H11.74c-.256 0-.462.213-.462.473v6.76H7.707c.34.301.573.72.64 1.192h3.766c.134-.938.925-1.664 1.879-1.664s1.742.726 1.876 1.664h1.872c.127 0 .23-.106.23-.236v-.719c0-.13-.103-.236-.23-.236zm-2.302-3.843H12.56c-.127 0-.23-.104-.23-.236V5.317c0-.13.103-.236.23-.236h1.754c.076 0 .146.038.19.1l1.125 1.635c.106.156-.003.371-.19.371zm-1.446 3.844c-.795 0-1.437.66-1.437 1.473 0 .81.642 1.47 1.437 1.47.792 0 1.437-.66 1.437-1.47 0-.814-.645-1.473-1.437-1.473zm0 2.208c-.398 0-.719-.331-.719-.735 0-.407.321-.736.719-.736.397 0 .718.33.718.736 0 .404-.32.735-.718.735zM2.009 11.03c-.127 0-.23.106-.23.236v.719c0 .13.103.236.23.236h2.584c.067-.472.3-.89.637-1.191H2.01zm4.46 0c-.793 0-1.437.66-1.437 1.473 0 .81.644 1.47 1.437 1.47.795 0 1.437-.66 1.437-1.47 0-.814-.642-1.473-1.437-1.473zm0 2.208c-.398 0-.719-.331-.719-.735 0-.407.321-.736.719-.736.397 0 .718.33.718.736 0 .404-.32.735-.718.735zM9.925 2.33H7.247c.132.4.201.828.201 1.27 0 2.232-1.774 4.047-3.955 4.047-.398 0-.783-.061-1.146-.173v2.613c0 .13.104.236.23.236h7.81c.128 0 .232-.106.232-.236V3.04c0-.393-.31-.71-.694-.71zM3.493.026C1.564.026 0 1.626 0 3.6c0 1.974 1.564 3.574 3.493 3.574 1.93 0 3.494-1.6 3.494-3.574 0-1.974-1.564-3.574-3.494-3.574zm0 6.335c-1.49 0-2.698-1.236-2.698-2.76C.795 2.074 2.003.838 3.493.838S6.192 2.075 6.192 3.6c0 1.525-1.208 2.761-2.699 2.761zm1.031-2.178c-.03 0-.06-.004-.09-.012l-1.126-.31c-.152-.042-.257-.183-.257-.343V1.745c0-.196.155-.354.347-.354.191 0 .346.158.346.354v1.501l.87.24c.185.051.294.246.244.435-.041.158-.181.262-.334.262z" transform="translate(-19 -221) translate(7 133) translate(12 88)"/>
                </g>
            </g>
        </g>
    </g>
</svg>
