<svg version="1.1" xmlns="http://www.w3.org/2000/svg" xmlns:xlink="http://www.w3.org/1999/xlink" viewBox="0 0 172 172"><g fill="none" fill-rule="nonzero" stroke="none" stroke-width="1" stroke-linecap="butt" stroke-linejoin="miter" stroke-miterlimit="10" stroke-dasharray="" stroke-dashoffset="0" font-family="none" font-weight="none" font-size="none" text-anchor="none" style="mix-blend-mode: normal"><path d="M0,172v-172h172v172z" fill="none"></path><g fill="#ff9797"><path d="M46.45736,17.83268c-2.6579,0.02573 -5.08331,1.52025 -6.30127,3.8828c-1.21796,2.36256 -1.02846,5.20513 0.49235,7.3851l38.49284,56.89941l-38.49284,56.89941c-1.4786,2.11985 -1.70137,4.87159 -0.58302,7.20168c1.11835,2.33009 3.40458,3.87761 5.98339,4.05008c2.57881,0.17247 5.05076,-1.05683 6.46942,-3.21725l35.27344,-52.1403l35.27344,52.1403c1.41867,2.16042 3.89061,3.38972 6.46942,3.21725c2.57881,-0.17247 4.86505,-1.71999 5.98339,-4.05008c1.11835,-2.33009 0.89558,-5.08183 -0.58302,-7.20168l-38.49284,-56.89941l38.49284,-56.89941c1.47861,-2.11985 1.70139,-4.8716 0.58304,-7.2017c-1.11835,-2.3301 -3.40458,-3.87762 -5.98341,-4.05009c-2.57882,-0.17246 -5.05077,1.05685 -6.46943,3.21728l-35.27344,52.1403l-35.27344,-52.1403c-1.33856,-2.03881 -3.62203,-3.25701 -6.06087,-3.2334z"></path></g></g></svg>