<svg xmlns="http://www.w3.org/2000/svg" width="16" height="16" viewBox="0 0 16 16">
    <g fill="none" fill-rule="evenodd">
        <g fill-rule="nonzero">
            <g>
                <g>
                    <g>
                        <g>
                            <g>
                                <g>
                                    <path fill="#F8D16B" d="M8.86 15.793c-3.853 0-6.964-3.467-6.964-7.793C1.896 3.674 5.007.207 8.86.207S15.822 3.674 15.822 8c0 4.326-3.14 7.793-6.963 7.793" transform="translate(-21 -1560) translate(0 1376) translate(21 184)"/>
                                    <path fill="#F2C24D" d="M1.896 8C1.896 4.03 4.563.74 8 .267c-.296-.03-.563-.06-.86-.06C3.32.207.179 3.674.179 8c0 4.326 3.11 7.793 6.963 7.793.296 0 .563-.03.859-.06C4.563 15.26 1.896 11.97 1.896 8" transform="translate(-21 -1560) translate(0 1376) translate(21 184)"/>
                                    <path fill="#FADD90" d="M8.86 14.696c-3.23 0-5.838-3.022-5.838-6.696S5.63 1.304 8.86 1.304c3.23 0 5.808 3.022 5.808 6.696s-2.608 6.696-5.808 6.696" transform="translate(-21 -1560) translate(0 1376) translate(21 184)"/>
                                    <path fill="#D0A33B" d="M1.896 8.267H.178c0 .207.03.355.03.563h1.718c0-.178-.03-.356-.03-.563M1.956 6.874H.237c-.03.207-.03.356-.06.563h1.72c.029-.178.029-.356.059-.563M2.044 9.66H.326c.03.207.089.355.148.562h1.719c-.06-.178-.09-.355-.149-.563M2.43 11.052H.74c.09.207.149.355.238.563h1.689c-.06-.178-.148-.356-.237-.563M2.252 5.481H.563c-.06.208-.119.356-.148.563h1.718c.03-.177.06-.355.119-.563M2.844 4.089H1.126c-.089.207-.178.355-.267.563h1.719c.059-.178.148-.356.266-.563M3.97 2.43H2.252c-.178.177-.326.355-.445.563h1.719c.118-.208.296-.386.444-.563M5.719 1.037H4c-.296.178-.563.356-.83.563H4.89c.267-.207.533-.385.83-.563M3.319 12.74H1.6c.148.208.296.386.415.564h1.718c-.148-.178-.266-.385-.414-.563M2.844 14.133c.237.208.445.386.712.563h1.718c-.267-.177-.474-.355-.711-.563H2.844z" transform="translate(-21 -1560) translate(0 1376) translate(21 184)"/>
                                    <path fill="#EABC4C" d="M8.86 14.963c-3.379 0-6.104-3.111-6.104-6.963S5.48 1.037 8.859 1.037c3.378 0 6.104 3.111 6.104 6.963s-2.726 6.963-6.104 6.963m0-13.363C5.778 1.6 3.32 4.474 3.32 8c0 3.526 2.459 6.4 5.54 6.4 3.082 0 5.541-2.874 5.541-6.4 0-3.526-2.489-6.4-5.54-6.4" transform="translate(-21 -1560) translate(0 1376) translate(21 184)"/>
                                </g>
                            </g>
                        </g>
                        <path fill="#FFF" d="M8.099 6.222V4.444L5.333 7.556l2.766 3.11V8.845c1.975 0 3.358.712 4.345 2.267-.395-2.222-1.58-4.444-4.345-4.889z" transform="translate(-21 -1560) translate(0 1376) translate(21 184) matrix(-1 0 0 1 17.778 0)"/>
                    </g>
                </g>
            </g>
        </g>
    </g>
</svg>
