<svg width="48" height="48" viewBox="0 0 48 48" fill="none" xmlns="http://www.w3.org/2000/svg">
<circle cx="24" cy="24" r="23.75" fill="white" stroke="#E1E1E1" stroke-width="0.5"/>
<path d="M20.0139 23.0889C19.8121 22.7258 19.4955 22.44 19.1137 22.2764C18.7319 22.1127 18.3066 22.0805 17.9045 22.1847C17.5024 22.289 17.1463 22.5237 16.8921 22.8523C16.6379 23.1808 16.5 23.5844 16.5 23.9997C16.5 24.4151 16.6379 24.8187 16.8921 25.1472C17.1463 25.4757 17.5024 25.7105 17.9045 25.8148C18.3066 25.919 18.7319 25.8867 19.1137 25.7231C19.4955 25.5594 19.8121 25.2737 20.0139 24.9106M20.0139 23.0889C20.1639 23.3589 20.2497 23.6689 20.2497 23.9997C20.2497 24.3306 20.1639 24.6414 20.0139 24.9106M20.0139 23.0889L27.9856 18.6606M20.0139 24.9106L27.9856 29.3389M27.9856 18.6606C28.1025 18.8807 28.262 19.0753 28.455 19.233C28.648 19.3907 28.8704 19.5084 29.1094 19.5791C29.3484 19.6499 29.5991 19.6723 29.8468 19.645C30.0945 19.6177 30.3343 19.5413 30.5522 19.4203C30.77 19.2993 30.9616 19.136 31.1156 18.9401C31.2696 18.7442 31.3831 18.5195 31.4493 18.2792C31.5154 18.039 31.5331 17.7879 31.5011 17.5407C31.4691 17.2936 31.3882 17.0553 31.2631 16.8397C31.0165 16.415 30.6131 16.104 30.1396 15.9736C29.6661 15.8432 29.1603 15.9037 28.731 16.1422C28.3017 16.3807 27.9831 16.7782 27.8437 17.2491C27.7043 17.72 27.7552 18.2268 27.9856 18.6606ZM27.9856 29.3389C27.866 29.5542 27.7899 29.791 27.7618 30.0357C27.7337 30.2804 27.7541 30.5282 27.8217 30.7651C27.8894 31.0019 28.0031 31.2231 28.1562 31.416C28.3094 31.6089 28.499 31.7697 28.7143 31.8893C28.9296 32.0089 29.1664 32.085 29.4111 32.1131C29.6558 32.1412 29.9036 32.1208 30.1405 32.0532C30.3773 31.9855 30.5985 31.8718 30.7914 31.7187C30.9843 31.5655 31.1451 31.3759 31.2647 31.1606C31.5063 30.7257 31.5652 30.2127 31.4286 29.7344C31.2919 29.2561 30.9708 28.8517 30.536 28.6102C30.1011 28.3686 29.5881 28.3097 29.1099 28.4463C28.6316 28.583 28.2271 28.9041 27.9856 29.3389Z" stroke="#0B0B09" stroke-linecap="round" stroke-linejoin="round"/>
</svg>
