<?xml version="1.0" encoding="utf-8"?>
<!-- Generated by IcoMoon.io -->
<svg version="1.1" xmlns="http://www.w3.org/2000/svg" xmlns:xlink="http://www.w3.org/1999/xlink" width="752" height="32" viewBox="0 0 752 32">
<svg id="icon-baseline-more-horiz-24-px" width="32" height="32" viewBox="0 0 32 32" x="0" y="0">
<path d="M4 12c-2.2 0-4 1.8-4 4s1.8 4 4 4 4-1.8 4-4-1.8-4-4-4zM28 12c-2.2 0-4 1.8-4 4s1.8 4 4 4 4-1.8 4-4-1.8-4-4-4zM16 12c-2.2 0-4 1.8-4 4s1.8 4 4 4 4-1.8 4-4-1.8-4-4-4z"></path>
</svg>
<svg id="icon-group-18" width="32" height="32" viewBox="0 0 32 32" x="48" y="0">
<path fill="none" stroke="#f5f5f6" stroke-linejoin="miter" stroke-linecap="butt" stroke-miterlimit="4" stroke-width="0.5" d="M31 16c0 8.284-6.716 15-15 15s-15-6.716-15-15c0-8.284 6.716-15 15-15s15 6.716 15 15z"></path>
<path d="M7.9 16c0-1.71 1.39-3.1 3.1-3.1h4v-1.9h-4c-2.76 0-5 2.24-5 5s2.24 5 5 5h4v-1.9h-4c-1.71 0-3.1-1.39-3.1-3.1zM12 17h8v-2h-8v2zM21 11h-4v1.9h4c1.71 0 3.1 1.39 3.1 3.1s-1.39 3.1-3.1 3.1h-4v1.9h4c2.76 0 5-2.24 5-5s-2.24-5-5-5z"></path>
</svg>
<svg id="icon-shape" width="32" height="32" viewBox="0 0 32 32" x="96" y="0">
<path d="M28 0h-24.889c-1.711 0.007-3.095 1.395-3.095 3.107 0 0.001 0 0.003 0 0.004v-0l-0.016 28 6.223-6.221h21.777c1.716-0.005 3.106-1.396 3.111-3.112v-18.667c-0.005-1.716-1.395-3.105-3.11-3.111h-0zM24.889 18.667h-18.667v-3.111h18.667v3.111zM24.889 14h-18.667v-3.111h18.667v3.111zM24.889 9.333h-18.667v-3.111h18.667v3.111z"></path>
</svg>
<svg id="icon-f-logo-rgb-blue-1024-copy" width="32" height="32" viewBox="0 0 32 32" x="144" y="0">
<path fill="#1877f2" d="M32 16.094c0-8.889-7.164-16.094-16-16.094s-16 7.205-16 16.094c0 8.033 5.851 14.692 13.5 15.9v-11.247h-4.062v-4.653h4.062v-3.546c0-4.033 2.389-6.261 6.044-6.261 1.75 0 3.582 0.315 3.582 0.315v3.961h-2.018c-1.987 0-2.607 1.241-2.607 2.513v3.019h4.437l-0.709 4.653h-3.728v11.247c7.648-1.207 13.5-7.867 13.5-15.9z"></path>
<path fill="#fff" d="M22.368 20.755l0.715-4.572h-4.48v-2.966c0-1.251 0.626-2.47 2.634-2.47h2.037v-3.892s-1.85-0.309-3.616-0.309c-3.691 0-6.101 2.19-6.101 6.155v3.484h-4.101v4.572h4.101v11.053c0.759 0.123 1.633 0.193 2.524 0.193s1.765-0.070 2.618-0.205l-0.094 0.012v-11.053h3.763z"></path>
</svg>
<svg id="icon-wa" width="32" height="32" viewBox="0 0 32 32" x="192" y="0">
<path fill="#fff" d="M0.698 31.428l2.151-7.85c-1.273-2.169-2.024-4.777-2.024-7.561 0-0.007 0-0.014 0-0.021v0.001c0-8.358 6.804-15.156 15.162-15.156 8.373 0 15.161 6.788 15.161 15.161 0 0.003 0 0.006 0 0.009v-0c-0.004 8.36-6.806 15.157-15.161 15.157h-0.007c-2.531 0-5.022-0.634-7.245-1.845l-8.036 2.106zM9.107 26.577l0.46 0.274c1.834 1.104 4.048 1.757 6.414 1.757h0.005c6.945 0 12.598-5.653 12.601-12.599 0.003-6.959-5.636-12.604-12.597-12.607-6.951 0-12.605 5.652-12.605 12.599 0 0.005 0 0.010 0 0.015 0 2.48 0.718 4.792 1.959 6.739l-0.030-0.051 0.299 0.477-1.278 4.647 4.769-1.251z"></path>
<path fill="#25d366" d="M1.224 30.9l2.077-7.582c-1.229-2.093-1.954-4.61-1.954-7.297 0-0.007 0-0.013 0-0.020v0.001c0-8.069 6.569-14.631 14.636-14.631 8.083 0 14.636 6.553 14.636 14.636 0 0.002 0 0.004 0 0.007v-0c0 8.069-6.569 14.632-14.635 14.632h-0.007c-2.442 0-4.846-0.613-6.993-1.781l-7.761 2.034z"></path>
<path fill="#f8f8f8" d="M0.698 31.428l2.151-7.85c-1.273-2.169-2.024-4.777-2.024-7.561 0-0.007 0-0.014 0-0.021v0.001c0-8.358 6.804-15.156 15.162-15.156 8.373 0 15.161 6.788 15.161 15.161 0 0.003 0 0.006 0 0.009v-0c-0.004 8.36-6.806 15.157-15.161 15.157h-0.007c-2.531 0-5.022-0.634-7.245-1.845l-8.036 2.106zM9.107 26.577l0.46 0.274c1.834 1.104 4.048 1.757 6.414 1.757h0.005c6.945 0 12.598-5.653 12.601-12.599 0.003-6.959-5.636-12.604-12.597-12.607-6.951 0-12.605 5.652-12.605 12.599 0 0.005 0 0.010 0 0.015 0 2.48 0.718 4.792 1.959 6.739l-0.030-0.051 0.299 0.477-1.278 4.647 4.769-1.251z"></path>
<path fill="#fff" d="M12.196 9.662c-0.283-0.631-0.581-0.644-0.853-0.654-0.217-0.010-0.473-0.008-0.727-0.008-0.388 0.010-0.754 0.182-1.011 0.474-0.347 0.379-1.325 1.295-1.325 3.159s1.358 3.665 1.548 3.921 2.617 4.2 6.469 5.719c3.199 1.261 3.853 1.011 4.546 0.945 0.693-0.065 2.242-0.916 2.557-1.8 0.316-0.885 0.316-1.642 0.219-1.801-0.098-0.158-0.348-0.253-0.728-0.442-0.379-0.19-2.24-1.107-2.588-1.233-0.348-0.127-0.6-0.189-0.853 0.19s-0.979 1.231-1.199 1.484c-0.221 0.253-0.442 0.285-0.821 0.096-0.38-0.189-1.6-0.589-3.046-1.881-1.125-1.004-1.89-2.244-2.108-2.623-0.219-0.379-0.025-0.581 0.165-0.774 0.17-0.168 0.38-0.441 0.568-0.663 0.19-0.221 0.253-0.379 0.38-0.632 0.126-0.252 0.063-0.475-0.032-0.663-0.095-0.19-0.826-2.065-1.162-2.813z"></path>
</svg>
</svg>
