<svg width="56" height="56" viewBox="0 0 56 56" fill="none" xmlns="http://www.w3.org/2000/svg">
    <g filter="url(#rtxllq667a)">
        <path fill-rule="evenodd" clip-rule="evenodd" d="M8.023 12.58a7.693 7.693 0 0 1 5.548-5.585C17.12 6.076 22.451 5 27.962 5c5.445 0 10.89 1.05 14.59 1.962a7.832 7.832 0 0 1 5.808 5.993c.771 3.583 1.64 8.8 1.64 14.116 0 5.214-.836 10.429-1.595 14.092a7.984 7.984 0 0 1-6.246 6.227c-3.706.763-8.977 1.61-14.126 1.61-5.219 0-10.437-.87-14.04-1.641a7.88 7.88 0 0 1-6.038-5.845C7.045 37.821 6 32.42 6 27.104c0-5.451 1.098-10.902 2.023-14.525z" fill="#fff"/>
    </g>
    <path d="M30.835 20.005a.696.696 0 0 1 .355.16l6.955 5.796a.695.695 0 0 1 0 1.065l-6.955 5.796a.696.696 0 0 1-1.137-.529v-2.311c-1.569.015-6.963.313-10.904 3.76a.696.696 0 0 1-1.116-.739c1.948-6 7.802-8.657 12.02-9.81v-2.492a.694.694 0 0 1 .782-.696zm.609 2.174v1.536a.696.696 0 0 1-.522.674c-3.408.863-8.027 2.794-10.462 6.723 4.658-2.736 9.882-2.549 10.324-2.528a.696.696 0 0 1 .66.695v1.529l5.18-4.31-5.18-4.319z" fill="var(--color1)"/>
    <defs>
        <filter id="rtxllq667a" x="0" y="0" width="56" height="56" filterUnits="userSpaceOnUse" color-interpolation-filters="sRGB">
            <feFlood flood-opacity="0" result="BackgroundImageFix"/>
            <feColorMatrix in="SourceAlpha" values="0 0 0 0 0 0 0 0 0 0 0 0 0 0 0 0 0 0 127 0" result="hardAlpha"/>
            <feOffset dy="1"/>
            <feGaussianBlur stdDeviation="3"/>
            <feColorMatrix values="0 0 0 0 0 0 0 0 0 0 0 0 0 0 0 0 0 0 0.087358 0"/>
            <feBlend in2="BackgroundImageFix" result="effect1_dropShadow_1593_29619"/>
            <feBlend in="SourceGraphic" in2="effect1_dropShadow_1593_29619" result="shape"/>
        </filter>
    </defs>
</svg>
