<svg width="18" height="18" viewBox="0 0 18 18" fill="none" xmlns="http://www.w3.org/2000/svg">
<circle cx="9" cy="9" r="9" fill="white"/>
<path d="M12.8411 4L10.0804 4.041C9.54538 4.04911 9.04238 4.26189 8.66404 4.64023L4.33956 8.96482C4.12056 9.1836 4 9.47472 4 9.7845C4 10.0943 4.12056 10.3853 4.33956 10.6042L7.39592 13.6606C7.61492 13.8795 7.90603 14.0001 8.21559 14.0001C8.52515 14.0001 8.81638 13.8795 9.03527 13.6605L9.71816 12.9776L13.3597 9.33605C13.7381 8.95771 13.9509 8.45471 13.9589 7.91981L13.9999 5.17668C14.0045 4.8639 13.8862 4.56867 13.6665 4.34578C13.447 4.12267 13.1539 4 12.8411 4ZM13.5145 7.91315C13.5083 8.33193 13.3418 8.7256 13.0456 9.02182L9.56116 12.5063L6.63858 9.5836C6.5518 9.49683 6.41102 9.49683 6.32435 9.5836C6.23758 9.67038 6.23758 9.81105 6.32435 9.89783L9.24694 12.8205L8.72115 13.3463C8.58604 13.4813 8.40659 13.5556 8.21559 13.5556C8.02459 13.5556 7.84515 13.4813 7.71014 13.3463L4.65378 10.2898C4.51878 10.1549 4.44445 9.97539 4.44445 9.7845C4.44445 9.59361 4.51878 9.41405 4.65378 9.27905L5.17957 8.75326L5.7409 9.31471C5.78424 9.35816 5.84113 9.37983 5.89802 9.37983C5.95491 9.37983 6.01168 9.35816 6.05513 9.31471C6.14191 9.22805 6.14191 9.08727 6.05513 9.00049L5.49379 8.43904L8.97827 4.95456C9.27438 4.65845 9.66816 4.49189 10.0871 4.48556L12.8411 4.44445C13.0339 4.44445 13.2145 4.52023 13.35 4.65756C13.4854 4.79501 13.5583 4.97701 13.5555 5.1699L13.5145 7.91315Z" fill="#16A34A" stroke="#16A34A" stroke-width="0.4"/>
<path d="M10.9663 5.58935C10.8536 5.63802 10.8017 5.7688 10.8504 5.88146C10.899 5.99424 11.0298 6.0458 11.1425 5.99735C11.3904 5.89035 11.6738 5.94458 11.8647 6.13535C12.1197 6.39036 12.1197 6.80536 11.8647 7.06036C11.7413 7.18381 11.5771 7.25192 11.4023 7.25192C11.2275 7.25192 11.0633 7.18392 10.9397 7.06036C10.7783 6.89892 10.7133 6.66969 10.7657 6.44702C10.7938 6.32758 10.7198 6.20802 10.6004 6.17991C10.4807 6.15113 10.3613 6.2258 10.3332 6.34525C10.2452 6.71869 10.3545 7.10347 10.6255 7.37459C10.8329 7.58203 11.1088 7.69637 11.4023 7.69637C11.6957 7.69637 11.9716 7.58214 12.1789 7.37459C12.6073 6.94636 12.6073 6.24936 12.1789 5.82113C11.8584 5.50057 11.3824 5.40957 10.9663 5.58935Z" fill="#16A34A" stroke="#16A34A" stroke-width="0.4"/>
</svg>
