<svg xmlns="http://www.w3.org/2000/svg" width="25px" height="25px" viewBox="0 0 25 25">
    <g fill="#DFBD51" fill-rule="nonzero">
        <circle cx="11.423" cy="8.308" r="1"/>
        <path d="M12.166 9.35c-.19-.03-.366.112-.394.318-.094.696-.635 1.274-1.445 1.545-.866.29-2.069.192-2.802-.677a.327.327 0 0 0-.49-.023c-.14.14-.15.38-.02.533a2.992 2.992 0 0 0 1.667.992 3.558 3.558 0 0 0 1.848-.104c1.072-.358 1.793-1.164 1.928-2.155.028-.206-.103-.398-.292-.429z"/>
        <path d="M16.886 6.783c-.643-.712-1.532-1.174-2.602-1.36 1.024-.66 1.908-1.316 2.538-1.888.96-.874 1.282-1.487 1.013-1.931-.3-.495-1.163-.492-2.718.01-1.314.425-2.951 1.162-4.61 2.075-.286.158-.57.32-.848.483-.206-.555-.07-1.19.384-1.739.34-.412.417-.935.199-1.365-.229-.45-.73-.72-1.343-.722h-.016c-2.161 0-4.275.814-5.952 2.291C1.25 4.117.224 6.075.036 8.152c-.225 2.5.612 4.878 2.359 6.694 1.716 1.785 4.148 2.808 6.673 2.808 1.36 0 2.636-.238 3.794-.706a8.565 8.565 0 0 0 2.794-1.817 8.016 8.016 0 0 0 1.728-2.467c.39-.871.602-1.795.615-2.67.02-1.275-.365-2.385-1.113-3.211zm-7.185-1.84c.375-.226.765-.45 1.16-.668 1.534-.845 3.06-1.54 4.3-1.96 1.364-.46 1.923-.43 2.053-.37-.011.078-.114.428-1.009 1.214-.748.657-1.84 1.43-3.074 2.176a35.077 35.077 0 0 1-2.894 1.567A4.974 4.974 0 0 0 9.232 5.23c.154-.096.31-.193.469-.288zm-.106 2.259c-1 .452-1.918.797-2.651.998a1.646 1.646 0 0 0-.535-.9c.549-.505 1.321-1.09 2.23-1.69.212.226.399.472.558.736.165.273.298.56.398.856zm7.696 2.781c-.05 3.364-3.209 6.995-8.223 6.995-2.327 0-4.57-.944-6.151-2.589A7.786 7.786 0 0 1 .742 8.21c.358-3.963 4.01-7.187 8.14-7.187H8.9c.339 0 .596.125.705.34.1.199.057.442-.117.652-.638.773-.798 1.723-.438 2.524a30.563 30.563 0 0 0-.56.352c-1.126.725-2.077 1.446-2.71 2.054a1.837 1.837 0 0 0-1.455.136c-.736.405-1.703 2.296-1.889 2.67-.05.101-.045.218.013.314a.356.356 0 0 0 .278.168c.196.016.752.054 1.371.054.751 0 1.594-.057 1.998-.279.437-.24.74-.643.845-1.105.869-.218 2.004-.644 3.233-1.215a34.614 34.614 0 0 0 3.165-1.678h.006c2.953.081 3.975 2.106 3.947 3.974zM6.27 8.607c-.023.34-.221.644-.53.815-.335.184-1.486.21-2.431.168.435-.801 1.033-1.74 1.368-1.925.317-.174.7-.182 1.024-.02.179.088.326.224.428.391a.974.974 0 0 1 .14.57z"/>
        <path d="M6.23 1.73c-.763 0-1.384.622-1.384 1.385 0 .764.621 1.385 1.385 1.385.763 0 1.384-.621 1.384-1.385 0-.763-.62-1.384-1.384-1.384zm0 2.078a.693.693 0 1 1 .002-1.386.693.693 0 0 1-.001 1.386zM4.846 11.423c-.763 0-1.384.621-1.384 1.385 0 .763.62 1.384 1.384 1.384.764 0 1.385-.62 1.385-1.384 0-.764-.621-1.385-1.385-1.385zm0 2.077a.693.693 0 1 1 .002-1.386.693.693 0 0 1-.002 1.386zM8.308 13.5c-.764 0-1.385.621-1.385 1.385 0 .763.621 1.384 1.385 1.384.763 0 1.384-.62 1.384-1.384 0-.764-.62-1.385-1.384-1.385zm0 2.077a.693.693 0 1 1 .001-1.386.693.693 0 0 1-.001 1.386zM12.462 12.808c-.764 0-1.385.62-1.385 1.384 0 .764.621 1.385 1.385 1.385.763 0 1.384-.621 1.384-1.385 0-.763-.621-1.384-1.384-1.384zm0 2.077a.693.693 0 1 1 .001-1.387.693.693 0 0 1-.001 1.387zM15.23 9.346c-.763 0-1.384.621-1.384 1.385 0 .763.621 1.384 1.385 1.384.763 0 1.384-.62 1.384-1.384 0-.764-.62-1.385-1.384-1.385zm0 2.077a.693.693 0 1 1 .002-1.386.693.693 0 0 1-.001 1.386z"/>
    </g>
</svg>
