<svg xmlns="http://www.w3.org/2000/svg" width="11" height="7" viewBox="0 0 11 7" fill="none">
<path d="M0.109791 0.680332L0.660836 0.113434C0.734262 0.0377314 0.818846 -8.90022e-07 0.91447 -8.81662e-07C1.00986 -8.73323e-07 1.09441 0.0377314 1.16783 0.113434L5.49964 4.56994L9.83125 0.113554C9.90472 0.0378514 9.98926 0.000119066 10.0848 0.000119075C10.1803 0.000119083 10.2649 0.0378514 10.3383 0.113554L10.8893 0.680492C10.9628 0.756036 10.9995 0.843019 10.9995 0.941322C10.9995 1.03954 10.9627 1.12653 10.8893 1.20207L5.75316 6.48642C5.67973 6.56201 5.59515 6.59978 5.49964 6.59978C5.40413 6.59978 5.3197 6.56201 5.24631 6.48642L0.109791 1.20207C0.0363645 1.12649 -0.000117393 1.0395 -0.000117384 0.941321C-0.000117376 0.843018 0.0363645 0.756035 0.109791 0.680332Z" fill="white"/>
</svg>