<svg xmlns="http://www.w3.org/2000/svg" width="9" height="11" viewBox="0 0 9 11">
    <g fill="#000" fill-rule="nonzero">
        <path d="M3.6 8.614l-1.448 1.492a.404.404 0 0 1-.584 0L.12 8.614a.436.436 0 0 1 0-.603.404.404 0 0 1 .585 0l.74.764V.426A.42.42 0 0 1 1.86 0a.42.42 0 0 1 .414.426v8.35l.74-.765a.405.405 0 0 1 .585 0 .436.436 0 0 1 0 .603zM8.684 2.22a.404.404 0 0 1-.585 0l-.741-.765v8.35a.42.42 0 0 1-.413.426.42.42 0 0 1-.414-.427V1.455l-.741.765a.404.404 0 0 1-.585 0 .436.436 0 0 1 0-.603L6.652.125a.405.405 0 0 1 .585 0l1.447 1.492a.436.436 0 0 1 0 .603z"/>
    </g>
</svg>
