<svg xmlns="http://www.w3.org/2000/svg" width="20" height="20" viewBox="0 0 20 20">
    <path fill="#BABBBE" fill-rule="evenodd" d="M9.9 20C4.432 20 0 15.523 0 10S4.432 0 9.9 0c5.467 0 9.9 4.477 9.9 10-.006 5.52-4.435 9.995-9.9 10zm0-18.338c-4.559.002-8.253 3.736-8.252 8.34.002 4.605 3.698 8.337 8.256 8.336 4.559 0 8.254-3.733 8.254-8.338-.006-4.604-3.7-8.334-8.258-8.338zM8.76 11.869c-.825-.833-2.986-6.033-2.986-6.033s5.148 2.183 5.973 3.016c.804.837.794 2.17-.022 2.995a2.097 2.097 0 0 1-2.965.022zm1.733-2.403A15.058 15.058 0 0 0 8.25 8.333c.309.786.684 1.543 1.122 2.263a.788.788 0 0 0 1.35-.345.806.806 0 0 0-.228-.785z"/>
</svg>
