<svg xmlns="http://www.w3.org/2000/svg" width="92" height="84" viewBox="0 0 92 84">
    <defs>
        <linearGradient id="a" x1=".335%" y1="50%" y2="50%">
            <stop offset="0%" stop-color="#DFF7DB"/>
            <stop offset="100%" stop-color="#B8FAB0"/>
        </linearGradient>
    </defs>
    <g fill="none" fill-rule="evenodd">
        <path fill="#EAD4CC" d="M45.944 83.547c-20.044 0-36.292-3.855-36.292-8.61 0-4.756 16.248-8.612 36.292-8.612 20.043 0 36.291 3.856 36.291 8.611 0 4.756-16.248 8.611-36.291 8.611" opacity=".3"/>
        <path fill="url(#a)" d="M83.152 37.468c0 20.693-16.776 37.468-37.469 37.468S8.216 58.161 8.216 37.468C8.216 16.775 24.99 0 45.683 0c20.693 0 37.469 16.775 37.469 37.468"/>
        <path fill="#605950" d="M54.302 52.91a9.309 9.309 0 0 1-3.36 4.002 9.206 9.206 0 0 1-5.13 1.549 9.21 9.21 0 0 1-5.129-1.549 9.313 9.313 0 0 1-3.36-4.002 1.916 1.916 0 0 0-3.51 1.539 13.145 13.145 0 0 0 4.744 5.653 13.049 13.049 0 0 0 7.256 2.192c2.676 0 5.181-.808 7.256-2.192a13.145 13.145 0 0 0 4.745-5.653 1.916 1.916 0 0 0-3.512-1.539M29.88 32.415a4.132 4.132 0 0 1-1.229 2.92 4.132 4.132 0 0 1-2.925 1.222 4.134 4.134 0 0 1-2.928-1.225 4.132 4.132 0 0 1-1.226-2.929 1.917 1.917 0 0 0-3.833 0c0 2.197.907 4.2 2.348 5.64a7.975 7.975 0 0 0 5.64 2.347 7.972 7.972 0 0 0 5.631-2.34 7.97 7.97 0 0 0 2.355-5.625 1.917 1.917 0 1 0-3.833-.01M57.654 32.425a7.973 7.973 0 0 0 2.355 5.625 7.972 7.972 0 0 0 5.632 2.34c2.197 0 4.2-.907 5.64-2.347a7.974 7.974 0 0 0 2.347-5.64 1.917 1.917 0 0 0-3.834 0 4.132 4.132 0 0 1-1.225 2.929 4.129 4.129 0 0 1-2.928 1.225 4.13 4.13 0 0 1-2.925-1.221 4.132 4.132 0 0 1-1.229-2.921 1.918 1.918 0 0 0-3.833.01"/>
        <path fill="#FFFFFE" d="M63.351 10.601c.17.11.239.155.31.205l.34.238a1.15 1.15 0 0 0 1.31-1.89c-.164-.114-.24-.17-.338-.238a9.986 9.986 0 0 0-.381-.251 1.15 1.15 0 1 0-1.24 1.936M51.483 5.84c3.296.6 6.416 1.703 9.278 3.227a1.15 1.15 0 1 0 1.08-2.03 34.222 34.222 0 0 0-9.945-3.46 1.15 1.15 0 0 0-.413 2.263"/>
        <path fill="#FAD461" d="M76.515 16.172c-8.256.809-19.072 1.259-30.564 1.259-11.716 0-22.758-.465-31.073-1.303a38.333 38.333 0 0 1 3.4-4.21c7.043.599 16.437 1.018 27.673 1.018 10.967 0 20.166-.405 27.163-.974a38.307 38.307 0 0 1 3.4 4.21"/>
        <path fill="#62C3D5" d="M77.07 5.43c-3.986-.404-8.601-.72-13.62-.944a37.128 37.128 0 0 1 7.027 4.9c5.559.388 9.933.883 12.93 1.393-2.502.419-5.978.838-10.293 1.183-6.997.57-16.196.974-27.163.974-11.236 0-20.63-.42-27.672-1.019-4.076-.33-7.387-.734-9.799-1.138 2.907-.495 7.087-.96 12.36-1.349a37.114 37.114 0 0 1 7.012-4.914c-4.794.224-9.199.524-13.035.914C2.293 6.688 0 8.232 0 10.779c0 2.562 2.293 4.09 14.817 5.349h.06c8.316.838 19.358 1.303 31.074 1.303 11.492 0 22.308-.45 30.564-1.259l.554-.044c12.525-1.26 14.818-2.787 14.818-5.35 0-2.546-2.293-4.09-14.818-5.348"/>
    </g>
</svg>
