<svg xmlns="http://www.w3.org/2000/svg" width="34" height="33" viewBox="0 0 34 33">
    <path fill="var(--color1)" fill-rule="evenodd" d="M26.261 32.825c-.267.001-.53-.064-.768-.19l-8.518-4.587-8.518 4.588c-.565.305-1.249.253-1.763-.134-.515-.387-.77-1.042-.66-1.688l1.671-9.675-6.881-6.874c-.438-.449-.598-1.11-.418-1.718.198-.623.722-1.077 1.353-1.169l9.52-1.426 4.193-8.816c.279-.593.863-.97 1.503-.97.64 0 1.224.377 1.503.97l4.243 8.799 9.52 1.426c.63.092 1.155.546 1.353 1.169.18.608.02 1.269-.418 1.718l-6.881 6.874 1.67 9.675c.122.658-.139 1.329-.668 1.719-.302.218-.667.326-1.036.309z"/>
</svg>
