<svg xmlns="http://www.w3.org/2000/svg" width="73" height="82" viewBox="0 0 73 82">
    <defs>
        <linearGradient id="a" x1=".789%" y1="50%" y2="50%">
            <stop offset="0%" stop-color="#EFE1F6"/>
            <stop offset="100%" stop-color="#D0E8FB"/>
        </linearGradient>
    </defs>
    <g fill="none" fill-rule="evenodd">
        <path fill="#EAD4CC" d="M36.382 81.175c-19.474 0-35.262-3.746-35.262-8.367 0-4.62 15.788-8.367 35.262-8.367s35.26 3.746 35.26 8.367-15.786 8.367-35.26 8.367" opacity=".27"/>
        <path fill="url(#a)" d="M72.809 36.404c0 20.105-16.299 36.404-36.404 36.404C16.299 72.808 0 56.509 0 36.404 0 16.298 16.3 0 36.405 0s36.404 16.298 36.404 36.404"/>
        <path fill="#FFFFFE" d="M53.607 10.3c.165.105.231.15.3.198l.33.232a1.117 1.117 0 0 0 1.274-1.837c-.16-.11-.233-.164-.328-.23a10.497 10.497 0 0 0-.372-.245 1.117 1.117 0 1 0-1.204 1.882M42.076 5.674a31.028 31.028 0 0 1 9.014 3.134 1.117 1.117 0 1 0 1.05-1.973 33.27 33.27 0 0 0-9.664-3.36 1.117 1.117 0 1 0-.4 2.199"/>
        <path fill="#FF9797" d="M66.215 38.657a5.768 5.768 0 1 1-11.539 0 5.768 5.768 0 0 1 11.54 0M6.297 38.657a5.768 5.768 0 1 0 11.539 0 5.768 5.768 0 0 0-11.54 0"/>
        <path fill="#F37B8E" d="M44.46 34.012c-.647-1.718-1.712-3.207-3.097-4.286-1.381-1.079-3.107-1.74-4.958-1.737-1.851-.002-3.577.658-4.96 1.737-1.385 1.08-2.45 2.568-3.096 4.286a1.863 1.863 0 0 0 3.487 1.309c.419-1.117 1.098-2.036 1.897-2.656.803-.62 1.701-.95 2.672-.952.97.003 1.868.332 2.67.952.8.62 1.479 1.54 1.897 2.656a1.861 1.861 0 1 0 3.487-1.309"/>
        <path fill="#F37B8E" d="M30.312 32.22h1.862c0-8.554-6.932-15.485-15.485-15.486-8.553 0-15.485 6.932-15.486 15.486.001 8.553 6.933 15.484 15.486 15.486 8.553-.002 15.485-6.933 15.485-15.486H28.45c0 3.254-1.313 6.182-3.445 8.316a11.72 11.72 0 0 1-8.316 3.445 11.715 11.715 0 0 1-8.316-3.445 11.713 11.713 0 0 1-3.445-8.316c0-3.254 1.313-6.183 3.445-8.317a11.714 11.714 0 0 1 8.316-3.444c3.253 0 6.182 1.313 8.316 3.444a11.716 11.716 0 0 1 3.445 8.317h1.862M69.752 32.22h1.862c0-8.554-6.932-15.485-15.485-15.486-8.554 0-15.484 6.933-15.486 15.486.002 8.553 6.932 15.484 15.486 15.486 8.553-.002 15.485-6.933 15.485-15.486H67.89c0 3.253-1.313 6.182-3.444 8.316a11.72 11.72 0 0 1-8.317 3.445 11.718 11.718 0 0 1-8.316-3.445 11.715 11.715 0 0 1-3.445-8.316 11.717 11.717 0 0 1 3.445-8.317 11.714 11.714 0 0 1 8.316-3.444c3.254 0 6.182 1.313 8.317 3.444a11.716 11.716 0 0 1 3.444 8.317h1.862"/>
        <path fill="#605950" d="M61.6 32.22a5.47 5.47 0 0 1-5.471 5.47 5.47 5.47 0 1 1 0-10.94 5.47 5.47 0 0 1 5.47 5.47M10.913 32.22a5.47 5.47 0 0 0 5.47 5.47 5.47 5.47 0 1 0 0-10.94 5.47 5.47 0 0 0-5.47 5.47M53.455 53.142c-2.243 3.022-5.268 5.419-8.766 6.838a20.337 20.337 0 0 1-7.801 1.548 20.335 20.335 0 0 1-12.21-4.037 20.87 20.87 0 0 1-4.355-4.35c-1.276-1.714-.091-4.46 2.005-4.147 7.544 1.125 21.595.977 29.121 0 2.096-.276 3.263 2.433 2.006 4.148"/>
        <path fill="#EA8FA3" d="M44.689 59.98a20.337 20.337 0 0 1-7.801 1.548 20.335 20.335 0 0 1-12.21-4.037c1.987-3.133 5.468-5.216 9.422-5.216 4.92 0 9.112 3.226 10.589 7.705"/>
    </g>
</svg>
