<svg xmlns="http://www.w3.org/2000/svg" width="73" height="82" viewBox="0 0 73 82">
    <g fill="none" fill-rule="evenodd">
        <path fill="#EAD4CC" d="M36.404 81.175c-19.474 0-35.261-3.746-35.261-8.366 0-4.621 15.787-8.367 35.26-8.367 19.476 0 35.263 3.746 35.263 8.367 0 4.62-15.787 8.366-35.262 8.366" opacity=".3"/>
        <path fill="#FFE7CC" d="M72.809 36.404c0 20.105-16.299 36.405-36.405 36.405C16.299 72.809 0 56.509 0 36.404S16.3 0 36.404 0C56.51 0 72.809 16.3 72.809 36.404"/>
        <path fill="#FFFFFE" d="M53.57 10.3c.165.106.232.15.302.2l.329.23a1.118 1.118 0 0 0 1.274-1.836c-.16-.11-.234-.165-.329-.23a11.087 11.087 0 0 0-.37-.245 1.117 1.117 0 1 0-1.205 1.881M42.04 5.675a31.018 31.018 0 0 1 9.015 3.134 1.117 1.117 0 1 0 1.05-1.972 33.255 33.255 0 0 0-9.665-3.361 1.117 1.117 0 0 0-.4 2.199"/>
        <path fill="#605950" d="M61.687 30.47a5.47 5.47 0 0 1-5.47 5.47 5.47 5.47 0 1 1 0-10.94 5.47 5.47 0 0 1 5.47 5.47M11 30.47a5.47 5.47 0 0 0 5.47 5.47 5.47 5.47 0 1 0 0-10.94A5.47 5.47 0 0 0 11 30.47M51.193 49.477a12.723 12.723 0 0 1-1.868 4.059 12.226 12.226 0 0 1-6.007 4.577c-1.013.352-1.558 1.484-1.216 2.529.342 1.044 1.44 1.605 2.454 1.253 3.185-1.107 5.954-3.216 7.914-6.03a16.77 16.77 0 0 0 2.463-5.35c.278-1.064-.333-2.16-1.366-2.446-1.033-.286-2.096.344-2.374 1.408"/>
    </g>
</svg>
