<svg xmlns="http://www.w3.org/2000/svg" width="73" height="82" viewBox="0 0 73 82">
    <g fill="none" fill-rule="evenodd">
        <path fill="#EAD4CC" d="M36.404 81.175c-19.474 0-35.261-3.746-35.261-8.366 0-4.621 15.787-8.367 35.26-8.367 19.476 0 35.263 3.746 35.263 8.367 0 4.62-15.787 8.366-35.262 8.366" opacity=".3"/>
        <path fill="#D5E5D2" d="M72.809 36.404c0 20.105-16.299 36.405-36.405 36.405C16.299 72.809 0 56.509 0 36.404S16.3 0 36.404 0C56.51 0 72.809 16.3 72.809 36.404"/>
        <path fill="#FFFFFE" d="M53.57 10.3c.165.106.232.15.302.2l.329.23a1.118 1.118 0 0 0 1.274-1.836c-.16-.11-.234-.165-.329-.23a11.087 11.087 0 0 0-.37-.245 1.117 1.117 0 1 0-1.205 1.881M42.04 5.675a31.018 31.018 0 0 1 9.015 3.134 1.117 1.117 0 1 0 1.05-1.972 33.255 33.255 0 0 0-9.665-3.361 1.117 1.117 0 0 0-.4 2.199"/>
        <path fill="#605950" d="M61.687 30.47a5.47 5.47 0 0 1-5.47 5.47 5.47 5.47 0 1 1 0-10.94 5.47 5.47 0 0 1 5.47 5.47M11 30.47a5.47 5.47 0 0 0 5.47 5.47 5.47 5.47 0 1 0 0-10.94A5.47 5.47 0 0 0 11 30.47M46.253 56.443c-.784-1.549-2.08-2.892-3.771-3.868-1.686-.976-3.8-1.577-6.069-1.575-2.267-.002-4.381.599-6.067 1.575-1.69.976-2.986 2.32-3.77 3.868-.489.962.17 2.036 1.468 2.398 1.298.361 2.746-.126 3.234-1.09.478-.945 1.253-1.72 2.152-2.237a5.946 5.946 0 0 1 2.983-.79 5.946 5.946 0 0 1 2.985.79c.9.518 1.674 1.292 2.152 2.238.488.963 1.936 1.45 3.234 1.089 1.3-.362 1.957-1.436 1.47-2.398"/>
    </g>
</svg>
