<svg xmlns="http://www.w3.org/2000/svg" width="80" height="84" viewBox="0 0 80 84">
    <g fill="none" fill-rule="evenodd">
        <path fill="#EAD4CC" d="M39.881 83.98c-19.92 0-36.067-3.875-36.067-8.655 0-4.78 16.148-8.656 36.067-8.656 19.918 0 36.065 3.876 36.065 8.656 0 4.78-16.147 8.656-36.065 8.656" opacity=".272"/>
        <path fill="#FFD4D4" d="M77.116 37.662c0 20.801-16.671 37.663-37.235 37.663-20.565 0-37.236-16.862-37.236-37.663C2.645 16.862 19.315 0 39.881 0c20.564 0 37.235 16.862 37.235 37.662"/>
        <path fill="#F07A7A" d="M72.973 41.544c0 2.144-2.643 3.882-5.9 3.882-3.26 0-5.901-1.738-5.901-3.882 0-2.143 2.642-3.882 5.9-3.882 3.258 0 5.9 1.739 5.9 3.882M18.359 41.544c0 2.144-2.642 3.882-5.901 3.882s-5.9-1.738-5.9-3.882c0-2.143 2.641-3.882 5.9-3.882 3.26 0 5.9 1.739 5.9 3.882"/>
        <path fill="#DF5067" d="M29.802 16.019a8.266 8.266 0 0 0-11.788 0l-1.892 1.914-1.892-1.914a8.266 8.266 0 0 0-5.894-2.473 8.266 8.266 0 0 0-5.894 2.473c-3.256 3.293-3.256 8.634 0 11.928l1.892 1.908L16.122 41.78 27.91 29.855l1.892-1.908a8.452 8.452 0 0 0 2.44-5.962c0-2.163-.812-4.32-2.44-5.966M77.321 16.019a8.265 8.265 0 0 0-11.787 0l-1.893 1.914-1.892-1.914a8.266 8.266 0 0 0-5.894-2.473 8.266 8.266 0 0 0-5.893 2.473c-3.257 3.293-3.257 8.634 0 11.928l1.892 1.908L63.64 41.78l11.788-11.924 1.892-1.908a8.452 8.452 0 0 0 2.44-5.962c0-2.163-.812-4.32-2.44-5.966"/>
        <path fill="#605950" d="M56.455 55.142c-2.243 3.022-5.268 5.419-8.766 6.838a20.337 20.337 0 0 1-7.801 1.548 20.335 20.335 0 0 1-12.21-4.037 20.87 20.87 0 0 1-4.355-4.35c-1.276-1.714-.091-4.46 2.005-4.147 7.544 1.125 21.595.977 29.121 0 2.096-.276 3.263 2.433 2.006 4.148"/>
        <path fill="#EA8FA3" d="M47.689 61.98a20.337 20.337 0 0 1-7.801 1.548 20.335 20.335 0 0 1-12.21-4.037c1.987-3.133 5.468-5.216 9.422-5.216 4.92 0 9.112 3.226 10.589 7.705"/>
        <path fill="#FFFFFE" d="M57.439 10.657c.17.11.237.155.309.205.071.05.161.116.336.238.518.365 1.23.235 1.59-.29.36-.524.231-1.245-.287-1.609l-.337-.238a11.496 11.496 0 0 0-.38-.254 1.136 1.136 0 0 0-1.578.351 1.164 1.164 0 0 0 .347 1.597M45.644 5.87a31.475 31.475 0 0 1 9.22 3.244c.558.3 1.25.086 1.546-.478a1.162 1.162 0 0 0-.472-1.563 33.753 33.753 0 0 0-9.884-3.477 1.144 1.144 0 0 0-1.33.93c-.113.628.299 1.23.92 1.345"/>
    </g>
</svg>
