<svg xmlns="http://www.w3.org/2000/svg" width="18" height="17" viewBox="0 0 18 17">
    <path fill="none" stroke="#FFF" d="M12.53 1c1.236 0 2.373.521 3.2 1.468.82.935 1.27 2.213 1.27 3.599 0 1.425-.504 2.731-1.587 4.107-.968 1.232-2.36 2.482-3.972 3.93-.55.494-1.175 1.054-1.822 1.651-.17.157-.388.244-.613.245H9c-.228 0-.447-.087-.619-.245-.646-.595-1.27-1.155-1.819-1.65l-.003-.001c-1.611-1.448-3.004-2.698-3.972-3.93C1.504 8.798 1 7.492 1 6.067c0-1.385.45-2.664 1.27-3.6C3.097 1.522 4.233 1 5.47 1c.923 0 1.769.307 2.514.914.376.307.716.681 1.016 1.119l.006-.008c.293-.426.625-.793.99-1.094.006-.007.01-.013.016-.017.745-.607 1.591-.914 2.515-.914h.003z"/>
</svg>
