<svg width="48" height="48" viewBox="0 0 48 48" fill="none" xmlns="http://www.w3.org/2000/svg">
<circle cx="24" cy="24" r="23.75" fill="white" stroke="#E1E1E1" stroke-width="0.5"/>
<g clip-path="url(#clip0_5846_561)">
<path d="M30.046 15.9297C29.9152 17.2655 29.7518 19.2834 29.4229 20.5064C29.2046 21.3192 28.785 22.0625 28.2031 22.6698C27.4208 23.4869 26.2125 24.4748 25.4166 25.0251C24.7924 25.4574 23.4777 25.5111 22.6754 24.9355C21.7687 24.285 20.629 23.2444 19.8773 22.441C19.2985 21.8221 18.8873 21.0662 18.6817 20.2449C18.4434 19.2939 18.3254 17.8032 18.2305 16.4748" stroke="#B1B1B1" stroke-width="0.6" stroke-linecap="round" stroke-linejoin="round"/>
<path d="M20.0405 22.6406C20.0405 22.6406 20.711 26.6617 19.6367 29.1467" stroke="#B1B1B1" stroke-width="0.6" stroke-linecap="round" stroke-linejoin="round"/>
<path d="M18.7363 15.6178C18.7363 15.6178 23.5144 13.6188 23.9192 9.57031" stroke="#B1B1B1" stroke-width="0.6" stroke-linecap="round" stroke-linejoin="round"/>
<path d="M21.3267 17.2337C21.5427 17.2337 21.7178 17.0222 21.7178 16.7614C21.7178 16.5005 21.5427 16.2891 21.3267 16.2891C21.1107 16.2891 20.9355 16.5005 20.9355 16.7614C20.9355 17.0222 21.1107 17.2337 21.3267 17.2337Z" fill="#B1B1B1"/>
<path d="M17.245 16.2891C17.245 16.2891 16.3889 16.871 16.8327 18.4156C17.2766 19.9601 17.8807 19.8262 17.8807 19.8262" stroke="#B1B1B1" stroke-width="0.6" stroke-linecap="round" stroke-linejoin="round"/>
<path d="M24.4688 9.57031C24.6849 11.5176 29.0433 13.7569 29.4714 15.3236" stroke="#B1B1B1" stroke-width="0.6" stroke-linecap="round" stroke-linejoin="round"/>
<path d="M24.7548 19.4712C24.7411 19.972 23.4464 19.9383 23.4591 19.4375" stroke="#B1B1B1" stroke-width="0.6" stroke-linecap="round" stroke-linejoin="round"/>
<path d="M22.9277 6.85938C22.9277 6.85938 16.3942 7.79348 16.2297 15.2157C16.0653 22.6369 14.176 25.8219 15.1206 27.764" stroke="#B1B1B1" stroke-width="0.6" stroke-linecap="round" stroke-linejoin="round"/>
<path d="M22.0508 21.471C22.0508 21.471 23.3528 21.9148 24.1256 21.9148C24.8984 21.9148 26.2732 21.3086 26.2732 21.3086" stroke="#B1B1B1" stroke-width="0.6" stroke-linecap="round" stroke-linejoin="round"/>
<path d="M22.8008 21.6104C22.8008 21.6104 23.3796 20.7944 24.1925 21.2267C24.1925 21.2267 24.7692 20.7596 25.5641 21.5272" stroke="#B1B1B1" stroke-width="0.6" stroke-linecap="round" stroke-linejoin="round"/>
<path d="M22.7148 22.2539C22.7148 22.2539 23.1661 23.032 24.2183 23.032C24.64 23.032 24.9647 22.9076 25.203 22.7579" stroke="#B1B1B1" stroke-width="0.6" stroke-linecap="round" stroke-linejoin="round"/>
<path d="M22.5653 15.6801C22.5305 15.7486 22.4515 15.7803 22.3787 15.755C21.8178 15.5568 21.0577 15.2995 20.6402 15.4113C20.4072 15.4735 19.9897 15.6696 19.7483 15.7876C19.6808 15.8203 19.6112 15.7476 19.646 15.6812C19.8874 15.2088 20.3597 14.9938 20.6613 14.9695C20.6613 14.9695 21.3508 14.8894 22.5274 15.3933C22.6086 15.4281 22.6444 15.5241 22.6043 15.6021L22.5643 15.6812L22.5653 15.6801Z" fill="#B1B1B1"/>
<path d="M19.6719 16.6076L19.7689 16.6297C19.8669 16.6519 19.9702 16.635 20.0546 16.5812C20.0672 16.5728 20.082 16.5644 20.102 16.5549C20.2222 16.4958 20.3435 16.4484 20.4921 16.4062C20.8137 16.3156 21.5317 16.0288 22.2011 16.9608" stroke="#B1B1B1" stroke-width="0.6" stroke-linecap="round" stroke-linejoin="round"/>
</g>
<g clip-path="url(#clip1_5846_561)">
<path d="M22.8398 22.3125C22.8398 22.3125 23.9996 23.8497 25.7508 22.419C25.7508 22.419 24.8272 22.9514 22.8398 22.3125Z" fill="#FF9797"/>
<path d="M22.7988 21.6119C22.7988 21.6119 23.3175 21.012 23.7888 21.1016C24.2601 21.1912 24.2907 21.2176 24.2907 21.2176C24.2907 21.2176 24.4952 21.052 24.8399 21.0868C25.1847 21.1216 25.6865 21.5655 25.6865 21.5655C25.6865 21.5655 24.9232 21.9693 24.1916 21.9313C23.4609 21.8934 22.7988 21.6119 22.7988 21.6119Z" fill="#FF9797"/>
<path d="M25.6378 16.9618C25.6378 16.9408 25.7074 15.3815 27.933 15.9676C27.933 15.9676 28.6794 16.2576 28.9093 16.1722C28.9093 16.1722 28.4306 16.8026 27.779 16.5612C26.3652 16.0383 25.6367 16.9618 25.6367 16.9618H25.6378Z" fill="#FF9797"/>
<path d="M30.128 15.9297C29.9973 17.2655 29.8338 19.2834 29.5049 20.5064C29.2867 21.3192 28.8671 22.0625 28.2851 22.6698C27.5028 23.4869 26.2946 24.4748 25.4986 25.0251C24.8744 25.4574 23.5597 25.5111 22.7574 24.9355C21.8507 24.285 20.711 23.2444 19.9593 22.441C19.3805 21.8221 18.9693 21.0662 18.7637 20.2449C18.5255 19.2939 18.4074 17.8032 18.3125 16.4748" stroke="black" stroke-width="0.6" stroke-linecap="round" stroke-linejoin="round"/>
<path d="M28.3688 22.6406C28.3688 22.6406 27.6983 26.6617 28.7726 29.1467" stroke="black" stroke-width="0.6" stroke-linecap="round" stroke-linejoin="round"/>
<path d="M18.8203 15.6178C18.8203 15.6178 23.5984 13.6188 24.0032 9.57031" stroke="black" stroke-width="0.6" stroke-linecap="round" stroke-linejoin="round"/>
<path d="M26.9048 17.2337C27.1208 17.2337 27.296 17.0222 27.296 16.7614C27.296 16.5005 27.1208 16.2891 26.9048 16.2891C26.6888 16.2891 26.5137 16.5005 26.5137 16.7614C26.5137 17.0222 26.6888 17.2337 26.9048 17.2337Z" fill="black"/>
<path d="M31.0537 16.2891C31.0537 16.2891 31.9098 16.871 31.4659 18.4156C31.0221 19.9601 30.418 19.8262 30.418 19.8262" stroke="black" stroke-width="0.6" stroke-linecap="round" stroke-linejoin="round"/>
<path d="M24.5508 9.57031C24.7669 11.5176 29.1254 13.7569 29.5534 15.3236" stroke="#FF9797" stroke-width="0.6" stroke-linecap="round" stroke-linejoin="round"/>
<path d="M24.8388 19.4712C24.8251 19.972 23.5304 19.9383 23.5431 19.4375" stroke="black" stroke-width="0.6" stroke-linecap="round" stroke-linejoin="round"/>
<path d="M25.4316 6.85938C25.4316 6.85938 31.9651 7.79348 32.1306 15.2147C32.2951 22.6359 34.1844 25.8209 33.2398 27.7629" stroke="#FF9797" stroke-width="0.6" stroke-linecap="round" stroke-linejoin="round"/>
<path d="M22.1367 21.471C22.1367 21.471 23.4388 21.9148 24.2116 21.9148C24.9844 21.9148 26.3592 21.3086 26.3592 21.3086" stroke="black" stroke-width="0.6" stroke-linecap="round" stroke-linejoin="round"/>
<path d="M22.8848 21.6104C22.8848 21.6104 23.4636 20.7944 24.2764 21.2267C24.2764 21.2267 24.8531 20.7596 25.6481 21.5272" stroke="black" stroke-width="0.6" stroke-linecap="round" stroke-linejoin="round"/>
<path d="M22.7988 22.2539C22.7988 22.2539 23.2501 23.032 24.3023 23.032C24.724 23.032 25.0487 22.9076 25.287 22.7579" stroke="black" stroke-width="0.6" stroke-linecap="round" stroke-linejoin="round"/>
<path d="M25.5984 15.6801C25.6332 15.7486 25.7123 15.7803 25.7851 15.755C26.3459 15.5568 27.1061 15.2995 27.5236 15.4113C27.7566 15.4735 28.1741 15.6696 28.4155 15.7876C28.483 15.8203 28.5526 15.7476 28.5178 15.6812C28.2764 15.2088 27.804 14.9938 27.5025 14.9695C27.5025 14.9695 26.813 14.8894 25.6364 15.3933C25.5552 15.4281 25.5194 15.5241 25.5594 15.6021L25.5995 15.6812L25.5984 15.6801Z" fill="black"/>
<path d="M28.2988 16.6076L28.2018 16.6297C28.1037 16.6519 28.0004 16.635 27.9161 16.5812C27.9034 16.5728 27.8876 16.5644 27.8686 16.5549C27.7484 16.4958 27.6272 16.4484 27.4785 16.4062C27.157 16.3156 26.439 16.0288 25.7695 16.9608" stroke="black" stroke-width="0.6" stroke-linecap="round" stroke-linejoin="round"/>
<path d="M28.5302 20.9273C27.9261 20.7723 27.5898 20.0459 27.7795 19.3037C27.9693 18.5614 28.6124 18.0859 29.2165 18.2399C29.8206 18.3949 29.1332 21.0812 28.5291 20.9262L28.5302 20.9273Z" fill="#FF9797"/>
</g>
<line x1="24.2633" y1="6" x2="24.2633" y2="30" stroke="black" stroke-width="0.3" stroke-dasharray="0.5 0.5"/>
<path d="M13.1761 34.816V40H11.9881V34.816H10.4041V33.79H14.7601V34.816H13.1761ZM16.4249 37.48V40H15.2459V33.79H17.6039C18.2069 33.79 18.6929 33.952 19.0529 34.285C19.4129 34.618 19.5929 35.077 19.5929 35.644C19.5929 36.049 19.5029 36.4 19.3139 36.679C19.1249 36.958 18.8459 37.165 18.4949 37.3L19.8449 40H18.4859L17.3069 37.48H16.4249ZM17.5409 36.499C17.8199 36.499 18.0359 36.427 18.1889 36.274C18.3419 36.13 18.4139 35.923 18.4139 35.644C18.4139 35.392 18.3329 35.194 18.1799 35.041C18.0269 34.888 17.8109 34.816 17.5409 34.816H16.4249V36.499H17.5409ZM23.0354 40H21.8564V37.453L20.0474 33.79H21.3344L22.4414 36.31L23.5484 33.79H24.8444L23.0354 37.444V40ZM27.1872 36.175C27.1872 34.528 27.9432 33.7 29.4462 33.7C30.1392 33.7 30.6792 33.889 31.0842 34.276C31.4892 34.663 31.6872 35.302 31.6872 36.175V37.597C31.6872 38.47 31.4802 39.1 31.0752 39.487C30.6612 39.874 30.1032 40.072 29.4102 40.072C27.9252 40.072 27.1872 39.244 27.1872 37.597V36.175ZM30.2472 38.668C30.4182 38.443 30.5082 38.074 30.5082 37.579V36.238C30.5082 35.707 30.4182 35.329 30.2472 35.086C30.0762 34.852 29.8062 34.735 29.4462 34.735C29.0682 34.735 28.7982 34.852 28.6272 35.077C28.4562 35.311 28.3752 35.698 28.3752 36.238V37.579C28.3752 38.092 28.4562 38.452 28.6272 38.677C28.7982 38.902 29.0682 39.019 29.4462 39.019C29.8062 39.019 30.0762 38.902 30.2472 38.668ZM37.1208 40H35.9418L33.6558 36.121V40H32.4768V33.79H33.6558L35.9418 37.678V33.79H37.1208V40Z" fill="#0B0B09"/>
<defs>
<clipPath id="clip0_5846_561">
<rect width="10.2857" height="24" fill="white" transform="translate(14 6)"/>
</clipPath>
<clipPath id="clip1_5846_561">
<rect width="10.2857" height="24" fill="white" transform="translate(24.2852 6)"/>
</clipPath>
</defs>
</svg>
