<svg width="22" height="20" viewBox="0 0 22 20" fill="none" xmlns="http://www.w3.org/2000/svg">
<g opacity="0.6">
<path d="M19.3571 9.21079V2.27777C19.3571 1.02182 18.3353 0 17.0793 0H2.27777C1.02182 0 0 1.02182 0 2.27777V14.3773C0 15.6332 1.02182 16.6551 2.27777 16.6551H11.0808C12.0338 18.5337 13.9805 19.8271 16.2274 19.8271C19.4104 19.8271 22 17.2375 22 14.0544C22 12.0253 20.9452 10.2405 19.3571 9.21079ZM2.27777 15.6236C1.59049 15.6236 1.03144 15.0646 1.03144 14.3773V2.27777C1.03144 1.59049 1.59049 1.03144 2.27777 1.03144H17.0793C17.7666 1.03144 18.3257 1.59049 18.3257 2.27777V8.68235C17.6741 8.42689 16.9683 8.2818 16.2274 8.2818C15.8873 8.2818 15.5559 8.31721 15.2317 8.37394L13.5504 7.00728C13.548 7.00556 13.5456 7.00453 13.5432 7.00247C13.5288 6.99112 13.5133 6.98218 13.4978 6.97256C13.4837 6.96362 13.4703 6.95399 13.4555 6.94677C13.4445 6.94127 13.4328 6.93783 13.4211 6.93302C13.4012 6.92477 13.3816 6.91617 13.361 6.91033C13.3534 6.90826 13.3452 6.90792 13.3373 6.90586C13.3132 6.90036 13.2884 6.8952 13.264 6.89348C13.2544 6.89279 13.2441 6.89382 13.2345 6.89348C13.2118 6.89314 13.1887 6.89245 13.166 6.8952C13.1537 6.89657 13.1416 6.90036 13.1292 6.90242C13.1086 6.9062 13.0883 6.90964 13.0684 6.91617C13.057 6.91995 13.046 6.92545 13.0343 6.93027C13.0137 6.93818 12.9938 6.94643 12.9742 6.95708C12.9721 6.95846 12.9697 6.9588 12.9676 6.96018L10.6325 8.30209L7.8565 5.71557C7.85375 5.71282 7.84963 5.71213 7.84688 5.70973C7.80012 5.66778 7.74786 5.63649 7.69182 5.61449C7.68494 5.61174 7.67841 5.60899 7.67153 5.60658C7.61549 5.58733 7.55773 5.57839 7.49894 5.57908C7.49137 5.57908 7.48381 5.57908 7.47624 5.57942C7.41883 5.58251 7.3621 5.59592 7.30778 5.61862C7.29987 5.62171 7.2923 5.6248 7.2844 5.62859C7.24451 5.6475 7.20601 5.67019 7.17059 5.7001L1.91402 10.17C1.69707 10.3543 1.67059 10.6799 1.85522 10.8969C1.95699 11.0168 2.10243 11.0784 2.2482 11.0784C2.36647 11.0784 2.48509 11.0382 2.58205 10.9556L7.49 6.78277L11.602 10.6149C10.8848 11.5769 10.4544 12.7651 10.4544 14.0544C10.4544 14.599 10.5352 15.1237 10.6768 15.6236H2.27777ZM12.2893 9.84547L11.4225 9.03785L13.175 8.03116L14.0238 8.72085C13.3771 8.98937 12.793 9.3741 12.2893 9.84547ZM16.2274 18.7956C13.613 18.7956 11.4862 16.6685 11.4862 14.0544C11.4862 11.4404 13.6133 9.31324 16.2274 9.31324C18.8414 9.31324 20.9686 11.4404 20.9686 14.0544C20.9686 16.6685 18.8417 18.7956 16.2274 18.7956Z" fill="black"/>
<path d="M3.90739 5.93588C5.10662 5.93588 6.08236 4.96013 6.08236 3.76091C6.08236 2.56168 5.10662 1.58594 3.90739 1.58594C2.70817 1.58594 1.73242 2.56168 1.73242 3.76091C1.73242 4.96013 2.70817 5.93588 3.90739 5.93588ZM3.90739 2.61704C4.53795 2.61704 5.05092 3.13001 5.05092 3.76056C5.05092 4.39112 4.53795 4.90409 3.90739 4.90409C3.27684 4.90409 2.76387 4.39112 2.76387 3.76056C2.76387 3.13001 3.27684 2.61704 3.90739 2.61704Z" fill="black"/>
<path d="M16.5587 11.1689C16.5566 11.1672 16.5542 11.1662 16.5518 11.1645C16.5446 11.1579 16.5363 11.1528 16.5288 11.1469C16.5167 11.1383 16.504 11.1301 16.4913 11.1225C16.4831 11.1174 16.4751 11.1119 16.4665 11.107C16.459 11.1029 16.4504 11.0998 16.4428 11.096C16.4294 11.0899 16.416 11.085 16.4023 11.0799C16.3926 11.0761 16.383 11.072 16.373 11.0689C16.3651 11.0665 16.3565 11.0651 16.3486 11.063C16.3349 11.0596 16.3208 11.0572 16.3067 11.0551C16.2964 11.0534 16.286 11.051 16.2757 11.05C16.2664 11.0489 16.2565 11.0493 16.2472 11.0489C16.24 11.0486 16.2334 11.0469 16.2262 11.0469C16.219 11.0469 16.2125 11.0486 16.2053 11.0489C16.196 11.0493 16.186 11.0489 16.1767 11.05C16.1664 11.051 16.1561 11.0534 16.1458 11.0551C16.1317 11.0575 16.1176 11.0599 16.1038 11.063C16.0959 11.0651 16.0873 11.0665 16.0794 11.0689C16.0694 11.072 16.0598 11.0761 16.0502 11.0799C16.0364 11.085 16.023 11.0899 16.0096 11.096C16.0021 11.0998 15.9938 11.1033 15.9859 11.107C15.9776 11.1119 15.9694 11.1174 15.9608 11.1225C15.9481 11.1301 15.9357 11.1383 15.924 11.1469C15.9161 11.1528 15.9079 11.1579 15.9006 11.1645C15.8982 11.1662 15.8958 11.1672 15.8938 11.1689L13.8236 12.9172C13.606 13.1008 13.5785 13.4261 13.7624 13.6437C13.8642 13.7647 14.01 13.8266 14.1565 13.8266C14.274 13.8266 14.3923 13.7867 14.4889 13.7049L15.7105 12.6731V16.5486C15.7105 16.8333 15.9415 17.0643 16.2262 17.0643C16.5109 17.0643 16.7419 16.8333 16.7419 16.5486V12.6735L17.9635 13.7052C18.0601 13.7871 18.1784 13.827 18.296 13.827C18.4428 13.827 18.5886 13.7647 18.69 13.644C18.8739 13.4264 18.8464 13.1012 18.6288 12.9176L16.5587 11.1689Z" fill="black"/>
</g>
</svg>
