<svg width="12" height="12" viewBox="0 0 12 12" fill="none" xmlns="http://www.w3.org/2000/svg">
<path fill-rule="evenodd" clip-rule="evenodd" d="M5.99999 0C5.93653 0 5.8752 0.0115734 5.8159 0.034347C5.69718 0.0799439 5.59574 0.166434 5.50855 0.257702C5.40612 0.364949 5.31563 0.485861 5.22452 0.602914C5.04952 0.827688 4.8445 1.08469 4.5616 1.16852C4.27871 1.25237 3.96859 1.14809 3.70096 1.05448C3.5616 1.00572 3.42073 0.953403 3.27713 0.919056C3.15488 0.889861 3.0232 0.872464 2.89891 0.898896C2.83684 0.912137 2.77905 0.935832 2.72566 0.970452C2.67226 1.0051 2.62691 1.04831 2.58921 1.09983C2.51373 1.20297 2.4747 1.3311 2.45027 1.45544C2.42154 1.60157 2.41017 1.75267 2.39622 1.90086C2.36941 2.18547 2.33455 2.51355 2.14148 2.73845C1.94839 2.96338 1.63166 3.04489 1.35639 3.11219C1.21303 3.14721 1.06649 3.18009 0.927301 3.22956C0.808822 3.27168 0.68874 3.32892 0.598346 3.419C0.553174 3.464 0.517273 3.51547 0.490914 3.57376C0.464531 3.63202 0.449514 3.69313 0.445396 3.75704C0.437136 3.885 0.472963 4.01407 0.518999 4.13205C0.573097 4.27063 0.644456 4.40393 0.712091 4.53622C0.841961 4.79029 0.988377 5.0853 0.94641 5.37989C0.904468 5.67445 0.681639 5.9159 0.486106 6.12273C0.384295 6.23042 0.278614 6.33804 0.188023 6.45565C0.110894 6.55572 0.0405466 6.66939 0.0127577 6.79451C-0.00112441 6.85701 -0.00376275 6.9199 0.00526186 6.98332C0.0142865 7.04676 0.0343576 7.10632 0.0651547 7.16235C0.126724 7.2745 0.22597 7.36355 0.327904 7.43767C0.447665 7.52473 0.579089 7.59793 0.706839 7.6723C0.95218 7.81516 1.23335 7.98344 1.35582 8.25416C1.47832 8.52485 1.42018 8.84956 1.36645 9.13028C1.33851 9.27646 1.30725 9.42465 1.29401 9.57301C1.28274 9.6993 1.28444 9.83333 1.32806 9.95374C1.34985 10.0139 1.38132 10.0683 1.42289 10.1167C1.46446 10.1651 1.51326 10.2043 1.56916 10.2346C1.68103 10.2953 1.81223 10.3161 1.93764 10.3228C2.08502 10.3307 2.23481 10.3206 2.38211 10.3134C2.66503 10.2997 2.99169 10.2878 3.23972 10.4487C3.48775 10.6096 3.61276 10.9145 3.71793 11.18C3.77269 11.3182 3.82575 11.4599 3.8941 11.592C3.95227 11.7043 4.02548 11.8162 4.12667 11.8937C4.17724 11.9324 4.2328 11.9609 4.2937 11.979C4.35461 11.997 4.41667 12.0033 4.47991 11.9984C4.60658 11.9884 4.72804 11.9343 4.83718 11.8715C4.96539 11.7977 5.08594 11.7074 5.20605 11.621C5.4367 11.4551 5.70514 11.2668 5.99999 11.2668C6.29482 11.2668 6.56327 11.4551 6.79394 11.621C6.91404 11.7074 7.03459 11.7977 7.16284 11.8715C7.27192 11.9343 7.39343 11.9884 7.52007 11.9984C7.58332 12.0033 7.64538 11.997 7.70629 11.979C7.76717 11.9609 7.82274 11.9324 7.87332 11.8937C7.97453 11.8162 8.04772 11.7043 8.10588 11.592C8.17421 11.4599 8.22727 11.3182 8.28206 11.18C8.38723 10.9145 8.51221 10.6096 8.76027 10.4487C9.00827 10.2878 9.33496 10.2997 9.61788 10.3134C9.7652 10.3206 9.91497 10.3307 10.0623 10.3228C10.1878 10.3161 10.319 10.2953 10.4309 10.2346C10.4867 10.2043 10.5356 10.1651 10.5771 10.1167C10.6187 10.0683 10.6501 10.0139 10.6719 9.95374C10.7156 9.83333 10.7173 9.6993 10.706 9.57304C10.6928 9.42465 10.6615 9.27646 10.6335 9.13028C10.5798 8.84956 10.5217 8.52485 10.6442 8.25416C10.7666 7.98344 11.0478 7.81516 11.2931 7.6723C11.4209 7.59793 11.5523 7.52473 11.6721 7.43767C11.774 7.36355 11.8733 7.2745 11.9349 7.16235C11.9656 7.10632 11.9857 7.04676 11.9947 6.98332C12.0038 6.9199 12.0011 6.85701 11.9873 6.79451C11.9594 6.66939 11.8891 6.55572 11.812 6.45565C11.7214 6.33804 11.6157 6.23042 11.5139 6.12273C11.3183 5.9159 11.0955 5.67445 11.0536 5.37989C11.0116 5.0853 11.158 4.79029 11.2879 4.53622C11.3555 4.40393 11.4269 4.27063 11.481 4.13202C11.527 4.01407 11.5629 3.88497 11.5546 3.75702C11.5505 3.69313 11.5355 3.63202 11.5091 3.57376C11.4827 3.51547 11.4468 3.46397 11.4016 3.419C11.3112 3.32892 11.1912 3.27168 11.0727 3.22956C10.9335 3.18009 10.787 3.14721 10.6436 3.11219C10.3683 3.04489 10.0516 2.96338 9.85851 2.73845C9.66544 2.51355 9.6306 2.18549 9.60377 1.90086C9.58979 1.75267 9.57842 1.60157 9.54972 1.45544C9.52526 1.3311 9.48623 1.20297 9.41078 1.09983C9.37308 1.04831 9.32771 1.0051 9.27432 0.970452C9.22092 0.935832 9.16314 0.912112 9.10106 0.898896C8.97676 0.872439 8.84509 0.889861 8.72286 0.919056C8.57926 0.953403 8.43839 1.00572 8.29905 1.05448C8.03139 1.14809 7.72128 1.25237 7.43838 1.16852C7.15551 1.08469 6.95046 0.827688 6.77547 0.602914C6.68434 0.485861 6.59384 0.364949 6.49144 0.257702C6.40425 0.166434 6.30281 0.0799439 6.18409 0.034347C6.12476 0.0115734 6.06349 0 5.99999 0Z" fill="#1ADB80"/>
<path fill-rule="evenodd" clip-rule="evenodd" d="M4.67477 6.00017C5.29836 6.00017 5.70992 5.46241 5.70992 4.82626V4.81313C5.70992 4.18356 5.30459 3.65234 4.68724 3.65234C4.06988 3.65234 3.65207 4.18356 3.65207 4.82626V4.83938C3.65207 5.46896 4.06365 6.00017 4.67477 6.00017ZM4.31289 8.07244C4.31289 8.21669 4.4189 8.32818 4.55609 8.32818C4.64339 8.32818 4.72447 8.28884 4.77436 8.21017L7.63663 4.09815C7.66782 4.05226 7.69277 3.99324 7.69277 3.92765C7.69277 3.78336 7.58052 3.67188 7.44332 3.67188C7.35602 3.67188 7.27495 3.71122 7.23128 3.78991L4.36901 7.90191C4.33782 7.94782 4.31289 8.00684 4.31289 8.07244ZM7.31254 8.34783C7.92991 8.34783 8.34772 7.81006 8.34772 7.17394V7.16081C8.34772 6.53124 7.93616 6 7.32502 6C6.70768 6 6.28987 6.53124 6.28987 7.17394V7.18704C6.28987 7.81664 6.70143 8.34783 7.31254 8.34783ZM4.68718 5.4951C4.40656 5.4951 4.207 5.19998 4.207 4.82615V4.81303C4.207 4.45889 4.38161 4.15723 4.6747 4.15723C4.95531 4.15723 5.15487 4.45889 5.15487 4.82615V4.83927C5.15487 5.19341 4.98025 5.4951 4.68718 5.4951ZM7.32513 7.84289C7.04451 7.84289 6.84497 7.5478 6.84497 7.17397V7.16085C6.84497 6.80669 7.01958 6.50502 7.31265 6.50502C7.59329 6.50502 7.79285 6.80669 7.79285 7.17397V7.18707C7.79285 7.5412 7.61822 7.84289 7.32513 7.84289Z" fill="white"/>
</svg>
