<svg xmlns="http://www.w3.org/2000/svg" width="25" height="20" viewBox="0 0 25 20">
    <path fill="#BABBBE" fill-rule="evenodd" d="M18.631 11.642c-2.21 0-4.002-1.862-4.002-4.158 0-2.296 1.792-4.158 4.002-4.158s4.003 1.862 4.003 4.158c0 2.296-1.792 4.158-4.003 4.158zm0-6.653c-1.326 0-2.401 1.117-2.401 2.495 0 1.378 1.075 2.494 2.401 2.494 1.327 0 2.402-1.116 2.402-2.494 0-1.378-1.075-2.495-2.402-2.495zM11.82 16.065c-.802-1.749-2.53-2.834-4.394-2.76-3.61 0-5.06 3.037-5.467 6.652H.365c.52-4.511 2.57-8.315 7.06-8.315 2.196-.077 4.262 1.083 5.403 3.035-.4.409-.74.876-1.009 1.388zM7.425 9.978c-2.653 0-4.803-2.233-4.803-4.989C2.622 2.234 4.772 0 7.425 0c2.652 0 4.803 2.234 4.803 4.99 0 2.755-2.15 4.988-4.803 4.988zm0-8.315c-1.769 0-3.202 1.49-3.202 3.326 0 1.837 1.433 3.326 3.202 3.326 1.768 0 3.202-1.489 3.202-3.326S9.193 1.663 7.425 1.663zM18.63 13.305c3.522 0 5.107 3.05 5.5 6.652h-1.585c-.288-2.712-1.33-4.99-3.915-4.99s-3.626 2.28-3.914 4.99h-1.585c.392-3.601 1.977-6.652 5.5-6.652z"/>
</svg>
