<svg xmlns="http://www.w3.org/2000/svg" width="18" height="17" viewBox="0 0 18 17">
    <g fill="#FFF" fill-rule="nonzero">
        <path d="M1.125 9.056v6.8a1.13 1.13 0 0 0 1.125 1.133h5.625V9.056h-6.75zM16.875 4.522h-3.56c.256-.175.475-.35.628-.506a2.381 2.381 0 0 0 0-3.334c-.882-.896-2.418-.894-3.3 0-.488.493-1.781 2.5-1.603 3.84h-.08c.177-1.34-1.117-3.347-1.604-3.84-.882-.894-2.418-.894-3.3 0a2.385 2.385 0 0 0 0 3.334c.154.156.373.33.628.506H1.125C.505 4.522 0 5.032 0 5.656v1.7c0 .313.252.566.563.566h7.312V5.656h2.25v2.266h7.313c.31 0 .562-.253.562-.566v-1.7a1.13 1.13 0 0 0-1.125-1.134zm-9.066-.037s-.048.037-.208.037c-.778 0-2.262-.813-2.747-1.305a1.243 1.243 0 0 1 0-1.736 1.19 1.19 0 0 1 1.705 0c.758.768 1.512 2.73 1.25 3.004zm2.59.037c-.16 0-.208-.036-.208-.037-.262-.273.492-2.236 1.25-3.004a1.22 1.22 0 0 1 1.705 0 1.24 1.24 0 0 1 0 1.736c-.485.492-1.97 1.305-2.748 1.305zM10.125 9.056v7.933h5.625a1.13 1.13 0 0 0 1.125-1.133v-6.8h-6.75z"/>
    </g>
</svg>
