<svg xmlns="http://www.w3.org/2000/svg" width="26" height="26" viewBox="0 0 26 26"><g fill="none" fill-rule="evenodd"><path stroke="#FFF" stroke-opacity="0.008" stroke-width="0.1" d="M0 0H24V24H0z" transform="translate(1 1)"></path><path fill-rule="nonzero" stroke="#fff" stroke-width="1.5" d="M11.5 19.316c-.242 0-.475-.083-.657-.234-.687-.568-1.35-1.103-1.933-1.574l-.003-.002c-1.713-1.382-3.192-2.575-4.22-3.75C3.535 12.442 3 11.196 3 9.836c0-1.322.479-2.542 1.349-3.435C5.229 5.497 6.436 5 7.749 5c.982 0 1.88.293 2.671.872.4.293.761.65 1.08 1.068l.006-.008c.317-.414.677-.769 1.074-1.06.791-.579 1.69-.872 2.67-.872 1.314 0 2.521.497 3.401 1.4.87.894 1.349 2.113 1.349 3.436 0 1.36-.536 2.606-1.686 3.92-1.029 1.175-2.508 2.368-4.22 3.75-.586.471-1.249 1.006-1.937 1.576-.144.12-.32.197-.508.223l-.143.01h0-.006z" transform="translate(1 1)"></path></g></svg>