<svg xmlns="http://www.w3.org/2000/svg" xmlns:xlink="http://www.w3.org/1999/xlink" width="56" height="56" viewBox="0 0 56 56" style="position: absolute; z-index: 10; top: 12px; right: 12px;"><defs><filter id="a" width="143.2%" height="143.2%" x="-21.6%" y="-19.3%" filterUnits="objectBoundingBox"><feOffset dy="1" in="SourceAlpha" result="shadowOffsetOuter1"></feOffset><feGaussianBlur in="shadowOffsetOuter1" result="shadowBlurOuter1" stdDeviation="3"></feGaussianBlur><feColorMatrix in="shadowBlurOuter1" values="0 0 0 0 0 0 0 0 0 0 0 0 0 0 0 0 0 0 0.0873579545 0"></feColorMatrix></filter><path id="b" d="M8.534 1.664A54.495 54.495 0 0 1 21.962 0c4.556 0 9.112.552 13.668 1.655a9.418 9.418 0 0 1 6.999 7.215A63.987 63.987 0 0 1 44 22.07a66.29 66.29 0 0 1-1.34 13.208 9.418 9.418 0 0 1-7.358 7.357c-4.489.91-8.911 1.364-13.27 1.364a63.83 63.83 0 0 1-13.16-1.383 9.414 9.414 0 0 1-7.215-6.994C.552 31.072 0 26.565 0 22.103c0-4.536.57-9.071 1.712-13.607a9.419 9.419 0 0 1 6.822-6.832z"></path></defs><g fill="none" fill-rule="evenodd" transform="translate(6 5)"><use fill="#000" filter="url(#a)" xlink:href="#b"></use><use fill="#FFF" xlink:href="#b"></use><path d="M21.72 30.372c-.276 0-.543-.095-.751-.268-.785-.65-1.543-1.261-2.21-1.8l-.004-.002c-1.958-1.58-3.65-2.945-4.827-4.289C12.613 22.511 12 21.086 12 19.53c0-1.512.548-2.907 1.542-3.928C14.55 14.569 15.93 14 17.431 14c1.122 0 2.15.336 3.055.998.456.334.87.743 1.235 1.22l.006-.008c.363-.474.775-.88 1.229-1.212A5.068 5.068 0 0 1 26.01 14c1.502 0 2.883.569 3.889 1.602.994 1.021 1.542 2.416 1.542 3.928 0 1.556-.612 2.981-1.928 4.483-1.177 1.344-2.868 2.709-4.826 4.288-.67.54-1.428 1.152-2.215 1.803a1.179 1.179 0 0 1-.608.26l-.137.008h-.006z" fill-rule="nonzero" stroke="#FF0000" stroke-width="1.5"></path></g></svg>

