<?xml version="1.0" encoding="UTF-8"?>
<svg width="31px" height="31px" viewBox="0 0 31 31" version="1.1" xmlns="http://www.w3.org/2000/svg" xmlns:xlink="http://www.w3.org/1999/xlink">
    <!-- Generator: Sketch 63.1 (92452) - https://sketch.com -->
    <!-- <title>youtube</title> -->
    <desc>Created with Sketch.</desc>
    <g id="Footer" stroke="none" stroke-width="1" fill="none" fill-rule="evenodd">
        <g id="Group-12-Copy" transform="translate(1.000000, 1.000000)">
            <g id="Group-11-Copy" stroke="#FFFFFF" stroke-opacity="0.0075666521" stroke-width="0.1">
                <rect id="Rectangle-Copy-10" x="0" y="0" width="29" height="29"></rect>
            </g>
            <g id="youtube" transform="translate(15.000000, 15.038462) scale(1, -1) translate(-15.000000, -15.038462) translate(3.000000, 6.538462)" fill-rule="nonzero">
                <path d="M23.5055164,2.79459956 C23.2288452,1.77799988 22.4182407,0.976669513 21.3902909,0.702920858 C19.512186,0.194711538 11.9997665,0.194711538 11.9997665,0.194711538 C11.9997665,0.194711538 4.48752996,0.194711538 2.60942508,0.683548422 C1.60125058,0.957116037 0.770870759,1.77818092 0.494199594,2.79459956 C0,4.65145551 0,8.50240387 0,8.50240387 C0,8.50240387 0,12.3727246 0.494199594,14.2102081 C0.771053899,15.2266267 1.58147527,16.0281382 2.60960817,16.3018868 C4.50730527,16.8100962 11.9999496,16.8100962 11.9999496,16.8100962 C11.9999496,16.8100962 19.512186,16.8100962 21.3902909,16.3212593 C22.4184238,16.0476917 23.2288452,15.2461803 23.5056995,14.2297616 C24,12.3727246 24,8.5219573 24,8.5219573 C24,8.5219573 24.0196744,4.65145551 23.5055164,2.79459956 Z" id="Path" fill="#FFFFFF"></path>
                <polygon id="YoutubePath" fill="#000000" points="9.23076923 12.1947115 15.6923077 8.50240387 9.23076923 4.81009615"></polygon>
            </g>
        </g>
    </g>
</svg>