<svg xmlns="http://www.w3.org/2000/svg" xmlns:xlink="http://www.w3.org/1999/xlink" width="107" height="120" viewBox="0 0 107 120">
    <defs>
        <path id="222dedn98a" d="M0 0.057L85.902 0.057 85.902 120 0 120z"/>
        <path id="mtezbagrcc" d="M0 0.057L85.902 0.057 85.902 120 0 120z"/>
    </defs>
    <g fill="none" fill-rule="evenodd">
        <g>
            <g>
                <g transform="translate(-135.000000, -359.000000) translate(135.000000, 359.000000)">
                    <mask id="jviwtiwezb" fill="#fff">
                        <use xlink:href="#222dedn98a"/>
                    </mask>
                    <path fill="#CBCBCB" d="M42.951 32.542c-5.67 0-10.425 4.749-10.425 10.41v34.152c0 5.663 4.755 10.412 10.425 10.412 5.67 0 10.425-4.749 10.425-10.412V42.953c0-5.662-4.755-10.411-10.425-10.411m0-32.485c23.624 0 42.951 19.303 42.951 42.896v.205h-2.245c-11.992 0-21.802 9.798-21.802 21.773 0 11.976 9.81 21.774 21.802 21.774h1.153C80.414 105.717 63.272 120 42.95 120 19.327 120 0 100.698 0 77.104V42.953C0 19.36 19.327.057 42.951.057" mask="url(#jviwtiwezb)"/>
                </g>
                <g transform="translate(-135.000000, -359.000000) translate(135.000000, 359.000000)">
                    <mask id="vra7qcgw1d" fill="#fff">
                        <use xlink:href="#mtezbagrcc"/>
                    </mask>
                    <path fill="#CBCBCB" d="M42.951 32.542c-5.67 0-10.425 4.749-10.425 10.41v34.152c0 5.663 4.755 10.412 10.425 10.412 5.67 0 10.425-4.749 10.425-10.412V42.953c0-5.662-4.755-10.411-10.425-10.411m0-32.485c23.624 0 42.951 19.303 42.951 42.896v34.151c0 23.594-19.327 42.896-42.951 42.896-20.321 0-37.463-14.283-41.859-33.295h1.153c11.992 0 21.803-9.798 21.803-21.774 0-11.975-9.811-21.773-21.803-21.773H0v-.205C0 19.36 19.327.057 42.951.057" mask="url(#vra7qcgw1d)"/>
                </g>
                <path fill="#F9F9F9" d="M79.172 60.606c-6.548 0-5.562 0-12.11-.002-.28 0-.566-.004-.838-.063-.632-.138-1.087-.617-1.098-1.268-.03-1.819-.035-3.639-.001-5.457.014-.737.518-2.773 1.236-2.874.277-.039.56-.054.84-.054 6.267-.003 9.656-.002 15.922-.002h-.2c.2 0 .2 0-.409-.236-1.547-1.017-1.746-1.392-3.557-1.642-1.833-.253-3.807-.216-5.657-.282-2.08-.074-4.165-.3-6.247-.303-1.407-.002-1.966-2.127-1.968-3.561-.004-1.915-.004-3.83 0-5.745.004-1.424.532-1.956 1.932-1.956h37.793c1.398 0 1.96.543 1.957 1.944-.002 1.629-.001 5.359-.067 6.986-.031.763-.503 1.183-1.249 1.3-.239.038-.485.048-.728.048-3.377.003-4.753.002-8.13.002h-.722c.19.304.308.51.442.703 1.187 1.713.951 2.254 1.414 2.449.838.021 1.422.008 2.035-.003 2.345-.038 2.68-.017 5.025-.013.243 0 .487.015.728.048.782.107 1.274.585 1.29 1.388.038 1.724.045 5.628.015 7.352-.019 1.01-.606 1.543-1.627 1.548-2.402.011-2.793.004-5.194.004-.897 0-.907-.002-1.067.853-.669 3.595-2.222 6.427-4.736 9.062-2.32 2.431-5.094 4.186-8.267 5.21-.61-.172-.517-.577-1.65-.41-.218.032-.275.308-.1.444l.018.017c6.658 8.465 9.166 11.947 15.904 20.239.44.542.88 1.085 1.308 1.636.364.467.428.248.313.827-.129.65-1.59 2.257-3.393 2.387-3.238.234-5.647.241-8.893.236 0 0-.973-.048-1.546-.628-.963-.615-2.791-2.422-3.35-2.987-5.504-6.365-11.04-12.702-16.567-19.048-.47-.54-.984-1.096-1.296-1.744-.2-.415-.514-.752-.754-1.38-.89-2.012-.847-2.977-.836-4.892.008-1.225-.386-5.572.834-5.577 2.101-.008 5.117.058 7.216-.007 3.13-.097 6.85-.347 9.442-2.262.357-.178 1.232-.972 1.888-2.324" transform="translate(-135.000000, -359.000000) translate(135.000000, 359.000000)"/>
                <path fill="#CBCBCB" d="M86.338 59.886h-.63c-5.791 0-11.582 0-17.373-.002-.247 0-.501-.003-.741-.054-.56-.12-.961-.537-.97-1.104-.028-1.583-.032-3.166-.002-4.749.012-.641.458-1.06 1.093-1.147.245-.034.495-.047.743-.047 5.542-.003 11.084-.002 16.626-.002h.658c-.608-1.221-1.45-2.104-2.506-2.788-1.368-.884-2.885-1.44-4.486-1.658-1.621-.22-3.263-.332-4.899-.389-1.84-.064-3.683-.012-5.524-.015-1.245-.002-1.739-.498-1.74-1.746-.004-1.666-.005-3.333 0-5 .003-1.239.47-1.701 1.708-1.701h35.192c1.237 0 1.734.472 1.732 1.691-.002 1.418-.002 2.836-.06 4.252-.027.665-.445 1.03-1.104 1.132-.212.033-.43.041-.644.042-2.987.002-5.973.001-8.96.001h-.638c.169.265.272.444.39.612 1.05 1.49 1.763 3.134 2.165 4.901.122.54.344.688.886.68 2.073-.034 4.148-.015 6.222-.012.215 0 .43.013.644.041.691.093 1.126.51 1.141 1.209.033 1.5.04 3.002.012 4.502-.016.88-.535 1.343-1.438 1.347-2.124.01-4.248.004-6.372.004-.793 0-.802-.001-.943.742-.591 3.129-1.965 5.864-4.188 8.157-2.052 2.116-4.505 3.643-7.312 4.533-1.855.59-3.771.985-5.671 1.47.035.04.14.176.255.3 6.376 6.86 12.371 14.046 18.33 21.262.39.472.777.944 1.157 1.424.321.406.33.838.097 1.297-.244.482-.606.793-1.16.794-2.87.008-5.74.007-8.611.002-.54 0-.861-.366-1.176-.738-1.728-2.046-3.428-4.118-5.196-6.13-4.867-5.54-9.764-11.054-14.651-16.576-.417-.47-.845-.93-1.282-1.383-.363-.377-.536-.808-.531-1.336.014-1.667-.003-3.333.007-5 .007-1.066.555-1.597 1.634-1.6 1.859-.008 3.719.037 5.575-.02 2.769-.084 5.484-.475 7.992-1.753 2.14-1.09 3.701-2.697 4.444-5.015.039-.121.061-.248.105-.43" transform="translate(-135.000000, -359.000000) translate(135.000000, 359.000000)"/>
            </g>
        </g>
    </g>
</svg>
