<svg width="18" height="18" viewBox="0 0 18 18" xmlns="http://www.w3.org/2000/svg">
    <g fill="none" fill-rule="evenodd">
        <path d="M8.906.281a.732.732 0 0 0-.264.05C8.47.396 8.325.52 8.2.65c-.147.155-.278.329-.409.497-.251.323-.546.692-.952.813-.407.12-.853-.03-1.238-.164-.2-.07-.402-.145-.609-.195a1.25 1.25 0 0 0-.544-.029.736.736 0 0 0-.445.29 1.279 1.279 0 0 0-.2.51c-.04.21-.057.428-.077.64-.039.41-.089.881-.366 1.205-.278.323-.733.44-1.129.537-.206.05-.417.098-.617.169-.17.06-.343.143-.473.272a.745.745 0 0 0-.22.486c-.011.184.04.37.106.54.078.198.18.39.278.58.187.365.397.79.337 1.213-.06.423-.38.77-.662 1.068-.146.154-.298.31-.428.478-.111.144-.212.308-.252.487a.752.752 0 0 0 .075.53c.088.16.231.288.378.395.172.125.36.23.544.337.353.206.757.447.933.837.176.389.093.855.016 1.259-.04.21-.086.423-.105.636-.016.182-.013.375.05.548a.747.747 0 0 0 .346.404c.16.087.35.117.53.126.211.012.427-.003.639-.013.406-.02.876-.037 1.232.194.357.232.537.67.688 1.051.078.2.155.403.253.593.084.161.189.322.334.433a.737.737 0 0 0 .508.15c.182-.013.357-.091.514-.182.184-.106.357-.235.53-.36.331-.238.717-.509 1.141-.509.424 0 .81.271 1.142.51.172.124.345.253.53.36.157.09.331.168.513.182a.732.732 0 0 0 .508-.15 1.27 1.27 0 0 0 .334-.434c.099-.19.175-.394.254-.593.15-.381.33-.82.687-1.05.357-.232.826-.215 1.233-.195.212.01.427.025.639.013.18-.01.369-.04.53-.126a.74.74 0 0 0 .346-.404c.063-.173.065-.366.05-.548-.02-.213-.065-.426-.105-.636-.077-.404-.16-.87.015-1.26.176-.389.58-.63.933-.836.184-.107.373-.212.545-.337.146-.107.29-.235.378-.396a.75.75 0 0 0 .075-.529 1.276 1.276 0 0 0-.252-.487c-.13-.169-.282-.324-.429-.478-.28-.298-.6-.645-.661-1.068-.06-.424.15-.848.337-1.213.097-.19.2-.382.277-.581.066-.17.118-.355.106-.539a.75.75 0 0 0-.22-.486 1.257 1.257 0 0 0-.473-.272c-.2-.071-.41-.119-.617-.169-.395-.097-.85-.214-1.128-.537-.278-.324-.328-.795-.366-1.204-.02-.213-.037-.43-.078-.64a1.28 1.28 0 0 0-.2-.512.742.742 0 0 0-.445-.289 1.25 1.25 0 0 0-.544.03c-.206.049-.409.124-.609.194-.385.135-.83.285-1.237.164-.407-.12-.701-.49-.953-.813C9.89.98 9.76.806 9.613.652A1.262 1.262 0 0 0 9.17.33a.732.732 0 0 0-.265-.05" fill="#000"/>
        <path d="M7.001 8.906c.897 0 1.488-.773 1.488-1.687v-.02c0-.904-.582-1.668-1.47-1.668-.887 0-1.488.764-1.488 1.688v.019c0 .905.592 1.668 1.47 1.668zm-.52 2.98c0 .207.153.367.35.367a.363.363 0 0 0 .314-.17l4.114-5.91a.44.44 0 0 0 .081-.246.361.361 0 0 0-.359-.367.338.338 0 0 0-.304.17l-4.115 5.91a.44.44 0 0 0-.08.245zm4.312.395c.888 0 1.488-.773 1.488-1.687v-.02c0-.904-.591-1.668-1.47-1.668-.887 0-1.488.764-1.488 1.688v.019c0 .905.592 1.668 1.47 1.668zm-3.774-4.1c-.403 0-.69-.425-.69-.962v-.02c0-.508.251-.942.672-.942.404 0 .69.434.69.962v.019c0 .509-.25.942-.672.942zm3.792 3.374c-.403 0-.69-.424-.69-.961v-.02c0-.508.25-.942.672-.942.404 0 .69.434.69.962v.019c0 .509-.25.942-.672.942z" fill="#FFF"/>
    </g>
</svg>
