<svg width="30px" height="30px" viewBox="0 0 28 30" version="1.1">
                  <title> shopping - cart </title>
                  <g
                    id="Page-1"
                    stroke="none"
                    stroke-width="1"
                    fill="none"
                    fill-rule="evenodd"
                  >
                    <g
                      id="Artboard"
                      transform="translate(-167.000000, -24.000000)"
                      fill="#000000"
                      fill-rule="nonzero"
                    >
                      <g
                        id="shopping-cart"
                        transform="translate(167.000000, 24.000000)"
                      >
                        <path
                          d="M8.55946133,19.2815863 L22.1846663,19.2815863 C23.7296355,19.2815863 24.990005,18.0212167 24.990005,16.4762476 L24.990005,10.7435989 C24.990005,10.7385167 24.990005,10.7283525 24.990005,10.7232703 C24.990005,10.7080239 24.990005,10.6978597 24.990005,10.6826132 C24.990005,10.672449 24.990005,10.6622847 24.9849229,10.6521204 C24.9849229,10.6419562 24.9798408,10.6267098 24.9798408,10.6165455 C24.9798408,10.6063812 24.9747586,10.5962169 24.9747586,10.5860527 C24.9696765,10.5758884 24.9696765,10.5657241 24.9645944,10.5504777 C24.9595122,10.5403135 24.9595122,10.5301492 24.9544301,10.5199849 C24.949348,10.5098206 24.949348,10.4996564 24.9442658,10.4894921 C24.9391837,10.4793278 24.9341015,10.4691636 24.9290194,10.4539172 C24.9239373,10.4437529 24.9188551,10.4335886 24.913773,10.4285065 C24.9086909,10.4183422 24.9036087,10.4081779 24.8985266,10.3980137 C24.8934445,10.3878494 24.8883623,10.3827673 24.8832802,10.372603 C24.8781981,10.3624387 24.8680338,10.3522744 24.8629517,10.3421102 C24.8578695,10.3319459 24.8527874,10.3268638 24.8426231,10.3166995 C24.837541,10.3065352 24.8273767,10.3014531 24.8222946,10.2912888 C24.8172124,10.2811246 24.8070482,10.2760424 24.801966,10.2658781 C24.7968839,10.2557139 24.7867196,10.2506317 24.7816375,10.2455496 C24.7714732,10.2353853 24.7663911,10.2303032 24.7562268,10.2201389 C24.7460625,10.2150568 24.7409804,10.2048925 24.7308161,10.1998104 C24.7206519,10.1947282 24.7104876,10.184564 24.7003233,10.1794818 C24.690159,10.1743997 24.6850769,10.1693176 24.6749126,10.1642354 C24.6647484,10.1591533 24.6545841,10.1540712 24.6444198,10.1439069 C24.6342556,10.1388248 24.6240913,10.1337426 24.613927,10.1286605 C24.6037627,10.1235784 24.5935985,10.1184962 24.5834342,10.1134141 C24.5732699,10.1083319 24.5631057,10.1032498 24.5529414,10.0981677 C24.5427771,10.0930855 24.5326129,10.0930855 24.5224486,10.0880034 C24.5122843,10.0829213 24.4970379,10.0778391 24.4868736,10.0778391 C24.4767094,10.0778391 24.4665451,10.072757 24.461463,10.072757 C24.4462166,10.0676749 24.4360523,10.0676749 24.4208059,10.0676749 C24.4157237,10.0676749 24.4106416,10.0625927 24.4004773,10.0625927 L7.13138128,7.67907123 L7.13138128,5.27013906 C7.13138128,5.24472838 7.13138128,5.2193177 7.12629915,5.19898916 C7.12629915,5.19390703 7.12629915,5.18882489 7.12121701,5.17866062 C7.12121701,5.16341421 7.11613487,5.14816781 7.11613487,5.1329214 C7.11105274,5.117675 7.11105274,5.10751072 7.1059706,5.09226432 C7.1059706,5.08210005 7.10088847,5.07701791 7.10088847,5.06685364 C7.09580633,5.05160724 7.0907242,5.03636083 7.08564206,5.02111442 C7.08564206,5.01603229 7.08055993,5.00586802 7.08055993,5.00078588 C7.07547779,4.98553948 7.07039566,4.9753752 7.06023139,4.9601288 C7.05514925,4.95504666 7.05514925,4.94488239 7.05006711,4.93980026 C7.04498498,4.92963599 7.03990284,4.91947172 7.02973857,4.90930744 C7.02465644,4.89914317 7.0195743,4.89406104 7.01449217,4.88389677 C7.00941003,4.8737325 7.0043279,4.86865036 6.99924576,4.85848609 C6.99416363,4.84832182 6.98399935,4.83815755 6.97891722,4.82799328 C6.97383508,4.82291114 6.96875295,4.81782901 6.96367081,4.81274687 C6.95350654,4.8025826 6.94334227,4.79241833 6.933178,4.78225406 C6.92809587,4.77717192 6.92301373,4.77208979 6.91793159,4.76700765 C6.90776732,4.75684338 6.89760305,4.74667911 6.88235665,4.73651484 C6.87727451,4.73143271 6.86711024,4.72635057 6.86202811,4.72126843 C6.85186383,4.71110416 6.84169956,4.70602203 6.83153529,4.69585776 C6.81628889,4.68569349 6.80104248,4.67552922 6.79087821,4.67044708 C6.78579607,4.66536495 6.78071394,4.66536495 6.7756318,4.66028281 C6.75530326,4.65011854 6.72989259,4.63995427 6.70956404,4.62979 L2.96403026,3.05432803 C2.61336292,2.9069461 2.21187422,3.06957443 2.0644923,3.42024178 C1.91711037,3.77090912 2.0797387,4.17239781 2.43040605,4.31977974 L5.75412259,5.72244911 L5.75412259,8.83271596 L5.75412259,9.3256831 L5.75412259,13.1067918 L5.75412259,16.4864119 L5.75412259,20.7554056 C5.75412259,22.1784035 6.82137102,23.3574589 8.19862971,23.5353336 C7.94960508,23.9520687 7.80222315,24.4399537 7.80222315,24.9583316 C7.80222315,26.4880543 9.04734632,27.7280953 10.5719869,27.7280953 C12.0966276,27.7280953 13.3417507,26.4829722 13.3417507,24.9583316 C13.3417507,24.450118 13.2045331,23.9673152 12.9605906,23.5607443 L19.1303029,23.5607443 C18.8863604,23.9723973 18.7491428,24.450118 18.7491428,24.9583316 C18.7491428,26.4880543 19.994266,27.7280953 21.5189066,27.7280953 C23.0435472,27.7280953 24.2886704,26.4829722 24.2886704,24.9583316 C24.2886704,23.4336909 23.0435472,22.1885678 21.5189066,22.1885678 L8.55946133,22.1885678 C7.7666482,22.1885678 7.12629915,21.5431366 7.12629915,20.7554056 L7.12629915,18.895344 C7.54303425,19.1392865 8.03600138,19.2815863 8.55946133,19.2815863 Z M11.9746563,24.9532494 C11.9746563,25.725734 11.3444715,26.3508367 10.5770691,26.3508367 C9.80966663,26.3508367 9.17948184,25.7206519 9.17948184,24.9532494 C9.17948184,24.185847 9.80966663,23.5556622 10.5770691,23.5556622 C11.3444715,23.5556622 11.9746563,24.1807648 11.9746563,24.9532494 Z M22.9215759,24.9532494 C22.9215759,25.725734 22.2913911,26.3508367 21.5239887,26.3508367 C20.7565863,26.3508367 20.1264015,25.7206519 20.1264015,24.9532494 C20.1264015,24.185847 20.7565863,23.5556622 21.5239887,23.5556622 C22.2913911,23.5556622 22.9215759,24.1807648 22.9215759,24.9532494 Z M22.1846663,17.9094098 L8.55946133,17.9094098 C7.7666482,17.9094098 7.12629915,17.2639786 7.12629915,16.4762476 L7.12629915,13.0966276 L7.12629915,9.31551883 L7.12629915,9.06141206 L23.6178285,11.3331266 L23.6178285,16.4711655 C23.6178285,17.2690607 22.9723973,17.9094098 22.1846663,17.9094098 Z"
                          id="Shape"
                        >
                        </path>
                      </g>
                    </g>
                  </g>
                </svg>