<svg
  xmlns="http://www.w3.org/2000/svg"
  width="15"
  height="15"
  viewBox="0 0 15 15"
>
  <g fill="#FFF">
    <path d="M10.279 2.838h-8.33c-.809 0-1.469.659-1.469 1.47v8.33c0 .81.658 1.469 1.47 1.469h8.329a1.47 1.47 0 0 0 1.47-1.47V4.308a1.47 1.47 0 0 0-1.47-1.47zm.49 9.8c0 .27-.22.49-.49.49h-8.33a.49.49 0 0 1-.49-.49V4.307c0-.27.22-.49.49-.49h8.331c.27 0 .49.22.49.49v8.33z"></path>
    <path d="M12.909.187H3.96a1.49 1.49 0 0 0-1.491 1.491.497.497 0 1 0 .994 0c0-.274.222-.497.497-.497h8.949c.274 0 .497.223.497.497v8.949a.497.497 0 0 1-.497.497.498.498 0 1 0 0 .994 1.49 1.49 0 0 0 1.491-1.491V1.678c0-.823-.668-1.491-1.491-1.491z"></path>
  </g>
</svg>