<svg xmlns="http://www.w3.org/2000/svg" width="16" height="16" viewBox="0 0 16 16">
    <defs>
        <linearGradient id="tp77guwvfa" x1="157.079%" x2="50%" y1="-113.692%" y2="100%">
            <stop offset="0%" stop-color="#FFC8C8"/>
            <stop offset="100%" stop-color="var(--color1)"/>
        </linearGradient>
        <linearGradient id="kf156u0m4b" x1="197.914%" x2="50%" y1="18.377%" y2="59.659%">
            <stop offset="0%" stop-color="#FFC8C8"/>
            <stop offset="100%" stop-color="var(--color1)"/>
        </linearGradient>
    </defs>
    <g fill="none">
        <path fill="url(#tp77guwvfa)" d="M1 8.05v6.044c0 .556.449 1.007 1 1.007h5V8.05H1z"/>
        <path fill="url(#kf156u0m4b)" d="M15 4.02h-3.164c.227-.156.422-.311.558-.45.807-.817.807-2.147 0-2.964-.784-.796-2.15-.794-2.933 0-.434.438-1.584 2.222-1.425 3.414h-.072c.158-1.192-.992-2.976-1.425-3.414-.784-.794-2.15-.794-2.933 0-.806.817-.806 2.147-.001 2.964.137.139.332.294.559.45H1c-.551 0-1 .452-1 1.007v1.511c0 .278.224.504.5.504H7V5.027h2v2.015h6.5c.276 0 .5-.226.5-.504v-1.51c0-.556-.448-1.008-1-1.008zm-8.059-.033s-.042.033-.185.033c-.691 0-2.01-.723-2.441-1.16-.419-.426-.419-1.119 0-1.544.203-.205.472-.318.758-.318.285 0 .554.113.757.318.674.683 1.344 2.428 1.111 2.67zm2.302.033c-.142 0-.184-.032-.184-.033-.233-.243.437-1.988 1.111-2.67.403-.411 1.108-.413 1.515 0 .42.424.42 1.117 0 1.542-.431.438-1.75 1.16-2.442 1.16z"/>
        <path fill="url(#tp77guwvfa)" d="M9 8.05V15.1h5c.552 0 1-.45 1-1.007V8.05H9z"/>
    </g>
</svg>
