<svg width="18" height="18" viewBox="0 0 18 18" fill="none" xmlns="http://www.w3.org/2000/svg">
<path d="M17.2812 1.89174L16.1083 0.718815C15.15 -0.239605 13.5906 -0.239605 12.6324 0.718815L1.21921 12.132L0 18L5.86794 16.7808L17.2812 5.36768C18.2395 4.40926 18.2395 2.85003 17.2812 1.89174ZM4.53749 14.2088L12.4864 6.25991L13.6914 7.46497L5.74242 15.4139L4.53749 14.2088ZM2.58618 12.2576L10.5351 4.3086L11.7401 5.51366L3.79124 13.4625L2.58618 12.2576ZM11.2813 3.56235L11.9925 2.85112L15.1489 6.0075L14.4377 6.71872L11.2813 3.56235ZM2.06845 13.2324L4.76765 15.9316L1.36066 16.6394L2.06845 13.2324ZM16.535 4.6213L15.8952 5.26125L12.7388 2.10488L13.3787 1.46506C13.9254 0.918217 14.8152 0.918217 15.362 1.46506L16.535 2.63799C17.0818 3.18483 17.0818 4.07459 16.535 4.6213Z" fill="var(--color1)"/>
</svg>
