<svg width="360" height="495" viewBox="0 0 360 495" fill="none" xmlns="http://www.w3.org/2000/svg">
    <mask id="gljrgrne9a" style="mask-type:alpha" maskUnits="userSpaceOnUse" x="0" y="0" width="360" height="495">
        <path fill="#FFEAF8" d="M0 0h360v495H0z"/>
    </mask>
    <g mask="url(#gljrgrne9a)">
        <path fill="#FFEAF8" d="M0 0h360v495H0z"/>
        <path d="M-14.454 211.639c1.273 6.966 3.129 18.258 10.6 21.416 2.384 1.008 5.066 1.018 7.646.815a50.744 50.744 0 0 0 19.03-5.382c1.79-.914 3.588-1.994 4.713-3.652 1.126-1.659 1.413-4.056.163-5.633-1.25-1.576-3.036-2.306-1.852-4.648 2.12-4.195 7.56-6.546 11.081-9.336 2.558-2.025 7.26-6.624 5.532-10.362-1.176-2.548-5.517-2.282-6.134-5.228-.217-1.047.32-2.11 1.011-2.928 4.184-4.962 12.858-9.804 12.628-17.138-.053-1.554-.729-3.184-2.09-3.95-1.421-.807-3.253-.526-4.71-1.278-1.724-.887-2.472-3.042-2.294-4.97.178-1.928 1.094-3.702 1.96-5.434 2.161-4.318 4.164-8.878 4.32-13.703.25-7.777-6.196-16.089-14.018-9.875-3.047 2.421-3.768 6.698-4.053 10.579-.264 3.589-.754 14.507-6.864 11.171-1.175-.636-2.22-1.542-3.5-1.921-2.578-.766-5.414.916-6.691 3.284-1.277 2.368-1.29 5.215-.908 7.88.383 2.665 1.136 5.276 1.278 7.966.109 1.985-.503 4.459-2.442 4.897-2.024.453-3.675-1.66-5.684-2.155-2.266-.557-4.59 1.155-5.55 3.281-.959 2.125-.88 4.551-.776 6.889l.29 6.938c.103 2.477-.06 5.469-2.22 6.69-1.315.744-2.942.536-4.425.829-2.937.582-5.159 3.2-6.02 6.069-.862 2.869-.562 5.942-.021 8.889z" fill="#FFDDEC"/>
        <mask id="co1xlp5yyb" style="mask-type:alpha" maskUnits="userSpaceOnUse" x="-13" y="125" width="66" height="118">
            <path d="M-11.836 209.455c1.273 6.966 1.014 30.259 8.484 33.417 2.385 1.007 7.182-10.982 9.762-11.186a50.724 50.724 0 0 0 19.03-5.382c1.79-.913 3.588-1.993 4.714-3.652 1.125-1.658 1.412-4.055.162-5.632s-3.036-2.307-1.851-4.649c2.12-4.195 7.56-6.545 11.08-9.336 2.558-2.024 7.26-6.623 5.533-10.362-1.177-2.547-5.518-2.282-6.135-5.227-.216-1.048.32-2.11 1.012-2.929 4.183-4.962 12.857-9.804 12.627-17.138-.053-1.554-.729-3.184-2.09-3.95-1.421-.807-3.253-.526-4.71-1.278-1.724-.886-2.472-3.041-2.294-4.97.178-1.928 1.094-3.702 1.96-5.434 2.161-4.318 4.164-8.877 4.32-13.703.25-7.777-6.196-16.089-14.018-9.875-3.047 2.422-3.768 6.699-4.053 10.579-.264 3.589-.753 14.507-6.864 11.172-1.175-.637-2.22-1.543-3.5-1.922-2.578-.766-5.414.916-6.69 3.284-1.278 2.369-1.291 5.216-.909 7.881.383 2.664 1.136 5.276 1.278 7.965.11 1.985-.503 4.46-2.442 4.898-2.024.452-3.674-1.661-5.684-2.156-2.266-.557-4.59 1.155-5.55 3.281-.959 2.125-.88 4.552-.776 6.889l.29 6.938c.104 2.478-.06 5.469-2.22 6.69-1.315.744-2.941.536-4.425.829-2.936.582-5.159 3.201-6.02 6.069-.862 2.869-.562 5.942-.021 8.889z" fill="#F8C7C6"/>
        </mask>
        <g mask="url(#co1xlp5yyb)" fill="#FCE9EA">
            <path d="M-9.84 242.046a784.075 784.075 0 0 0 18.526-30.083c3.791-6.477 7.045-13.239 10.19-19.774a682.535 682.535 0 0 1 4.045-8.311c1.934-3.88 3.93-7.887 5.744-11.886 7.84-17.246 13.044-35.784 18.077-53.713l.77.215c-5.042 17.958-10.253 36.527-18.118 53.829-1.827 4.017-3.826 8.031-5.76 11.912-1.385 2.779-2.736 5.589-4.048 8.302-3.151 6.55-6.41 13.323-10.22 19.83a788.544 788.544 0 0 1-18.544 30.115l-.663-.436z"/>
            <path d="M3.965 173.868c-2.117-8.738-3.338-17.447-1.878-23.037l.773.203c-3.593 13.702 9.886 48.014 11.336 51.641 12.059-2.562 33.829-11.193 41.161-16.341l.46.655c-7.462 5.239-29.723 14.048-41.787 16.537l-.327.067-.13-.313c-.384-.947-6.17-15.21-9.608-29.412z"/>
            <path d="M19.867 159.576c-2.065-8.531-3.915-17.591-3.828-22.335l.8.015c-.18 9.483 7.848 37.622 8.99 41.579 3.48-1.769 27.091-13.924 36.154-22.524l.554.585c-9.832 9.329-36.505 22.741-36.774 22.874l-.428.215-.135-.465c-.205-.703-2.912-9.957-5.333-19.944zM-13.48 189.451a38.924 38.924 0 0 1-.495-2.36l.787-.137c2.598 14.795 15.82 32.353 17.03 33.952 12.893 2.63 24.555-.514 34.478-3.671l.242.762c-10.054 3.197-21.877 6.377-35.02 3.656l-.144-.03-.095-.111c-.13-.183-13.126-16.974-16.783-32.061z"/>
        </g>
        <g clip-path="url(#n5foka2zyc)" fill="#FFDFF5">
            <path d="M15.729 62.959a5.83 5.83 0 1 0 0-11.66 5.83 5.83 0 0 0 0 11.66zM85.889 127.45a3.97 3.97 0 1 0 0-7.94 3.97 3.97 0 0 0 0 7.94zM10.549 139.469a3.97 3.97 0 1 0 0-7.94 3.97 3.97 0 0 0 0 7.94zM64.389 157.768a5.35 5.35 0 1 0 0-10.7 5.35 5.35 0 0 0 0 10.7zM6.669 320.897a5.35 5.35 0 1 0 0-10.7 5.35 5.35 0 0 0 0 10.7zM80.479 343.068a5.45 5.45 0 1 0 0-10.9 5.45 5.45 0 0 0 0 10.9z"/>
        </g>
        <g clip-path="url(#wnankx6ogd)" fill="#FFDFF5">
            <path d="M339.729 107.959a5.83 5.83 0 1 0 0-11.66 5.83 5.83 0 0 0 0 11.66zM334.549 184.469a3.97 3.97 0 1 0 .001-7.939 3.97 3.97 0 0 0-.001 7.939zM330.669 365.897a5.35 5.35 0 1 0 0-10.7 5.35 5.35 0 0 0 0 10.7zM300.679 464.598a2.93 2.93 0 1 0 0-5.86 2.93 2.93 0 0 0 0 5.86z"/>
        </g>
        <mask id="421cbv61se" style="mask-type:alpha" maskUnits="userSpaceOnUse" x="-13" y="384" width="177" height="111">
            <path fill="#C4C4C4" d="M-13 384h177v111H-13z"/>
        </mask>
        <g opacity=".5" mask="url(#421cbv61se)">
            <path d="m73.857 472.007 19.996.169c26.594-29.175 48.115-61.957 61.937-74.176-4.133.709-50.943 10.17-79.794 20.091l-2.477 14.318-3.393-12.182c-3.013 1.152-5.73 2.304-8.047 3.441-33.203 16.281-71.993 45.92-71.988 86.796-.001 17.164 18.695 15.338 30.647 12.629 24.266-5.51 46.942-23.464 66.993-44.351l-13.874-6.735z" fill="#FFD4E7"/>
            <mask id="606l6a4i5f" style="mask-type:alpha" maskUnits="userSpaceOnUse" x="-28" y="398" width="184" height="140">
                <path d="m73.857 472.006 19.995.169c26.595-29.175 48.116-61.957 61.937-74.176-4.133.709-50.942 10.17-79.793 20.091l-2.477 14.318-3.393-12.182c-3.013 1.153-5.73 2.305-8.047 3.441-33.204 16.281-89.24 66.14-89.235 107.016-.001 17.164 35.942-4.882 47.893-7.591 24.267-5.51 46.943-23.464 66.993-44.351l-13.873-6.735z" fill="#FBE0E1"/>
            </mask>
            <g mask="url(#606l6a4i5f)" fill="#FCE9EA">
                <path d="M107.567 425.421c8.895 1.175 39.29-1.084 40.579-1.181l-.074-1.141c-.316.021-31.569 2.349-40.343 1.187l-.162 1.135z"/>
                <path d="M-12.394 531.825c19.277-26.463 44.378-51.954 74.609-75.767 25.956-20.448 55.235-36.445 83.552-51.916 4.195-2.294 8.537-4.665 12.807-7.019l-.553-1a3940.816 3940.816 0 0 1-12.801 7.014c-28.355 15.494-57.68 31.515-83.713 52.023-30.314 23.879-55.489 49.446-74.825 75.991l.924.674z"/>
                <path d="m83.987 439.158 1.132.189c2.324-14.984 12.256-43.469 12.36-43.756l-1.072-.379c-.111.275-10.079 28.859-12.42 43.946zM53.642 461.773l1.141-.029c-.016-.248-.556-25.336 4.412-50.939l-1.11-.224c-5.005 25.737-4.449 50.939-4.443 51.192zM65.823 453.005c13.11 3.2 51.083 9.525 65.136 7.253l-.183-1.128c-13.903 2.254-51.647-4.052-64.682-7.236l-.27 1.111zM28.196 485.229c28.378 7.289 47.244 10.656 65.645 7.593l-.188-1.128c-18.203 3.018-36.947-.322-65.172-7.561l-.285 1.096zM21.018 491.324l1.143-.037c-.094-2.828-.232-5.753-.377-8.874-.802-17.292-1.803-38.813 4.245-55.146l-1.074-.397c-6.128 16.55-5.12 38.2-4.313 55.597.144 3.105.282 6.032.376 8.857z"/>
            </g>
        </g>
        <g clip-path="url(#nqvmivb4rg)" fill="#FF6C73" opacity=".1">
            <path d="M346.886 233.986s16.487-14.692-1.793-28.738c0 0-18.706 14.894 1.793 28.749v-.011zM352.056 252.151s21.872-3.05 14.476-24.894c0 0-23.827 1.993-14.476 24.894zM313.484 233.482s1.292 22.049 23.648 16.433c0 0-.079-23.913-23.648-16.433zM315.966 259.008s1.292 22.048 23.649 16.433c0 0-.079-23.913-23.649-16.433zM323.057 284.56s1.292 22.049 23.649 16.433c0 0-.079-23.912-23.649-16.433zM354.327 281.175s21.366-5.605 11.455-26.42c0 0-23.432 4.775-11.455 26.42zM361.803 305.591s21.365-5.605 11.454-26.42c0 0-23.432 4.775-11.454 26.42z"/>
            <path d="M346.886 233.986s-.682 10.159.365 23.844c1.746 22.808 9.017 53.76 14.665 66.66l-2.046 1.048s-19.71-67.244-14.62-93.014l1.636 1.462z"/>
            <path d="m336.89 247.934 8.972 10.877.268 2.244s-7.937-8.81-9.729-10.91l.494-2.206-.005-.005zM351.836 249.938l-4.211 12.62.103 2.772s4.384-10.901 5.335-13.498l-1.227-1.894zM339.785 274.496l10.461 12.27.777 2.575s-10.548-11.445-12.339-13.545l1.101-1.3zM346.841 300.292l9.953 11.614.333 2.059s-9.521-10.54-11.224-12.53l.944-1.148-.006.005zM354.284 281.045l-3.416 9.501.861 2.329s3.853-10.264 4.594-12.324l-2.039.494zM361.401 305.647l-3.89 10.235.93 1.951s4.254-10.626 4.989-12.68l-2.04.494h.011z"/>
        </g>
        <g clip-path="url(#dka8bcx1ph)">
            <path d="M.391 337.141s-3.162-10.278 1.655-11.142c0 0 5.132-.277 3.129 8.423 0 0 5.38-7.555 8.641-3.778 0 0 2.861 3.719-5.608 8.586 0 0 10.072-1.03 9.786 4.178 0 0-1.49 5.494-11.62.286 0 0 7.67 7.669 3.32 11.388 0 0-4.75 2.461-6.983-9.385 0 0-2.117 11.96-7.783 8.813 0 0-2.52-3.605 2.175-7.955 0 0-8.3 4.064-9.1-1.258 0 0-.458-4.292 9.1-4.75 0 0-9.5-2.289-7.211-8.069 0 0 3.544-3.716 10.5 4.666v-.003z" fill="#FFFFEF"/>
            <path d="M2.797 339.059c.9 0 1.63-1.435 1.63-3.205s-.73-3.206-1.63-3.206c-.9 0-1.63 1.436-1.63 3.206s.73 3.205 1.63 3.205z" fill="#FFDB5C"/>
            <path d="M7.699 338.911c1.392-1.094 2.069-2.555 1.512-3.263-.556-.708-2.136-.395-3.527.699-1.392 1.094-2.07 2.555-1.513 3.263.557.708 2.136.395 3.528-.699zM11.149 341.89c.056-.898-1.33-1.717-3.098-1.827-1.767-.111-3.245.528-3.3 1.427-.057.899 1.33 1.717 3.097 1.827 1.767.111 3.244-.528 3.3-1.427zM6.355 348.816c.828-.355.931-1.962.232-3.588-.699-1.627-1.936-2.657-2.763-2.302-.828.356-.932 1.963-.233 3.589.7 1.627 1.937 2.657 2.764 2.301zM1.747 346.8c.885-1.533.97-3.141.19-3.592-.78-.45-2.129.428-3.014 1.961-.885 1.533-.97 3.141-.19 3.592.78.45 2.129-.428 3.014-1.961z" fill="#FFDB5C"/>
            <path d="M-1.84 344.464c1.7-.494 2.875-1.596 2.624-2.46-.252-.865-1.833-1.166-3.533-.672-1.7.494-2.875 1.596-2.624 2.46.251.865 1.833 1.166 3.533.672zM.921 340.125c.509-.743-.262-2.157-1.723-3.157-1.46-1.001-3.057-1.21-3.566-.467-.508.743.263 2.156 1.723 3.157 1.46 1 3.057 1.209 3.566.467z" fill="#FFDB5C"/>
            <path d="M2.628 344.267a3.233 3.233 0 1 0 0-6.466 3.233 3.233 0 0 0 0 6.466z" fill="#FFFFEF"/>
        </g>
    </g>
    <defs>
        <clipPath id="n5foka2zyc">
            <path fill="#fff" transform="translate(-26.251 51.299)" d="M0 0h116.11v368.3H0z"/>
        </clipPath>
        <clipPath id="wnankx6ogd">
            <path fill="#fff" transform="translate(297.749 96.299)" d="M0 0h116.11v368.3H0z"/>
        </clipPath>
        <clipPath id="nqvmivb4rg">
            <path fill="#fff" transform="rotate(47.91 -57.02 491.303)" d="M0 0h100v75.252H0z"/>
        </clipPath>
        <clipPath id="dka8bcx1ph">
            <path fill="#fff" transform="translate(-12 326)" d="M0 0h30v29.296H0z"/>
        </clipPath>
    </defs>
</svg>
