<svg xmlns="http://www.w3.org/2000/svg" width="20" height="20" viewBox="0 0 20 20">
    <g fill="none" fill-rule="evenodd">
        <path fill="#FFF" fill-opacity=".01" stroke="#FFF" stroke-width=".1" d="M0.05 0.05H19.95V19.95H0.05z"/>
        <path fill="#D32F2F" fill-rule="nonzero" d="M10.44 1C5.584 1 3 4.161 3 7.609c0 1.598.88 3.592 2.288 4.224.213.098.33.056.377-.145.042-.153.227-.89.317-1.238.028-.111.013-.208-.075-.312-.468-.55-.839-1.55-.839-2.488 0-2.404 1.882-4.739 5.085-4.739 2.77 0 4.707 1.828 4.707 4.441 0 2.953-1.539 4.996-3.538 4.996-1.107 0-1.931-.882-1.67-1.973.316-1.3.935-2.697.935-3.634 0-.84-.467-1.536-1.422-1.536-1.127 0-2.04 1.133-2.04 2.654 0 .967.336 1.62.336 1.62l-1.322 5.426c-.35 1.445.048 3.786.082 3.988.021.111.144.146.213.055.11-.146 1.457-2.098 1.835-3.51.137-.513.7-2.598.7-2.598.372.68 1.443 1.251 2.584 1.251 3.394 0 5.847-3.03 5.847-6.79C17.388 3.697 14.35 1 10.44 1"/>
    </g>
</svg>
