<svg width="13" height="19" viewBox="0 0 13 19" fill="none" xmlns="http://www.w3.org/2000/svg">
<path d="M12.6695 8.23676C12.6695 9.68291 12.439 10.9369 11.9779 11.9988C11.5238 13.0538 10.8845 13.8921 10.0602 14.5139L12.68 16.5574L10.9614 18.1083L7.71279 15.5409C7.28663 15.6317 6.82904 15.6771 6.34 15.6771C5.11042 15.6771 4.01009 15.3767 3.03901 14.7759C2.07491 14.1681 1.32738 13.3053 0.79643 12.1875C0.272463 11.0697 0.00698623 9.78072 0 8.32059V7.46129C0 5.97322 0.261983 4.65981 0.78595 3.52106C1.3169 2.3823 2.06094 1.51252 3.01805 0.911702C3.98215 0.303901 5.08248 0 6.31904 0C7.57656 0 8.68388 0.300408 9.64099 0.901223C10.6051 1.49505 11.3491 2.35436 11.8731 3.47914C12.3971 4.59694 12.6625 5.89987 12.6695 7.38793V8.23676ZM10.0078 7.44033C10.0078 5.72172 9.6864 4.41879 9.04367 3.53154C8.40094 2.64429 7.49273 2.20066 6.31904 2.20066C5.18029 2.20066 4.28605 2.65127 3.63633 3.5525C2.9936 4.44673 2.66525 5.71124 2.65127 7.34602V8.23676C2.65127 9.88551 2.97264 11.1745 3.61537 12.1036C4.26509 13.0328 5.1733 13.4974 6.34 13.4974C7.52067 13.4974 8.42539 13.0503 9.05415 12.156C9.6899 11.2618 10.0078 9.95537 10.0078 8.23676V7.44033Z" fill="#F34141"/>
</svg>