<svg xmlns="http://www.w3.org/2000/svg" xmlns:xlink="http://www.w3.org/1999/xlink" width="18" height="18" viewBox="0 0 18 18">
    <defs>
        <path id="owynvx8kxa" d="M1.8 7.2c0-2.978 2.422-5.4 5.4-5.4s5.4 2.422 5.4 5.4-2.422 5.4-5.4 5.4-5.4-2.422-5.4-5.4m15.936 9.264l-4.855-4.857C13.829 10.39 14.4 8.861 14.4 7.2c0-3.97-3.23-7.2-7.2-7.2S0 3.23 0 7.2s3.23 7.2 7.2 7.2c1.661 0 3.188-.572 4.407-1.52l4.857 4.856c.175.176.406.264.636.264.23 0 .46-.088.636-.264.352-.352.352-.92 0-1.272"/>
    </defs>
    <g fill="none" fill-rule="evenodd">
        <circle cx="7.2" cy="7.2" r="6.3"/>
        <mask id="zdmtqum3sb" fill="#fff">
            <use xlink:href="#owynvx8kxa"/>
        </mask>
        <use fill="#919EAB" xlink:href="#owynvx8kxa"/>
        <g fill="#AAADB7" mask="url(#zdmtqum3sb)">
            <path d="M0 0H19V19H0z"/>
        </g>
    </g>
</svg>
