<svg xmlns="http://www.w3.org/2000/svg" width="18" height="18" viewBox="0 0 18 18">
    <g>
        <path stroke="#000" d="M.014 4.411c.063-.072.07-.076.101-.095-.048.022-.07.033-.1.095zm.103-.096s0 0 0 0l.003-.002zm16.828 1.619c-.011-.316-.102-.625-.264-.896l-.052-.12L15.794 2H14.53V.9c0-.22-.179-.4-.4-.4H3.33c-.22 0-.4.18-.4.4V2H1.696l-.82 2.867-.027-.008c-.03.086-.051.142-.07.18l.037-.042c-.553.89-.28 2.06.61 2.613l.054.032.25.144V17.1c0 .22.18.4.4.4h13.2c.221 0 .4-.18.4-.4V7.782l.25-.145c.606-.35.975-1.002.965-1.703zM.78 5.04c-.034.072-.056.083-.108.107.03-.017.036-.023.108-.107zm-.108.107H.671l-.003.002.004-.002zM3.503 1c-.034.06-.099.1-.173.1h.2V1h-.027zm10.427.1h.2c-.074 0-.139-.04-.173-.1h-.027v.1zM2.53.9c0-.442.358-.8.8-.8h10.8c.442 0 .8.358.8.8V2H2.53V.9zm8.8 17h-5.2v-6.8c0-.442.358-.8.8-.8h3.6c.442 0 .8.358.8.8v6.8zm4.8-.8c0 .442-.358.8-.8.8h-4.4v-6.8c0-.22-.179-.4-.4-.4h-3.6c-.22 0-.4.18-.4.4v6.8h-4.4c-.442 0-.8-.358-.8-.8V7.671l.628.166c.838.222 1.718-.157 2.133-.918l.437-.8.44.799c.506.918 1.66 1.252 2.578.746.314-.173.573-.432.746-.746l.438-.795.438.795c.506.918 1.66 1.252 2.579.746.317-.175.577-.437.75-.755l.438-.804.44.804c.335.611.976.991 1.674.991h.037c.14-.003.28-.023.416-.06l.628-.165V17.1zm-.115-9.023c-.286.14-.6.216-.917.223-.96.022-1.797-.548-2.16-1.377-.356.81-1.166 1.377-2.108 1.377-.935 0-1.74-.559-2.1-1.36-.36.801-1.164 1.36-2.1 1.36-.936 0-1.741-.559-2.1-1.361-.36.802-1.166 1.36-2.102 1.36C1.16 8.298.131 7.269.13 6c0-.407.109-.807.316-1.158L.479 4.8 1.393 1.6h14.704l.104.362.817 2.855c.202.335.315.716.329 1.116.014.914-.507 1.752-1.332 2.144z"/>
        <path d="M7.23 13.8H8.23V14.8H7.23z"/>
    </g>
</svg>
