<svg xmlns="http://www.w3.org/2000/svg" width="20" height="15" viewBox="0 0 20 15">
    <path d="M19.04 11.57h-.602V8.2c0-.394-.119-.781-.34-1.108l-1.51-2.237c-.37-.546-.984-.873-1.644-.873h-2.341c-.276 0-.496.223-.496.496v7.093H8.273c.364.314.615.753.687 1.25h4.042c.144-.985.992-1.746 2.016-1.746 1.025 0 1.87.76 2.014 1.745h2.009c.136 0 .248-.111.248-.248v-.753c0-.137-.112-.249-.248-.249zm-2.47-4.032h-3.09c-.136 0-.247-.11-.247-.248V5.576c0-.136.111-.248.248-.248h1.882c.082 0 .156.04.203.104l1.208 1.717c.114.163-.002.389-.203.389zm-1.552 4.032c-.853 0-1.542.692-1.542 1.546 0 .85.69 1.542 1.542 1.542.85 0 1.543-.692 1.543-1.542 0-.854-.692-1.546-1.543-1.546zm0 2.317c-.426 0-.771-.347-.771-.771 0-.427.345-.772.771-.772.427 0 .772.345.772.772 0 .424-.345.77-.772.77zM2.157 11.57c-.137 0-.248.112-.248.249v.753c0 .137.111.248.248.248H4.93c.071-.496.322-.935.684-1.25H2.157zm4.786 0c-.85 0-1.542.692-1.542 1.546 0 .85.692 1.542 1.542 1.542.853 0 1.543-.692 1.543-1.542 0-.854-.69-1.546-1.543-1.546zm0 2.317c-.426 0-.771-.347-.771-.771 0-.427.345-.772.771-.772.427 0 .772.345.772.772 0 .424-.345.77-.772.77zm3.71-11.443H7.78c.141.42.216.868.216 1.332 0 2.341-1.905 4.246-4.246 4.246-.427 0-.84-.065-1.23-.181v2.74c0 .136.112.248.248.248h8.382c.137 0 .248-.112.248-.248V3.188c0-.412-.332-.744-.744-.744zM3.75.025C1.679.025 0 1.705 0 3.775c0 2.07 1.679 3.75 3.75 3.75 2.07 0 3.75-1.68 3.75-3.75 0-2.07-1.68-3.75-3.75-3.75zm0 6.646c-1.6 0-2.897-1.296-2.897-2.896C.853 2.175 2.15.879 3.75.879c1.6 0 2.896 1.296 2.896 2.896 0 1.6-1.297 2.896-2.896 2.896zm1.106-2.284c-.032 0-.065-.004-.097-.013L3.55 4.048c-.162-.044-.275-.19-.275-.359v-1.86c0-.205.167-.372.372-.372s.372.167.372.372v1.575l.933.252c.199.053.316.257.263.456-.045.165-.195.275-.36.275z"/>
</svg>
