<svg xmlns="http://www.w3.org/2000/svg" width="20" height="20" viewBox="0 0 20 20">
    <g fill="none" fill-rule="evenodd">
        <path fill="#FFF" fill-opacity=".01" stroke="#FFF" stroke-width=".1" d="M0.05 0.05H19.95V19.95H0.05z"/>
        <path fill="#03A9F4" fill-rule="nonzero" d="M19 4.734c-.67.294-1.383.489-2.126.583.765-.457 1.349-1.176 1.623-2.042-.713.426-1.5.726-2.34.894C15.48 3.447 14.515 3 13.462 3c-2.043 0-3.688 1.66-3.688 3.696 0 .293.025.574.085.843-3.067-.15-5.782-1.623-7.606-3.865-.318.553-.505 1.186-.505 1.867 0 1.28.658 2.414 1.64 3.071-.594-.011-1.175-.184-1.668-.455v.04c0 1.796 1.28 3.288 2.957 3.631-.3.082-.628.122-.968.122-.236 0-.475-.014-.699-.063.479 1.463 1.835 2.539 3.449 2.574-1.256.983-2.85 1.576-4.576 1.576-.302 0-.593-.014-.883-.051 1.635 1.055 3.572 1.658 5.661 1.658 6.79 0 10.503-5.632 10.503-10.514 0-.164-.006-.321-.013-.478.732-.52 1.347-1.17 1.849-1.918z"/>
    </g>
</svg>
