<svg xmlns="http://www.w3.org/2000/svg" width="51" height="52" viewBox="0 0 51 52">
    <defs>
        <linearGradient id="799rk6xp1a" x1="0%" x2="100%" y1="50%" y2="50%">
            <stop offset="0%" stop-color="#FFB4B4"/>
            <stop offset="100%" stop-color="var(--color1)"/>
        </linearGradient>
        <filter id="h1mr9c3jqb" width="111.4%" height="113.3%" x="-5.7%" y="-7.1%" filterUnits="objectBoundingBox">
            <feOffset in="SourceAlpha" result="shadowOffsetOuter1"/>
            <feGaussianBlur in="shadowOffsetOuter1" result="shadowBlurOuter1" stdDeviation="4"/>
            <feColorMatrix in="shadowBlurOuter1" result="shadowMatrixOuter1" values="0 0 0 0 0 0 0 0 0 0 0 0 0 0 0 0 0 0 0.1 0"/>
            <feMerge>
                <feMergeNode in="shadowMatrixOuter1"/>
                <feMergeNode in="SourceGraphic"/>
            </feMerge>
        </filter>
    </defs>
    <g fill="url(#799rk6xp1a)" fill-rule="evenodd" filter="url(#h1mr9c3jqb)" transform="translate(-286 -181)">
        <path d="M311.478 189.308c-9.727 0-17.61 7.884-17.61 17.61 0 9.727 7.883 17.61 17.61 17.61 9.726 0 17.61-7.883 17.61-17.61 0-9.726-7.884-17.61-17.61-17.61zm8.426 19.024l-10.504 7.226c-.292.2-.632.303-.973.303-.275 0-.547-.065-.798-.196-.564-.299-.918-.884-.918-1.52v-14.453c0-.637.354-1.222.918-1.52.564-.296 1.245-.255 1.771.106l10.504 7.226c.465.32.744.85.744 1.414 0 .565-.279 1.094-.744 1.414z"/>
    </g>
</svg>
