<svg xmlns="http://www.w3.org/2000/svg" width="20" height="20" viewBox="0 0 20 20">
    <g fill="none" fill-rule="evenodd">
        <path fill="#FFF" fill-opacity=".01" stroke="#FFF" stroke-width=".1" d="M0.05 0.05H19.95V19.95H0.05z"/>
        <g fill-rule="nonzero">
            <path fill="#F44336" d="M17.235 1.35C16.747.366 16.217.185 15.138.116 14.06.034 11.35 0 9.002 0 6.65 0 3.94.034 2.862.116c-1.077.07-1.608.25-2.1 1.233C.259 2.33 0 4.021 0 6.996v.01c0 2.963.259 4.666.762 5.637.492.983 1.022 1.161 2.099 1.244 1.078.071 3.789.113 6.141.113 2.348 0 5.058-.042 6.137-.112 1.079-.083 1.609-.26 2.097-1.243.508-.972.764-2.674.764-5.637V7v-.004c0-2.976-.256-4.667-.765-5.648z" transform="translate(1 3)"/>
            <path fill="#FAFAFA" d="M6.828 11.2L6.828 3.5 12.414 7.35z" transform="translate(1 3)"/>
        </g>
    </g>
</svg>
