
<svg width="40" height="24" fill="none" xmlns="http://www.w3.org/2000/svg"><path d="M3.077 0h33.846C38.615 0 40 1.35 40 3v18c0 1.65-1.385 3-3.077 3H3.077C1.385 24 0 22.65 0 21V3c0-1.65 1.385-3 3.077-3z" fill="#F0F3F5"/><path d="M17.692 13.077h-14v4.615h14v-4.615z" fill="#84B740"/><path d="M17.692 6.769h-14v4.615h14V6.77z" fill="#259BD6"/><path d="M31.692 16.923c-.308 0-.462.154-.462.154-.461 0-.769-.154-.769-1.077 0-.462.154-1.077.77-1.077.153 0 .307 0 .461.154v1.846zm0-4.461l-.154 1.692h-.154c-.154 0-.461-.154-.615-.154-1.23 0-1.692 1.077-1.692 1.846 0 1.23.615 1.846 1.846 1.846.461 0 .923 0 1.23-.154.462-.154.462-.307.462-.615v-4.615c-.154 0-.615.153-.923.153zM35.692 16.923h-.308c-.154 0-.461.154-.461.154-.308 0-.462-.154-.462-.462 0-.153.154-.461.616-.461h.615v.77zm-.462-3.077c-.461 0-.923.154-1.384.308l-.462.154.154.769.308-.154c.461-.154.769-.154 1.23-.154.154 0 .616 0 .616.462v.308h-.615c-1.231 0-1.693.461-1.693 1.23 0 .616.462 1.077 1.231 1.077.308 0 .615 0 .923-.154h.154c.308 0 .615.154 1.077.154v-2.615c-.154-.77-.615-1.385-1.539-1.385zM27.538 16.923h-.154c-.153 0-.461.154-.461.154-.308 0-.462-.154-.462-.462 0-.153.154-.461.616-.461h.615v.77h-.154zm-.461-3.077c-.462 0-.923.154-1.385.308l-.308.154.154.769.462-.154c.461-.154.77-.154 1.23-.154.154 0 .616 0 .616.462v.308h-.615c-1.231 0-1.693.461-1.693 1.23 0 .616.462 1.077 1.231 1.077.308 0 .616 0 .923-.154.462 0 .616.154 1.077.154v-2.615c-.154-.77-.615-1.385-1.692-1.385zM23.23 13.846c-.46 0-.922.154-1.23.308-.308-.154-.462-.308-1.077-.308-.461 0-.77 0-1.23.154-.462.154-.462.308-.462.615v2.923h1.077v-2.615c.307-.154.461-.154.461-.154.308 0 .462.154.462.462v2.307h1.077v-2.307-.308h.154c.153-.154.461-.154.461-.154.308 0 .462.154.462.462v2.307h1.23v-2.307c0-.77-.461-1.385-1.384-1.385zM34.77 9.846h-.616V8.154 7.692h.769c.615 0 .77.615.77 1.077-.155.77-.462 1.077-.924 1.077zm0-3.077c-.616 0-1.232.154-1.54.462-.153.153-.153.461-.307.615V10h-2V8.615c0-1.23-.77-1.846-1.846-1.846H28c0 .308-.154.462-.154.77h1.077c.462 0 .77.46.77 1.23v1.23h-.155H27.692c0 .308-.154.462-.154.77h5.385c.154 0 .462-.154.462-.154.307.154.769.308 1.23.308 1.231 0 2-.77 2-2 .154-1.23-.615-2.154-1.846-2.154zM25.538 11.077c1.231 0 1.693-.462 1.693-1.231 0-.615-.462-1.23-1.231-1.23h-1.077c-.308 0-.462-.155-.462-.462 0-.308.154-.462.616-.462h2.307c0-.308.154-.461.154-.77h-2.461c-1.23 0-1.693.462-1.693 1.232 0 .769.462 1.23 1.231 1.23h1.077c.308 0 .462.308.462.462 0 .154-.154.461-.616.461h-4.154c-.461 0-.923-.307-.923-1.076v-.462c0-.77.308-1.23.924-1.23h1.076c0-.308.154-.462.154-.77h-1.384c-1.077 0-1.693.615-1.847 2v.462c0 1.23.77 1.846 1.847 1.846h4.307z" fill="#27292D"/></svg>
