<svg xmlns="http://www.w3.org/2000/svg" width="20" height="20" viewBox="0 0 24 24">
    <g fill="none">
        <path fill="#fff" d="M22.897 12l1.053-2.745c.116-.303.026-.647-.228-.852L21.44 6.552l-.462-2.906c-.05-.32-.303-.571-.624-.622l-2.905-.462-1.85-2.284c-.203-.254-.554-.344-.85-.228L12 1.104 9.254.051c-.305-.117-.645-.024-.85.228L6.551 2.563l-2.905.462c-.32.051-.572.303-.623.623l-.462 2.905L.278 8.404c-.252.204-.343.548-.228.85l1.053 2.747L.05 14.747c-.117.303-.024.647.228.85l2.284 1.85.462 2.905c.051.321.302.573.623.624l2.905.462 1.851 2.283c.206.255.55.345.852.228L12 22.898l2.747 1.053c.087.033.177.049.268.049.22 0 .438-.097.584-.279l1.849-2.283 2.905-.462c.321-.05.573-.303.624-.624l.462-2.905 2.283-1.85c.254-.205.344-.547.228-.85l-1.053-2.746z"></path>
        <g fill="#ED1846">
            <path d="M2.33 4.455C1.046 4.455 0 3.456 0 2.23.001 1 1.046.002 2.33.002c1.284 0 2.329.999 2.329 2.227 0 1.227-1.045 2.226-2.33 2.226zm0-2.969c-.429 0-.776.333-.776.743s.347.742.776.742c.428 0 .776-.333.776-.742 0-.41-.348-.743-.776-.743zM6.987 11.878c-1.284 0-2.328-.999-2.328-2.226 0-1.228 1.044-2.227 2.328-2.227 1.284 0 2.33.999 2.33 2.227 0 1.227-1.046 2.226-2.33 2.226zm0-2.969c-.427 0-.776.334-.776.743 0 .408.35.742.776.742.427 0 .777-.334.777-.742 0-.409-.35-.743-.777-.743zM.777 11.878c-.156 0-.313-.044-.45-.138-.35-.239-.43-.702-.18-1.036L7.91.312C8.16-.022 8.644-.1 8.993.14c.35.237.429.702.18 1.034L1.411 11.567c-.154.203-.391.311-.634.311z" transform="translate(7 6)"></path>
        </g>
    </g>
</svg>