<svg xmlns="http://www.w3.org/2000/svg" width="24" height="24" viewBox="0 0 24 24"><g fill="none" fill-rule="evenodd"><path stroke="#FFF" stroke-opacity="0.012" stroke-width="0.1" d="M.05.05h23.9v23.9H.05z"></path><path fill="#fff" fill-rule="nonzero" d="M20.742 19.259L16.55 14.84a7.243 7.243 0 0 0 1.668-4.633c0-3.974-3.19-7.207-7.11-7.207C7.19 3 4 6.233 4 10.207c0 3.974 3.19 7.207 7.11 7.207 1.471 0 2.873-.45 4.072-1.304l4.223 4.452a.916.916 0 0 0 1.31.026.95.95 0 0 0 .027-1.33zM11.109 4.88c2.898 0 5.255 2.39 5.255 5.327s-2.357 5.327-5.255 5.327c-2.897 0-5.254-2.39-5.254-5.327S8.212 4.88 11.109 4.88z"></path></g></svg>