<svg xmlns="http://www.w3.org/2000/svg" width="14" height="14" viewBox="0 0 14 14">
    <g fill="none" fill-rule="nonzero">
        <path fill="#F8D16B" d="M7.74 13.516c-3.365 0-6.083-2.967-6.083-6.67C1.657 3.145 4.375.179 7.74.179c3.365 0 6.083 2.966 6.083 6.669 0 3.702-2.744 6.67-6.083 6.67"/>
        <path fill="#F2C24D" d="M1.657 6.847c0-3.398 2.33-6.213 5.333-6.619-.26-.025-.492-.05-.751-.05C2.899.178.155 3.144.155 6.847c0 3.702 2.719 6.67 6.084 6.67.259 0 .492-.026.75-.052-3.002-.405-5.332-3.22-5.332-6.618"/>
        <path fill="#FADD90" d="M7.74 12.578c-2.821 0-5.1-2.587-5.1-5.731 0-3.145 2.279-5.731 5.1-5.731 2.822 0 5.075 2.586 5.075 5.73 0 3.145-2.279 5.732-5.074 5.732"/>
        <path fill="#D0A33B" d="M1.657 7.075H.155c0 .178.026.304.026.482h1.502c0-.152-.026-.304-.026-.482M1.709 5.883H.207c-.026.178-.026.305-.052.482h1.502c.026-.152.026-.304.052-.482M1.786 8.267H.285c.026.177.077.304.13.482h1.5c-.051-.152-.077-.305-.129-.482M2.123 9.459H.647c.078.177.13.304.207.482H2.33c-.052-.153-.13-.305-.207-.482M1.967 4.691H.492c-.052.178-.104.305-.13.482h1.502c.026-.152.052-.304.103-.482M2.485 3.5H.984c-.078.177-.156.304-.233.481h1.501a2.68 2.68 0 0 1 .233-.482M3.469 2.08H1.967a2.28 2.28 0 0 0-.388.481h1.502c.103-.177.259-.33.388-.482M4.996.888H3.495a7.13 7.13 0 0 0-.725.481h1.502a7.13 7.13 0 0 1 .724-.481M2.9 10.904H1.397c.13.178.259.33.362.482h1.502c-.13-.152-.233-.33-.363-.482M2.485 12.096c.207.178.389.33.622.482h1.501a5.746 5.746 0 0 1-.621-.482H2.485z"/>
        <path fill="#EABC4C" d="M7.74 12.806c-2.95 0-5.332-2.663-5.332-5.96C2.408 3.55 4.789.889 7.74.889c2.95 0 5.333 2.662 5.333 5.959 0 3.296-2.382 5.96-5.333 5.96m0-11.438c-2.693 0-4.842 2.46-4.842 5.478s2.15 5.477 4.842 5.477c2.692 0 4.84-2.46 4.84-5.477 0-3.018-2.174-5.478-4.84-5.478"/>
        <g fill="#FFF">
            <path d="M8.362 5.858c.362-.862.75-1.7 1.294-2.46.181-.228.337-.583.751-.406.362.152.595.431.544.863-.078.76-.389 1.47-.544 2.231-.337 1.496-.932 2.942-.932 4.514 0 .355-.285.431-.57.203-.647-.507-.595-1.217-.44-1.902.208-.888.492-1.75.751-2.612.026-.127.104-.228.052-.406-.207.102-.233.305-.31.457-.493 1.115-.959 2.231-1.45 3.347-.104.254-.208.634-.596.533-.362-.102-.57-.406-.57-.787.052-1.14.415-2.206.648-3.322.026-.152.077-.279.052-.43-.208-.026-.233.177-.285.278-.414.786-.829 1.573-1.269 2.359-.13.228-.259.481-.414.71-.103.177-.285.304-.518.228a.44.44 0 0 1-.31-.533 41.99 41.99 0 0 1 .362-1.75c.259-1.217.75-2.358.777-3.6 0-.355.285-.28.466-.152.31.228.517.532.517.912v.812c.26-.33.44-.583.648-.837.207-.279.466-.583.88-.406.414.203.647.558.595 1.015-.051.33-.155.684-.207 1.014-.026.076-.103.203.078.127z"/>
        </g>
    </g>
</svg>
