<svg width="107" height="15" viewBox="0 0 107 15" fill="none" xmlns="http://www.w3.org/2000/svg">
<g clip-path="url(#clip0)">
<path d="M2.69899 0.29243C2.72209 0.210119 2.77091 0.137386 2.83831 0.0848949C2.9057 0.0324042 2.98812 0.00291883 3.07347 0.000762939H3.40633C3.48083 0.0018473 3.55351 0.0239179 3.61606 0.0644473C3.67861 0.104977 3.72849 0.162327 3.76 0.22993L7.87922 11.7091H7.98324L12.0401 0.22993C12.0716 0.162327 12.1214 0.104977 12.184 0.0644473C12.2465 0.0239179 12.3192 0.0018473 12.3937 0.000762939L12.7266 0.000762939C12.8119 0.00291883 12.8944 0.0324042 12.9617 0.0848949C13.0291 0.137386 13.078 0.210119 13.1011 0.29243L15.7848 14.2924C15.8472 14.5841 15.7224 14.7924 15.4103 14.7924H14.5782C14.4939 14.7863 14.4134 14.7553 14.3468 14.7034C14.2801 14.6515 14.2303 14.581 14.2037 14.5008L12.3521 3.7716H12.2689L8.44094 14.7716C8.40768 14.8379 8.35737 14.894 8.2952 14.9343C8.23303 14.9746 8.16125 14.9975 8.08727 15.0008H7.71279C7.63881 14.9975 7.56703 14.9746 7.50485 14.9343C7.44268 14.894 7.39237 14.8379 7.35912 14.7716L3.48955 3.7716H3.40633L1.60331 14.5008C1.57944 14.5826 1.53041 14.6549 1.46318 14.7073C1.39595 14.7596 1.31395 14.7894 1.22883 14.7924H0.396669C0.0846073 14.7924 -0.0402175 14.5841 0.0221949 14.2924L2.69899 0.29243Z" fill="#010101"/>
<path d="M21.8262 7.77084L16.8124 0.812507C16.772 0.753474 16.7488 0.684351 16.7453 0.612858C16.7419 0.541364 16.7583 0.470315 16.7928 0.407643C16.8274 0.344972 16.8786 0.293145 16.9409 0.257951C17.0031 0.222757 17.0739 0.205581 17.1453 0.208341H18.1162C18.182 0.213099 18.246 0.232376 18.3036 0.26479C18.3611 0.297204 18.4108 0.341955 18.449 0.395841L22.6515 6.20834L26.8539 0.395841C26.8922 0.342024 26.9419 0.297324 26.9995 0.264917C27.057 0.232511 27.1209 0.213194 27.1868 0.208341H28.1576C28.2291 0.205581 28.2998 0.222757 28.3621 0.257951C28.4243 0.293145 28.4756 0.344972 28.5101 0.407643C28.5446 0.470315 28.5611 0.541364 28.5576 0.612858C28.5542 0.684351 28.5309 0.753474 28.4905 0.812507L23.4282 7.75001V14.3958C23.4231 14.4992 23.3799 14.597 23.3068 14.6701C23.2337 14.7433 23.1361 14.7866 23.0329 14.7917H22.2215C22.1167 14.7917 22.0161 14.75 21.942 14.6757C21.8679 14.6015 21.8262 14.5008 21.8262 14.3958V7.77084Z" fill="#010101"/>
<path d="M36.8302 0C38.9314 0 40.4501 0.729167 41.8648 1.9375C41.9056 1.97369 41.9387 2.01781 41.962 2.06718C41.9852 2.11655 41.9982 2.17014 42.0002 2.2247C42.0021 2.27926 41.993 2.33364 41.9733 2.38455C41.9536 2.43545 41.9238 2.48182 41.8856 2.52083C41.6984 2.70833 41.4695 2.91667 41.3031 3.10417C41.1159 3.3125 40.991 3.29167 40.7622 3.08333C39.7012 2.14583 38.2033 1.45833 36.8094 1.45833C33.5224 1.45833 31.0259 4.20833 31.0259 7.43055C31.0259 10.6528 33.5224 13.4514 36.8094 13.4514C39.0979 13.4514 40.5542 12.5764 40.5542 12.5764V9.65972H38.1617C38.1109 9.66196 38.0602 9.65395 38.0126 9.63616C37.965 9.61837 37.9215 9.59117 37.8846 9.55618C37.8477 9.52119 37.8183 9.47912 37.798 9.43248C37.7776 9.38585 37.7669 9.3356 37.7664 9.28472V8.52083C37.7647 8.46838 37.7737 8.41613 37.793 8.36732C37.8122 8.31851 37.8413 8.27417 37.8783 8.23706C37.9154 8.19995 37.9596 8.17086 38.0084 8.15158C38.0571 8.13231 38.1093 8.12326 38.1617 8.125H41.7608C41.8623 8.12932 41.9582 8.17306 42.0281 8.24694C42.098 8.32083 42.1364 8.41906 42.1353 8.52083V13.2917C42.1233 13.4197 42.0639 13.5386 41.9688 13.625C40.4084 14.5264 38.6386 15.0006 36.8372 15C35.8536 15 34.8797 14.806 33.971 14.4291C33.0624 14.0522 32.2367 13.4997 31.5413 12.8033C30.8458 12.1069 30.2941 11.2801 29.9178 10.3701C29.5414 9.46018 29.3477 8.48491 29.3477 7.5C29.3477 6.51508 29.5414 5.53982 29.9178 4.62987C30.2941 3.71993 30.8458 2.89314 31.5413 2.1967C32.2367 1.50026 33.0624 0.947814 33.971 0.570903C34.8797 0.193993 35.8536 -1.46764e-08 36.8372 0L36.8302 0Z" fill="#010101"/>
<path d="M46.3391 0.60417C46.3391 0.551718 46.3495 0.499787 46.3697 0.451397C46.3899 0.403007 46.4195 0.359121 46.4568 0.322291C46.4941 0.285461 46.5384 0.256421 46.587 0.236858C46.6356 0.217295 46.6876 0.207601 46.7399 0.208337H47.5513C47.6545 0.213387 47.7521 0.256712 47.8252 0.329879C47.8983 0.403046 47.9415 0.50082 47.9466 0.60417V13.3958H53.9382C54.043 13.3958 54.1435 13.4375 54.2177 13.5118C54.2918 13.586 54.3335 13.6867 54.3335 13.7917V14.3958C54.3335 14.5008 54.2918 14.6015 54.2177 14.6757C54.1435 14.75 54.043 14.7917 53.9382 14.7917H46.7399C46.688 14.7917 46.6366 14.7814 46.5887 14.7615C46.5407 14.7416 46.4971 14.7125 46.4604 14.6757C46.4237 14.639 46.3946 14.5953 46.3747 14.5473C46.3549 14.4993 46.3447 14.4478 46.3447 14.3958L46.3391 0.60417Z" fill="#010101"/>
<path d="M74.9808 0.291667C75.0039 0.209356 75.0527 0.136623 75.1201 0.0841319C75.1875 0.0316413 75.2699 0.00215589 75.3553 0L75.6882 0C75.7626 0.00108437 75.8353 0.0231549 75.8979 0.0636843C75.9604 0.104214 76.0103 0.161564 76.0418 0.229167L80.1652 11.7083H80.2692L84.326 0.229167C84.3571 0.162397 84.4061 0.105603 84.4676 0.0651329C84.5291 0.0246629 84.6006 0.00211173 84.6741 0L85.007 0C85.0924 0.00215589 85.1748 0.0316413 85.2422 0.0841319C85.3096 0.136623 85.3584 0.209356 85.3815 0.291667L88.0708 14.2917C88.1332 14.5833 88.0083 14.7917 87.6963 14.7917H86.8641C86.7799 14.7856 86.6994 14.7546 86.6327 14.7027C86.5661 14.6508 86.5163 14.5802 86.4896 14.5L84.6339 3.77083H84.5507L80.72 14.7708C80.6867 14.8371 80.6364 14.8933 80.5742 14.9335C80.5121 14.9738 80.4403 14.9968 80.3663 15H79.9918C79.9178 14.9968 79.8461 14.9738 79.7839 14.9335C79.7217 14.8933 79.6714 14.8371 79.6382 14.7708L75.7686 3.77083H75.6854L73.8824 14.5C73.8585 14.5819 73.8095 14.6541 73.7422 14.7065C73.675 14.7589 73.593 14.7887 73.5079 14.7917H72.6757C72.3637 14.7917 72.2388 14.5833 72.3012 14.2917L74.9808 0.291667Z" fill="#010101"/>
<path d="M93.6297 0.291667C93.6527 0.209356 93.7016 0.136623 93.769 0.0841319C93.8364 0.0316413 93.9188 0.00215589 94.0041 0L94.337 0C94.4115 0.00108437 94.4842 0.0231549 94.5467 0.0636843C94.6093 0.104214 94.6591 0.161564 94.6907 0.229167L98.8099 11.7083H98.9139L102.971 0.229167C103.002 0.161141 103.053 0.103509 103.116 0.0629495C103.179 0.0223899 103.252 0.000563471 103.327 0L103.66 0C103.745 0.00215589 103.828 0.0316413 103.895 0.0841319C103.963 0.136623 104.011 0.209356 104.034 0.291667L106.718 14.2917C106.781 14.5833 106.656 14.7917 106.344 14.7917H105.512C105.427 14.7856 105.347 14.7546 105.28 14.7027C105.214 14.6508 105.164 14.5802 105.137 14.5L103.283 3.77083H103.2L99.3716 14.7708C99.3383 14.8371 99.288 14.8933 99.2258 14.9335C99.1637 14.9738 99.0919 14.9968 99.0179 15H98.6434C98.5695 14.9968 98.4977 14.9738 98.4355 14.9335C98.3733 14.8933 98.323 14.8371 98.2898 14.7708L94.4202 3.77083H94.337L92.534 14.5C92.5101 14.5819 92.4611 14.6541 92.3938 14.7065C92.3266 14.7589 92.2446 14.7887 92.1595 14.7917H91.3273C91.0153 14.7917 90.8904 14.5833 90.9529 14.2917L93.6297 0.291667Z" fill="#010101"/>
<path d="M69.8383 14.25L63.5554 0.229167C63.5264 0.159737 63.4771 0.100709 63.4139 0.0598163C63.3508 0.0189241 63.2769 -0.00192512 63.2017 2.10936e-07H62.9937C62.9186 -0.00173365 62.8447 0.0191933 62.7816 0.0600618C62.7185 0.10093 62.6692 0.159851 62.64 0.229167L56.31 14.25C56.2785 14.3083 56.2634 14.3741 56.2662 14.4403C56.269 14.5065 56.2896 14.5708 56.3258 14.6263C56.362 14.6818 56.4125 14.7264 56.472 14.7555C56.5315 14.7846 56.5977 14.7971 56.6637 14.7917H57.4958C57.5707 14.7923 57.6441 14.7709 57.707 14.7302C57.7698 14.6894 57.8194 14.6311 57.8495 14.5625L62.9812 3H63.1476C64.167 5.27083 68.2793 14.5625 68.2793 14.5625C68.3107 14.6345 68.3635 14.6952 68.4305 14.7362C68.4975 14.7772 68.5754 14.7965 68.6538 14.7917H69.486C69.5518 14.7969 69.6179 14.7842 69.6771 14.7549C69.7364 14.7257 69.7867 14.681 69.8228 14.6256C69.8588 14.5702 69.8793 14.506 69.882 14.4399C69.8847 14.3738 69.8696 14.3082 69.8383 14.25V14.25Z" fill="#010101"/>
</g>
<defs>
<clipPath id="clip0">
<rect width="106.731" height="15" fill="white"/>
</clipPath>
</defs>
</svg>
