<svg width="24px" height="24px" viewBox="0 0 24 24" version="1.1">
        <title>Artboard</title>
        <g id="Artboard" stroke="none" strokeWidth="1" fill="none" fillRule="evenodd">
          <g id="Group" transform="translate(1.000000, 2.000000)" fill="#000" fillRule="nonzero">
            <path
              d="M3.43239896,13.090831 C3.41700704,12.9959141 3.40161511,12.898432 3.38878851,12.8009498 C3.39904979,12.8702134 3.40674575,12.9369118 3.41700704,13.0061754 C3.32465549,12.282755 3.32465549,11.5516386 3.41700704,10.8307836 C3.40674575,10.9000472 3.39904979,10.9667456 3.38878851,11.0360092 C3.48627069,10.3100235 3.67866974,9.601995 3.96342032,8.92731568 C3.93776712,8.98888337 3.91211391,9.05045107 3.8864607,9.11201876 C4.0480759,8.73235131 4.23534431,8.36551047 4.45083124,8.01406155 C4.55600938,7.84218507 4.66888349,7.67287391 4.78688823,7.51125871 C4.81510676,7.4727789 4.84332529,7.43429909 4.87154381,7.39581928 C4.88950106,7.3727314 4.90489298,7.34451287 4.92541555,7.3239903 C4.92541555,7.3239903 4.79714952,7.4856055 4.87154381,7.39581928 C4.93824215,7.31372902 5.00494048,7.22907344 5.07420414,7.1495485 C5.33330152,6.84427535 5.61805211,6.55439413 5.91819462,6.2901661 C5.99002359,6.22859841 6.06185257,6.16703072 6.13368155,6.10546302 C6.16959604,6.07467917 6.20807585,6.04646065 6.24399033,6.0156768 C6.26194758,6.00028488 6.28247014,5.98745827 6.30042739,5.97206635 C6.10802834,6.12598559 6.21064117,6.04133001 6.25681694,6.00541552 C6.41843213,5.88484545 6.58261265,5.76940602 6.75448913,5.66166256 C7.14698318,5.41026114 7.5599998,5.19220889 7.98840834,5.01007113 C7.92684065,5.03572433 7.86527295,5.06137754 7.80370526,5.08703074 C7.91401404,5.04085497 8.02688815,4.99724452 8.13976225,4.95363407 C8.3321613,4.8818051 8.4937765,4.78175759 8.59895464,4.59961983 C8.69643682,4.43543931 8.73748195,4.19173386 8.67591426,4.00703077 C8.55790951,3.64018993 8.13206629,3.31952485 7.72931096,3.46831345 C6.27220886,4.01472673 4.95106875,4.90232766 3.95059372,6.09776706 C2.94755337,7.29577178 2.23439424,8.73235131 1.95990494,10.2766743 C1.77007121,11.3515436 1.77007121,12.4212823 1.94964365,13.498717 C1.9804275,13.6782894 2.15230398,13.8706885 2.3036579,13.9579094 C2.46783841,14.0553916 2.71154387,14.0964367 2.89624695,14.034869 C3.08351536,13.9758666 3.2630878,13.8604272 3.35543934,13.6808547 C3.45805216,13.491021 3.46831345,13.3063179 3.43239896,13.090831 L3.43239896,13.090831 Z"
              id="Path"
            />
            <path
              d="M15.499667,17.7135387 C15.4586219,17.7468879 15.4150115,17.7828024 15.3739663,17.8161515 C15.3534438,17.8341088 15.3303559,17.8495007 15.3098333,17.867458 C15.4073155,17.7930637 15.4304034,17.7725411 15.3842276,17.8084556 C15.3021374,17.8700233 15.2200471,17.931591 15.1379568,17.988028 C14.9814723,18.0983368 14.8224224,18.203515 14.6582419,18.3009971 C14.3170543,18.5062228 13.96304,18.6857952 13.5961992,18.8422798 C13.6577669,18.8166266 13.7193346,18.7909734 13.7809022,18.7653202 C13.1216149,19.0398095 12.4289783,19.2296432 11.7209498,19.3271254 C11.7902135,19.3168641 11.8569118,19.3091681 11.9261755,19.2989069 C11.1796672,19.3989544 10.4254629,19.3989544 9.67895461,19.2989069 C9.74821827,19.3091681 9.8149166,19.3168641 9.88418026,19.3271254 C9.17615178,19.2296432 8.48351521,19.0398095 7.82422782,18.7653202 C7.88579552,18.7909734 7.94736321,18.8166266 8.0089309,18.8422798 C7.64209006,18.6883606 7.28807582,18.5062228 6.94688818,18.3009971 C6.78270766,18.203515 6.62365778,18.0983368 6.46717323,17.988028 C6.39021361,17.9341563 6.31325399,17.8751539 6.23629437,17.8187169 C6.17216136,17.7699758 6.19268392,17.7853677 6.29529675,17.8648926 C6.27477418,17.8469354 6.2516863,17.8315435 6.23116373,17.8135862 C6.18755328,17.7802371 6.14650815,17.7443226 6.10546302,17.7109734 C5.94384782,17.5775767 5.77966731,17.4852252 5.56161505,17.4852252 C5.37178133,17.4852252 5.14859844,17.5698808 5.01776709,17.7109734 C4.75866971,17.9931587 4.68684073,18.5267454 5.01776709,18.7986693 C6.25681694,19.8196669 7.73700692,20.540522 9.33007101,20.7867928 C10.9667456,21.0407595 12.6572918,20.8868403 14.1913535,20.2455102 C15.0686932,19.8786693 15.8588119,19.4015197 16.5924936,18.7986693 C16.7361516,18.6806646 16.8182418,18.4318285 16.8182418,18.2548214 C16.8182418,18.0649876 16.7335863,17.8418048 16.5924936,17.7109734 C16.4462703,17.5775767 16.2538713,17.4775292 16.0486457,17.4852252 C15.8280281,17.4980518 15.6638476,17.5775767 15.499667,17.7135387 L15.499667,17.7135387 Z"
              id="Path"
            />
            <path
              d="M13.4602372,4.95363407 C13.5731113,4.9946792 13.6834201,5.04085497 13.7962942,5.08703074 C13.7347265,5.06137754 13.6731588,5.03572433 13.6115911,5.01007113 C13.9912585,5.17168632 14.3580994,5.35895473 14.7095483,5.57444166 C14.8814248,5.6796198 15.0507359,5.79249391 15.2123511,5.91049866 C15.2508309,5.93871718 15.2893108,5.96693571 15.3277906,5.99515424 C15.3508785,6.01311148 15.379097,6.0285034 15.3996195,6.04902597 C15.3996195,6.04902597 15.2380043,5.92075994 15.3277906,5.99515424 C15.4098808,6.06185257 15.4945364,6.12855091 15.5740613,6.19781456 C15.8793345,6.45691194 16.1692157,6.74166253 16.4334437,7.04180504 C16.4950114,7.11363402 16.5565791,7.18546299 16.6181468,7.25729197 C16.6489307,7.29320646 16.6771492,7.33168627 16.707933,7.36760075 C16.723325,7.385558 16.7361516,7.40608056 16.7515435,7.42403781 C16.5976243,7.23163876 16.6822798,7.33425159 16.7181943,7.38042736 C16.8387644,7.54204256 16.9542038,7.70622307 17.0619473,7.87809955 C17.3133487,8.27059361 17.531401,8.68361022 17.7135387,9.11201876 C17.6878855,9.05045107 17.6622323,8.98888337 17.6365791,8.92731568 C17.9213297,9.601995 18.1137287,10.3125888 18.2112109,11.0360092 C18.2009496,10.9667456 18.1932537,10.9000472 18.1829924,10.8307836 C18.2779093,11.554204 18.2779093,12.2853203 18.1829924,13.0061754 C18.1932537,12.9369118 18.2009496,12.8702134 18.2112109,12.8009498 C18.1983843,12.898432 18.1829924,12.9933488 18.1676005,13.090831 C18.131686,13.3011873 18.1342513,13.4935863 18.2445601,13.6834201 C18.3369116,13.8424699 18.5216147,13.9963892 18.7037525,14.0374343 C19.075724,14.1220899 19.5810921,13.9245602 19.6503558,13.498717 C19.8145363,12.5110686 19.8222323,11.5413774 19.6837049,10.5511636 C19.5708308,9.76104487 19.3348213,9.01197126 19.0192869,8.28085489 C18.4061753,6.85453664 17.3928736,5.64370531 16.1615198,4.7073633 C15.4637526,4.17634193 14.6890257,3.77615192 13.8706885,3.46831345 C13.6936813,3.40161511 13.434584,3.45292152 13.2780994,3.54527307 C13.1190495,3.63762461 12.9651303,3.82232769 12.9240852,4.00446545 C12.8240377,4.44313527 13.0574818,4.80228016 13.4602372,4.95363407 L13.4602372,4.95363407 Z"
              id="Path"
            />
            <path
              d="M12.9420424,3.6991923 C12.9420424,3.82489301 12.9343465,3.95059372 12.9189545,4.07372911 C12.9292158,4.00446545 12.9369118,3.93776712 12.9471731,3.86850346 C12.9112586,4.12503552 12.8471256,4.37387162 12.747078,4.61501175 C12.7727313,4.55344406 12.7983845,4.49187637 12.8240377,4.43030867 C12.7522087,4.59961983 12.6649878,4.76380035 12.562375,4.91771958 C12.5367218,4.95619939 12.5110686,4.99211388 12.48285,5.03059369 C12.4084557,5.13577184 12.618812,4.86384785 12.4982419,5.01007113 C12.4392396,5.07933478 12.3776719,5.14859844 12.3135389,5.21273145 C12.2494059,5.27686447 12.1801422,5.33843216 12.1108785,5.39743454 C11.9646553,5.5180046 12.2365792,5.31021364 12.1314011,5.38204261 C12.0929213,5.40769582 12.0570068,5.43591435 12.018527,5.46156755 C11.8646078,5.56418038 11.7004272,5.64883595 11.5311161,5.72066493 C11.5926838,5.69501173 11.6542515,5.66935852 11.7158192,5.64370531 C11.4849403,5.73862218 11.2463655,5.80275519 11.0000947,5.83866968 C11.0693584,5.8284084 11.1360567,5.82071243 11.2053204,5.81045115 C10.938527,5.84636564 10.6717337,5.84636564 10.4049403,5.81045115 C10.474204,5.82071243 10.5409023,5.8284084 10.610166,5.83866968 C10.3638952,5.80275519 10.1253204,5.73862218 9.89444154,5.64370531 C9.95600924,5.66935852 10.0175769,5.69501173 10.0791446,5.72066493 C9.90983347,5.64883595 9.74565295,5.56161505 9.59173371,5.46156755 C9.5532539,5.43591435 9.51733942,5.41026114 9.47885961,5.38204261 C9.37368146,5.30764832 9.64560545,5.5180046 9.49938217,5.39743454 C9.42755319,5.33843216 9.36085486,5.27686447 9.29672184,5.21273145 C9.23258883,5.14859844 9.17102113,5.07933478 9.11201876,5.01007113 C8.99144869,4.86384785 9.20180498,5.13577184 9.12741068,5.03059369 C9.10175748,4.99211388 9.07353895,4.95619939 9.04788575,4.91771958 C8.94527292,4.76380035 8.85805202,4.59961983 8.78622305,4.43030867 C8.81187625,4.49187637 8.83752946,4.55344406 8.86318266,4.61501175 C8.76570048,4.37387162 8.69900214,4.12760084 8.66308766,3.86850346 C8.67334894,3.93776712 8.6810449,4.00446545 8.69130618,4.07372911 C8.66052234,3.81719705 8.66052234,3.56066499 8.6938715,3.30669825 C8.68361022,3.37596191 8.67591426,3.44266024 8.66565298,3.5119239 C8.70156747,3.26052248 8.7682658,3.0142517 8.86574798,2.77824221 C8.84009478,2.8398099 8.81444157,2.9013776 8.78878837,2.96294529 C8.86061734,2.79619945 8.94527292,2.63714957 9.04532043,2.48579566 C9.07097363,2.44731585 9.09662684,2.41140136 9.12228004,2.37548687 C9.18128242,2.29083129 9.06327767,2.44988117 9.06327767,2.44988117 C9.06584299,2.43705457 9.09662684,2.40883604 9.1043228,2.39857476 C9.16589049,2.32418046 9.23002351,2.2549168 9.29672184,2.18821847 C9.36085486,2.12408545 9.42755319,2.06508308 9.49425153,2.00608071 C9.51220877,1.99068878 9.53016602,1.97786218 9.54555794,1.96247026 C9.61225628,1.9060332 9.39676935,2.07021372 9.47116364,2.02147263 C9.50964345,1.99581942 9.54299262,1.97016622 9.58147243,1.94451301 C9.73795699,1.83933487 9.9021375,1.75211397 10.074014,1.68028499 C10.0124463,1.7059382 9.9508786,1.7315914 9.8893109,1.75724461 C10.1253204,1.65976243 10.3690259,1.59306409 10.6229926,1.5571496 C10.5537289,1.56741088 10.4870306,1.57510685 10.4177669,1.58536813 C10.6794296,1.55201896 10.9410923,1.55201896 11.202755,1.58536813 C11.1334914,1.57510685 11.0667931,1.56741088 10.9975294,1.5571496 C11.2489308,1.59306409 11.4952016,1.65976243 11.7312111,1.75724461 C11.6696434,1.7315914 11.6080757,1.7059382 11.546508,1.68028499 C11.7132538,1.75211397 11.8723037,1.83676955 12.0236576,1.93681705 C12.0621374,1.96247026 12.0980519,1.98812346 12.1339664,2.01377667 C12.218622,2.07277904 12.0595721,1.9547743 12.0595721,1.9547743 C12.0723987,1.95733962 12.1006173,1.98812346 12.1108785,1.99581942 C12.1852728,2.05738712 12.2545365,2.12152013 12.3212348,2.18821847 C12.3853678,2.25235148 12.4443702,2.31904982 12.5033726,2.38574816 C12.5187645,2.4037054 12.5315911,2.42166264 12.546983,2.43705457 C12.6034201,2.5037529 12.4392396,2.28826597 12.4879807,2.36266027 C12.5136339,2.40114008 12.5392871,2.43448925 12.5649403,2.47296906 C12.6701184,2.62945361 12.7573393,2.79363413 12.8291683,2.96551061 C12.8035151,2.90394292 12.7778619,2.84237522 12.7522087,2.78080753 C12.8496909,3.01681702 12.9163892,3.26052248 12.9523037,3.51448922 C12.9420424,3.44522556 12.9343465,3.37852723 12.9240852,3.30926357 C12.9317811,3.4375296 12.9394771,3.56579563 12.9420424,3.6991923 C12.9446077,4.10194763 13.2934913,4.48674572 13.7116386,4.46878848 C14.1272205,4.45083124 14.4838001,4.13016616 14.4812485,3.6991923 C14.4761041,2.98090253 14.2683132,2.24465552 13.8578619,1.65206646 C13.4140614,1.01073632 12.8214723,0.548978608 12.0980519,0.25909738 C10.7409973,-0.284750586 9.08380023,0.120570068 8.10384777,1.1954394 C7.62669814,1.7187648 7.27781453,2.38061751 7.17520171,3.08608068 C7.05463164,3.92494051 7.17520171,4.76123503 7.59078365,5.505178 C7.93453661,6.12342027 8.48608054,6.65957227 9.11971472,6.9751067 C9.85852705,7.33938223 10.6460805,7.44456037 11.4567218,7.31885966 C12.8933013,7.09311145 14.1297858,5.87714949 14.3991445,4.45339656 C14.4453203,4.20712578 14.4761041,3.95315904 14.4786695,3.70175762 C14.4812485,3.29900229 14.1220899,2.9142042 13.7090733,2.93216144 C13.290926,2.94755337 12.9446077,3.26565312 12.9420424,3.6991923 Z"
              id="Path"
            />
            <path
              d="M19.7786218,17.1004271 C19.7350114,17.1722561 19.6914009,17.2440851 19.6426598,17.3133487 C19.6221372,17.3415672 19.6016147,17.3697858 19.5810921,17.4005696 C19.7221848,17.2004746 19.6529211,17.3107834 19.6144413,17.3543938 C19.5143938,17.4749639 19.404085,17.5852727 19.2886456,17.6878855 C19.2706883,17.7058428 19.2219472,17.7622798 19.196294,17.7648451 C19.2296432,17.7622798 19.3656052,17.6391444 19.2424698,17.7263653 C19.1834674,17.7699758 19.1218997,17.8110209 19.0577667,17.8495007 C18.9269354,17.9290257 18.7935387,17.9982893 18.6524461,18.0572917 C18.7140138,18.0316385 18.7755815,18.0059853 18.8371491,17.9803321 C18.5985743,18.0778142 18.3497382,18.1445126 18.0932062,18.1804271 C18.1624698,18.1701658 18.2291682,18.1624698 18.2984318,18.1522085 C18.0393344,18.1855577 17.7802371,18.1829924 17.5211397,18.1496432 C17.5904033,18.1599045 17.6571017,18.1676005 17.7263653,18.1778618 C17.4723986,18.1419473 17.2286931,18.0726836 16.9926836,17.9752014 C17.0542513,18.0008546 17.115819,18.0265078 17.1773867,18.052161 C17.0106409,17.9803321 16.8490257,17.8931112 16.6951064,17.7930637 C16.6694532,17.7751064 16.6438,17.7571492 16.6181468,17.7391919 C16.5514485,17.6904508 16.5668404,17.7032774 16.6617573,17.7751064 C16.6386694,17.7443226 16.5899283,17.7186694 16.5617098,17.6930162 C16.4950114,17.6365791 16.4334437,17.5750114 16.3718761,17.5134437 C16.3128737,17.451876 16.2564366,17.3851777 16.1999996,17.3184794 C16.107648,17.2081706 16.3103084,17.4749639 16.2307834,17.3569592 C16.2025649,17.315914 16.1743464,17.2774342 16.1486932,17.2363891 C16.0563416,17.0927311 15.9768167,16.9439425 15.9101183,16.787458 C15.9357715,16.8490257 15.9614248,16.9105934 15.987078,16.9721611 C15.8844651,16.7258903 15.8152015,16.4693582 15.779287,16.2051302 C15.7895483,16.2743939 15.7972442,16.3410922 15.8075055,16.4103559 C15.7767217,16.1563891 15.7767217,15.8998571 15.8100708,15.6458903 C15.7998096,15.715154 15.7921136,15.7818523 15.7818523,15.851116 C15.8177668,15.5920186 15.8895958,15.3406172 15.9896433,15.0969117 C15.9639901,15.1584794 15.9383369,15.2200471 15.9126837,15.2816148 C15.9896433,15.107173 16.0794295,14.9404272 16.187173,14.7813773 C16.2128262,14.7428975 16.2410447,14.6941564 16.2743939,14.6608072 C16.2487407,14.6941564 16.2230875,14.7249402 16.1999996,14.7582894 C16.2153915,14.7403322 16.2307834,14.7198096 16.2461753,14.7018523 C16.3051777,14.6325887 16.3667454,14.5658904 16.4308784,14.5017573 C16.4950114,14.4401896 16.5617098,14.3811873 16.6309734,14.3221849 C16.7387169,14.2298334 16.4719236,14.435059 16.587363,14.3555341 C16.6258428,14.3273155 16.6643226,14.3016623 16.7028024,14.2734438 C16.8490257,14.1759616 17.0055102,14.0938714 17.1645601,14.0246077 C17.1029924,14.0502609 17.0414247,14.0759141 16.979857,14.1015673 C17.2286931,13.9963892 17.4852252,13.9271255 17.7520185,13.8886457 C17.6827549,13.898907 17.6160565,13.906603 17.5467929,13.9168642 C17.8033249,13.8835151 18.0624223,13.8860804 18.3189544,13.9194296 C18.2496907,13.9091683 18.1829924,13.9014723 18.1137287,13.891211 C18.3625648,13.9271255 18.6011396,13.9938239 18.8345838,14.0887407 C18.7730161,14.0630875 18.7114484,14.0374343 18.6498807,14.0117811 C18.8422798,14.0938714 19.0269829,14.1939189 19.1988593,14.3144889 C19.2501658,14.3504034 19.3784318,14.4684082 19.1860327,14.299097 C19.2219472,14.3298809 19.2578617,14.3580994 19.2937762,14.3888832 C19.3579092,14.4453203 19.4220422,14.506888 19.4810446,14.5684557 C19.540047,14.6300234 19.5939187,14.699287 19.6503558,14.76342 C19.4784793,14.571021 19.5939187,14.6915911 19.6323985,14.7428975 C19.6554864,14.7762466 19.6785743,14.8070305 19.6990969,14.8403797 C19.7940137,14.9866029 19.8735387,15.1430875 19.9428023,15.3021374 C19.9171491,15.2405697 19.8914959,15.179002 19.8658427,15.1174343 C19.9633249,15.3560091 20.0300232,15.6048452 20.0659377,15.8613773 C20.0556764,15.7921136 20.0479805,15.7254153 20.0377192,15.6561516 C20.0710684,15.915249 20.068503,16.1743464 20.0351539,16.4334437 C20.0454151,16.3641801 20.0531111,16.2974818 20.0633724,16.2282181 C20.0274579,16.4821848 19.9581942,16.7258903 19.8607121,16.9618998 C19.8863653,16.9003321 19.9120185,16.8387644 19.9376717,16.7771967 C19.8889306,16.8900708 19.8376242,16.995249 19.7786218,17.1004271 C19.5785268,17.4493107 19.6837049,17.9572442 20.0556764,18.1522085 C20.419952,18.3446076 20.8971016,18.2496907 21.1074579,17.8751539 C21.812921,16.6361041 21.7641799,15.0148215 20.8945363,13.8655578 C20.3917334,13.2037051 19.7170541,12.7085982 18.9089781,12.48285 C18.2189069,12.290451 17.4441801,12.3032776 16.7669354,12.5367218 C16.0076005,12.7983845 15.3842276,13.2729688 14.9122086,13.9194296 C14.4658428,14.5299759 14.2323987,15.3200946 14.2452253,16.0742989 C14.2734438,17.6878855 15.3739663,19.132161 16.9311159,19.5733962 C18.2907359,19.9556289 19.8632774,19.4964365 20.748313,18.3830874 C20.8791443,18.2189069 21.0022797,18.0547264 21.1100232,17.8725886 C21.3126835,17.523705 21.2023747,17.0132062 20.8329686,16.8208072 C20.4609971,16.6284081 19.9941087,16.7284556 19.7786218,17.1004271 Z"
              id="Path"
            />
            <path
              d="M5.01263645,17.7135387 C4.99980984,17.7238 4.87923978,17.8212822 4.9818526,17.7391919 C5.0819001,17.6622323 4.969026,17.7468879 4.94593811,17.7622798 C4.8818051,17.8084556 4.81510676,17.8495007 4.7458431,17.8879805 C4.64323028,17.9469829 4.53548682,18.0008546 4.42517803,18.0470304 C4.48674572,18.0213772 4.54831342,17.995724 4.60988111,17.9700708 C4.37387162,18.067553 4.13016616,18.1368166 3.87619942,18.1727311 C3.94546308,18.1624698 4.01216141,18.1547739 4.08142507,18.1445126 C3.82232769,18.1778618 3.56323031,18.1804271 3.30413293,18.1470779 C3.37339659,18.1573392 3.44009492,18.1650351 3.50935858,18.1752964 C3.25282652,18.1393819 3.00399042,18.0726836 2.7654156,17.9752014 C2.8269833,18.0008546 2.88855099,18.0265078 2.95011869,18.052161 C2.78337285,17.9828974 2.62432297,17.8982418 2.47296906,17.8007596 C2.43448925,17.7751064 2.39857476,17.7494532 2.36009495,17.7238 C2.20617571,17.6134912 2.4780997,17.8238475 2.38061751,17.7391919 C2.31391918,17.6827549 2.24978616,17.6263178 2.18821847,17.5673154 C2.12665078,17.5057478 2.0676484,17.4441801 2.01121135,17.3774817 C1.97016622,17.3287406 1.87781468,17.1850827 2.02147263,17.395439 C1.99581942,17.3569592 1.96503558,17.3184794 1.93938237,17.2799995 C1.83163891,17.1209497 1.74185269,16.9542038 1.66489307,16.7771967 C1.69054627,16.8387644 1.71619948,16.9003321 1.74185269,16.9618998 C1.6443705,16.7258903 1.57510685,16.4821848 1.53919236,16.2282181 C1.54945364,16.2974818 1.5571496,16.3641801 1.56741088,16.4334437 C1.53406172,16.1743464 1.5314964,15.915249 1.56484556,15.6561516 C1.55458428,15.7254153 1.54688832,15.7921136 1.53662704,15.8613773 C1.57254153,15.6048452 1.63923986,15.3560091 1.73672204,15.1174343 C1.71106884,15.179002 1.68541563,15.2405697 1.65976243,15.3021374 C1.72646076,15.1456528 1.80342038,14.9968642 1.8932066,14.8532063 C1.91629449,14.8147264 1.94194769,14.7762466 1.97016622,14.7403322 C2.00864603,14.6864604 2.12408545,14.5684557 1.95220897,14.7608547 C2.00864603,14.6967217 2.06251776,14.6300234 2.12152013,14.5658904 C2.18052251,14.5043227 2.24465552,14.442755 2.30878854,14.3863179 C2.34470303,14.3555341 2.38061751,14.3273155 2.416532,14.2965317 C2.2292636,14.4607122 2.33700706,14.3580994 2.38831348,14.3221849 C2.5653206,14.1964842 2.75515432,14.0938714 2.95268401,14.0092158 C2.89111631,14.034869 2.82954862,14.0605222 2.76798092,14.0861754 C3.0014251,13.9912585 3.23999991,13.9245602 3.48883601,13.8886457 C3.41957236,13.898907 3.35287402,13.906603 3.28361036,13.9168642 C3.54014242,13.8835151 3.7992398,13.8835151 4.05577186,13.9142989 C3.98650821,13.9040376 3.91980987,13.8963417 3.85054622,13.8860804 C4.11733956,13.9219949 4.37643694,13.9938239 4.62270772,14.099002 C4.56114002,14.0733488 4.49957233,14.0476956 4.43800463,14.0220424 C4.59961983,14.091306 4.75353907,14.1759616 4.89976234,14.2708785 C4.93824215,14.2965317 4.97672196,14.3247502 5.01520177,14.3529687 C5.12037991,14.427363 4.86641317,14.2298334 4.97159132,14.3196196 C5.04085497,14.3786219 5.10755331,14.435059 5.17168632,14.499192 C5.23581934,14.563325 5.29738703,14.6300234 5.35638941,14.699287 C5.39486922,14.7428975 5.46156755,14.8532063 5.32817088,14.6582419 C5.35638941,14.699287 5.38717325,14.7377668 5.41539178,14.778812 C5.52313525,14.9352965 5.61292147,15.1046077 5.68988108,15.2790495 C5.66422788,15.2174818 5.63857467,15.1559141 5.61292147,15.0943464 C5.71553429,15.3354865 5.78479795,15.5868879 5.82071243,15.8485506 C5.81045115,15.779287 5.80275519,15.7125887 5.79249391,15.643325 C5.82584308,15.8972917 5.82584308,16.1512585 5.79505923,16.4077905 C5.80532051,16.3385269 5.81301647,16.2718285 5.82327776,16.2025649 C5.78736327,16.4667929 5.71809961,16.723325 5.61548679,16.9695957 C5.64113999,16.9080281 5.6667932,16.8464604 5.69244641,16.7848927 C5.6052255,16.987553 5.49748204,17.1748214 5.37178133,17.3543938 C5.31277896,17.4390494 5.41539178,17.2953915 5.42565306,17.2876955 C5.40769582,17.3030874 5.39486922,17.3261753 5.37947729,17.3441326 C5.3435628,17.387743 5.30764832,17.4287881 5.26916851,17.4698333 C5.18964357,17.5544888 5.10242267,17.6365791 5.01263645,17.7135387 C4.70479798,17.9752014 4.72275522,18.5370066 5.01263645,18.8012347 C5.34099748,19.1013772 5.77197134,19.0808546 6.10033238,18.8012347 C7.24446537,17.8238475 7.68313519,16.0973867 7.10337273,14.7018523 C6.79040362,13.9502134 6.28760078,13.3165792 5.58726826,12.8881707 C4.9818526,12.5161992 4.23790963,12.3212348 3.52731582,12.3571493 C1.9547743,12.4366743 0.572066493,13.5089783 0.138527312,15.0276481 C-0.269358663,16.4539663 0.251401419,18.0290732 1.42118761,18.9346313 C2.58584316,19.8350589 4.20199514,19.9607596 5.48978608,19.2373392 C5.70783833,19.1142038 5.90793334,18.9628499 6.10033238,18.8012347 C6.24399033,18.6832299 6.32608059,18.4369591 6.32608059,18.2573867 C6.32608059,18.067553 6.24142501,17.8443701 6.10033238,17.7135387 C5.95410911,17.5801421 5.76171006,17.4800945 5.55648441,17.4877905 C5.34099748,17.4980518 5.17681696,17.5750114 5.01263645,17.7135387 Z"
              id="Path"
            />
          </g>
        </g>
      </svg>