<svg width="20px" height="20px" viewBox="0 0 31 31" version="1.1">
        <title> Home - daily </title>
        <g id="Page-1" stroke="none" strokeWidth="1" fill="none" fillRule="evenodd">
          <g id="Artboard" transform="translate(-31.000000, -102.000000)" stroke="#000" strokeWidth="1.5">
            <g id="Home-daily" transform="translate(31.000000, 102.000000)">
              <g id="Group-4" transform="translate(3.000000, 3.000000)">
                <path
                  d="M23.9931606,9.06068359 L20.5145436,6.34121143 L20.5145436,1.79819883 L18.9976712,1.79819883 L18.9976712,5.15490704 L12.6087391,0.15996895 C12.3345676,-0.0533229835 11.9516729,-0.0533229835 11.6769761,0.15996895 L0.292554682,9.06068359 C0.107672729,9.20481403 -5.32907052e-14,9.42708112 -5.32907052e-14,9.66254697 L-5.32907052e-14,23.4394109 C-5.32907052e-14,23.8601873 0.339825636,24.2017711 0.758436196,24.2017711 L17.3636719,24.2017711 L23.3434476,24.2857153 L23.3471242,24.2017711 L23.5272791,24.2017711 C23.9464148,24.2017711 24.2857153,23.8601873 24.2857153,23.4394109 L24.2857153,9.66254697 C24.2857153,9.42708112 24.1785678,9.20481403 23.9931606,9.06068359 L23.9931606,9.06068359 Z"
                  id="Page-1"
                />
                <polygon
                  id="Path"
                  points="6.92036077 24.5714299 16.0824172 24.5714299 16.0824172 13.1051497 6.92036077 13.1051497"
                />
              </g>
            </g>
          </g>
        </g>
      </svg>