<svg width="20px" height="20px" viewBox="0 0 31 31" version="1.1">
          <title> Shop </title>
          <g id="Page-1" stroke="none" strokeWidth="1" fill="none" fillRule="evenodd">
            <g id="Artboard" transform="translate(-94.000000, -102.000000)" fill="#000" fillRule="nonzero">
              <g id="Shop" transform="translate(94.000000, 102.000000)">
                <path
                  d="M9.59130998,29.3333333 L21.40899,29.3333333 C25.0427301,29.3333333 28,26.3083371 28,22.590151 L26.4136698,7.42313052 L23.0322186,7.42313052 L22.9344229,7.42313052 L22.9344229,5.07628826 C22.9344229,2.8285608 21.1471015,1 18.9496982,1 L12.1840959,1 C9.98669259,1 8.19937123,2.8285608 8.19937123,5.07628826 L8.19937123,7.42313052 L4.5863302,7.42313052 L3.00209991,22.5303139 L3,22.5907647 C3,26.3083371 5.95696989,29.3333333 9.59130998,29.3333333 Z M21.9381667,12.0183139 C22.2192544,12.0183139 22.4478443,12.2524458 22.4478443,12.5402777 C22.4478443,12.8278027 22.2189544,13.0619346 21.9381667,13.0619346 C21.6564791,13.0619346 21.4272892,12.8278027 21.4272892,12.5402777 C21.4275892,12.2524458 21.6567791,12.0183139 21.9381667,12.0183139 Z M9.92429533,5.07659511 C9.92429533,3.80191118 10.9379507,2.76473455 12.1840959,2.76473455 L18.9496982,2.76473455 C20.1955434,2.76473455 21.2094988,3.80191118 21.2094988,5.07659511 L21.2094988,7.42343738 L9.92429533,7.42343738 L9.92429533,5.07659511 L9.92429533,5.07659511 Z M9.06153329,12.0183139 C9.34262092,12.0183139 9.57181084,12.2524458 9.57181084,12.5402777 C9.57181084,12.8278027 9.34262092,13.0619346 9.06153329,13.0619346 C8.77984569,13.0619346 8.55155573,12.8278027 8.55155573,12.5402777 C8.55125574,12.2524458 8.77984569,12.0183139 9.06153329,12.0183139 Z M6.19815928,9.18817193 L8.19937123,9.18817193 L8.19937123,10.4312496 C7.39360668,10.7773843 6.82663163,11.5917827 6.82663163,12.5402777 C6.82663163,13.8008462 7.82858754,14.8266691 9.06153329,14.8266691 C10.2938791,14.8266691 11.2970349,13.8008462 11.2970349,12.5402777 C11.2970349,11.5920896 10.7297599,10.7776911 9.92459532,10.4315565 L9.92459532,9.18755821 L21.2097988,9.18755821 L21.2097988,10.3889033 C20.3359372,10.6997495 19.7032651,11.5414582 19.7032651,12.5402777 C19.7032651,13.8008462 20.7061209,14.8266691 21.9387667,14.8266691 C23.1711125,14.8266691 24.1736684,13.8008462 24.1736684,12.5402777 C24.1736684,11.647017 23.6660907,10.8801814 22.9347229,10.5039747 L22.9347229,9.18786507 L23.0325186,9.18786507 L24.8024407,9.18786507 L26.2750759,22.6193024 C26.2594766,25.3503296 24.0827724,27.5682919 21.40899,27.5682919 L9.59130998,27.5682919 C6.91692766,27.5682919 4.7408234,25.3503296 4.7249241,22.6193024 L6.19815928,9.18817193 Z"
                  id="Shape"
                />
              </g>
            </g>
          </g>
        </svg>