<?xml version="1.0" encoding="UTF-8"?>
<svg width="300px" height="300px" viewBox="0 0 300 300" version="1.1" xmlns="http://www.w3.org/2000/svg" xmlns:xlink="http://www.w3.org/1999/xlink">
    <!-- Generator: Sketch 55 (78076) - https://sketchapp.com -->
    <title>Artboard</title>
    <desc>Created with Sketch.</desc>
    <defs>
        <circle id="path-1" cx="140" cy="140" r="140"></circle>
        <polygon id="path-3" points="0.108147561 0.0538574796 45.806382 0.0538574796 45.806382 25.7484061 0.108147561 25.7484061"></polygon>
    </defs>
    <g id="Artboard" stroke="none" stroke-width="1" fill="none" fill-rule="evenodd">
        <g id="Group-11" transform="translate(10.000000, 10.000000)">
            <mask id="mask-2" fill="white">
                <use xlink:href="#path-1"></use>
            </mask>
            <use id="Mask" fill="#DBF3F7" xlink:href="#path-1"></use>
            <g id="Group-186" mask="url(#mask-2)">
                <g transform="translate(50.400000, 16.800000)">
                    <path d="M165.382968,113.907982 L172.42766,144.017075 L182.834268,201.952878 L175.161012,205.472257 C174.329965,187.737265 162.143234,165.399531 158.195327,145.475716 L150.179061,117.754304 L165.382968,113.907982 Z" id="Fill-1" fill="#F6C795"></path>
                    <path d="M141.575178,92.9324275 C142.894608,91.6167169 147.94804,86.5734473 153.030893,85.1465693 C162.249944,82.5589936 167.998396,119.735845 169.844629,126.471137 L154.308442,135.450836 L141.575178,92.9324275 Z" id="Fill-3" fill="#40BCD9"></path>
                    <path d="M48.6778388,203.522755 C48.6778388,203.522755 44.5849052,215.206721 44.5849052,216.821754 C44.5849052,218.436443 47.6360012,225.951288 49.1925274,227.503833 C50.7493997,229.056724 53.0528646,231.230702 53.9874034,229.988182 C54.9212499,228.746353 51.8390027,225.857728 51.7767001,225.143771 C51.7140514,224.429469 50.8740049,221.35545 50.7808971,220.765089 C50.6870971,220.175418 52.0878669,215.051708 52.0878669,215.051708 C53.2695392,213.56752 54.262227,213.047588 55.3570218,214.958148 C55.3570218,214.958148 56.6048041,221.983442 58.03361,222.070787 C59.4627621,222.157788 58.7189385,214.244536 58.2205178,211.511959 C57.7224432,208.779383 57.0211931,207.497506 57.0211931,207.000705 C62.4667849,190.506161 68.9597525,175.807558 72.6871776,146.236694 L81.8245436,116.775962 L66.6202905,112.929641 C64.2064115,123.247146 62.5861982,126.240379 59.575599,143.039424 C53.950368,163.572933 52.3104255,183.361414 48.6778388,203.522755" id="Fill-5" fill="#F6C795"></path>
                    <path d="M57.2424018,221.357935 C57.4947273,221.783962 57.7612439,222.053594 58.0336446,222.070511 C59.4627967,222.157857 58.7189731,214.244605 58.2205524,211.512028 C57.7224779,208.779107 57.0212277,207.497575 57.0212277,207.000774 C62.4668196,190.50623 68.9597871,175.807627 72.6872122,146.236763 L76.8389871,132.849037 L69.8538292,130.924667 C69.8538292,130.924667 71.1871044,138.898336 70.2979081,146.050333 C69.4094041,153.202331 56.0925731,204.212269 56.0925731,204.212269 L55.3456343,210.112424 C55.3456343,210.112424 57.4507694,216.523191 57.2424018,221.357935" id="Fill-7" fill="#E5AD7A"></path>
                    <path d="M83.9944734,199.591262 C82.8453368,204.750187 83.6383103,262.749169 84.158883,271.327699 C84.575618,278.206611 85.593573,326.529889 85.3163265,346.844171 C85.3163265,346.844171 82.8294151,367.285156 82.8747575,367.298275 L102.851042,373.038585 C102.851042,373.038585 107.056467,283.976266 107.918665,279.390785 C108.780864,274.805304 112.59309,224.211726 112.881066,226.505157 C113.169042,228.798588 120.530439,275.130175 120.817377,277.995324 C121.102584,280.861854 131.480464,373.935174 131.480464,373.935174 C131.480464,373.935174 152.096042,369.38905 151.998435,367.954232 C151.975937,367.623837 148.174441,347.224626 148.174441,347.224626 C146.673295,325.874278 145.631803,280.554245 145.653955,278.062646 C145.681645,274.825673 145.214722,195.721809 145.214722,195.721809 L112.525941,201.5215 L83.9944734,199.591262 Z" id="Fill-9" fill="#221916"></path>
                    <path d="M90.4283919,91.9543618 C89.1086155,90.6379608 84.1624827,85.1393192 78.9726775,84.1688489 C73.977741,83.2342835 71.1173601,92.7532478 70.2717756,95.8441838 L60.3168613,132.253566 L78.0689439,136.708546 L90.4283919,91.9543618 Z" id="Fill-11" fill="#40BCD9"></path>
                    <path d="M96.5836102,80.522007 L78.2815342,84.3113641 C78.8855231,116.004419 84.0189098,146.993185 81.8300124,210.133484 C93.6297755,215.712221 134.548381,213.446064 145.292808,209.064275 C147.936514,147.235543 151.567024,107.320937 154.011708,85.1444288 C147.81987,83.4316919 141.112305,81.1810707 135.840814,79.9527059 C122.893299,76.9342703 112.768091,77.1717956 96.5836102,80.522007" id="Fill-13" fill="#40BCD9"></path>
                    <path d="M105.736829,64.8090183 C106.439463,77.5894673 102.713769,79.5890988 95.8366022,81.5165752 C97.1041137,85.4896 108.766119,87.9960442 116.197432,87.3898024 C123.628746,87.9960442 135.291444,85.4896 136.558263,81.5165752 C129.681442,79.5890988 125.457327,78.2108997 126.159962,65.4301055 L116.197432,65.7104406 L105.736829,64.8090183 Z" id="Fill-15" fill="#F0BD82"></path>
                    <path d="M182.111073,197.928274 C182.430893,199.71075 183.325627,204.500958 183.325627,204.500958 C183.325627,204.500958 187.418215,216.184579 187.418215,217.799613 C187.418215,219.414302 184.367465,226.929146 182.810247,228.482037 C181.25372,230.034582 178.949909,232.208905 178.016063,230.966731 C177.082216,229.724211 180.164464,226.835586 180.22642,226.121975 C180.288723,225.408018 181.129808,222.333308 181.222915,221.743638 C181.316369,221.153622 179.914907,216.029566 179.914907,216.029566 C178.733927,214.545724 177.741239,214.025101 176.645752,215.936697 C176.645752,215.936697 175.398316,222.9613 173.969164,223.048646 C172.540704,223.135992 173.284182,215.22274 173.782256,212.490163 C174.280331,209.757932 174.500813,210.624485 174.981927,207.979254 C175.462695,205.333678 174.342287,198.5466 174.342287,198.5466 L182.111073,197.928274 Z" id="Fill-17" fill="#F6C795"></path>
                    <path d="M76.5028993,133.93461 C76.2311908,134.810485 69.2231886,134.238767 67.7680771,134.123111 L70.5713472,134.826711 L75.817917,136.143802 L78.0687708,136.708615 L80.6314838,127.429938 C80.692748,128.421814 80.7543583,129.423356 80.8149303,130.434564 C81.2766616,138.153446 81.7023959,146.46476 81.9907185,155.64677 C82.472179,170.959211 82.5739399,188.692476 81.8301162,210.133277 C82.3285369,210.368731 82.8781841,210.59003 83.4752506,210.797864 C90.0595952,213.090605 102.404852,213.73724 114.540357,213.314321 L114.54451,213.314321 C115.444783,213.266677 91.5084764,206.593874 90.2645015,204.856625 C90.1139369,204.646028 89.9519502,202.896696 89.7840793,199.982868 C88.0717967,170.27598 84.6475775,143.473253 84.6475775,112.884621 C84.6475775,112.683001 80.6020631,120.711218 76.5028993,133.93461" id="Fill-23" fill="#23B7D4"></path>
                    <path d="M145.292635,209.064137 C146.829086,173.132567 148.698509,144.601912 150.475171,122.652918 L154.308165,135.450629 L155.155134,134.961769 L159.118616,132.6711 C157.312188,129.234233 151.585196,118.051556 151.443977,117.433921 C151.412479,117.294099 151.257069,116.758976 151.02828,115.990817 C150.104125,112.887452 147.983414,105.982302 147.983414,105.982302 C147.983414,105.982302 147.802737,108.490127 147.496762,112.705165 C146.220943,130.250275 142.757958,177.384891 141.003794,196.468737 C140.569753,201.191969 140.240242,204.196595 140.07514,204.610192 C139.318856,206.495204 130.494387,210.670195 126.500445,212.546575 C134.670737,211.769094 141.683931,210.536241 145.292635,209.064137" id="Fill-25" fill="#23B7D4"></path>
                    <path d="M116.197502,87.3898714 C108.766188,87.9961133 97.1041829,85.489669 95.8366714,81.516299 C97.7095563,80.9911885 99.3494987,80.4608995 100.729501,79.7082758 C99.3903415,79.9554678 98.0106855,80.2268266 96.5836102,80.522007 L93.0060574,81.2632379 C93.0060574,86.0997086 102.773718,90.0323403 115.909871,90.0323403 C129.046717,90.0323403 139.695959,86.1114467 139.695959,81.2753213 C139.695959,81.1641539 139.690421,81.0529865 139.678999,80.9425097 C138.339494,80.5713764 137.052253,80.2347671 135.840814,79.9527059 C133.76233,79.4676433 131.75688,79.0678551 129.787772,78.7502341 C131.536052,80.0783733 133.840209,80.7543537 136.558332,81.516299 C135.291513,85.489669 123.628815,87.9961133 116.197502,87.3898714" id="Fill-27" fill="#FEFEFE"></path>
                    <path d="M174.342356,198.546462 C174.342356,198.546462 175.462418,205.333885 174.981996,207.979116 C174.500882,210.624692 174.2804,209.757794 173.782325,212.490025 C173.283905,215.222602 172.540427,223.135853 173.969233,223.048508 C174.026344,223.045055 174.082762,223.0309 174.139181,223.006043 C174.119106,221.659606 173.916968,218.516884 174.396006,216.511038 C175.018686,213.903093 176.169899,208.250475 177.539517,204.835013 C177.594205,204.698988 177.632971,204.52913 177.658931,204.326474 C177.80015,203.196503 177.504905,201.061537 176.941759,198.339663 C175.06299,189.251904 170.200619,173.620461 168.636132,167.011872 C166.519229,158.067732 159.11872,132.671169 159.11872,132.671169 L155.155238,134.961838 L158.195604,145.475785 C161.644398,162.883143 171.383676,182.13374 174.342356,198.546462" id="Fill-29" fill="#E5AD7A"></path>
                    <path d="M100.573848,63.0121809 C99.4897834,62.9210375 98.3949886,62.8191916 97.2856565,62.6714288 C93.6336867,62.1777352 90.6874668,57.8946846 90.5455554,54.3576982 C90.4874063,52.8697127 90.7096188,51.4014059 89.843959,50.1471481 C88.9018055,48.7820681 87.162179,48.2075883 86.1300328,46.7869247 C83.5223236,43.1919379 85.7302579,39.1070552 86.8842402,35.406425 C88.207824,31.1613508 84.3720616,29.1465287 84.4658616,25.1172297 C84.5136269,23.0337047 85.3515967,21.7331847 86.5561133,20.0946745 C87.8931959,18.2728416 88.0254159,17.6572783 88.2555893,15.4974552 C88.7585096,10.7997711 92.0228188,10.0036471 96.0468734,10.2056126 C98.4479458,10.3257562 100.871862,10.4566023 102.464039,8.69276983 C104.317195,6.6461856 105.112938,4.9034128 108.026276,4.08899104 C112.529368,2.8278284 116.15607,6.90235387 120.577131,5.08846158 C124.156414,3.62015478 126.12483,0.844768377 130.257568,3.14096131 C133.354699,4.86371017 133.660673,9.97740881 136.718346,10.5781269 C138.748718,10.982058 139.900277,10.7521279 141.651672,12.1424104 C143.472984,13.5855147 143.275693,14.6181283 143.515211,16.7858919 C143.736386,18.7851782 144.133738,21.4017541 145.605463,22.9042396 C146.661838,23.9817345 148.987455,24.3749631 149.653054,25.7362454 C150.303078,27.0764681 149.676937,30.5975735 149.208629,31.985094 C148.563797,33.9049751 147.877085,35.3018172 148.113834,37.4540449 C148.382428,39.9107745 149.952453,41.9349182 150.330768,44.3377903 C150.729504,46.8621871 149.538141,49.4528699 148.141524,51.5098114 C146.066156,54.5689852 142.16913,55.7345163 140.285515,59.0498585 C139.929698,59.6747434 139.77048,60.4612007 139.386627,61.0477638 C137.083508,64.5781907 132.731327,64.4987854 129.333413,63.0874433 C125.014113,61.2956463 124.251945,65.3384097 120.386762,66.1120931 C117.334282,66.7248946 114.009054,65.5445182 111.136905,64.6096075 C107.561429,63.4451122 104.111943,63.299766 100.573848,63.0121809" id="Fill-31" fill="#251F1E"></path>
                    <path d="M142.568939,44.4131908 C141.364422,48.0057609 135.392028,52.2598113 134.441567,48.9379096 C133.861807,46.9044445 134.200664,44.6693591 135.403796,41.076789 C136.609697,37.4828379 135.516287,34.8289761 138.80171,35.922352 C142.084363,37.0195255 143.773456,40.8178588 142.568939,44.4131908" id="Fill-33" fill="#F0BD82"></path>
                    <path d="M137.432991,38.9881545 C137.372073,38.9708925 137.313924,38.9708925 137.253006,38.961571 C137.234315,38.9881545 137.223931,39.0199166 137.193472,39.0461549 C135.958497,40.2330908 136.392538,42.9701556 136.23782,44.5147605 C136.168941,45.1724432 136.064065,45.8138995 135.934614,46.4477607 C137.573172,46.5889639 139.184386,45.4154923 139.693883,43.5826118 C140.262913,41.5494919 139.249111,39.4911695 137.432991,38.9881545" id="Fill-35" fill="#DDA766"></path>
                    <path d="M93.3332844,19.3711545 C95.0265302,14.8374594 98.8650615,10.2015733 103.843384,8.50644366 C107.094194,7.40132961 110.586254,6.99221991 114.047509,7.12686361 C117.511532,6.99221991 121.002208,7.40132961 124.254403,8.50644366 C129.231341,10.2015733 133.070218,14.8374594 134.767271,19.3711545 C137.472588,26.6011758 137.165574,31.4625039 136.944746,39.0964564 C136.731533,46.565384 135.378875,50.6595882 130.389822,59.7563236 C125.972569,67.8138859 117.80297,68.9007022 112.243503,69.0432865 C105.974479,69.0432865 102.273359,68.140138 99.9899693,65.1551907 C94.0033833,57.3389514 92.2004158,47.4143298 91.82037,36.822704 C91.5462387,29.1915135 90.6251988,26.6011758 93.3332844,19.3711545" id="Fill-37" fill="#F0BD82"></path>
                    <path d="M133.435484,34.1716387 C133.173467,35.9620546 133.392911,37.7787088 133.272805,39.5770653 C133.080706,42.3811067 132.520675,45.3336013 130.991838,47.7547712 C128.280984,52.0588815 123.784814,54.491099 118.631352,53.3107226 C116.291198,52.7773264 113.778673,51.6908553 111.367217,51.6231883 C109.074482,51.5548307 106.951348,52.1327629 104.717109,52.5342773 C102.288,52.9699705 100.052376,53.1467335 97.669648,52.3916931 C95.8826023,51.8265348 94.3973779,50.701742 93.1759012,49.2796974 C94.3579196,55.1128767 96.1089683,61.2719629 99.6657536,65.9206229 C101.950528,68.9034987 105.936162,70.2765192 112.20761,70.2765192 C117.764654,70.1339349 126.218768,70.1891734 130.637406,62.1288492 C135.624728,53.0321137 136.731291,46.5650733 136.945889,39.0964909 C137.02792,36.2102824 137.123451,33.7214454 137.064956,31.3489543 C135.746564,31.9006483 133.67258,32.5293308 133.435484,34.1716387" id="Fill-39" fill="#251F1E"></path>
                    <path d="M92.888617,19.0779764 C93.611327,17.9901244 94.3631115,16.9999753 95.0698997,15.8710397 C95.5174399,15.1567376 98.6280694,12.194231 98.5962259,11.6608348 C98.6439912,12.4607565 98.6837956,13.2592972 98.690372,14.063707 C98.6941794,14.1189454 98.7152931,14.16141 98.7246385,14.2114698 C98.7062938,14.2825893 98.6862185,14.354054 98.690372,14.4410546 C99.1389506,21.4704914 95.0249034,26.3276765 92.7176311,32.8475387 C92.2586687,34.1373563 91.8931602,38.6541345 91.8613167,40.0509766 C91.4802325,37.3035547 91.0832266,36.354144 90.9613905,35.2238274 C90.6858746,32.6372874 90.6460702,29.798722 90.6792982,27.1900867 C90.7111418,24.565225 91.3082082,21.4784319 92.7695499,19.2550847 C92.8093543,19.1967391 92.8488126,19.1359768 92.888617,19.0779764" id="Fill-41" fill="#251F1E"></path>
                    <path d="M97.681624,37.8974715 C97.2302764,37.8974715 96.790697,37.6823868 96.5103354,37.2874319 C96.0600262,36.6432136 96.2188978,35.7573271 96.8661524,35.3085148 C101.79844,31.87441 106.52513,32.7654751 106.723806,32.8065587 C107.495319,32.9595001 107.997201,33.7097072 107.843521,34.4778668 C107.686034,35.2436096 106.94048,35.745589 106.170351,35.5950642 C106.000749,35.5646831 102.380623,34.9335839 98.4957111,37.6385413 C98.2482314,37.8118519 97.9637162,37.8974715 97.681624,37.8974715" id="Fill-43" fill="#320A01"></path>
                    <path d="M124.184416,37.6823523 C123.902324,37.6823523 123.617809,37.5991494 123.370329,37.426184 C119.476071,34.7129409 115.8466,35.3533615 115.69292,35.3823617 C114.925214,35.5315055 114.175852,35.0243476 114.02771,34.256188 C113.879569,33.4904451 114.373144,32.7457619 115.145003,32.5924752 C115.34091,32.5531178 120.070369,31.6606718 125.000926,35.0958123 C125.647142,35.5449699 125.806014,36.4294754 125.355705,37.0736937 C125.076381,37.4696843 124.635764,37.6823523 124.184416,37.6823523" id="Fill-45" fill="#320A01"></path>
                    <path d="M117.662616,55.8851792 C117.662616,55.8851792 111.483584,57.369367 103.844595,55.6476539 C103.844595,55.6476539 104.198336,61.6392985 110.725224,61.7511563 C117.256265,61.8619785 117.662616,55.8851792 117.662616,55.8851792" id="Fill-47" fill="#6E1C20"></path>
                    <path d="M113.222969,61.4277353 C112.506835,61.6417842 111.689979,61.7671064 110.725327,61.7512254 C108.88394,61.7180823 107.541665,61.2098887 106.552785,60.506289 C108.608424,59.2320073 111.208172,59.418437 113.222969,61.4277353" id="Fill-49" fill="#BB4046"></path>
                    <path d="M104.571355,58.1599327 C103.920293,56.8331744 103.844492,55.6476194 103.844492,55.6476194 C111.502171,56.3104807 117.662512,55.8851447 117.662512,55.8851447 C117.662512,55.8851447 117.578058,57.0706997 116.914535,58.3726007 C116.914535,58.3726007 114.800747,58.8662943 110.625782,58.7951748 C106.451163,58.72371 104.571355,58.1599327 104.571355,58.1599327" id="Fill-51" fill="#FEFEFE"></path>
                    <path d="M115.906133,42.3759626 C115.880866,43.7993881 116.608768,44.9638835 117.532923,44.9783836 C118.455347,44.9953004 119.222015,43.8546266 119.246936,42.4339629 C119.272203,41.0132993 118.544302,39.846042 117.620147,39.8301609 C116.697722,39.8146251 115.92967,40.9552989 115.906133,42.3759626" id="Fill-53" fill="#440005"></path>
                    <path d="M105.329854,42.1964376 C105.303203,43.6171013 104.536881,44.7563941 103.613072,44.741894 C102.691686,44.726013 101.965169,43.5587557 101.989052,42.1384373 C102.012934,40.7163927 102.781679,39.5784808 103.703065,39.5926356 C104.624105,39.6085167 105.353737,40.774393 105.329854,42.1964376" id="Fill-55" fill="#440005"></path>
                    <path d="M111.409548,41.9956804 C111.597494,42.7113635 111.806554,43.3728438 111.867472,44.1385867 C111.875433,44.3288141 111.891355,44.5173152 111.874049,44.7103046 C111.866088,44.9029486 111.864703,45.1011165 111.814515,45.2909987 C111.74979,45.678013 111.633145,46.0519082 111.481196,46.4161366 L111.474274,46.4292558 L111.435854,46.49278 C111.234755,46.8307702 111.038848,47.3044398 110.853671,47.7283949 C110.760909,47.9448605 110.69203,48.1678857 110.609998,48.3846966 C110.570194,48.4903401 110.546657,48.590805 110.512045,48.6974842 L110.461857,48.9353548 L110.467049,49.1055582 C110.47224,49.1307608 110.464626,49.1490585 110.469818,49.1859992 C110.488162,49.2574639 110.512045,49.333762 110.557041,49.4079887 C110.647034,49.5529896 110.784792,49.7090382 110.967546,49.838158 C111.332708,50.1050288 111.798593,50.3004347 112.275208,50.4958407 C111.761558,50.5842222 111.226794,50.5735198 110.689261,50.3981377 C110.42586,50.3018157 110.142729,50.1695887 109.916363,49.9255038 C109.800065,49.8067412 109.701765,49.662776 109.62631,49.5029298 C109.585467,49.4224888 109.558815,49.317881 109.527318,49.2229399 C109.503435,49.1317965 109.502051,49.0910581 109.490283,49.023391 C109.47713,48.8124492 109.490283,48.6750436 109.505858,48.5165783 C109.530087,48.3753751 109.548432,48.2300289 109.580275,48.1009091 C109.634617,47.8312764 109.727032,47.5778701 109.810449,47.3296424 C109.993203,46.8280083 110.194302,46.376434 110.53039,45.8668594 L110.485739,45.9445385 C110.602037,45.6514295 110.767485,45.3728206 110.848133,45.0641758 C110.906628,44.9122701 110.935702,44.7538048 110.980699,44.5967205 C111.025695,44.4382552 111.049578,44.2746114 111.074499,44.1082055 C111.201873,43.4560467 111.202911,42.702042 111.409548,41.9956804" id="Fill-57" fill="#7D3A31"></path>
                    <path d="M127.730506,8.61878484 C127.53183,8.57770125 127.338692,8.53558194 127.174628,8.49587931 C126.287509,8.27388983 125.985687,7.62863579 124.92689,8.1578891 C123.53685,8.85354821 122.845983,11.7742808 122.610618,13.1870039 C122.033627,16.6514898 125.57276,17.1134213 124.793285,20.2478576 C124.063999,23.1920664 123.897166,24.6099682 127.01818,26.3517052 C128.148625,26.9814235 129.69996,27.0487453 130.494318,28.156276 C131.179992,29.1174249 130.910014,30.3085038 131.248871,31.426737 C131.711987,32.9478655 132.588377,33.1881527 133.529492,34.2166235 C134.196476,34.9492233 134.544678,35.9514557 134.955183,36.8190445 C136.334493,36.2618267 137.435864,33.5827624 138.253758,32.3654452 C138.2098,32.2598017 138.160997,32.2756828 138.109424,32.418267 C139.265137,27.9729535 140.759361,25.298032 137.703073,21.5680563 C136.583011,20.2029763 137.046473,18.6397284 136.906292,17.0236588 C136.727691,14.9390982 136.326186,14.7685495 134.62671,13.9910684 C133.541606,13.4956487 133.671057,13.978985 132.871854,12.8966568 C132.466541,12.3497963 132.43089,11.7148994 132.114531,11.1483602 C131.172031,9.45564722 130.669111,9.25644359 128.927062,8.86425066 C128.572283,8.7848454 128.131665,8.7033687 127.730506,8.61878484" id="Fill-59" fill="#251F1E"></path>
                    <path d="M94.0175745,18.0454664 C94.0255354,18.0523712 94.0348807,18.0589308 94.0442261,18.0641094 L94.0456106,18.0668713 L94.0175745,18.0454664 Z" id="Fill-61" fill="#C65337"></path>
                    <g id="Group-65" stroke-width="1" fill="none" transform="translate(89.646494, 0.290002)">
                        <mask id="mask-4" fill="white">
                            <use xlink:href="#path-3"></use>
                        </mask>
                        <g id="Clip-64"></g>
                        <path d="M43.1616373,9.98707554 C42.6666779,9.23445179 42.1900632,8.47147083 41.7584447,7.68570401 C40.9021303,6.1238371 40.468089,4.09865777 38.9112167,3.03946067 C35.6244093,0.810934832 32.4795134,3.87943021 29.057717,1.76276221 C27.5593399,0.83475641 26.5600757,0.227478803 24.6511938,0.434622956 C22.8866462,0.626231296 21.8119266,1.92537037 20.0899525,1.62190419 C18.3267894,1.31394988 17.2479163,0.000310716228 15.3431879,0.0555491568 C13.5377975,0.110097117 11.7666735,0.9573167 10.8269429,2.51952885 C10.1859185,3.58873791 10.358289,4.20430129 9.45005579,4.83678143 C8.4971724,5.49791652 7.30857756,5.08880682 6.40034435,5.54279775 C4.89123734,6.29162386 4.20833181,8.52394734 4.09722554,10.0661356 C4.08407277,10.2591249 1.7477259,11.1515709 1.45524989,11.4129178 C0.590628487,12.1721011 -0.0843161624,13.3245131 0.157971661,14.531473 C0.554977565,16.5000329 3.17064768,19.1511328 4.36201151,20.7540833 C5.35469934,20.5755941 7.37849491,20.6101182 8.49959528,21.5091238 C9.86990598,22.6035354 9.73872443,24.1115448 11.3430159,25.0250505 C12.5752226,25.7248525 14.7409296,25.9861994 16.1001643,25.4976844 C17.5618521,24.9722288 18.389092,23.6030059 19.9020063,23.1766342 C23.0628241,22.2866048 24.8128344,26.0866643 28.0266093,24.4519517 C29.2179731,23.8450193 29.8745731,22.271069 31.1067798,21.7100536 C32.8367148,20.9191082 34.0519613,21.8353758 35.5212639,22.5669399 C37.9991761,23.7973762 39.4951303,23.1134552 40.7020698,20.8939056 C41.474968,19.474623 42.6348344,18.5555934 43.6143694,17.330681 C44.4111503,16.3270676 44.8451916,14.9461065 45.806382,14.0695415 C44.9909104,12.6723542 44.0497953,11.344215 43.1616373,9.98707554" id="Fill-63" fill="#251F1E" mask="url(#mask-4)"></path>
                    </g>
                    <path d="M89.2245329,112.435809 C89.2245329,112.435809 104.025204,129.165461 106.227254,138.076803 C108.42965,146.988489 107.004306,154.324499 98.2881742,158.856468 C89.5716968,163.388782 88.6724628,158.750825 87.2581942,157.152708 C85.8428872,155.554936 97.3359831,157.096433 93.6902436,143.768433 C90.044158,130.441124 87.5105196,129.75237 86.9740252,127.848024 C86.4371846,125.943679 89.2245329,112.435809 89.2245329,112.435809" id="Fill-68" fill="#F9D59F"></path>
                    <path d="M77.0758407,105.509081 C78.3970016,104.065632 79.0131049,96.0812603 79.0131049,96.0812603 L101.928341,123.521301 C101.928341,123.521301 92.6795227,138.959409 92.3648946,138.269274 C92.0502666,137.578794 73.1743145,124.02328 73.1743145,124.02328 L77.0758407,105.509081 Z" id="Fill-70" fill="#AF4283"></path>
                    <path d="M45.9652882,194.451291 C47.3449443,196.324564 48.1213037,199.589847 48.1213037,199.589847 C48.1213037,199.589847 52.2568107,211.396028 52.2568107,213.027978 C52.2568107,214.659584 49.1738712,222.253143 47.6014232,223.82226 C46.0279369,225.391032 43.7002432,227.588141 42.7567052,226.332847 C41.8121288,225.077554 44.9269118,222.158547 44.9899066,221.43734 C45.0532476,220.715788 45.9019472,217.609317 45.9967856,217.013432 C46.0909317,216.417202 44.6752786,211.238943 44.6752786,211.238943 C43.4814919,209.739565 42.4780742,209.214109 41.3722033,211.145383 C41.3722033,211.145383 40.1109221,218.243523 38.6672328,218.331904 C37.2231974,218.419941 37.975328,210.423831 38.4785945,207.66329 C38.9818609,204.902059 39.6900336,203.606717 39.6900336,203.104738 C39.6900336,202.602413 38.5097458,196.304195 38.5097458,196.304195 L45.9652882,194.451291 Z" id="Fill-72" fill="#F9D59F"></path>
                    <path d="M47.1873534,195.298545 C48.5663172,197.171819 49.3433689,200.437101 49.3433689,200.437101 C49.3433689,200.437101 53.4788759,212.243282 53.4788759,213.875232 C53.4788759,215.506838 50.3959364,223.100397 48.8231423,224.669169 C47.2500021,226.238631 44.9223083,228.434704 43.9780781,227.179756 C43.0341939,225.924808 46.148977,223.005801 46.2119718,222.284595 C46.2746205,221.562697 47.1240124,218.45588 47.2181585,217.859996 C47.3129969,217.264111 45.8973438,212.086543 45.8973438,212.086543 C44.703557,210.586474 43.7001393,210.061018 42.5942685,211.992292 C42.5942685,211.992292 41.3329873,219.091122 39.889298,219.179159 C38.4452626,219.267195 39.1970471,211.27143 39.7003135,208.510199 C40.2039261,205.748622 40.9120987,204.453626 40.9120987,203.951301 C40.9120987,203.449322 39.7318109,197.150759 39.7318109,197.150759 L47.1873534,195.298545 Z" id="Fill-74" fill="#F9D59F"></path>
                    <path d="M84.1572215,204.739865 C87.1771662,241.39057 75.3268688,291.31093 75.3268688,291.31093 C71.895381,298.303081 71.6101736,331.45374 68.5171965,365.643918 C68.5171965,365.643918 61.6362223,367.602812 58.2026577,367.361834 C57.3484201,352.68498 50.790381,315.928631 54.583916,290.682247 C53.5960739,284.388172 52.1603455,207.47831 52.1603455,207.47831 L84.1572215,204.739865 Z" id="Fill-78" fill="#F9D59F"></path>
                    <path d="M35.0476258,206.223155 C33.285155,208.482407 22.787862,200.067866 22.787862,200.067866 C14.4597373,209.724236 16.0685284,253.411974 21.4431646,290.329205 C20.6737277,312.427688 21.2541801,332.208228 25.0290244,364.968421 C28.0493151,364.968421 33.8306487,365.108244 33.8306487,365.108244 C36.3369432,340.304803 39.8577314,317.934615 39.2180915,290.495265 L53.6705601,203.461923 L35.0476258,206.223155 Z" id="Fill-80" fill="#F9D59F"></path>
                    <path d="M35.6209134,88.9329918 C35.8258197,89.1777671 36.0317644,89.4159829 36.2401319,89.6521272 C40.2946455,94.2548703 46.2905769,96.6256351 50.4921939,101.145521 C54.7748042,105.751371 56.4310145,110.825022 57.7158323,116.84394 C58.7420942,121.643125 59.0446079,129.172815 62.9745164,132.845826 C67.771123,137.325318 76.5499031,132.526824 81.7625525,130.724324 C89.6465983,127.9952 95.431047,124.940515 99.5430175,117.371467 C102.329327,112.240852 103.703099,108.417316 98.5942876,104.152218 C96.3555481,102.283778 94.186726,101.668559 93.0773939,98.8258512 C91.7759621,95.4915209 91.8922603,90.8055749 92.2110418,87.2834338 C92.9964005,78.6196297 95.8495127,70.0763143 91.3609577,61.7839887 C89.5884492,58.5076587 87.433126,55.831011 84.2896145,53.9580826 C81.0014227,52.0016061 77.9191754,50.1594041 75.9715275,46.7028587 C74.2159791,43.5891368 73.401892,40.0272931 71.4369378,37.020941 C69.3581083,33.8492188 65.9110448,31.0317131 62.4203695,29.4670842 C58.5122669,27.7146447 54.2248108,27.0417715 49.9633142,27.0220928 C46.0749407,27.0048308 41.6365739,27.1791771 37.9364928,28.4600184 C31.6768138,30.6232939 29.2736647,35.9337794 26.9317799,41.6640772 C23.50583,50.0458201 21.7267452,58.6243499 24.2887658,67.5218817 C26.3315983,74.603795 30.7523127,83.1319198 35.6209134,88.9329918" id="Fill-84" fill="#251F1E"></path>
                    <path d="M42.9292487,76.6328065 C43.7139151,90.9112529 36.4168982,92.5980968 28.733259,94.7513603 C30.1492583,99.1904595 43.1788052,101.991394 51.4809705,101.313687 C59.7827897,101.991394 72.8126827,99.1904595 74.2283358,94.7513603 C66.5450428,92.5980968 56.9566753,91.1974571 57.7413417,76.9183202 L49.1903122,76.8074981 L42.9292487,76.6328065 Z" id="Fill-86" fill="#ECBD7D"></path>
                    <path d="M25.8496186,60.2193944 C26.8464599,63.1932939 31.7884393,66.7102564 32.5737979,63.9624892 C33.0556046,62.2822049 32.7742046,60.4313719 31.7773632,57.4564366 C30.780868,54.4859895 31.6842555,52.2899162 28.9668245,53.1944457 C26.2483551,54.1013918 24.8541618,57.2454948 25.8496186,60.2193944" id="Fill-88" fill="#F6CA8A"></path>
                    <path d="M29.7818807,55.9455272 C29.8279154,55.9303366 29.8781036,55.9279199 29.9262151,55.915146 C29.9438675,55.9389676 29.9559818,55.9627892 29.9788261,55.9859203 C31.0511228,56.9125451 30.8105656,59.1945832 31.0064726,60.4619602 C31.0895427,61.0039874 31.2023796,61.5304788 31.3394453,62.0459225 C29.9899021,62.2351141 28.6054003,61.3316204 28.1069796,59.8415634 C27.5517944,58.1830293 28.2997715,56.438185 29.7818807,55.9455272" id="Fill-90" fill="#E9B877"></path>
                    <path d="M28.6887473,64.4651245 C28.6098307,65.3130346 29.2307798,66.0642774 30.0819023,66.1464445 C30.9319864,66.2272308 31.6879244,65.6057983 31.7685717,64.7568525 C31.8499111,63.9079067 31.2275776,63.1559735 30.3757628,63.0731158 C29.5263709,62.9923296 28.7697407,63.6161787 28.6887473,64.4651245" id="Fill-92" fill="#B8E4F9"></path>
                    <path d="M65.9559027,39.7074626 C64.5516717,35.9567724 61.3773551,32.1197723 57.2570776,30.7170611 C54.5666444,29.801484 51.6782274,29.463839 48.8119624,29.5753516 C45.9488126,29.463839 43.0593573,29.801484 40.3671934,30.7170611 C36.2486466,32.1197723 33.0722532,35.9567724 31.670099,39.7074626 C29.4303211,45.68875 30.9145071,47.4042488 31.096223,53.7235264 C31.2734392,59.8995293 31.3239735,68.0727471 36.2770289,73.3252323 C41.4972931,78.8621955 45.8470517,79.6379503 50.4449824,79.7560225 C55.6347875,79.7560225 61.2776709,75.4011619 62.8473499,73.6390557 C68.5082318,67.2869802 67.4148215,61.2311209 67.7301418,52.4668519 C67.9572001,46.1510267 68.197065,45.68875 65.9559027,39.7074626" id="Fill-94" fill="#F6CA8A"></path>
                    <path d="M46.1569379,64.0138264 C46.1856663,65.5380622 44.4328869,66.8030224 42.2467585,66.8389274 C40.060284,66.8772491 38.2683925,65.6733963 38.2420869,64.1505416 C38.2157814,62.6283773 39.9661379,61.362036 42.1536508,61.3261311 C44.3377024,61.2888451 46.1306323,62.4930431 46.1569379,64.0138264" id="Fill-96" fill="#E9B877"></path>
                    <path d="M65.5047973,63.6839494 C65.5311029,65.2078399 63.779708,66.4707287 61.5942719,66.5080147 C59.4105663,66.547372 57.616252,65.3411026 57.5899464,63.8206645 C57.5636409,62.2964288 59.3139973,61.0311233 61.5001258,60.9952183 C63.6866003,60.9579323 65.4784918,62.1621303 65.5047973,63.6839494" id="Fill-98" fill="#E9B877"></path>
                    <path d="M47.1625362,53.6183662 C47.1625362,53.6183662 47.0112793,53.5759017 46.8326786,53.5517348 C46.6540779,53.5047822 46.3301044,53.4971869 45.9552506,53.4633533 C45.5762432,53.4961512 45.1228188,53.4523056 44.6430889,53.5572587 C44.4021856,53.5966161 44.1512446,53.6359735 43.8971886,53.6753308 C43.6497089,53.7474861 43.3966911,53.820677 43.1447118,53.8938679 C42.8930786,53.9770708 42.6300232,54.024714 42.3911967,54.1317385 C42.1502934,54.2401439 41.9156203,54.3461327 41.685793,54.4465976 C41.4570041,54.5480982 41.2368683,54.6475274 41.0233089,54.740397 C40.8229022,54.8529453 40.6408402,54.9744699 40.4657007,55.0770063 C39.7755266,55.5040685 39.3134491,55.7882012 39.3134491,55.7882012 L39.2871435,55.803737 C39.1798446,55.8710589 39.0351642,55.8361896 38.9673236,55.7270937 C38.9036365,55.6266288 38.9299421,55.4954375 39.0220114,55.4222465 C39.0220114,55.4222465 39.4657443,55.078042 40.1282284,54.5646697 C40.2971376,54.4379666 40.4743539,54.2936561 40.6726838,54.1527981 C40.8841664,54.0292021 41.1053406,53.9014632 41.3330911,53.7671648 C41.5653413,53.6349377 41.8031295,53.4971869 42.0450712,53.3539122 C42.2859745,53.2144351 42.5642594,53.1267441 42.8248919,53.0100529 C43.0921007,52.9016474 43.3572328,52.7925515 43.6213266,52.6865628 C43.8971886,52.6113004 44.1678587,52.5367285 44.4305679,52.4659542 C44.9511406,52.2964413 45.476559,52.2791793 45.9137155,52.2004645 C46.3636786,52.1894168 46.728841,52.1586904 47.0265089,52.1939049 C47.3300609,52.2122026 47.4460129,52.2353337 47.4460129,52.2353337 L47.4996624,52.2463814 C47.8831694,52.324751 48.1306491,52.6986462 48.0541554,53.0787557 C47.9762771,53.4623176 47.6028077,53.7091644 47.2193007,53.6335568 C47.2019945,53.6294139 47.1798424,53.6228543 47.1625362,53.6183662" id="Fill-100" fill="#420024"></path>
                    <path d="M56.0169446,51.9294164 C56.0169446,51.9294164 56.1353196,51.9162972 56.4374871,51.9228568 C56.7400007,51.9142258 57.0989328,51.9729166 57.5482037,52.0267741 C57.976707,52.1393224 58.4969336,52.2025014 59.0026229,52.4165504 C59.2570251,52.5108009 59.5221572,52.6047063 59.7893661,52.7051712 C60.0434221,52.8339458 60.2999011,52.9630657 60.5549956,53.094257 C60.8055904,53.233734 61.0727993,53.3431752 61.3029727,53.5037119 C61.5331461,53.6666653 61.7584738,53.8237496 61.9754945,53.9770363 C62.1945919,54.1285968 62.4026133,54.2760144 62.6019815,54.4158367 C62.7871587,54.5711948 62.9505299,54.7327672 63.1059402,54.8725895 C63.7258509,55.4429264 64.1377402,55.8209645 64.1377402,55.8209645 C64.2318863,55.909346 64.236386,56.0546921 64.150893,56.1489427 C64.0698996,56.2362885 63.9359491,56.246991 63.8431875,56.1793239 L63.8158435,56.1617166 C63.8158435,56.1617166 63.3818022,55.8385717 62.7269328,55.353164 C62.5649461,55.2375085 62.3918834,55.1001028 62.2011683,54.9730544 C61.9997232,54.8594704 61.7872022,54.7438149 61.5681048,54.6212546 C61.347969,54.501111 61.1212568,54.377515 60.8921218,54.2501213 C60.6643712,54.1220372 60.4037387,54.0488463 60.161797,53.9463099 C59.9163941,53.8534403 59.6709911,53.7571183 59.4300878,53.6666653 C59.1801852,53.6052125 58.9351284,53.5451407 58.6963018,53.4850689 C58.2273018,53.3407585 57.7738775,53.3452466 57.3983314,53.279651 C57.0203624,53.279651 56.6950044,53.262389 56.5153653,53.2927701 C56.3367646,53.2993297 56.1813542,53.3310918 56.1813542,53.3310918 C55.7957705,53.4063542 55.4233395,53.1595074 55.3489225,52.7749097 C55.2741594,52.3927288 55.5219852,52.0191788 55.907569,51.9439164 C55.9248753,51.940464 55.9435661,51.9380474 55.9622568,51.9359759 L56.0169446,51.9294164 Z" id="Fill-102" fill="#420024"></path>
                    <path d="M46.1043614,68.3391344 C46.1043614,68.3391344 51.2162883,69.5692255 57.5396544,68.1457999 C57.5396544,68.1457999 57.2471784,73.1013785 51.8438138,73.1942481 C46.4418337,73.286082 46.1043614,68.3391344 46.1043614,68.3391344" id="Fill-104" fill="#6E1C20"></path>
                    <path d="M49.780283,72.9277226 C50.3718114,73.1013785 51.04641,73.2073673 51.843883,73.1942481 C53.3730653,73.1680099 54.4792823,72.7454358 55.2985613,72.1650869 C53.5963162,71.1096875 51.4451465,71.2650456 49.780283,72.9277226" id="Fill-106" fill="#BB4046"></path>
                    <path d="M56.9394036,70.2248022 C57.478321,69.1279739 57.5395852,68.1457654 57.5395852,68.1457654 C51.202028,68.6908997 46.1042922,68.3390999 46.1042922,68.3390999 C46.1042922,68.3390999 46.1745556,69.3202727 46.7231645,70.3994937 C46.7231645,70.3994937 48.473521,70.8072225 51.9292376,70.7481864 C55.381839,70.6891503 56.9394036,70.2248022 56.9394036,70.2248022" id="Fill-108" fill="#FEFEFE"></path>
                    <path d="M47.3234153,58.7315815 C47.3431444,59.9071246 46.7395016,60.8727616 45.9783717,60.8858807 C45.214819,60.8969284 44.5786404,59.955113 44.5589112,58.7774985 C44.5391821,57.6009197 45.140402,56.6383898 45.9039548,56.622854 C46.6671614,56.6097349 47.3026477,57.5536218 47.3234153,58.7315815" id="Fill-110" fill="#440005"></path>
                    <path d="M56.0750937,58.580677 C56.0958613,59.7562201 56.7299631,60.7014879 57.4935159,60.6880235 C58.258107,60.6738686 58.8603653,59.7103031 58.8395978,58.53476 C58.8188303,57.3561098 58.1847284,56.4132587 57.4211756,56.4263778 C56.6565845,56.438116 56.056403,57.4030625 56.0750937,58.580677" id="Fill-112" fill="#440005"></path>
                    <path d="M51.0430872,58.416826 C51.2151115,58.9982106 51.2171883,59.6217145 51.3203337,60.1647774 C51.3411012,60.3004568 51.359792,60.4378624 51.401327,60.5669823 C51.4362857,60.6967926 51.4580916,60.8290196 51.5065492,60.9536514 C51.5754281,61.2105101 51.7124938,61.4387139 51.8087167,61.6834892 L51.7692584,61.6178936 C52.0510045,62.0397772 52.2161063,62.4122914 52.3687477,62.8307226 C52.4376266,63.0357953 52.513082,63.2446657 52.5601551,63.4652742 C52.5843838,63.5747154 52.5996134,63.6958947 52.6193425,63.8094787 C52.6324953,63.94067 52.6425329,64.0552898 52.6304185,64.2289456 C52.6224576,64.2859103 52.6193425,64.3187081 52.5996134,64.3974229 C52.5778075,64.473721 52.554617,64.5589953 52.5206968,64.6266624 C52.4573558,64.7578537 52.3749779,64.8779973 52.2797934,64.9774265 C52.0915012,65.1793921 51.859251,65.2898689 51.6401536,65.367548 C51.1933056,65.5128941 50.7506111,65.5204894 50.3259152,65.4483342 C50.7243056,65.2853808 51.1067742,65.1248441 51.4089418,64.9042356 C51.5591602,64.7992825 51.6751123,64.6680912 51.7498754,64.5503643 C51.784834,64.4868401 51.8087167,64.4257326 51.8197927,64.3646251 C51.8284458,64.3363154 51.8197927,64.3173271 51.8263691,64.296958 L51.8294842,64.1567904 L51.7869108,63.959313 C51.7606052,63.8730029 51.7398377,63.7887643 51.7069558,63.7003828 C51.6380768,63.5232746 51.5809661,63.3396067 51.5051646,63.1583556 C51.3507927,62.8065558 51.188806,62.4153986 51.0223196,62.1378254 L50.9883993,62.0832775 L50.9828613,62.0746465 C50.8603329,61.7729065 50.7627255,61.4628807 50.7090761,61.141462 C50.6696178,60.9843777 50.6665027,60.8224601 50.6585418,60.6629591 C50.6457351,60.5024223 50.656465,60.3443023 50.6640798,60.1889442 C50.7146141,59.5540474 50.8911381,59.0064963 51.0430872,58.416826" id="Fill-114" fill="#D88E7F"></path>
                    <path d="M77.2772858,49.5258882 C72.5211758,35.8671481 59.9218629,26.2169925 44.0603175,27.9573486 C39.642026,28.4424112 35.4445625,31.3703938 32.7413227,34.7789508 C30.4454725,37.6751713 30.1190762,41.27292 29.2790297,44.7122034 C28.4389832,48.1601178 28.7456503,51.9929751 29.6088872,55.4429609 C29.8660585,56.4700507 30.2945618,59.4480931 31.6593345,59.3455568 C32.8441219,55.0345417 35.412719,52.9869218 39.0439212,50.8564442 C43.2981492,48.3589762 44.9453603,43.7006494 47.0418422,39.5498259 C47.7385928,40.7923455 47.9749965,42.3283194 48.7375108,43.5867201 C50.0233669,45.7085667 51.9841677,46.9179434 53.7847123,48.5478226 C55.5897566,50.1814995 57.2044319,52.0344039 59.053088,53.6011042 C60.3849787,54.7272779 61.7750186,55.707415 62.8826201,57.042459 C64.9919086,59.5782487 67.3251404,62.5376482 68.281485,65.7169657 C69.5794555,70.036957 70.6230238,74.4311749 71.4225736,78.8688931 C71.6517086,80.1549131 71.4796843,83.0552764 72.8991448,83.6684231 C74.1490038,84.2045813 75.5113537,82.9855379 76.1752223,82.0896395 C80.2719632,76.5481881 79.327733,68.2341123 79.327733,61.7860601 C79.327733,57.4926523 78.6112533,53.3518407 77.2772858,49.5258882" id="Fill-116" fill="#251F1E"></path>
                    <path d="M56.5062276,93.2104149 C49.6605582,93.3688802 33.8222032,94.0624679 33.8222032,94.0624679 L13.8528409,96.3348392 C14.1446246,106.577082 20.071677,115.669329 19.282511,125.784178 C18.4185818,136.853962 27.4150748,148.06771 22.499401,173.637584 C22.4658269,178.999856 5.96048812,177.950671 13.9642933,264.302509 C33.4452726,266.885941 60.4437508,269.792174 88.8561516,265.27436 C86.5956062,191.926342 80.1019464,174.524507 85.1539937,142.830761 C103.68382,136.776628 89.9765597,98.8941052 81.9312195,95.8939674 L73.8010785,94.0624679 L56.5062276,93.2104149 Z" id="Fill-118" fill="#AD4646"></path>
                    <path d="M98.2405474,155.180868 C95.3199407,154.071956 93.2660323,152.411351 93.4162507,146.504635 C93.5657769,140.597574 96.6497548,135.522197 97.7950839,135.338184 C99.6427016,135.041968 101.299258,140.12425 101.076007,140.791599 C101.076007,140.791599 102.744678,139.233875 103.390202,138.653872 C104.479805,137.674425 110.661606,131.474946 114.413952,132.38638 C116.514933,132.896645 118.842627,134.650811 118.490617,138.394942 C117.864823,145.066019 106.023525,157.231595 98.2405474,155.180868" id="Fill-120" fill="#F9D59F"></path>
                    <path d="M75.1924337,130.1186 C74.1803628,112.347358 114.30738,101.080097 118.074609,115.955119 C118.439079,117.394771 118.128605,125.146105 106.606781,130.017445 C95.0839178,134.887749 75.1924337,130.1186 75.1924337,130.1186" id="Fill-122" fill="#8AB292"></path>
                    <path d="M35.3592772,165.172259 C27.1986772,161.941501 21.7856211,161.059067 24.9422853,155.629818 C28.0989495,150.200225 41.9034713,124.695601 69.430137,122.260967 C74.6040204,121.803523 82.6981643,125.871489 85.4848204,127.708168 C86.1306905,128.133504 92.1203916,131.595573 101.329752,129.57937 C118.542917,125.811418 113.32646,111.346196 113.32646,111.346196 C118.892158,110.797609 130.400483,119.276365 118.834701,134.73864 C103.615564,155.084684 75.7566182,161.943572 61.2304248,163.376664 C46.7038853,164.809757 35.3592772,165.172259 35.3592772,165.172259" id="Fill-124" fill="#A4D2AC"></path>
                    <path d="M113.673728,113.30143 C111.541941,109.274202 104.493442,106.222624 97.9402489,111.435752 C79.3498504,111.141262 76.5690785,127.371351 93.0363434,133.392341 C100.81136,136.235049 105.542202,134.760874 109.751088,126.785824 C114.111923,122.990943 114.751563,118.917453 113.673728,113.30143" id="Fill-126" fill="#F9D59F"></path>
                    <path d="M92.5773118,115.76396 C93.7534461,115.76396 94.713252,115.008229 94.713252,114.081259 C94.713252,113.154288 93.7534461,112.398558 92.5773118,112.398558 C91.4011775,112.398558 90.4413716,113.154288 90.4413716,114.081259 C90.4413716,115.008229 91.4011775,115.76396 92.5773118,115.76396" id="Fill-128" fill="#F0ABC7"></path>
                    <path d="M18.240258,120.568012 C17.4303244,125.685854 15.6484706,153.384825 17.5770816,156.565523 C19.5063849,159.745531 66.0090329,161.6409 67.6271694,160.293427 C69.2456521,158.94699 72.5061539,151.681064 78.183996,150.284567 C83.8628765,148.889451 79.1735687,152.475462 79.5778432,153.417968 C79.781365,153.892673 82.6905495,153.444551 85.8126012,153.36342 L85.8254078,153.363074 C86.2961385,153.353753 95.7952056,152.64532 96.361813,153.774946 C96.9284204,154.904227 94.1597628,156.285533 94.1597628,156.285533 C94.1597628,156.285533 96.3303156,156.159175 96.3303156,157.44554 C96.3303156,158.732941 94.7440226,159.98789 94.7440226,159.98789 C94.7440226,159.98789 95.8903901,159.579816 95.7325569,160.835454 C95.5754159,162.090403 94.2224115,163.251446 94.2224115,163.251446 C94.2224115,163.251446 95.2292905,163.126124 94.7890189,164.224333 C94.3923591,165.213446 90.5344447,167.195125 87.9866152,168.370323 C87.7560956,168.479074 87.5228071,168.585062 87.2857111,168.688289 L87.1977953,168.726956 C87.1316853,168.756302 87.0634986,168.784611 86.9939274,168.811885 C81.607523,171.067685 74.6604388,171.746082 70.4138255,170.81635 C45.7285038,174.68891 5.45576797,179.025818 2.848751,161.105432 C1.13750672,149.341025 0.560169446,114.373366 1.77437756,114.373366 C2.98893181,114.373366 18.240258,120.568012 18.240258,120.568012" id="Fill-130" fill="#F9D59F"></path>
                    <path d="M96.2153327,158.073947 C95.8508626,159.111739 94.7442995,159.987613 94.7442995,159.987613 C94.7442995,159.987613 95.890667,159.579539 95.7324877,160.835523 C95.5753467,162.090127 94.2223423,163.251515 94.2223423,163.251515 C94.2223423,163.251515 95.2292213,163.125847 94.7889497,164.224057 C94.3922899,165.213515 90.5343755,167.194849 87.986546,168.370392 C87.7563725,168.479143 87.5227379,168.585131 87.2856419,168.688358 L87.1977261,168.727025 C87.1316161,168.756371 87.0634294,168.784335 86.9938582,168.811954 C81.6074537,171.067754 74.6603696,171.746151 70.4137563,170.816419 C45.7287807,174.688634 5.45569875,179.025887 2.84868177,161.105501 C1.99409801,155.229512 1.42229875,143.564535 1.21496959,133.359923 L7.83392679,134.603824 C7.83392679,134.603824 7.62625151,151.167415 10.0989718,159.706588 C12.571346,168.246796 25.8286434,169.246267 41.3066818,169.120599 C56.7840279,168.994932 69.7457342,166.861347 70.5009799,167.363326 C71.2558796,167.865306 73.6465681,168.869609 81.9518486,167.112682 C90.2574751,165.355409 89.8175497,166.108033 91.641977,164.35076 C95.8750914,160.274853 92.0659807,158.810689 96.2153327,158.073947" id="Fill-132" fill="#ECC287"></path>
                    <path d="M116.89446,141.494819 C118.490791,138.394907 117.968141,140.653814 118.500482,137.057791 C119.033861,133.461424 118.655546,129.13142 116.957109,129.570566 C115.258325,130.010402 114.126148,136.913136 114.126148,135.658533 C114.126148,134.403239 113.685531,131.26535 112.049396,133.022278 C110.413261,134.779551 108.903808,141.68263 108.903808,141.68263 C108.903808,141.68263 108.032264,137.488651 106.548424,139.492426 C105.065622,141.494819 104.939633,145.134342 103.869759,146.263968 C102.800231,147.394285 97.3266031,151.410465 100.095261,152.477257 C102.863572,153.544395 110.665586,148.649233 113.244913,146.201825 C115.824586,143.754071 116.89446,141.494819 116.89446,141.494819" id="Fill-134" fill="#F9D59F"></path>
                    <path d="M104.455438,151.749214 C104.736838,151.622511 105.070503,151.475439 105.46647,151.299021 C105.125537,151.460593 104.787718,151.611118 104.455438,151.749214 M111.882252,146.729076 L111.874983,146.736326 L111.804027,146.808136 L111.792951,146.819529 L111.577661,147.034613 L111.54651,147.065685 L111.464824,147.145781 L111.464478,147.146471 L111.383139,147.225876 L111.351295,147.256948 L111.301453,147.304937 L111.238458,147.365699 L111.219421,147.383997 L111.137736,147.462021 L111.125275,147.473759 L111.055704,147.539355 L111.012092,147.580438 L110.974365,147.616343 L110.898909,147.686427 L110.891987,147.692641 L110.810647,147.768249 L110.786072,147.79069 L110.728616,147.843511 L110.672889,147.893571 L110.647276,147.917047 L110.564898,147.990929 L110.55936,147.995417 C110.483905,148.063775 110.40845,148.130751 110.332302,148.196347 L110.318457,148.20843 L110.236079,148.28024 L110.218081,148.295431 L110.153355,148.351014 L110.103859,148.392789 L110.070977,148.421443 L110.067862,148.42386 L110.065093,148.425932 C109.391187,148.995578 108.699628,149.50826 107.958227,149.977096 C108.235474,149.813452 108.512374,149.648427 108.783737,149.480641 C107.533185,150.470444 106.545689,151.126056 105.775906,151.558296 C103.984015,152.566053 103.373796,152.365123 103.373796,152.365123 C103.373796,152.365123 103.219424,153.390832 101.097328,155.350415 C100.872347,155.55825 100.625559,155.776442 100.353851,156.005336 C99.2569794,156.929544 97.6869543,157.645918 96.1764628,158.177588 C95.7780724,159.169808 94.7441956,159.987682 94.7441956,159.987682 C94.7441956,159.987682 95.280344,159.79711 95.5690126,160.078135 C96.3796385,159.780538 97.2819875,159.38006 98.2881742,158.856675 C100.587832,157.660418 102.380069,156.26979 103.731343,154.706197 L103.732035,154.706197 C110.639661,152.204241 118.000365,143.61639 118.490825,138.394976 C118.520938,138.076665 118.531668,137.772853 118.524053,137.483197 C118.487364,137.548447 118.449636,137.615769 118.409832,137.685853 C117.114976,139.95995 114.270171,144.555788 110.749729,147.816928 C111.140159,147.460295 111.51259,147.101935 111.882252,146.729076" id="Fill-136" fill="#ECC287"></path>
                    <path d="M106.334449,121.934646 C106.459054,121.894598 106.593697,121.962955 106.633501,122.086897 C106.673652,122.211528 106.606157,122.344446 106.481552,122.385184 C105.234808,122.791877 104.300962,122.581971 103.698357,122.093456 C103.416957,121.865943 103.20859,121.579048 103.075332,121.26557 C102.942073,120.954163 102.881848,120.614447 102.895,120.282326 C102.923729,119.582869 103.277815,118.908615 103.963143,118.559577 C104.079788,118.500541 104.222738,118.546458 104.281925,118.662459 C104.341459,118.778805 104.295078,118.921389 104.179126,118.980425 C103.659591,119.244879 103.390998,119.762049 103.369192,120.300624 C103.358462,120.564042 103.406228,120.832639 103.51145,121.079831 C103.616672,121.325297 103.779005,121.550048 103.997064,121.726466 C104.485101,122.121766 105.264229,122.284029 106.334449,121.934646" id="Fill-138" fill="#221916"></path>
                    <path d="M91.0814268,116.185394 C91.7885611,117.336425 94.7614327,117.352652 95.2415087,119.745512 C95.7212386,122.138027 92.1665301,123.581476 89.586857,122.859234 C87.0068379,122.138027 86.6922098,119.579796 87.4945286,117.932655 C88.2968475,116.285514 89.3978725,115.516664 90.2313427,115.736582 C91.0648128,115.955464 91.0814268,116.185394 91.0814268,116.185394" id="Fill-140" fill="#FCF5B1"></path>
                    <path d="M88.5174332,118.52236 C86.9446391,118.52236 85.6695129,119.884678 85.6695129,121.564962 C85.6695129,123.245247 86.9446391,124.60791 88.5174332,124.60791 C90.0895351,124.60791 91.3646613,123.245247 91.3646613,121.564962 C91.3646613,119.884678 90.0895351,118.52236 88.5174332,118.52236 M88.5174332,117.682045 C90.5242686,117.682045 92.1510583,119.420675 92.1510583,121.564962 C92.1510583,123.709595 90.5242686,125.44857 88.5174332,125.44857 C86.5102517,125.44857 84.883462,123.709595 84.883462,121.564962 C84.883462,119.420675 86.5102517,117.682045 88.5174332,117.682045" id="Fill-142" fill="#86746B"></path>
                    <path d="M90.3024714,120.584687 C91.1560168,120.584687 91.851729,119.886957 91.851729,119.031451 C91.851729,118.175946 91.1560168,117.47787 90.3024714,117.47787 C89.4489261,117.47787 88.7532139,118.175946 88.7532139,119.031451 C88.7532139,119.886957 89.4489261,120.584687 90.3024714,120.584687" id="Fill-144" fill="#EC8322"></path>
                    <path d="M111.957465,109.279243 C111.957465,109.279243 110.84571,109.686626 111.287366,110.520036 C111.911084,111.695925 113.599138,111.453221 114.057062,112.843503 C114.515678,114.233786 114.026949,116.375311 113.855963,116.300739 C107.22593,113.416602 110.043737,108.864954 111.957465,109.279243" id="Fill-146" fill="#763B1F"></path>
                    <path d="M101.468721,115.327714 C101.593326,115.286976 101.727623,115.355333 101.767774,115.479274 C101.80827,115.603561 101.74043,115.737514 101.615824,115.777907 C100.369081,116.18391 99.435234,115.974004 98.8322835,115.485834 C98.5515757,115.258321 98.3432082,114.971426 98.2096038,114.657948 C98.0763455,114.346196 98.0157735,114.006825 98.0296185,113.674704 C98.0580008,112.975937 98.4120872,112.301338 99.0981078,111.951955 C99.2137137,111.892919 99.3566635,111.939526 99.4165432,112.055182 C99.4757307,112.171182 99.4290038,112.313767 99.3133979,112.372803 C98.7935174,112.637602 98.5252702,113.154427 98.5034643,113.693692 C98.4923883,113.95642 98.5401536,114.225017 98.6457218,114.472209 C98.7505979,114.71802 98.9132768,114.942426 99.1313359,115.118844 C99.6193728,115.514489 100.398155,115.676407 101.468721,115.327714" id="Fill-148" fill="#221916"></path>
                    <path d="M99.7850976,127.844503 C101.413618,127.844503 102.742394,126.576435 102.742394,125.020783 C102.742394,123.46513 101.413618,122.196372 99.7850976,122.196372 C98.1565773,122.196372 96.8284939,123.46513 96.8284939,125.020783 C96.8284939,126.576435 98.1565773,127.844503 99.7850976,127.844503" id="Fill-150" fill="#F0ABC7"></path>
                    <path d="M102.961076,113.708537 C102.882505,113.378487 101.98604,112.343112 101.183375,111.511773 C100.381403,110.680435 100.098272,110.585839 100.602231,110.491934 C101.105497,110.397338 102.473731,111.307736 103.16529,112.531268 C103.857887,113.75549 103.763741,114.429744 103.543259,114.367601 C103.322777,114.304422 102.961076,113.708537 102.961076,113.708537" id="Fill-152" fill="#763B1F"></path>
                    <path d="M108.623792,122.117865 C109.769467,121.197109 106.002238,116.461794 105.934051,117.348025 C105.86621,118.224245 108.186982,122.468974 108.623792,122.117865" id="Fill-154" fill="#763B1F"></path>
                    <path d="M63.9925406,156.963205 C59.0727133,158.631751 37.2225052,155.215599 26.3659339,153.182134 C25.7605605,154.200938 25.2877531,155.035729 24.9423199,155.629887 C24.3085642,156.719811 24.0198956,157.626757 24.0302793,158.406655 C37.3062675,160.406977 66.3538085,161.35328 67.6268579,160.293393 C69.2456867,158.946956 72.5061886,151.681029 78.1840306,150.284533 C83.8629111,148.889417 79.1736033,152.475427 79.5778779,153.417933 C79.7374417,153.789412 81.5528697,153.595387 83.8317598,153.455219 C86.6063015,153.28398 90.06721,153.19111 92.059162,154.294843 C92.3364085,154.447785 92.5852727,154.624893 92.8002166,154.827894 C93.6845672,154.422927 94.5671871,154.000353 95.4473841,153.560172 C96.7488159,152.909739 98.0426328,152.220295 99.3226048,151.490802 C99.3987524,149.875768 103.020955,147.160799 103.869655,146.26421 C104.939875,145.134584 105.065518,141.494716 106.548666,139.492322 C108.032506,137.488893 108.903704,141.682872 108.903704,141.682872 C108.903704,141.682872 110.413503,134.779793 112.049292,133.02252 C113.685427,131.265247 114.126045,134.403481 114.126045,135.658429 C114.126045,136.368588 114.488092,134.465624 115.111118,132.600636 C115.589117,131.169615 116.219758,129.76138 116.957005,129.570808 C118.3242,129.217282 118.835774,131.954346 118.705285,134.910294 C118.74855,134.852984 118.791816,134.796019 118.834735,134.738364 C121.813837,130.755672 123.262026,127.236638 123.6753,124.215786 C121.004942,125.211459 118.000227,126.08906 116.02662,126.023809 C112.251429,125.897797 111.99945,128.722207 110.678635,131.483439 C109.357128,134.24467 108.753831,134.220849 106.08555,135.562798 C105.887566,135.662572 105.701005,135.785478 105.52275,135.930478 C104.889687,136.446958 104.370152,137.238594 103.876577,138.20285 C102.639179,140.618841 101.558921,144.120613 99.2270742,147.110048 C97.9048749,148.806214 96.1039841,149.856089 94.2172542,150.500308 C94.0791502,150.547951 93.9403539,150.592487 93.8015576,150.635297 C90.7816129,151.568136 87.6166417,151.515314 85.8884373,151.440397 C85.1408063,151.407944 84.5942742,151.0993 84.1058911,150.643582 C82.7061598,149.335812 81.7868506,146.820047 77.9600875,146.168233 C72.8010875,145.290287 70.2847554,154.829275 63.9925406,156.963205" id="Fill-156" fill="#9CCFA4"></path>
                    <path d="M22.499401,173.637723 C22.4762106,177.354234 14.5405922,177.990857 12.3364652,206.778716 C11.3600453,219.527748 11.5074948,237.798552 13.9642933,264.302647 C15.4221737,264.495981 16.9222815,264.690697 18.4611553,264.884722 C25.8516261,265.814799 34.1537914,266.711388 43.0838283,267.215784 C46.4879723,267.407737 49.9831472,267.543072 53.5544697,267.601417 C58.2133184,267.677715 63.0005796,267.622477 67.881987,267.392547 C64.0292645,266.860532 58.8546889,266.169361 53.4911287,265.431582 C50.1811309,264.975865 46.7994852,264.502886 43.6113235,264.038538 C35.1257117,262.802578 28.016987,261.628761 27.3105449,261.018031 C25.4231228,259.385735 20.0121435,252.482311 20.8923405,232.274708 C21.2869235,223.227687 22.7409966,211.438423 24.2265671,201.175811 C26.0586092,188.51447 27.9394549,178.176596 27.9394549,178.176596 C27.9394549,178.176596 36.4967147,179.809237 37.6295833,179.809237 C38.7621058,179.809237 63.8035907,174.913731 70.9770409,175.290042 C75.5071309,175.528258 80.4383804,175.215125 83.4576328,174.952397 C83.3904844,173.292137 83.339604,171.664329 83.3094911,170.058272 C78.7191752,171.286982 73.7384298,171.544186 70.4138948,170.816419 C56.2210202,173.042874 36.8764143,175.422615 22.499401,173.637723" id="Fill-158" fill="#A33C3B"></path>
                    <path d="M26.3657609,153.182099 C31.2855882,144.893571 44.916355,124.429455 69.4303446,122.261001 C70.6514753,122.153632 72.0349387,122.297597 73.4734362,122.604515 C74.5436561,122.833755 75.6453734,123.152757 76.7318613,123.525962 C78.0377926,121.085804 80.0896244,118.863147 82.5983417,116.932563 L82.1757225,110.39751 L80.1121225,116.586287 C80.1121225,116.586287 77.2680096,118.053904 75.6322207,119.560532 C75.3542819,119.816355 74.8074037,119.952725 74.0161609,120.026952 C70.1547852,120.388418 60.4823092,119.26259 47.9480679,123.326068 C35.7225705,127.28908 32.4876819,130.922389 29.8287461,129.165461 C29.2036435,128.752554 28.6100384,128.041014 27.9395934,126.96559 C26.9050244,125.306366 25.9718701,122.894862 25.1712819,120.315573 C23.0519557,123.441723 21.2970996,127.378498 19.9530945,130.899948 C19.8406037,131.196164 19.7301897,131.489273 19.6228908,131.77962 C20.751952,138.689949 23.89131,146.553141 23.9750723,158.397644 C23.993417,158.400751 24.0117616,158.403858 24.0301063,158.40662 C24.0200686,157.626722 24.3083911,156.719776 24.9421469,155.629853 C25.2875801,155.035694 25.7607336,154.200903 26.3657609,153.182099" id="Fill-160" fill="#A33C3B"></path>
                    <path d="M32.8169165,320.31629 C31.8584951,335.340455 31.4410677,358.261301 31.2188552,360.585803 C31.140977,361.403678 31.3659585,363.104676 31.7131224,365.061153 C31.9737548,366.529805 32.3039585,368.142422 32.6258552,369.63455 C33.2052692,369.718099 33.7687615,369.83548 34.3125246,369.983243 C34.0030884,367.92423 33.7445327,365.996063 33.8307179,365.108105 C34.230839,360.973508 34.6607268,357.041222 35.0937297,353.330925 C37.1396773,335.776493 39.2448124,323.220796 38.5736751,317.901679 C39.1534353,309.175732 39.4434884,300.14908 39.2181607,290.495127 L43.0836899,267.215577 C40.3496449,267.061254 37.6740951,266.869646 35.0660397,266.65249 C34.7718331,279.992919 34.1308087,304.737323 33.2319209,314.772422 C33.0834331,316.433027 32.9456751,318.303539 32.8169165,320.31629" id="Fill-162" fill="#EBC285"></path>
                    <path d="M58.2025539,367.361696 C58.1167148,368.736788 58.0225686,370.205094 57.9308454,371.626449 C58.9996808,371.789747 60.2000439,372.164678 61.4419421,372.558597 L61.2685332,367.194599 L61.1681568,364.100556 C61.1681568,364.100556 61.0833561,362.878751 60.9404063,360.751381 C60.1155893,348.459792 57.3597384,305.938621 57.896579,294.062702 C58.5258351,280.129841 65.0689908,271.092832 65.0689908,271.092832 L79.8935443,267.939753 C79.975576,267.445714 80.0579539,266.946151 80.1396395,266.441065 C76.0030941,266.89471 71.9108528,267.20301 67.8819524,267.392547 C63.000545,267.622822 58.2132838,267.677715 53.5544351,267.601417 C53.901945,279.327848 54.2664151,288.65762 54.5838122,290.682454 C50.7902771,315.928838 57.3483162,352.685187 58.2025539,367.361696" id="Fill-164" fill="#EBC285"></path>
                    <path d="M67.0427712,124.467121 C63.9598317,124.843088 52.4456221,127.730332 50.5578539,130.366241 C48.6704317,133.001805 67.9229683,135.38707 77.9907196,140.282232 C88.0574325,145.177393 96.2997181,151.202181 92.7138583,147.24849 C89.1276524,143.294453 78.9342576,137.646323 70.1887055,134.006109 C61.4424613,130.366241 53.0115373,130.240574 56.2204664,129.048459 C59.4297417,127.855654 62.7643144,126.286882 69.5591033,125.910571 C76.3545845,125.533568 82.6464531,127.918833 78.5573269,126.099072 C74.4675085,124.27862 67.0427712,124.467121 67.0427712,124.467121" id="Fill-166" fill="#AED8B4"></path>
                    <path d="M45.5875615,136.830036 C46.8457275,137.332016 62.0724788,141.097551 66.224946,143.98445 C70.3777593,146.871349 71.0700102,147.436853 69.8741467,146.997017 C68.6786294,146.557871 52.3826965,140.344582 48.1668884,139.465946 C43.9514264,138.587655 41.8123711,138.900788 42.1269991,138.210997 C42.441281,137.520517 45.5875615,136.830036 45.5875615,136.830036" id="Fill-168" fill="#AED8B4"></path>
                    <path d="M58.736937,148.691111 C43.1325628,143.376827 25.0336624,148.942446 34.0723827,148.942446 C39.6723466,148.942446 55.2137259,149.946749 61.1276255,151.515521 C67.0422174,153.084983 69.3702573,154.339586 66.2873178,152.331324 C63.2043783,150.323407 58.736937,148.691111 58.736937,148.691111" id="Fill-170" fill="#AED8B4"></path>
                    <path d="M27.1470699,105.202301 C27.2727134,108.466547 27.1470699,122.774684 33.1873053,121.77038 C39.2275407,120.766767 35.8299732,117.754201 50.9300426,116.247917 C66.0308042,114.741979 70.8128736,114.114333 64.7726382,110.850776 C58.7320566,107.587566 38.7242743,111.478423 36.20725,107.963532 C33.6905717,104.449332 27.1470699,105.202301 27.1470699,105.202301" id="Fill-172" fill="#B74D4C"></path>
                    <path d="M67.3515497,201.724743 C70.0838641,215.077946 71.5047092,256.450157 74.6502973,258.20743 C77.7931165,259.962631 83.9510346,183.968347 76.9149962,182.144442 C65.6313062,179.218877 33.2491925,179.508533 31.7390472,187.039604 C29.4182759,198.615164 64.6192354,188.371541 67.3515497,201.724743" id="Fill-174" fill="#B74D4C"></path>
                    <path d="M19.6102226,131.627991 C20.9545739,128.106195 22.70943,124.16942 24.8287562,121.043615 C22.9039525,114.84241 21.7399325,107.674186 21.7399325,107.674186 C21.7399325,107.674186 19.6687178,123.927407 18.9397776,126.511876 C18.8072115,126.983128 18.6338027,127.438846 18.4226661,127.894563 C18.0713488,128.651329 17.6158477,129.408441 17.0662004,130.237363 C16.1316617,131.645943 14.9257606,133.262703 13.4997237,135.441169 C11.6977945,138.194115 5.5879879,137.115239 0.913217417,135.921053 C0.870643985,135.910006 0.828416679,135.899303 0.785843247,135.888256 C0.832570185,136.183091 0.882758376,136.479307 0.93433107,136.775178 C1.10150967,137.72735 8.39956502,139.789125 13.241168,140.448534 C14.5945185,140.632892 15.7564617,140.707464 16.5168993,140.618047 C16.6646949,140.60113 17.6196551,136.993715 19.2800189,132.507318 C19.3873178,132.217316 19.4977318,131.924207 19.6102226,131.627991" id="Fill-182" fill="#A33C3B"></path>
                    <path d="M26.0012215,119.449503 C20.2320024,126.627048 16.807437,140.58373 16.5170378,140.617909 C13.0374385,141.0284 1.14802893,137.993738 0.93446952,136.775385 C-3.17750096,113.292833 7.10173299,93.3472682 15.7912127,96.8027779 C19.0212555,98.0877621 26.0012215,119.449503 26.0012215,119.449503" id="Fill-184" fill="#AD4646"></path>
                </g>
            </g>
        </g>
    </g>
</svg>