<svg width="171px" height="171px" viewBox="0 0 382 377" version="1.1" className="up-quote" xmlns="http://www.w3.org/2000/svg">
  <title>ico-testimonials-1</title>
  <g id="Page-1" stroke="none" strokeWidth="1" fill="none" fillRule="evenodd" opacity="0.1">
    <g id="Guest-BBC-homepage-assets" transform="translate(-1371.000000, -4011.000000)" fill="#FFCD87" fillRule="nonzero">
      <g id="Group-10" transform="translate(1371.000000, 4011.000000)">
        <path
          d="M353.882883,9 L353.882883,59.8571429 C337.906827,68.5624631 325.924965,84.2547129 317.936937,106.934363 C309.948909,129.614013 305.954955,159.509467 305.954955,196.621622 L305.954955,212.428571 L371,212.428571 L371,365 L219,365 L219,250.915058 C219,181.730671 230.183071,126.97961 252.54955,86.6602317 C274.916028,46.3408537 308.693468,20.4543687 353.882883,9 Z M143.882883,9 L143.882883,59.8571429 C127.906827,68.5624631 115.924965,84.2547129 107.936937,106.934363 C99.948909,129.614013 95.954955,159.509467 95.954955,196.621622 L95.954955,212.428571 L161,212.428571 L161,365 L9,365 L9,250.915058 C9,181.730671 20.1830714,126.97961 42.5495495,86.6602317 C64.9160277,46.3408537 98.6934677,20.4543687 143.882883,9 Z"
          id="“"
        ></path>
      </g>
    </g>
  </g>
</svg>