<svg xmlns="http://www.w3.org/2000/svg" width="20" height="20" viewBox="0 0 20 20">
    <g fill="none" fill-rule="evenodd">
        <path stroke="#FFF" stroke-opacity=".012" stroke-width=".1" d="M0.05 0.05H19.95V19.95H0.05z"/>
        <path fill="#FFF" fill-rule="nonzero" d="M13.28 11.258l-2.829 2.607c-.298.274-.316.702-.041.956.275.253.74.236 1.037-.039l4.317-3.976c.298-.275.316-.703.041-.956l-3.984-3.67c-.275-.254-.74-.237-1.038.038-.298.274-.316.702-.041.956l2.907 2.678H4.761c-.423 0-.761.315-.761.703 0 .391.342.703.763.703h8.518zm1.472-1.356l.016-.014-.001.02-.015-.006z"/>
    </g>
</svg>
