<svg width="34" height="34" viewBox="0 0 34 34" fill="none" xmlns="http://www.w3.org/2000/svg">
    <circle cx="17" cy="17" r="17" fill="#231F20"/>
    <path fill-rule="evenodd" clip-rule="evenodd" d="M9.09 2.465A16.56 16.56 0 0 0 7.13 3.72c.101.336.156.692.156 1.06 0 2.054-1.7 3.719-3.795 3.719-.223 0-.442-.019-.655-.055-.38.627-.718 1.281-1.013 1.959a3.675 3.675 0 0 1 1.213 2.725c0 1.637-1.079 3.026-2.577 3.524a16.88 16.88 0 0 0 .125 2.423c1.668.391 2.907 1.862 2.907 3.616 0 .924-.344 1.77-.914 2.42.373.661.79 1.294 1.246 1.894.329-.091.676-.14 1.034-.14 2.096 0 3.795 1.665 3.795 3.719 0 .227-.021.45-.061.666.647.383 1.322.723 2.022 1.016a3.821 3.821 0 0 1 2.744-1.151 3.793 3.793 0 0 1 3.56 2.428H17c.729 0 1.446-.046 2.15-.138.486-1.504 1.922-2.593 3.618-2.593.82 0 1.58.255 2.202.69.755-.417 1.474-.89 2.152-1.415a3.66 3.66 0 0 1-.104-.87c0-2.053 1.699-3.718 3.794-3.718.127 0 .251.006.374.018.43-.713.806-1.46 1.125-2.238a3.667 3.667 0 0 1-1.043-2.561c0-1.524.935-2.834 2.274-3.408a16.895 16.895 0 0 0-.116-2.3 3.72 3.72 0 0 1-1.839-5.824c-.375-.699-.799-1.368-1.267-2.002a3.795 3.795 0 0 1-4.626-4.263 16.497 16.497 0 0 0-2.006-1.06A3.796 3.796 0 0 1 17.56.465a16.841 16.841 0 0 0-2.35.087c-.422 1.603-1.908 2.788-3.675 2.788a3.826 3.826 0 0 1-2.445-.874z" fill="#fff"/>
    <path d="M25.122 25.822s-.737.601-1.296 1.002a12.01 12.01 0 1 1 1.56-1.234l-.264.232z" fill="#212F60"/>
    <path d="M24.314 19.809c.209-.006 1.84-.076 2.4-.076-.027-.662-.072-1.279-.074-1.894-.01-1.746-.026-5.523-.043-5.696l-1.639.537c.07.323.185 1.447.195 1.74.008.25-.064.335-.301.287-.456-.094-.89.01-1.314.225-1.129.574-1.661 2.161-1.379 3.401.037.16.083.302.139.432a.59.59 0 0 1 .405.2c.122.134.179.308.172.517l.06.039.013.001.273.02a.226.226 0 0 0 .026.001c.093.004.312.013.468.209l.021.029c.18.025.374.034.578.028zm-.506-.82c-.16-.238-.221-2.274-.118-3.008.082-.582.486-.896.922-.877.347.016.526.215.536.631.01.484.002.968.002 1.452.001.446-.002.891.002 1.337.004.347-.08.634-.401.75-.374.136-.775.034-.943-.284zM11.596 16.483l-1.629.7c.013.085.028.158.034.23.04.462.115.926.102 1.386-.01.355-.224.599-.561.657-.555.097-.985-.13-1.333-.617-.785-1.103-.68-3.26-.236-4.12.428-.829 1.167-1.27 1.945-1.147.386.061.593.395.502.82-.027.122-.083.236-.12.355-.134.438.108.974.499 1.106.37.125.744-.158.845-.641a1.81 1.81 0 0 0-.847-1.907c-.93-.565-1.881-.44-2.808-.004-1.63.766-2.341 2.733-1.66 4.512.57 1.489 1.99 2.297 3.56 2.015.526-.094 1.049-.352 1.606.027l.101-.061v-3.311z" fill="#fff"/>
    <path d="M20.41 19.604c.12-.062.238-.133.351-.217 1.174-.874 1.457-2.443.656-3.64-.747-1.119-2.253-1.362-3.352-.544-1.114.83-1.394 2.413-.631 3.559.56.843 1.502 1.217 2.39 1.043a.454.454 0 0 1 .141-.086c.151-.056.3-.088.445-.116zm-.687-1.265c-.15.305-.383.57-.578.851-.268.15-.494.159-.736.037-.243-.122-.323-.334-.29-.595.028-.217.067-.447.163-.642.359-.734.738-1.457 1.117-2.18.056-.107.153-.194.24-.282.231-.24.488-.372.797-.214.292.15.438.44.282.833a28.87 28.87 0 0 1-.995 2.192z" fill="#fff"/>
    <path d="M13.197 19.08c-.121-.133-.15-.311-.115-.514.037-.216.087-.443.186-.636a80.41 80.41 0 0 1 1.149-2.119c.058-.105.157-.19.245-.276.236-.235.496-.362.802-.197.29.156.43.45.267.839-.311.738-.67 1.458-1.042 2.169a3.17 3.17 0 0 1-.304.456 4.95 4.95 0 0 1 .796-.043c.38.011.727.075 1.036.185.75-.883.865-2.128.225-3.139-.729-1.152-2.244-1.431-3.366-.621a2.642 2.642 0 0 0-.676 3.548c.118.184.255.347.407.487l.176-.066c.073-.026.144-.049.214-.072zM16.946 20.024a1.304 1.304 0 0 0-.624-.609 2.83 2.83 0 0 0-1.135-.25c-.63-.02-1.302.103-2.057.373-.627.224-1.143.479-1.58.777-.398.272-.924.698-.901 1.268.012.303.163.548.31.785.064.1.127.206.179.312.116.24.187.496.205.742l-.415.05c-.03.004-.059.01-.088.015l-.077.015-.034.006c-.107.004-.175.109-.178.204-.002.09.053.156.13.162.026.007.052.009.078.01l.03.003.037.003.061.002h.032a5.889 5.889 0 0 0 .337-.014c-.065.153-.13.307-.192.461l-.017.042c-.132.325-.27.661-.352 1.014-.01.043.008.083.043.098.01.005.021.007.031.007a.09.09 0 0 0 .077-.047c.162-.28.302-.576.44-.87l.35-.747.18-.024a13.67 13.67 0 0 0 1.618-.327 9.155 9.155 0 0 0 1.685-.607c.66-.32 1.122-.655 1.454-1.05.38-.454.676-1.165.373-1.804zm-.443 1.308c-.315.52-.864.848-1.25 1.05a8.14 8.14 0 0 1-1.573.606c-.523.148-1.086.26-1.815.363.332-.705.692-1.457 1.08-2.206.098-.19.187-.358.272-.512.018-.033.037-.065.058-.099.073-.122.149-.248.162-.392a.142.142 0 0 0-.06-.137.148.148 0 0 0-.08-.023.166.166 0 0 0-.094.029c-.12.082-.19.213-.258.34l-.029.053a20.5 20.5 0 0 0-.24.454 60.097 60.097 0 0 0-1.154 2.409 2.363 2.363 0 0 0-.33-.974l-.037-.062c-.177-.294-.36-.597-.235-.928.065-.17.191-.333.396-.512.448-.39 1.008-.643 1.446-.819a6.519 6.519 0 0 1 1.719-.457 3.485 3.485 0 0 1 1.114.038c.245.052.598.148.839.388.17.169.27.396.281.637.017.306-.107.579-.212.754zM18.533 21.143a.178.178 0 0 0 .036.071c.022.03.055.039.086.039a.163.163 0 0 0 .137-.083.43.43 0 0 0 .03-.07l.004-.01-.04-.023.044.013a.572.572 0 0 1 .043-.068c.025-.034.049-.066.07-.1l.015-.025c.023-.037.05-.077.062-.126a.217.217 0 0 0-.001-.123.156.156 0 0 0-.08-.097c-.073-.032-.154-.011-.224.055a.464.464 0 0 0-.08.122l-.014.025c-.023.044-.044.09-.061.14a.688.688 0 0 0-.034.138.36.36 0 0 0 .007.122z" fill="#fff"/>
    <path d="M23.762 21.545c-.018-.039-.06-.053-.098-.034-.311.145-.63.346-.953.595a1.139 1.139 0 0 0-.08-.09l-.077-.076a1.222 1.222 0 0 1-.18-.197c-.041-.062-.032-.117.033-.208a.67.67 0 0 1 .2-.185c.001.09.052.158.132.177.08.02.184-.014.23-.117.044-.096.094-.241.03-.386-.059-.13-.193-.188-.343-.15-.211.054-.422.216-.581.444a.735.735 0 0 0-.145.374v.042c-.226.37-.468.704-.721.992-.063.072-.14.155-.226.225-.07.058-.15.123-.234.123a.051.051 0 0 1-.025-.005l-.01-.002s-.005-.004-.009-.024a.311.311 0 0 1 .003-.123c.011-.088.035-.195.06-.291l.08-.265a12.67 12.67 0 0 1 .261-.78c.299-.253.589-.572.863-.95.106-.147.199-.293.274-.432l.053.002c.16.008.319.018.478.03l.28.022.045.005c.085.01.171.02.256-.036a.143.143 0 0 0 .064-.1.133.133 0 0 0-.027-.105c-.055-.068-.14-.072-.21-.075l-.04-.002c-.089-.007-.178-.015-.267-.02-.145-.011-.29-.02-.437-.028l-.055-.003c.023-.06.042-.12.058-.177.037-.138.074-.335-.037-.459a.234.234 0 0 0-.187-.086c-.159.004-.313.165-.43.305a2.93 2.93 0 0 0-.28.406c-.341.01-.647.04-.932.091l-.022.004c-.164.029-.334.06-.496.12a.099.099 0 0 0-.06.107c.006.04.038.068.08.068.106 0 .213-.013.316-.026l.13-.014a8.908 8.908 0 0 1 .82-.044 17.594 17.594 0 0 0-.721 1.65l-.012.022a5.964 5.964 0 0 1-.154.236l-.012.017c-.093.137-.188.278-.3.4a.833.833 0 0 1-.184.154c-.02.011-.04.02-.059.028l-.01.004c0-.005 0-.01.002-.018.018-.173.233-.622.26-.677l.008-.024.029-.077c.04-.12.077-.29.017-.414a.214.214 0 0 0-.125-.114.293.293 0 0 0-.234.03c-.106.058-.198.143-.275.217-.059.058-.114.12-.167.184l.015-.03.038-.066c.063-.11.141-.248.095-.384-.026-.077-.11-.094-.181-.072-.127.04-.201.194-.261.316a3.997 3.997 0 0 0-.178.382 9.229 9.229 0 0 1-.594.613l-.013.013c-.021.019-.03.028-.058.048-.007.006-.015.01-.023.015l.007-.026.02-.069c.038-.122.074-.222.11-.316l.02-.047.056-.143.063-.148c.015-.033.032-.066.05-.099a1.02 1.02 0 0 0 .093-.21c.023-.09 0-.17-.061-.214a.183.183 0 0 0-.216.01c-.105.079-.158.197-.212.315-.026.057-.05.116-.073.174a1.092 1.092 0 0 1-.097.065c-.128.075-.289.13-.375.072a.566.566 0 0 0 .013-.114c.125-.046.208-.177.215-.337.007-.16-.068-.297-.19-.35-.266-.112-.527.141-.628.255a1.815 1.815 0 0 0-.369.609c-.063.184-.126.45-.064.67.03.108.108.227.237.24.09.009.193-.032.306-.122.184-.146.29-.35.363-.51l.049-.116c.163.055.354-.034.446-.088a2.175 2.175 0 0 0-.078.34.971.971 0 0 0-.01.303c.013.07.049.129.102.165.053.036.12.045.186.027.107-.03.185-.113.256-.187l.014-.016c.1-.104.193-.213.29-.328l-.008.036c-.03.126-.064.267-.037.4a.1.1 0 0 0 .084.083.128.128 0 0 0 .13-.068.974.974 0 0 0 .059-.146 2.474 2.474 0 0 1 .216-.35c.12-.159.244-.303.37-.431a1.633 1.633 0 0 1 .293-.237v.002a1.691 1.691 0 0 1-.053.128l-.135.305-.005.01c-.106.258-.253.709-.031.838l.01.006.02.008c.042.016.085.02.128.013.1-.016.181-.088.242-.142.064-.056.121-.117.184-.187a2.26 2.26 0 0 0 .168-.208c-.075.308-.091.539-.045.688a.322.322 0 0 0 .116.156c.013.01.027.017.045.026l.06.023c.177.046.379-.06.616-.323.15-.169.281-.36.407-.547l.1-.146c.1-.145.202-.293.296-.445a.441.441 0 0 0 .088.098l.107.088c.056.045.11.09.166.138l.028.025.05.042c-.172.147-.331.299-.478.453-.197.208-.32.384-.402.572-.025.06-.094.217.02.315a.187.187 0 0 0 .124.043c.062 0 .12-.022.15-.033.223-.084.42-.244.6-.404.14-.124.332-.321.39-.59a.68.68 0 0 0-.02-.393c.256-.2.545-.399.907-.622.04-.027.049-.085.03-.124zm-1.791-1.859.022-.033c.049-.074.116-.175.183-.2.008-.003.027-.008.034-.002.021.022.02.12-.004.217-.016.068-.039.141-.065.216-.1-.003-.197-.006-.29-.006a3.18 3.18 0 0 1 .12-.192zm-.283.501c.105.001.21.004.316.007a2.5 2.5 0 0 1-.155.255 5.7 5.7 0 0 1-.582.71c.136-.342.268-.661.421-.972zm-4.254 1.459c-.002.03-.006.062-.003.094a.212.212 0 0 0-.066.092.31.31 0 0 0 .01.227l-.01.022c-.041.09-.083.176-.132.26-.07.121-.153.252-.262.284-.014-.031-.016-.106.029-.28l.004-.017c.037-.147.099-.286.183-.414.07-.105.151-.222.245-.272l.003-.002v.006zm4.926 1.373a2.2 2.2 0 0 1-.546.408l-.014.008-.049.025a.536.536 0 0 1 .038-.08l.006-.013a1.54 1.54 0 0 1 .185-.28 4.95 4.95 0 0 1 .476-.488c.035-.032.071-.065.108-.096.056.153-.012.327-.204.516z" fill="#fff"/>
</svg>
