<svg width="32" height="32" viewBox="0 0 32 32" fill="none" xmlns="http://www.w3.org/2000/svg">
    <circle cx="16" cy="16" r="13.333" fill="#C13584"/>
    <path d="M16 9.441c2.136 0 2.39.009 3.233.047.78.036 1.203.166 1.485.276.374.145.64.318.92.598.28.28.453.546.598.92.11.282.24.705.276 1.485.038.844.047 1.097.047 3.233s-.009 2.39-.047 3.233c-.036.78-.166 1.203-.276 1.485a2.48 2.48 0 0 1-.598.92c-.28.28-.546.453-.92.598-.282.11-.705.24-1.485.276-.844.038-1.097.046-3.233.046s-2.39-.008-3.233-.046c-.78-.036-1.203-.166-1.485-.276a2.478 2.478 0 0 1-.92-.598 2.48 2.48 0 0 1-.598-.92c-.11-.282-.24-.705-.276-1.485-.038-.844-.047-1.097-.047-3.233s.009-2.39.047-3.233c.036-.78.166-1.203.276-1.485.145-.374.318-.64.598-.92.28-.28.546-.453.92-.598.282-.11.705-.24 1.485-.276.844-.038 1.097-.047 3.233-.047zM16 8c-2.173 0-2.445.01-3.298.048-.852.039-1.433.174-1.942.372a3.922 3.922 0 0 0-1.417.923c-.445.444-.719.89-.923 1.417-.198.508-.333 1.09-.372 1.942C8.01 13.555 8 13.827 8 16s.01 2.445.048 3.298c.039.852.174 1.433.372 1.942.204.526.478.973.923 1.417.444.445.89.718 1.417.923.509.198 1.09.333 1.942.372.853.039 1.125.048 3.298.048s2.445-.01 3.298-.048c.852-.039 1.433-.174 1.942-.372a3.92 3.92 0 0 0 1.417-.923c.445-.445.719-.89.923-1.417.198-.509.333-1.09.372-1.942.039-.853.048-1.125.048-3.298s-.01-2.445-.048-3.298c-.039-.852-.174-1.434-.372-1.942a3.921 3.921 0 0 0-.923-1.417 3.922 3.922 0 0 0-1.417-.923c-.509-.198-1.09-.333-1.942-.372C18.445 8.01 18.173 8 16 8z" fill="#fff"/>
    <path d="M16.004 11.896a4.108 4.108 0 1 0 0 8.216 4.108 4.108 0 0 0 0-8.216zm0 6.774a2.667 2.667 0 1 1 0-5.333 2.667 2.667 0 0 1 0 5.333zM21.234 11.73a.96.96 0 1 1-1.92 0 .96.96 0 0 1 1.92 0z" fill="#fff"/>
</svg>
