<svg width="360" height="206" viewBox="0 0 360 206" fill="none" xmlns="http://www.w3.org/2000/svg">
    <mask id="0rrmuk1loa" style="mask-type:alpha" maskUnits="userSpaceOnUse" x="0" y="0" width="360" height="206">
        <path fill="#C4C4C4" d="M0 0h360v206H0z"/>
    </mask>
    <g mask="url(#0rrmuk1loa)">
        <path fill="#fff" d="M.758 9h360v197h-360z"/>
        <rect x="208.758" y="159" width="86" height="25" rx="4" fill="#212F60"/>
        <path d="M220.219 179.107c-.41 0-.768-.043-1.072-.128v-1.512c.312.078.597.117.855.117.399 0 .684-.125.856-.375.172-.246.257-.633.257-1.16v-8.028h1.817v8.016c0 1-.229 1.762-.686 2.285-.457.524-1.132.785-2.027.785zm13.145-6.814c0 1.418-.352 2.508-1.055 3.269-.703.762-1.711 1.143-3.024 1.143-1.312 0-2.32-.381-3.023-1.143-.703-.761-1.055-1.855-1.055-3.281 0-1.426.352-2.513 1.055-3.263.707-.754 1.719-1.131 3.035-1.131 1.317 0 2.322.379 3.018 1.136.699.758 1.049 1.848 1.049 3.27zm-6.252 0c0 .957.181 1.678.544 2.162.364.484.907.727 1.629.727 1.45 0 2.174-.963 2.174-2.889 0-1.93-.72-2.895-2.162-2.895-.723 0-1.267.245-1.635.733-.367.484-.55 1.205-.55 2.162zm8.527 4.295v-8.567h1.816v8.567h-1.816zm12.072 0h-2.308l-3.727-6.481h-.053c.075 1.145.112 1.961.112 2.45v4.031h-1.623v-8.567h2.291l3.72 6.417h.041a52.964 52.964 0 0 1-.088-2.362v-4.055h1.635v8.567zm13.879 0h-2.309l-3.726-6.481h-.053c.074 1.145.112 1.961.112 2.45v4.031h-1.624v-8.567h2.291l3.721 6.417h.041a52.964 52.964 0 0 1-.088-2.362v-4.055h1.635v8.567zm10.438-4.295c0 1.418-.352 2.508-1.055 3.269-.703.762-1.711 1.143-3.024 1.143-1.312 0-2.32-.381-3.023-1.143-.703-.761-1.055-1.855-1.055-3.281 0-1.426.352-2.513 1.055-3.263.707-.754 1.719-1.131 3.035-1.131 1.317 0 2.322.379 3.018 1.136.699.758 1.049 1.848 1.049 3.27zm-6.252 0c0 .957.181 1.678.545 2.162.363.484.906.727 1.628.727 1.45 0 2.174-.963 2.174-2.889 0-1.93-.72-2.895-2.162-2.895-.722 0-1.267.245-1.635.733-.367.484-.55 1.205-.55 2.162zm16.871 4.295h-2.069l-1.16-4.5c-.043-.16-.117-.49-.222-.99a11.447 11.447 0 0 1-.176-1.014c-.024.211-.082.551-.176 1.02-.094.464-.166.796-.217.996l-1.154 4.488h-2.063l-2.185-8.567h1.787l1.096 4.676c.191.864.33 1.612.416 2.244.023-.222.076-.566.158-1.031.086-.469.166-.832.24-1.09l1.248-4.799h1.717l1.248 4.799c.055.215.123.543.205.985.082.441.145.82.188 1.136.039-.304.101-.683.187-1.136.086-.457.164-.826.234-1.108l1.09-4.676h1.787l-2.179 8.567z" fill="#fff"/>
        <path d="M150.328 46.782c-.251 0-.469-.016-.656-.048a2.43 2.43 0 0 1-.492-.116v-1.374c.145.037.303.069.471.096.169.027.349.04.54.04.251 0 .479-.047.684-.143.205-.095.367-.269.485-.52.123-.25.185-.603.185-1.059v-9.652h1.641v9.597c0 .743-.119 1.347-.356 1.812-.237.47-.57.813-.998 1.032-.428.224-.93.335-1.504.335zm12.257-6.583c0 .63-.082 1.187-.246 1.675-.165.488-.404.9-.718 1.237a3.17 3.17 0 0 1-1.135.766c-.442.173-.941.26-1.497.26-.52 0-.996-.087-1.429-.26a3.26 3.26 0 0 1-1.128-.766 3.512 3.512 0 0 1-.731-1.237c-.173-.488-.26-1.046-.26-1.675 0-.834.144-1.54.431-2.119a3.061 3.061 0 0 1 1.244-1.333c.538-.305 1.178-.458 1.921-.458.697 0 1.312.153 1.846.458.533.305.95.75 1.25 1.333.301.583.452 1.29.452 2.12zm-5.49 0c0 .552.066 1.023.199 1.415.136.392.346.693.629.903.282.205.647.307 1.093.307.447 0 .811-.102 1.094-.307.283-.21.49-.51.622-.903.132-.392.198-.863.198-1.415 0-.551-.066-1.018-.198-1.401-.132-.388-.339-.681-.622-.882-.283-.205-.649-.308-1.101-.308-.665 0-1.15.224-1.456.67-.305.447-.458 1.087-.458 1.921zm9.222-3.766V44h-1.607v-7.567h1.607zm-.793-2.899c.246 0 .458.066.636.198.182.133.273.36.273.684 0 .319-.091.547-.273.684-.178.132-.39.198-.636.198a1.06 1.06 0 0 1-.65-.198c-.173-.137-.259-.365-.259-.684 0-.324.086-.551.259-.684a1.06 1.06 0 0 1 .65-.198zm7.321 2.755c.852 0 1.515.221 1.989.663.479.438.718 1.142.718 2.113V44h-1.607v-4.635c0-.588-.12-1.027-.362-1.32-.241-.295-.615-.443-1.121-.443-.734 0-1.244.225-1.531.676-.283.452-.424 1.105-.424 1.962V44h-1.606v-7.567h1.25l.226 1.025h.089c.164-.264.367-.48.608-.65.246-.173.52-.303.821-.39.305-.086.622-.129.95-.129zM185.628 44h-1.648v-8.6h-2.926v-1.394h7.492V35.4h-2.918V44zm6.172-10.637v2.673c0 .278-.009.55-.027.814-.014.264-.03.469-.048.615h.089a2.17 2.17 0 0 1 .588-.65c.232-.173.492-.303.779-.39.292-.086.602-.13.93-.13.578 0 1.071.099 1.476.295.406.191.716.49.93.895.219.406.328.932.328 1.58V44h-1.606v-4.635c0-.588-.121-1.027-.363-1.32-.241-.295-.615-.443-1.121-.443-.487 0-.875.102-1.162.307-.283.2-.485.5-.608.896-.123.392-.185.87-.185 1.435V44h-1.606V33.363h1.606zm10.589 2.926c.674 0 1.253.14 1.736.417.483.278.854.672 1.114 1.183.26.51.39 1.12.39 1.832v.861h-5.052c.018.734.214 1.299.588 1.695.378.397.907.595 1.586.595.483 0 .916-.045 1.299-.137a7.224 7.224 0 0 0 1.196-.417v1.306a5.222 5.222 0 0 1-1.155.39 6.978 6.978 0 0 1-1.408.123c-.743 0-1.397-.144-1.962-.43a3.15 3.15 0 0 1-1.32-1.3c-.314-.574-.471-1.287-.471-2.14 0-.847.143-1.567.43-2.16.287-.592.691-1.043 1.21-1.353.52-.31 1.126-.465 1.819-.465zm0 1.21c-.506 0-.916.164-1.231.492-.31.328-.492.81-.547 1.443h3.446a2.66 2.66 0 0 0-.192-1.005 1.455 1.455 0 0 0-.547-.684c-.241-.164-.551-.246-.929-.246zm13.445 1.073h3.733v5.018a11.18 11.18 0 0 1-1.627.403 11.28 11.28 0 0 1-1.887.144c-1.016 0-1.877-.2-2.584-.602a3.913 3.913 0 0 1-1.599-1.757c-.365-.77-.547-1.697-.547-2.782 0-1.044.202-1.948.608-2.714a4.233 4.233 0 0 1 1.771-1.784c.774-.424 1.713-.636 2.816-.636.542 0 1.066.055 1.572.164.511.105.978.251 1.402.438l-.575 1.353a6.463 6.463 0 0 0-1.134-.403 5.158 5.158 0 0 0-1.306-.164c-.716 0-1.333.155-1.853.465-.515.31-.911.747-1.189 1.312-.278.56-.417 1.224-.417 1.99 0 .742.112 1.394.335 1.955.223.56.572.998 1.046 1.312.478.31 1.096.465 1.852.465.379 0 .7-.02.964-.062.265-.04.508-.086.732-.136v-2.577h-2.113v-1.402zm12.941 1.627c0 .63-.082 1.187-.247 1.675-.164.488-.403.9-.717 1.237a3.17 3.17 0 0 1-1.135.766c-.442.173-.941.26-1.497.26-.52 0-.996-.087-1.429-.26a3.26 3.26 0 0 1-1.128-.766 3.512 3.512 0 0 1-.731-1.237c-.173-.488-.26-1.046-.26-1.675 0-.834.144-1.54.431-2.119a3.061 3.061 0 0 1 1.244-1.333c.538-.305 1.178-.458 1.921-.458.697 0 1.312.153 1.845.458.534.305.951.75 1.251 1.333.301.583.452 1.29.452 2.12zm-5.49 0c0 .552.066 1.023.199 1.415.136.392.346.693.628.903.283.205.648.307 1.094.307.447 0 .811-.102 1.094-.307.283-.21.49-.51.622-.903.132-.392.198-.863.198-1.415 0-.551-.066-1.018-.198-1.401-.132-.388-.339-.681-.622-.882-.283-.205-.649-.308-1.101-.308-.665 0-1.15.224-1.456.67-.305.447-.458 1.087-.458 1.921zm14.314 0c0 .63-.082 1.187-.246 1.675-.164.488-.403.9-.717 1.237a3.17 3.17 0 0 1-1.135.766c-.442.173-.941.26-1.497.26-.52 0-.996-.087-1.429-.26a3.26 3.26 0 0 1-1.128-.766 3.512 3.512 0 0 1-.731-1.237c-.173-.488-.26-1.046-.26-1.675 0-.834.143-1.54.431-2.119a3.061 3.061 0 0 1 1.244-1.333c.538-.305 1.178-.458 1.921-.458.697 0 1.312.153 1.845.458.534.305.951.75 1.251 1.333.301.583.451 1.29.451 2.12zm-5.489 0c0 .552.066 1.023.198 1.415.137.392.347.693.629.903.283.205.648.307 1.094.307.447 0 .811-.102 1.094-.307.282-.21.49-.51.622-.903.132-.392.198-.863.198-1.415 0-.551-.066-1.018-.198-1.401-.132-.388-.34-.681-.622-.882-.283-.205-.65-.308-1.101-.308-.665 0-1.15.224-1.456.67-.305.447-.458 1.087-.458 1.921zm10.158 3.938c-.902 0-1.627-.328-2.174-.985-.542-.66-.813-1.633-.813-2.919 0-1.298.276-2.28.827-2.946.556-.665 1.287-.998 2.194-.998.383 0 .718.053 1.005.157.287.1.533.237.739.41.209.174.387.367.533.581h.075a16.35 16.35 0 0 1-.082-.608 7.506 7.506 0 0 1-.041-.745v-2.72h1.613V44h-1.258l-.287-1.032h-.068c-.137.218-.31.417-.52.594a2.414 2.414 0 0 1-.738.418 2.89 2.89 0 0 1-1.005.157zm.451-1.306c.688 0 1.174-.198 1.456-.595.283-.396.429-.99.438-1.784v-.212c0-.847-.137-1.497-.41-1.948-.274-.456-.773-.684-1.497-.684-.579 0-1.021.235-1.327.705-.3.464-.451 1.114-.451 1.948 0 .834.151 1.472.451 1.914.306.437.752.656 1.34.656zm12.995-8.825c1.29 0 2.231.264 2.823.793.593.529.889 1.269.889 2.221 0 .433-.069.846-.205 1.238a2.617 2.617 0 0 1-.657 1.032c-.305.296-.708.531-1.209.704-.497.173-1.11.26-1.839.26h-1.067V44h-1.64v-9.994h2.905zm-.109 1.36h-1.156v3.52h.896c.515 0 .952-.059 1.312-.177.36-.123.634-.317.821-.581.186-.264.28-.613.28-1.046 0-.579-.176-1.01-.527-1.292-.346-.282-.888-.424-1.626-.424zm12.632 4.833c0 .63-.082 1.187-.246 1.675-.164.488-.403.9-.718 1.237a3.161 3.161 0 0 1-1.135.766c-.442.173-.941.26-1.497.26-.519 0-.995-.087-1.428-.26a3.26 3.26 0 0 1-1.128-.766 3.499 3.499 0 0 1-.732-1.237c-.173-.488-.259-1.046-.259-1.675 0-.834.143-1.54.43-2.119a3.073 3.073 0 0 1 1.244-1.333c.538-.305 1.178-.458 1.921-.458.697 0 1.313.153 1.846.458.533.305.95.75 1.251 1.333.301.583.451 1.29.451 2.12zm-5.489 0c0 .552.066 1.023.198 1.415.137.392.346.693.629.903.283.205.647.307 1.094.307.446 0 .811-.102 1.093-.307.283-.21.49-.51.623-.903.132-.392.198-.863.198-1.415 0-.551-.066-1.018-.198-1.401-.133-.388-.34-.681-.623-.882-.282-.205-.649-.308-1.1-.308-.665 0-1.151.224-1.456.67-.306.447-.458 1.087-.458 1.921zm9.221-3.766V44h-1.606v-7.567h1.606zm-.793-2.899c.246 0 .458.066.636.198.182.133.273.36.273.684 0 .319-.091.547-.273.684-.178.132-.39.198-.636.198-.255 0-.471-.066-.649-.198-.173-.137-.26-.365-.26-.684 0-.324.087-.551.26-.684.178-.132.394-.198.649-.198zm7.321 2.755c.852 0 1.516.221 1.99.663.478.438.717 1.142.717 2.113V44h-1.606v-4.635c0-.588-.121-1.027-.362-1.32-.242-.295-.616-.443-1.122-.443-.733 0-1.244.225-1.531.676-.282.452-.424 1.105-.424 1.962V44h-1.606v-7.567h1.251l.225 1.025h.089c.164-.264.367-.48.609-.65.246-.173.519-.303.82-.39.305-.086.622-.129.95-.129zm8.053 6.549c.209 0 .417-.018.622-.055.205-.04.392-.089.56-.143v1.216a3.351 3.351 0 0 1-.69.199 4.639 4.639 0 0 1-.882.082 3 3 0 0 1-1.155-.212 1.692 1.692 0 0 1-.814-.745c-.2-.351-.3-.837-.3-1.456v-4.068h-1.033v-.718l1.108-.567.526-1.62h1.012v1.682h2.167v1.223h-2.167v4.047c0 .383.096.668.287.855.191.187.444.28.759.28zm8.086-.998c0 .497-.12.916-.362 1.258-.241.342-.595.601-1.059.779-.461.173-1.026.26-1.696.26-.528 0-.984-.039-1.367-.117a4.679 4.679 0 0 1-1.073-.341V42.29c.36.169.763.315 1.21.438a4.86 4.86 0 0 0 1.278.184c.529 0 .909-.082 1.142-.246a.79.79 0 0 0 .348-.67.714.714 0 0 0-.143-.437c-.091-.133-.265-.267-.52-.404a9.94 9.94 0 0 0-1.107-.506 9.195 9.195 0 0 1-1.21-.574 2.103 2.103 0 0 1-.745-.69c-.169-.274-.253-.622-.253-1.046 0-.67.264-1.178.793-1.525.533-.35 1.237-.526 2.112-.526.465 0 .902.048 1.313.144.414.09.82.225 1.216.403l-.506 1.21a7.49 7.49 0 0 0-1.032-.37c-.342-.1-.69-.15-1.046-.15-.414 0-.731.064-.95.192a.603.603 0 0 0-.321.547.67.67 0 0 0 .157.45c.105.124.285.247.54.37.26.123.62.276 1.08.458.451.173.841.355 1.169.547.333.187.588.417.766.69.178.274.266.627.266 1.06zm6.097 2.16v-9.994h1.641v8.6h4.245V44h-5.886zm14.431-3.8c0 .628-.082 1.186-.246 1.674-.164.488-.404.9-.718 1.237a3.161 3.161 0 0 1-1.135.766c-.442.173-.941.26-1.497.26-.519 0-.996-.087-1.429-.26a3.265 3.265 0 0 1-1.127-.766 3.499 3.499 0 0 1-.732-1.237c-.173-.488-.26-1.046-.26-1.675 0-.834.144-1.54.431-2.119a3.067 3.067 0 0 1 1.244-1.333c.538-.305 1.178-.458 1.921-.458.697 0 1.313.153 1.846.458.533.305.95.75 1.251 1.333.3.583.451 1.29.451 2.12zm-5.489 0c0 .55.066 1.022.198 1.414.137.392.346.693.629.903.282.205.647.307 1.094.307.446 0 .811-.102 1.093-.307.283-.21.49-.51.622-.903.133-.392.199-.863.199-1.415 0-.551-.066-1.018-.199-1.401-.132-.388-.339-.681-.622-.882-.282-.205-.649-.308-1.1-.308-.666 0-1.151.224-1.456.67-.306.447-.458 1.087-.458 1.921zm6.473-3.767h1.75l1.552 4.32c.068.196.13.39.184.581.06.187.11.371.151.554.045.182.082.364.109.547h.041c.046-.237.109-.502.191-.793.087-.297.183-.593.288-.89l1.49-4.32h1.729l-3.247 8.607a4.734 4.734 0 0 1-.69 1.258c-.269.35-.588.615-.957.793a2.82 2.82 0 0 1-1.265.273c-.228 0-.426-.013-.595-.04a4.837 4.837 0 0 1-.43-.076v-1.285c.095.023.216.043.362.061.146.019.296.028.451.028.287 0 .536-.057.745-.171.21-.114.388-.276.534-.486.145-.204.266-.44.362-.704l.266-.71-3.021-7.547zm11.881-.144c.957 0 1.679.212 2.167.636.492.424.738 1.084.738 1.982V44h-1.142l-.307-1.073h-.055a3.893 3.893 0 0 1-.663.676c-.228.178-.492.31-.793.397-.296.091-.659.137-1.087.137-.451 0-.855-.082-1.21-.246a1.925 1.925 0 0 1-.841-.766c-.205-.342-.307-.775-.307-1.299 0-.78.289-1.365.868-1.757.583-.392 1.463-.608 2.638-.65l1.313-.047v-.396c0-.524-.123-.898-.369-1.121-.242-.224-.584-.335-1.026-.335-.378 0-.745.054-1.1.164-.356.109-.702.243-1.039.403l-.52-1.135a5.84 5.84 0 0 1 1.258-.478 5.855 5.855 0 0 1 1.477-.185zm1.312 4.095-.977.034c-.803.027-1.365.164-1.689.41-.324.246-.485.583-.485 1.012 0 .373.111.647.335.82.223.169.517.253.881.253.556 0 1.017-.157 1.381-.472.369-.319.554-.786.554-1.401v-.656zM335.076 44h-1.613V33.363h1.613V44zm5.393-1.162c.21 0 .417-.018.622-.055.206-.04.392-.089.561-.143v1.216a3.37 3.37 0 0 1-.69.199 4.639 4.639 0 0 1-.882.082c-.429 0-.814-.07-1.156-.212a1.694 1.694 0 0 1-.813-.745c-.2-.351-.301-.837-.301-1.456v-4.068h-1.032v-.718l1.107-.567.527-1.62h1.012v1.682h2.167v1.223h-2.167v4.047c0 .383.095.668.287.855.191.187.444.28.758.28zm1.86-6.405h1.75l1.551 4.32c.069.196.13.39.185.581.059.187.109.371.15.554.046.182.082.364.11.547h.041c.045-.237.109-.502.191-.793.087-.297.182-.593.287-.89l1.49-4.32h1.73l-3.247 8.607a4.707 4.707 0 0 1-.691 1.258c-.269.35-.588.615-.957.793-.369.182-.79.273-1.264.273-.228 0-.426-.013-.595-.04a4.867 4.867 0 0 1-.431-.076v-1.285c.096.023.217.043.363.061.145.019.296.028.451.028.287 0 .535-.057.745-.171.21-.114.387-.276.533-.486.146-.204.267-.44.362-.704l.267-.71-3.021-7.547zM184.797 51.006c1.29 0 2.231.264 2.823.793.592.529.889 1.269.889 2.221 0 .433-.069.846-.205 1.238a2.628 2.628 0 0 1-.657 1.032c-.305.296-.708.531-1.21.704-.496.173-1.109.26-1.838.26h-1.067V61h-1.64v-9.994h2.905zm-.11 1.36h-1.155v3.52h.896c.515 0 .952-.059 1.312-.177.36-.123.634-.317.82-.581.187-.264.281-.613.281-1.046 0-.579-.176-1.01-.527-1.292-.346-.282-.888-.424-1.627-.424zm9.769.923a4.64 4.64 0 0 1 .806.075l-.15 1.504a2.027 2.027 0 0 0-.356-.061 3.742 3.742 0 0 0-.369-.02c-.287 0-.56.047-.82.143a1.93 1.93 0 0 0-1.162 1.128c-.114.282-.171.61-.171.984V61h-1.613v-7.567h1.258l.218 1.333h.076c.15-.27.337-.515.56-.739.223-.223.479-.4.766-.533.291-.137.61-.205.957-.205zm9.187 3.91c0 .63-.082 1.187-.246 1.675-.164.488-.403.9-.718 1.237a3.161 3.161 0 0 1-1.135.766c-.442.173-.941.26-1.497.26a3.81 3.81 0 0 1-1.428-.26 3.26 3.26 0 0 1-1.128-.766 3.499 3.499 0 0 1-.732-1.237c-.173-.488-.26-1.046-.26-1.675 0-.834.144-1.54.431-2.119a3.067 3.067 0 0 1 1.244-1.333c.538-.305 1.178-.458 1.921-.458.697 0 1.313.153 1.846.458.533.305.95.75 1.251 1.333.301.583.451 1.29.451 2.12zm-5.489 0c0 .552.066 1.023.198 1.415.137.392.346.693.629.903.282.205.647.307 1.094.307.446 0 .811-.102 1.093-.307.283-.21.49-.51.622-.903.133-.392.199-.863.199-1.415 0-.551-.066-1.018-.199-1.401-.132-.388-.339-.681-.622-.882-.282-.205-.649-.308-1.1-.308-.666 0-1.151.224-1.456.67-.306.447-.458 1.087-.458 1.921zm9.775 7.164c-1.026 0-1.812-.184-2.359-.553-.546-.37-.82-.887-.82-1.552 0-.465.146-.86.438-1.183.291-.319.708-.54 1.251-.663a1.394 1.394 0 0 1-.534-.424 1.068 1.068 0 0 1-.218-.65c0-.282.079-.523.239-.724.159-.2.399-.394.718-.58a2.08 2.08 0 0 1-.957-.821c-.237-.383-.356-.832-.356-1.347 0-.547.116-1.011.349-1.394a2.201 2.201 0 0 1 1.018-.882c.447-.205.987-.308 1.62-.308.137 0 .285.01.445.028.164.013.314.032.451.054.141.019.248.039.321.062h2.618v.895l-1.285.24a2.255 2.255 0 0 1 .404 1.313c0 .783-.272 1.4-.814 1.852-.538.446-1.281.67-2.228.67a7.667 7.667 0 0 1-.664-.055 1.23 1.23 0 0 0-.375.335.664.664 0 0 0-.13.403c0 .123.043.223.13.3a.876.876 0 0 0 .382.165 3.1 3.1 0 0 0 .629.055h1.306c.829 0 1.463.175 1.9.526.438.35.657.866.657 1.545 0 .861-.356 1.524-1.067 1.99-.711.469-1.734.703-3.069.703zm.061-1.128c.561 0 1.033-.054 1.415-.164.383-.11.673-.266.869-.471.195-.2.293-.44.293-.718 0-.246-.061-.435-.184-.567-.123-.133-.308-.224-.554-.274a4.69 4.69 0 0 0-.916-.075h-1.189a2.1 2.1 0 0 0-.786.136 1.222 1.222 0 0 0-.534.41 1.1 1.1 0 0 0-.184.643c0 .347.152.613.458.8.31.187.747.28 1.312.28zm.315-5.892c.469 0 .818-.128 1.046-.383.228-.26.341-.624.341-1.094 0-.51-.118-.893-.355-1.148-.232-.255-.579-.383-1.039-.383-.451 0-.795.13-1.032.39-.233.26-.349.645-.349 1.155 0 .46.116.82.349 1.08.237.255.583.383 1.039.383zm9.344-4.054a4.605 4.605 0 0 1 .807.075l-.151 1.504a2.013 2.013 0 0 0-.355-.061 3.775 3.775 0 0 0-.369-.02 2.35 2.35 0 0 0-.82.143 1.943 1.943 0 0 0-1.163 1.128c-.113.282-.17.61-.17.984V61h-1.614v-7.567h1.258l.219 1.333h.075c.15-.27.337-.515.561-.739.223-.223.478-.4.765-.533.292-.137.611-.205.957-.205zm5.455 0c.957 0 1.679.212 2.167.636.492.424.738 1.084.738 1.982V61h-1.141l-.308-1.073h-.055a3.893 3.893 0 0 1-.663.676c-.228.178-.492.31-.793.397-.296.091-.658.137-1.087.137-.451 0-.854-.082-1.21-.246a1.923 1.923 0 0 1-.84-.766c-.205-.342-.308-.775-.308-1.299 0-.78.289-1.365.868-1.757.584-.392 1.463-.608 2.639-.65l1.312-.047v-.396c0-.524-.123-.898-.369-1.121-.241-.224-.583-.335-1.025-.335-.378 0-.745.054-1.101.164a7.79 7.79 0 0 0-1.039.403l-.519-1.135a5.831 5.831 0 0 1 1.257-.478 5.86 5.86 0 0 1 1.477-.185zm1.313 4.095-.978.034c-.802.027-1.365.164-1.688.41-.324.246-.486.583-.486 1.012 0 .373.112.647.335.82.223.169.517.253.882.253.556 0 1.016-.157 1.381-.472.369-.319.554-.786.554-1.401v-.656zm12.673-4.095c.848 0 1.486.219 1.914.656.433.438.65 1.14.65 2.106V61h-1.607v-4.662c0-.574-.112-1.007-.335-1.299-.223-.292-.563-.437-1.018-.437-.638 0-1.099.205-1.381.615-.278.405-.417.996-.417 1.77V61h-1.607v-4.662c0-.383-.05-.702-.15-.957a1.123 1.123 0 0 0-.444-.581c-.201-.132-.454-.198-.759-.198-.442 0-.795.1-1.06.3-.26.2-.446.497-.56.889-.114.387-.171.864-.171 1.429V61h-1.607v-7.567h1.251l.226 1.018h.089a2.14 2.14 0 0 1 .574-.65c.232-.172.49-.3.772-.382a3 3 0 0 1 .882-.13c.565 0 1.042.1 1.429.3.387.197.677.498.868.903h.123a2.18 2.18 0 0 1 .991-.909 3.172 3.172 0 0 1 1.347-.294zM254.596 61h-2.016l-4.895-7.977h-.061c.018.268.034.553.048.854.018.3.031.61.041.93.013.319.025.642.034.97V61h-1.49v-9.994h2.002l4.888 7.923h.048l-.034-.8c-.014-.3-.028-.61-.041-.93a83.779 83.779 0 0 1-.021-.936v-5.257h1.497V61zm9.441-3.8c0 .628-.083 1.186-.247 1.674-.164.488-.403.9-.717 1.237a3.17 3.17 0 0 1-1.135.766c-.442.173-.941.26-1.497.26-.52 0-.996-.087-1.429-.26a3.26 3.26 0 0 1-1.128-.766 3.512 3.512 0 0 1-.731-1.237c-.173-.488-.26-1.046-.26-1.675 0-.834.144-1.54.431-2.119a3.061 3.061 0 0 1 1.244-1.333c.538-.305 1.178-.458 1.921-.458.697 0 1.312.153 1.845.458.534.305.951.75 1.251 1.333.301.583.452 1.29.452 2.12zm-5.49 0c0 .55.066 1.022.199 1.414.136.392.346.693.628.903.283.205.648.307 1.094.307.447 0 .811-.102 1.094-.307.282-.21.49-.51.622-.903.132-.392.198-.863.198-1.415 0-.551-.066-1.018-.198-1.401-.132-.388-.34-.681-.622-.882-.283-.205-.65-.308-1.101-.308-.665 0-1.15.224-1.456.67-.305.447-.458 1.087-.458 1.921zm13.802 3.793-.957-3.52a72.788 72.788 0 0 1-.356-1.388l-.177-.732-.117-.519h-.054c-.023.123-.06.296-.11.52a49.537 49.537 0 0 1-.362 1.504c-.059.25-.114.464-.164.642l-1.005 3.493h-1.764l-2.119-7.567h1.627l.985 3.76c.063.255.125.53.184.827.064.296.119.579.164.847.046.27.08.49.103.663h.054a28.862 28.862 0 0 1 .185-1.06c.041-.209.082-.405.123-.587.041-.187.08-.337.116-.451l1.162-4h1.757l1.114 4c.051.173.105.392.164.656.06.26.112.522.158.786.05.26.082.476.095.65h.055c.018-.155.05-.365.096-.63.05-.268.107-.553.171-.854.063-.305.13-.588.198-.848l1.005-3.76h1.599l-2.132 7.568h-1.798zm12.577-10.138c.515 0 .966.085 1.354.253.392.169.697.415.916.739.219.319.328.708.328 1.169 0 .615-.191 1.134-.574 1.558a5.816 5.816 0 0 1-1.449 1.135l2.358 2.297c.223-.306.408-.64.554-1.005.145-.37.271-.756.376-1.162h1.661a9.802 9.802 0 0 1-.588 1.675 6.649 6.649 0 0 1-.95 1.504l2.03 1.982h-2.058l-1.011-.991a5.48 5.48 0 0 1-.91.594c-.319.17-.667.301-1.045.397a5.353 5.353 0 0 1-1.251.137c-.698 0-1.299-.112-1.805-.335-.506-.224-.896-.543-1.169-.957-.269-.42-.403-.916-.403-1.49 0-.479.079-.89.239-1.231.164-.346.396-.65.697-.91a6.43 6.43 0 0 1 1.08-.751 8.158 8.158 0 0 1-.595-.759 3.254 3.254 0 0 1-.389-.759 2.695 2.695 0 0 1-.13-.847c0-.465.114-.864.342-1.197.228-.337.547-.594.957-.772.41-.182.888-.273 1.435-.273zm-.67 5.585c-.264.169-.492.34-.683.513-.192.169-.34.356-.445.56-.1.206-.15.445-.15.718 0 .47.164.841.492 1.115.333.273.761.41 1.285.41.461 0 .864-.069 1.21-.205.351-.142.657-.317.916-.527l-2.625-2.584zm.643-4.313c-.324 0-.604.084-.841.253-.232.168-.348.43-.348.786 0 .287.075.558.225.814.155.25.369.521.643.813.478-.264.834-.524 1.066-.78.237-.255.356-.55.356-.888 0-.319-.108-.565-.322-.738a1.2 1.2 0 0 0-.779-.26zm15.62 3.445h3.732v5.018c-.524.173-1.066.307-1.627.403-.561.096-1.189.144-1.887.144-1.016 0-1.877-.2-2.584-.602a3.913 3.913 0 0 1-1.599-1.757c-.365-.77-.547-1.697-.547-2.782 0-1.044.203-1.948.608-2.714a4.233 4.233 0 0 1 1.771-1.784c.774-.424 1.713-.636 2.816-.636.542 0 1.067.055 1.572.164.511.105.978.251 1.402.438l-.574 1.353a6.503 6.503 0 0 0-1.135-.403 5.152 5.152 0 0 0-1.306-.164c-.715 0-1.333.155-1.852.465a3.08 3.08 0 0 0-1.19 1.312c-.278.56-.417 1.224-.417 1.99 0 .742.112 1.394.335 1.955.223.56.572.998 1.046 1.312.479.31 1.096.465 1.853.465.378 0 .699-.02.963-.062.265-.04.509-.086.732-.136v-2.577h-2.112v-1.402zm9.255-2.283c.675 0 1.253.14 1.736.417.484.278.855.672 1.115 1.183.259.51.389 1.12.389 1.832v.861h-5.051c.018.734.214 1.299.588 1.695.378.397.906.595 1.585.595.484 0 .916-.045 1.299-.137a7.233 7.233 0 0 0 1.197-.417v1.306a5.248 5.248 0 0 1-1.156.39 6.971 6.971 0 0 1-1.408.123c-.743 0-1.397-.144-1.962-.43-.56-.293-1-.726-1.319-1.3-.315-.574-.472-1.287-.472-2.14 0-.847.144-1.567.431-2.16.287-.592.69-1.043 1.21-1.353.519-.31 1.125-.465 1.818-.465zm0 1.21c-.506 0-.916.164-1.23.492-.31.328-.493.81-.547 1.443h3.445a2.64 2.64 0 0 0-.191-1.005 1.461 1.461 0 0 0-.547-.684c-.242-.164-.552-.246-.93-.246zm8.148 5.339c.21 0 .417-.018.622-.055.205-.04.392-.089.561-.143v1.216a3.363 3.363 0 0 1-.691.199 4.62 4.62 0 0 1-.881.082c-.429 0-.814-.07-1.156-.212a1.69 1.69 0 0 1-.813-.745c-.201-.351-.301-.837-.301-1.456v-4.068h-1.032v-.718l1.107-.567.527-1.62h1.011v1.682h2.167v1.223h-2.167v4.047c0 .383.096.668.288.855.191.187.444.28.758.28z" fill="#000"/>
        <circle cx="251.036" cy="111.43" r="33.218" fill="#231F20"/>
        <path fill-rule="evenodd" clip-rule="evenodd" d="M235.582 83.027a32.348 32.348 0 0 0-3.833 2.456c.198.656.305 1.35.305 2.07 0 4.013-3.32 7.267-7.415 7.267-.436 0-.863-.037-1.279-.108a32.244 32.244 0 0 0-1.98 3.828 7.182 7.182 0 0 1 2.37 5.326c0 3.197-2.107 5.912-5.035 6.884a32.69 32.69 0 0 0 .245 4.734c3.259.765 5.682 3.639 5.682 7.067a7.154 7.154 0 0 1-1.787 4.731 32.394 32.394 0 0 0 2.433 3.698 7.576 7.576 0 0 1 2.023-.273c4.095 0 7.415 3.253 7.415 7.266 0 .445-.041.881-.119 1.304a32.234 32.234 0 0 0 3.949 1.983 7.473 7.473 0 0 1 5.364-2.249c3.191 0 5.911 1.975 6.957 4.746h.16c1.423 0 2.825-.092 4.2-.27.951-2.938 3.757-5.068 7.07-5.068 1.604 0 3.088.499 4.302 1.348a32.34 32.34 0 0 0 4.206-2.764 7.159 7.159 0 0 1-.204-1.699c0-4.013 3.32-7.266 7.415-7.266.247 0 .49.012.731.035a32.27 32.27 0 0 0 2.198-4.373 7.17 7.17 0 0 1-2.039-5.005c0-2.977 1.828-5.536 4.443-6.659a32.824 32.824 0 0 0-.225-4.494 7.27 7.27 0 0 1-3.593-11.378 32.225 32.225 0 0 0-2.478-3.915 7.415 7.415 0 0 1-9.038-8.33 32.234 32.234 0 0 0-3.919-2.067 7.418 7.418 0 0 1-11.974-2.733 32.956 32.956 0 0 0-4.591.169c-.823 3.133-3.726 5.449-7.181 5.449a7.477 7.477 0 0 1-4.778-1.71z" fill="#fff"/>
        <path d="M262.779 126.739s-1.256 1.031-2.209 1.718a20.345 20.345 0 0 1-14.955 3.109 20.443 20.443 0 0 1-12.928-8.185 20.726 20.726 0 0 1-3.704-14.922 20.648 20.648 0 0 1 7.583-13.35 20.364 20.364 0 0 1 14.649-4.345 20.419 20.419 0 0 1 13.557 7.079 20.705 20.705 0 0 1 4.917 14.561 20.673 20.673 0 0 1-6.46 13.937l-.45.398z" fill="#231F20"/>
        <path d="M266.339 126.406s-1.256 1.039-2.209 1.73a20.223 20.223 0 0 1-14.955 3.132c-5.196-.953-9.829-3.907-12.928-8.244a20.989 20.989 0 0 1-3.704-15.029c.723-5.307 3.44-10.125 7.583-13.446a20.263 20.263 0 0 1 14.649-4.377c5.256.513 10.114 3.068 13.557 7.13a20.95 20.95 0 0 1 4.917 14.666c-.287 5.349-2.602 10.379-6.46 14.037l-.45.401z" fill="#231F20"/>
        <path d="M266.907 128.668s-1.441 1.174-2.533 1.956a23.468 23.468 0 0 1-36.225-22.769 23.465 23.465 0 0 1 25.496-20.147 23.468 23.468 0 0 1 13.778 40.507l-.516.453z" fill="#212F60"/>
        <path d="M263.042 123.811s-1.102.906-1.937 1.508a17.823 17.823 0 0 1-13.113 2.729 17.926 17.926 0 0 1-11.336-7.184 18.204 18.204 0 0 1-3.247-13.097 18.125 18.125 0 0 1 6.649-11.717 17.842 17.842 0 0 1 12.844-3.814 17.897 17.897 0 0 1 11.887 6.213 18.182 18.182 0 0 1 4.311 12.781 18.153 18.153 0 0 1-5.664 12.232l-.394.349z" fill="#212F60"/>
        <path d="M267.687 123.305c-1.817-.14-2.795-1.49-3.057-2.147l1.235-1.571c.248.594 1.098 1.899 2.522 2.373l-.131.291-.569 1.054zM262.948 123.887l-1.236.485c.149.679.801 2.065 2.225 2.184l1.186-.89 1.23-1.294c-1.581.194-2.993-.081-3.405-.485z" fill="#212F60"/>
        <path d="M239.194 104.914c0-.611.044-1.216.131-1.816a6.811 6.811 0 0 1 .472-1.707c.228-.537.55-1.012.966-1.424.417-.416.952-.743 1.605-.98.654-.237 1.45-.356 2.39-.356.208 0 .462.012.762.036.301.025.55.054.748.088v2.244a7.294 7.294 0 0 0-.668-.095 7.978 7.978 0 0 0-.908-.043c-.716 0-1.283.109-1.699.327-.412.213-.709.52-.893.922-.184.402-.291.884-.32 1.445h.087c.126-.232.279-.44.458-.624a1.92 1.92 0 0 1 .675-.443c.266-.112.588-.167.966-.167.62 0 1.152.135 1.598.406.445.267.787.656 1.024 1.17.237.513.356 1.138.356 1.874 0 .794-.153 1.474-.458 2.04a3.08 3.08 0 0 1-1.292 1.293c-.557.296-1.223.443-1.998.443a4.479 4.479 0 0 1-1.59-.276 3.425 3.425 0 0 1-1.271-.842c-.359-.383-.64-.864-.843-1.445-.198-.586-.298-1.276-.298-2.07zm3.937 2.36a.908.908 0 0 0 .741-.349c.193-.232.29-.598.29-1.096 0-.402-.08-.717-.239-.944-.155-.233-.41-.349-.763-.349-.237 0-.438.058-.603.174-.165.112-.29.254-.378.429-.087.174-.13.356-.13.544 0 .189.019.378.058.567.043.189.109.361.196.516.092.15.206.273.341.37a.848.848 0 0 0 .487.138zM256.189 104.107c0 .853-.068 1.615-.203 2.288-.136.668-.354 1.237-.654 1.707-.295.47-.688.828-1.177 1.075-.489.247-1.089.37-1.801.37-.886 0-1.612-.215-2.179-.646-.566-.436-.985-1.058-1.256-1.867-.266-.813-.4-1.789-.4-2.927 0-1.147.121-2.128.364-2.941.246-.818.651-1.445 1.212-1.881.562-.436 1.315-.654 2.259-.654.886 0 1.61.218 2.172.654.566.43.985 1.055 1.256 1.874.271.813.407 1.796.407 2.948zm-4.815 0c0 .693.024 1.274.072 1.743.054.47.15.824.291 1.061a.689.689 0 0 0 .617.348c.267 0 .47-.116.61-.348.141-.237.238-.588.291-1.053.053-.47.08-1.053.08-1.751 0-.702-.027-1.288-.08-1.757-.053-.47-.15-.823-.291-1.061-.14-.242-.343-.363-.61-.363-.266 0-.472.121-.617.363-.141.238-.237.591-.291 1.061a17.763 17.763 0 0 0-.072 1.757zM265.5 104.107c0 .853-.068 1.615-.204 2.288-.135.668-.353 1.237-.653 1.707-.296.47-.688.828-1.177 1.075-.489.247-1.089.37-1.801.37-.886 0-1.613-.215-2.179-.646-.567-.436-.985-1.058-1.257-1.867-.266-.813-.399-1.789-.399-2.927 0-1.147.121-2.128.363-2.941.247-.818.651-1.445 1.213-1.881.562-.436 1.315-.654 2.259-.654.886 0 1.61.218 2.171.654.567.43.986 1.055 1.257 1.874.271.813.407 1.796.407 2.948zm-4.816 0c0 .693.024 1.274.073 1.743.053.47.15.824.29 1.061a.69.69 0 0 0 .618.348.673.673 0 0 0 .61-.348c.14-.237.237-.588.29-1.053.054-.47.08-1.053.08-1.751 0-.702-.026-1.288-.08-1.757-.053-.47-.15-.823-.29-1.061-.141-.242-.344-.363-.61-.363-.267 0-.472.121-.618.363-.14.238-.237.591-.29 1.061a17.422 17.422 0 0 0-.073 1.757zM262.758 121.483c.299-.008 2.638-.106 3.442-.106-.039-.931-.103-1.798-.107-2.664-.013-2.453-.037-7.762-.06-8.006l-2.351.755c.099.454.265 2.034.279 2.445.012.353-.092.472-.432.404-.653-.131-1.277.015-1.885.317-1.618.806-2.382 3.037-1.977 4.78.052.224.119.424.199.607.217.012.422.11.58.282.176.188.257.432.248.727.029.019.056.038.087.054l.017.002.391.028.038.001c.134.006.447.018.671.294a.521.521 0 0 1 .03.04c.259.036.536.048.83.04zm-.726-1.152c-.231-.335-.317-3.197-.169-4.229.117-.818.697-1.26 1.322-1.232.498.021.755.302.768.887.014.68.004 1.36.004 2.04.001.627-.004 1.253.003 1.88.005.488-.114.891-.576 1.055-.536.189-1.111.046-1.352-.401zM244.517 116.808l-2.336.984c.018.12.039.222.048.324.056.649.165 1.301.147 1.947-.015.498-.323.842-.806.924-.795.136-1.413-.183-1.911-.867-1.127-1.551-.976-4.583-.339-5.792.615-1.165 1.673-1.785 2.79-1.612.553.086.85.555.719 1.152-.038.172-.118.332-.17.5-.194.615.153 1.368.714 1.554.532.176 1.068-.222 1.212-.901.218-1.029-.254-2.109-1.215-2.681-1.334-.793-2.698-.618-4.026-.006-2.34 1.077-3.359 3.843-2.381 6.344.817 2.092 2.852 3.229 5.105 2.832.755-.132 1.504-.495 2.304.037l.145-.086v-4.653z" fill="#fff"/>
        <path d="M257.159 121.194c.173-.086.34-.187.503-.304 1.684-1.229 2.089-3.435.941-5.118-1.072-1.572-3.232-1.914-4.808-.763-1.598 1.165-2 3.391-.906 5.002.805 1.184 2.155 1.71 3.428 1.467a.662.662 0 0 1 .203-.122 3.84 3.84 0 0 1 .639-.162zm-.986-1.777c-.216.428-.549.8-.829 1.196-.384.212-.708.223-1.055.052-.35-.172-.464-.47-.417-.837.041-.305.097-.628.235-.902a114.262 114.262 0 0 1 1.601-3.065c.08-.15.22-.272.343-.396.333-.336.701-.523 1.144-.301.42.211.628.619.405 1.171-.422 1.047-.916 2.07-1.427 3.082z" fill="#fff"/>
        <path d="M246.813 120.459c-.174-.188-.216-.439-.165-.723.053-.304.124-.623.267-.895a113.56 113.56 0 0 1 1.647-2.978c.084-.147.226-.267.351-.388.34-.33.712-.509 1.151-.277.415.22.616.634.383 1.179a40.534 40.534 0 0 1-1.494 3.049 4.461 4.461 0 0 1-.437.642 7.28 7.28 0 0 1 1.142-.061 4.932 4.932 0 0 1 1.486.26c1.076-1.242 1.241-2.992.323-4.412-1.045-1.619-3.218-2.012-4.827-.874-1.611 1.141-2.04 3.345-.97 4.988.169.259.366.488.583.685.084-.031.167-.062.253-.092.105-.037.206-.07.307-.103zM252.189 121.785a1.845 1.845 0 0 0-.895-.855c-.46-.216-1.007-.333-1.627-.352-.903-.027-1.867.144-2.95.525-.899.314-1.639.672-2.267 1.091-.57.382-1.325.982-1.292 1.783.017.425.235.77.446 1.103.09.142.182.289.255.439.167.338.269.696.295 1.042-.199.025-.397.048-.596.071a2.757 2.757 0 0 0-.126.021l-.11.02-.049.01c-.153.005-.251.152-.255.286-.003.127.076.219.186.228.038.009.075.012.111.015l.045.004c.017.001.035.004.052.004.027.001.051.003.088.003h.046a9.446 9.446 0 0 0 .484-.021 30.83 30.83 0 0 0-.277.649l-.024.058c-.19.457-.386.93-.504 1.426-.014.06.01.116.062.138a.1.1 0 0 0 .044.009.128.128 0 0 0 .11-.065c.232-.394.433-.811.63-1.223l.504-1.051c.086-.01.173-.023.258-.034a19.79 19.79 0 0 0 2.319-.459c.925-.24 1.717-.518 2.418-.853.947-.451 1.609-.922 2.085-1.476.545-.638.97-1.637.534-2.536zm-.635 1.839c-.451.729-1.238 1.191-1.793 1.475-.646.331-1.384.611-2.255.852-.751.208-1.558.366-2.604.511.477-.991.994-2.049 1.549-3.101.142-.267.269-.503.391-.72l.082-.139c.105-.171.214-.348.233-.552a.197.197 0 0 0-.086-.192.213.213 0 0 0-.115-.032.244.244 0 0 0-.134.04c-.173.116-.274.3-.371.479l-.04.073c-.108.194-.222.404-.345.64a82.886 82.886 0 0 0-1.655 3.385 3.284 3.284 0 0 0-.473-1.368l-.054-.087c-.254-.413-.518-.84-.337-1.305.093-.24.274-.469.568-.719.643-.55 1.446-.904 2.074-1.152.877-.346 1.683-.556 2.465-.642a5.097 5.097 0 0 1 1.599.053c.351.072.857.207 1.203.545.243.237.386.556.403.896.024.43-.153.813-.305 1.06zM254.466 123.358c.01.044.031.073.052.1a.149.149 0 0 0 .123.054.233.233 0 0 0 .053-.006.234.234 0 0 0 .144-.111.564.564 0 0 0 .043-.098l.005-.014-.057-.032.064.019c.018-.036.042-.07.061-.097a1.49 1.49 0 0 0 .1-.14l.022-.034c.033-.052.071-.11.088-.178a.298.298 0 0 0-.001-.173.218.218 0 0 0-.116-.136c-.103-.045-.22-.016-.319.078a.65.65 0 0 0-.116.17l-.019.035a1.429 1.429 0 0 0-.088.198 1.02 1.02 0 0 0-.049.194.514.514 0 0 0 .01.171z" fill="#fff"/>
        <path d="M261.966 123.923c-.026-.055-.085-.074-.141-.048a7.47 7.47 0 0 0-1.367.837 1.786 1.786 0 0 0-.115-.127l-.11-.106a1.72 1.72 0 0 1-.257-.278c-.061-.087-.047-.164.046-.292a.953.953 0 0 1 .288-.26c.001.127.073.222.189.249a.291.291 0 0 0 .33-.165c.063-.135.135-.339.042-.542-.084-.183-.277-.265-.492-.211-.302.076-.605.304-.833.624a1.02 1.02 0 0 0-.207.526.58.58 0 0 0 0 .059c-.325.52-.672.989-1.035 1.394a2.79 2.79 0 0 1-.324.316c-.101.082-.216.173-.335.173a.07.07 0 0 1-.036-.007l-.016-.002s-.006-.006-.011-.034a.405.405 0 0 1 .004-.173c.015-.125.049-.274.086-.409l.114-.373a17.072 17.072 0 0 1 .375-1.097 7.64 7.64 0 0 0 1.237-1.334c.153-.207.286-.412.393-.608l.076.003c.229.011.457.026.687.042l.399.031.066.007c.122.014.246.027.367-.05a.198.198 0 0 0 .091-.142.185.185 0 0 0-.038-.146c-.078-.097-.201-.102-.301-.106l-.056-.003-.384-.029a32.45 32.45 0 0 0-.627-.038l-.078-.004c.033-.084.06-.169.082-.249.054-.194.106-.472-.053-.645a.34.34 0 0 0-.268-.121c-.228.005-.449.231-.617.428-.139.163-.27.35-.401.571a9.47 9.47 0 0 0-1.337.128l-.031.005c-.236.041-.48.084-.712.168a.139.139 0 0 0-.086.151.111.111 0 0 0 .114.096c.153 0 .307-.018.455-.036.061-.006.123-.015.186-.02a12.958 12.958 0 0 1 1.177-.061c-.183.355-.357.718-.519 1.078-.189.418-.365.838-.517 1.24l-.017.031c-.068.109-.14.214-.221.332l-.017.024c-.134.192-.27.391-.431.562a1.19 1.19 0 0 1-.264.216c-.027.017-.056.028-.084.04l-.014.005a.12.12 0 0 1 .003-.024c.026-.244.334-.875.372-.952l.013-.034c.014-.036.029-.072.04-.109.059-.167.112-.406.025-.582a.307.307 0 0 0-.179-.159.43.43 0 0 0-.336.041 1.93 1.93 0 0 0-.394.306 3.455 3.455 0 0 0-.24.258l.022-.041c.016-.03.035-.061.054-.094.091-.155.203-.349.136-.54-.036-.107-.158-.132-.259-.101-.182.058-.288.273-.375.445-.014.03-.029.058-.042.083-.07.132-.14.281-.213.454a13.343 13.343 0 0 1-.851.861l-.019.018c-.031.027-.044.04-.083.068-.01.008-.022.015-.033.022l.009-.037.029-.097a6.56 6.56 0 0 1 .159-.444l.027-.067.082-.2.09-.209c.021-.046.046-.092.072-.139.051-.094.104-.19.132-.295.033-.127 0-.239-.087-.3a.266.266 0 0 0-.31.012c-.15.112-.226.278-.304.444-.036.081-.072.162-.104.244a1.658 1.658 0 0 1-.139.092c-.184.106-.414.184-.539.1a.736.736 0 0 0 .02-.159c.178-.064.297-.248.308-.474.01-.225-.097-.417-.273-.491-.381-.158-.756.198-.9.357a2.566 2.566 0 0 0-.53.856c-.09.259-.18.634-.091.943.043.152.154.319.339.337.13.012.277-.045.439-.172.263-.204.417-.491.52-.717.025-.053.049-.107.071-.162.233.076.507-.049.64-.124a2.977 2.977 0 0 0-.112.477c-.021.14-.039.288-.014.427a.344.344 0 0 0 .145.231.329.329 0 0 0 .268.039c.153-.043.266-.16.366-.264l.021-.021c.143-.148.277-.3.416-.462l-.012.05c-.043.177-.092.376-.052.562a.142.142 0 0 0 .12.118.184.184 0 0 0 .186-.097c.038-.072.066-.148.084-.204l.084-.153c.076-.128.151-.24.227-.339.171-.224.35-.427.53-.607.104-.102.193-.178.282-.242.037-.026.084-.059.139-.09l-.001.003a2.513 2.513 0 0 1-.075.179c-.067.144-.131.287-.194.43l-.006.013c-.154.363-.363.997-.046 1.178l.014.008.03.013a.364.364 0 0 0 .182.017c.145-.022.261-.124.348-.199.091-.079.174-.165.264-.263.087-.093.167-.191.241-.293-.108.434-.131.758-.065.968.038.097.093.17.166.219.02.014.04.023.066.036l.085.032c.254.066.544-.083.883-.453a7.35 7.35 0 0 0 .585-.769l.143-.206c.142-.203.289-.412.424-.626a.612.612 0 0 0 .127.138l.154.124c.079.064.158.128.237.195l.04.034.071.06c-.245.206-.474.42-.684.637-.283.291-.46.539-.577.804-.036.083-.134.305.028.443.054.045.118.06.178.06.089 0 .173-.032.216-.047.32-.118.603-.343.86-.568.201-.174.476-.451.56-.829a.93.93 0 0 0-.028-.553c.366-.281.781-.56 1.3-.874.058-.038.069-.12.043-.174zm-2.569-2.613.031-.046c.071-.104.166-.247.263-.281.012-.004.038-.013.049-.003.03.03.029.169-.005.304a3.08 3.08 0 0 1-.095.304c-.144-.004-.281-.008-.415-.008.061-.104.117-.191.172-.27zm-.405.705c.15.001.301.005.452.009a3.643 3.643 0 0 1-.222.359 8.175 8.175 0 0 1-.834.999c.195-.483.383-.931.604-1.367zm-6.102 2.05c-.004.042-.009.087-.005.132a.299.299 0 0 0-.094.129.426.426 0 0 0 .016.319l-.015.032a4.85 4.85 0 0 1-.19.365c-.101.17-.22.354-.376.399-.021-.043-.024-.148.041-.394l.006-.023c.054-.207.142-.402.262-.582.1-.149.218-.312.351-.383l.006-.003c-.002.003-.002.006-.002.009zm7.065 1.93a3.145 3.145 0 0 1-.784.573l-.019.011-.07.036a.767.767 0 0 1 .054-.113l.009-.018a2.16 2.16 0 0 1 .265-.394c.217-.259.467-.492.682-.686l.155-.135c.081.216-.017.46-.292.726z" fill="#fff"/>
        <mask id="31ybngzahb" style="mask-type:alpha" maskUnits="userSpaceOnUse" x="0" y="9" width="361" height="197">
            <path fill="#fff" d="M.758 9h360v197h-360z"/>
        </mask>
        <g mask="url(#31ybngzahb)">
            <ellipse rx="84.462" ry="82.966" transform="matrix(-1 0 0 1 72.585 95.203)" fill="#E0E8F7"/>
            <path d="M-4.331 206.373 6.591 185.58a.21.21 0 0 0 .026-.104 93.436 93.436 0 0 1 3.065-18.285c2.466-9.069 7.444-21.291 17.155-28.006 2.374-1.642 17.604-24.984 18.238-25.975 3.716-4.698 6.903-6.608 9.725-5.834 1.495.406 2.661 1.532 3.33 3.171.957 2.345.742 5.35-.555 7.817L50.1 132.602a.253.253 0 0 0-.026.171.24.24 0 0 0 .09.144c5.979 4.758 15.686 24.465 15.032 30.564-.443 4.136-2.022 8.046-4.545 11.252l-7.417 9.45a.245.245 0 0 0-.054.141l-.652 22.065" fill="#fff"/>
            <path d="M-4.331 206.373 6.591 185.58a.21.21 0 0 0 .026-.104 93.436 93.436 0 0 1 3.065-18.285c2.466-9.069 7.444-21.291 17.155-28.006 2.374-1.642 17.604-24.984 18.238-25.975 3.716-4.698 6.903-6.608 9.725-5.834 1.495.406 2.661 1.532 3.33 3.171.957 2.345.742 5.35-.555 7.817L50.1 132.602a.253.253 0 0 0-.026.171.24.24 0 0 0 .09.144c5.979 4.758 15.686 24.465 15.032 30.564-.443 4.136-2.022 8.046-4.545 11.252l-7.417 9.45a.245.245 0 0 0-.054.141l-.652 22.065" stroke="#000" stroke-miterlimit="10"/>
            <path d="M22.12 144.94c-9.011 35.225-4.096 58.572 8.601 61.849 2.244.579 2.574 1.806 1.774 3.276h2.322l-3.615 1.69c-4.01 4.199-13.877 9.05-15.226 7.117l15.226-7.117c.556-.582 1-1.152 1.293-1.69H5.325c-2.55.486-7.6 1.145-9.489.361-.407.271-1.215-1.126-.545-.361.126.145.311.264.545.361.29-.193.376-1.231-.419-4.495l6.63-11.714 4.508-8.113c.41-9.489 4.096-31.006 15.565-41.164z" fill="#F0F0F0" style="mix-blend-mode:multiply"/>
            <path d="m26.697 125.708-6.5 1.85c-3.157.9-6.466-1.258-7.378-4.802l-.36-1.387a7.184 7.184 0 0 1 .512-5.035 5.953 5.953 0 0 1 1.479-1.908 5.602 5.602 0 0 1 2.082-1.122l6.5-1.85 3.665 14.254z" fill="#F5F3F3" stroke="#000" stroke-miterlimit="10"/>
            <path d="M53.404 186.263c-3.405.972-7.04-1.637-8.117-5.828L34.77 139.481c-1.076-4.188.813-8.37 4.219-9.339 3.408-.969 7.04 1.639 8.117 5.827l10.53 40.954c1.052 4.188-.822 8.37-4.23 9.34z" fill="#fff" stroke="#000" stroke-miterlimit="10"/>
            <path d="M51.951 186.7c.511 0 1.02-.071 1.513-.211 3.522-1.003 5.486-5.324 4.377-9.635l-10.515-40.947c-.497-2.02-1.663-3.787-3.289-4.982a5.995 5.995 0 0 0-2.453-1.106 5.853 5.853 0 0 0-2.668.093 6.065 6.065 0 0 0-2.346 1.335 6.466 6.466 0 0 0-1.589 2.256 9.18 9.18 0 0 0-.442 6.041l10.53 40.954c.497 2.021 1.663 3.788 3.289 4.984a6.175 6.175 0 0 0 3.593 1.218zm1.396-.673a5.441 5.441 0 0 1-2.473.082 5.565 5.565 0 0 1-2.274-1.026c-1.532-1.136-2.63-2.81-3.095-4.72l-10.527-40.957a8.66 8.66 0 0 1 .413-5.711 5.99 5.99 0 0 1 1.47-2.094c.63-.576 1.372-1 2.175-1.242a5.435 5.435 0 0 1 2.471-.082c.82.163 1.596.513 2.273 1.026 1.534 1.134 2.632 2.808 3.095 4.72l10.53 40.954c1.043 4.053-.778 8.112-4.058 9.047v.003z" fill="#1E1E51"/>
            <path d="M48.053 150.598c-2.79.793-5.417.016-5.866-1.737l-4.41-17.149c-.451-1.753 1.444-3.817 4.234-4.613 2.79-.793 5.417 0 5.869 1.737l4.406 17.146c.452 1.756-1.444 3.82-4.233 4.616z" fill="#F5F3F3" stroke="#000" stroke-miterlimit="10"/>
            <path d="m50.117 125.179.74 2.883c.697 2.709-.825 5.5-3.4 6.233l-12.288 3.499c-2.574.733-5.225-.869-5.922-3.578l-.74-2.883c-.697-2.709.825-5.5 3.4-6.233l12.288-3.499c2.574-.733 5.225.869 5.922 3.578z" fill="#fff" stroke="#000" stroke-miterlimit="10"/>
            <path d="M33.89 138.21c.449 0 .895-.062 1.328-.186l12.29-3.499a4.932 4.932 0 0 0 1.77-.921c.526-.428.966-.96 1.295-1.568a5.483 5.483 0 0 0 .63-1.967 5.56 5.56 0 0 0-.137-2.07l-.741-2.882a5.388 5.388 0 0 0-.874-1.862 5.11 5.11 0 0 0-1.488-1.364 4.854 4.854 0 0 0-1.868-.666 4.777 4.777 0 0 0-1.968.144l-12.29 3.502c-1.294.369-2.395 1.263-3.063 2.487a5.566 5.566 0 0 0-.496 4.036l.742 2.886c.172.674.469 1.306.874 1.859.406.554.911 1.017 1.488 1.363a4.84 4.84 0 0 0 2.508.708zm13.499-4.148-12.288 3.5a4.355 4.355 0 0 1-1.791.132 4.429 4.429 0 0 1-1.701-.604 4.664 4.664 0 0 1-1.356-1.242 4.927 4.927 0 0 1-.797-1.694l-.741-2.883a5.075 5.075 0 0 1 .458-3.669c.607-1.111 1.608-1.925 2.783-2.262l12.29-3.499a4.34 4.34 0 0 1 1.792-.132c.6.082 1.178.288 1.7.607.525.315.986.736 1.355 1.24.368.503.639 1.079.795 1.693l.742 2.885c.16.614.201 1.255.124 1.885a4.98 4.98 0 0 1-.576 1.79 4.738 4.738 0 0 1-1.18 1.42 4.477 4.477 0 0 1-1.61.833z" fill="#1E1E51"/>
            <path d="m46.883 129.371-14.315 4.091a3.616 3.616 0 0 1-2.868-.391 3.955 3.955 0 0 1-1.766-2.41 4.164 4.164 0 0 1 .37-3.02 3.82 3.82 0 0 1 2.29-1.861l14.313-4.074c.967-.276 2-.135 2.869.39a3.958 3.958 0 0 1 1.768 2.41 4.162 4.162 0 0 1-.376 3.011 3.812 3.812 0 0 1-2.285 1.854z" fill="#000"/>
            <path d="m46.458 127.885-13.902 3.959c-1.634.458-3.34.555-5.012.284a11.845 11.845 0 0 1-4.699-1.858c-3.015-1.977-5.2-5.091-6.108-8.706l-.747-2.917c-1.956-7.6 1.964-15.347 8.73-17.276l13.905-3.958 7.833 30.472z" fill="#1E1E51"/>
            <path d="m46.458 127.885-13.902 3.959c-1.634.458-3.34.555-5.012.284a11.845 11.845 0 0 1-4.699-1.858c-3.015-1.977-5.2-5.091-6.108-8.706l-.747-2.917c-1.956-7.6 1.964-15.347 8.73-17.276l13.905-3.958 7.833 30.472z" fill="#fff" stroke="#000" stroke-miterlimit="10"/>
            <path d="m76.296 61.988 19.463 75.536-16.35-7.042c-10.605-4.765-21.844-5.705-32.52-2.722l-7.836-30.473c10.65-3.09 19.906-9.864 26.779-19.613l10.464-15.686z" fill="#1E1E51"/>
            <path d="m76.296 61.988 19.463 75.536-16.35-7.042c-10.605-4.765-21.844-5.705-32.52-2.722l-7.836-30.473c10.65-3.09 19.906-9.864 26.779-19.613l10.464-15.686z" fill="#fff" stroke="#000" stroke-miterlimit="10"/>
            <path d="M102.38 95.472c5.722 21.712 4.469 40.96-2.799 43.006-7.268 2.045-17.798-13.896-23.52-35.602-5.723-21.705-4.485-40.96 2.795-43.005 7.28-2.045 17.801 13.896 23.524 35.601z" fill="#fff" stroke="#000" stroke-miterlimit="10"/>
            <path d="M79.543 101.12c-4.471-17.06-4.011-32.075 1.027-33.538 5.038-1.462 12.746 11.182 17.217 28.242 4.47 17.059 4.011 32.074-1.027 33.537-5.038 1.462-12.747-11.182-17.217-28.241z" fill="#E7E7E7"/>
            <path d="M71.083 95.762 80.65 93.1c3.887-1.09 8.12 2.07 9.418 7.051 1.3 4.985-.81 9.906-4.712 10.992l-9.567 2.662-4.706-18.043z" fill="#F5F3F3" stroke="#000" stroke-miterlimit="10"/>
            <path d="M87.777 101.939c-.406-1.917-.039-3.814.831-4.94a7.347 7.347 0 0 1 1.764 3.564 8.344 8.344 0 0 1-.37 4.916c-1.01-.576-1.869-1.851-2.225-3.54z" fill="#E8E8E8" stroke="#000" stroke-miterlimit="10"/>
            <path d="M79.543 101.12c-4.471-17.06-4.011-32.075 1.027-33.538 5.038-1.462 12.746 11.182 17.217 28.242 4.47 17.059 4.011 32.074-1.027 33.537-5.038 1.462-12.747-11.182-17.217-28.241z" stroke="#000" stroke-miterlimit="10"/>
            <path d="m37.568 97.603 4.158-1.168 7.702 30.68-4.216 1.124-7.644-30.636z" fill="#E7E7E7" stroke="#000" stroke-miterlimit="10"/>
            <path d="M56.51 169.104c-3.642 1.196-6.168.944-7.726-.727a4.685 4.685 0 0 1-1.016-1.799 4.865 4.865 0 0 1-.159-2.087c.106-.792.381-1.55.804-2.215a5.176 5.176 0 0 1 1.639-1.627l11.032-6.734c.56-.352 1.15-.649 1.761-.887 2.69-1.02 4.784-1.127 6.135-.315.945.554 1.564 1.558 1.848 2.98.648 3.247-1.074 6.715-4.096 8.244l-10.222 5.167z" fill="#fff" stroke="#000" stroke-miterlimit="10"/>
            <path d="M51.643 159.39c-3.642 1.195-6.168.959-7.726-.727a4.672 4.672 0 0 1-1.015-1.8 4.845 4.845 0 0 1-.157-2.086 5.47 5.47 0 0 1 .803-2.215 5.145 5.145 0 0 1 1.64-1.624l11.032-6.737c.56-.351 1.15-.648 1.761-.888 2.691-1.019 4.784-1.126 6.135-.314.942.553 1.564 1.557 1.848 2.98.649 3.247-1.073 6.714-4.096 8.244l-10.225 5.167zM47.799 148.386c-3.558 1.306-6.072 1.199-7.693-.314a4.3 4.3 0 0 1-1.081-1.649 4.499 4.499 0 0 1-.252-1.986 5.175 5.175 0 0 1 .71-2.154 4.885 4.885 0 0 1 1.544-1.6l10.64-6.903c.54-.363 1.11-.671 1.704-.922 2.64-1.095 4.682-1.294 6.073-.595.956.484 1.617 1.406 1.961 2.744.786 3.049-.768 6.419-3.698 8.008l-9.908 5.371z" fill="#fff" stroke="#000" stroke-miterlimit="10"/>
            <path d="M41.819 176.215s3.886-16.464-12.537-16.508c-2.67 0 19.733-1.573 20.232-9.106.5-7.533-11.58-6.809-23.79-4.821" fill="#fff"/>
            <path d="M41.819 176.215s3.886-16.464-12.537-16.508c-2.67 0 19.733-1.573 20.232-9.106.5-7.533-11.58-6.809-23.79-4.821" stroke="#000" stroke-miterlimit="10"/>
            <path d="M41.82 176.454c.05 0 .1-.018.139-.051a.236.236 0 0 0 .079-.131c.018-.073 1.689-7.395-1.959-12.319-1.88-2.537-4.813-4.006-8.736-4.387 11.96-1.888 18.136-4.883 18.4-8.949.104-1.658-.374-3.011-1.427-4.028-3.713-3.587-14.052-2.442-22.623-1.044a.226.226 0 0 0-.149.093.25.25 0 0 0-.043.177c.01.063.043.118.092.156a.228.228 0 0 0 .169.046c7.82-1.259 18.638-2.565 22.246.925.96.925 1.378 2.117 1.28 3.644-.251 3.939-6.712 6.862-19.203 8.691-1.265.182-1.265.182-1.247.431.018.248.233.239.445.239 4.82 0 8.333 1.457 10.435 4.295 3.516 4.739 1.898 11.844 1.88 11.917a.251.251 0 0 0 .027.179c.03.054.08.094.138.11l.056.006z" fill="#000"/>
            <path d="m117.441 55.547-5.101 14.95-2.119-3.678-6.599 9.843 5.771-16.675 2.275 3.264 5.773-7.703zM131.309 117.05l-15.063-.95 2.757-3.175-10.829-3.899 16.823 1.142-2.335 3.216 8.647 3.666zM151.306 83.091l-16.537 9.069 1.005-5.211-13.825 3.115 18.516-10.04-.535 4.965 11.376-1.898z" fill="#010101" stroke="#000" stroke-miterlimit="10"/>
            <path d="m75.775 88.085-19.401 24.854 17.323 6.858 10.66-2.386-5.12-14.325-3.462-15.001z" fill="#fff"/>
            <path d="M77.109 90.88c.847 7.46 6.042 23.21 8.286 28.057M73.479 90.362c1.252 10.767 6.421 25.197 8.911 30.44" stroke="#000"/>
            <circle cx="97.28" cy="161.094" r="9.754" fill="#231F20"/>
            <path fill-rule="evenodd" clip-rule="evenodd" d="M92.743 152.754a9.419 9.419 0 0 0-1.124.721c.058.192.09.397.09.608 0 1.179-.975 2.134-2.178 2.134-.128 0-.254-.011-.376-.032-.218.36-.413.735-.582 1.124.428.39.696.946.696 1.564 0 .938-.619 1.736-1.478 2.021-.002.067-.002.133-.002.2 0 .403.025.801.073 1.191.957.224 1.668 1.068 1.668 2.074a2.1 2.1 0 0 1-.524 1.389c.214.379.453.742.715 1.087.188-.052.387-.08.593-.08 1.202 0 2.177.955 2.177 2.134 0 .13-.012.258-.035.382.371.219.76.414 1.16.583a2.193 2.193 0 0 1 1.576-.661c.937 0 1.736.58 2.043 1.394h.046c.418 0 .83-.027 1.234-.08a2.174 2.174 0 0 1 2.076-1.488c.471 0 .907.146 1.263.396.433-.239.846-.51 1.234-.811a2.104 2.104 0 0 1-.059-.499c0-1.178.974-2.134 2.177-2.134.072 0 .144.004.215.011.246-.409.462-.838.645-1.284a2.105 2.105 0 0 1-.599-1.47c0-.875.537-1.626 1.305-1.956l.002-.178c0-.386-.023-.767-.068-1.141a2.134 2.134 0 0 1-1.055-3.341 9.556 9.556 0 0 0-.727-1.149 2.177 2.177 0 0 1-2.654-2.446 9.366 9.366 0 0 0-1.152-.608 2.178 2.178 0 0 1-3.516-.802 9.673 9.673 0 0 0-1.348.049 2.171 2.171 0 0 1-2.108 1.6 2.195 2.195 0 0 1-1.403-.502z" fill="#fff"/>
            <path d="M100.729 165.59s-.369.302-.648.504a5.972 5.972 0 0 1-4.392.913 6.006 6.006 0 0 1-3.796-2.403 6.088 6.088 0 0 1-1.087-4.382 6.062 6.062 0 0 1 2.226-3.92 5.983 5.983 0 0 1 4.302-1.276c1.543.15 2.969.894 3.98 2.079a6.076 6.076 0 0 1 1.444 4.275 6.07 6.07 0 0 1-1.897 4.093l-.132.117z" fill="#212F60"/>
            <path d="M101.775 165.491s-.369.305-.648.508a5.944 5.944 0 0 1-4.392.92 6.003 6.003 0 0 1-3.796-2.421 6.165 6.165 0 0 1-1.087-4.413 6.116 6.116 0 0 1 2.226-3.948 5.95 5.95 0 0 1 4.301-1.286 5.982 5.982 0 0 1 3.981 2.094 6.15 6.15 0 0 1 1.444 4.306 6.13 6.13 0 0 1-1.897 4.122l-.132.118z" fill="#231F20"/>
            <path d="M101.497 165.513s-.388.319-.681.53a6.28 6.28 0 0 1-4.615.959 6.306 6.306 0 0 1-3.988-2.524 6.39 6.39 0 0 1 1.197-8.72 6.285 6.285 0 0 1 8.702.843 6.385 6.385 0 0 1 1.517 4.491 6.38 6.38 0 0 1-1.993 4.299l-.139.122z" fill="#212F60"/>
            <path d="M101.339 165.317s-.369.305-.649.508a5.937 5.937 0 0 1-4.391.919 5.998 5.998 0 0 1-3.797-2.42 6.165 6.165 0 0 1-1.087-4.413 6.118 6.118 0 0 1 2.227-3.949 5.953 5.953 0 0 1 4.301-1.285 5.983 5.983 0 0 1 3.981 2.094 6.154 6.154 0 0 1 1.444 4.306 6.135 6.135 0 0 1-1.897 4.122l-.132.118z" fill="#fff"/>
            <path d="M100.805 164.729s-.323.266-.568.443a5.234 5.234 0 0 1-3.85.801 5.265 5.265 0 0 1-3.33-2.11 5.343 5.343 0 0 1 1-7.286 5.24 5.24 0 0 1 7.261.705 5.336 5.336 0 0 1 1.266 3.752 5.332 5.332 0 0 1-1.663 3.592l-.116.103z" fill="#212F60"/>
            <path d="M101.37 165.013a.806.806 0 0 1-.493-.18 1.502 1.502 0 0 1-.381-.451c-.059-.103-.114-.211-.167-.315l-.01-.02-.061-.119v-.016l-.02-.041v-.004a.04.04 0 0 1-.005-.009l-.046-.103c-.096-.214-.194-.434-.292-.649a1.567 1.567 0 0 0-.277-.419.54.54 0 0 0-.257-.159l.009-.174a.635.635 0 0 0 .575-.226.89.89 0 0 0 .177-.614l-.005-.069-.501.173H99.6l-.068.015h-.03a.215.215 0 0 1-.184-.1.515.515 0 0 1-.056-.122v-.009l.008-.004.028-.01.072-.024.656-.227-.04-.057a.416.416 0 0 0-.284-.179h-.039c-.253.082-.53.169-.809.256l-.056.018.06 2.92a1.969 1.969 0 0 1-.493-.141.532.532 0 0 0-.198-.034c-.18 0-.396.062-.626.126-.245.069-.5.141-.722.141h-.323c-1.064 0-1.915-.351-2.46-1.014a4.343 4.343 0 0 1-.903-2.176c-.106-.852.05-1.66.437-2.276.465-.739 1.1-1.532 2.745-1.546.078 0 1.765.012 2.325 1.012.384.686.224 1.263.219 1.269v.014a.68.68 0 0 1-1.36.006c.017-.079.175-.845.192-1.049a.665.665 0 0 0-.172-.489c-.152-.165-.382-.248-.682-.248a2.16 2.16 0 0 0-1.414.538c-.583.566-.864 1.413-.852 2.587.017 1.6.42 2.573 1.2 2.894a1.9 1.9 0 0 0 .72.155c.282 0 .492-.084.575-.166.306-.308.266-1.022.215-1.424-.02-.151-.082-.51-.117-.711v-.013l-.016-.02a.527.527 0 0 1-.056-.122v-.009l.008-.004.027-.01.073-.024.307-.106c.287-.097.753-.238 1.204-.384l.073-.023.032-.011.032-.008c.4-.125.812-.255 1.087-.349l.22-.076c.194-.067.395-.135.592-.206a.32.32 0 0 1 .098-.018.275.275 0 0 1 .256.203.077.077 0 0 1 .007.027.16.16 0 0 1-.027.012l-.828.285-.179.061.164.045a1.202 1.202 0 0 1 .309.125l.021.012.379-.146.228-.078c.193-.066.393-.135.589-.205a.32.32 0 0 1 .097-.018.278.278 0 0 1 .263.23l-.013.007c-.524.168.007 0-.014.005l-.827.284-.438.162.032.055.005.008a.855.855 0 0 1-.11.967c-.13.151-.296.266-.482.335l-.053.021-.012.014-.03.037.032.038c.234.241.446.503.633.783.1.139.203.284.312.422l.191.229c.101.115.217.217.345.301a.798.798 0 0 0 .421.139c.011 0 .017 0 .032.036.014.037.01.045.006.049a1.279 1.279 0 0 1-.617.365.79.79 0 0 1-.167.023z" fill="#fff"/>
            <path d="M102.169 164.581a1.077 1.077 0 0 1-.897-.631l.362-.461c.073.174.323.557.741.697l-.039.085-.167.31zM100.779 164.752l-.362.142c.043.199.235.607.653.641l.348-.261.361-.38c-.464.057-.879-.024-1-.142z" fill="#212F60"/>
            <circle cx="143.726" cy="158.854" r="5.305" fill="#231F20"/>
            <path fill-rule="evenodd" clip-rule="evenodd" d="M141.257 154.319a5.008 5.008 0 0 0-.612.392c.032.104.049.216.049.331 0 .64-.53 1.16-1.184 1.16a1.26 1.26 0 0 1-.205-.017 5.04 5.04 0 0 0-.316.611c.232.212.378.515.378.851 0 .51-.337.943-.804 1.099l-.001.108c0 .22.014.436.04.648.52.122.907.581.907 1.128 0 .289-.107.552-.285.755.116.207.246.404.389.592a1.18 1.18 0 0 1 .322-.044 1.173 1.173 0 0 1 1.166 1.368c.201.12.412.226.63.317.216-.221.52-.359.857-.359.51 0 .944.315 1.111.758h.026c.227 0 .451-.015.67-.043.152-.469.6-.809 1.129-.809.256 0 .493.079.687.215.236-.13.46-.278.672-.441a1.113 1.113 0 0 1-.033-.272 1.172 1.172 0 0 1 1.301-1.155c.134-.222.252-.456.351-.698a1.146 1.146 0 0 1-.325-.799c0-.475.292-.883.709-1.063l.001-.098c0-.209-.012-.416-.037-.62a1.16 1.16 0 0 1-.573-1.817 5.19 5.19 0 0 0-.396-.625 1.184 1.184 0 0 1-1.443-1.33 5.13 5.13 0 0 0-.627-.331 1.184 1.184 0 0 1-1.912-.436 5.049 5.049 0 0 0-.732.027c-.132.5-.595.87-1.147.87-.291 0-.557-.103-.763-.273z" fill="#fff"/>
            <path d="M145.602 161.299s-.201.164-.353.274a3.243 3.243 0 0 1-2.388.496 3.264 3.264 0 0 1-2.065-1.307 3.304 3.304 0 0 1 .62-4.514 3.245 3.245 0 0 1 2.339-.694 3.26 3.26 0 0 1 2.165 1.13 3.305 3.305 0 0 1-.247 4.551l-.071.064z" fill="#212F60"/>
            <path d="M146.169 161.245s-.2.166-.352.277a3.232 3.232 0 0 1-2.388.5 3.262 3.262 0 0 1-2.065-1.317 3.353 3.353 0 0 1-.592-2.4 3.328 3.328 0 0 1 1.212-2.147 3.235 3.235 0 0 1 4.504.44 3.348 3.348 0 0 1-.247 4.583l-.072.064z" fill="#231F20"/>
            <path d="M146.017 161.257s-.21.173-.37.288a3.414 3.414 0 0 1-2.509.521 3.43 3.43 0 0 1-2.17-1.372 3.475 3.475 0 0 1 .651-4.743 3.423 3.423 0 0 1 4.733.459 3.472 3.472 0 0 1-.259 4.78l-.076.067z" fill="#212F60"/>
            <path d="M145.933 161.151s-.2.165-.352.276a3.233 3.233 0 0 1-2.389.5 3.265 3.265 0 0 1-2.064-1.316 3.355 3.355 0 0 1-.592-2.4 3.333 3.333 0 0 1 1.211-2.148c.662-.53 1.5-.781 2.34-.699.839.082 1.615.49 2.165 1.139a3.35 3.35 0 0 1-.247 4.584l-.072.064z" fill="#fff"/>
            <path d="M145.642 160.831s-.176.145-.31.241a2.85 2.85 0 0 1-3.904-.711 2.905 2.905 0 0 1 .543-3.963 2.853 2.853 0 0 1 3.95.383 2.906 2.906 0 0 1-.216 3.994l-.063.056z" fill="#212F60"/>
            <path d="M145.95 160.985a.442.442 0 0 1-.269-.098.815.815 0 0 1-.207-.245 3.517 3.517 0 0 1-.09-.171l-.006-.011a3.913 3.913 0 0 0-.033-.065V160.386l-.011-.022v-.002l-.003-.005-.025-.056-.158-.353a.854.854 0 0 0-.151-.228.31.31 0 0 0-.14-.087l.005-.094a.353.353 0 0 0 .313-.123.487.487 0 0 0 .096-.334l-.003-.037-.272.094H144.987l-.037.008h-.016a.113.113 0 0 1-.1-.055.25.25 0 0 1-.031-.066v-.005l.005-.002.015-.005.039-.014.357-.123-.022-.031a.219.219 0 0 0-.154-.097H145.022l-.44.139-.031.01.033 1.588a1.09 1.09 0 0 1-.269-.077.277.277 0 0 0-.107-.018c-.098 0-.216.033-.341.068a1.526 1.526 0 0 1-.392.077h-.176c-.579 0-1.042-.191-1.338-.552a2.368 2.368 0 0 1-.491-1.183c-.057-.463.027-.903.238-1.237.253-.403.597-.834 1.493-.842.042 0 .959.007 1.264.551.209.373.122.687.119.69v.008a.373.373 0 0 1-.368.36.37.37 0 0 1-.371-.357 9.24 9.24 0 0 0 .104-.57.365.365 0 0 0-.094-.266c-.082-.09-.207-.135-.37-.135a1.168 1.168 0 0 0-.769.292c-.317.308-.47.769-.464 1.407.009.87.229 1.399.653 1.574.124.053.257.082.391.084.154 0 .268-.045.313-.09.166-.167.145-.556.117-.774a11.031 11.031 0 0 0-.064-.387v-.007l-.009-.011a.28.28 0 0 1-.03-.066v-.006l.004-.002.015-.005.04-.013.167-.058c.156-.052.41-.129.655-.209l.039-.012.018-.006.017-.005c.217-.067.442-.138.591-.189l.12-.042c.105-.036.215-.073.322-.112a.16.16 0 0 1 .053-.009.158.158 0 0 1 .088.032.155.155 0 0 1 .055.093c-.005.002-.009.005-.015.006l-.45.155-.097.033.089.025.055.017a.766.766 0 0 1 .113.051l.011.006.207-.079.124-.043c.105-.035.213-.073.32-.111a.191.191 0 0 1 .053-.01.153.153 0 0 1 .139.11c.003.005.004.01.004.015l-.007.004c-.285.092.003 0-.008.003l-.45.155-.238.087.018.03.002.005a.467.467 0 0 1-.059.526.644.644 0 0 1-.263.182l-.029.011-.006.008-.016.02.017.021c.127.131.242.273.344.425.054.076.111.155.17.23l.104.124a.89.89 0 0 0 .188.164.426.426 0 0 0 .229.076c.005 0 .009 0 .017.02.008.02.005.024.003.026a.698.698 0 0 1-.335.199.473.473 0 0 1-.091.012z" fill="#fff"/>
            <path d="M146.384 160.751a.586.586 0 0 1-.488-.343l.197-.251c.04.095.176.303.403.379l-.021.046-.091.169zM145.628 160.843l-.198.078c.024.108.128.329.356.348l.189-.142.197-.206c-.253.031-.478-.013-.544-.078z" fill="#212F60"/>
            <circle cx="102.2" cy="39.993" r="9.754" transform="rotate(-12.255 102.2 39.993)" fill="#231F20"/>
            <path fill-rule="evenodd" clip-rule="evenodd" d="M95.994 32.806a9.505 9.505 0 0 0-.947.943c.098.176.172.369.217.575.25 1.152-.5 2.293-1.675 2.548-.125.027-.25.043-.374.048a9.451 9.451 0 0 0-.33 1.222c.502.29.883.777 1.014 1.38.2.919-.237 1.83-1.017 2.29a9.637 9.637 0 0 0 .365 1.343c.983.017 1.857.69 2.071 1.674a2.1 2.1 0 0 1-.218 1.468c.29.326.6.63.93.91.173-.09.362-.16.563-.204 1.175-.255 2.33.471 2.58 1.623.028.128.044.255.048.381.408.136.828.244 1.256.323a2.191 2.191 0 0 1 1.398-.979 2.177 2.177 0 0 1 2.292.928l.047-.01a9.638 9.638 0 0 0 1.189-.34 2.174 2.174 0 0 1 1.712-1.895c.461-.1.918-.049 1.318.119a9.502 9.502 0 0 0 1.035-1.055 2.087 2.087 0 0 1-.164-.475c-.251-1.152.499-2.292 1.674-2.548.071-.015.142-.027.212-.035a9.38 9.38 0 0 0 .358-1.392 2.106 2.106 0 0 1-.896-1.308 2.134 2.134 0 0 1 .859-2.188 9.433 9.433 0 0 0-.345-1.276 2.135 2.135 0 0 1-1.739-3.04 9.539 9.539 0 0 0-.955-.969 2.177 2.177 0 0 1-3.113-1.827 9.385 9.385 0 0 0-1.254-.35 2.178 2.178 0 0 1-3.605-.038 9.588 9.588 0 0 0-1.307.335 2.17 2.17 0 0 1-1.721 2.011 2.195 2.195 0 0 1-1.478-.192z" fill="#fff"/>
            <path d="M106.523 43.653s-.296.375-.527.631a5.973 5.973 0 0 1-4.097 1.824 6.003 6.003 0 0 1-4.22-1.542 6.086 6.086 0 0 1-.65-8.355 5.98 5.98 0 0 1 8.264-.973 6.08 6.08 0 0 1 2.319 3.871 6.067 6.067 0 0 1-.985 4.402l-.104.142z" fill="#212F60"/>
            <path d="M107.523 43.336s-.295.377-.525.635a5.94 5.94 0 0 1-4.096 1.83 6 6 0 0 1-4.224-1.56 6.164 6.164 0 0 1-2-4.08 6.116 6.116 0 0 1 1.338-4.332 5.951 5.951 0 0 1 3.931-2.169 5.98 5.98 0 0 1 4.334 1.201 6.153 6.153 0 0 1 2.325 3.902 6.133 6.133 0 0 1-.978 4.43l-.105.143z" fill="#231F20"/>
            <path d="M107.257 43.416s-.311.393-.554.663a6.277 6.277 0 0 1-4.305 1.916 6.308 6.308 0 0 1-4.434-1.62 6.39 6.39 0 0 1-.68-8.775 6.283 6.283 0 0 1 8.682-1.023 6.386 6.386 0 0 1 1.4 8.69l-.109.15z" fill="#212F60"/>
            <path d="M107.062 43.258s-.296.376-.526.634a5.94 5.94 0 0 1-4.096 1.83 6 6 0 0 1-4.224-1.559 6.163 6.163 0 0 1-2-4.081 6.116 6.116 0 0 1 1.339-4.331 5.95 5.95 0 0 1 3.93-2.17c1.54-.18 3.093.25 4.335 1.202a6.153 6.153 0 0 1 2.325 3.901 6.133 6.133 0 0 1-.979 4.431l-.104.143z" fill="#fff"/>
            <path d="M106.417 42.797s-.26.329-.462.554a5.232 5.232 0 0 1-3.592 1.6 5.264 5.264 0 0 1-3.7-1.355 5.345 5.345 0 0 1-.571-7.332 5.239 5.239 0 0 1 7.245-.853 5.34 5.34 0 0 1 2.034 3.398 5.331 5.331 0 0 1-.863 3.863l-.091.125z" fill="#212F60"/>
            <path d="M107.028 42.955a.81.81 0 0 1-.521-.07 1.51 1.51 0 0 1-.468-.361 6.104 6.104 0 0 1-.229-.272l-.015-.018a4.449 4.449 0 0 0-.085-.103l-.002-.01-.001-.006-.028-.035-.001-.004-.007-.008-.067-.091-.423-.572a1.56 1.56 0 0 0-.36-.35.542.542 0 0 0-.284-.102l-.029-.172a.634.634 0 0 0 .514-.343.889.889 0 0 0 .043-.637l-.02-.066-.452.275-.012.002-.004.001-.063.03-.029.006a.217.217 0 0 1-.202-.059.525.525 0 0 1-.08-.107.03.03 0 0 1-.002-.01l.007-.005.025-.015.066-.04.593-.36-.052-.048a.407.407 0 0 0-.315-.114l-.023.005-.015.003c-.231.134-.483.278-.736.422l-.052.03.679 2.84c-.172.012-.344 0-.512-.033a.521.521 0 0 0-.2.01c-.176.038-.375.143-.585.255-.226.12-.459.244-.676.29l-.158.035-.158.034c-1.039.226-1.946.064-2.62-.468a4.342 4.342 0 0 1-1.343-1.935c-.285-.81-.304-1.633-.056-2.316.297-.821.749-1.731 2.354-2.094.077-.017 1.727-.363 2.487.495.521.59.487 1.187.483 1.194l.001.007.002.007a.68.68 0 0 1-1.327.294c-.001-.08-.009-.863-.035-1.065a.67.67 0 0 0-.273-.442c-.183-.129-.425-.161-.718-.098a2.153 2.153 0 0 0-1.268.826c-.45.677-.544 1.564-.284 2.71.356 1.559.957 2.425 1.787 2.572.243.048.494.047.737 0 .275-.06.463-.187.526-.285.234-.366.043-1.056-.092-1.437a21.983 21.983 0 0 0-.265-.67l-.003-.012-.02-.017a.576.576 0 0 1-.081-.107.03.03 0 0 1-.002-.01l.007-.005.025-.015.066-.04.278-.168c.26-.155.686-.393 1.095-.63l.066-.038.029-.018.03-.015c.363-.207.739-.422.987-.572l.2-.121c.175-.106.357-.216.535-.327a.29.29 0 0 1 .091-.038.278.278 0 0 1 .294.143.06.06 0 0 1 .012.026.117.117 0 0 1-.024.017l-.748.454-.162.098.169.01a1.265 1.265 0 0 1 .33.056l.022.007.34-.223.206-.125c.174-.105.355-.215.532-.325a.292.292 0 0 1 .091-.038.278.278 0 0 1 .294.143c.006.008.01.016.012.026l-.011.01c-.477.275.006-.002-.013.007l-.748.454-.393.25.043.048.006.006a.859.859 0 0 1 .201.47.86.86 0 0 1-.103.499 1.185 1.185 0 0 1-.4.43l-.048.03-.008.017-.021.043.038.03c.28.186.543.398.785.63.127.116.259.235.395.348l.235.182c.123.092.258.166.401.221.14.057.293.073.441.047.01-.003.017-.004.039.029.022.032.019.04.016.046-.125.21-.307.379-.525.488a.812.812 0 0 1-.158.057z" fill="#fff"/>
            <path d="M107.717 42.362a1.077 1.077 0 0 1-1.011-.426l.257-.527c.108.154.433.476.871.523l-.019.092-.098.338zM106.394 42.825l-.324.216c.085.186.358.543.774.488l.285-.329.272-.448c-.441.154-.863.163-1.007.073z" fill="#212F60"/>
            <circle cx="47.031" cy="14.422" r="4.896" transform="rotate(6.548 47.031 14.422)" fill="#231F20"/>
            <path fill-rule="evenodd" clip-rule="evenodd" d="M45.246 10.003c-.208.085-.41.184-.604.296.018.1.022.203.01.308a1.082 1.082 0 0 1-1.392.902c-.13.167-.248.343-.354.527.19.219.292.512.257.82-.054.468-.408.83-.853.923a4.669 4.669 0 0 0-.044.697c.464.167.77.629.713 1.13-.03.265-.157.495-.34.663.084.201.183.396.294.583.097-.015.198-.018.301-.006a1.082 1.082 0 0 1 .924 1.378c.173.13.355.25.545.356a1.1 1.1 0 0 1 .823-.239c.467.054.833.389.94.812l.022.003c.208.024.415.034.62.03.188-.414.634-.679 1.12-.623.235.027.444.125.608.27.23-.094.45-.206.661-.334a1.052 1.052 0 0 1-.001-.252 1.082 1.082 0 0 1 1.314-.922c.147-.19.28-.392.396-.604a1.057 1.057 0 0 1-.213-.767c.05-.435.36-.78.761-.9l.011-.089c.022-.192.032-.383.032-.572a1.071 1.071 0 0 1-.335-1.727 4.764 4.764 0 0 0-.297-.615 1.093 1.093 0 0 1-1.183-1.371 4.741 4.741 0 0 0-.54-.37 1.093 1.093 0 0 1-1.707-.601 4.82 4.82 0 0 0-.675-.052 1.09 1.09 0 0 1-1.143.676c-.267-.03-.5-.152-.67-.33z" fill="#fff"/>
            <path d="M48.494 16.86s-.201.13-.352.215a2.998 2.998 0 0 1-3.998-1.211 3.055 3.055 0 0 1 1.043-4.075 3.002 3.002 0 0 1 4.084.874 3.052 3.052 0 0 1-.705 4.147l-.072.05z" fill="#212F60"/>
            <path d="M49.022 16.873s-.202.13-.353.216a2.981 2.981 0 0 1-2.242.207 3.011 3.011 0 0 1-1.755-1.424 3.094 3.094 0 0 1 1.047-4.105 2.986 2.986 0 0 1 4.084.878c.435.652.605 1.451.473 2.23a3.079 3.079 0 0 1-1.182 1.947l-.072.05z" fill="#231F20"/>
            <path d="M48.882 16.867s-.212.137-.37.226a3.152 3.152 0 0 1-4.201-1.274 3.208 3.208 0 0 1 1.096-4.28 3.154 3.154 0 0 1 4.291.92 3.205 3.205 0 0 1-.74 4.355l-.076.053z" fill="#212F60"/>
            <path d="M48.814 16.761s-.201.131-.352.216a2.98 2.98 0 0 1-2.243.207 3.011 3.011 0 0 1-1.755-1.424 3.093 3.093 0 0 1 1.047-4.104 2.986 2.986 0 0 1 4.084.877c.436.652.605 1.452.474 2.23a3.079 3.079 0 0 1-1.182 1.947l-.073.051z" fill="#fff"/>
            <path d="M48.58 16.437s-.176.114-.308.188a2.627 2.627 0 0 1-3.505-1.063 2.684 2.684 0 0 1 .915-3.577 2.63 2.63 0 0 1 3.58.767 2.68 2.68 0 0 1-.618 3.64l-.063.045z" fill="#212F60"/>
            <path d="M48.846 16.61a.406.406 0 0 1-.236-.117.754.754 0 0 1-.164-.247 3.105 3.105 0 0 1-.065-.166l-.004-.011-.023-.063v-.008l-.007-.021v-.002a.014.014 0 0 1-.002-.005l-.017-.054-.108-.34a.788.788 0 0 0-.115-.226.273.273 0 0 0-.119-.093l.015-.087a.32.32 0 0 0 .3-.08.447.447 0 0 0 .123-.296l.001-.034-.26.057h-.007l-.035.003-.015-.002a.107.107 0 0 1-.086-.06.258.258 0 0 1-.021-.064v-.005l.005-.001.014-.003.038-.008.34-.076-.017-.03a.209.209 0 0 0-.131-.106l-.012-.002h-.008a51.5 51.5 0 0 1-.418.081l-.03.006-.136 1.46a.976.976 0 0 1-.238-.1.264.264 0 0 0-.097-.027c-.09-.01-.2.008-.319.026a1.43 1.43 0 0 1-.368.03l-.08-.01-.081-.01c-.53-.06-.935-.284-1.169-.646a2.18 2.18 0 0 1-.326-1.136c-.004-.431.12-.825.348-1.11.275-.342.636-.701 1.458-.614.039.004.88.107 1.101.638.153.364.04.642.037.645v.004l-.001.003a.342.342 0 0 1-.678-.075c.012-.038.135-.411.156-.512a.334.334 0 0 0-.059-.253c-.066-.091-.175-.146-.325-.163a1.082 1.082 0 0 0-.736.187c-.323.25-.512.655-.573 1.242-.084.798.062 1.306.433 1.51a.957.957 0 0 0 .35.12c.14.016.25-.014.296-.05.17-.136.191-.495.189-.698-.001-.077-.012-.26-.018-.361v-.007l-.006-.01a.268.268 0 0 1-.021-.065v-.004l.005-.002.014-.003.038-.008.159-.035c.148-.032.39-.076.622-.123l.038-.007.016-.004.017-.002c.206-.04.42-.08.562-.112l.114-.025c.1-.022.205-.045.307-.069a.146.146 0 0 1 .05-.003.14.14 0 0 1 .118.13.065.065 0 0 1-.014.004l-.43.095-.092.02.079.032a.807.807 0 0 1 .147.08l.01.007.197-.051.118-.026c.1-.022.204-.045.305-.069a.146.146 0 0 1 .05-.003.14.14 0 0 1 .118.13l-.007.003c-.27.053.004 0-.007.001l-.43.095-.226.055.013.03.002.004a.43.43 0 0 1-.11.476.596.596 0 0 1-.26.14l-.028.006-.007.007-.017.017.014.02c.102.134.193.277.27.427.043.075.086.153.132.228l.083.125a.85.85 0 0 0 .154.17c.057.05.127.082.202.094.005 0 .009 0 .014.02.005.019.002.023 0 .024a.642.642 0 0 1-.328.147.392.392 0 0 1-.085.002z" fill="#fff"/>
            <path d="M49.27 16.44a.54.54 0 0 1-.412-.365l.208-.21a.667.667 0 0 0 .329.39l-.024.04-.101.146zM48.567 16.447l-.189.05c.01.102.083.316.29.357l.188-.11.202-.169c-.235.002-.437-.062-.49-.128z" fill="#212F60"/>
            <circle cx="33.577" cy="76.136" r="5.67" transform="rotate(-55.67 33.577 76.136)" fill="#231F20"/>
            <path fill-rule="evenodd" clip-rule="evenodd" d="M28.086 75.58c-.026.26-.033.519-.023.778.112.035.22.087.32.156.566.386.705 1.167.311 1.744a1.303 1.303 0 0 1-.137.17c.101.222.218.439.349.648.328-.079.683-.025.98.178.45.308.63.867.485 1.373a5.823 5.823 0 0 0 .691.421 1.246 1.246 0 0 1 1.543-.12c.255.173.423.427.495.706.252.022.504.026.754.013.037-.107.089-.212.157-.31a1.253 1.253 0 0 1 1.737-.347c.063.043.12.091.173.143.227-.106.448-.229.66-.366a1.275 1.275 0 0 1 .2-.973c.306-.45.847-.643 1.338-.523l.015-.023c.137-.2.26-.407.367-.618a1.264 1.264 0 0 1-.034-1.485c.154-.226.367-.387.604-.477a5.53 5.53 0 0 0 .015-.858 1.223 1.223 0 0 1-.258-.135 1.253 1.253 0 0 1-.236-1.844 5.496 5.496 0 0 0-.405-.731 1.223 1.223 0 0 1-.901-.194 1.24 1.24 0 0 1-.511-1.268 5.596 5.596 0 0 0-.655-.4 1.241 1.241 0 0 1-1.951-.59 5.52 5.52 0 0 0-.79-.027 1.266 1.266 0 0 1-2.044.472 5.5 5.5 0 0 0-.669.354 1.266 1.266 0 0 1-1.537 1.424 5.464 5.464 0 0 0-.418.663c.363.417.41 1.05.077 1.537-.175.257-.427.43-.702.51z" fill="#fff"/>
            <path d="M36.865 75.955s.024.276.03.476a3.473 3.473 0 0 1-3.4 3.442 3.538 3.538 0 0 1-3.612-3.268 3.476 3.476 0 0 1 3.1-3.713 3.535 3.535 0 0 1 3.869 2.96l.013.103z" fill="#212F60"/>
            <path d="M37.161 75.42s.026.278.032.479a3.453 3.453 0 0 1-.999 2.41 3.488 3.488 0 0 1-2.406 1.028 3.583 3.583 0 0 1-3.64-3.288 3.458 3.458 0 0 1 3.103-3.71 3.576 3.576 0 0 1 2.54.718 3.565 3.565 0 0 1 1.357 2.262l.013.102z" fill="#231F20"/>
            <path d="M37.081 75.561s.026.29.031.5a3.65 3.65 0 0 1-1.052 2.53 3.668 3.668 0 0 1-2.52 1.088 3.715 3.715 0 0 1-3.793-3.434 3.653 3.653 0 0 1 3.258-3.9 3.712 3.712 0 0 1 4.063 3.11l.013.106z" fill="#212F60"/>
            <path d="M36.936 75.572s.025.277.031.478a3.453 3.453 0 0 1-.998 2.41 3.488 3.488 0 0 1-2.407 1.028 3.583 3.583 0 0 1-3.64-3.288 3.459 3.459 0 0 1 3.103-3.71 3.576 3.576 0 0 1 2.54.718 3.565 3.565 0 0 1 1.358 2.262l.013.102z" fill="#fff"/>
            <path d="M36.478 75.635s.022.242.026.418a3.043 3.043 0 0 1-2.981 3.018 3.107 3.107 0 0 1-3.17-2.869 3.046 3.046 0 0 1 2.718-3.255 3.104 3.104 0 0 1 3.396 2.599l.011.09z" fill="#212F60"/>
            <path d="M36.798 75.457a.47.47 0 0 1-.248.178.875.875 0 0 1-.341.035 3.657 3.657 0 0 1-.206-.023l-.013-.001a3.53 3.53 0 0 0-.077-.01l-.005-.004-.003-.002-.026-.003-.002-.002h-.006l-.065-.012-.407-.073a.912.912 0 0 0-.292-.004.317.317 0 0 0-.16.071l-.08-.06a.37.37 0 0 0 .08-.35.518.518 0 0 0-.237-.287l-.035-.02-.082.296-.003.006-.002.002-.015.038-.01.014a.125.125 0 0 1-.108.056.296.296 0 0 1-.077-.013.017.017 0 0 1-.004-.003v-.005l.005-.017.012-.043.106-.39-.04.001a.24.24 0 0 0-.18.078l-.007.011-.005.008-.142.472-.01.033 1.421.928a1.125 1.125 0 0 1-.23.191.304.304 0 0 0-.08.084c-.06.086-.1.21-.145.342-.047.14-.096.286-.17.392l-.052.078-.053.077c-.349.511-.796.805-1.293.85a2.524 2.524 0 0 1-1.34-.28c-.445-.23-.782-.569-.95-.957-.202-.465-.375-1.03.158-1.825.025-.037.584-.842 1.248-.784.455.04.68.307.68.311l.004.003.003.002a.396.396 0 0 1-.442.654c-.033-.033-.349-.36-.441-.435a.389.389 0 0 0-.291-.078c-.13.019-.245.102-.343.246-.17.25-.242.554-.205.855.08.466.395.878.962 1.258.773.516 1.373.641 1.783.372.121-.077.227-.177.31-.295.093-.135.121-.264.109-.33-.047-.248-.403-.463-.613-.57-.08-.04-.272-.129-.38-.177l-.006-.004h-.015a.31.31 0 0 1-.077-.012.017.017 0 0 1-.004-.003v-.005l.005-.017.012-.043.05-.182c.048-.17.133-.44.21-.704l.013-.042.005-.02.007-.017c.07-.233.144-.474.189-.636l.035-.131c.032-.115.065-.234.096-.352a.17.17 0 0 1 .023-.052.162.162 0 0 1 .181-.057.04.04 0 0 1 .016.005.077.077 0 0 1-.003.017l-.135.491-.03.106.076-.064a.737.737 0 0 1 .161-.108l.013-.005.054-.23.037-.135c.032-.114.065-.233.095-.35a.17.17 0 0 1 .023-.053.161.161 0 0 1 .182-.057.04.04 0 0 1 .015.006v.009c-.092.307.002-.003-.003.008l-.135.49-.066.264.037.002h.006a.496.496 0 0 1 .428.37c.03.112.03.23.003.342l-.008.032.003.01.008.027.028-.003c.193-.033.388-.049.584-.047.1-.002.203-.005.305-.011l.173-.017a.984.984 0 0 0 .257-.067.463.463 0 0 0 .205-.157c.003-.005.005-.008.028-.003.022.005.024.01.025.013a.743.743 0 0 1-.027.416.453.453 0 0 1-.044.087z" fill="#fff"/>
            <path d="M36.854 74.932a.625.625 0 0 1-.597.224l-.102-.325a.773.773 0 0 0 .577-.127l.028.046.094.182zM36.481 75.656l-.05.22c.11.045.368.087.522-.103l-.012-.253-.064-.298c-.124.242-.3.415-.396.434z" fill="#212F60"/>
            <path fill-rule="evenodd" clip-rule="evenodd" d="M407.221 203.228c1.3 1.628 2.6 3.256 5.208 3.263l-20.867-.05c2.609.005 3.918-1.617 5.227-3.239 1.308-1.621 2.616-3.243 5.223-3.236 2.608.006 3.909 1.634 5.209 3.262zm-20.872-.051c1.3 1.628 2.6 3.257 5.21 3.264l-20.866-.051c2.61.006 3.918-1.616 5.227-3.238 1.308-1.622 2.616-3.243 5.224-3.236 2.607.006 3.906 1.633 5.205 3.261zm-20.868-.05c1.299 1.628 2.599 3.257 5.209 3.263l-20.867-.05c2.61.007 3.919-1.616 5.228-3.238 1.308-1.622 2.616-3.243 5.224-3.237 2.607.007 3.906 1.634 5.206 3.262zm-36.527 3.163c2.608.006 3.917-1.615 5.226-3.237 1.309-1.622 2.618-3.244 5.226-3.238 2.607.006 3.907 1.634 5.206 3.262 1.3 1.628 2.6 3.257 5.211 3.263l-20.869-.05zm0 0-20.87-.05c2.608.005 3.915-1.616 5.223-3.237 1.308-1.622 2.616-3.244 5.226-3.238 2.611.006 3.912 1.635 5.213 3.264 1.3 1.627 2.6 3.255 5.208 3.261zm-26.084-3.314c1.299 1.628 2.599 3.256 5.208 3.264l-20.866-.05c2.608.006 3.917-1.616 5.226-3.238 1.309-1.621 2.618-3.243 5.226-3.237 2.608.006 3.907 1.634 5.206 3.261zm-36.531 3.164c2.61.006 3.918-1.616 5.226-3.238 1.308-1.622 2.616-3.244 5.226-3.237 2.611.006 3.912 1.635 5.213 3.263 1.3 1.628 2.6 3.256 5.208 3.262l-20.873-.05zm0 0-20.866-.05c2.609.004 3.917-1.617 5.226-3.239 1.308-1.621 2.616-3.243 5.223-3.236 2.608.006 3.907 1.633 5.206 3.261 1.3 1.629 2.6 3.257 5.211 3.264zm-26.08-3.314c1.3 1.628 2.599 3.256 5.208 3.264l-20.866-.051c2.608.007 3.917-1.615 5.226-3.237 1.309-1.622 2.618-3.244 5.226-3.238 2.608.007 3.907 1.634 5.206 3.262zm-36.529 3.163h.014l20.857.05c-2.608-.006-3.909-1.634-5.21-3.262-1.301-1.628-2.603-3.256-5.211-3.263-2.608-.006-3.917 1.616-5.226 3.238-1.308 1.621-2.617 3.243-5.224 3.237-2.601-.012-3.9-1.638-5.198-3.263-1.301-1.628-2.601-3.256-5.208-3.262H193.303c-2.61-.006-3.918 1.616-5.226 3.238-1.307 1.62-2.613 3.24-5.217 3.237-2.597-.013-3.895-1.637-5.192-3.261-1.301-1.629-2.603-3.258-5.213-3.264-2.611-.006-3.919 1.616-5.227 3.239-1.307 1.621-2.614 3.242-5.221 3.236-2.608-.006-3.909-1.634-5.211-3.263-1.301-1.628-2.602-3.256-5.21-3.262-2.608-.006-3.916 1.616-5.224 3.237-1.308 1.622-2.616 3.244-5.224 3.238-2.608-.006-3.908-1.634-5.208-3.262-1.301-1.628-2.602-3.257-5.213-3.263-2.611-.006-3.918 1.616-5.226 3.238-1.307 1.622-2.614 3.243-5.222 3.237-2.608-.007-3.909-1.635-5.21-3.263-1.301-1.628-2.603-3.256-5.211-3.262-2.607-.007-3.915 1.615-5.223 3.236-1.309 1.622-2.618 3.245-5.229 3.239-2.61-.007-3.91-1.636-5.21-3.264-1.3-1.628-2.599-3.255-5.207-3.262-2.608-.006-3.917 1.616-5.226 3.238-1.309 1.622-2.618 3.244-5.226 3.237-2.607-.006-3.907-1.633-5.208-3.261-1.3-1.629-2.602-3.257-5.213-3.264-2.61-.006-3.918 1.616-5.226 3.238-1.308 1.622-2.616 3.244-5.226 3.237-2.61-.006-3.91-1.635-5.21-3.263-1.3-1.628-2.599-3.256-5.206-3.262-2.608-.006-3.917 1.616-5.227 3.238-1.309 1.622-2.618 3.243-5.226 3.237-2.607-.006-3.907-1.634-5.208-3.261-1.3-1.629-2.602-3.258-5.213-3.264-2.61-.006-3.918 1.616-5.226 3.239-1.307 1.621-2.614 3.242-5.221 3.236-2.608-.006-3.91-1.634-5.21-3.263-1.302-1.628-2.603-3.256-5.211-3.262-2.608-.006-3.916 1.615-5.224 3.236-1.308 1.622-2.617 3.243-5.225 3.239l20.87.05 20.868.05 20.87.05 20.872.05 20.87.051 20.872.05 20.869.05 20.869.05 20.844.05h.038l20.839.05m-213.895-3.764c1.3 1.628 2.599 3.255 5.207 3.263l-20.87-.05c2.61.006 3.919-1.616 5.227-3.238 1.308-1.622 2.615-3.244 5.226-3.237 2.61.006 3.91 1.634 5.21 3.262zm-15.662 3.213-20.878-.051c2.61.007 3.92-1.616 5.23-3.238 1.31-1.621 2.619-3.243 5.226-3.236 2.608.006 3.908 1.633 5.209 3.261 1.3 1.629 2.602 3.257 5.213 3.264z" fill="#58595B"/>
        </g>
        <path fill-rule="evenodd" clip-rule="evenodd" d="M407.521 2.315c1.3-1.628 2.6-3.256 5.208-3.263l-20.867.05c2.61-.005 3.919 1.617 5.227 3.239 1.308 1.621 2.616 3.243 5.224 3.236 2.608-.006 3.908-1.634 5.208-3.262zm-20.871.051c1.3-1.628 2.6-3.257 5.209-3.263l-20.866.05c2.61-.006 3.919 1.616 5.227 3.238 1.309 1.622 2.617 3.243 5.224 3.237 2.608-.007 3.907-1.634 5.206-3.262zm-20.869.05c1.3-1.628 2.6-3.256 5.209-3.263l-20.867.05c2.611-.006 3.92 1.616 5.229 3.238 1.308 1.622 2.616 3.243 5.223 3.237 2.608-.007 3.907-1.634 5.206-3.262zM329.254-.747c2.608-.006 3.917 1.616 5.226 3.237 1.309 1.622 2.618 3.244 5.226 3.238 2.608-.006 3.907-1.634 5.206-3.262 1.3-1.628 2.6-3.257 5.211-3.263l-20.869.05zm0 0-20.87.05c2.608-.005 3.916 1.616 5.223 3.238 1.308 1.621 2.616 3.243 5.226 3.237 2.611-.006 3.912-1.635 5.213-3.264 1.301-1.627 2.601-3.255 5.208-3.261zM303.17 2.567c1.3-1.628 2.599-3.256 5.208-3.264l-20.866.05c2.609-.006 3.918 1.616 5.227 3.238 1.308 1.622 2.617 3.243 5.226 3.237 2.607-.006 3.906-1.634 5.205-3.261zM266.639-.597c2.611-.006 3.919 1.616 5.226 3.238 1.308 1.622 2.616 3.244 5.227 3.237 2.61-.006 3.911-1.635 5.212-3.263 1.301-1.628 2.601-3.255 5.208-3.262l-20.873.05zm0 0-20.865.05c2.608-.004 3.917 1.617 5.225 3.239 1.308 1.622 2.616 3.243 5.224 3.236 2.607-.006 3.906-1.633 5.206-3.261 1.3-1.629 2.6-3.257 5.21-3.264zM240.56 2.717c1.299-1.628 2.599-3.256 5.207-3.263l-20.865.05c2.608-.007 3.917 1.615 5.226 3.237 1.309 1.622 2.618 3.244 5.226 3.238 2.607-.007 3.906-1.634 5.206-3.262zM204.031-.446h.014l20.857-.05c-2.608.006-3.909 1.634-5.211 3.262-1.301 1.628-2.602 3.256-5.21 3.263-2.608.006-3.917-1.616-5.226-3.238-1.309-1.621-2.618-3.243-5.224-3.237-2.601.012-3.9 1.638-5.199 3.263-1.3 1.628-2.6 3.256-5.208 3.262h-.02c-2.611.006-3.919-1.616-5.227-3.238-1.306-1.62-2.612-3.24-5.217-3.237-2.597.013-3.894 1.637-5.192 3.261-1.301 1.629-2.602 3.258-5.213 3.264-2.61.006-3.918-1.616-5.226-3.238-1.307-1.622-2.614-3.243-5.222-3.237-2.608.006-3.909 1.634-5.21 3.263-1.301 1.628-2.602 3.256-5.211 3.262-2.608.006-3.916-1.615-5.223-3.237-1.308-1.622-2.616-3.244-5.224-3.238-2.608.006-3.908 1.634-5.208 3.262-1.301 1.628-2.603 3.257-5.213 3.263-2.611.007-3.919-1.616-5.227-3.238-1.307-1.622-2.614-3.243-5.221-3.237-2.608.007-3.909 1.635-5.211 3.263-1.301 1.628-2.602 3.256-5.21 3.262-2.608.007-3.916-1.614-5.224-3.236-1.309-1.622-2.618-3.245-5.228-3.238-2.611.006-3.911 1.635-5.211 3.263-1.3 1.628-2.599 3.255-5.206 3.262-2.608.006-3.917-1.616-5.226-3.238-1.309-1.622-2.618-3.244-5.226-3.237-2.608.006-3.908 1.633-5.208 3.261-1.301 1.629-2.602 3.257-5.213 3.264-2.61.006-3.918-1.616-5.226-3.238C61.873 1.52 60.565-.1 57.955-.095c-2.61.006-3.911 1.635-5.21 3.263-1.3 1.628-2.6 3.256-5.207 3.262-2.608.006-3.917-1.616-5.226-3.238-1.309-1.621-2.618-3.243-5.226-3.237-2.608.006-3.908 1.634-5.208 3.262-1.301 1.628-2.602 3.257-5.213 3.263-2.61.006-3.919-1.616-5.226-3.238C20.13 1.62 18.825-.001 16.217.005c-2.608.006-3.91 1.635-5.21 3.263-1.302 1.628-2.603 3.256-5.21 3.262C3.188 6.536 1.88 4.915.572 3.294-.736 1.672-2.044.05-4.652.055l20.87-.05 20.868-.05 20.869-.05 20.873-.05 20.869-.05 20.873-.05 20.869-.05 20.868-.05 20.844-.051h.039l20.839-.05M-9.866 3.318C-8.567 1.69-7.267.063-4.66.055l-20.869.05c2.61-.006 3.918 1.616 5.226 3.238 1.308 1.622 2.616 3.244 5.226 3.237 2.61-.006 3.91-1.634 5.21-3.262zM-25.53.105l-20.877.05c2.61-.006 3.92 1.617 5.23 3.239 1.31 1.622 2.619 3.243 5.226 3.236 2.608-.006 3.908-1.633 5.208-3.261C-29.44 1.74-28.14.112-25.529.105z" fill="#58595B"/>
    </g>
</svg>
