<svg width="32" height="32" viewBox="0 0 32 32" fill="none" xmlns="http://www.w3.org/2000/svg">
    <circle cx="16" cy="16" r="13.333" fill="#BD081C"/>
    <path fill-rule="evenodd" clip-rule="evenodd" d="M16.568 8C12.202 8 10 11.13 10 13.741c0 1.58.598 2.987 1.882 3.51.21.087.4.004.46-.23.043-.16.143-.568.188-.737.061-.23.037-.311-.133-.512-.37-.437-.606-1.002-.606-1.802 0-2.323 1.738-4.402 4.525-4.402 2.468 0 3.824 1.508 3.824 3.522 0 2.65-1.173 4.886-2.914 4.886-.961 0-1.68-.795-1.45-1.77.276-1.164.811-2.421.811-3.261 0-.752-.404-1.38-1.24-1.38-.982 0-1.772 1.017-1.772 2.379 0 .867.293 1.454.293 1.454l-1.182 5.008c-.35 1.487-.052 3.309-.027 3.493.015.11.155.135.218.052.09-.118 1.261-1.564 1.66-3.008.112-.408.646-2.526.646-2.526.319.61 1.252 1.146 2.245 1.146 2.954 0 4.958-2.694 4.958-6.3C22.386 10.54 20.078 8 16.568 8z" fill="#fff"/>
</svg>
